ISO-10303-21;
HEADER;
FILE_DESCRIPTION(('FreeCAD Model'),'2;1');
FILE_NAME('Open CASCADE Shape Model','2025-05-21T09:58:15',('Author'),(
    ''),'Open CASCADE STEP processor 7.6','FreeCAD','Unknown');
FILE_SCHEMA(('AUTOMOTIVE_DESIGN { 1 0 10303 214 1 1 1 1 }'));
ENDSEC;
DATA;
#1 = APPLICATION_PROTOCOL_DEFINITION('international standard',
  'automotive_design',2000,#2);
#2 = APPLICATION_CONTEXT(
  'core data for automotive mechanical design processes');
#3 = SHAPE_DEFINITION_REPRESENTATION(#4,#10);
#4 = PRODUCT_DEFINITION_SHAPE('','',#5);
#5 = PRODUCT_DEFINITION('design','',#6,#9);
#6 = PRODUCT_DEFINITION_FORMATION('','',#7);
#7 = PRODUCT('Fillet','Fillet','',(#8));
#8 = PRODUCT_CONTEXT('',#2,'mechanical');
#9 = PRODUCT_DEFINITION_CONTEXT('part definition',#2,'design');
#10 = ADVANCED_BREP_SHAPE_REPRESENTATION('',(#11,#15),#641);
#11 = AXIS2_PLACEMENT_3D('',#12,#13,#14);
#12 = CARTESIAN_POINT('',(0.,0.,0.));
#13 = DIRECTION('',(0.,0.,1.));
#14 = DIRECTION('',(1.,0.,-0.));
#15 = MANIFOLD_SOLID_BREP('',#16);
#16 = CLOSED_SHELL('',(#17,#57,#168,#193,#218,#313,#330,#347,#364,#381,
    #393,#418,#443,#468,#493,#518,#543,#568,#593,#605,#617,#629));
#17 = ADVANCED_FACE('',(#18),#52,.F.);
#18 = FACE_BOUND('',#19,.F.);
#19 = EDGE_LOOP('',(#20,#30,#38,#46));
#20 = ORIENTED_EDGE('',*,*,#21,.F.);
#21 = EDGE_CURVE('',#22,#24,#26,.T.);
#22 = VERTEX_POINT('',#23);
#23 = CARTESIAN_POINT('',(3.,-4.440892098501E-16,1.972152263053E-31));
#24 = VERTEX_POINT('',#25);
#25 = CARTESIAN_POINT('',(82.,-4.440892098501E-16,1.972152263053E-31));
#26 = LINE('',#27,#28);
#27 = CARTESIAN_POINT('',(0.,0.,0.));
#28 = VECTOR('',#29,1.);
#29 = DIRECTION('',(1.,0.,0.));
#30 = ORIENTED_EDGE('',*,*,#31,.T.);
#31 = EDGE_CURVE('',#22,#32,#34,.T.);
#32 = VERTEX_POINT('',#33);
#33 = CARTESIAN_POINT('',(3.,2.6645352591E-15,7.));
#34 = LINE('',#35,#36);
#35 = CARTESIAN_POINT('',(3.,-4.440892098501E-16,1.972152263053E-31));
#36 = VECTOR('',#37,1.);
#37 = DIRECTION('',(0.,4.4E-16,1.));
#38 = ORIENTED_EDGE('',*,*,#39,.T.);
#39 = EDGE_CURVE('',#32,#40,#42,.T.);
#40 = VERTEX_POINT('',#41);
#41 = CARTESIAN_POINT('',(82.,2.6645352591E-15,7.));
#42 = LINE('',#43,#44);
#43 = CARTESIAN_POINT('',(0.,3.E-15,7.));
#44 = VECTOR('',#45,1.);
#45 = DIRECTION('',(1.,0.,0.));
#46 = ORIENTED_EDGE('',*,*,#47,.F.);
#47 = EDGE_CURVE('',#24,#40,#48,.T.);
#48 = LINE('',#49,#50);
#49 = CARTESIAN_POINT('',(82.,-4.440892098501E-16,1.972152263053E-31));
#50 = VECTOR('',#51,1.);
#51 = DIRECTION('',(0.,4.4E-16,1.));
#52 = PLANE('',#53);
#53 = AXIS2_PLACEMENT_3D('',#54,#55,#56);
#54 = CARTESIAN_POINT('',(0.,0.,0.));
#55 = DIRECTION('',(0.,1.,-4.4E-16));
#56 = DIRECTION('',(1.,0.,0.));
#57 = ADVANCED_FACE('',(#58,#119,#130,#141,#152),#163,.T.);
#58 = FACE_BOUND('',#59,.T.);
#59 = EDGE_LOOP('',(#60,#61,#70,#78,#87,#95,#104,#112));
#60 = ORIENTED_EDGE('',*,*,#21,.F.);
#61 = ORIENTED_EDGE('',*,*,#62,.T.);
#62 = EDGE_CURVE('',#22,#63,#65,.T.);
#63 = VERTEX_POINT('',#64);
#64 = CARTESIAN_POINT('',(-4.440892098501E-16,3.,1.183291357832E-30));
#65 = CIRCLE('',#66,3.);
#66 = AXIS2_PLACEMENT_3D('',#67,#68,#69);
#67 = CARTESIAN_POINT('',(3.,3.,-7.4E-16));
#68 = DIRECTION('',(-0.,-4.4E-16,-1.));
#69 = DIRECTION('',(0.,-1.,4.4E-16));
#70 = ORIENTED_EDGE('',*,*,#71,.F.);
#71 = EDGE_CURVE('',#72,#63,#74,.T.);
#72 = VERTEX_POINT('',#73);
#73 = CARTESIAN_POINT('',(-4.440892098501E-16,74.,0.));
#74 = LINE('',#75,#76);
#75 = CARTESIAN_POINT('',(0.,77.,0.));
#76 = VECTOR('',#77,1.);
#77 = DIRECTION('',(0.,-1.,0.));
#78 = ORIENTED_EDGE('',*,*,#79,.T.);
#79 = EDGE_CURVE('',#72,#80,#82,.T.);
#80 = VERTEX_POINT('',#81);
#81 = CARTESIAN_POINT('',(3.,77.,-3.419E-14));
#82 = CIRCLE('',#83,3.);
#83 = AXIS2_PLACEMENT_3D('',#84,#85,#86);
#84 = CARTESIAN_POINT('',(3.,74.,-1.636E-14));
#85 = DIRECTION('',(-0.,-4.4E-16,-1.));
#86 = DIRECTION('',(0.,-1.,4.4E-16));
#87 = ORIENTED_EDGE('',*,*,#88,.F.);
#88 = EDGE_CURVE('',#89,#80,#91,.T.);
#89 = VERTEX_POINT('',#90);
#90 = CARTESIAN_POINT('',(82.,77.,-3.419E-14));
#91 = LINE('',#92,#93);
#92 = CARTESIAN_POINT('',(85.,77.,0.));
#93 = VECTOR('',#94,1.);
#94 = DIRECTION('',(-1.,0.,0.));
#95 = ORIENTED_EDGE('',*,*,#96,.F.);
#96 = EDGE_CURVE('',#97,#89,#99,.T.);
#97 = VERTEX_POINT('',#98);
#98 = CARTESIAN_POINT('',(85.,74.,0.));
#99 = CIRCLE('',#100,3.);
#100 = AXIS2_PLACEMENT_3D('',#101,#102,#103);
#101 = CARTESIAN_POINT('',(82.,74.,-1.636E-14));
#102 = DIRECTION('',(0.,4.4E-16,1.));
#103 = DIRECTION('',(0.,-1.,4.4E-16));
#104 = ORIENTED_EDGE('',*,*,#105,.F.);
#105 = EDGE_CURVE('',#106,#97,#108,.T.);
#106 = VERTEX_POINT('',#107);
#107 = CARTESIAN_POINT('',(85.,3.,0.));
#108 = LINE('',#109,#110);
#109 = CARTESIAN_POINT('',(85.,0.,0.));
#110 = VECTOR('',#111,1.);
#111 = DIRECTION('',(0.,1.,0.));
#112 = ORIENTED_EDGE('',*,*,#113,.F.);
#113 = EDGE_CURVE('',#24,#106,#114,.T.);
#114 = CIRCLE('',#115,3.);
#115 = AXIS2_PLACEMENT_3D('',#116,#117,#118);
#116 = CARTESIAN_POINT('',(82.,3.,-7.4E-16));
#117 = DIRECTION('',(0.,4.4E-16,1.));
#118 = DIRECTION('',(0.,-1.,4.4E-16));
#119 = FACE_BOUND('',#120,.T.);
#120 = EDGE_LOOP('',(#121));
#121 = ORIENTED_EDGE('',*,*,#122,.T.);
#122 = EDGE_CURVE('',#123,#123,#125,.T.);
#123 = VERTEX_POINT('',#124);
#124 = CARTESIAN_POINT('',(6.6,5.,-3.E-15));
#125 = CIRCLE('',#126,1.6);
#126 = AXIS2_PLACEMENT_3D('',#127,#128,#129);
#127 = CARTESIAN_POINT('',(5.,5.,-2.66E-15));
#128 = DIRECTION('',(-0.,4.4E-16,1.));
#129 = DIRECTION('',(1.,0.,0.));
#130 = FACE_BOUND('',#131,.T.);
#131 = EDGE_LOOP('',(#132));
#132 = ORIENTED_EDGE('',*,*,#133,.T.);
#133 = EDGE_CURVE('',#134,#134,#136,.T.);
#134 = VERTEX_POINT('',#135);
#135 = CARTESIAN_POINT('',(6.6,72.,-3.2E-14));
#136 = CIRCLE('',#137,1.6);
#137 = AXIS2_PLACEMENT_3D('',#138,#139,#140);
#138 = CARTESIAN_POINT('',(5.,72.,-3.197E-14));
#139 = DIRECTION('',(-0.,4.4E-16,1.));
#140 = DIRECTION('',(1.,0.,0.));
#141 = FACE_BOUND('',#142,.T.);
#142 = EDGE_LOOP('',(#143));
#143 = ORIENTED_EDGE('',*,*,#144,.T.);
#144 = EDGE_CURVE('',#145,#145,#147,.T.);
#145 = VERTEX_POINT('',#146);
#146 = CARTESIAN_POINT('',(81.6,5.,-3.E-15));
#147 = CIRCLE('',#148,1.6);
#148 = AXIS2_PLACEMENT_3D('',#149,#150,#151);
#149 = CARTESIAN_POINT('',(80.,5.,-2.66E-15));
#150 = DIRECTION('',(-0.,4.4E-16,1.));
#151 = DIRECTION('',(1.,0.,0.));
#152 = FACE_BOUND('',#153,.T.);
#153 = EDGE_LOOP('',(#154));
#154 = ORIENTED_EDGE('',*,*,#155,.T.);
#155 = EDGE_CURVE('',#156,#156,#158,.T.);
#156 = VERTEX_POINT('',#157);
#157 = CARTESIAN_POINT('',(81.6,72.,-3.2E-14));
#158 = CIRCLE('',#159,1.6);
#159 = AXIS2_PLACEMENT_3D('',#160,#161,#162);
#160 = CARTESIAN_POINT('',(80.,72.,-3.197E-14));
#161 = DIRECTION('',(-0.,4.4E-16,1.));
#162 = DIRECTION('',(1.,0.,0.));
#163 = PLANE('',#164);
#164 = AXIS2_PLACEMENT_3D('',#165,#166,#167);
#165 = CARTESIAN_POINT('',(42.5,38.5,-8.55E-15));
#166 = DIRECTION('',(0.,-2.2E-16,-1.));
#167 = DIRECTION('',(0.,1.,-2.2E-16));
#168 = ADVANCED_FACE('',(#169),#188,.T.);
#169 = FACE_BOUND('',#170,.F.);
#170 = EDGE_LOOP('',(#171,#172,#180,#187));
#171 = ORIENTED_EDGE('',*,*,#62,.T.);
#172 = ORIENTED_EDGE('',*,*,#173,.T.);
#173 = EDGE_CURVE('',#63,#174,#176,.T.);
#174 = VERTEX_POINT('',#175);
#175 = CARTESIAN_POINT('',(-4.440892098501E-16,3.,7.));
#176 = LINE('',#177,#178);
#177 = CARTESIAN_POINT('',(-4.440892098501E-16,3.,-1.32E-15));
#178 = VECTOR('',#179,1.);
#179 = DIRECTION('',(0.,4.4E-16,1.));
#180 = ORIENTED_EDGE('',*,*,#181,.F.);
#181 = EDGE_CURVE('',#32,#174,#182,.T.);
#182 = CIRCLE('',#183,3.);
#183 = AXIS2_PLACEMENT_3D('',#184,#185,#186);
#184 = CARTESIAN_POINT('',(3.,3.,7.));
#185 = DIRECTION('',(-0.,-4.4E-16,-1.));
#186 = DIRECTION('',(0.,-1.,4.4E-16));
#187 = ORIENTED_EDGE('',*,*,#31,.F.);
#188 = CYLINDRICAL_SURFACE('',#189,3.);
#189 = AXIS2_PLACEMENT_3D('',#190,#191,#192);
#190 = CARTESIAN_POINT('',(3.,3.,-1.32E-15));
#191 = DIRECTION('',(0.,4.4E-16,1.));
#192 = DIRECTION('',(0.,-1.,4.4E-16));
#193 = ADVANCED_FACE('',(#194),#213,.T.);
#194 = FACE_BOUND('',#195,.T.);
#195 = EDGE_LOOP('',(#196,#197,#205,#212));
#196 = ORIENTED_EDGE('',*,*,#113,.T.);
#197 = ORIENTED_EDGE('',*,*,#198,.T.);
#198 = EDGE_CURVE('',#106,#199,#201,.T.);
#199 = VERTEX_POINT('',#200);
#200 = CARTESIAN_POINT('',(85.,3.,7.));
#201 = LINE('',#202,#203);
#202 = CARTESIAN_POINT('',(85.,3.,-1.32E-15));
#203 = VECTOR('',#204,1.);
#204 = DIRECTION('',(0.,4.4E-16,1.));
#205 = ORIENTED_EDGE('',*,*,#206,.F.);
#206 = EDGE_CURVE('',#40,#199,#207,.T.);
#207 = CIRCLE('',#208,3.);
#208 = AXIS2_PLACEMENT_3D('',#209,#210,#211);
#209 = CARTESIAN_POINT('',(82.,3.,7.));
#210 = DIRECTION('',(0.,4.4E-16,1.));
#211 = DIRECTION('',(0.,-1.,4.4E-16));
#212 = ORIENTED_EDGE('',*,*,#47,.F.);
#213 = CYLINDRICAL_SURFACE('',#214,3.);
#214 = AXIS2_PLACEMENT_3D('',#215,#216,#217);
#215 = CARTESIAN_POINT('',(82.,3.,-1.32E-15));
#216 = DIRECTION('',(0.,4.4E-16,1.));
#217 = DIRECTION('',(0.,-1.,4.4E-16));
#218 = ADVANCED_FACE('',(#219,#264,#275,#286,#297),#308,.F.);
#219 = FACE_BOUND('',#220,.F.);
#220 = EDGE_LOOP('',(#221,#222,#223,#231,#240,#248,#257,#263));
#221 = ORIENTED_EDGE('',*,*,#39,.F.);
#222 = ORIENTED_EDGE('',*,*,#181,.T.);
#223 = ORIENTED_EDGE('',*,*,#224,.F.);
#224 = EDGE_CURVE('',#225,#174,#227,.T.);
#225 = VERTEX_POINT('',#226);
#226 = CARTESIAN_POINT('',(-4.440892098501E-16,74.,7.));
#227 = LINE('',#228,#229);
#228 = CARTESIAN_POINT('',(0.,77.,7.));
#229 = VECTOR('',#230,1.);
#230 = DIRECTION('',(0.,-1.,0.));
#231 = ORIENTED_EDGE('',*,*,#232,.T.);
#232 = EDGE_CURVE('',#225,#233,#235,.T.);
#233 = VERTEX_POINT('',#234);
#234 = CARTESIAN_POINT('',(3.,77.,7.));
#235 = CIRCLE('',#236,3.);
#236 = AXIS2_PLACEMENT_3D('',#237,#238,#239);
#237 = CARTESIAN_POINT('',(3.,74.,7.));
#238 = DIRECTION('',(-0.,-4.4E-16,-1.));
#239 = DIRECTION('',(0.,-1.,4.4E-16));
#240 = ORIENTED_EDGE('',*,*,#241,.F.);
#241 = EDGE_CURVE('',#242,#233,#244,.T.);
#242 = VERTEX_POINT('',#243);
#243 = CARTESIAN_POINT('',(82.,77.,7.));
#244 = LINE('',#245,#246);
#245 = CARTESIAN_POINT('',(85.,77.,7.));
#246 = VECTOR('',#247,1.);
#247 = DIRECTION('',(-1.,0.,0.));
#248 = ORIENTED_EDGE('',*,*,#249,.F.);
#249 = EDGE_CURVE('',#250,#242,#252,.T.);
#250 = VERTEX_POINT('',#251);
#251 = CARTESIAN_POINT('',(85.,74.,7.));
#252 = CIRCLE('',#253,3.);
#253 = AXIS2_PLACEMENT_3D('',#254,#255,#256);
#254 = CARTESIAN_POINT('',(82.,74.,7.));
#255 = DIRECTION('',(0.,4.4E-16,1.));
#256 = DIRECTION('',(0.,-1.,4.4E-16));
#257 = ORIENTED_EDGE('',*,*,#258,.F.);
#258 = EDGE_CURVE('',#199,#250,#259,.T.);
#259 = LINE('',#260,#261);
#260 = CARTESIAN_POINT('',(85.,3.E-15,7.));
#261 = VECTOR('',#262,1.);
#262 = DIRECTION('',(0.,1.,0.));
#263 = ORIENTED_EDGE('',*,*,#206,.F.);
#264 = FACE_BOUND('',#265,.F.);
#265 = EDGE_LOOP('',(#266));
#266 = ORIENTED_EDGE('',*,*,#267,.T.);
#267 = EDGE_CURVE('',#268,#268,#270,.T.);
#268 = VERTEX_POINT('',#269);
#269 = CARTESIAN_POINT('',(8.25,5.,7.));
#270 = CIRCLE('',#271,3.25);
#271 = AXIS2_PLACEMENT_3D('',#272,#273,#274);
#272 = CARTESIAN_POINT('',(5.,5.,7.));
#273 = DIRECTION('',(0.,0.,1.));
#274 = DIRECTION('',(1.,0.,0.));
#275 = FACE_BOUND('',#276,.F.);
#276 = EDGE_LOOP('',(#277));
#277 = ORIENTED_EDGE('',*,*,#278,.T.);
#278 = EDGE_CURVE('',#279,#279,#281,.T.);
#279 = VERTEX_POINT('',#280);
#280 = CARTESIAN_POINT('',(8.25,72.,7.));
#281 = CIRCLE('',#282,3.25);
#282 = AXIS2_PLACEMENT_3D('',#283,#284,#285);
#283 = CARTESIAN_POINT('',(5.,72.,7.));
#284 = DIRECTION('',(0.,0.,1.));
#285 = DIRECTION('',(1.,0.,0.));
#286 = FACE_BOUND('',#287,.F.);
#287 = EDGE_LOOP('',(#288));
#288 = ORIENTED_EDGE('',*,*,#289,.T.);
#289 = EDGE_CURVE('',#290,#290,#292,.T.);
#290 = VERTEX_POINT('',#291);
#291 = CARTESIAN_POINT('',(83.25,5.,7.));
#292 = CIRCLE('',#293,3.25);
#293 = AXIS2_PLACEMENT_3D('',#294,#295,#296);
#294 = CARTESIAN_POINT('',(80.,5.,7.));
#295 = DIRECTION('',(0.,0.,1.));
#296 = DIRECTION('',(1.,0.,0.));
#297 = FACE_BOUND('',#298,.F.);
#298 = EDGE_LOOP('',(#299));
#299 = ORIENTED_EDGE('',*,*,#300,.T.);
#300 = EDGE_CURVE('',#301,#301,#303,.T.);
#301 = VERTEX_POINT('',#302);
#302 = CARTESIAN_POINT('',(83.25,72.,7.));
#303 = CIRCLE('',#304,3.25);
#304 = AXIS2_PLACEMENT_3D('',#305,#306,#307);
#305 = CARTESIAN_POINT('',(80.,72.,7.));
#306 = DIRECTION('',(0.,0.,1.));
#307 = DIRECTION('',(1.,0.,0.));
#308 = PLANE('',#309);
#309 = AXIS2_PLACEMENT_3D('',#310,#311,#312);
#310 = CARTESIAN_POINT('',(42.5,38.5,7.));
#311 = DIRECTION('',(0.,-2.2E-16,-1.));
#312 = DIRECTION('',(0.,1.,-2.2E-16));
#313 = ADVANCED_FACE('',(#314),#325,.F.);
#314 = FACE_BOUND('',#315,.F.);
#315 = EDGE_LOOP('',(#316,#317,#323,#324));
#316 = ORIENTED_EDGE('',*,*,#71,.F.);
#317 = ORIENTED_EDGE('',*,*,#318,.T.);
#318 = EDGE_CURVE('',#72,#225,#319,.T.);
#319 = LINE('',#320,#321);
#320 = CARTESIAN_POINT('',(-4.440892098501E-16,74.,-3.287E-14));
#321 = VECTOR('',#322,1.);
#322 = DIRECTION('',(0.,4.4E-16,1.));
#323 = ORIENTED_EDGE('',*,*,#224,.T.);
#324 = ORIENTED_EDGE('',*,*,#173,.F.);
#325 = PLANE('',#326);
#326 = AXIS2_PLACEMENT_3D('',#327,#328,#329);
#327 = CARTESIAN_POINT('',(0.,77.,-3.419E-14));
#328 = DIRECTION('',(1.,0.,0.));
#329 = DIRECTION('',(0.,-1.,4.4E-16));
#330 = ADVANCED_FACE('',(#331),#342,.F.);
#331 = FACE_BOUND('',#332,.F.);
#332 = EDGE_LOOP('',(#333,#334,#335,#336));
#333 = ORIENTED_EDGE('',*,*,#105,.F.);
#334 = ORIENTED_EDGE('',*,*,#198,.T.);
#335 = ORIENTED_EDGE('',*,*,#258,.T.);
#336 = ORIENTED_EDGE('',*,*,#337,.F.);
#337 = EDGE_CURVE('',#97,#250,#338,.T.);
#338 = LINE('',#339,#340);
#339 = CARTESIAN_POINT('',(85.,74.,-3.287E-14));
#340 = VECTOR('',#341,1.);
#341 = DIRECTION('',(0.,4.4E-16,1.));
#342 = PLANE('',#343);
#343 = AXIS2_PLACEMENT_3D('',#344,#345,#346);
#344 = CARTESIAN_POINT('',(85.,0.,0.));
#345 = DIRECTION('',(-1.,0.,0.));
#346 = DIRECTION('',(0.,1.,-4.4E-16));
#347 = ADVANCED_FACE('',(#348),#359,.T.);
#348 = FACE_BOUND('',#349,.F.);
#349 = EDGE_LOOP('',(#350,#351,#357,#358));
#350 = ORIENTED_EDGE('',*,*,#79,.T.);
#351 = ORIENTED_EDGE('',*,*,#352,.T.);
#352 = EDGE_CURVE('',#80,#233,#353,.T.);
#353 = LINE('',#354,#355);
#354 = CARTESIAN_POINT('',(3.,77.,-3.419E-14));
#355 = VECTOR('',#356,1.);
#356 = DIRECTION('',(0.,4.4E-16,1.));
#357 = ORIENTED_EDGE('',*,*,#232,.F.);
#358 = ORIENTED_EDGE('',*,*,#318,.F.);
#359 = CYLINDRICAL_SURFACE('',#360,3.);
#360 = AXIS2_PLACEMENT_3D('',#361,#362,#363);
#361 = CARTESIAN_POINT('',(3.,74.,-3.287E-14));
#362 = DIRECTION('',(0.,4.4E-16,1.));
#363 = DIRECTION('',(-1.,0.,0.));
#364 = ADVANCED_FACE('',(#365),#376,.T.);
#365 = FACE_BOUND('',#366,.T.);
#366 = EDGE_LOOP('',(#367,#368,#374,#375));
#367 = ORIENTED_EDGE('',*,*,#96,.T.);
#368 = ORIENTED_EDGE('',*,*,#369,.T.);
#369 = EDGE_CURVE('',#89,#242,#370,.T.);
#370 = LINE('',#371,#372);
#371 = CARTESIAN_POINT('',(82.,77.,-3.419E-14));
#372 = VECTOR('',#373,1.);
#373 = DIRECTION('',(0.,4.4E-16,1.));
#374 = ORIENTED_EDGE('',*,*,#249,.F.);
#375 = ORIENTED_EDGE('',*,*,#337,.F.);
#376 = CYLINDRICAL_SURFACE('',#377,3.);
#377 = AXIS2_PLACEMENT_3D('',#378,#379,#380);
#378 = CARTESIAN_POINT('',(82.,74.,-3.287E-14));
#379 = DIRECTION('',(0.,4.4E-16,1.));
#380 = DIRECTION('',(1.,0.,-0.));
#381 = ADVANCED_FACE('',(#382),#388,.F.);
#382 = FACE_BOUND('',#383,.F.);
#383 = EDGE_LOOP('',(#384,#385,#386,#387));
#384 = ORIENTED_EDGE('',*,*,#88,.F.);
#385 = ORIENTED_EDGE('',*,*,#369,.T.);
#386 = ORIENTED_EDGE('',*,*,#241,.T.);
#387 = ORIENTED_EDGE('',*,*,#352,.F.);
#388 = PLANE('',#389);
#389 = AXIS2_PLACEMENT_3D('',#390,#391,#392);
#390 = CARTESIAN_POINT('',(85.,77.,-3.419E-14));
#391 = DIRECTION('',(0.,-1.,4.4E-16));
#392 = DIRECTION('',(-1.,0.,0.));
#393 = ADVANCED_FACE('',(#394),#413,.F.);
#394 = FACE_BOUND('',#395,.F.);
#395 = EDGE_LOOP('',(#396,#405,#411,#412));
#396 = ORIENTED_EDGE('',*,*,#397,.F.);
#397 = EDGE_CURVE('',#398,#398,#400,.T.);
#398 = VERTEX_POINT('',#399);
#399 = CARTESIAN_POINT('',(6.6,5.,2.8));
#400 = CIRCLE('',#401,1.6);
#401 = AXIS2_PLACEMENT_3D('',#402,#403,#404);
#402 = CARTESIAN_POINT('',(5.,5.,2.8));
#403 = DIRECTION('',(-0.,4.4E-16,1.));
#404 = DIRECTION('',(1.,0.,0.));
#405 = ORIENTED_EDGE('',*,*,#406,.T.);
#406 = EDGE_CURVE('',#398,#123,#407,.T.);
#407 = LINE('',#408,#409);
#408 = CARTESIAN_POINT('',(6.6,5.,7.));
#409 = VECTOR('',#410,1.);
#410 = DIRECTION('',(0.,-4.4E-16,-1.));
#411 = ORIENTED_EDGE('',*,*,#122,.T.);
#412 = ORIENTED_EDGE('',*,*,#406,.F.);
#413 = CYLINDRICAL_SURFACE('',#414,1.6);
#414 = AXIS2_PLACEMENT_3D('',#415,#416,#417);
#415 = CARTESIAN_POINT('',(5.,5.,7.));
#416 = DIRECTION('',(0.,4.4E-16,1.));
#417 = DIRECTION('',(1.,0.,0.));
#418 = ADVANCED_FACE('',(#419),#438,.F.);
#419 = FACE_BOUND('',#420,.F.);
#420 = EDGE_LOOP('',(#421,#430,#436,#437));
#421 = ORIENTED_EDGE('',*,*,#422,.F.);
#422 = EDGE_CURVE('',#423,#423,#425,.T.);
#423 = VERTEX_POINT('',#424);
#424 = CARTESIAN_POINT('',(6.6,72.,2.8));
#425 = CIRCLE('',#426,1.6);
#426 = AXIS2_PLACEMENT_3D('',#427,#428,#429);
#427 = CARTESIAN_POINT('',(5.,72.,2.8));
#428 = DIRECTION('',(-0.,4.4E-16,1.));
#429 = DIRECTION('',(1.,0.,0.));
#430 = ORIENTED_EDGE('',*,*,#431,.T.);
#431 = EDGE_CURVE('',#423,#134,#432,.T.);
#432 = LINE('',#433,#434);
#433 = CARTESIAN_POINT('',(6.6,72.,7.));
#434 = VECTOR('',#435,1.);
#435 = DIRECTION('',(0.,-4.4E-16,-1.));
#436 = ORIENTED_EDGE('',*,*,#133,.T.);
#437 = ORIENTED_EDGE('',*,*,#431,.F.);
#438 = CYLINDRICAL_SURFACE('',#439,1.6);
#439 = AXIS2_PLACEMENT_3D('',#440,#441,#442);
#440 = CARTESIAN_POINT('',(5.,72.,7.));
#441 = DIRECTION('',(0.,4.4E-16,1.));
#442 = DIRECTION('',(1.,0.,0.));
#443 = ADVANCED_FACE('',(#444),#463,.F.);
#444 = FACE_BOUND('',#445,.F.);
#445 = EDGE_LOOP('',(#446,#455,#461,#462));
#446 = ORIENTED_EDGE('',*,*,#447,.F.);
#447 = EDGE_CURVE('',#448,#448,#450,.T.);
#448 = VERTEX_POINT('',#449);
#449 = CARTESIAN_POINT('',(81.6,5.,2.8));
#450 = CIRCLE('',#451,1.6);
#451 = AXIS2_PLACEMENT_3D('',#452,#453,#454);
#452 = CARTESIAN_POINT('',(80.,5.,2.8));
#453 = DIRECTION('',(-0.,4.4E-16,1.));
#454 = DIRECTION('',(1.,0.,0.));
#455 = ORIENTED_EDGE('',*,*,#456,.T.);
#456 = EDGE_CURVE('',#448,#145,#457,.T.);
#457 = LINE('',#458,#459);
#458 = CARTESIAN_POINT('',(81.6,5.,7.));
#459 = VECTOR('',#460,1.);
#460 = DIRECTION('',(0.,-4.4E-16,-1.));
#461 = ORIENTED_EDGE('',*,*,#144,.T.);
#462 = ORIENTED_EDGE('',*,*,#456,.F.);
#463 = CYLINDRICAL_SURFACE('',#464,1.6);
#464 = AXIS2_PLACEMENT_3D('',#465,#466,#467);
#465 = CARTESIAN_POINT('',(80.,5.,7.));
#466 = DIRECTION('',(0.,4.4E-16,1.));
#467 = DIRECTION('',(1.,0.,0.));
#468 = ADVANCED_FACE('',(#469),#488,.F.);
#469 = FACE_BOUND('',#470,.F.);
#470 = EDGE_LOOP('',(#471,#480,#486,#487));
#471 = ORIENTED_EDGE('',*,*,#472,.F.);
#472 = EDGE_CURVE('',#473,#473,#475,.T.);
#473 = VERTEX_POINT('',#474);
#474 = CARTESIAN_POINT('',(81.6,72.,2.8));
#475 = CIRCLE('',#476,1.6);
#476 = AXIS2_PLACEMENT_3D('',#477,#478,#479);
#477 = CARTESIAN_POINT('',(80.,72.,2.8));
#478 = DIRECTION('',(-0.,4.4E-16,1.));
#479 = DIRECTION('',(1.,0.,0.));
#480 = ORIENTED_EDGE('',*,*,#481,.T.);
#481 = EDGE_CURVE('',#473,#156,#482,.T.);
#482 = LINE('',#483,#484);
#483 = CARTESIAN_POINT('',(81.6,72.,7.));
#484 = VECTOR('',#485,1.);
#485 = DIRECTION('',(0.,-4.4E-16,-1.));
#486 = ORIENTED_EDGE('',*,*,#155,.T.);
#487 = ORIENTED_EDGE('',*,*,#481,.F.);
#488 = CYLINDRICAL_SURFACE('',#489,1.6);
#489 = AXIS2_PLACEMENT_3D('',#490,#491,#492);
#490 = CARTESIAN_POINT('',(80.,72.,7.));
#491 = DIRECTION('',(0.,4.4E-16,1.));
#492 = DIRECTION('',(1.,0.,0.));
#493 = ADVANCED_FACE('',(#494),#513,.F.);
#494 = FACE_BOUND('',#495,.F.);
#495 = EDGE_LOOP('',(#496,#504,#511,#512));
#496 = ORIENTED_EDGE('',*,*,#497,.T.);
#497 = EDGE_CURVE('',#268,#498,#500,.T.);
#498 = VERTEX_POINT('',#499);
#499 = CARTESIAN_POINT('',(8.25,5.,2.8));
#500 = LINE('',#501,#502);
#501 = CARTESIAN_POINT('',(8.25,5.,7.));
#502 = VECTOR('',#503,1.);
#503 = DIRECTION('',(0.,-4.4E-16,-1.));
#504 = ORIENTED_EDGE('',*,*,#505,.T.);
#505 = EDGE_CURVE('',#498,#498,#506,.T.);
#506 = CIRCLE('',#507,3.25);
#507 = AXIS2_PLACEMENT_3D('',#508,#509,#510);
#508 = CARTESIAN_POINT('',(5.,5.,2.8));
#509 = DIRECTION('',(0.,0.,1.));
#510 = DIRECTION('',(1.,0.,0.));
#511 = ORIENTED_EDGE('',*,*,#497,.F.);
#512 = ORIENTED_EDGE('',*,*,#267,.F.);
#513 = CYLINDRICAL_SURFACE('',#514,3.25);
#514 = AXIS2_PLACEMENT_3D('',#515,#516,#517);
#515 = CARTESIAN_POINT('',(5.,5.,7.));
#516 = DIRECTION('',(0.,4.4E-16,1.));
#517 = DIRECTION('',(1.,0.,0.));
#518 = ADVANCED_FACE('',(#519),#538,.F.);
#519 = FACE_BOUND('',#520,.F.);
#520 = EDGE_LOOP('',(#521,#529,#536,#537));
#521 = ORIENTED_EDGE('',*,*,#522,.T.);
#522 = EDGE_CURVE('',#279,#523,#525,.T.);
#523 = VERTEX_POINT('',#524);
#524 = CARTESIAN_POINT('',(8.25,72.,2.8));
#525 = LINE('',#526,#527);
#526 = CARTESIAN_POINT('',(8.25,72.,7.));
#527 = VECTOR('',#528,1.);
#528 = DIRECTION('',(0.,-4.4E-16,-1.));
#529 = ORIENTED_EDGE('',*,*,#530,.T.);
#530 = EDGE_CURVE('',#523,#523,#531,.T.);
#531 = CIRCLE('',#532,3.25);
#532 = AXIS2_PLACEMENT_3D('',#533,#534,#535);
#533 = CARTESIAN_POINT('',(5.,72.,2.8));
#534 = DIRECTION('',(0.,0.,1.));
#535 = DIRECTION('',(1.,0.,0.));
#536 = ORIENTED_EDGE('',*,*,#522,.F.);
#537 = ORIENTED_EDGE('',*,*,#278,.F.);
#538 = CYLINDRICAL_SURFACE('',#539,3.25);
#539 = AXIS2_PLACEMENT_3D('',#540,#541,#542);
#540 = CARTESIAN_POINT('',(5.,72.,7.));
#541 = DIRECTION('',(0.,4.4E-16,1.));
#542 = DIRECTION('',(1.,0.,0.));
#543 = ADVANCED_FACE('',(#544),#563,.F.);
#544 = FACE_BOUND('',#545,.F.);
#545 = EDGE_LOOP('',(#546,#554,#561,#562));
#546 = ORIENTED_EDGE('',*,*,#547,.T.);
#547 = EDGE_CURVE('',#290,#548,#550,.T.);
#548 = VERTEX_POINT('',#549);
#549 = CARTESIAN_POINT('',(83.25,5.,2.8));
#550 = LINE('',#551,#552);
#551 = CARTESIAN_POINT('',(83.25,5.,7.));
#552 = VECTOR('',#553,1.);
#553 = DIRECTION('',(0.,-4.4E-16,-1.));
#554 = ORIENTED_EDGE('',*,*,#555,.T.);
#555 = EDGE_CURVE('',#548,#548,#556,.T.);
#556 = CIRCLE('',#557,3.25);
#557 = AXIS2_PLACEMENT_3D('',#558,#559,#560);
#558 = CARTESIAN_POINT('',(80.,5.,2.8));
#559 = DIRECTION('',(0.,0.,1.));
#560 = DIRECTION('',(1.,0.,0.));
#561 = ORIENTED_EDGE('',*,*,#547,.F.);
#562 = ORIENTED_EDGE('',*,*,#289,.F.);
#563 = CYLINDRICAL_SURFACE('',#564,3.25);
#564 = AXIS2_PLACEMENT_3D('',#565,#566,#567);
#565 = CARTESIAN_POINT('',(80.,5.,7.));
#566 = DIRECTION('',(0.,4.4E-16,1.));
#567 = DIRECTION('',(1.,0.,0.));
#568 = ADVANCED_FACE('',(#569),#588,.F.);
#569 = FACE_BOUND('',#570,.F.);
#570 = EDGE_LOOP('',(#571,#579,#586,#587));
#571 = ORIENTED_EDGE('',*,*,#572,.T.);
#572 = EDGE_CURVE('',#301,#573,#575,.T.);
#573 = VERTEX_POINT('',#574);
#574 = CARTESIAN_POINT('',(83.25,72.,2.8));
#575 = LINE('',#576,#577);
#576 = CARTESIAN_POINT('',(83.25,72.,7.));
#577 = VECTOR('',#578,1.);
#578 = DIRECTION('',(0.,-4.4E-16,-1.));
#579 = ORIENTED_EDGE('',*,*,#580,.T.);
#580 = EDGE_CURVE('',#573,#573,#581,.T.);
#581 = CIRCLE('',#582,3.25);
#582 = AXIS2_PLACEMENT_3D('',#583,#584,#585);
#583 = CARTESIAN_POINT('',(80.,72.,2.8));
#584 = DIRECTION('',(0.,0.,1.));
#585 = DIRECTION('',(1.,0.,0.));
#586 = ORIENTED_EDGE('',*,*,#572,.F.);
#587 = ORIENTED_EDGE('',*,*,#300,.F.);
#588 = CYLINDRICAL_SURFACE('',#589,3.25);
#589 = AXIS2_PLACEMENT_3D('',#590,#591,#592);
#590 = CARTESIAN_POINT('',(80.,72.,7.));
#591 = DIRECTION('',(0.,4.4E-16,1.));
#592 = DIRECTION('',(1.,0.,0.));
#593 = ADVANCED_FACE('',(#594,#597),#600,.F.);
#594 = FACE_BOUND('',#595,.F.);
#595 = EDGE_LOOP('',(#596));
#596 = ORIENTED_EDGE('',*,*,#505,.F.);
#597 = FACE_BOUND('',#598,.F.);
#598 = EDGE_LOOP('',(#599));
#599 = ORIENTED_EDGE('',*,*,#397,.T.);
#600 = PLANE('',#601);
#601 = AXIS2_PLACEMENT_3D('',#602,#603,#604);
#602 = CARTESIAN_POINT('',(42.5,5.,2.8));
#603 = DIRECTION('',(0.,-1.6E-16,-1.));
#604 = DIRECTION('',(0.,1.,-1.6E-16));
#605 = ADVANCED_FACE('',(#606,#609),#612,.F.);
#606 = FACE_BOUND('',#607,.F.);
#607 = EDGE_LOOP('',(#608));
#608 = ORIENTED_EDGE('',*,*,#530,.F.);
#609 = FACE_BOUND('',#610,.F.);
#610 = EDGE_LOOP('',(#611));
#611 = ORIENTED_EDGE('',*,*,#422,.T.);
#612 = PLANE('',#613);
#613 = AXIS2_PLACEMENT_3D('',#614,#615,#616);
#614 = CARTESIAN_POINT('',(42.5,72.,2.8));
#615 = DIRECTION('',(0.,-1.6E-16,-1.));
#616 = DIRECTION('',(0.,1.,-1.6E-16));
#617 = ADVANCED_FACE('',(#618,#621),#624,.F.);
#618 = FACE_BOUND('',#619,.F.);
#619 = EDGE_LOOP('',(#620));
#620 = ORIENTED_EDGE('',*,*,#555,.F.);
#621 = FACE_BOUND('',#622,.F.);
#622 = EDGE_LOOP('',(#623));
#623 = ORIENTED_EDGE('',*,*,#447,.T.);
#624 = PLANE('',#625);
#625 = AXIS2_PLACEMENT_3D('',#626,#627,#628);
#626 = CARTESIAN_POINT('',(42.5,5.,2.8));
#627 = DIRECTION('',(0.,-1.6E-16,-1.));
#628 = DIRECTION('',(0.,1.,-1.6E-16));
#629 = ADVANCED_FACE('',(#630,#633),#636,.F.);
#630 = FACE_BOUND('',#631,.F.);
#631 = EDGE_LOOP('',(#632));
#632 = ORIENTED_EDGE('',*,*,#580,.F.);
#633 = FACE_BOUND('',#634,.F.);
#634 = EDGE_LOOP('',(#635));
#635 = ORIENTED_EDGE('',*,*,#472,.T.);
#636 = PLANE('',#637);
#637 = AXIS2_PLACEMENT_3D('',#638,#639,#640);
#638 = CARTESIAN_POINT('',(42.5,72.,2.8));
#639 = DIRECTION('',(0.,-1.6E-16,-1.));
#640 = DIRECTION('',(0.,1.,-1.6E-16));
#641 = ( GEOMETRIC_REPRESENTATION_CONTEXT(3) 
GLOBAL_UNCERTAINTY_ASSIGNED_CONTEXT((#645)) GLOBAL_UNIT_ASSIGNED_CONTEXT
((#642,#643,#644)) REPRESENTATION_CONTEXT('Context #1',
  '3D Context with UNIT and UNCERTAINTY') );
#642 = ( LENGTH_UNIT() NAMED_UNIT(*) SI_UNIT(.MILLI.,.METRE.) );
#643 = ( NAMED_UNIT(*) PLANE_ANGLE_UNIT() SI_UNIT($,.RADIAN.) );
#644 = ( NAMED_UNIT(*) SI_UNIT($,.STERADIAN.) SOLID_ANGLE_UNIT() );
#645 = UNCERTAINTY_MEASURE_WITH_UNIT(LENGTH_MEASURE(1.E-07),#642,
  'distance_accuracy_value','confusion accuracy');
#646 = PRODUCT_RELATED_PRODUCT_CATEGORY('part',$,(#7));
#647 = MECHANICAL_DESIGN_GEOMETRIC_PRESENTATION_REPRESENTATION('',(#648)
  ,#641);
#648 = STYLED_ITEM('color',(#649),#15);
#649 = PRESENTATION_STYLE_ASSIGNMENT((#650,#656));
#650 = SURFACE_STYLE_USAGE(.BOTH.,#651);
#651 = SURFACE_SIDE_STYLE('',(#652));
#652 = SURFACE_STYLE_FILL_AREA(#653);
#653 = FILL_AREA_STYLE('',(#654));
#654 = FILL_AREA_STYLE_COLOUR('',#655);
#655 = COLOUR_RGB('',0.800000010877,0.800000010877,0.800000010877);
#656 = CURVE_STYLE('',#657,POSITIVE_LENGTH_MEASURE(0.1),#658);
#657 = DRAUGHTING_PRE_DEFINED_CURVE_FONT('continuous');
#658 = COLOUR_RGB('',9.803921802644E-02,9.803921802644E-02,
  9.803921802644E-02);
ENDSEC;
END-ISO-10303-21;
