ISO-10303-21;
HEADER;
FILE_DESCRIPTION(('FreeCAD Model'),'2;1');
FILE_NAME('Open CASCADE Shape Model','2025-12-16T10:34:00',('Author'),(
    ''),'Open CASCADE STEP processor 7.6','FreeCAD','Unknown');
FILE_SCHEMA(('AUTOMOTIVE_DESIGN { 1 0 10303 214 1 1 1 1 }'));
ENDSEC;
DATA;
#1 = APPLICATION_PROTOCOL_DEFINITION('international standard',
  'automotive_design',2000,#2);
#2 = APPLICATION_CONTEXT(
  'core data for automotive mechanical design processes');
#3 = SHAPE_DEFINITION_REPRESENTATION(#4,#10);
#4 = PRODUCT_DEFINITION_SHAPE('','',#5);
#5 = PRODUCT_DEFINITION('design','',#6,#9);
#6 = PRODUCT_DEFINITION_FORMATION('','',#7);
#7 = PRODUCT('LinearPattern001','LinearPattern001','',(#8));
#8 = PRODUCT_CONTEXT('',#2,'mechanical');
#9 = PRODUCT_DEFINITION_CONTEXT('part definition',#2,'design');
#10 = ADVANCED_BREP_SHAPE_REPRESENTATION('',(#11,#15),#884);
#11 = AXIS2_PLACEMENT_3D('',#12,#13,#14);
#12 = CARTESIAN_POINT('',(0.,0.,0.));
#13 = DIRECTION('',(0.,0.,1.));
#14 = DIRECTION('',(1.,0.,-0.));
#15 = MANIFOLD_SOLID_BREP('',#16);
#16 = CLOSED_SHELL('',(#17,#147,#212,#237,#262,#287,#311,#344,#369,#393,
    #418,#443,#460,#485,#510,#534,#559,#612,#637,#719,#745,#765,#785,
    #804,#821,#833,#850,#867));
#17 = ADVANCED_FACE('',(#18,#120,#131),#142,.F.);
#18 = FACE_BOUND('',#19,.F.);
#19 = EDGE_LOOP('',(#20,#30,#38,#46,#54,#62,#71,#79,#88,#96,#105,#113));
#20 = ORIENTED_EDGE('',*,*,#21,.T.);
#21 = EDGE_CURVE('',#22,#24,#26,.T.);
#22 = VERTEX_POINT('',#23);
#23 = CARTESIAN_POINT('',(46.,27.,10.));
#24 = VERTEX_POINT('',#25);
#25 = CARTESIAN_POINT('',(46.,21.,10.));
#26 = LINE('',#27,#28);
#27 = CARTESIAN_POINT('',(46.,30.,10.));
#28 = VECTOR('',#29,1.);
#29 = DIRECTION('',(0.,-1.,0.));
#30 = ORIENTED_EDGE('',*,*,#31,.T.);
#31 = EDGE_CURVE('',#24,#32,#34,.T.);
#32 = VERTEX_POINT('',#33);
#33 = CARTESIAN_POINT('',(36.,21.,10.));
#34 = LINE('',#35,#36);
#35 = CARTESIAN_POINT('',(46.,21.,10.));
#36 = VECTOR('',#37,1.);
#37 = DIRECTION('',(-1.,0.,0.));
#38 = ORIENTED_EDGE('',*,*,#39,.T.);
#39 = EDGE_CURVE('',#32,#40,#42,.T.);
#40 = VERTEX_POINT('',#41);
#41 = CARTESIAN_POINT('',(10.,21.,10.));
#42 = LINE('',#43,#44);
#43 = CARTESIAN_POINT('',(36.,21.,10.));
#44 = VECTOR('',#45,1.);
#45 = DIRECTION('',(-1.,-0.,-0.));
#46 = ORIENTED_EDGE('',*,*,#47,.F.);
#47 = EDGE_CURVE('',#48,#40,#50,.T.);
#48 = VERTEX_POINT('',#49);
#49 = CARTESIAN_POINT('',(10.,20.,10.));
#50 = LINE('',#51,#52);
#51 = CARTESIAN_POINT('',(10.,8.333333333333,10.));
#52 = VECTOR('',#53,1.);
#53 = DIRECTION('',(0.,1.,-4.4E-16));
#54 = ORIENTED_EDGE('',*,*,#55,.F.);
#55 = EDGE_CURVE('',#56,#48,#58,.T.);
#56 = VERTEX_POINT('',#57);
#57 = CARTESIAN_POINT('',(10.,3.,10.));
#58 = LINE('',#59,#60);
#59 = CARTESIAN_POINT('',(10.,4.E-15,10.));
#60 = VECTOR('',#61,1.);
#61 = DIRECTION('',(0.,1.,0.));
#62 = ORIENTED_EDGE('',*,*,#63,.F.);
#63 = EDGE_CURVE('',#64,#56,#66,.T.);
#64 = VERTEX_POINT('',#65);
#65 = CARTESIAN_POINT('',(7.,4.E-15,10.));
#66 = CIRCLE('',#67,3.);
#67 = AXIS2_PLACEMENT_3D('',#68,#69,#70);
#68 = CARTESIAN_POINT('',(7.,3.,10.));
#69 = DIRECTION('',(-0.,4.4E-16,1.));
#70 = DIRECTION('',(0.,-1.,4.4E-16));
#71 = ORIENTED_EDGE('',*,*,#72,.F.);
#72 = EDGE_CURVE('',#73,#64,#75,.T.);
#73 = VERTEX_POINT('',#74);
#74 = CARTESIAN_POINT('',(3.,4.E-15,10.));
#75 = LINE('',#76,#77);
#76 = CARTESIAN_POINT('',(0.,3.97E-15,10.));
#77 = VECTOR('',#78,1.);
#78 = DIRECTION('',(1.,0.,0.));
#79 = ORIENTED_EDGE('',*,*,#80,.F.);
#80 = EDGE_CURVE('',#81,#73,#83,.T.);
#81 = VERTEX_POINT('',#82);
#82 = CARTESIAN_POINT('',(0.,3.,10.));
#83 = CIRCLE('',#84,3.);
#84 = AXIS2_PLACEMENT_3D('',#85,#86,#87);
#85 = CARTESIAN_POINT('',(3.,3.,10.));
#86 = DIRECTION('',(-0.,4.4E-16,1.));
#87 = DIRECTION('',(0.,-1.,4.4E-16));
#88 = ORIENTED_EDGE('',*,*,#89,.T.);
#89 = EDGE_CURVE('',#81,#90,#92,.T.);
#90 = VERTEX_POINT('',#91);
#91 = CARTESIAN_POINT('',(0.,27.,10.));
#92 = LINE('',#93,#94);
#93 = CARTESIAN_POINT('',(0.,3.97E-15,10.));
#94 = VECTOR('',#95,1.);
#95 = DIRECTION('',(0.,1.,0.));
#96 = ORIENTED_EDGE('',*,*,#97,.T.);
#97 = EDGE_CURVE('',#90,#98,#100,.T.);
#98 = VERTEX_POINT('',#99);
#99 = CARTESIAN_POINT('',(3.,30.,10.));
#100 = CIRCLE('',#101,3.);
#101 = AXIS2_PLACEMENT_3D('',#102,#103,#104);
#102 = CARTESIAN_POINT('',(3.,27.,10.));
#103 = DIRECTION('',(-0.,-4.4E-16,-1.));
#104 = DIRECTION('',(0.,-1.,4.4E-16));
#105 = ORIENTED_EDGE('',*,*,#106,.T.);
#106 = EDGE_CURVE('',#98,#107,#109,.T.);
#107 = VERTEX_POINT('',#108);
#108 = CARTESIAN_POINT('',(43.,30.,10.));
#109 = LINE('',#110,#111);
#110 = CARTESIAN_POINT('',(0.,30.,10.));
#111 = VECTOR('',#112,1.);
#112 = DIRECTION('',(1.,0.,0.));
#113 = ORIENTED_EDGE('',*,*,#114,.T.);
#114 = EDGE_CURVE('',#107,#22,#115,.T.);
#115 = CIRCLE('',#116,3.);
#116 = AXIS2_PLACEMENT_3D('',#117,#118,#119);
#117 = CARTESIAN_POINT('',(43.,27.,10.));
#118 = DIRECTION('',(-0.,-4.4E-16,-1.));
#119 = DIRECTION('',(0.,-1.,4.4E-16));
#120 = FACE_BOUND('',#121,.F.);
#121 = EDGE_LOOP('',(#122));
#122 = ORIENTED_EDGE('',*,*,#123,.T.);
#123 = EDGE_CURVE('',#124,#124,#126,.T.);
#124 = VERTEX_POINT('',#125);
#125 = CARTESIAN_POINT('',(8.35,5.,10.));
#126 = CIRCLE('',#127,3.35);
#127 = AXIS2_PLACEMENT_3D('',#128,#129,#130);
#128 = CARTESIAN_POINT('',(5.,5.,10.));
#129 = DIRECTION('',(0.,0.,1.));
#130 = DIRECTION('',(1.,0.,0.));
#131 = FACE_BOUND('',#132,.F.);
#132 = EDGE_LOOP('',(#133));
#133 = ORIENTED_EDGE('',*,*,#134,.T.);
#134 = EDGE_CURVE('',#135,#135,#137,.T.);
#135 = VERTEX_POINT('',#136);
#136 = CARTESIAN_POINT('',(8.35,15.,10.));
#137 = CIRCLE('',#138,3.35);
#138 = AXIS2_PLACEMENT_3D('',#139,#140,#141);
#139 = CARTESIAN_POINT('',(5.,15.,10.));
#140 = DIRECTION('',(0.,0.,1.));
#141 = DIRECTION('',(1.,0.,0.));
#142 = PLANE('',#143);
#143 = AXIS2_PLACEMENT_3D('',#144,#145,#146);
#144 = CARTESIAN_POINT('',(23.,16.666666666667,10.));
#145 = DIRECTION('',(0.,-2.2E-16,-1.));
#146 = DIRECTION('',(0.,1.,-2.2E-16));
#147 = ADVANCED_FACE('',(#148),#207,.T.);
#148 = FACE_BOUND('',#149,.T.);
#149 = EDGE_LOOP('',(#150,#151,#160,#168,#177,#185,#193,#201));
#150 = ORIENTED_EDGE('',*,*,#21,.T.);
#151 = ORIENTED_EDGE('',*,*,#152,.T.);
#152 = EDGE_CURVE('',#24,#153,#155,.T.);
#153 = VERTEX_POINT('',#154);
#154 = CARTESIAN_POINT('',(46.,20.,9.));
#155 = CIRCLE('',#156,1.);
#156 = AXIS2_PLACEMENT_3D('',#157,#158,#159);
#157 = CARTESIAN_POINT('',(46.,21.,9.));
#158 = DIRECTION('',(1.,0.,0.));
#159 = DIRECTION('',(-0.,-0.,-1.));
#160 = ORIENTED_EDGE('',*,*,#161,.T.);
#161 = EDGE_CURVE('',#153,#162,#164,.T.);
#162 = VERTEX_POINT('',#163);
#163 = CARTESIAN_POINT('',(46.,20.,6.));
#164 = LINE('',#165,#166);
#165 = CARTESIAN_POINT('',(46.,20.,10.));
#166 = VECTOR('',#167,1.);
#167 = DIRECTION('',(-0.,-4.4E-16,-1.));
#168 = ORIENTED_EDGE('',*,*,#169,.T.);
#169 = EDGE_CURVE('',#162,#170,#172,.T.);
#170 = VERTEX_POINT('',#171);
#171 = CARTESIAN_POINT('',(46.,19.,5.));
#172 = CIRCLE('',#173,1.);
#173 = AXIS2_PLACEMENT_3D('',#174,#175,#176);
#174 = CARTESIAN_POINT('',(46.,19.,6.));
#175 = DIRECTION('',(-1.,-0.,-0.));
#176 = DIRECTION('',(0.,0.,-1.));
#177 = ORIENTED_EDGE('',*,*,#178,.F.);
#178 = EDGE_CURVE('',#179,#170,#181,.T.);
#179 = VERTEX_POINT('',#180);
#180 = CARTESIAN_POINT('',(46.,3.,5.));
#181 = LINE('',#182,#183);
#182 = CARTESIAN_POINT('',(46.,0.,5.));
#183 = VECTOR('',#184,1.);
#184 = DIRECTION('',(0.,1.,0.));
#185 = ORIENTED_EDGE('',*,*,#186,.F.);
#186 = EDGE_CURVE('',#187,#179,#189,.T.);
#187 = VERTEX_POINT('',#188);
#188 = CARTESIAN_POINT('',(46.,3.,-1.E-15));
#189 = LINE('',#190,#191);
#190 = CARTESIAN_POINT('',(46.,3.,-1.33E-15));
#191 = VECTOR('',#192,1.);
#192 = DIRECTION('',(0.,4.4E-16,1.));
#193 = ORIENTED_EDGE('',*,*,#194,.F.);
#194 = EDGE_CURVE('',#195,#187,#197,.T.);
#195 = VERTEX_POINT('',#196);
#196 = CARTESIAN_POINT('',(46.,27.,-1.2E-14));
#197 = LINE('',#198,#199);
#198 = CARTESIAN_POINT('',(46.,30.,0.));
#199 = VECTOR('',#200,1.);
#200 = DIRECTION('',(0.,-1.,0.));
#201 = ORIENTED_EDGE('',*,*,#202,.T.);
#202 = EDGE_CURVE('',#195,#22,#203,.T.);
#203 = LINE('',#204,#205);
#204 = CARTESIAN_POINT('',(46.,27.,-1.199E-14));
#205 = VECTOR('',#206,1.);
#206 = DIRECTION('',(0.,4.4E-16,1.));
#207 = PLANE('',#208);
#208 = AXIS2_PLACEMENT_3D('',#209,#210,#211);
#209 = CARTESIAN_POINT('',(46.,30.,-1.332E-14));
#210 = DIRECTION('',(1.,0.,0.));
#211 = DIRECTION('',(0.,-1.,4.4E-16));
#212 = ADVANCED_FACE('',(#213),#232,.T.);
#213 = FACE_BOUND('',#214,.F.);
#214 = EDGE_LOOP('',(#215,#216,#224,#231));
#215 = ORIENTED_EDGE('',*,*,#152,.T.);
#216 = ORIENTED_EDGE('',*,*,#217,.T.);
#217 = EDGE_CURVE('',#153,#218,#220,.T.);
#218 = VERTEX_POINT('',#219);
#219 = CARTESIAN_POINT('',(36.,20.,9.));
#220 = LINE('',#221,#222);
#221 = CARTESIAN_POINT('',(46.,20.,9.));
#222 = VECTOR('',#223,1.);
#223 = DIRECTION('',(-1.,0.,0.));
#224 = ORIENTED_EDGE('',*,*,#225,.F.);
#225 = EDGE_CURVE('',#32,#218,#226,.T.);
#226 = CIRCLE('',#227,1.);
#227 = AXIS2_PLACEMENT_3D('',#228,#229,#230);
#228 = CARTESIAN_POINT('',(36.,21.,9.));
#229 = DIRECTION('',(1.,0.,-0.));
#230 = DIRECTION('',(0.,4.4E-16,1.));
#231 = ORIENTED_EDGE('',*,*,#31,.F.);
#232 = CYLINDRICAL_SURFACE('',#233,1.);
#233 = AXIS2_PLACEMENT_3D('',#234,#235,#236);
#234 = CARTESIAN_POINT('',(46.,21.,9.));
#235 = DIRECTION('',(-1.,0.,0.));
#236 = DIRECTION('',(0.,4.4E-16,1.));
#237 = ADVANCED_FACE('',(#238),#257,.T.);
#238 = FACE_BOUND('',#239,.F.);
#239 = EDGE_LOOP('',(#240,#249,#250,#251));
#240 = ORIENTED_EDGE('',*,*,#241,.T.);
#241 = EDGE_CURVE('',#242,#195,#244,.T.);
#242 = VERTEX_POINT('',#243);
#243 = CARTESIAN_POINT('',(43.,30.,-1.3E-14));
#244 = CIRCLE('',#245,3.);
#245 = AXIS2_PLACEMENT_3D('',#246,#247,#248);
#246 = CARTESIAN_POINT('',(43.,27.,-1.199E-14));
#247 = DIRECTION('',(-0.,-4.4E-16,-1.));
#248 = DIRECTION('',(0.,-1.,4.4E-16));
#249 = ORIENTED_EDGE('',*,*,#202,.T.);
#250 = ORIENTED_EDGE('',*,*,#114,.F.);
#251 = ORIENTED_EDGE('',*,*,#252,.F.);
#252 = EDGE_CURVE('',#242,#107,#253,.T.);
#253 = LINE('',#254,#255);
#254 = CARTESIAN_POINT('',(43.,30.,-1.332E-14));
#255 = VECTOR('',#256,1.);
#256 = DIRECTION('',(0.,4.4E-16,1.));
#257 = CYLINDRICAL_SURFACE('',#258,3.);
#258 = AXIS2_PLACEMENT_3D('',#259,#260,#261);
#259 = CARTESIAN_POINT('',(43.,27.,-1.199E-14));
#260 = DIRECTION('',(0.,4.4E-16,1.));
#261 = DIRECTION('',(0.,1.,-4.4E-16));
#262 = ADVANCED_FACE('',(#263),#282,.T.);
#263 = FACE_BOUND('',#264,.F.);
#264 = EDGE_LOOP('',(#265,#266,#274,#281));
#265 = ORIENTED_EDGE('',*,*,#225,.T.);
#266 = ORIENTED_EDGE('',*,*,#267,.T.);
#267 = EDGE_CURVE('',#218,#268,#270,.T.);
#268 = VERTEX_POINT('',#269);
#269 = CARTESIAN_POINT('',(10.,20.,9.));
#270 = LINE('',#271,#272);
#271 = CARTESIAN_POINT('',(36.,20.,9.));
#272 = VECTOR('',#273,1.);
#273 = DIRECTION('',(-1.,-0.,-0.));
#274 = ORIENTED_EDGE('',*,*,#275,.F.);
#275 = EDGE_CURVE('',#40,#268,#276,.T.);
#276 = CIRCLE('',#277,1.);
#277 = AXIS2_PLACEMENT_3D('',#278,#279,#280);
#278 = CARTESIAN_POINT('',(10.,21.,9.));
#279 = DIRECTION('',(1.,-0.,0.));
#280 = DIRECTION('',(0.,0.,-1.));
#281 = ORIENTED_EDGE('',*,*,#39,.F.);
#282 = CYLINDRICAL_SURFACE('',#283,1.);
#283 = AXIS2_PLACEMENT_3D('',#284,#285,#286);
#284 = CARTESIAN_POINT('',(36.,21.,9.));
#285 = DIRECTION('',(-1.,-0.,-0.));
#286 = DIRECTION('',(0.,4.4E-16,1.));
#287 = ADVANCED_FACE('',(#288),#306,.T.);
#288 = FACE_BOUND('',#289,.T.);
#289 = EDGE_LOOP('',(#290,#298,#304,#305));
#290 = ORIENTED_EDGE('',*,*,#291,.F.);
#291 = EDGE_CURVE('',#292,#242,#294,.T.);
#292 = VERTEX_POINT('',#293);
#293 = CARTESIAN_POINT('',(3.,30.,-1.3E-14));
#294 = LINE('',#295,#296);
#295 = CARTESIAN_POINT('',(0.,30.,0.));
#296 = VECTOR('',#297,1.);
#297 = DIRECTION('',(1.,0.,0.));
#298 = ORIENTED_EDGE('',*,*,#299,.T.);
#299 = EDGE_CURVE('',#292,#98,#300,.T.);
#300 = LINE('',#301,#302);
#301 = CARTESIAN_POINT('',(3.,30.,-1.332E-14));
#302 = VECTOR('',#303,1.);
#303 = DIRECTION('',(0.,4.4E-16,1.));
#304 = ORIENTED_EDGE('',*,*,#106,.T.);
#305 = ORIENTED_EDGE('',*,*,#252,.F.);
#306 = PLANE('',#307);
#307 = AXIS2_PLACEMENT_3D('',#308,#309,#310);
#308 = CARTESIAN_POINT('',(0.,30.,-1.332E-14));
#309 = DIRECTION('',(0.,1.,-4.4E-16));
#310 = DIRECTION('',(1.,0.,0.));
#311 = ADVANCED_FACE('',(#312),#339,.F.);
#312 = FACE_BOUND('',#313,.F.);
#313 = EDGE_LOOP('',(#314,#322,#330,#336,#337,#338));
#314 = ORIENTED_EDGE('',*,*,#315,.F.);
#315 = EDGE_CURVE('',#316,#268,#318,.T.);
#316 = VERTEX_POINT('',#317);
#317 = CARTESIAN_POINT('',(10.,20.,0.));
#318 = LINE('',#319,#320);
#319 = CARTESIAN_POINT('',(10.,20.,-8.88E-15));
#320 = VECTOR('',#321,1.);
#321 = DIRECTION('',(0.,4.4E-16,1.));
#322 = ORIENTED_EDGE('',*,*,#323,.F.);
#323 = EDGE_CURVE('',#324,#316,#326,.T.);
#324 = VERTEX_POINT('',#325);
#325 = CARTESIAN_POINT('',(10.,3.,-1.E-15));
#326 = LINE('',#327,#328);
#327 = CARTESIAN_POINT('',(10.,0.,0.));
#328 = VECTOR('',#329,1.);
#329 = DIRECTION('',(0.,1.,0.));
#330 = ORIENTED_EDGE('',*,*,#331,.T.);
#331 = EDGE_CURVE('',#324,#56,#332,.T.);
#332 = LINE('',#333,#334);
#333 = CARTESIAN_POINT('',(10.,3.,-1.33E-15));
#334 = VECTOR('',#335,1.);
#335 = DIRECTION('',(0.,4.4E-16,1.));
#336 = ORIENTED_EDGE('',*,*,#55,.T.);
#337 = ORIENTED_EDGE('',*,*,#47,.T.);
#338 = ORIENTED_EDGE('',*,*,#275,.T.);
#339 = PLANE('',#340);
#340 = AXIS2_PLACEMENT_3D('',#341,#342,#343);
#341 = CARTESIAN_POINT('',(10.,0.,0.));
#342 = DIRECTION('',(-1.,0.,0.));
#343 = DIRECTION('',(0.,1.,-4.4E-16));
#344 = ADVANCED_FACE('',(#345),#364,.T.);
#345 = FACE_BOUND('',#346,.F.);
#346 = EDGE_LOOP('',(#347,#356,#357,#358));
#347 = ORIENTED_EDGE('',*,*,#348,.T.);
#348 = EDGE_CURVE('',#349,#292,#351,.T.);
#349 = VERTEX_POINT('',#350);
#350 = CARTESIAN_POINT('',(0.,27.,-1.2E-14));
#351 = CIRCLE('',#352,3.);
#352 = AXIS2_PLACEMENT_3D('',#353,#354,#355);
#353 = CARTESIAN_POINT('',(3.,27.,-1.199E-14));
#354 = DIRECTION('',(-0.,-4.4E-16,-1.));
#355 = DIRECTION('',(0.,-1.,4.4E-16));
#356 = ORIENTED_EDGE('',*,*,#299,.T.);
#357 = ORIENTED_EDGE('',*,*,#97,.F.);
#358 = ORIENTED_EDGE('',*,*,#359,.F.);
#359 = EDGE_CURVE('',#349,#90,#360,.T.);
#360 = LINE('',#361,#362);
#361 = CARTESIAN_POINT('',(-4.4E-16,27.,-1.199E-14));
#362 = VECTOR('',#363,1.);
#363 = DIRECTION('',(0.,4.4E-16,1.));
#364 = CYLINDRICAL_SURFACE('',#365,3.);
#365 = AXIS2_PLACEMENT_3D('',#366,#367,#368);
#366 = CARTESIAN_POINT('',(3.,27.,-1.199E-14));
#367 = DIRECTION('',(0.,4.4E-16,1.));
#368 = DIRECTION('',(-1.,0.,0.));
#369 = ADVANCED_FACE('',(#370),#388,.T.);
#370 = FACE_BOUND('',#371,.T.);
#371 = EDGE_LOOP('',(#372,#380,#386,#387));
#372 = ORIENTED_EDGE('',*,*,#373,.F.);
#373 = EDGE_CURVE('',#374,#349,#376,.T.);
#374 = VERTEX_POINT('',#375);
#375 = CARTESIAN_POINT('',(0.,3.,-1.E-15));
#376 = LINE('',#377,#378);
#377 = CARTESIAN_POINT('',(0.,-3.E-17,0.));
#378 = VECTOR('',#379,1.);
#379 = DIRECTION('',(0.,1.,0.));
#380 = ORIENTED_EDGE('',*,*,#381,.T.);
#381 = EDGE_CURVE('',#374,#81,#382,.T.);
#382 = LINE('',#383,#384);
#383 = CARTESIAN_POINT('',(-4.4E-16,3.,-1.33E-15));
#384 = VECTOR('',#385,1.);
#385 = DIRECTION('',(0.,4.4E-16,1.));
#386 = ORIENTED_EDGE('',*,*,#89,.T.);
#387 = ORIENTED_EDGE('',*,*,#359,.F.);
#388 = PLANE('',#389);
#389 = AXIS2_PLACEMENT_3D('',#390,#391,#392);
#390 = CARTESIAN_POINT('',(0.,-3.E-17,0.));
#391 = DIRECTION('',(-1.,0.,0.));
#392 = DIRECTION('',(0.,1.,-4.4E-16));
#393 = ADVANCED_FACE('',(#394),#413,.T.);
#394 = FACE_BOUND('',#395,.T.);
#395 = EDGE_LOOP('',(#396,#405,#406,#407));
#396 = ORIENTED_EDGE('',*,*,#397,.T.);
#397 = EDGE_CURVE('',#398,#324,#400,.T.);
#398 = VERTEX_POINT('',#399);
#399 = CARTESIAN_POINT('',(7.,0.,0.));
#400 = CIRCLE('',#401,3.);
#401 = AXIS2_PLACEMENT_3D('',#402,#403,#404);
#402 = CARTESIAN_POINT('',(7.,3.,-1.33E-15));
#403 = DIRECTION('',(-0.,4.4E-16,1.));
#404 = DIRECTION('',(0.,-1.,4.4E-16));
#405 = ORIENTED_EDGE('',*,*,#331,.T.);
#406 = ORIENTED_EDGE('',*,*,#63,.F.);
#407 = ORIENTED_EDGE('',*,*,#408,.F.);
#408 = EDGE_CURVE('',#398,#64,#409,.T.);
#409 = LINE('',#410,#411);
#410 = CARTESIAN_POINT('',(7.,-4.4E-16,0.));
#411 = VECTOR('',#412,1.);
#412 = DIRECTION('',(0.,4.4E-16,1.));
#413 = CYLINDRICAL_SURFACE('',#414,3.);
#414 = AXIS2_PLACEMENT_3D('',#415,#416,#417);
#415 = CARTESIAN_POINT('',(7.,3.,-1.33E-15));
#416 = DIRECTION('',(0.,4.4E-16,1.));
#417 = DIRECTION('',(0.,-1.,4.4E-16));
#418 = ADVANCED_FACE('',(#419),#438,.T.);
#419 = FACE_BOUND('',#420,.T.);
#420 = EDGE_LOOP('',(#421,#430,#436,#437));
#421 = ORIENTED_EDGE('',*,*,#422,.T.);
#422 = EDGE_CURVE('',#374,#423,#425,.T.);
#423 = VERTEX_POINT('',#424);
#424 = CARTESIAN_POINT('',(3.,0.,0.));
#425 = CIRCLE('',#426,3.);
#426 = AXIS2_PLACEMENT_3D('',#427,#428,#429);
#427 = CARTESIAN_POINT('',(3.,3.,-1.33E-15));
#428 = DIRECTION('',(-0.,4.4E-16,1.));
#429 = DIRECTION('',(0.,-1.,4.4E-16));
#430 = ORIENTED_EDGE('',*,*,#431,.T.);
#431 = EDGE_CURVE('',#423,#73,#432,.T.);
#432 = LINE('',#433,#434);
#433 = CARTESIAN_POINT('',(3.,-4.4E-16,0.));
#434 = VECTOR('',#435,1.);
#435 = DIRECTION('',(0.,4.4E-16,1.));
#436 = ORIENTED_EDGE('',*,*,#80,.F.);
#437 = ORIENTED_EDGE('',*,*,#381,.F.);
#438 = CYLINDRICAL_SURFACE('',#439,3.);
#439 = AXIS2_PLACEMENT_3D('',#440,#441,#442);
#440 = CARTESIAN_POINT('',(3.,3.,-1.33E-15));
#441 = DIRECTION('',(0.,4.4E-16,1.));
#442 = DIRECTION('',(-1.,0.,0.));
#443 = ADVANCED_FACE('',(#444),#455,.F.);
#444 = FACE_BOUND('',#445,.F.);
#445 = EDGE_LOOP('',(#446,#452,#453,#454));
#446 = ORIENTED_EDGE('',*,*,#447,.F.);
#447 = EDGE_CURVE('',#423,#398,#448,.T.);
#448 = LINE('',#449,#450);
#449 = CARTESIAN_POINT('',(0.,-3.E-17,0.));
#450 = VECTOR('',#451,1.);
#451 = DIRECTION('',(1.,0.,0.));
#452 = ORIENTED_EDGE('',*,*,#431,.T.);
#453 = ORIENTED_EDGE('',*,*,#72,.T.);
#454 = ORIENTED_EDGE('',*,*,#408,.F.);
#455 = PLANE('',#456);
#456 = AXIS2_PLACEMENT_3D('',#457,#458,#459);
#457 = CARTESIAN_POINT('',(0.,-3.E-17,0.));
#458 = DIRECTION('',(0.,1.,-4.4E-16));
#459 = DIRECTION('',(1.,0.,0.));
#460 = ADVANCED_FACE('',(#461),#480,.F.);
#461 = FACE_BOUND('',#462,.F.);
#462 = EDGE_LOOP('',(#463,#471,#478,#479));
#463 = ORIENTED_EDGE('',*,*,#464,.T.);
#464 = EDGE_CURVE('',#124,#465,#467,.T.);
#465 = VERTEX_POINT('',#466);
#466 = CARTESIAN_POINT('',(8.35,5.,5.));
#467 = LINE('',#468,#469);
#468 = CARTESIAN_POINT('',(8.35,5.,10.));
#469 = VECTOR('',#470,1.);
#470 = DIRECTION('',(-0.,-4.4E-16,-1.));
#471 = ORIENTED_EDGE('',*,*,#472,.T.);
#472 = EDGE_CURVE('',#465,#465,#473,.T.);
#473 = CIRCLE('',#474,3.35);
#474 = AXIS2_PLACEMENT_3D('',#475,#476,#477);
#475 = CARTESIAN_POINT('',(5.,5.,5.));
#476 = DIRECTION('',(0.,0.,1.));
#477 = DIRECTION('',(1.,0.,0.));
#478 = ORIENTED_EDGE('',*,*,#464,.F.);
#479 = ORIENTED_EDGE('',*,*,#123,.F.);
#480 = CYLINDRICAL_SURFACE('',#481,3.35);
#481 = AXIS2_PLACEMENT_3D('',#482,#483,#484);
#482 = CARTESIAN_POINT('',(5.,5.,10.));
#483 = DIRECTION('',(0.,4.4E-16,1.));
#484 = DIRECTION('',(1.,0.,0.));
#485 = ADVANCED_FACE('',(#486),#505,.F.);
#486 = FACE_BOUND('',#487,.F.);
#487 = EDGE_LOOP('',(#488,#496,#503,#504));
#488 = ORIENTED_EDGE('',*,*,#489,.T.);
#489 = EDGE_CURVE('',#135,#490,#492,.T.);
#490 = VERTEX_POINT('',#491);
#491 = CARTESIAN_POINT('',(8.35,15.,5.));
#492 = LINE('',#493,#494);
#493 = CARTESIAN_POINT('',(8.35,15.,10.));
#494 = VECTOR('',#495,1.);
#495 = DIRECTION('',(-0.,-4.4E-16,-1.));
#496 = ORIENTED_EDGE('',*,*,#497,.T.);
#497 = EDGE_CURVE('',#490,#490,#498,.T.);
#498 = CIRCLE('',#499,3.35);
#499 = AXIS2_PLACEMENT_3D('',#500,#501,#502);
#500 = CARTESIAN_POINT('',(5.,15.,5.));
#501 = DIRECTION('',(0.,0.,1.));
#502 = DIRECTION('',(1.,0.,0.));
#503 = ORIENTED_EDGE('',*,*,#489,.F.);
#504 = ORIENTED_EDGE('',*,*,#134,.F.);
#505 = CYLINDRICAL_SURFACE('',#506,3.35);
#506 = AXIS2_PLACEMENT_3D('',#507,#508,#509);
#507 = CARTESIAN_POINT('',(5.,15.,10.));
#508 = DIRECTION('',(0.,4.4E-16,1.));
#509 = DIRECTION('',(1.,0.,0.));
#510 = ADVANCED_FACE('',(#511),#529,.F.);
#511 = FACE_BOUND('',#512,.F.);
#512 = EDGE_LOOP('',(#513,#521,#522,#523));
#513 = ORIENTED_EDGE('',*,*,#514,.T.);
#514 = EDGE_CURVE('',#515,#218,#517,.T.);
#515 = VERTEX_POINT('',#516);
#516 = CARTESIAN_POINT('',(36.,20.,6.));
#517 = LINE('',#518,#519);
#518 = CARTESIAN_POINT('',(36.,20.,-8.88E-15));
#519 = VECTOR('',#520,1.);
#520 = DIRECTION('',(0.,4.4E-16,1.));
#521 = ORIENTED_EDGE('',*,*,#217,.F.);
#522 = ORIENTED_EDGE('',*,*,#161,.T.);
#523 = ORIENTED_EDGE('',*,*,#524,.T.);
#524 = EDGE_CURVE('',#162,#515,#525,.T.);
#525 = LINE('',#526,#527);
#526 = CARTESIAN_POINT('',(46.,20.,6.));
#527 = VECTOR('',#528,1.);
#528 = DIRECTION('',(-1.,0.,0.));
#529 = PLANE('',#530);
#530 = AXIS2_PLACEMENT_3D('',#531,#532,#533);
#531 = CARTESIAN_POINT('',(46.,20.,10.));
#532 = DIRECTION('',(0.,1.,-4.4E-16));
#533 = DIRECTION('',(-1.,0.,0.));
#534 = ADVANCED_FACE('',(#535),#554,.F.);
#535 = FACE_BOUND('',#536,.F.);
#536 = EDGE_LOOP('',(#537,#538,#546,#553));
#537 = ORIENTED_EDGE('',*,*,#169,.T.);
#538 = ORIENTED_EDGE('',*,*,#539,.T.);
#539 = EDGE_CURVE('',#170,#540,#542,.T.);
#540 = VERTEX_POINT('',#541);
#541 = CARTESIAN_POINT('',(36.,19.,5.));
#542 = LINE('',#543,#544);
#543 = CARTESIAN_POINT('',(46.,19.,5.));
#544 = VECTOR('',#545,1.);
#545 = DIRECTION('',(-1.,0.,0.));
#546 = ORIENTED_EDGE('',*,*,#547,.F.);
#547 = EDGE_CURVE('',#515,#540,#548,.T.);
#548 = CIRCLE('',#549,1.);
#549 = AXIS2_PLACEMENT_3D('',#550,#551,#552);
#550 = CARTESIAN_POINT('',(36.,19.,6.));
#551 = DIRECTION('',(-1.,-0.,-0.));
#552 = DIRECTION('',(0.,0.,-1.));
#553 = ORIENTED_EDGE('',*,*,#524,.F.);
#554 = CYLINDRICAL_SURFACE('',#555,1.);
#555 = AXIS2_PLACEMENT_3D('',#556,#557,#558);
#556 = CARTESIAN_POINT('',(46.,19.,6.));
#557 = DIRECTION('',(-1.,0.,0.));
#558 = DIRECTION('',(0.,1.,-4.4E-16));
#559 = ADVANCED_FACE('',(#560,#596),#607,.F.);
#560 = FACE_BOUND('',#561,.F.);
#561 = EDGE_LOOP('',(#562,#570,#571,#572,#581,#589));
#562 = ORIENTED_EDGE('',*,*,#563,.F.);
#563 = EDGE_CURVE('',#540,#564,#566,.T.);
#564 = VERTEX_POINT('',#565);
#565 = CARTESIAN_POINT('',(36.,3.,5.));
#566 = LINE('',#567,#568);
#567 = CARTESIAN_POINT('',(36.,20.,5.));
#568 = VECTOR('',#569,1.);
#569 = DIRECTION('',(0.,-1.,0.));
#570 = ORIENTED_EDGE('',*,*,#539,.F.);
#571 = ORIENTED_EDGE('',*,*,#178,.F.);
#572 = ORIENTED_EDGE('',*,*,#573,.T.);
#573 = EDGE_CURVE('',#179,#574,#576,.T.);
#574 = VERTEX_POINT('',#575);
#575 = CARTESIAN_POINT('',(43.,2.E-15,5.));
#576 = CIRCLE('',#577,3.);
#577 = AXIS2_PLACEMENT_3D('',#578,#579,#580);
#578 = CARTESIAN_POINT('',(43.,3.,5.));
#579 = DIRECTION('',(-0.,-4.4E-16,-1.));
#580 = DIRECTION('',(0.,-1.,4.4E-16));
#581 = ORIENTED_EDGE('',*,*,#582,.F.);
#582 = EDGE_CURVE('',#583,#574,#585,.T.);
#583 = VERTEX_POINT('',#584);
#584 = CARTESIAN_POINT('',(39.,2.E-15,5.));
#585 = LINE('',#586,#587);
#586 = CARTESIAN_POINT('',(36.,0.,5.));
#587 = VECTOR('',#588,1.);
#588 = DIRECTION('',(1.,0.,0.));
#589 = ORIENTED_EDGE('',*,*,#590,.T.);
#590 = EDGE_CURVE('',#583,#564,#591,.T.);
#591 = CIRCLE('',#592,3.);
#592 = AXIS2_PLACEMENT_3D('',#593,#594,#595);
#593 = CARTESIAN_POINT('',(39.,3.,5.));
#594 = DIRECTION('',(-0.,-4.4E-16,-1.));
#595 = DIRECTION('',(0.,-1.,4.4E-16));
#596 = FACE_BOUND('',#597,.F.);
#597 = EDGE_LOOP('',(#598));
#598 = ORIENTED_EDGE('',*,*,#599,.T.);
#599 = EDGE_CURVE('',#600,#600,#602,.T.);
#600 = VERTEX_POINT('',#601);
#601 = CARTESIAN_POINT('',(43.7,10.,5.));
#602 = CIRCLE('',#603,2.7);
#603 = AXIS2_PLACEMENT_3D('',#604,#605,#606);
#604 = CARTESIAN_POINT('',(41.,10.,5.));
#605 = DIRECTION('',(0.,0.,1.));
#606 = DIRECTION('',(1.,0.,0.));
#607 = PLANE('',#608);
#608 = AXIS2_PLACEMENT_3D('',#609,#610,#611);
#609 = CARTESIAN_POINT('',(41.,10.,5.));
#610 = DIRECTION('',(0.,-2.7E-16,-1.));
#611 = DIRECTION('',(0.,1.,-2.7E-16));
#612 = ADVANCED_FACE('',(#613),#632,.T.);
#613 = FACE_BOUND('',#614,.F.);
#614 = EDGE_LOOP('',(#615,#624,#630,#631));
#615 = ORIENTED_EDGE('',*,*,#616,.T.);
#616 = EDGE_CURVE('',#187,#617,#619,.T.);
#617 = VERTEX_POINT('',#618);
#618 = CARTESIAN_POINT('',(43.,0.,0.));
#619 = CIRCLE('',#620,3.);
#620 = AXIS2_PLACEMENT_3D('',#621,#622,#623);
#621 = CARTESIAN_POINT('',(43.,3.,-1.33E-15));
#622 = DIRECTION('',(-0.,-4.4E-16,-1.));
#623 = DIRECTION('',(0.,-1.,4.4E-16));
#624 = ORIENTED_EDGE('',*,*,#625,.T.);
#625 = EDGE_CURVE('',#617,#574,#626,.T.);
#626 = LINE('',#627,#628);
#627 = CARTESIAN_POINT('',(43.,-4.4E-16,0.));
#628 = VECTOR('',#629,1.);
#629 = DIRECTION('',(0.,4.4E-16,1.));
#630 = ORIENTED_EDGE('',*,*,#573,.F.);
#631 = ORIENTED_EDGE('',*,*,#186,.F.);
#632 = CYLINDRICAL_SURFACE('',#633,3.);
#633 = AXIS2_PLACEMENT_3D('',#634,#635,#636);
#634 = CARTESIAN_POINT('',(43.,3.,-1.33E-15));
#635 = DIRECTION('',(0.,4.4E-16,1.));
#636 = DIRECTION('',(1.,0.,0.));
#637 = ADVANCED_FACE('',(#638,#681,#692,#703),#714,.T.);
#638 = FACE_BOUND('',#639,.T.);
#639 = EDGE_LOOP('',(#640,#641,#642,#643,#644,#645,#646,#654,#663,#671,
    #677,#678,#679,#680));
#640 = ORIENTED_EDGE('',*,*,#373,.T.);
#641 = ORIENTED_EDGE('',*,*,#348,.T.);
#642 = ORIENTED_EDGE('',*,*,#291,.T.);
#643 = ORIENTED_EDGE('',*,*,#241,.T.);
#644 = ORIENTED_EDGE('',*,*,#194,.T.);
#645 = ORIENTED_EDGE('',*,*,#616,.T.);
#646 = ORIENTED_EDGE('',*,*,#647,.F.);
#647 = EDGE_CURVE('',#648,#617,#650,.T.);
#648 = VERTEX_POINT('',#649);
#649 = CARTESIAN_POINT('',(39.,0.,0.));
#650 = LINE('',#651,#652);
#651 = CARTESIAN_POINT('',(36.,0.,0.));
#652 = VECTOR('',#653,1.);
#653 = DIRECTION('',(1.,0.,0.));
#654 = ORIENTED_EDGE('',*,*,#655,.T.);
#655 = EDGE_CURVE('',#648,#656,#658,.T.);
#656 = VERTEX_POINT('',#657);
#657 = CARTESIAN_POINT('',(36.,3.,-1.E-15));
#658 = CIRCLE('',#659,3.);
#659 = AXIS2_PLACEMENT_3D('',#660,#661,#662);
#660 = CARTESIAN_POINT('',(39.,3.,-1.33E-15));
#661 = DIRECTION('',(-0.,-4.4E-16,-1.));
#662 = DIRECTION('',(0.,-1.,4.4E-16));
#663 = ORIENTED_EDGE('',*,*,#664,.F.);
#664 = EDGE_CURVE('',#665,#656,#667,.T.);
#665 = VERTEX_POINT('',#666);
#666 = CARTESIAN_POINT('',(36.,20.,0.));
#667 = LINE('',#668,#669);
#668 = CARTESIAN_POINT('',(36.,20.,0.));
#669 = VECTOR('',#670,1.);
#670 = DIRECTION('',(0.,-1.,0.));
#671 = ORIENTED_EDGE('',*,*,#672,.F.);
#672 = EDGE_CURVE('',#316,#665,#673,.T.);
#673 = LINE('',#674,#675);
#674 = CARTESIAN_POINT('',(10.,20.,0.));
#675 = VECTOR('',#676,1.);
#676 = DIRECTION('',(1.,0.,0.));
#677 = ORIENTED_EDGE('',*,*,#323,.F.);
#678 = ORIENTED_EDGE('',*,*,#397,.F.);
#679 = ORIENTED_EDGE('',*,*,#447,.F.);
#680 = ORIENTED_EDGE('',*,*,#422,.F.);
#681 = FACE_BOUND('',#682,.T.);
#682 = EDGE_LOOP('',(#683));
#683 = ORIENTED_EDGE('',*,*,#684,.T.);
#684 = EDGE_CURVE('',#685,#685,#687,.T.);
#685 = VERTEX_POINT('',#686);
#686 = CARTESIAN_POINT('',(6.7,5.,-2.E-15));
#687 = CIRCLE('',#688,1.7);
#688 = AXIS2_PLACEMENT_3D('',#689,#690,#691);
#689 = CARTESIAN_POINT('',(5.,5.,-1.78E-15));
#690 = DIRECTION('',(-0.,4.4E-16,1.));
#691 = DIRECTION('',(1.,0.,0.));
#692 = FACE_BOUND('',#693,.T.);
#693 = EDGE_LOOP('',(#694));
#694 = ORIENTED_EDGE('',*,*,#695,.T.);
#695 = EDGE_CURVE('',#696,#696,#698,.T.);
#696 = VERTEX_POINT('',#697);
#697 = CARTESIAN_POINT('',(6.7,15.,-7.E-15));
#698 = CIRCLE('',#699,1.7);
#699 = AXIS2_PLACEMENT_3D('',#700,#701,#702);
#700 = CARTESIAN_POINT('',(5.,15.,-7.11E-15));
#701 = DIRECTION('',(-0.,4.4E-16,1.));
#702 = DIRECTION('',(1.,0.,0.));
#703 = FACE_BOUND('',#704,.T.);
#704 = EDGE_LOOP('',(#705));
#705 = ORIENTED_EDGE('',*,*,#706,.T.);
#706 = EDGE_CURVE('',#707,#707,#709,.T.);
#707 = VERTEX_POINT('',#708);
#708 = CARTESIAN_POINT('',(43.7,10.,-4.E-15));
#709 = CIRCLE('',#710,2.7);
#710 = AXIS2_PLACEMENT_3D('',#711,#712,#713);
#711 = CARTESIAN_POINT('',(41.,10.,-4.44E-15));
#712 = DIRECTION('',(-0.,4.4E-16,1.));
#713 = DIRECTION('',(1.,0.,0.));
#714 = PLANE('',#715);
#715 = AXIS2_PLACEMENT_3D('',#716,#717,#718);
#716 = CARTESIAN_POINT('',(23.,16.666666666667,-3.7E-15));
#717 = DIRECTION('',(0.,-2.2E-16,-1.));
#718 = DIRECTION('',(0.,1.,-2.2E-16));
#719 = ADVANCED_FACE('',(#720),#740,.F.);
#720 = FACE_BOUND('',#721,.F.);
#721 = EDGE_LOOP('',(#722,#723,#724,#725,#733,#739));
#722 = ORIENTED_EDGE('',*,*,#315,.T.);
#723 = ORIENTED_EDGE('',*,*,#267,.F.);
#724 = ORIENTED_EDGE('',*,*,#514,.F.);
#725 = ORIENTED_EDGE('',*,*,#726,.F.);
#726 = EDGE_CURVE('',#727,#515,#729,.T.);
#727 = VERTEX_POINT('',#728);
#728 = CARTESIAN_POINT('',(36.,20.,5.));
#729 = LINE('',#730,#731);
#730 = CARTESIAN_POINT('',(36.,20.,-8.88E-15));
#731 = VECTOR('',#732,1.);
#732 = DIRECTION('',(0.,4.4E-16,1.));
#733 = ORIENTED_EDGE('',*,*,#734,.F.);
#734 = EDGE_CURVE('',#665,#727,#735,.T.);
#735 = LINE('',#736,#737);
#736 = CARTESIAN_POINT('',(36.,20.,-8.88E-15));
#737 = VECTOR('',#738,1.);
#738 = DIRECTION('',(0.,4.4E-16,1.));
#739 = ORIENTED_EDGE('',*,*,#672,.F.);
#740 = PLANE('',#741);
#741 = AXIS2_PLACEMENT_3D('',#742,#743,#744);
#742 = CARTESIAN_POINT('',(10.,20.,-8.88E-15));
#743 = DIRECTION('',(0.,1.,-4.4E-16));
#744 = DIRECTION('',(1.,0.,0.));
#745 = ADVANCED_FACE('',(#746,#749),#760,.F.);
#746 = FACE_BOUND('',#747,.F.);
#747 = EDGE_LOOP('',(#748));
#748 = ORIENTED_EDGE('',*,*,#472,.F.);
#749 = FACE_BOUND('',#750,.F.);
#750 = EDGE_LOOP('',(#751));
#751 = ORIENTED_EDGE('',*,*,#752,.T.);
#752 = EDGE_CURVE('',#753,#753,#755,.T.);
#753 = VERTEX_POINT('',#754);
#754 = CARTESIAN_POINT('',(6.7,5.,5.));
#755 = CIRCLE('',#756,1.7);
#756 = AXIS2_PLACEMENT_3D('',#757,#758,#759);
#757 = CARTESIAN_POINT('',(5.,5.,5.));
#758 = DIRECTION('',(-0.,4.4E-16,1.));
#759 = DIRECTION('',(1.,0.,0.));
#760 = PLANE('',#761);
#761 = AXIS2_PLACEMENT_3D('',#762,#763,#764);
#762 = CARTESIAN_POINT('',(5.,5.,5.));
#763 = DIRECTION('',(-1.8E-16,-3.1E-16,-1.));
#764 = DIRECTION('',(0.,1.,-3.1E-16));
#765 = ADVANCED_FACE('',(#766,#769),#780,.F.);
#766 = FACE_BOUND('',#767,.F.);
#767 = EDGE_LOOP('',(#768));
#768 = ORIENTED_EDGE('',*,*,#497,.F.);
#769 = FACE_BOUND('',#770,.F.);
#770 = EDGE_LOOP('',(#771));
#771 = ORIENTED_EDGE('',*,*,#772,.T.);
#772 = EDGE_CURVE('',#773,#773,#775,.T.);
#773 = VERTEX_POINT('',#774);
#774 = CARTESIAN_POINT('',(6.7,15.,5.));
#775 = CIRCLE('',#776,1.7);
#776 = AXIS2_PLACEMENT_3D('',#777,#778,#779);
#777 = CARTESIAN_POINT('',(5.,15.,5.));
#778 = DIRECTION('',(0.,4.4E-16,1.));
#779 = DIRECTION('',(1.,0.,-0.));
#780 = PLANE('',#781);
#781 = AXIS2_PLACEMENT_3D('',#782,#783,#784);
#782 = CARTESIAN_POINT('',(5.,15.,5.));
#783 = DIRECTION('',(-1.8E-16,-3.1E-16,-1.));
#784 = DIRECTION('',(0.,1.,-3.1E-16));
#785 = ADVANCED_FACE('',(#786),#799,.F.);
#786 = FACE_BOUND('',#787,.F.);
#787 = EDGE_LOOP('',(#788,#789,#795,#796,#797,#798));
#788 = ORIENTED_EDGE('',*,*,#563,.T.);
#789 = ORIENTED_EDGE('',*,*,#790,.F.);
#790 = EDGE_CURVE('',#656,#564,#791,.T.);
#791 = LINE('',#792,#793);
#792 = CARTESIAN_POINT('',(36.,3.,-1.33E-15));
#793 = VECTOR('',#794,1.);
#794 = DIRECTION('',(0.,4.4E-16,1.));
#795 = ORIENTED_EDGE('',*,*,#664,.F.);
#796 = ORIENTED_EDGE('',*,*,#734,.T.);
#797 = ORIENTED_EDGE('',*,*,#726,.T.);
#798 = ORIENTED_EDGE('',*,*,#547,.T.);
#799 = PLANE('',#800);
#800 = AXIS2_PLACEMENT_3D('',#801,#802,#803);
#801 = CARTESIAN_POINT('',(36.,20.,-8.88E-15));
#802 = DIRECTION('',(1.,0.,0.));
#803 = DIRECTION('',(0.,-1.,4.4E-16));
#804 = ADVANCED_FACE('',(#805),#816,.F.);
#805 = FACE_BOUND('',#806,.F.);
#806 = EDGE_LOOP('',(#807,#808,#814,#815));
#807 = ORIENTED_EDGE('',*,*,#647,.F.);
#808 = ORIENTED_EDGE('',*,*,#809,.T.);
#809 = EDGE_CURVE('',#648,#583,#810,.T.);
#810 = LINE('',#811,#812);
#811 = CARTESIAN_POINT('',(39.,-4.4E-16,0.));
#812 = VECTOR('',#813,1.);
#813 = DIRECTION('',(0.,4.4E-16,1.));
#814 = ORIENTED_EDGE('',*,*,#582,.T.);
#815 = ORIENTED_EDGE('',*,*,#625,.F.);
#816 = PLANE('',#817);
#817 = AXIS2_PLACEMENT_3D('',#818,#819,#820);
#818 = CARTESIAN_POINT('',(36.,0.,0.));
#819 = DIRECTION('',(0.,1.,-4.4E-16));
#820 = DIRECTION('',(1.,0.,0.));
#821 = ADVANCED_FACE('',(#822),#828,.T.);
#822 = FACE_BOUND('',#823,.F.);
#823 = EDGE_LOOP('',(#824,#825,#826,#827));
#824 = ORIENTED_EDGE('',*,*,#655,.T.);
#825 = ORIENTED_EDGE('',*,*,#790,.T.);
#826 = ORIENTED_EDGE('',*,*,#590,.F.);
#827 = ORIENTED_EDGE('',*,*,#809,.F.);
#828 = CYLINDRICAL_SURFACE('',#829,3.);
#829 = AXIS2_PLACEMENT_3D('',#830,#831,#832);
#830 = CARTESIAN_POINT('',(39.,3.,-1.33E-15));
#831 = DIRECTION('',(0.,4.4E-16,1.));
#832 = DIRECTION('',(0.,-1.,4.4E-16));
#833 = ADVANCED_FACE('',(#834),#845,.F.);
#834 = FACE_BOUND('',#835,.F.);
#835 = EDGE_LOOP('',(#836,#837,#843,#844));
#836 = ORIENTED_EDGE('',*,*,#599,.F.);
#837 = ORIENTED_EDGE('',*,*,#838,.T.);
#838 = EDGE_CURVE('',#600,#707,#839,.T.);
#839 = LINE('',#840,#841);
#840 = CARTESIAN_POINT('',(43.7,10.,5.));
#841 = VECTOR('',#842,1.);
#842 = DIRECTION('',(0.,-4.4E-16,-1.));
#843 = ORIENTED_EDGE('',*,*,#706,.T.);
#844 = ORIENTED_EDGE('',*,*,#838,.F.);
#845 = CYLINDRICAL_SURFACE('',#846,2.7);
#846 = AXIS2_PLACEMENT_3D('',#847,#848,#849);
#847 = CARTESIAN_POINT('',(41.,10.,5.));
#848 = DIRECTION('',(0.,4.4E-16,1.));
#849 = DIRECTION('',(1.,0.,0.));
#850 = ADVANCED_FACE('',(#851),#862,.F.);
#851 = FACE_BOUND('',#852,.F.);
#852 = EDGE_LOOP('',(#853,#854,#860,#861));
#853 = ORIENTED_EDGE('',*,*,#752,.F.);
#854 = ORIENTED_EDGE('',*,*,#855,.T.);
#855 = EDGE_CURVE('',#753,#685,#856,.T.);
#856 = LINE('',#857,#858);
#857 = CARTESIAN_POINT('',(6.7,5.,10.));
#858 = VECTOR('',#859,1.);
#859 = DIRECTION('',(-0.,-4.4E-16,-1.));
#860 = ORIENTED_EDGE('',*,*,#684,.T.);
#861 = ORIENTED_EDGE('',*,*,#855,.F.);
#862 = CYLINDRICAL_SURFACE('',#863,1.7);
#863 = AXIS2_PLACEMENT_3D('',#864,#865,#866);
#864 = CARTESIAN_POINT('',(5.,5.,10.));
#865 = DIRECTION('',(0.,4.4E-16,1.));
#866 = DIRECTION('',(1.,0.,0.));
#867 = ADVANCED_FACE('',(#868),#879,.F.);
#868 = FACE_BOUND('',#869,.F.);
#869 = EDGE_LOOP('',(#870,#871,#877,#878));
#870 = ORIENTED_EDGE('',*,*,#772,.F.);
#871 = ORIENTED_EDGE('',*,*,#872,.T.);
#872 = EDGE_CURVE('',#773,#696,#873,.T.);
#873 = LINE('',#874,#875);
#874 = CARTESIAN_POINT('',(6.7,15.,10.));
#875 = VECTOR('',#876,1.);
#876 = DIRECTION('',(-0.,-4.4E-16,-1.));
#877 = ORIENTED_EDGE('',*,*,#695,.T.);
#878 = ORIENTED_EDGE('',*,*,#872,.F.);
#879 = CYLINDRICAL_SURFACE('',#880,1.7);
#880 = AXIS2_PLACEMENT_3D('',#881,#882,#883);
#881 = CARTESIAN_POINT('',(5.,15.,10.));
#882 = DIRECTION('',(0.,4.4E-16,1.));
#883 = DIRECTION('',(1.,0.,0.));
#884 = ( GEOMETRIC_REPRESENTATION_CONTEXT(3) 
GLOBAL_UNCERTAINTY_ASSIGNED_CONTEXT((#888)) GLOBAL_UNIT_ASSIGNED_CONTEXT
((#885,#886,#887)) REPRESENTATION_CONTEXT('Context #1',
  '3D Context with UNIT and UNCERTAINTY') );
#885 = ( LENGTH_UNIT() NAMED_UNIT(*) SI_UNIT(.MILLI.,.METRE.) );
#886 = ( NAMED_UNIT(*) PLANE_ANGLE_UNIT() SI_UNIT($,.RADIAN.) );
#887 = ( NAMED_UNIT(*) SI_UNIT($,.STERADIAN.) SOLID_ANGLE_UNIT() );
#888 = UNCERTAINTY_MEASURE_WITH_UNIT(LENGTH_MEASURE(1.E-07),#885,
  'distance_accuracy_value','confusion accuracy');
#889 = PRODUCT_RELATED_PRODUCT_CATEGORY('part',$,(#7));
#890 = MECHANICAL_DESIGN_GEOMETRIC_PRESENTATION_REPRESENTATION('',(#891)
  ,#884);
#891 = STYLED_ITEM('color',(#892),#15);
#892 = PRESENTATION_STYLE_ASSIGNMENT((#893,#899));
#893 = SURFACE_STYLE_USAGE(.BOTH.,#894);
#894 = SURFACE_SIDE_STYLE('',(#895));
#895 = SURFACE_STYLE_FILL_AREA(#896);
#896 = FILL_AREA_STYLE('',(#897));
#897 = FILL_AREA_STYLE_COLOUR('',#898);
#898 = COLOUR_RGB('',0.800000010877,0.800000010877,0.800000010877);
#899 = CURVE_STYLE('',#900,POSITIVE_LENGTH_MEASURE(0.1),#901);
#900 = DRAUGHTING_PRE_DEFINED_CURVE_FONT('continuous');
#901 = COLOUR_RGB('',9.803921802644E-02,9.803921802644E-02,
  9.803921802644E-02);
ENDSEC;
END-ISO-10303-21;
