ISO-10303-21;
HEADER;
FILE_DESCRIPTION(('FreeCAD Model'),'2;1');
FILE_NAME('Open CASCADE Shape Model','2025-12-16T10:29:27',('Author'),(
    ''),'Open CASCADE STEP processor 7.6','FreeCAD','Unknown');
FILE_SCHEMA(('AUTOMOTIVE_DESIGN { 1 0 10303 214 1 1 1 1 }'));
ENDSEC;
DATA;
#1 = APPLICATION_PROTOCOL_DEFINITION('international standard',
  'automotive_design',2000,#2);
#2 = APPLICATION_CONTEXT(
  'core data for automotive mechanical design processes');
#3 = SHAPE_DEFINITION_REPRESENTATION(#4,#10);
#4 = PRODUCT_DEFINITION_SHAPE('','',#5);
#5 = PRODUCT_DEFINITION('design','',#6,#9);
#6 = PRODUCT_DEFINITION_FORMATION('','',#7);
#7 = PRODUCT('Chamfer003','Chamfer003','',(#8));
#8 = PRODUCT_CONTEXT('',#2,'mechanical');
#9 = PRODUCT_DEFINITION_CONTEXT('part definition',#2,'design');
#10 = ADVANCED_BREP_SHAPE_REPRESENTATION('',(#11,#15),#789);
#11 = AXIS2_PLACEMENT_3D('',#12,#13,#14);
#12 = CARTESIAN_POINT('',(0.,0.,0.));
#13 = DIRECTION('',(0.,0.,1.));
#14 = DIRECTION('',(1.,0.,-0.));
#15 = MANIFOLD_SOLID_BREP('',#16);
#16 = CLOSED_SHELL('',(#17,#73,#104,#128,#271,#295,#326,#343,#367,#386,
    #410,#434,#458,#482,#506,#530,#554,#578,#602,#626,#650,#674,#698,
    #722,#746,#763));
#17 = ADVANCED_FACE('',(#18),#68,.T.);
#18 = FACE_BOUND('',#19,.T.);
#19 = EDGE_LOOP('',(#20,#30,#38,#46,#54,#62));
#20 = ORIENTED_EDGE('',*,*,#21,.F.);
#21 = EDGE_CURVE('',#22,#24,#26,.T.);
#22 = VERTEX_POINT('',#23);
#23 = CARTESIAN_POINT('',(44.6,2.E-15,0.));
#24 = VERTEX_POINT('',#25);
#25 = CARTESIAN_POINT('',(44.6,0.1,0.));
#26 = LINE('',#27,#28);
#27 = CARTESIAN_POINT('',(44.6,2.22E-15,0.));
#28 = VECTOR('',#29,1.);
#29 = DIRECTION('',(0.,1.,0.));
#30 = ORIENTED_EDGE('',*,*,#31,.F.);
#31 = EDGE_CURVE('',#32,#22,#34,.T.);
#32 = VERTEX_POINT('',#33);
#33 = CARTESIAN_POINT('',(3.5,0.,0.));
#34 = LINE('',#35,#36);
#35 = CARTESIAN_POINT('',(0.,0.,0.));
#36 = VECTOR('',#37,1.);
#37 = DIRECTION('',(1.,0.,0.));
#38 = ORIENTED_EDGE('',*,*,#39,.T.);
#39 = EDGE_CURVE('',#32,#40,#42,.T.);
#40 = VERTEX_POINT('',#41);
#41 = CARTESIAN_POINT('',(3.5,1.E-01,-0.));
#42 = LINE('',#43,#44);
#43 = CARTESIAN_POINT('',(3.5,2.2E-16,0.));
#44 = VECTOR('',#45,1.);
#45 = DIRECTION('',(0.,1.,0.));
#46 = ORIENTED_EDGE('',*,*,#47,.T.);
#47 = EDGE_CURVE('',#40,#48,#50,.T.);
#48 = VERTEX_POINT('',#49);
#49 = CARTESIAN_POINT('',(10.9,7.5,-0.));
#50 = LINE('',#51,#52);
#51 = CARTESIAN_POINT('',(5.325,1.925,0.));
#52 = VECTOR('',#53,1.);
#53 = DIRECTION('',(0.707106781187,0.707106781187,0.));
#54 = ORIENTED_EDGE('',*,*,#55,.T.);
#55 = EDGE_CURVE('',#48,#56,#58,.T.);
#56 = VERTEX_POINT('',#57);
#57 = CARTESIAN_POINT('',(37.2,7.5,0.));
#58 = LINE('',#59,#60);
#59 = CARTESIAN_POINT('',(0.,7.5,0.));
#60 = VECTOR('',#61,1.);
#61 = DIRECTION('',(1.,0.,0.));
#62 = ORIENTED_EDGE('',*,*,#63,.F.);
#63 = EDGE_CURVE('',#24,#56,#64,.T.);
#64 = LINE('',#65,#66);
#65 = CARTESIAN_POINT('',(32.5,12.2,0.));
#66 = VECTOR('',#67,1.);
#67 = DIRECTION('',(-0.707106781187,0.707106781187,-0.));
#68 = PLANE('',#69);
#69 = AXIS2_PLACEMENT_3D('',#70,#71,#72);
#70 = CARTESIAN_POINT('',(3.5,0.,0.));
#71 = DIRECTION('',(0.,0.,-1.));
#72 = DIRECTION('',(1.,0.,0.));
#73 = ADVANCED_FACE('',(#74),#99,.T.);
#74 = FACE_BOUND('',#75,.T.);
#75 = EDGE_LOOP('',(#76,#77,#85,#93));
#76 = ORIENTED_EDGE('',*,*,#21,.T.);
#77 = ORIENTED_EDGE('',*,*,#78,.T.);
#78 = EDGE_CURVE('',#24,#79,#81,.T.);
#79 = VERTEX_POINT('',#80);
#80 = CARTESIAN_POINT('',(44.6,1.E-01,52.8));
#81 = LINE('',#82,#83);
#82 = CARTESIAN_POINT('',(44.6,1.E-01,0.));
#83 = VECTOR('',#84,1.);
#84 = DIRECTION('',(0.,0.,1.));
#85 = ORIENTED_EDGE('',*,*,#86,.F.);
#86 = EDGE_CURVE('',#87,#79,#89,.T.);
#87 = VERTEX_POINT('',#88);
#88 = CARTESIAN_POINT('',(44.6,2.E-15,52.8));
#89 = LINE('',#90,#91);
#90 = CARTESIAN_POINT('',(44.6,2.22E-15,52.8));
#91 = VECTOR('',#92,1.);
#92 = DIRECTION('',(0.,1.,0.));
#93 = ORIENTED_EDGE('',*,*,#94,.F.);
#94 = EDGE_CURVE('',#22,#87,#95,.T.);
#95 = LINE('',#96,#97);
#96 = CARTESIAN_POINT('',(44.6,0.,0.));
#97 = VECTOR('',#98,1.);
#98 = DIRECTION('',(0.,0.,1.));
#99 = PLANE('',#100);
#100 = AXIS2_PLACEMENT_3D('',#101,#102,#103);
#101 = CARTESIAN_POINT('',(44.6,0.,0.));
#102 = DIRECTION('',(1.,0.,0.));
#103 = DIRECTION('',(0.,0.,1.));
#104 = ADVANCED_FACE('',(#105),#123,.T.);
#105 = FACE_BOUND('',#106,.F.);
#106 = EDGE_LOOP('',(#107,#108,#109,#117));
#107 = ORIENTED_EDGE('',*,*,#63,.F.);
#108 = ORIENTED_EDGE('',*,*,#78,.T.);
#109 = ORIENTED_EDGE('',*,*,#110,.T.);
#110 = EDGE_CURVE('',#79,#111,#113,.T.);
#111 = VERTEX_POINT('',#112);
#112 = CARTESIAN_POINT('',(37.2,7.5,52.8));
#113 = LINE('',#114,#115);
#114 = CARTESIAN_POINT('',(32.5,12.2,52.8));
#115 = VECTOR('',#116,1.);
#116 = DIRECTION('',(-0.707106781187,0.707106781187,-0.));
#117 = ORIENTED_EDGE('',*,*,#118,.F.);
#118 = EDGE_CURVE('',#56,#111,#119,.T.);
#119 = LINE('',#120,#121);
#120 = CARTESIAN_POINT('',(37.2,7.5,0.));
#121 = VECTOR('',#122,1.);
#122 = DIRECTION('',(0.,0.,1.));
#123 = PLANE('',#124);
#124 = AXIS2_PLACEMENT_3D('',#125,#126,#127);
#125 = CARTESIAN_POINT('',(40.9,3.8,0.));
#126 = DIRECTION('',(0.707106781187,0.707106781187,6.E-17));
#127 = DIRECTION('',(4.242640687119E-17,4.242640687119E-17,-1.));
#128 = ADVANCED_FACE('',(#129),#266,.T.);
#129 = FACE_BOUND('',#130,.T.);
#130 = EDGE_LOOP('',(#131,#141,#149,#157,#165,#173,#181,#189,#197,#205,
    #213,#221,#229,#237,#245,#253,#259,#260));
#131 = ORIENTED_EDGE('',*,*,#132,.F.);
#132 = EDGE_CURVE('',#133,#135,#137,.T.);
#133 = VERTEX_POINT('',#134);
#134 = CARTESIAN_POINT('',(47.6,-8.5,0.));
#135 = VERTEX_POINT('',#136);
#136 = CARTESIAN_POINT('',(47.6,-3.,0.));
#137 = LINE('',#138,#139);
#138 = CARTESIAN_POINT('',(47.6,-8.5,0.));
#139 = VECTOR('',#140,1.);
#140 = DIRECTION('',(0.,1.,0.));
#141 = ORIENTED_EDGE('',*,*,#142,.F.);
#142 = EDGE_CURVE('',#143,#133,#145,.T.);
#143 = VERTEX_POINT('',#144);
#144 = CARTESIAN_POINT('',(50.85,-8.5,0.));
#145 = LINE('',#146,#147);
#146 = CARTESIAN_POINT('',(51.35,-8.5,0.));
#147 = VECTOR('',#148,1.);
#148 = DIRECTION('',(-1.,0.,0.));
#149 = ORIENTED_EDGE('',*,*,#150,.T.);
#150 = EDGE_CURVE('',#143,#151,#153,.T.);
#151 = VERTEX_POINT('',#152);
#152 = CARTESIAN_POINT('',(51.35,-9.,0.));
#153 = LINE('',#154,#155);
#154 = CARTESIAN_POINT('',(42.933498759305,-0.583498759305,0.));
#155 = VECTOR('',#156,1.);
#156 = DIRECTION('',(0.707106781187,-0.707106781187,0.));
#157 = ORIENTED_EDGE('',*,*,#158,.F.);
#158 = EDGE_CURVE('',#159,#151,#161,.T.);
#159 = VERTEX_POINT('',#160);
#160 = CARTESIAN_POINT('',(51.35,-11.,0.));
#161 = LINE('',#162,#163);
#162 = CARTESIAN_POINT('',(51.35,-11.5,0.));
#163 = VECTOR('',#164,1.);
#164 = DIRECTION('',(0.,1.,0.));
#165 = ORIENTED_EDGE('',*,*,#166,.T.);
#166 = EDGE_CURVE('',#159,#167,#169,.T.);
#167 = VERTEX_POINT('',#168);
#168 = CARTESIAN_POINT('',(50.85,-11.5,0.));
#169 = LINE('',#170,#171);
#170 = CARTESIAN_POINT('',(45.520735111663,-16.82926488833,0.));
#171 = VECTOR('',#172,1.);
#172 = DIRECTION('',(-0.707106781187,-0.707106781187,0.));
#173 = ORIENTED_EDGE('',*,*,#174,.F.);
#174 = EDGE_CURVE('',#175,#167,#177,.T.);
#175 = VERTEX_POINT('',#176);
#176 = CARTESIAN_POINT('',(43.85,-11.5,0.));
#177 = LINE('',#178,#179);
#178 = CARTESIAN_POINT('',(43.85,-11.5,0.));
#179 = VECTOR('',#180,1.);
#180 = DIRECTION('',(1.,0.,0.));
#181 = ORIENTED_EDGE('',*,*,#182,.F.);
#182 = EDGE_CURVE('',#183,#175,#185,.T.);
#183 = VERTEX_POINT('',#184);
#184 = CARTESIAN_POINT('',(43.85,-2.5,0.));
#185 = LINE('',#186,#187);
#186 = CARTESIAN_POINT('',(43.85,-2.5,0.));
#187 = VECTOR('',#188,1.);
#188 = DIRECTION('',(0.,-1.,0.));
#189 = ORIENTED_EDGE('',*,*,#190,.F.);
#190 = EDGE_CURVE('',#191,#183,#193,.T.);
#191 = VERTEX_POINT('',#192);
#192 = CARTESIAN_POINT('',(3.75,-2.5,0.));
#193 = LINE('',#194,#195);
#194 = CARTESIAN_POINT('',(3.75,-2.5,0.));
#195 = VECTOR('',#196,1.);
#196 = DIRECTION('',(1.,0.,0.));
#197 = ORIENTED_EDGE('',*,*,#198,.F.);
#198 = EDGE_CURVE('',#199,#191,#201,.T.);
#199 = VERTEX_POINT('',#200);
#200 = CARTESIAN_POINT('',(3.75,-16.5,0.));
#201 = LINE('',#202,#203);
#202 = CARTESIAN_POINT('',(3.75,-16.5,0.));
#203 = VECTOR('',#204,1.);
#204 = DIRECTION('',(0.,1.,0.));
#205 = ORIENTED_EDGE('',*,*,#206,.F.);
#206 = EDGE_CURVE('',#207,#199,#209,.T.);
#207 = VERTEX_POINT('',#208);
#208 = CARTESIAN_POINT('',(-3.25,-16.5,0.));
#209 = LINE('',#210,#211);
#210 = CARTESIAN_POINT('',(-3.75,-16.5,0.));
#211 = VECTOR('',#212,1.);
#212 = DIRECTION('',(1.,0.,0.));
#213 = ORIENTED_EDGE('',*,*,#214,.F.);
#214 = EDGE_CURVE('',#215,#207,#217,.T.);
#215 = VERTEX_POINT('',#216);
#216 = CARTESIAN_POINT('',(-3.75,-16.,0.));
#217 = LINE('',#218,#219);
#218 = CARTESIAN_POINT('',(0.108498759305,-19.8584987593,0.));
#219 = VECTOR('',#220,1.);
#220 = DIRECTION('',(0.707106781187,-0.707106781187,0.));
#221 = ORIENTED_EDGE('',*,*,#222,.F.);
#222 = EDGE_CURVE('',#223,#215,#225,.T.);
#223 = VERTEX_POINT('',#224);
#224 = CARTESIAN_POINT('',(-3.75,-10.5,0.));
#225 = LINE('',#226,#227);
#226 = CARTESIAN_POINT('',(-3.75,-10.,0.));
#227 = VECTOR('',#228,1.);
#228 = DIRECTION('',(0.,-1.,0.));
#229 = ORIENTED_EDGE('',*,*,#230,.F.);
#230 = EDGE_CURVE('',#231,#223,#233,.T.);
#231 = VERTEX_POINT('',#232);
#232 = CARTESIAN_POINT('',(-3.25,-10.,0.));
#233 = LINE('',#234,#235);
#234 = CARTESIAN_POINT('',(4.320735111663,-2.429264888337,0.));
#235 = VECTOR('',#236,1.);
#236 = DIRECTION('',(-0.707106781187,-0.707106781187,0.));
#237 = ORIENTED_EDGE('',*,*,#238,.F.);
#238 = EDGE_CURVE('',#239,#231,#241,.T.);
#239 = VERTEX_POINT('',#240);
#240 = CARTESIAN_POINT('',(0.,-10.,0.));
#241 = LINE('',#242,#243);
#242 = CARTESIAN_POINT('',(0.,-10.,0.));
#243 = VECTOR('',#244,1.);
#244 = DIRECTION('',(-1.,0.,0.));
#245 = ORIENTED_EDGE('',*,*,#246,.F.);
#246 = EDGE_CURVE('',#247,#239,#249,.T.);
#247 = VERTEX_POINT('',#248);
#248 = CARTESIAN_POINT('',(0.,-3.5,0.));
#249 = LINE('',#250,#251);
#250 = CARTESIAN_POINT('',(0.,0.,0.));
#251 = VECTOR('',#252,1.);
#252 = DIRECTION('',(0.,-1.,0.));
#253 = ORIENTED_EDGE('',*,*,#254,.F.);
#254 = EDGE_CURVE('',#32,#247,#255,.T.);
#255 = LINE('',#256,#257);
#256 = CARTESIAN_POINT('',(6.133235111663,2.633235111663,0.));
#257 = VECTOR('',#258,1.);
#258 = DIRECTION('',(-0.707106781187,-0.707106781187,0.));
#259 = ORIENTED_EDGE('',*,*,#31,.T.);
#260 = ORIENTED_EDGE('',*,*,#261,.F.);
#261 = EDGE_CURVE('',#135,#22,#262,.T.);
#262 = LINE('',#263,#264);
#263 = CARTESIAN_POINT('',(40.995998759305,3.604001240695,0.));
#264 = VECTOR('',#265,1.);
#265 = DIRECTION('',(-0.707106781187,0.707106781187,0.));
#266 = PLANE('',#267);
#267 = AXIS2_PLACEMENT_3D('',#268,#269,#270);
#268 = CARTESIAN_POINT('',(22.358467741935,-4.825527295285,-1.07E-15));
#269 = DIRECTION('',(0.,2.2E-16,-1.));
#270 = DIRECTION('',(0.,1.,2.2E-16));
#271 = ADVANCED_FACE('',(#272),#290,.T.);
#272 = FACE_BOUND('',#273,.T.);
#273 = EDGE_LOOP('',(#274,#275,#283,#289));
#274 = ORIENTED_EDGE('',*,*,#55,.F.);
#275 = ORIENTED_EDGE('',*,*,#276,.T.);
#276 = EDGE_CURVE('',#48,#277,#279,.T.);
#277 = VERTEX_POINT('',#278);
#278 = CARTESIAN_POINT('',(10.9,7.5,52.8));
#279 = LINE('',#280,#281);
#280 = CARTESIAN_POINT('',(10.9,7.5,0.));
#281 = VECTOR('',#282,1.);
#282 = DIRECTION('',(0.,0.,1.));
#283 = ORIENTED_EDGE('',*,*,#284,.T.);
#284 = EDGE_CURVE('',#277,#111,#285,.T.);
#285 = LINE('',#286,#287);
#286 = CARTESIAN_POINT('',(0.,7.5,52.8));
#287 = VECTOR('',#288,1.);
#288 = DIRECTION('',(1.,0.,0.));
#289 = ORIENTED_EDGE('',*,*,#118,.F.);
#290 = PLANE('',#291);
#291 = AXIS2_PLACEMENT_3D('',#292,#293,#294);
#292 = CARTESIAN_POINT('',(0.,7.5,0.));
#293 = DIRECTION('',(0.,1.,0.));
#294 = DIRECTION('',(1.,0.,0.));
#295 = ADVANCED_FACE('',(#296),#321,.F.);
#296 = FACE_BOUND('',#297,.F.);
#297 = EDGE_LOOP('',(#298,#299,#307,#315));
#298 = ORIENTED_EDGE('',*,*,#39,.T.);
#299 = ORIENTED_EDGE('',*,*,#300,.T.);
#300 = EDGE_CURVE('',#40,#301,#303,.T.);
#301 = VERTEX_POINT('',#302);
#302 = CARTESIAN_POINT('',(3.5,0.1,52.8));
#303 = LINE('',#304,#305);
#304 = CARTESIAN_POINT('',(3.5,1.E-01,0.));
#305 = VECTOR('',#306,1.);
#306 = DIRECTION('',(0.,0.,1.));
#307 = ORIENTED_EDGE('',*,*,#308,.F.);
#308 = EDGE_CURVE('',#309,#301,#311,.T.);
#309 = VERTEX_POINT('',#310);
#310 = CARTESIAN_POINT('',(3.5,1.E-15,52.8));
#311 = LINE('',#312,#313);
#312 = CARTESIAN_POINT('',(3.5,6.7E-16,52.8));
#313 = VECTOR('',#314,1.);
#314 = DIRECTION('',(0.,1.,0.));
#315 = ORIENTED_EDGE('',*,*,#316,.F.);
#316 = EDGE_CURVE('',#32,#309,#317,.T.);
#317 = LINE('',#318,#319);
#318 = CARTESIAN_POINT('',(3.5,0.,0.));
#319 = VECTOR('',#320,1.);
#320 = DIRECTION('',(0.,0.,1.));
#321 = PLANE('',#322);
#322 = AXIS2_PLACEMENT_3D('',#323,#324,#325);
#323 = CARTESIAN_POINT('',(3.5,0.,0.));
#324 = DIRECTION('',(1.,0.,0.));
#325 = DIRECTION('',(0.,0.,1.));
#326 = ADVANCED_FACE('',(#327),#338,.F.);
#327 = FACE_BOUND('',#328,.T.);
#328 = EDGE_LOOP('',(#329,#330,#331,#337));
#329 = ORIENTED_EDGE('',*,*,#47,.F.);
#330 = ORIENTED_EDGE('',*,*,#300,.T.);
#331 = ORIENTED_EDGE('',*,*,#332,.T.);
#332 = EDGE_CURVE('',#301,#277,#333,.T.);
#333 = LINE('',#334,#335);
#334 = CARTESIAN_POINT('',(5.325,1.925,52.8));
#335 = VECTOR('',#336,1.);
#336 = DIRECTION('',(0.707106781187,0.707106781187,0.));
#337 = ORIENTED_EDGE('',*,*,#276,.F.);
#338 = PLANE('',#339);
#339 = AXIS2_PLACEMENT_3D('',#340,#341,#342);
#340 = CARTESIAN_POINT('',(7.2,3.8,0.));
#341 = DIRECTION('',(0.707106781187,-0.707106781187,2.E-17));
#342 = DIRECTION('',(1.414213562373E-17,-1.414213562373E-17,-1.));
#343 = ADVANCED_FACE('',(#344),#362,.F.);
#344 = FACE_BOUND('',#345,.F.);
#345 = EDGE_LOOP('',(#346,#347,#355,#361));
#346 = ORIENTED_EDGE('',*,*,#261,.F.);
#347 = ORIENTED_EDGE('',*,*,#348,.T.);
#348 = EDGE_CURVE('',#135,#349,#351,.T.);
#349 = VERTEX_POINT('',#350);
#350 = CARTESIAN_POINT('',(47.6,-3.,52.8));
#351 = LINE('',#352,#353);
#352 = CARTESIAN_POINT('',(47.6,-3.,0.));
#353 = VECTOR('',#354,1.);
#354 = DIRECTION('',(0.,0.,1.));
#355 = ORIENTED_EDGE('',*,*,#356,.T.);
#356 = EDGE_CURVE('',#349,#87,#357,.T.);
#357 = LINE('',#358,#359);
#358 = CARTESIAN_POINT('',(40.995998759305,3.604001240695,52.8));
#359 = VECTOR('',#360,1.);
#360 = DIRECTION('',(-0.707106781187,0.707106781187,0.));
#361 = ORIENTED_EDGE('',*,*,#94,.F.);
#362 = PLANE('',#363);
#363 = AXIS2_PLACEMENT_3D('',#364,#365,#366);
#364 = CARTESIAN_POINT('',(46.1,-1.5,0.));
#365 = DIRECTION('',(-0.707106781187,-0.707106781187,0.));
#366 = DIRECTION('',(0.,0.,1.));
#367 = ADVANCED_FACE('',(#368),#381,.F.);
#368 = FACE_BOUND('',#369,.F.);
#369 = EDGE_LOOP('',(#370,#371,#377,#378,#379,#380));
#370 = ORIENTED_EDGE('',*,*,#86,.F.);
#371 = ORIENTED_EDGE('',*,*,#372,.F.);
#372 = EDGE_CURVE('',#309,#87,#373,.T.);
#373 = LINE('',#374,#375);
#374 = CARTESIAN_POINT('',(0.,0.,52.8));
#375 = VECTOR('',#376,1.);
#376 = DIRECTION('',(1.,0.,0.));
#377 = ORIENTED_EDGE('',*,*,#308,.T.);
#378 = ORIENTED_EDGE('',*,*,#332,.T.);
#379 = ORIENTED_EDGE('',*,*,#284,.T.);
#380 = ORIENTED_EDGE('',*,*,#110,.F.);
#381 = PLANE('',#382);
#382 = AXIS2_PLACEMENT_3D('',#383,#384,#385);
#383 = CARTESIAN_POINT('',(3.5,0.,52.8));
#384 = DIRECTION('',(0.,0.,-1.));
#385 = DIRECTION('',(1.,0.,0.));
#386 = ADVANCED_FACE('',(#387),#405,.F.);
#387 = FACE_BOUND('',#388,.F.);
#388 = EDGE_LOOP('',(#389,#390,#398,#404));
#389 = ORIENTED_EDGE('',*,*,#132,.F.);
#390 = ORIENTED_EDGE('',*,*,#391,.T.);
#391 = EDGE_CURVE('',#133,#392,#394,.T.);
#392 = VERTEX_POINT('',#393);
#393 = CARTESIAN_POINT('',(47.6,-8.5,52.8));
#394 = LINE('',#395,#396);
#395 = CARTESIAN_POINT('',(47.6,-8.5,0.));
#396 = VECTOR('',#397,1.);
#397 = DIRECTION('',(0.,0.,1.));
#398 = ORIENTED_EDGE('',*,*,#399,.T.);
#399 = EDGE_CURVE('',#392,#349,#400,.T.);
#400 = LINE('',#401,#402);
#401 = CARTESIAN_POINT('',(47.6,-8.5,52.8));
#402 = VECTOR('',#403,1.);
#403 = DIRECTION('',(0.,1.,0.));
#404 = ORIENTED_EDGE('',*,*,#348,.F.);
#405 = PLANE('',#406);
#406 = AXIS2_PLACEMENT_3D('',#407,#408,#409);
#407 = CARTESIAN_POINT('',(47.6,-8.5,0.));
#408 = DIRECTION('',(-1.,0.,0.));
#409 = DIRECTION('',(0.,1.,0.));
#410 = ADVANCED_FACE('',(#411),#429,.F.);
#411 = FACE_BOUND('',#412,.F.);
#412 = EDGE_LOOP('',(#413,#414,#422,#428));
#413 = ORIENTED_EDGE('',*,*,#142,.F.);
#414 = ORIENTED_EDGE('',*,*,#415,.T.);
#415 = EDGE_CURVE('',#143,#416,#418,.T.);
#416 = VERTEX_POINT('',#417);
#417 = CARTESIAN_POINT('',(50.85,-8.5,52.8));
#418 = LINE('',#419,#420);
#419 = CARTESIAN_POINT('',(50.85,-8.5,0.));
#420 = VECTOR('',#421,1.);
#421 = DIRECTION('',(0.,0.,1.));
#422 = ORIENTED_EDGE('',*,*,#423,.T.);
#423 = EDGE_CURVE('',#416,#392,#424,.T.);
#424 = LINE('',#425,#426);
#425 = CARTESIAN_POINT('',(51.35,-8.5,52.8));
#426 = VECTOR('',#427,1.);
#427 = DIRECTION('',(-1.,0.,0.));
#428 = ORIENTED_EDGE('',*,*,#391,.F.);
#429 = PLANE('',#430);
#430 = AXIS2_PLACEMENT_3D('',#431,#432,#433);
#431 = CARTESIAN_POINT('',(51.35,-8.5,0.));
#432 = DIRECTION('',(0.,-1.,0.));
#433 = DIRECTION('',(-1.,0.,0.));
#434 = ADVANCED_FACE('',(#435),#453,.T.);
#435 = FACE_BOUND('',#436,.T.);
#436 = EDGE_LOOP('',(#437,#438,#439,#447));
#437 = ORIENTED_EDGE('',*,*,#150,.F.);
#438 = ORIENTED_EDGE('',*,*,#415,.T.);
#439 = ORIENTED_EDGE('',*,*,#440,.T.);
#440 = EDGE_CURVE('',#416,#441,#443,.T.);
#441 = VERTEX_POINT('',#442);
#442 = CARTESIAN_POINT('',(51.35,-9.,52.8));
#443 = LINE('',#444,#445);
#444 = CARTESIAN_POINT('',(42.933498759305,-0.583498759305,52.8));
#445 = VECTOR('',#446,1.);
#446 = DIRECTION('',(0.707106781187,-0.707106781187,0.));
#447 = ORIENTED_EDGE('',*,*,#448,.F.);
#448 = EDGE_CURVE('',#151,#441,#449,.T.);
#449 = LINE('',#450,#451);
#450 = CARTESIAN_POINT('',(51.35,-9.,0.));
#451 = VECTOR('',#452,1.);
#452 = DIRECTION('',(0.,0.,1.));
#453 = PLANE('',#454);
#454 = AXIS2_PLACEMENT_3D('',#455,#456,#457);
#455 = CARTESIAN_POINT('',(51.1,-8.75,0.));
#456 = DIRECTION('',(0.707106781187,0.707106781187,0.));
#457 = DIRECTION('',(0.,0.,1.));
#458 = ADVANCED_FACE('',(#459),#477,.F.);
#459 = FACE_BOUND('',#460,.F.);
#460 = EDGE_LOOP('',(#461,#462,#463,#471));
#461 = ORIENTED_EDGE('',*,*,#254,.F.);
#462 = ORIENTED_EDGE('',*,*,#316,.T.);
#463 = ORIENTED_EDGE('',*,*,#464,.T.);
#464 = EDGE_CURVE('',#309,#465,#467,.T.);
#465 = VERTEX_POINT('',#466);
#466 = CARTESIAN_POINT('',(-1.E-15,-3.5,52.8));
#467 = LINE('',#468,#469);
#468 = CARTESIAN_POINT('',(6.133235111663,2.633235111663,52.8));
#469 = VECTOR('',#470,1.);
#470 = DIRECTION('',(-0.707106781187,-0.707106781187,0.));
#471 = ORIENTED_EDGE('',*,*,#472,.F.);
#472 = EDGE_CURVE('',#247,#465,#473,.T.);
#473 = LINE('',#474,#475);
#474 = CARTESIAN_POINT('',(0.,-3.5,0.));
#475 = VECTOR('',#476,1.);
#476 = DIRECTION('',(0.,0.,1.));
#477 = PLANE('',#478);
#478 = AXIS2_PLACEMENT_3D('',#479,#480,#481);
#479 = CARTESIAN_POINT('',(1.75,-1.75,0.));
#480 = DIRECTION('',(0.707106781187,-0.707106781187,1.E-17));
#481 = DIRECTION('',(-7.071067811865E-18,7.071067811865E-18,1.));
#482 = ADVANCED_FACE('',(#483),#501,.F.);
#483 = FACE_BOUND('',#484,.F.);
#484 = EDGE_LOOP('',(#485,#486,#494,#500));
#485 = ORIENTED_EDGE('',*,*,#158,.F.);
#486 = ORIENTED_EDGE('',*,*,#487,.T.);
#487 = EDGE_CURVE('',#159,#488,#490,.T.);
#488 = VERTEX_POINT('',#489);
#489 = CARTESIAN_POINT('',(51.35,-11.,52.8));
#490 = LINE('',#491,#492);
#491 = CARTESIAN_POINT('',(51.35,-11.,0.));
#492 = VECTOR('',#493,1.);
#493 = DIRECTION('',(0.,0.,1.));
#494 = ORIENTED_EDGE('',*,*,#495,.T.);
#495 = EDGE_CURVE('',#488,#441,#496,.T.);
#496 = LINE('',#497,#498);
#497 = CARTESIAN_POINT('',(51.35,-11.5,52.8));
#498 = VECTOR('',#499,1.);
#499 = DIRECTION('',(0.,1.,0.));
#500 = ORIENTED_EDGE('',*,*,#448,.F.);
#501 = PLANE('',#502);
#502 = AXIS2_PLACEMENT_3D('',#503,#504,#505);
#503 = CARTESIAN_POINT('',(51.35,-11.5,0.));
#504 = DIRECTION('',(-1.,0.,0.));
#505 = DIRECTION('',(0.,1.,0.));
#506 = ADVANCED_FACE('',(#507),#525,.F.);
#507 = FACE_BOUND('',#508,.F.);
#508 = EDGE_LOOP('',(#509,#510,#511,#519));
#509 = ORIENTED_EDGE('',*,*,#246,.F.);
#510 = ORIENTED_EDGE('',*,*,#472,.T.);
#511 = ORIENTED_EDGE('',*,*,#512,.T.);
#512 = EDGE_CURVE('',#465,#513,#515,.T.);
#513 = VERTEX_POINT('',#514);
#514 = CARTESIAN_POINT('',(0.,-10.,52.8));
#515 = LINE('',#516,#517);
#516 = CARTESIAN_POINT('',(0.,0.,52.8));
#517 = VECTOR('',#518,1.);
#518 = DIRECTION('',(0.,-1.,0.));
#519 = ORIENTED_EDGE('',*,*,#520,.F.);
#520 = EDGE_CURVE('',#239,#513,#521,.T.);
#521 = LINE('',#522,#523);
#522 = CARTESIAN_POINT('',(0.,-10.,0.));
#523 = VECTOR('',#524,1.);
#524 = DIRECTION('',(0.,0.,1.));
#525 = PLANE('',#526);
#526 = AXIS2_PLACEMENT_3D('',#527,#528,#529);
#527 = CARTESIAN_POINT('',(0.,0.,0.));
#528 = DIRECTION('',(1.,0.,0.));
#529 = DIRECTION('',(0.,-1.,0.));
#530 = ADVANCED_FACE('',(#531),#549,.T.);
#531 = FACE_BOUND('',#532,.T.);
#532 = EDGE_LOOP('',(#533,#534,#535,#543));
#533 = ORIENTED_EDGE('',*,*,#166,.F.);
#534 = ORIENTED_EDGE('',*,*,#487,.T.);
#535 = ORIENTED_EDGE('',*,*,#536,.T.);
#536 = EDGE_CURVE('',#488,#537,#539,.T.);
#537 = VERTEX_POINT('',#538);
#538 = CARTESIAN_POINT('',(50.85,-11.5,52.8));
#539 = LINE('',#540,#541);
#540 = CARTESIAN_POINT('',(45.520735111663,-16.82926488833,52.8));
#541 = VECTOR('',#542,1.);
#542 = DIRECTION('',(-0.707106781187,-0.707106781187,0.));
#543 = ORIENTED_EDGE('',*,*,#544,.F.);
#544 = EDGE_CURVE('',#167,#537,#545,.T.);
#545 = LINE('',#546,#547);
#546 = CARTESIAN_POINT('',(50.85,-11.5,0.));
#547 = VECTOR('',#548,1.);
#548 = DIRECTION('',(0.,0.,1.));
#549 = PLANE('',#550);
#550 = AXIS2_PLACEMENT_3D('',#551,#552,#553);
#551 = CARTESIAN_POINT('',(51.1,-11.25,0.));
#552 = DIRECTION('',(0.707106781187,-0.707106781187,0.));
#553 = DIRECTION('',(0.,0.,1.));
#554 = ADVANCED_FACE('',(#555),#573,.F.);
#555 = FACE_BOUND('',#556,.F.);
#556 = EDGE_LOOP('',(#557,#558,#559,#567));
#557 = ORIENTED_EDGE('',*,*,#238,.F.);
#558 = ORIENTED_EDGE('',*,*,#520,.T.);
#559 = ORIENTED_EDGE('',*,*,#560,.T.);
#560 = EDGE_CURVE('',#513,#561,#563,.T.);
#561 = VERTEX_POINT('',#562);
#562 = CARTESIAN_POINT('',(-3.25,-10.,52.8));
#563 = LINE('',#564,#565);
#564 = CARTESIAN_POINT('',(0.,-10.,52.8));
#565 = VECTOR('',#566,1.);
#566 = DIRECTION('',(-1.,0.,0.));
#567 = ORIENTED_EDGE('',*,*,#568,.F.);
#568 = EDGE_CURVE('',#231,#561,#569,.T.);
#569 = LINE('',#570,#571);
#570 = CARTESIAN_POINT('',(-3.25,-10.,0.));
#571 = VECTOR('',#572,1.);
#572 = DIRECTION('',(0.,0.,1.));
#573 = PLANE('',#574);
#574 = AXIS2_PLACEMENT_3D('',#575,#576,#577);
#575 = CARTESIAN_POINT('',(0.,-10.,0.));
#576 = DIRECTION('',(0.,-1.,0.));
#577 = DIRECTION('',(-1.,0.,0.));
#578 = ADVANCED_FACE('',(#579),#597,.F.);
#579 = FACE_BOUND('',#580,.F.);
#580 = EDGE_LOOP('',(#581,#582,#590,#596));
#581 = ORIENTED_EDGE('',*,*,#174,.F.);
#582 = ORIENTED_EDGE('',*,*,#583,.T.);
#583 = EDGE_CURVE('',#175,#584,#586,.T.);
#584 = VERTEX_POINT('',#585);
#585 = CARTESIAN_POINT('',(43.85,-11.5,52.8));
#586 = LINE('',#587,#588);
#587 = CARTESIAN_POINT('',(43.85,-11.5,0.));
#588 = VECTOR('',#589,1.);
#589 = DIRECTION('',(0.,0.,1.));
#590 = ORIENTED_EDGE('',*,*,#591,.T.);
#591 = EDGE_CURVE('',#584,#537,#592,.T.);
#592 = LINE('',#593,#594);
#593 = CARTESIAN_POINT('',(43.85,-11.5,52.8));
#594 = VECTOR('',#595,1.);
#595 = DIRECTION('',(1.,0.,0.));
#596 = ORIENTED_EDGE('',*,*,#544,.F.);
#597 = PLANE('',#598);
#598 = AXIS2_PLACEMENT_3D('',#599,#600,#601);
#599 = CARTESIAN_POINT('',(43.85,-11.5,0.));
#600 = DIRECTION('',(0.,1.,0.));
#601 = DIRECTION('',(1.,0.,0.));
#602 = ADVANCED_FACE('',(#603),#621,.T.);
#603 = FACE_BOUND('',#604,.F.);
#604 = EDGE_LOOP('',(#605,#606,#607,#615));
#605 = ORIENTED_EDGE('',*,*,#230,.F.);
#606 = ORIENTED_EDGE('',*,*,#568,.T.);
#607 = ORIENTED_EDGE('',*,*,#608,.T.);
#608 = EDGE_CURVE('',#561,#609,#611,.T.);
#609 = VERTEX_POINT('',#610);
#610 = CARTESIAN_POINT('',(-3.75,-10.5,52.8));
#611 = LINE('',#612,#613);
#612 = CARTESIAN_POINT('',(4.320735111663,-2.429264888337,52.8));
#613 = VECTOR('',#614,1.);
#614 = DIRECTION('',(-0.707106781187,-0.707106781187,0.));
#615 = ORIENTED_EDGE('',*,*,#616,.F.);
#616 = EDGE_CURVE('',#223,#609,#617,.T.);
#617 = LINE('',#618,#619);
#618 = CARTESIAN_POINT('',(-3.75,-10.5,0.));
#619 = VECTOR('',#620,1.);
#620 = DIRECTION('',(0.,0.,1.));
#621 = PLANE('',#622);
#622 = AXIS2_PLACEMENT_3D('',#623,#624,#625);
#623 = CARTESIAN_POINT('',(-3.5,-10.25,0.));
#624 = DIRECTION('',(-0.707106781187,0.707106781187,0.));
#625 = DIRECTION('',(-0.,-0.,-1.));
#626 = ADVANCED_FACE('',(#627),#645,.F.);
#627 = FACE_BOUND('',#628,.F.);
#628 = EDGE_LOOP('',(#629,#637,#643,#644));
#629 = ORIENTED_EDGE('',*,*,#630,.T.);
#630 = EDGE_CURVE('',#183,#631,#633,.T.);
#631 = VERTEX_POINT('',#632);
#632 = CARTESIAN_POINT('',(43.85,-2.5,52.8));
#633 = LINE('',#634,#635);
#634 = CARTESIAN_POINT('',(43.85,-2.5,0.));
#635 = VECTOR('',#636,1.);
#636 = DIRECTION('',(0.,0.,1.));
#637 = ORIENTED_EDGE('',*,*,#638,.T.);
#638 = EDGE_CURVE('',#631,#584,#639,.T.);
#639 = LINE('',#640,#641);
#640 = CARTESIAN_POINT('',(43.85,-2.5,52.8));
#641 = VECTOR('',#642,1.);
#642 = DIRECTION('',(0.,-1.,0.));
#643 = ORIENTED_EDGE('',*,*,#583,.F.);
#644 = ORIENTED_EDGE('',*,*,#182,.F.);
#645 = PLANE('',#646);
#646 = AXIS2_PLACEMENT_3D('',#647,#648,#649);
#647 = CARTESIAN_POINT('',(43.85,-2.5,0.));
#648 = DIRECTION('',(1.,0.,0.));
#649 = DIRECTION('',(0.,-1.,0.));
#650 = ADVANCED_FACE('',(#651),#669,.F.);
#651 = FACE_BOUND('',#652,.F.);
#652 = EDGE_LOOP('',(#653,#654,#655,#663));
#653 = ORIENTED_EDGE('',*,*,#222,.F.);
#654 = ORIENTED_EDGE('',*,*,#616,.T.);
#655 = ORIENTED_EDGE('',*,*,#656,.T.);
#656 = EDGE_CURVE('',#609,#657,#659,.T.);
#657 = VERTEX_POINT('',#658);
#658 = CARTESIAN_POINT('',(-3.75,-16.,52.8));
#659 = LINE('',#660,#661);
#660 = CARTESIAN_POINT('',(-3.75,-10.,52.8));
#661 = VECTOR('',#662,1.);
#662 = DIRECTION('',(0.,-1.,0.));
#663 = ORIENTED_EDGE('',*,*,#664,.F.);
#664 = EDGE_CURVE('',#215,#657,#665,.T.);
#665 = LINE('',#666,#667);
#666 = CARTESIAN_POINT('',(-3.75,-16.,0.));
#667 = VECTOR('',#668,1.);
#668 = DIRECTION('',(0.,0.,1.));
#669 = PLANE('',#670);
#670 = AXIS2_PLACEMENT_3D('',#671,#672,#673);
#671 = CARTESIAN_POINT('',(-3.75,-10.,0.));
#672 = DIRECTION('',(1.,0.,0.));
#673 = DIRECTION('',(0.,-1.,0.));
#674 = ADVANCED_FACE('',(#675),#693,.F.);
#675 = FACE_BOUND('',#676,.F.);
#676 = EDGE_LOOP('',(#677,#685,#691,#692));
#677 = ORIENTED_EDGE('',*,*,#678,.T.);
#678 = EDGE_CURVE('',#191,#679,#681,.T.);
#679 = VERTEX_POINT('',#680);
#680 = CARTESIAN_POINT('',(3.75,-2.5,52.8));
#681 = LINE('',#682,#683);
#682 = CARTESIAN_POINT('',(3.75,-2.5,0.));
#683 = VECTOR('',#684,1.);
#684 = DIRECTION('',(0.,0.,1.));
#685 = ORIENTED_EDGE('',*,*,#686,.T.);
#686 = EDGE_CURVE('',#679,#631,#687,.T.);
#687 = LINE('',#688,#689);
#688 = CARTESIAN_POINT('',(3.75,-2.5,52.8));
#689 = VECTOR('',#690,1.);
#690 = DIRECTION('',(1.,0.,0.));
#691 = ORIENTED_EDGE('',*,*,#630,.F.);
#692 = ORIENTED_EDGE('',*,*,#190,.F.);
#693 = PLANE('',#694);
#694 = AXIS2_PLACEMENT_3D('',#695,#696,#697);
#695 = CARTESIAN_POINT('',(3.75,-2.5,0.));
#696 = DIRECTION('',(0.,1.,0.));
#697 = DIRECTION('',(1.,0.,0.));
#698 = ADVANCED_FACE('',(#699),#717,.T.);
#699 = FACE_BOUND('',#700,.F.);
#700 = EDGE_LOOP('',(#701,#702,#703,#711));
#701 = ORIENTED_EDGE('',*,*,#214,.F.);
#702 = ORIENTED_EDGE('',*,*,#664,.T.);
#703 = ORIENTED_EDGE('',*,*,#704,.T.);
#704 = EDGE_CURVE('',#657,#705,#707,.T.);
#705 = VERTEX_POINT('',#706);
#706 = CARTESIAN_POINT('',(-3.25,-16.5,52.8));
#707 = LINE('',#708,#709);
#708 = CARTESIAN_POINT('',(0.108498759305,-19.8584987593,52.8));
#709 = VECTOR('',#710,1.);
#710 = DIRECTION('',(0.707106781187,-0.707106781187,0.));
#711 = ORIENTED_EDGE('',*,*,#712,.F.);
#712 = EDGE_CURVE('',#207,#705,#713,.T.);
#713 = LINE('',#714,#715);
#714 = CARTESIAN_POINT('',(-3.25,-16.5,0.));
#715 = VECTOR('',#716,1.);
#716 = DIRECTION('',(0.,0.,1.));
#717 = PLANE('',#718);
#718 = AXIS2_PLACEMENT_3D('',#719,#720,#721);
#719 = CARTESIAN_POINT('',(-3.5,-16.25,0.));
#720 = DIRECTION('',(-0.707106781187,-0.707106781187,-0.));
#721 = DIRECTION('',(0.,0.,-1.));
#722 = ADVANCED_FACE('',(#723),#741,.F.);
#723 = FACE_BOUND('',#724,.F.);
#724 = EDGE_LOOP('',(#725,#733,#739,#740));
#725 = ORIENTED_EDGE('',*,*,#726,.T.);
#726 = EDGE_CURVE('',#199,#727,#729,.T.);
#727 = VERTEX_POINT('',#728);
#728 = CARTESIAN_POINT('',(3.75,-16.5,52.8));
#729 = LINE('',#730,#731);
#730 = CARTESIAN_POINT('',(3.75,-16.5,0.));
#731 = VECTOR('',#732,1.);
#732 = DIRECTION('',(0.,0.,1.));
#733 = ORIENTED_EDGE('',*,*,#734,.T.);
#734 = EDGE_CURVE('',#727,#679,#735,.T.);
#735 = LINE('',#736,#737);
#736 = CARTESIAN_POINT('',(3.75,-16.5,52.8));
#737 = VECTOR('',#738,1.);
#738 = DIRECTION('',(0.,1.,0.));
#739 = ORIENTED_EDGE('',*,*,#678,.F.);
#740 = ORIENTED_EDGE('',*,*,#198,.F.);
#741 = PLANE('',#742);
#742 = AXIS2_PLACEMENT_3D('',#743,#744,#745);
#743 = CARTESIAN_POINT('',(3.75,-16.5,0.));
#744 = DIRECTION('',(-1.,0.,0.));
#745 = DIRECTION('',(0.,1.,0.));
#746 = ADVANCED_FACE('',(#747),#758,.F.);
#747 = FACE_BOUND('',#748,.F.);
#748 = EDGE_LOOP('',(#749,#750,#751,#757));
#749 = ORIENTED_EDGE('',*,*,#206,.F.);
#750 = ORIENTED_EDGE('',*,*,#712,.T.);
#751 = ORIENTED_EDGE('',*,*,#752,.T.);
#752 = EDGE_CURVE('',#705,#727,#753,.T.);
#753 = LINE('',#754,#755);
#754 = CARTESIAN_POINT('',(-3.75,-16.5,52.8));
#755 = VECTOR('',#756,1.);
#756 = DIRECTION('',(1.,0.,0.));
#757 = ORIENTED_EDGE('',*,*,#726,.F.);
#758 = PLANE('',#759);
#759 = AXIS2_PLACEMENT_3D('',#760,#761,#762);
#760 = CARTESIAN_POINT('',(-3.75,-16.5,0.));
#761 = DIRECTION('',(0.,1.,0.));
#762 = DIRECTION('',(1.,0.,0.));
#763 = ADVANCED_FACE('',(#764),#784,.F.);
#764 = FACE_BOUND('',#765,.F.);
#765 = EDGE_LOOP('',(#766,#767,#768,#769,#770,#771,#772,#773,#774,#775,
    #776,#777,#778,#779,#780,#781,#782,#783));
#766 = ORIENTED_EDGE('',*,*,#399,.F.);
#767 = ORIENTED_EDGE('',*,*,#423,.F.);
#768 = ORIENTED_EDGE('',*,*,#440,.T.);
#769 = ORIENTED_EDGE('',*,*,#495,.F.);
#770 = ORIENTED_EDGE('',*,*,#536,.T.);
#771 = ORIENTED_EDGE('',*,*,#591,.F.);
#772 = ORIENTED_EDGE('',*,*,#638,.F.);
#773 = ORIENTED_EDGE('',*,*,#686,.F.);
#774 = ORIENTED_EDGE('',*,*,#734,.F.);
#775 = ORIENTED_EDGE('',*,*,#752,.F.);
#776 = ORIENTED_EDGE('',*,*,#704,.F.);
#777 = ORIENTED_EDGE('',*,*,#656,.F.);
#778 = ORIENTED_EDGE('',*,*,#608,.F.);
#779 = ORIENTED_EDGE('',*,*,#560,.F.);
#780 = ORIENTED_EDGE('',*,*,#512,.F.);
#781 = ORIENTED_EDGE('',*,*,#464,.F.);
#782 = ORIENTED_EDGE('',*,*,#372,.T.);
#783 = ORIENTED_EDGE('',*,*,#356,.F.);
#784 = PLANE('',#785);
#785 = AXIS2_PLACEMENT_3D('',#786,#787,#788);
#786 = CARTESIAN_POINT('',(22.358467741935,-4.825527295285,52.8));
#787 = DIRECTION('',(0.,2.2E-16,-1.));
#788 = DIRECTION('',(0.,1.,2.2E-16));
#789 = ( GEOMETRIC_REPRESENTATION_CONTEXT(3) 
GLOBAL_UNCERTAINTY_ASSIGNED_CONTEXT((#793)) GLOBAL_UNIT_ASSIGNED_CONTEXT
((#790,#791,#792)) REPRESENTATION_CONTEXT('Context #1',
  '3D Context with UNIT and UNCERTAINTY') );
#790 = ( LENGTH_UNIT() NAMED_UNIT(*) SI_UNIT(.MILLI.,.METRE.) );
#791 = ( NAMED_UNIT(*) PLANE_ANGLE_UNIT() SI_UNIT($,.RADIAN.) );
#792 = ( NAMED_UNIT(*) SI_UNIT($,.STERADIAN.) SOLID_ANGLE_UNIT() );
#793 = UNCERTAINTY_MEASURE_WITH_UNIT(LENGTH_MEASURE(1.E-07),#790,
  'distance_accuracy_value','confusion accuracy');
#794 = PRODUCT_RELATED_PRODUCT_CATEGORY('part',$,(#7));
#795 = MECHANICAL_DESIGN_GEOMETRIC_PRESENTATION_REPRESENTATION('',(#796)
  ,#789);
#796 = STYLED_ITEM('color',(#797),#15);
#797 = PRESENTATION_STYLE_ASSIGNMENT((#798,#804));
#798 = SURFACE_STYLE_USAGE(.BOTH.,#799);
#799 = SURFACE_SIDE_STYLE('',(#800));
#800 = SURFACE_STYLE_FILL_AREA(#801);
#801 = FILL_AREA_STYLE('',(#802));
#802 = FILL_AREA_STYLE_COLOUR('',#803);
#803 = COLOUR_RGB('',0.800000010877,0.800000010877,0.800000010877);
#804 = CURVE_STYLE('',#805,POSITIVE_LENGTH_MEASURE(0.1),#806);
#805 = DRAUGHTING_PRE_DEFINED_CURVE_FONT('continuous');
#806 = COLOUR_RGB('',9.803921802644E-02,9.803921802644E-02,
  9.803921802644E-02);
ENDSEC;
END-ISO-10303-21;
