ISO-10303-21;
HEADER;
FILE_DESCRIPTION(('FreeCAD Model'),'2;1');
FILE_NAME('Open CASCADE Shape Model','2025-12-16T10:56:04',('Author'),(
    ''),'Open CASCADE STEP processor 7.6','FreeCAD','Unknown');
FILE_SCHEMA(('AUTOMOTIVE_DESIGN { 1 0 10303 214 1 1 1 1 }'));
ENDSEC;
DATA;
#1 = APPLICATION_PROTOCOL_DEFINITION('international standard',
  'automotive_design',2000,#2);
#2 = APPLICATION_CONTEXT(
  'core data for automotive mechanical design processes');
#3 = SHAPE_DEFINITION_REPRESENTATION(#4,#10);
#4 = PRODUCT_DEFINITION_SHAPE('','',#5);
#5 = PRODUCT_DEFINITION('design','',#6,#9);
#6 = PRODUCT_DEFINITION_FORMATION('','',#7);
#7 = PRODUCT('Pocket003','Pocket003','',(#8));
#8 = PRODUCT_CONTEXT('',#2,'mechanical');
#9 = PRODUCT_DEFINITION_CONTEXT('part definition',#2,'design');
#10 = ADVANCED_BREP_SHAPE_REPRESENTATION('',(#11,#15),#1443);
#11 = AXIS2_PLACEMENT_3D('',#12,#13,#14);
#12 = CARTESIAN_POINT('',(0.,0.,0.));
#13 = DIRECTION('',(0.,0.,1.));
#14 = DIRECTION('',(1.,0.,-0.));
#15 = MANIFOLD_SOLID_BREP('',#16);
#16 = CLOSED_SHELL('',(#17,#73,#112,#136,#200,#224,#255,#294,#318,#335,
    #359,#391,#415,#439,#463,#490,#514,#602,#665,#677,#721,#753,#777,
    #801,#819,#844,#868,#899,#923,#947,#978,#1002,#1019,#1036,#1053,
    #1086,#1111,#1135,#1159,#1176,#1185,#1209,#1233,#1250,#1274,#1298,
    #1315,#1327,#1339,#1371,#1390,#1422,#1434));
#17 = ADVANCED_FACE('',(#18),#68,.F.);
#18 = FACE_BOUND('',#19,.F.);
#19 = EDGE_LOOP('',(#20,#30,#38,#46,#54,#62));
#20 = ORIENTED_EDGE('',*,*,#21,.T.);
#21 = EDGE_CURVE('',#22,#24,#26,.T.);
#22 = VERTEX_POINT('',#23);
#23 = CARTESIAN_POINT('',(56.8,7.5,-2.E-15));
#24 = VERTEX_POINT('',#25);
#25 = CARTESIAN_POINT('',(56.8,3.5,0.));
#26 = LINE('',#27,#28);
#27 = CARTESIAN_POINT('',(56.8,7.5,-3.33E-15));
#28 = VECTOR('',#29,1.);
#29 = DIRECTION('',(0.,-1.,4.4E-16));
#30 = ORIENTED_EDGE('',*,*,#31,.T.);
#31 = EDGE_CURVE('',#24,#32,#34,.T.);
#32 = VERTEX_POINT('',#33);
#33 = CARTESIAN_POINT('',(58.8,1.5,0.));
#34 = LINE('',#35,#36);
#35 = CARTESIAN_POINT('',(56.3,4.,-8.75E-15));
#36 = VECTOR('',#37,1.);
#37 = DIRECTION('',(0.707106781187,-0.707106781187,3.1E-16));
#38 = ORIENTED_EDGE('',*,*,#39,.T.);
#39 = EDGE_CURVE('',#32,#40,#42,.T.);
#40 = VERTEX_POINT('',#41);
#41 = CARTESIAN_POINT('',(60.7,1.5,0.));
#42 = LINE('',#43,#44);
#43 = CARTESIAN_POINT('',(56.8,1.5,1.E-15));
#44 = VECTOR('',#45,1.);
#45 = DIRECTION('',(1.,0.,0.));
#46 = ORIENTED_EDGE('',*,*,#47,.T.);
#47 = EDGE_CURVE('',#40,#48,#50,.T.);
#48 = VERTEX_POINT('',#49);
#49 = CARTESIAN_POINT('',(70.7,1.5,-1.E-15));
#50 = LINE('',#51,#52);
#51 = CARTESIAN_POINT('',(56.8,1.5,1.E-15));
#52 = VECTOR('',#53,1.);
#53 = DIRECTION('',(1.,0.,0.));
#54 = ORIENTED_EDGE('',*,*,#55,.F.);
#55 = EDGE_CURVE('',#56,#48,#58,.T.);
#56 = VERTEX_POINT('',#57);
#57 = CARTESIAN_POINT('',(70.7,7.5,-3.E-15));
#58 = LINE('',#59,#60);
#59 = CARTESIAN_POINT('',(70.7,7.5,-3.33E-15));
#60 = VECTOR('',#61,1.);
#61 = DIRECTION('',(0.,-1.,4.4E-16));
#62 = ORIENTED_EDGE('',*,*,#63,.F.);
#63 = EDGE_CURVE('',#22,#56,#64,.T.);
#64 = LINE('',#65,#66);
#65 = CARTESIAN_POINT('',(5.,7.5,0.));
#66 = VECTOR('',#67,1.);
#67 = DIRECTION('',(1.,0.,0.));
#68 = PLANE('',#69);
#69 = AXIS2_PLACEMENT_3D('',#70,#71,#72);
#70 = CARTESIAN_POINT('',(56.8,7.5,-3.33E-15));
#71 = DIRECTION('',(0.,4.4E-16,1.));
#72 = DIRECTION('',(1.,0.,0.));
#73 = ADVANCED_FACE('',(#74),#107,.F.);
#74 = FACE_BOUND('',#75,.F.);
#75 = EDGE_LOOP('',(#76,#86,#92,#93,#101));
#76 = ORIENTED_EDGE('',*,*,#77,.T.);
#77 = EDGE_CURVE('',#78,#80,#82,.T.);
#78 = VERTEX_POINT('',#79);
#79 = CARTESIAN_POINT('',(56.8,7.5,67.8));
#80 = VERTEX_POINT('',#81);
#81 = CARTESIAN_POINT('',(56.8,3.5,67.8));
#82 = LINE('',#83,#84);
#83 = CARTESIAN_POINT('',(56.8,7.5,67.8));
#84 = VECTOR('',#85,1.);
#85 = DIRECTION('',(0.,-1.,4.4E-16));
#86 = ORIENTED_EDGE('',*,*,#87,.T.);
#87 = EDGE_CURVE('',#80,#24,#88,.T.);
#88 = LINE('',#89,#90);
#89 = CARTESIAN_POINT('',(56.8,3.5,67.8));
#90 = VECTOR('',#91,1.);
#91 = DIRECTION('',(0.,-4.4E-16,-1.));
#92 = ORIENTED_EDGE('',*,*,#21,.F.);
#93 = ORIENTED_EDGE('',*,*,#94,.F.);
#94 = EDGE_CURVE('',#95,#22,#97,.T.);
#95 = VERTEX_POINT('',#96);
#96 = CARTESIAN_POINT('',(56.8,7.5,15.));
#97 = LINE('',#98,#99);
#98 = CARTESIAN_POINT('',(56.8,7.5,67.8));
#99 = VECTOR('',#100,1.);
#100 = DIRECTION('',(0.,0.,-1.));
#101 = ORIENTED_EDGE('',*,*,#102,.F.);
#102 = EDGE_CURVE('',#78,#95,#103,.T.);
#103 = LINE('',#104,#105);
#104 = CARTESIAN_POINT('',(56.8,7.5,67.8));
#105 = VECTOR('',#106,1.);
#106 = DIRECTION('',(0.,0.,-1.));
#107 = PLANE('',#108);
#108 = AXIS2_PLACEMENT_3D('',#109,#110,#111);
#109 = CARTESIAN_POINT('',(56.8,7.5,67.8));
#110 = DIRECTION('',(1.,0.,0.));
#111 = DIRECTION('',(0.,-4.4E-16,-1.));
#112 = ADVANCED_FACE('',(#113),#131,.T.);
#113 = FACE_BOUND('',#114,.T.);
#114 = EDGE_LOOP('',(#115,#123,#124,#125));
#115 = ORIENTED_EDGE('',*,*,#116,.F.);
#116 = EDGE_CURVE('',#80,#117,#119,.T.);
#117 = VERTEX_POINT('',#118);
#118 = CARTESIAN_POINT('',(58.8,1.5,67.8));
#119 = LINE('',#120,#121);
#120 = CARTESIAN_POINT('',(59.775,0.525,67.8));
#121 = VECTOR('',#122,1.);
#122 = DIRECTION('',(0.707106781187,-0.707106781187,3.1E-16));
#123 = ORIENTED_EDGE('',*,*,#87,.T.);
#124 = ORIENTED_EDGE('',*,*,#31,.T.);
#125 = ORIENTED_EDGE('',*,*,#126,.F.);
#126 = EDGE_CURVE('',#117,#32,#127,.T.);
#127 = LINE('',#128,#129);
#128 = CARTESIAN_POINT('',(58.8,1.5,67.8));
#129 = VECTOR('',#130,1.);
#130 = DIRECTION('',(0.,-4.4E-16,-1.));
#131 = PLANE('',#132);
#132 = AXIS2_PLACEMENT_3D('',#133,#134,#135);
#133 = CARTESIAN_POINT('',(57.8,2.5,67.8));
#134 = DIRECTION('',(-0.707106781187,-0.707106781187,3.1E-16));
#135 = DIRECTION('',(7.968978321703E-19,-4.392031021678E-16,-1.));
#136 = ADVANCED_FACE('',(#137),#195,.T.);
#137 = FACE_BOUND('',#138,.T.);
#138 = EDGE_LOOP('',(#139,#149,#157,#166,#174,#182,#188,#189));
#139 = ORIENTED_EDGE('',*,*,#140,.F.);
#140 = EDGE_CURVE('',#141,#143,#145,.T.);
#141 = VERTEX_POINT('',#142);
#142 = CARTESIAN_POINT('',(5.,7.5,-3.E-15));
#143 = VERTEX_POINT('',#144);
#144 = CARTESIAN_POINT('',(8.6,7.5,-2.E-15));
#145 = LINE('',#146,#147);
#146 = CARTESIAN_POINT('',(5.,7.5,0.));
#147 = VECTOR('',#148,1.);
#148 = DIRECTION('',(1.,0.,0.));
#149 = ORIENTED_EDGE('',*,*,#150,.F.);
#150 = EDGE_CURVE('',#151,#141,#153,.T.);
#151 = VERTEX_POINT('',#152);
#152 = CARTESIAN_POINT('',(5.,2.9E-14,0.));
#153 = LINE('',#154,#155);
#154 = CARTESIAN_POINT('',(5.,4.318E-14,0.));
#155 = VECTOR('',#156,1.);
#156 = DIRECTION('',(0.,1.,0.));
#157 = ORIENTED_EDGE('',*,*,#158,.T.);
#158 = EDGE_CURVE('',#151,#159,#161,.T.);
#159 = VERTEX_POINT('',#160);
#160 = CARTESIAN_POINT('',(-5.,0.,0.));
#161 = CIRCLE('',#162,5.);
#162 = AXIS2_PLACEMENT_3D('',#163,#164,#165);
#163 = CARTESIAN_POINT('',(0.,0.,0.));
#164 = DIRECTION('',(0.,0.,1.));
#165 = DIRECTION('',(1.,0.,0.));
#166 = ORIENTED_EDGE('',*,*,#167,.F.);
#167 = EDGE_CURVE('',#168,#159,#170,.T.);
#168 = VERTEX_POINT('',#169);
#169 = CARTESIAN_POINT('',(-5.,17.5,0.));
#170 = LINE('',#171,#172);
#171 = CARTESIAN_POINT('',(-5.,17.5,0.));
#172 = VECTOR('',#173,1.);
#173 = DIRECTION('',(0.,-1.,0.));
#174 = ORIENTED_EDGE('',*,*,#175,.F.);
#175 = EDGE_CURVE('',#176,#168,#178,.T.);
#176 = VERTEX_POINT('',#177);
#177 = CARTESIAN_POINT('',(70.7,17.5,0.));
#178 = LINE('',#179,#180);
#179 = CARTESIAN_POINT('',(70.7,17.5,0.));
#180 = VECTOR('',#181,1.);
#181 = DIRECTION('',(-1.,0.,0.));
#182 = ORIENTED_EDGE('',*,*,#183,.F.);
#183 = EDGE_CURVE('',#56,#176,#184,.T.);
#184 = LINE('',#185,#186);
#185 = CARTESIAN_POINT('',(70.7,7.5,0.));
#186 = VECTOR('',#187,1.);
#187 = DIRECTION('',(0.,1.,0.));
#188 = ORIENTED_EDGE('',*,*,#63,.F.);
#189 = ORIENTED_EDGE('',*,*,#190,.F.);
#190 = EDGE_CURVE('',#143,#22,#191,.T.);
#191 = LINE('',#192,#193);
#192 = CARTESIAN_POINT('',(5.,7.5,0.));
#193 = VECTOR('',#194,1.);
#194 = DIRECTION('',(1.,0.,0.));
#195 = PLANE('',#196);
#196 = AXIS2_PLACEMENT_3D('',#197,#198,#199);
#197 = CARTESIAN_POINT('',(29.417398119122,10.869638086786,-2.41E-15));
#198 = DIRECTION('',(0.,-2.2E-16,-1.));
#199 = DIRECTION('',(0.,1.,-2.2E-16));
#200 = ADVANCED_FACE('',(#201),#219,.F.);
#201 = FACE_BOUND('',#202,.F.);
#202 = EDGE_LOOP('',(#203,#204,#205,#213));
#203 = ORIENTED_EDGE('',*,*,#39,.F.);
#204 = ORIENTED_EDGE('',*,*,#126,.F.);
#205 = ORIENTED_EDGE('',*,*,#206,.F.);
#206 = EDGE_CURVE('',#207,#117,#209,.T.);
#207 = VERTEX_POINT('',#208);
#208 = CARTESIAN_POINT('',(60.7,1.5,67.8));
#209 = LINE('',#210,#211);
#210 = CARTESIAN_POINT('',(70.7,1.5,67.8));
#211 = VECTOR('',#212,1.);
#212 = DIRECTION('',(-1.,0.,0.));
#213 = ORIENTED_EDGE('',*,*,#214,.T.);
#214 = EDGE_CURVE('',#207,#40,#215,.T.);
#215 = LINE('',#216,#217);
#216 = CARTESIAN_POINT('',(60.7,1.5,67.8));
#217 = VECTOR('',#218,1.);
#218 = DIRECTION('',(0.,0.,-1.));
#219 = PLANE('',#220);
#220 = AXIS2_PLACEMENT_3D('',#221,#222,#223);
#221 = CARTESIAN_POINT('',(63.75,1.5,33.9));
#222 = DIRECTION('',(0.,1.,-2.2E-16));
#223 = DIRECTION('',(0.,-2.2E-16,-1.));
#224 = ADVANCED_FACE('',(#225),#250,.F.);
#225 = FACE_BOUND('',#226,.F.);
#226 = EDGE_LOOP('',(#227,#228,#236,#244));
#227 = ORIENTED_EDGE('',*,*,#47,.F.);
#228 = ORIENTED_EDGE('',*,*,#229,.T.);
#229 = EDGE_CURVE('',#40,#230,#232,.T.);
#230 = VERTEX_POINT('',#231);
#231 = CARTESIAN_POINT('',(60.7,-1.,1.E-15));
#232 = LINE('',#233,#234);
#233 = CARTESIAN_POINT('',(60.7,1.5,-6.7E-16));
#234 = VECTOR('',#235,1.);
#235 = DIRECTION('',(0.,-1.,4.4E-16));
#236 = ORIENTED_EDGE('',*,*,#237,.T.);
#237 = EDGE_CURVE('',#230,#238,#240,.T.);
#238 = VERTEX_POINT('',#239);
#239 = CARTESIAN_POINT('',(70.7,-1.,1.E-15));
#240 = LINE('',#241,#242);
#241 = CARTESIAN_POINT('',(60.7,-1.,1.E-15));
#242 = VECTOR('',#243,1.);
#243 = DIRECTION('',(1.,0.,0.));
#244 = ORIENTED_EDGE('',*,*,#245,.F.);
#245 = EDGE_CURVE('',#48,#238,#246,.T.);
#246 = LINE('',#247,#248);
#247 = CARTESIAN_POINT('',(70.7,1.5,-6.7E-16));
#248 = VECTOR('',#249,1.);
#249 = DIRECTION('',(0.,-1.,4.4E-16));
#250 = PLANE('',#251);
#251 = AXIS2_PLACEMENT_3D('',#252,#253,#254);
#252 = CARTESIAN_POINT('',(60.7,1.5,-6.7E-16));
#253 = DIRECTION('',(0.,4.4E-16,1.));
#254 = DIRECTION('',(1.,0.,0.));
#255 = ADVANCED_FACE('',(#256),#289,.F.);
#256 = FACE_BOUND('',#257,.F.);
#257 = EDGE_LOOP('',(#258,#259,#267,#275,#283));
#258 = ORIENTED_EDGE('',*,*,#55,.T.);
#259 = ORIENTED_EDGE('',*,*,#260,.T.);
#260 = EDGE_CURVE('',#48,#261,#263,.T.);
#261 = VERTEX_POINT('',#262);
#262 = CARTESIAN_POINT('',(70.7,1.5,67.8));
#263 = LINE('',#264,#265);
#264 = CARTESIAN_POINT('',(70.7,1.5,1.E-15));
#265 = VECTOR('',#266,1.);
#266 = DIRECTION('',(0.,0.,1.));
#267 = ORIENTED_EDGE('',*,*,#268,.F.);
#268 = EDGE_CURVE('',#269,#261,#271,.T.);
#269 = VERTEX_POINT('',#270);
#270 = CARTESIAN_POINT('',(70.7,7.5,67.8));
#271 = LINE('',#272,#273);
#272 = CARTESIAN_POINT('',(70.7,7.5,67.8));
#273 = VECTOR('',#274,1.);
#274 = DIRECTION('',(0.,-1.,4.4E-16));
#275 = ORIENTED_EDGE('',*,*,#276,.F.);
#276 = EDGE_CURVE('',#277,#269,#279,.T.);
#277 = VERTEX_POINT('',#278);
#278 = CARTESIAN_POINT('',(70.7,7.5,15.));
#279 = LINE('',#280,#281);
#280 = CARTESIAN_POINT('',(70.7,7.5,-2.E-15));
#281 = VECTOR('',#282,1.);
#282 = DIRECTION('',(0.,0.,1.));
#283 = ORIENTED_EDGE('',*,*,#284,.F.);
#284 = EDGE_CURVE('',#56,#277,#285,.T.);
#285 = LINE('',#286,#287);
#286 = CARTESIAN_POINT('',(70.7,7.5,-3.33E-15));
#287 = VECTOR('',#288,1.);
#288 = DIRECTION('',(0.,4.4E-16,1.));
#289 = PLANE('',#290);
#290 = AXIS2_PLACEMENT_3D('',#291,#292,#293);
#291 = CARTESIAN_POINT('',(70.7,7.5,-3.33E-15));
#292 = DIRECTION('',(-1.,0.,0.));
#293 = DIRECTION('',(0.,4.4E-16,1.));
#294 = ADVANCED_FACE('',(#295),#313,.F.);
#295 = FACE_BOUND('',#296,.F.);
#296 = EDGE_LOOP('',(#297,#298,#304,#305,#311,#312));
#297 = ORIENTED_EDGE('',*,*,#77,.F.);
#298 = ORIENTED_EDGE('',*,*,#299,.F.);
#299 = EDGE_CURVE('',#269,#78,#300,.T.);
#300 = LINE('',#301,#302);
#301 = CARTESIAN_POINT('',(70.7,7.5,67.8));
#302 = VECTOR('',#303,1.);
#303 = DIRECTION('',(-1.,0.,0.));
#304 = ORIENTED_EDGE('',*,*,#268,.T.);
#305 = ORIENTED_EDGE('',*,*,#306,.T.);
#306 = EDGE_CURVE('',#261,#207,#307,.T.);
#307 = LINE('',#308,#309);
#308 = CARTESIAN_POINT('',(70.7,1.5,67.8));
#309 = VECTOR('',#310,1.);
#310 = DIRECTION('',(-1.,0.,0.));
#311 = ORIENTED_EDGE('',*,*,#206,.T.);
#312 = ORIENTED_EDGE('',*,*,#116,.F.);
#313 = PLANE('',#314);
#314 = AXIS2_PLACEMENT_3D('',#315,#316,#317);
#315 = CARTESIAN_POINT('',(70.7,7.5,67.8));
#316 = DIRECTION('',(-0.,-4.4E-16,-1.));
#317 = DIRECTION('',(-1.,0.,0.));
#318 = ADVANCED_FACE('',(#319),#330,.T.);
#319 = FACE_BOUND('',#320,.T.);
#320 = EDGE_LOOP('',(#321,#327,#328,#329));
#321 = ORIENTED_EDGE('',*,*,#322,.F.);
#322 = EDGE_CURVE('',#95,#277,#323,.T.);
#323 = LINE('',#324,#325);
#324 = CARTESIAN_POINT('',(5.,7.5,15.));
#325 = VECTOR('',#326,1.);
#326 = DIRECTION('',(1.,0.,0.));
#327 = ORIENTED_EDGE('',*,*,#102,.F.);
#328 = ORIENTED_EDGE('',*,*,#299,.F.);
#329 = ORIENTED_EDGE('',*,*,#276,.F.);
#330 = PLANE('',#331);
#331 = AXIS2_PLACEMENT_3D('',#332,#333,#334);
#332 = CARTESIAN_POINT('',(63.75,7.5,33.9));
#333 = DIRECTION('',(0.,1.,-2.2E-16));
#334 = DIRECTION('',(0.,-2.2E-16,-1.));
#335 = ADVANCED_FACE('',(#336),#354,.F.);
#336 = FACE_BOUND('',#337,.F.);
#337 = EDGE_LOOP('',(#338,#339,#347,#353));
#338 = ORIENTED_EDGE('',*,*,#190,.F.);
#339 = ORIENTED_EDGE('',*,*,#340,.T.);
#340 = EDGE_CURVE('',#143,#341,#343,.T.);
#341 = VERTEX_POINT('',#342);
#342 = CARTESIAN_POINT('',(8.6,7.5,15.));
#343 = LINE('',#344,#345);
#344 = CARTESIAN_POINT('',(8.6,7.5,-2.E-15));
#345 = VECTOR('',#346,1.);
#346 = DIRECTION('',(0.,0.,1.));
#347 = ORIENTED_EDGE('',*,*,#348,.T.);
#348 = EDGE_CURVE('',#341,#95,#349,.T.);
#349 = LINE('',#350,#351);
#350 = CARTESIAN_POINT('',(5.,7.5,15.));
#351 = VECTOR('',#352,1.);
#352 = DIRECTION('',(1.,0.,0.));
#353 = ORIENTED_EDGE('',*,*,#94,.T.);
#354 = PLANE('',#355);
#355 = AXIS2_PLACEMENT_3D('',#356,#357,#358);
#356 = CARTESIAN_POINT('',(5.,7.5,-3.33E-15));
#357 = DIRECTION('',(0.,1.,-4.4E-16));
#358 = DIRECTION('',(1.,0.,0.));
#359 = ADVANCED_FACE('',(#360),#386,.F.);
#360 = FACE_BOUND('',#361,.F.);
#361 = EDGE_LOOP('',(#362,#370,#371,#372,#380));
#362 = ORIENTED_EDGE('',*,*,#363,.F.);
#363 = EDGE_CURVE('',#143,#364,#366,.T.);
#364 = VERTEX_POINT('',#365);
#365 = CARTESIAN_POINT('',(8.6,1.6,-1.E-15));
#366 = LINE('',#367,#368);
#367 = CARTESIAN_POINT('',(8.6,7.5,-3.33E-15));
#368 = VECTOR('',#369,1.);
#369 = DIRECTION('',(0.,-1.,4.4E-16));
#370 = ORIENTED_EDGE('',*,*,#140,.F.);
#371 = ORIENTED_EDGE('',*,*,#150,.F.);
#372 = ORIENTED_EDGE('',*,*,#373,.T.);
#373 = EDGE_CURVE('',#151,#374,#376,.T.);
#374 = VERTEX_POINT('',#375);
#375 = CARTESIAN_POINT('',(7.,4.6E-14,2.E-15));
#376 = LINE('',#377,#378);
#377 = CARTESIAN_POINT('',(5.,4.618527782441E-14,1.E-15));
#378 = VECTOR('',#379,1.);
#379 = DIRECTION('',(1.,0.,0.));
#380 = ORIENTED_EDGE('',*,*,#381,.T.);
#381 = EDGE_CURVE('',#374,#364,#382,.T.);
#382 = LINE('',#383,#384);
#383 = CARTESIAN_POINT('',(8.775,1.775,-7.9E-16));
#384 = VECTOR('',#385,1.);
#385 = DIRECTION('',(0.707106781187,0.707106781187,-3.1E-16));
#386 = PLANE('',#387);
#387 = AXIS2_PLACEMENT_3D('',#388,#389,#390);
#388 = CARTESIAN_POINT('',(5.,7.5,-3.33E-15));
#389 = DIRECTION('',(0.,4.4E-16,1.));
#390 = DIRECTION('',(1.,0.,0.));
#391 = ADVANCED_FACE('',(#392),#410,.F.);
#392 = FACE_BOUND('',#393,.F.);
#393 = EDGE_LOOP('',(#394,#395,#403,#409));
#394 = ORIENTED_EDGE('',*,*,#284,.T.);
#395 = ORIENTED_EDGE('',*,*,#396,.T.);
#396 = EDGE_CURVE('',#277,#397,#399,.T.);
#397 = VERTEX_POINT('',#398);
#398 = CARTESIAN_POINT('',(70.7,17.5,15.));
#399 = LINE('',#400,#401);
#400 = CARTESIAN_POINT('',(70.7,7.5,15.));
#401 = VECTOR('',#402,1.);
#402 = DIRECTION('',(0.,1.,0.));
#403 = ORIENTED_EDGE('',*,*,#404,.F.);
#404 = EDGE_CURVE('',#176,#397,#405,.T.);
#405 = LINE('',#406,#407);
#406 = CARTESIAN_POINT('',(70.7,17.5,-7.77E-15));
#407 = VECTOR('',#408,1.);
#408 = DIRECTION('',(0.,4.4E-16,1.));
#409 = ORIENTED_EDGE('',*,*,#183,.F.);
#410 = PLANE('',#411);
#411 = AXIS2_PLACEMENT_3D('',#412,#413,#414);
#412 = CARTESIAN_POINT('',(70.7,7.5,-3.33E-15));
#413 = DIRECTION('',(-1.,0.,0.));
#414 = DIRECTION('',(0.,1.,-4.4E-16));
#415 = ADVANCED_FACE('',(#416),#434,.F.);
#416 = FACE_BOUND('',#417,.F.);
#417 = EDGE_LOOP('',(#418,#419,#427,#433));
#418 = ORIENTED_EDGE('',*,*,#404,.T.);
#419 = ORIENTED_EDGE('',*,*,#420,.T.);
#420 = EDGE_CURVE('',#397,#421,#423,.T.);
#421 = VERTEX_POINT('',#422);
#422 = CARTESIAN_POINT('',(-5.,17.5,15.));
#423 = LINE('',#424,#425);
#424 = CARTESIAN_POINT('',(70.7,17.5,15.));
#425 = VECTOR('',#426,1.);
#426 = DIRECTION('',(-1.,0.,0.));
#427 = ORIENTED_EDGE('',*,*,#428,.F.);
#428 = EDGE_CURVE('',#168,#421,#429,.T.);
#429 = LINE('',#430,#431);
#430 = CARTESIAN_POINT('',(-5.,17.5,-7.77E-15));
#431 = VECTOR('',#432,1.);
#432 = DIRECTION('',(0.,4.4E-16,1.));
#433 = ORIENTED_EDGE('',*,*,#175,.F.);
#434 = PLANE('',#435);
#435 = AXIS2_PLACEMENT_3D('',#436,#437,#438);
#436 = CARTESIAN_POINT('',(70.7,17.5,-7.77E-15));
#437 = DIRECTION('',(0.,-1.,4.4E-16));
#438 = DIRECTION('',(-1.,0.,0.));
#439 = ADVANCED_FACE('',(#440),#458,.F.);
#440 = FACE_BOUND('',#441,.F.);
#441 = EDGE_LOOP('',(#442,#443,#451,#457));
#442 = ORIENTED_EDGE('',*,*,#428,.T.);
#443 = ORIENTED_EDGE('',*,*,#444,.T.);
#444 = EDGE_CURVE('',#421,#445,#447,.T.);
#445 = VERTEX_POINT('',#446);
#446 = CARTESIAN_POINT('',(-5.,7.E-15,15.));
#447 = LINE('',#448,#449);
#448 = CARTESIAN_POINT('',(-5.,17.5,15.));
#449 = VECTOR('',#450,1.);
#450 = DIRECTION('',(0.,-1.,0.));
#451 = ORIENTED_EDGE('',*,*,#452,.F.);
#452 = EDGE_CURVE('',#159,#445,#453,.T.);
#453 = LINE('',#454,#455);
#454 = CARTESIAN_POINT('',(-5.,3.1E-16,0.));
#455 = VECTOR('',#456,1.);
#456 = DIRECTION('',(0.,4.4E-16,1.));
#457 = ORIENTED_EDGE('',*,*,#167,.F.);
#458 = PLANE('',#459);
#459 = AXIS2_PLACEMENT_3D('',#460,#461,#462);
#460 = CARTESIAN_POINT('',(-5.,17.5,-7.77E-15));
#461 = DIRECTION('',(1.,0.,0.));
#462 = DIRECTION('',(0.,-1.,4.4E-16));
#463 = ADVANCED_FACE('',(#464,#474),#485,.T.);
#464 = FACE_BOUND('',#465,.T.);
#465 = EDGE_LOOP('',(#466,#467));
#466 = ORIENTED_EDGE('',*,*,#158,.F.);
#467 = ORIENTED_EDGE('',*,*,#468,.F.);
#468 = EDGE_CURVE('',#159,#151,#469,.T.);
#469 = CIRCLE('',#470,5.);
#470 = AXIS2_PLACEMENT_3D('',#471,#472,#473);
#471 = CARTESIAN_POINT('',(0.,0.,0.));
#472 = DIRECTION('',(0.,0.,1.));
#473 = DIRECTION('',(1.,0.,0.));
#474 = FACE_BOUND('',#475,.T.);
#475 = EDGE_LOOP('',(#476));
#476 = ORIENTED_EDGE('',*,*,#477,.F.);
#477 = EDGE_CURVE('',#478,#478,#480,.T.);
#478 = VERTEX_POINT('',#479);
#479 = CARTESIAN_POINT('',(1.675,0.,0.));
#480 = CIRCLE('',#481,1.675);
#481 = AXIS2_PLACEMENT_3D('',#482,#483,#484);
#482 = CARTESIAN_POINT('',(0.,0.,0.));
#483 = DIRECTION('',(0.,0.,-1.));
#484 = DIRECTION('',(1.,0.,0.));
#485 = PLANE('',#486);
#486 = AXIS2_PLACEMENT_3D('',#487,#488,#489);
#487 = CARTESIAN_POINT('',(-2.7E-16,3.4E-16,0.));
#488 = DIRECTION('',(0.,-2.2E-16,-1.));
#489 = DIRECTION('',(0.,1.,-2.2E-16));
#490 = ADVANCED_FACE('',(#491),#509,.F.);
#491 = FACE_BOUND('',#492,.F.);
#492 = EDGE_LOOP('',(#493,#494,#502,#508));
#493 = ORIENTED_EDGE('',*,*,#214,.F.);
#494 = ORIENTED_EDGE('',*,*,#495,.T.);
#495 = EDGE_CURVE('',#207,#496,#498,.T.);
#496 = VERTEX_POINT('',#497);
#497 = CARTESIAN_POINT('',(60.7,-1.,67.8));
#498 = LINE('',#499,#500);
#499 = CARTESIAN_POINT('',(60.7,1.5,67.8));
#500 = VECTOR('',#501,1.);
#501 = DIRECTION('',(0.,-1.,4.4E-16));
#502 = ORIENTED_EDGE('',*,*,#503,.T.);
#503 = EDGE_CURVE('',#496,#230,#504,.T.);
#504 = LINE('',#505,#506);
#505 = CARTESIAN_POINT('',(60.7,-1.,67.8));
#506 = VECTOR('',#507,1.);
#507 = DIRECTION('',(0.,0.,-1.));
#508 = ORIENTED_EDGE('',*,*,#229,.F.);
#509 = PLANE('',#510);
#510 = AXIS2_PLACEMENT_3D('',#511,#512,#513);
#511 = CARTESIAN_POINT('',(60.7,1.5,67.8));
#512 = DIRECTION('',(1.,0.,0.));
#513 = DIRECTION('',(0.,-4.4E-16,-1.));
#514 = ADVANCED_FACE('',(#515),#597,.F.);
#515 = FACE_BOUND('',#516,.F.);
#516 = EDGE_LOOP('',(#517,#518,#519,#527,#535,#543,#551,#559,#567,#575,
    #583,#591));
#517 = ORIENTED_EDGE('',*,*,#260,.F.);
#518 = ORIENTED_EDGE('',*,*,#245,.T.);
#519 = ORIENTED_EDGE('',*,*,#520,.T.);
#520 = EDGE_CURVE('',#238,#521,#523,.T.);
#521 = VERTEX_POINT('',#522);
#522 = CARTESIAN_POINT('',(70.7,-1.,21.15));
#523 = LINE('',#524,#525);
#524 = CARTESIAN_POINT('',(70.7,-1.,1.E-15));
#525 = VECTOR('',#526,1.);
#526 = DIRECTION('',(0.,0.,1.));
#527 = ORIENTED_EDGE('',*,*,#528,.F.);
#528 = EDGE_CURVE('',#529,#521,#531,.T.);
#529 = VERTEX_POINT('',#530);
#530 = CARTESIAN_POINT('',(70.7,-1.5,21.15));
#531 = LINE('',#532,#533);
#532 = CARTESIAN_POINT('',(70.7,-1.5,21.15));
#533 = VECTOR('',#534,1.);
#534 = DIRECTION('',(0.,1.,-2.2E-16));
#535 = ORIENTED_EDGE('',*,*,#536,.F.);
#536 = EDGE_CURVE('',#537,#529,#539,.T.);
#537 = VERTEX_POINT('',#538);
#538 = CARTESIAN_POINT('',(70.7,-1.5,31.15));
#539 = LINE('',#540,#541);
#540 = CARTESIAN_POINT('',(70.7,-1.5,31.15));
#541 = VECTOR('',#542,1.);
#542 = DIRECTION('',(0.,0.,-1.));
#543 = ORIENTED_EDGE('',*,*,#544,.T.);
#544 = EDGE_CURVE('',#537,#545,#547,.T.);
#545 = VERTEX_POINT('',#546);
#546 = CARTESIAN_POINT('',(70.7,-1.,31.15));
#547 = LINE('',#548,#549);
#548 = CARTESIAN_POINT('',(70.7,-1.5,31.15));
#549 = VECTOR('',#550,1.);
#550 = DIRECTION('',(0.,1.,-2.2E-16));
#551 = ORIENTED_EDGE('',*,*,#552,.T.);
#552 = EDGE_CURVE('',#545,#553,#555,.T.);
#553 = VERTEX_POINT('',#554);
#554 = CARTESIAN_POINT('',(70.7,-1.,36.65));
#555 = LINE('',#556,#557);
#556 = CARTESIAN_POINT('',(70.7,-1.,1.E-15));
#557 = VECTOR('',#558,1.);
#558 = DIRECTION('',(0.,0.,1.));
#559 = ORIENTED_EDGE('',*,*,#560,.F.);
#560 = EDGE_CURVE('',#561,#553,#563,.T.);
#561 = VERTEX_POINT('',#562);
#562 = CARTESIAN_POINT('',(70.7,-1.5,36.65));
#563 = LINE('',#564,#565);
#564 = CARTESIAN_POINT('',(70.7,-1.5,36.65));
#565 = VECTOR('',#566,1.);
#566 = DIRECTION('',(0.,1.,-2.2E-16));
#567 = ORIENTED_EDGE('',*,*,#568,.F.);
#568 = EDGE_CURVE('',#569,#561,#571,.T.);
#569 = VERTEX_POINT('',#570);
#570 = CARTESIAN_POINT('',(70.7,-1.5,46.65));
#571 = LINE('',#572,#573);
#572 = CARTESIAN_POINT('',(70.7,-1.5,46.65));
#573 = VECTOR('',#574,1.);
#574 = DIRECTION('',(0.,0.,-1.));
#575 = ORIENTED_EDGE('',*,*,#576,.T.);
#576 = EDGE_CURVE('',#569,#577,#579,.T.);
#577 = VERTEX_POINT('',#578);
#578 = CARTESIAN_POINT('',(70.7,-1.,46.65));
#579 = LINE('',#580,#581);
#580 = CARTESIAN_POINT('',(70.7,-1.5,46.65));
#581 = VECTOR('',#582,1.);
#582 = DIRECTION('',(0.,1.,-2.2E-16));
#583 = ORIENTED_EDGE('',*,*,#584,.T.);
#584 = EDGE_CURVE('',#577,#585,#587,.T.);
#585 = VERTEX_POINT('',#586);
#586 = CARTESIAN_POINT('',(70.7,-1.,67.8));
#587 = LINE('',#588,#589);
#588 = CARTESIAN_POINT('',(70.7,-1.,1.E-15));
#589 = VECTOR('',#590,1.);
#590 = DIRECTION('',(0.,0.,1.));
#591 = ORIENTED_EDGE('',*,*,#592,.F.);
#592 = EDGE_CURVE('',#261,#585,#593,.T.);
#593 = LINE('',#594,#595);
#594 = CARTESIAN_POINT('',(70.7,1.5,67.8));
#595 = VECTOR('',#596,1.);
#596 = DIRECTION('',(0.,-1.,4.4E-16));
#597 = PLANE('',#598);
#598 = AXIS2_PLACEMENT_3D('',#599,#600,#601);
#599 = CARTESIAN_POINT('',(70.7,1.5,-6.7E-16));
#600 = DIRECTION('',(-1.,0.,0.));
#601 = DIRECTION('',(0.,4.4E-16,1.));
#602 = ADVANCED_FACE('',(#603),#660,.F.);
#603 = FACE_BOUND('',#604,.F.);
#604 = EDGE_LOOP('',(#605,#606,#607,#613,#614,#622,#630,#636,#637,#645,
    #653,#659));
#605 = ORIENTED_EDGE('',*,*,#237,.F.);
#606 = ORIENTED_EDGE('',*,*,#503,.F.);
#607 = ORIENTED_EDGE('',*,*,#608,.F.);
#608 = EDGE_CURVE('',#585,#496,#609,.T.);
#609 = LINE('',#610,#611);
#610 = CARTESIAN_POINT('',(70.7,-1.,67.8));
#611 = VECTOR('',#612,1.);
#612 = DIRECTION('',(-1.,0.,0.));
#613 = ORIENTED_EDGE('',*,*,#584,.F.);
#614 = ORIENTED_EDGE('',*,*,#615,.F.);
#615 = EDGE_CURVE('',#616,#577,#618,.T.);
#616 = VERTEX_POINT('',#617);
#617 = CARTESIAN_POINT('',(65.7,-1.,46.65));
#618 = LINE('',#619,#620);
#619 = CARTESIAN_POINT('',(65.7,-1.,46.65));
#620 = VECTOR('',#621,1.);
#621 = DIRECTION('',(1.,0.,0.));
#622 = ORIENTED_EDGE('',*,*,#623,.F.);
#623 = EDGE_CURVE('',#624,#616,#626,.T.);
#624 = VERTEX_POINT('',#625);
#625 = CARTESIAN_POINT('',(65.7,-1.,36.65));
#626 = LINE('',#627,#628);
#627 = CARTESIAN_POINT('',(65.7,-1.,36.65));
#628 = VECTOR('',#629,1.);
#629 = DIRECTION('',(0.,0.,1.));
#630 = ORIENTED_EDGE('',*,*,#631,.F.);
#631 = EDGE_CURVE('',#553,#624,#632,.T.);
#632 = LINE('',#633,#634);
#633 = CARTESIAN_POINT('',(70.7,-1.,36.65));
#634 = VECTOR('',#635,1.);
#635 = DIRECTION('',(-1.,0.,0.));
#636 = ORIENTED_EDGE('',*,*,#552,.F.);
#637 = ORIENTED_EDGE('',*,*,#638,.F.);
#638 = EDGE_CURVE('',#639,#545,#641,.T.);
#639 = VERTEX_POINT('',#640);
#640 = CARTESIAN_POINT('',(65.7,-1.,31.15));
#641 = LINE('',#642,#643);
#642 = CARTESIAN_POINT('',(65.7,-1.,31.15));
#643 = VECTOR('',#644,1.);
#644 = DIRECTION('',(1.,0.,0.));
#645 = ORIENTED_EDGE('',*,*,#646,.F.);
#646 = EDGE_CURVE('',#647,#639,#649,.T.);
#647 = VERTEX_POINT('',#648);
#648 = CARTESIAN_POINT('',(65.7,-1.,21.15));
#649 = LINE('',#650,#651);
#650 = CARTESIAN_POINT('',(65.7,-1.,21.15));
#651 = VECTOR('',#652,1.);
#652 = DIRECTION('',(0.,0.,1.));
#653 = ORIENTED_EDGE('',*,*,#654,.F.);
#654 = EDGE_CURVE('',#521,#647,#655,.T.);
#655 = LINE('',#656,#657);
#656 = CARTESIAN_POINT('',(70.7,-1.,21.15));
#657 = VECTOR('',#658,1.);
#658 = DIRECTION('',(-1.,0.,0.));
#659 = ORIENTED_EDGE('',*,*,#520,.F.);
#660 = PLANE('',#661);
#661 = AXIS2_PLACEMENT_3D('',#662,#663,#664);
#662 = CARTESIAN_POINT('',(65.7,-1.,33.9));
#663 = DIRECTION('',(0.,1.,-2.2E-16));
#664 = DIRECTION('',(0.,-2.2E-16,-1.));
#665 = ADVANCED_FACE('',(#666),#672,.F.);
#666 = FACE_BOUND('',#667,.F.);
#667 = EDGE_LOOP('',(#668,#669,#670,#671));
#668 = ORIENTED_EDGE('',*,*,#306,.F.);
#669 = ORIENTED_EDGE('',*,*,#592,.T.);
#670 = ORIENTED_EDGE('',*,*,#608,.T.);
#671 = ORIENTED_EDGE('',*,*,#495,.F.);
#672 = PLANE('',#673);
#673 = AXIS2_PLACEMENT_3D('',#674,#675,#676);
#674 = CARTESIAN_POINT('',(70.7,1.5,67.8));
#675 = DIRECTION('',(-0.,-4.4E-16,-1.));
#676 = DIRECTION('',(-1.,0.,0.));
#677 = ADVANCED_FACE('',(#678),#716,.F.);
#678 = FACE_BOUND('',#679,.F.);
#679 = EDGE_LOOP('',(#680,#688,#696,#704,#711,#712,#713,#714,#715));
#680 = ORIENTED_EDGE('',*,*,#681,.F.);
#681 = EDGE_CURVE('',#682,#341,#684,.T.);
#682 = VERTEX_POINT('',#683);
#683 = CARTESIAN_POINT('',(5.,7.5,15.));
#684 = LINE('',#685,#686);
#685 = CARTESIAN_POINT('',(5.,7.5,15.));
#686 = VECTOR('',#687,1.);
#687 = DIRECTION('',(1.,0.,0.));
#688 = ORIENTED_EDGE('',*,*,#689,.F.);
#689 = EDGE_CURVE('',#690,#682,#692,.T.);
#690 = VERTEX_POINT('',#691);
#691 = CARTESIAN_POINT('',(5.,5.,15.));
#692 = LINE('',#693,#694);
#693 = CARTESIAN_POINT('',(5.,5.018E-14,15.));
#694 = VECTOR('',#695,1.);
#695 = DIRECTION('',(0.,1.,0.));
#696 = ORIENTED_EDGE('',*,*,#697,.T.);
#697 = EDGE_CURVE('',#690,#698,#700,.T.);
#698 = VERTEX_POINT('',#699);
#699 = CARTESIAN_POINT('',(0.,5.,15.));
#700 = LINE('',#701,#702);
#701 = CARTESIAN_POINT('',(8.6,5.,15.));
#702 = VECTOR('',#703,1.);
#703 = DIRECTION('',(-1.,0.,0.));
#704 = ORIENTED_EDGE('',*,*,#705,.F.);
#705 = EDGE_CURVE('',#445,#698,#706,.T.);
#706 = CIRCLE('',#707,5.);
#707 = AXIS2_PLACEMENT_3D('',#708,#709,#710);
#708 = CARTESIAN_POINT('',(0.,6.66E-15,15.));
#709 = DIRECTION('',(0.,-4.4E-16,-1.));
#710 = DIRECTION('',(1.,0.,0.));
#711 = ORIENTED_EDGE('',*,*,#444,.F.);
#712 = ORIENTED_EDGE('',*,*,#420,.F.);
#713 = ORIENTED_EDGE('',*,*,#396,.F.);
#714 = ORIENTED_EDGE('',*,*,#322,.F.);
#715 = ORIENTED_EDGE('',*,*,#348,.F.);
#716 = PLANE('',#717);
#717 = AXIS2_PLACEMENT_3D('',#718,#719,#720);
#718 = CARTESIAN_POINT('',(29.417398119122,10.869638086786,15.));
#719 = DIRECTION('',(0.,-2.2E-16,-1.));
#720 = DIRECTION('',(0.,1.,-2.2E-16));
#721 = ADVANCED_FACE('',(#722),#748,.F.);
#722 = FACE_BOUND('',#723,.F.);
#723 = EDGE_LOOP('',(#724,#725,#733,#741,#747));
#724 = ORIENTED_EDGE('',*,*,#363,.T.);
#725 = ORIENTED_EDGE('',*,*,#726,.T.);
#726 = EDGE_CURVE('',#364,#727,#729,.T.);
#727 = VERTEX_POINT('',#728);
#728 = CARTESIAN_POINT('',(8.6,1.6,15.));
#729 = LINE('',#730,#731);
#730 = CARTESIAN_POINT('',(8.6,1.6,-7.1E-16));
#731 = VECTOR('',#732,1.);
#732 = DIRECTION('',(0.,4.4E-16,1.));
#733 = ORIENTED_EDGE('',*,*,#734,.F.);
#734 = EDGE_CURVE('',#735,#727,#737,.T.);
#735 = VERTEX_POINT('',#736);
#736 = CARTESIAN_POINT('',(8.6,5.,15.));
#737 = LINE('',#738,#739);
#738 = CARTESIAN_POINT('',(8.6,7.5,15.));
#739 = VECTOR('',#740,1.);
#740 = DIRECTION('',(0.,-1.,4.4E-16));
#741 = ORIENTED_EDGE('',*,*,#742,.F.);
#742 = EDGE_CURVE('',#341,#735,#743,.T.);
#743 = LINE('',#744,#745);
#744 = CARTESIAN_POINT('',(8.6,7.5,15.));
#745 = VECTOR('',#746,1.);
#746 = DIRECTION('',(0.,-1.,4.4E-16));
#747 = ORIENTED_EDGE('',*,*,#340,.F.);
#748 = PLANE('',#749);
#749 = AXIS2_PLACEMENT_3D('',#750,#751,#752);
#750 = CARTESIAN_POINT('',(8.6,7.5,-3.33E-15));
#751 = DIRECTION('',(-1.,0.,0.));
#752 = DIRECTION('',(0.,4.4E-16,1.));
#753 = ADVANCED_FACE('',(#754),#772,.T.);
#754 = FACE_BOUND('',#755,.F.);
#755 = EDGE_LOOP('',(#756,#757,#765,#771));
#756 = ORIENTED_EDGE('',*,*,#381,.F.);
#757 = ORIENTED_EDGE('',*,*,#758,.T.);
#758 = EDGE_CURVE('',#374,#759,#761,.T.);
#759 = VERTEX_POINT('',#760);
#760 = CARTESIAN_POINT('',(7.,5.2E-14,15.));
#761 = LINE('',#762,#763);
#762 = CARTESIAN_POINT('',(7.,4.535E-14,0.));
#763 = VECTOR('',#764,1.);
#764 = DIRECTION('',(0.,4.4E-16,1.));
#765 = ORIENTED_EDGE('',*,*,#766,.T.);
#766 = EDGE_CURVE('',#759,#727,#767,.T.);
#767 = LINE('',#768,#769);
#768 = CARTESIAN_POINT('',(7.8,0.8,15.));
#769 = VECTOR('',#770,1.);
#770 = DIRECTION('',(0.707106781187,0.707106781187,-3.1E-16));
#771 = ORIENTED_EDGE('',*,*,#726,.F.);
#772 = PLANE('',#773);
#773 = AXIS2_PLACEMENT_3D('',#774,#775,#776);
#774 = CARTESIAN_POINT('',(7.8,0.8,-3.6E-16));
#775 = DIRECTION('',(0.707106781187,-0.707106781187,3.3E-16));
#776 = DIRECTION('',(8.345237791561E-18,-4.583452377916E-16,-1.));
#777 = ADVANCED_FACE('',(#778),#796,.F.);
#778 = FACE_BOUND('',#779,.F.);
#779 = EDGE_LOOP('',(#780,#781,#789,#795));
#780 = ORIENTED_EDGE('',*,*,#373,.F.);
#781 = ORIENTED_EDGE('',*,*,#782,.T.);
#782 = EDGE_CURVE('',#151,#783,#785,.T.);
#783 = VERTEX_POINT('',#784);
#784 = CARTESIAN_POINT('',(5.,5.E-14,15.));
#785 = LINE('',#786,#787);
#786 = CARTESIAN_POINT('',(5.,0.,0.));
#787 = VECTOR('',#788,1.);
#788 = DIRECTION('',(0.,4.4E-16,1.));
#789 = ORIENTED_EDGE('',*,*,#790,.F.);
#790 = EDGE_CURVE('',#759,#783,#791,.T.);
#791 = LINE('',#792,#793);
#792 = CARTESIAN_POINT('',(8.6,4.618527782441E-14,15.));
#793 = VECTOR('',#794,1.);
#794 = DIRECTION('',(-1.,0.,0.));
#795 = ORIENTED_EDGE('',*,*,#758,.F.);
#796 = PLANE('',#797);
#797 = AXIS2_PLACEMENT_3D('',#798,#799,#800);
#798 = CARTESIAN_POINT('',(6.8,4.707345624411E-14,7.5));
#799 = DIRECTION('',(0.,1.,-2.4E-16));
#800 = DIRECTION('',(0.,-2.4E-16,-1.));
#801 = ADVANCED_FACE('',(#802),#814,.T.);
#802 = FACE_BOUND('',#803,.F.);
#803 = EDGE_LOOP('',(#804,#805,#806,#807));
#804 = ORIENTED_EDGE('',*,*,#782,.F.);
#805 = ORIENTED_EDGE('',*,*,#468,.F.);
#806 = ORIENTED_EDGE('',*,*,#452,.T.);
#807 = ORIENTED_EDGE('',*,*,#808,.T.);
#808 = EDGE_CURVE('',#445,#783,#809,.T.);
#809 = CIRCLE('',#810,5.);
#810 = AXIS2_PLACEMENT_3D('',#811,#812,#813);
#811 = CARTESIAN_POINT('',(0.,7.E-15,15.));
#812 = DIRECTION('',(0.,0.,1.));
#813 = DIRECTION('',(1.,0.,0.));
#814 = CYLINDRICAL_SURFACE('',#815,5.);
#815 = AXIS2_PLACEMENT_3D('',#816,#817,#818);
#816 = CARTESIAN_POINT('',(0.,0.,0.));
#817 = DIRECTION('',(0.,-4.4E-16,-1.));
#818 = DIRECTION('',(1.,0.,0.));
#819 = ADVANCED_FACE('',(#820),#839,.F.);
#820 = FACE_BOUND('',#821,.F.);
#821 = EDGE_LOOP('',(#822,#830,#837,#838));
#822 = ORIENTED_EDGE('',*,*,#823,.T.);
#823 = EDGE_CURVE('',#478,#824,#826,.T.);
#824 = VERTEX_POINT('',#825);
#825 = CARTESIAN_POINT('',(1.675,4.E-15,10.));
#826 = LINE('',#827,#828);
#827 = CARTESIAN_POINT('',(1.675,0.,0.));
#828 = VECTOR('',#829,1.);
#829 = DIRECTION('',(0.,4.4E-16,1.));
#830 = ORIENTED_EDGE('',*,*,#831,.T.);
#831 = EDGE_CURVE('',#824,#824,#832,.T.);
#832 = CIRCLE('',#833,1.675);
#833 = AXIS2_PLACEMENT_3D('',#834,#835,#836);
#834 = CARTESIAN_POINT('',(0.,4.E-15,10.));
#835 = DIRECTION('',(0.,0.,-1.));
#836 = DIRECTION('',(1.,0.,0.));
#837 = ORIENTED_EDGE('',*,*,#823,.F.);
#838 = ORIENTED_EDGE('',*,*,#477,.F.);
#839 = CYLINDRICAL_SURFACE('',#840,1.675);
#840 = AXIS2_PLACEMENT_3D('',#841,#842,#843);
#841 = CARTESIAN_POINT('',(0.,0.,0.));
#842 = DIRECTION('',(-0.,-4.4E-16,-1.));
#843 = DIRECTION('',(1.,0.,0.));
#844 = ADVANCED_FACE('',(#845),#863,.F.);
#845 = FACE_BOUND('',#846,.F.);
#846 = EDGE_LOOP('',(#847,#855,#856,#857));
#847 = ORIENTED_EDGE('',*,*,#848,.T.);
#848 = EDGE_CURVE('',#849,#616,#851,.T.);
#849 = VERTEX_POINT('',#850);
#850 = CARTESIAN_POINT('',(65.7,-1.5,46.65));
#851 = LINE('',#852,#853);
#852 = CARTESIAN_POINT('',(65.7,-1.5,46.65));
#853 = VECTOR('',#854,1.);
#854 = DIRECTION('',(0.,1.,-2.2E-16));
#855 = ORIENTED_EDGE('',*,*,#615,.T.);
#856 = ORIENTED_EDGE('',*,*,#576,.F.);
#857 = ORIENTED_EDGE('',*,*,#858,.F.);
#858 = EDGE_CURVE('',#849,#569,#859,.T.);
#859 = LINE('',#860,#861);
#860 = CARTESIAN_POINT('',(65.7,-1.5,46.65));
#861 = VECTOR('',#862,1.);
#862 = DIRECTION('',(1.,0.,0.));
#863 = PLANE('',#864);
#864 = AXIS2_PLACEMENT_3D('',#865,#866,#867);
#865 = CARTESIAN_POINT('',(65.7,-1.5,46.65));
#866 = DIRECTION('',(0.,-2.2E-16,-1.));
#867 = DIRECTION('',(1.,0.,0.));
#868 = ADVANCED_FACE('',(#869),#894,.T.);
#869 = FACE_BOUND('',#870,.T.);
#870 = EDGE_LOOP('',(#871,#872,#880,#888));
#871 = ORIENTED_EDGE('',*,*,#568,.F.);
#872 = ORIENTED_EDGE('',*,*,#873,.T.);
#873 = EDGE_CURVE('',#569,#874,#876,.T.);
#874 = VERTEX_POINT('',#875);
#875 = CARTESIAN_POINT('',(70.7,-8.5,46.65));
#876 = LINE('',#877,#878);
#877 = CARTESIAN_POINT('',(70.7,-1.5,46.65));
#878 = VECTOR('',#879,1.);
#879 = DIRECTION('',(0.,-1.,4.4E-16));
#880 = ORIENTED_EDGE('',*,*,#881,.T.);
#881 = EDGE_CURVE('',#874,#882,#884,.T.);
#882 = VERTEX_POINT('',#883);
#883 = CARTESIAN_POINT('',(70.7,-8.5,36.65));
#884 = LINE('',#885,#886);
#885 = CARTESIAN_POINT('',(70.7,-8.5,46.65));
#886 = VECTOR('',#887,1.);
#887 = DIRECTION('',(0.,0.,-1.));
#888 = ORIENTED_EDGE('',*,*,#889,.F.);
#889 = EDGE_CURVE('',#561,#882,#890,.T.);
#890 = LINE('',#891,#892);
#891 = CARTESIAN_POINT('',(70.7,-1.5,36.65));
#892 = VECTOR('',#893,1.);
#893 = DIRECTION('',(0.,-1.,4.4E-16));
#894 = PLANE('',#895);
#895 = AXIS2_PLACEMENT_3D('',#896,#897,#898);
#896 = CARTESIAN_POINT('',(70.7,-1.5,46.65));
#897 = DIRECTION('',(1.,0.,0.));
#898 = DIRECTION('',(0.,-4.4E-16,-1.));
#899 = ADVANCED_FACE('',(#900),#918,.F.);
#900 = FACE_BOUND('',#901,.F.);
#901 = EDGE_LOOP('',(#902,#903,#904,#912));
#902 = ORIENTED_EDGE('',*,*,#560,.T.);
#903 = ORIENTED_EDGE('',*,*,#631,.T.);
#904 = ORIENTED_EDGE('',*,*,#905,.F.);
#905 = EDGE_CURVE('',#906,#624,#908,.T.);
#906 = VERTEX_POINT('',#907);
#907 = CARTESIAN_POINT('',(65.7,-1.5,36.65));
#908 = LINE('',#909,#910);
#909 = CARTESIAN_POINT('',(65.7,-1.5,36.65));
#910 = VECTOR('',#911,1.);
#911 = DIRECTION('',(0.,1.,-2.2E-16));
#912 = ORIENTED_EDGE('',*,*,#913,.F.);
#913 = EDGE_CURVE('',#561,#906,#914,.T.);
#914 = LINE('',#915,#916);
#915 = CARTESIAN_POINT('',(70.7,-1.5,36.65));
#916 = VECTOR('',#917,1.);
#917 = DIRECTION('',(-1.,0.,0.));
#918 = PLANE('',#919);
#919 = AXIS2_PLACEMENT_3D('',#920,#921,#922);
#920 = CARTESIAN_POINT('',(70.7,-1.5,36.65));
#921 = DIRECTION('',(0.,2.2E-16,1.));
#922 = DIRECTION('',(-1.,0.,0.));
#923 = ADVANCED_FACE('',(#924),#942,.F.);
#924 = FACE_BOUND('',#925,.F.);
#925 = EDGE_LOOP('',(#926,#934,#935,#936));
#926 = ORIENTED_EDGE('',*,*,#927,.T.);
#927 = EDGE_CURVE('',#928,#639,#930,.T.);
#928 = VERTEX_POINT('',#929);
#929 = CARTESIAN_POINT('',(65.7,-1.5,31.15));
#930 = LINE('',#931,#932);
#931 = CARTESIAN_POINT('',(65.7,-1.5,31.15));
#932 = VECTOR('',#933,1.);
#933 = DIRECTION('',(0.,1.,-2.2E-16));
#934 = ORIENTED_EDGE('',*,*,#638,.T.);
#935 = ORIENTED_EDGE('',*,*,#544,.F.);
#936 = ORIENTED_EDGE('',*,*,#937,.F.);
#937 = EDGE_CURVE('',#928,#537,#938,.T.);
#938 = LINE('',#939,#940);
#939 = CARTESIAN_POINT('',(65.7,-1.5,31.15));
#940 = VECTOR('',#941,1.);
#941 = DIRECTION('',(1.,0.,0.));
#942 = PLANE('',#943);
#943 = AXIS2_PLACEMENT_3D('',#944,#945,#946);
#944 = CARTESIAN_POINT('',(65.7,-1.5,31.15));
#945 = DIRECTION('',(0.,-2.2E-16,-1.));
#946 = DIRECTION('',(1.,0.,0.));
#947 = ADVANCED_FACE('',(#948),#973,.T.);
#948 = FACE_BOUND('',#949,.T.);
#949 = EDGE_LOOP('',(#950,#951,#959,#967));
#950 = ORIENTED_EDGE('',*,*,#536,.F.);
#951 = ORIENTED_EDGE('',*,*,#952,.T.);
#952 = EDGE_CURVE('',#537,#953,#955,.T.);
#953 = VERTEX_POINT('',#954);
#954 = CARTESIAN_POINT('',(70.7,-8.5,31.15));
#955 = LINE('',#956,#957);
#956 = CARTESIAN_POINT('',(70.7,-1.5,31.15));
#957 = VECTOR('',#958,1.);
#958 = DIRECTION('',(0.,-1.,4.4E-16));
#959 = ORIENTED_EDGE('',*,*,#960,.T.);
#960 = EDGE_CURVE('',#953,#961,#963,.T.);
#961 = VERTEX_POINT('',#962);
#962 = CARTESIAN_POINT('',(70.7,-8.5,21.15));
#963 = LINE('',#964,#965);
#964 = CARTESIAN_POINT('',(70.7,-8.5,31.15));
#965 = VECTOR('',#966,1.);
#966 = DIRECTION('',(0.,0.,-1.));
#967 = ORIENTED_EDGE('',*,*,#968,.F.);
#968 = EDGE_CURVE('',#529,#961,#969,.T.);
#969 = LINE('',#970,#971);
#970 = CARTESIAN_POINT('',(70.7,-1.5,21.15));
#971 = VECTOR('',#972,1.);
#972 = DIRECTION('',(0.,-1.,4.4E-16));
#973 = PLANE('',#974);
#974 = AXIS2_PLACEMENT_3D('',#975,#976,#977);
#975 = CARTESIAN_POINT('',(70.7,-1.5,31.15));
#976 = DIRECTION('',(1.,0.,0.));
#977 = DIRECTION('',(0.,-4.4E-16,-1.));
#978 = ADVANCED_FACE('',(#979),#997,.F.);
#979 = FACE_BOUND('',#980,.F.);
#980 = EDGE_LOOP('',(#981,#982,#983,#991));
#981 = ORIENTED_EDGE('',*,*,#528,.T.);
#982 = ORIENTED_EDGE('',*,*,#654,.T.);
#983 = ORIENTED_EDGE('',*,*,#984,.F.);
#984 = EDGE_CURVE('',#985,#647,#987,.T.);
#985 = VERTEX_POINT('',#986);
#986 = CARTESIAN_POINT('',(65.7,-1.5,21.15));
#987 = LINE('',#988,#989);
#988 = CARTESIAN_POINT('',(65.7,-1.5,21.15));
#989 = VECTOR('',#990,1.);
#990 = DIRECTION('',(0.,1.,-2.2E-16));
#991 = ORIENTED_EDGE('',*,*,#992,.F.);
#992 = EDGE_CURVE('',#529,#985,#993,.T.);
#993 = LINE('',#994,#995);
#994 = CARTESIAN_POINT('',(70.7,-1.5,21.15));
#995 = VECTOR('',#996,1.);
#996 = DIRECTION('',(-1.,0.,0.));
#997 = PLANE('',#998);
#998 = AXIS2_PLACEMENT_3D('',#999,#1000,#1001);
#999 = CARTESIAN_POINT('',(70.7,-1.5,21.15));
#1000 = DIRECTION('',(0.,2.2E-16,1.));
#1001 = DIRECTION('',(-1.,0.,0.));
#1002 = ADVANCED_FACE('',(#1003),#1014,.F.);
#1003 = FACE_BOUND('',#1004,.F.);
#1004 = EDGE_LOOP('',(#1005,#1006,#1007,#1008));
#1005 = ORIENTED_EDGE('',*,*,#984,.T.);
#1006 = ORIENTED_EDGE('',*,*,#646,.T.);
#1007 = ORIENTED_EDGE('',*,*,#927,.F.);
#1008 = ORIENTED_EDGE('',*,*,#1009,.F.);
#1009 = EDGE_CURVE('',#985,#928,#1010,.T.);
#1010 = LINE('',#1011,#1012);
#1011 = CARTESIAN_POINT('',(65.7,-1.5,21.15));
#1012 = VECTOR('',#1013,1.);
#1013 = DIRECTION('',(0.,0.,1.));
#1014 = PLANE('',#1015);
#1015 = AXIS2_PLACEMENT_3D('',#1016,#1017,#1018);
#1016 = CARTESIAN_POINT('',(65.7,-1.5,21.15));
#1017 = DIRECTION('',(1.,-0.,0.));
#1018 = DIRECTION('',(0.,0.,1.));
#1019 = ADVANCED_FACE('',(#1020),#1031,.F.);
#1020 = FACE_BOUND('',#1021,.F.);
#1021 = EDGE_LOOP('',(#1022,#1023,#1024,#1025));
#1022 = ORIENTED_EDGE('',*,*,#905,.T.);
#1023 = ORIENTED_EDGE('',*,*,#623,.T.);
#1024 = ORIENTED_EDGE('',*,*,#848,.F.);
#1025 = ORIENTED_EDGE('',*,*,#1026,.F.);
#1026 = EDGE_CURVE('',#906,#849,#1027,.T.);
#1027 = LINE('',#1028,#1029);
#1028 = CARTESIAN_POINT('',(65.7,-1.5,36.65));
#1029 = VECTOR('',#1030,1.);
#1030 = DIRECTION('',(0.,0.,1.));
#1031 = PLANE('',#1032);
#1032 = AXIS2_PLACEMENT_3D('',#1033,#1034,#1035);
#1033 = CARTESIAN_POINT('',(65.7,-1.5,36.65));
#1034 = DIRECTION('',(1.,-0.,0.));
#1035 = DIRECTION('',(0.,0.,1.));
#1036 = ADVANCED_FACE('',(#1037),#1048,.F.);
#1037 = FACE_BOUND('',#1038,.F.);
#1038 = EDGE_LOOP('',(#1039,#1040,#1041,#1047));
#1039 = ORIENTED_EDGE('',*,*,#681,.T.);
#1040 = ORIENTED_EDGE('',*,*,#742,.T.);
#1041 = ORIENTED_EDGE('',*,*,#1042,.T.);
#1042 = EDGE_CURVE('',#735,#690,#1043,.T.);
#1043 = LINE('',#1044,#1045);
#1044 = CARTESIAN_POINT('',(8.6,5.,15.));
#1045 = VECTOR('',#1046,1.);
#1046 = DIRECTION('',(-1.,0.,0.));
#1047 = ORIENTED_EDGE('',*,*,#689,.T.);
#1048 = PLANE('',#1049);
#1049 = AXIS2_PLACEMENT_3D('',#1050,#1051,#1052);
#1050 = CARTESIAN_POINT('',(8.6,7.5,15.));
#1051 = DIRECTION('',(-0.,-4.4E-16,-1.));
#1052 = DIRECTION('',(-1.,0.,0.));
#1053 = ADVANCED_FACE('',(#1054),#1081,.T.);
#1054 = FACE_BOUND('',#1055,.F.);
#1055 = EDGE_LOOP('',(#1056,#1057,#1058,#1066,#1075));
#1056 = ORIENTED_EDGE('',*,*,#808,.F.);
#1057 = ORIENTED_EDGE('',*,*,#705,.T.);
#1058 = ORIENTED_EDGE('',*,*,#1059,.T.);
#1059 = EDGE_CURVE('',#698,#1060,#1062,.T.);
#1060 = VERTEX_POINT('',#1061);
#1061 = CARTESIAN_POINT('',(0.,5.,67.8));
#1062 = LINE('',#1063,#1064);
#1063 = CARTESIAN_POINT('',(0.,5.,15.));
#1064 = VECTOR('',#1065,1.);
#1065 = DIRECTION('',(0.,4.4E-16,1.));
#1066 = ORIENTED_EDGE('',*,*,#1067,.T.);
#1067 = EDGE_CURVE('',#1060,#1068,#1070,.T.);
#1068 = VERTEX_POINT('',#1069);
#1069 = CARTESIAN_POINT('',(5.,3.E-14,67.8));
#1070 = CIRCLE('',#1071,5.);
#1071 = AXIS2_PLACEMENT_3D('',#1072,#1073,#1074);
#1072 = CARTESIAN_POINT('',(0.,3.E-14,67.8));
#1073 = DIRECTION('',(0.,0.,1.));
#1074 = DIRECTION('',(1.,0.,0.));
#1075 = ORIENTED_EDGE('',*,*,#1076,.F.);
#1076 = EDGE_CURVE('',#783,#1068,#1077,.T.);
#1077 = LINE('',#1078,#1079);
#1078 = CARTESIAN_POINT('',(5.,0.,0.));
#1079 = VECTOR('',#1080,1.);
#1080 = DIRECTION('',(0.,4.4E-16,1.));
#1081 = CYLINDRICAL_SURFACE('',#1082,5.);
#1082 = AXIS2_PLACEMENT_3D('',#1083,#1084,#1085);
#1083 = CARTESIAN_POINT('',(0.,0.,0.));
#1084 = DIRECTION('',(0.,-4.4E-16,-1.));
#1085 = DIRECTION('',(1.,0.,0.));
#1086 = ADVANCED_FACE('',(#1087),#1106,.F.);
#1087 = FACE_BOUND('',#1088,.F.);
#1088 = EDGE_LOOP('',(#1089,#1097,#1103,#1104,#1105));
#1089 = ORIENTED_EDGE('',*,*,#1090,.T.);
#1090 = EDGE_CURVE('',#735,#1091,#1093,.T.);
#1091 = VERTEX_POINT('',#1092);
#1092 = CARTESIAN_POINT('',(8.6,5.,67.8));
#1093 = LINE('',#1094,#1095);
#1094 = CARTESIAN_POINT('',(8.6,5.,15.));
#1095 = VECTOR('',#1096,1.);
#1096 = DIRECTION('',(0.,4.4E-16,1.));
#1097 = ORIENTED_EDGE('',*,*,#1098,.T.);
#1098 = EDGE_CURVE('',#1091,#1060,#1099,.T.);
#1099 = LINE('',#1100,#1101);
#1100 = CARTESIAN_POINT('',(8.6,5.,67.8));
#1101 = VECTOR('',#1102,1.);
#1102 = DIRECTION('',(-1.,0.,0.));
#1103 = ORIENTED_EDGE('',*,*,#1059,.F.);
#1104 = ORIENTED_EDGE('',*,*,#697,.F.);
#1105 = ORIENTED_EDGE('',*,*,#1042,.F.);
#1106 = PLANE('',#1107);
#1107 = AXIS2_PLACEMENT_3D('',#1108,#1109,#1110);
#1108 = CARTESIAN_POINT('',(8.6,5.,15.));
#1109 = DIRECTION('',(0.,-1.,4.4E-16));
#1110 = DIRECTION('',(-1.,0.,0.));
#1111 = ADVANCED_FACE('',(#1112),#1130,.F.);
#1112 = FACE_BOUND('',#1113,.F.);
#1113 = EDGE_LOOP('',(#1114,#1115,#1123,#1129));
#1114 = ORIENTED_EDGE('',*,*,#734,.T.);
#1115 = ORIENTED_EDGE('',*,*,#1116,.T.);
#1116 = EDGE_CURVE('',#727,#1117,#1119,.T.);
#1117 = VERTEX_POINT('',#1118);
#1118 = CARTESIAN_POINT('',(8.6,1.6,67.8));
#1119 = LINE('',#1120,#1121);
#1120 = CARTESIAN_POINT('',(8.6,1.6,15.));
#1121 = VECTOR('',#1122,1.);
#1122 = DIRECTION('',(0.,4.4E-16,1.));
#1123 = ORIENTED_EDGE('',*,*,#1124,.T.);
#1124 = EDGE_CURVE('',#1117,#1091,#1125,.T.);
#1125 = LINE('',#1126,#1127);
#1126 = CARTESIAN_POINT('',(8.6,2.6E-14,67.8));
#1127 = VECTOR('',#1128,1.);
#1128 = DIRECTION('',(0.,1.,0.));
#1129 = ORIENTED_EDGE('',*,*,#1090,.F.);
#1130 = PLANE('',#1131);
#1131 = AXIS2_PLACEMENT_3D('',#1132,#1133,#1134);
#1132 = CARTESIAN_POINT('',(8.6,6.66E-15,15.));
#1133 = DIRECTION('',(-1.,0.,0.));
#1134 = DIRECTION('',(0.,1.,-4.4E-16));
#1135 = ADVANCED_FACE('',(#1136),#1154,.T.);
#1136 = FACE_BOUND('',#1137,.F.);
#1137 = EDGE_LOOP('',(#1138,#1139,#1147,#1153));
#1138 = ORIENTED_EDGE('',*,*,#766,.F.);
#1139 = ORIENTED_EDGE('',*,*,#1140,.T.);
#1140 = EDGE_CURVE('',#759,#1141,#1143,.T.);
#1141 = VERTEX_POINT('',#1142);
#1142 = CARTESIAN_POINT('',(7.,3.E-14,67.8));
#1143 = LINE('',#1144,#1145);
#1144 = CARTESIAN_POINT('',(7.,6.66E-15,15.));
#1145 = VECTOR('',#1146,1.);
#1146 = DIRECTION('',(0.,4.4E-16,1.));
#1147 = ORIENTED_EDGE('',*,*,#1148,.T.);
#1148 = EDGE_CURVE('',#1141,#1117,#1149,.T.);
#1149 = LINE('',#1150,#1151);
#1150 = CARTESIAN_POINT('',(7.35,0.35,67.8));
#1151 = VECTOR('',#1152,1.);
#1152 = DIRECTION('',(0.707106781187,0.707106781187,-4.1E-16));
#1153 = ORIENTED_EDGE('',*,*,#1116,.F.);
#1154 = PLANE('',#1155);
#1155 = AXIS2_PLACEMENT_3D('',#1156,#1157,#1158);
#1156 = CARTESIAN_POINT('',(7.8,0.8,15.));
#1157 = DIRECTION('',(0.707106781187,-0.707106781187,3.1E-16));
#1158 = DIRECTION('',(-7.968978321702E-19,-4.392031021678E-16,-1.));
#1159 = ADVANCED_FACE('',(#1160),#1171,.F.);
#1160 = FACE_BOUND('',#1161,.F.);
#1161 = EDGE_LOOP('',(#1162,#1163,#1164,#1170));
#1162 = ORIENTED_EDGE('',*,*,#790,.T.);
#1163 = ORIENTED_EDGE('',*,*,#1076,.T.);
#1164 = ORIENTED_EDGE('',*,*,#1165,.T.);
#1165 = EDGE_CURVE('',#1068,#1141,#1166,.T.);
#1166 = LINE('',#1167,#1168);
#1167 = CARTESIAN_POINT('',(0.,2.6E-14,67.8));
#1168 = VECTOR('',#1169,1.);
#1169 = DIRECTION('',(1.,0.,0.));
#1170 = ORIENTED_EDGE('',*,*,#1140,.F.);
#1171 = PLANE('',#1172);
#1172 = AXIS2_PLACEMENT_3D('',#1173,#1174,#1175);
#1173 = CARTESIAN_POINT('',(0.,6.66E-15,15.));
#1174 = DIRECTION('',(0.,1.,-4.4E-16));
#1175 = DIRECTION('',(1.,0.,0.));
#1176 = ADVANCED_FACE('',(#1177),#1180,.T.);
#1177 = FACE_BOUND('',#1178,.T.);
#1178 = EDGE_LOOP('',(#1179));
#1179 = ORIENTED_EDGE('',*,*,#831,.T.);
#1180 = PLANE('',#1181);
#1181 = AXIS2_PLACEMENT_3D('',#1182,#1183,#1184);
#1182 = CARTESIAN_POINT('',(-1.E-16,4.07E-15,10.));
#1183 = DIRECTION('',(0.,-2.2E-16,-1.));
#1184 = DIRECTION('',(0.,1.,-2.2E-16));
#1185 = ADVANCED_FACE('',(#1186),#1204,.T.);
#1186 = FACE_BOUND('',#1187,.T.);
#1187 = EDGE_LOOP('',(#1188,#1189,#1197,#1203));
#1188 = ORIENTED_EDGE('',*,*,#858,.F.);
#1189 = ORIENTED_EDGE('',*,*,#1190,.T.);
#1190 = EDGE_CURVE('',#849,#1191,#1193,.T.);
#1191 = VERTEX_POINT('',#1192);
#1192 = CARTESIAN_POINT('',(65.7,-8.5,46.65));
#1193 = LINE('',#1194,#1195);
#1194 = CARTESIAN_POINT('',(65.7,-1.5,46.65));
#1195 = VECTOR('',#1196,1.);
#1196 = DIRECTION('',(0.,-1.,4.4E-16));
#1197 = ORIENTED_EDGE('',*,*,#1198,.T.);
#1198 = EDGE_CURVE('',#1191,#874,#1199,.T.);
#1199 = LINE('',#1200,#1201);
#1200 = CARTESIAN_POINT('',(65.7,-8.5,46.65));
#1201 = VECTOR('',#1202,1.);
#1202 = DIRECTION('',(1.,0.,0.));
#1203 = ORIENTED_EDGE('',*,*,#873,.F.);
#1204 = PLANE('',#1205);
#1205 = AXIS2_PLACEMENT_3D('',#1206,#1207,#1208);
#1206 = CARTESIAN_POINT('',(65.7,-1.5,46.65));
#1207 = DIRECTION('',(0.,4.4E-16,1.));
#1208 = DIRECTION('',(1.,0.,0.));
#1209 = ADVANCED_FACE('',(#1210),#1228,.T.);
#1210 = FACE_BOUND('',#1211,.T.);
#1211 = EDGE_LOOP('',(#1212,#1213,#1214,#1222));
#1212 = ORIENTED_EDGE('',*,*,#913,.F.);
#1213 = ORIENTED_EDGE('',*,*,#889,.T.);
#1214 = ORIENTED_EDGE('',*,*,#1215,.T.);
#1215 = EDGE_CURVE('',#882,#1216,#1218,.T.);
#1216 = VERTEX_POINT('',#1217);
#1217 = CARTESIAN_POINT('',(65.7,-8.5,36.65));
#1218 = LINE('',#1219,#1220);
#1219 = CARTESIAN_POINT('',(70.7,-8.5,36.65));
#1220 = VECTOR('',#1221,1.);
#1221 = DIRECTION('',(-1.,0.,0.));
#1222 = ORIENTED_EDGE('',*,*,#1223,.F.);
#1223 = EDGE_CURVE('',#906,#1216,#1224,.T.);
#1224 = LINE('',#1225,#1226);
#1225 = CARTESIAN_POINT('',(65.7,-1.5,36.65));
#1226 = VECTOR('',#1227,1.);
#1227 = DIRECTION('',(0.,-1.,4.4E-16));
#1228 = PLANE('',#1229);
#1229 = AXIS2_PLACEMENT_3D('',#1230,#1231,#1232);
#1230 = CARTESIAN_POINT('',(70.7,-1.5,36.65));
#1231 = DIRECTION('',(0.,-4.4E-16,-1.));
#1232 = DIRECTION('',(-1.,0.,0.));
#1233 = ADVANCED_FACE('',(#1234),#1245,.F.);
#1234 = FACE_BOUND('',#1235,.F.);
#1235 = EDGE_LOOP('',(#1236,#1237,#1238,#1239));
#1236 = ORIENTED_EDGE('',*,*,#1198,.T.);
#1237 = ORIENTED_EDGE('',*,*,#881,.T.);
#1238 = ORIENTED_EDGE('',*,*,#1215,.T.);
#1239 = ORIENTED_EDGE('',*,*,#1240,.T.);
#1240 = EDGE_CURVE('',#1216,#1191,#1241,.T.);
#1241 = LINE('',#1242,#1243);
#1242 = CARTESIAN_POINT('',(65.7,-8.5,36.65));
#1243 = VECTOR('',#1244,1.);
#1244 = DIRECTION('',(0.,0.,1.));
#1245 = PLANE('',#1246);
#1246 = AXIS2_PLACEMENT_3D('',#1247,#1248,#1249);
#1247 = CARTESIAN_POINT('',(68.2,-8.5,33.9));
#1248 = DIRECTION('',(0.,1.,-2.3E-16));
#1249 = DIRECTION('',(0.,-2.3E-16,-1.));
#1250 = ADVANCED_FACE('',(#1251),#1269,.T.);
#1251 = FACE_BOUND('',#1252,.T.);
#1252 = EDGE_LOOP('',(#1253,#1254,#1262,#1268));
#1253 = ORIENTED_EDGE('',*,*,#937,.F.);
#1254 = ORIENTED_EDGE('',*,*,#1255,.T.);
#1255 = EDGE_CURVE('',#928,#1256,#1258,.T.);
#1256 = VERTEX_POINT('',#1257);
#1257 = CARTESIAN_POINT('',(65.7,-8.5,31.15));
#1258 = LINE('',#1259,#1260);
#1259 = CARTESIAN_POINT('',(65.7,-1.5,31.15));
#1260 = VECTOR('',#1261,1.);
#1261 = DIRECTION('',(0.,-1.,4.4E-16));
#1262 = ORIENTED_EDGE('',*,*,#1263,.T.);
#1263 = EDGE_CURVE('',#1256,#953,#1264,.T.);
#1264 = LINE('',#1265,#1266);
#1265 = CARTESIAN_POINT('',(65.7,-8.5,31.15));
#1266 = VECTOR('',#1267,1.);
#1267 = DIRECTION('',(1.,0.,0.));
#1268 = ORIENTED_EDGE('',*,*,#952,.F.);
#1269 = PLANE('',#1270);
#1270 = AXIS2_PLACEMENT_3D('',#1271,#1272,#1273);
#1271 = CARTESIAN_POINT('',(65.7,-1.5,31.15));
#1272 = DIRECTION('',(0.,4.4E-16,1.));
#1273 = DIRECTION('',(1.,0.,0.));
#1274 = ADVANCED_FACE('',(#1275),#1293,.T.);
#1275 = FACE_BOUND('',#1276,.T.);
#1276 = EDGE_LOOP('',(#1277,#1278,#1279,#1287));
#1277 = ORIENTED_EDGE('',*,*,#992,.F.);
#1278 = ORIENTED_EDGE('',*,*,#968,.T.);
#1279 = ORIENTED_EDGE('',*,*,#1280,.T.);
#1280 = EDGE_CURVE('',#961,#1281,#1283,.T.);
#1281 = VERTEX_POINT('',#1282);
#1282 = CARTESIAN_POINT('',(65.7,-8.5,21.15));
#1283 = LINE('',#1284,#1285);
#1284 = CARTESIAN_POINT('',(70.7,-8.5,21.15));
#1285 = VECTOR('',#1286,1.);
#1286 = DIRECTION('',(-1.,0.,0.));
#1287 = ORIENTED_EDGE('',*,*,#1288,.F.);
#1288 = EDGE_CURVE('',#985,#1281,#1289,.T.);
#1289 = LINE('',#1290,#1291);
#1290 = CARTESIAN_POINT('',(65.7,-1.5,21.15));
#1291 = VECTOR('',#1292,1.);
#1292 = DIRECTION('',(0.,-1.,4.4E-16));
#1293 = PLANE('',#1294);
#1294 = AXIS2_PLACEMENT_3D('',#1295,#1296,#1297);
#1295 = CARTESIAN_POINT('',(70.7,-1.5,21.15));
#1296 = DIRECTION('',(0.,-4.4E-16,-1.));
#1297 = DIRECTION('',(-1.,0.,0.));
#1298 = ADVANCED_FACE('',(#1299),#1310,.F.);
#1299 = FACE_BOUND('',#1300,.F.);
#1300 = EDGE_LOOP('',(#1301,#1302,#1303,#1304));
#1301 = ORIENTED_EDGE('',*,*,#1263,.T.);
#1302 = ORIENTED_EDGE('',*,*,#960,.T.);
#1303 = ORIENTED_EDGE('',*,*,#1280,.T.);
#1304 = ORIENTED_EDGE('',*,*,#1305,.T.);
#1305 = EDGE_CURVE('',#1281,#1256,#1306,.T.);
#1306 = LINE('',#1307,#1308);
#1307 = CARTESIAN_POINT('',(65.7,-8.5,21.15));
#1308 = VECTOR('',#1309,1.);
#1309 = DIRECTION('',(0.,0.,1.));
#1310 = PLANE('',#1311);
#1311 = AXIS2_PLACEMENT_3D('',#1312,#1313,#1314);
#1312 = CARTESIAN_POINT('',(68.2,-8.5,33.9));
#1313 = DIRECTION('',(0.,1.,-2.3E-16));
#1314 = DIRECTION('',(0.,-2.3E-16,-1.));
#1315 = ADVANCED_FACE('',(#1316),#1322,.T.);
#1316 = FACE_BOUND('',#1317,.T.);
#1317 = EDGE_LOOP('',(#1318,#1319,#1320,#1321));
#1318 = ORIENTED_EDGE('',*,*,#1009,.F.);
#1319 = ORIENTED_EDGE('',*,*,#1288,.T.);
#1320 = ORIENTED_EDGE('',*,*,#1305,.T.);
#1321 = ORIENTED_EDGE('',*,*,#1255,.F.);
#1322 = PLANE('',#1323);
#1323 = AXIS2_PLACEMENT_3D('',#1324,#1325,#1326);
#1324 = CARTESIAN_POINT('',(65.7,-1.5,21.15));
#1325 = DIRECTION('',(-1.,0.,0.));
#1326 = DIRECTION('',(0.,4.4E-16,1.));
#1327 = ADVANCED_FACE('',(#1328),#1334,.T.);
#1328 = FACE_BOUND('',#1329,.T.);
#1329 = EDGE_LOOP('',(#1330,#1331,#1332,#1333));
#1330 = ORIENTED_EDGE('',*,*,#1026,.F.);
#1331 = ORIENTED_EDGE('',*,*,#1223,.T.);
#1332 = ORIENTED_EDGE('',*,*,#1240,.T.);
#1333 = ORIENTED_EDGE('',*,*,#1190,.F.);
#1334 = PLANE('',#1335);
#1335 = AXIS2_PLACEMENT_3D('',#1336,#1337,#1338);
#1336 = CARTESIAN_POINT('',(65.7,-1.5,36.65));
#1337 = DIRECTION('',(-1.,0.,0.));
#1338 = DIRECTION('',(0.,4.4E-16,1.));
#1339 = ADVANCED_FACE('',(#1340),#1366,.F.);
#1340 = FACE_BOUND('',#1341,.F.);
#1341 = EDGE_LOOP('',(#1342,#1353,#1359,#1360));
#1342 = ORIENTED_EDGE('',*,*,#1343,.T.);
#1343 = EDGE_CURVE('',#1344,#1346,#1348,.T.);
#1344 = VERTEX_POINT('',#1345);
#1345 = CARTESIAN_POINT('',(1.E-14,1.675,67.8));
#1346 = VERTEX_POINT('',#1347);
#1347 = CARTESIAN_POINT('',(1.675,1.5E-14,67.8));
#1348 = CIRCLE('',#1349,1.675);
#1349 = AXIS2_PLACEMENT_3D('',#1350,#1351,#1352);
#1350 = CARTESIAN_POINT('',(0.,1.5E-14,67.8));
#1351 = DIRECTION('',(0.,0.,1.));
#1352 = DIRECTION('',(1.,0.,0.));
#1353 = ORIENTED_EDGE('',*,*,#1354,.T.);
#1354 = EDGE_CURVE('',#1346,#1068,#1355,.T.);
#1355 = LINE('',#1356,#1357);
#1356 = CARTESIAN_POINT('',(0.,2.6E-14,67.8));
#1357 = VECTOR('',#1358,1.);
#1358 = DIRECTION('',(1.,0.,0.));
#1359 = ORIENTED_EDGE('',*,*,#1067,.F.);
#1360 = ORIENTED_EDGE('',*,*,#1361,.T.);
#1361 = EDGE_CURVE('',#1060,#1344,#1362,.T.);
#1362 = LINE('',#1363,#1364);
#1363 = CARTESIAN_POINT('',(0.,5.,67.8));
#1364 = VECTOR('',#1365,1.);
#1365 = DIRECTION('',(0.,-1.,0.));
#1366 = PLANE('',#1367);
#1367 = AXIS2_PLACEMENT_3D('',#1368,#1369,#1370);
#1368 = CARTESIAN_POINT('',(-2.7E-16,3.034E-14,67.8));
#1369 = DIRECTION('',(0.,-2.2E-16,-1.));
#1370 = DIRECTION('',(0.,1.,-2.2E-16));
#1371 = ADVANCED_FACE('',(#1372),#1385,.F.);
#1372 = FACE_BOUND('',#1373,.F.);
#1373 = EDGE_LOOP('',(#1374,#1375,#1382,#1383,#1384));
#1374 = ORIENTED_EDGE('',*,*,#1165,.F.);
#1375 = ORIENTED_EDGE('',*,*,#1376,.T.);
#1376 = EDGE_CURVE('',#1068,#1060,#1377,.T.);
#1377 = CIRCLE('',#1378,5.);
#1378 = AXIS2_PLACEMENT_3D('',#1379,#1380,#1381);
#1379 = CARTESIAN_POINT('',(0.,3.E-14,67.8));
#1380 = DIRECTION('',(0.,0.,1.));
#1381 = DIRECTION('',(1.,0.,0.));
#1382 = ORIENTED_EDGE('',*,*,#1098,.F.);
#1383 = ORIENTED_EDGE('',*,*,#1124,.F.);
#1384 = ORIENTED_EDGE('',*,*,#1148,.F.);
#1385 = PLANE('',#1386);
#1386 = AXIS2_PLACEMENT_3D('',#1387,#1388,#1389);
#1387 = CARTESIAN_POINT('',(4.3,2.5,67.8));
#1388 = DIRECTION('',(0.,-3.6E-16,-1.));
#1389 = DIRECTION('',(0.,1.,-3.6E-16));
#1390 = ADVANCED_FACE('',(#1391),#1417,.F.);
#1391 = FACE_BOUND('',#1392,.F.);
#1392 = EDGE_LOOP('',(#1393,#1400,#1408,#1415,#1416));
#1393 = ORIENTED_EDGE('',*,*,#1394,.F.);
#1394 = EDGE_CURVE('',#1346,#1344,#1395,.T.);
#1395 = CIRCLE('',#1396,1.675);
#1396 = AXIS2_PLACEMENT_3D('',#1397,#1398,#1399);
#1397 = CARTESIAN_POINT('',(0.,1.5E-14,67.8));
#1398 = DIRECTION('',(0.,0.,1.));
#1399 = DIRECTION('',(1.,0.,0.));
#1400 = ORIENTED_EDGE('',*,*,#1401,.T.);
#1401 = EDGE_CURVE('',#1346,#1402,#1404,.T.);
#1402 = VERTEX_POINT('',#1403);
#1403 = CARTESIAN_POINT('',(1.675,1.1E-14,57.8));
#1404 = LINE('',#1405,#1406);
#1405 = CARTESIAN_POINT('',(1.675,3.011E-14,67.8));
#1406 = VECTOR('',#1407,1.);
#1407 = DIRECTION('',(-0.,-4.4E-16,-1.));
#1408 = ORIENTED_EDGE('',*,*,#1409,.T.);
#1409 = EDGE_CURVE('',#1402,#1402,#1410,.T.);
#1410 = CIRCLE('',#1411,1.675);
#1411 = AXIS2_PLACEMENT_3D('',#1412,#1413,#1414);
#1412 = CARTESIAN_POINT('',(0.,1.1E-14,57.8));
#1413 = DIRECTION('',(0.,0.,1.));
#1414 = DIRECTION('',(1.,0.,0.));
#1415 = ORIENTED_EDGE('',*,*,#1401,.F.);
#1416 = ORIENTED_EDGE('',*,*,#1343,.F.);
#1417 = CYLINDRICAL_SURFACE('',#1418,1.675);
#1418 = AXIS2_PLACEMENT_3D('',#1419,#1420,#1421);
#1419 = CARTESIAN_POINT('',(0.,3.011E-14,67.8));
#1420 = DIRECTION('',(0.,4.4E-16,1.));
#1421 = DIRECTION('',(1.,0.,0.));
#1422 = ADVANCED_FACE('',(#1423),#1429,.F.);
#1423 = FACE_BOUND('',#1424,.F.);
#1424 = EDGE_LOOP('',(#1425,#1426,#1427,#1428));
#1425 = ORIENTED_EDGE('',*,*,#1376,.F.);
#1426 = ORIENTED_EDGE('',*,*,#1354,.F.);
#1427 = ORIENTED_EDGE('',*,*,#1394,.T.);
#1428 = ORIENTED_EDGE('',*,*,#1361,.F.);
#1429 = PLANE('',#1430);
#1430 = AXIS2_PLACEMENT_3D('',#1431,#1432,#1433);
#1431 = CARTESIAN_POINT('',(-2.7E-16,3.034E-14,67.8));
#1432 = DIRECTION('',(0.,-2.2E-16,-1.));
#1433 = DIRECTION('',(0.,1.,-2.2E-16));
#1434 = ADVANCED_FACE('',(#1435),#1438,.F.);
#1435 = FACE_BOUND('',#1436,.T.);
#1436 = EDGE_LOOP('',(#1437));
#1437 = ORIENTED_EDGE('',*,*,#1409,.T.);
#1438 = PLANE('',#1439);
#1439 = AXIS2_PLACEMENT_3D('',#1440,#1441,#1442);
#1440 = CARTESIAN_POINT('',(-1.E-16,1.12E-14,57.8));
#1441 = DIRECTION('',(0.,0.,-1.));
#1442 = DIRECTION('',(0.,1.,0.));
#1443 = ( GEOMETRIC_REPRESENTATION_CONTEXT(3) 
GLOBAL_UNCERTAINTY_ASSIGNED_CONTEXT((#1447)) 
GLOBAL_UNIT_ASSIGNED_CONTEXT((#1444,#1445,#1446)) REPRESENTATION_CONTEXT
('Context #1','3D Context with UNIT and UNCERTAINTY') );
#1444 = ( LENGTH_UNIT() NAMED_UNIT(*) SI_UNIT(.MILLI.,.METRE.) );
#1445 = ( NAMED_UNIT(*) PLANE_ANGLE_UNIT() SI_UNIT($,.RADIAN.) );
#1446 = ( NAMED_UNIT(*) SI_UNIT($,.STERADIAN.) SOLID_ANGLE_UNIT() );
#1447 = UNCERTAINTY_MEASURE_WITH_UNIT(LENGTH_MEASURE(1.E-07),#1444,
  'distance_accuracy_value','confusion accuracy');
#1448 = PRODUCT_RELATED_PRODUCT_CATEGORY('part',$,(#7));
#1449 = MECHANICAL_DESIGN_GEOMETRIC_PRESENTATION_REPRESENTATION('',(
    #1450),#1443);
#1450 = STYLED_ITEM('color',(#1451),#15);
#1451 = PRESENTATION_STYLE_ASSIGNMENT((#1452,#1458));
#1452 = SURFACE_STYLE_USAGE(.BOTH.,#1453);
#1453 = SURFACE_SIDE_STYLE('',(#1454));
#1454 = SURFACE_STYLE_FILL_AREA(#1455);
#1455 = FILL_AREA_STYLE('',(#1456));
#1456 = FILL_AREA_STYLE_COLOUR('',#1457);
#1457 = COLOUR_RGB('',0.800000010877,0.800000010877,0.800000010877);
#1458 = CURVE_STYLE('',#1459,POSITIVE_LENGTH_MEASURE(0.1),#1460);
#1459 = DRAUGHTING_PRE_DEFINED_CURVE_FONT('continuous');
#1460 = COLOUR_RGB('',9.803921802644E-02,9.803921802644E-02,
  9.803921802644E-02);
ENDSEC;
END-ISO-10303-21;
