ISO-10303-21;
HEADER;
FILE_DESCRIPTION(('FreeCAD Model'),'2;1');
FILE_NAME('Open CASCADE Shape Model','2025-12-16T11:01:36',('Author'),(
    ''),'Open CASCADE STEP processor 7.6','FreeCAD','Unknown');
FILE_SCHEMA(('AUTOMOTIVE_DESIGN { 1 0 10303 214 1 1 1 1 }'));
ENDSEC;
DATA;
#1 = APPLICATION_PROTOCOL_DEFINITION('international standard',
  'automotive_design',2000,#2);
#2 = APPLICATION_CONTEXT(
  'core data for automotive mechanical design processes');
#3 = SHAPE_DEFINITION_REPRESENTATION(#4,#10);
#4 = PRODUCT_DEFINITION_SHAPE('','',#5);
#5 = PRODUCT_DEFINITION('design','',#6,#9);
#6 = PRODUCT_DEFINITION_FORMATION('','',#7);
#7 = PRODUCT('Pad001','Pad001','',(#8));
#8 = PRODUCT_CONTEXT('',#2,'mechanical');
#9 = PRODUCT_DEFINITION_CONTEXT('part definition',#2,'design');
#10 = ADVANCED_BREP_SHAPE_REPRESENTATION('',(#11,#15),#948);
#11 = AXIS2_PLACEMENT_3D('',#12,#13,#14);
#12 = CARTESIAN_POINT('',(0.,0.,0.));
#13 = DIRECTION('',(0.,0.,1.));
#14 = DIRECTION('',(1.,0.,-0.));
#15 = MANIFOLD_SOLID_BREP('',#16);
#16 = CLOSED_SHELL('',(#17,#59,#90,#121,#216,#386,#411,#428,#453,#471,
    #493,#525,#547,#579,#601,#621,#633,#645,#662,#679,#696,#713,#725,
    #737,#768,#792,#816,#840,#864,#881,#906,#931));
#17 = ADVANCED_FACE('',(#18),#54,.T.);
#18 = FACE_BOUND('',#19,.F.);
#19 = EDGE_LOOP('',(#20,#30,#39,#47));
#20 = ORIENTED_EDGE('',*,*,#21,.T.);
#21 = EDGE_CURVE('',#22,#24,#26,.T.);
#22 = VERTEX_POINT('',#23);
#23 = CARTESIAN_POINT('',(2.999636365957,-5.196362349955,0.));
#24 = VERTEX_POINT('',#25);
#25 = CARTESIAN_POINT('',(2.999636365957,-5.196362349955,6.));
#26 = LINE('',#27,#28);
#27 = CARTESIAN_POINT('',(2.999636365957,-5.196362349955,2.31E-15));
#28 = VECTOR('',#29,1.);
#29 = DIRECTION('',(0.,4.4E-16,1.));
#30 = ORIENTED_EDGE('',*,*,#31,.T.);
#31 = EDGE_CURVE('',#24,#32,#34,.T.);
#32 = VERTEX_POINT('',#33);
#33 = CARTESIAN_POINT('',(5.131946310894,-3.108557070748,6.));
#34 = CIRCLE('',#35,6.);
#35 = AXIS2_PLACEMENT_3D('',#36,#37,#38);
#36 = CARTESIAN_POINT('',(0.,3.E-15,6.));
#37 = DIRECTION('',(0.,0.,1.));
#38 = DIRECTION('',(1.,0.,0.));
#39 = ORIENTED_EDGE('',*,*,#40,.F.);
#40 = EDGE_CURVE('',#41,#32,#43,.T.);
#41 = VERTEX_POINT('',#42);
#42 = CARTESIAN_POINT('',(5.131946310894,-3.108557070748,0.));
#43 = LINE('',#44,#45);
#44 = CARTESIAN_POINT('',(5.131946310894,-3.108557070748,1.38E-15));
#45 = VECTOR('',#46,1.);
#46 = DIRECTION('',(0.,4.4E-16,1.));
#47 = ORIENTED_EDGE('',*,*,#48,.F.);
#48 = EDGE_CURVE('',#22,#41,#49,.T.);
#49 = CIRCLE('',#50,6.);
#50 = AXIS2_PLACEMENT_3D('',#51,#52,#53);
#51 = CARTESIAN_POINT('',(0.,0.,0.));
#52 = DIRECTION('',(0.,0.,1.));
#53 = DIRECTION('',(1.,0.,0.));
#54 = CYLINDRICAL_SURFACE('',#55,6.);
#55 = AXIS2_PLACEMENT_3D('',#56,#57,#58);
#56 = CARTESIAN_POINT('',(0.,0.,0.));
#57 = DIRECTION('',(0.,-4.4E-16,-1.));
#58 = DIRECTION('',(1.,0.,0.));
#59 = ADVANCED_FACE('',(#60),#85,.F.);
#60 = FACE_BOUND('',#61,.F.);
#61 = EDGE_LOOP('',(#62,#72,#78,#79));
#62 = ORIENTED_EDGE('',*,*,#63,.T.);
#63 = EDGE_CURVE('',#64,#66,#68,.T.);
#64 = VERTEX_POINT('',#65);
#65 = CARTESIAN_POINT('',(3.000000130946,-5.496362349955,0.));
#66 = VERTEX_POINT('',#67);
#67 = CARTESIAN_POINT('',(3.000000130946,-5.496362349955,6.));
#68 = LINE('',#69,#70);
#69 = CARTESIAN_POINT('',(3.000000130946,-5.496362349955,2.44E-15));
#70 = VECTOR('',#71,1.);
#71 = DIRECTION('',(0.,4.4E-16,1.));
#72 = ORIENTED_EDGE('',*,*,#73,.T.);
#73 = EDGE_CURVE('',#66,#24,#74,.T.);
#74 = LINE('',#75,#76);
#75 = CARTESIAN_POINT('',(3.000000130946,-5.496362349955,6.));
#76 = VECTOR('',#77,1.);
#77 = DIRECTION('',(-1.212549070816E-03,0.999999264862,0.));
#78 = ORIENTED_EDGE('',*,*,#21,.F.);
#79 = ORIENTED_EDGE('',*,*,#80,.F.);
#80 = EDGE_CURVE('',#64,#22,#81,.T.);
#81 = LINE('',#82,#83);
#82 = CARTESIAN_POINT('',(3.000000130946,-5.496362349955,0.));
#83 = VECTOR('',#84,1.);
#84 = DIRECTION('',(-1.212549070816E-03,0.999999264862,0.));
#85 = PLANE('',#86);
#86 = AXIS2_PLACEMENT_3D('',#87,#88,#89);
#87 = CARTESIAN_POINT('',(3.000000130946,-5.496362349955,2.44E-15));
#88 = DIRECTION('',(-0.999999264862,-1.212549070816E-03,0.));
#89 = DIRECTION('',(-1.212549070816E-03,0.999999264862,-4.4E-16));
#90 = ADVANCED_FACE('',(#91),#116,.F.);
#91 = FACE_BOUND('',#92,.F.);
#92 = EDGE_LOOP('',(#93,#94,#102,#110));
#93 = ORIENTED_EDGE('',*,*,#40,.T.);
#94 = ORIENTED_EDGE('',*,*,#95,.T.);
#95 = EDGE_CURVE('',#32,#96,#98,.T.);
#96 = VERTEX_POINT('',#97);
#97 = CARTESIAN_POINT('',(5.431946310894,-2.999615291604,6.));
#98 = LINE('',#99,#100);
#99 = CARTESIAN_POINT('',(5.131946310894,-3.108557070748,6.));
#100 = VECTOR('',#101,1.);
#101 = DIRECTION('',(0.939943397194,0.341330353282,0.));
#102 = ORIENTED_EDGE('',*,*,#103,.F.);
#103 = EDGE_CURVE('',#104,#96,#106,.T.);
#104 = VERTEX_POINT('',#105);
#105 = CARTESIAN_POINT('',(5.431946310894,-2.999615291604,0.));
#106 = LINE('',#107,#108);
#107 = CARTESIAN_POINT('',(5.431946310894,-2.999615291604,1.33E-15));
#108 = VECTOR('',#109,1.);
#109 = DIRECTION('',(0.,4.4E-16,1.));
#110 = ORIENTED_EDGE('',*,*,#111,.F.);
#111 = EDGE_CURVE('',#41,#104,#112,.T.);
#112 = LINE('',#113,#114);
#113 = CARTESIAN_POINT('',(5.131946310894,-3.108557070748,0.));
#114 = VECTOR('',#115,1.);
#115 = DIRECTION('',(0.939943397194,0.341330353282,0.));
#116 = PLANE('',#117);
#117 = AXIS2_PLACEMENT_3D('',#118,#119,#120);
#118 = CARTESIAN_POINT('',(5.131946310894,-3.108557070748,1.38E-15));
#119 = DIRECTION('',(-0.341330353282,0.939943397194,-4.2E-16));
#120 = DIRECTION('',(0.939943397194,0.341330353282,-1.5E-16));
#121 = ADVANCED_FACE('',(#122),#211,.T.);
#122 = FACE_BOUND('',#123,.F.);
#123 = EDGE_LOOP('',(#124,#133,#141,#148,#149,#158,#167,#176,#185,#194,
    #203,#210));
#124 = ORIENTED_EDGE('',*,*,#125,.F.);
#125 = EDGE_CURVE('',#126,#41,#128,.T.);
#126 = VERTEX_POINT('',#127);
#127 = CARTESIAN_POINT('',(6.,0.,0.));
#128 = CIRCLE('',#129,6.);
#129 = AXIS2_PLACEMENT_3D('',#130,#131,#132);
#130 = CARTESIAN_POINT('',(0.,0.,0.));
#131 = DIRECTION('',(0.,0.,-1.));
#132 = DIRECTION('',(1.,0.,0.));
#133 = ORIENTED_EDGE('',*,*,#134,.T.);
#134 = EDGE_CURVE('',#126,#135,#137,.T.);
#135 = VERTEX_POINT('',#136);
#136 = CARTESIAN_POINT('',(6.,0.,-0.5));
#137 = LINE('',#138,#139);
#138 = CARTESIAN_POINT('',(6.,-0.,-0.));
#139 = VECTOR('',#140,1.);
#140 = DIRECTION('',(-0.,-4.4E-16,-1.));
#141 = ORIENTED_EDGE('',*,*,#142,.T.);
#142 = EDGE_CURVE('',#135,#135,#143,.T.);
#143 = CIRCLE('',#144,6.);
#144 = AXIS2_PLACEMENT_3D('',#145,#146,#147);
#145 = CARTESIAN_POINT('',(0.,0.,-0.5));
#146 = DIRECTION('',(0.,0.,-1.));
#147 = DIRECTION('',(1.,0.,0.));
#148 = ORIENTED_EDGE('',*,*,#134,.F.);
#149 = ORIENTED_EDGE('',*,*,#150,.F.);
#150 = EDGE_CURVE('',#151,#126,#153,.T.);
#151 = VERTEX_POINT('',#152);
#152 = CARTESIAN_POINT('',(5.196152422707,3.,0.));
#153 = CIRCLE('',#154,6.);
#154 = AXIS2_PLACEMENT_3D('',#155,#156,#157);
#155 = CARTESIAN_POINT('',(0.,0.,0.));
#156 = DIRECTION('',(0.,0.,-1.));
#157 = DIRECTION('',(1.,0.,0.));
#158 = ORIENTED_EDGE('',*,*,#159,.T.);
#159 = EDGE_CURVE('',#151,#160,#162,.T.);
#160 = VERTEX_POINT('',#161);
#161 = CARTESIAN_POINT('',(3.,5.196152422707,0.));
#162 = CIRCLE('',#163,6.);
#163 = AXIS2_PLACEMENT_3D('',#164,#165,#166);
#164 = CARTESIAN_POINT('',(0.,0.,0.));
#165 = DIRECTION('',(0.,0.,1.));
#166 = DIRECTION('',(1.,0.,0.));
#167 = ORIENTED_EDGE('',*,*,#168,.F.);
#168 = EDGE_CURVE('',#169,#160,#171,.T.);
#169 = VERTEX_POINT('',#170);
#170 = CARTESIAN_POINT('',(-2.999636365957,5.196362349955,0.));
#171 = CIRCLE('',#172,6.);
#172 = AXIS2_PLACEMENT_3D('',#173,#174,#175);
#173 = CARTESIAN_POINT('',(0.,0.,0.));
#174 = DIRECTION('',(0.,0.,-1.));
#175 = DIRECTION('',(1.,0.,0.));
#176 = ORIENTED_EDGE('',*,*,#177,.T.);
#177 = EDGE_CURVE('',#169,#178,#180,.T.);
#178 = VERTEX_POINT('',#179);
#179 = CARTESIAN_POINT('',(-5.196152422707,3.,0.));
#180 = CIRCLE('',#181,6.);
#181 = AXIS2_PLACEMENT_3D('',#182,#183,#184);
#182 = CARTESIAN_POINT('',(0.,0.,0.));
#183 = DIRECTION('',(0.,0.,1.));
#184 = DIRECTION('',(1.,0.,0.));
#185 = ORIENTED_EDGE('',*,*,#186,.F.);
#186 = EDGE_CURVE('',#187,#178,#189,.T.);
#187 = VERTEX_POINT('',#188);
#188 = CARTESIAN_POINT('',(-5.196152422707,-3.,0.));
#189 = CIRCLE('',#190,6.);
#190 = AXIS2_PLACEMENT_3D('',#191,#192,#193);
#191 = CARTESIAN_POINT('',(0.,0.,0.));
#192 = DIRECTION('',(0.,0.,-1.));
#193 = DIRECTION('',(1.,0.,0.));
#194 = ORIENTED_EDGE('',*,*,#195,.T.);
#195 = EDGE_CURVE('',#187,#196,#198,.T.);
#196 = VERTEX_POINT('',#197);
#197 = CARTESIAN_POINT('',(-3.,-5.196152422707,0.));
#198 = CIRCLE('',#199,6.);
#199 = AXIS2_PLACEMENT_3D('',#200,#201,#202);
#200 = CARTESIAN_POINT('',(0.,0.,0.));
#201 = DIRECTION('',(0.,0.,1.));
#202 = DIRECTION('',(1.,0.,0.));
#203 = ORIENTED_EDGE('',*,*,#204,.F.);
#204 = EDGE_CURVE('',#22,#196,#205,.T.);
#205 = CIRCLE('',#206,6.);
#206 = AXIS2_PLACEMENT_3D('',#207,#208,#209);
#207 = CARTESIAN_POINT('',(0.,0.,0.));
#208 = DIRECTION('',(0.,0.,-1.));
#209 = DIRECTION('',(1.,0.,0.));
#210 = ORIENTED_EDGE('',*,*,#48,.T.);
#211 = CYLINDRICAL_SURFACE('',#212,6.);
#212 = AXIS2_PLACEMENT_3D('',#213,#214,#215);
#213 = CARTESIAN_POINT('',(-0.,-0.,-0.));
#214 = DIRECTION('',(0.,4.4E-16,1.));
#215 = DIRECTION('',(1.,0.,-0.));
#216 = ADVANCED_FACE('',(#217,#331),#381,.F.);
#217 = FACE_BOUND('',#218,.F.);
#218 = EDGE_LOOP('',(#219,#220,#221,#230,#238,#247,#255,#264,#272,#281,
    #289,#298,#306,#315,#323,#330));
#219 = ORIENTED_EDGE('',*,*,#31,.F.);
#220 = ORIENTED_EDGE('',*,*,#73,.F.);
#221 = ORIENTED_EDGE('',*,*,#222,.F.);
#222 = EDGE_CURVE('',#223,#66,#225,.T.);
#223 = VERTEX_POINT('',#224);
#224 = CARTESIAN_POINT('',(-2.999999869054,-5.496152422707,6.));
#225 = CIRCLE('',#226,3.000002336361);
#226 = AXIS2_PLACEMENT_3D('',#227,#228,#229);
#227 = CARTESIAN_POINT('',(0.,-5.5,6.));
#228 = DIRECTION('',(0.,0.,1.));
#229 = DIRECTION('',(1.,0.,0.));
#230 = ORIENTED_EDGE('',*,*,#231,.F.);
#231 = EDGE_CURVE('',#232,#223,#234,.T.);
#232 = VERTEX_POINT('',#233);
#233 = CARTESIAN_POINT('',(-3.,-5.196152422707,6.));
#234 = LINE('',#235,#236);
#235 = CARTESIAN_POINT('',(-3.,-5.196152422707,6.));
#236 = VECTOR('',#237,1.);
#237 = DIRECTION('',(4.3648698581E-07,-1.,0.));
#238 = ORIENTED_EDGE('',*,*,#239,.F.);
#239 = EDGE_CURVE('',#240,#232,#242,.T.);
#240 = VERTEX_POINT('',#241);
#241 = CARTESIAN_POINT('',(-5.196152422707,-3.,6.));
#242 = CIRCLE('',#243,6.);
#243 = AXIS2_PLACEMENT_3D('',#244,#245,#246);
#244 = CARTESIAN_POINT('',(0.,3.E-15,6.));
#245 = DIRECTION('',(0.,0.,1.));
#246 = DIRECTION('',(1.,0.,0.));
#247 = ORIENTED_EDGE('',*,*,#248,.F.);
#248 = EDGE_CURVE('',#249,#240,#251,.T.);
#249 = VERTEX_POINT('',#250);
#250 = CARTESIAN_POINT('',(-5.496152422707,-3.000384708396,6.));
#251 = LINE('',#252,#253);
#252 = CARTESIAN_POINT('',(-5.496152422707,-3.000384708396,6.));
#253 = VECTOR('',#254,1.);
#254 = DIRECTION('',(0.999999177776,1.282360265012E-03,0.));
#255 = ORIENTED_EDGE('',*,*,#256,.F.);
#256 = EDGE_CURVE('',#257,#249,#259,.T.);
#257 = VERTEX_POINT('',#258);
#258 = CARTESIAN_POINT('',(-5.496152422707,3.000384708396,6.));
#259 = CIRCLE('',#260,3.000387175387);
#260 = AXIS2_PLACEMENT_3D('',#261,#262,#263);
#261 = CARTESIAN_POINT('',(-5.5,3.E-15,6.));
#262 = DIRECTION('',(0.,0.,1.));
#263 = DIRECTION('',(1.,0.,0.));
#264 = ORIENTED_EDGE('',*,*,#265,.F.);
#265 = EDGE_CURVE('',#266,#257,#268,.T.);
#266 = VERTEX_POINT('',#267);
#267 = CARTESIAN_POINT('',(-5.196152422707,3.,6.));
#268 = LINE('',#269,#270);
#269 = CARTESIAN_POINT('',(-5.196152422707,3.,6.));
#270 = VECTOR('',#271,1.);
#271 = DIRECTION('',(-0.999999177776,1.282360265013E-03,0.));
#272 = ORIENTED_EDGE('',*,*,#273,.F.);
#273 = EDGE_CURVE('',#274,#266,#276,.T.);
#274 = VERTEX_POINT('',#275);
#275 = CARTESIAN_POINT('',(-2.999636365957,5.196362349955,6.));
#276 = CIRCLE('',#277,6.);
#277 = AXIS2_PLACEMENT_3D('',#278,#279,#280);
#278 = CARTESIAN_POINT('',(0.,3.E-15,6.));
#279 = DIRECTION('',(0.,0.,1.));
#280 = DIRECTION('',(1.,0.,0.));
#281 = ORIENTED_EDGE('',*,*,#282,.F.);
#282 = EDGE_CURVE('',#283,#274,#285,.T.);
#283 = VERTEX_POINT('',#284);
#284 = CARTESIAN_POINT('',(-3.000000130946,5.496362349955,6.));
#285 = LINE('',#286,#287);
#286 = CARTESIAN_POINT('',(-3.000000130946,5.496362349955,6.));
#287 = VECTOR('',#288,1.);
#288 = DIRECTION('',(1.212549070816E-03,-0.999999264862,0.));
#289 = ORIENTED_EDGE('',*,*,#290,.F.);
#290 = EDGE_CURVE('',#291,#283,#293,.T.);
#291 = VERTEX_POINT('',#292);
#292 = CARTESIAN_POINT('',(2.999999869054,5.496152422707,6.));
#293 = CIRCLE('',#294,3.000002336361);
#294 = AXIS2_PLACEMENT_3D('',#295,#296,#297);
#295 = CARTESIAN_POINT('',(0.,5.5,6.));
#296 = DIRECTION('',(0.,0.,1.));
#297 = DIRECTION('',(1.,0.,0.));
#298 = ORIENTED_EDGE('',*,*,#299,.F.);
#299 = EDGE_CURVE('',#300,#291,#302,.T.);
#300 = VERTEX_POINT('',#301);
#301 = CARTESIAN_POINT('',(3.,5.196152422707,6.));
#302 = LINE('',#303,#304);
#303 = CARTESIAN_POINT('',(3.,5.196152422707,6.));
#304 = VECTOR('',#305,1.);
#305 = DIRECTION('',(-4.3648699322E-07,1.,0.));
#306 = ORIENTED_EDGE('',*,*,#307,.F.);
#307 = EDGE_CURVE('',#308,#300,#310,.T.);
#308 = VERTEX_POINT('',#309);
#309 = CARTESIAN_POINT('',(5.196152422707,3.,6.));
#310 = CIRCLE('',#311,6.);
#311 = AXIS2_PLACEMENT_3D('',#312,#313,#314);
#312 = CARTESIAN_POINT('',(0.,3.E-15,6.));
#313 = DIRECTION('',(0.,0.,1.));
#314 = DIRECTION('',(1.,0.,0.));
#315 = ORIENTED_EDGE('',*,*,#316,.F.);
#316 = EDGE_CURVE('',#317,#308,#319,.T.);
#317 = VERTEX_POINT('',#318);
#318 = CARTESIAN_POINT('',(5.496152422707,3.000384708396,6.));
#319 = LINE('',#320,#321);
#320 = CARTESIAN_POINT('',(5.496152422707,3.000384708396,6.));
#321 = VECTOR('',#322,1.);
#322 = DIRECTION('',(-0.999999177776,-1.282360265012E-03,0.));
#323 = ORIENTED_EDGE('',*,*,#324,.F.);
#324 = EDGE_CURVE('',#96,#317,#325,.T.);
#325 = CIRCLE('',#326,3.000387175387);
#326 = AXIS2_PLACEMENT_3D('',#327,#328,#329);
#327 = CARTESIAN_POINT('',(5.5,3.E-15,6.));
#328 = DIRECTION('',(0.,0.,1.));
#329 = DIRECTION('',(1.,0.,0.));
#330 = ORIENTED_EDGE('',*,*,#95,.F.);
#331 = FACE_BOUND('',#332,.F.);
#332 = EDGE_LOOP('',(#333,#343,#351,#359,#367,#375));
#333 = ORIENTED_EDGE('',*,*,#334,.T.);
#334 = EDGE_CURVE('',#335,#337,#339,.T.);
#335 = VERTEX_POINT('',#336);
#336 = CARTESIAN_POINT('',(4.607255148133,2.E-15,6.));
#337 = VERTEX_POINT('',#338);
#338 = CARTESIAN_POINT('',(2.303627574067,3.99,6.));
#339 = LINE('',#340,#341);
#340 = CARTESIAN_POINT('',(4.607255148133,1.81E-15,6.));
#341 = VECTOR('',#342,1.);
#342 = DIRECTION('',(-0.5,0.866025403784,0.));
#343 = ORIENTED_EDGE('',*,*,#344,.T.);
#344 = EDGE_CURVE('',#337,#345,#347,.T.);
#345 = VERTEX_POINT('',#346);
#346 = CARTESIAN_POINT('',(-2.303627574067,3.99,6.));
#347 = LINE('',#348,#349);
#348 = CARTESIAN_POINT('',(2.303627574067,3.99,6.));
#349 = VECTOR('',#350,1.);
#350 = DIRECTION('',(-1.,0.,0.));
#351 = ORIENTED_EDGE('',*,*,#352,.T.);
#352 = EDGE_CURVE('',#345,#353,#355,.T.);
#353 = VERTEX_POINT('',#354);
#354 = CARTESIAN_POINT('',(-4.607255148133,1.E-15,6.));
#355 = LINE('',#356,#357);
#356 = CARTESIAN_POINT('',(-2.303627574067,3.99,6.));
#357 = VECTOR('',#358,1.);
#358 = DIRECTION('',(-0.5,-0.866025403784,0.));
#359 = ORIENTED_EDGE('',*,*,#360,.T.);
#360 = EDGE_CURVE('',#353,#361,#363,.T.);
#361 = VERTEX_POINT('',#362);
#362 = CARTESIAN_POINT('',(-2.303627574067,-3.99,6.));
#363 = LINE('',#364,#365);
#364 = CARTESIAN_POINT('',(-4.607255148133,1.14E-15,6.));
#365 = VECTOR('',#366,1.);
#366 = DIRECTION('',(0.5,-0.866025403784,0.));
#367 = ORIENTED_EDGE('',*,*,#368,.T.);
#368 = EDGE_CURVE('',#361,#369,#371,.T.);
#369 = VERTEX_POINT('',#370);
#370 = CARTESIAN_POINT('',(2.303627574067,-3.99,6.));
#371 = LINE('',#372,#373);
#372 = CARTESIAN_POINT('',(-2.303627574067,-3.99,6.));
#373 = VECTOR('',#374,1.);
#374 = DIRECTION('',(1.,2.9E-16,0.));
#375 = ORIENTED_EDGE('',*,*,#376,.T.);
#376 = EDGE_CURVE('',#369,#335,#377,.T.);
#377 = LINE('',#378,#379);
#378 = CARTESIAN_POINT('',(2.303627574067,-3.99,6.));
#379 = VECTOR('',#380,1.);
#380 = DIRECTION('',(0.5,0.866025403784,0.));
#381 = PLANE('',#382);
#382 = AXIS2_PLACEMENT_3D('',#383,#384,#385);
#383 = CARTESIAN_POINT('',(-5.731528868746E-03,2.72507209593E-03,6.));
#384 = DIRECTION('',(0.,-2.2E-16,-1.));
#385 = DIRECTION('',(0.,1.,-2.2E-16));
#386 = ADVANCED_FACE('',(#387),#406,.T.);
#387 = FACE_BOUND('',#388,.F.);
#388 = EDGE_LOOP('',(#389,#397,#398,#399));
#389 = ORIENTED_EDGE('',*,*,#390,.T.);
#390 = EDGE_CURVE('',#391,#223,#393,.T.);
#391 = VERTEX_POINT('',#392);
#392 = CARTESIAN_POINT('',(-2.999999869054,-5.496152422707,0.));
#393 = LINE('',#394,#395);
#394 = CARTESIAN_POINT('',(-2.999999869054,-5.496152422707,2.44E-15));
#395 = VECTOR('',#396,1.);
#396 = DIRECTION('',(0.,4.4E-16,1.));
#397 = ORIENTED_EDGE('',*,*,#222,.T.);
#398 = ORIENTED_EDGE('',*,*,#63,.F.);
#399 = ORIENTED_EDGE('',*,*,#400,.F.);
#400 = EDGE_CURVE('',#391,#64,#401,.T.);
#401 = CIRCLE('',#402,3.000002336361);
#402 = AXIS2_PLACEMENT_3D('',#403,#404,#405);
#403 = CARTESIAN_POINT('',(0.,-5.5,0.));
#404 = DIRECTION('',(0.,0.,1.));
#405 = DIRECTION('',(1.,0.,0.));
#406 = CYLINDRICAL_SURFACE('',#407,3.000002336361);
#407 = AXIS2_PLACEMENT_3D('',#408,#409,#410);
#408 = CARTESIAN_POINT('',(0.,-5.5,2.44E-15));
#409 = DIRECTION('',(0.,-4.4E-16,-1.));
#410 = DIRECTION('',(1.,0.,0.));
#411 = ADVANCED_FACE('',(#412),#423,.T.);
#412 = FACE_BOUND('',#413,.T.);
#413 = EDGE_LOOP('',(#414,#415,#416,#417));
#414 = ORIENTED_EDGE('',*,*,#204,.F.);
#415 = ORIENTED_EDGE('',*,*,#80,.F.);
#416 = ORIENTED_EDGE('',*,*,#400,.F.);
#417 = ORIENTED_EDGE('',*,*,#418,.F.);
#418 = EDGE_CURVE('',#196,#391,#419,.T.);
#419 = LINE('',#420,#421);
#420 = CARTESIAN_POINT('',(-3.,-5.196152422707,0.));
#421 = VECTOR('',#422,1.);
#422 = DIRECTION('',(4.3648698581E-07,-1.,0.));
#423 = PLANE('',#424);
#424 = AXIS2_PLACEMENT_3D('',#425,#426,#427);
#425 = CARTESIAN_POINT('',(-5.731528868746E-03,2.725072095927E-03,0.));
#426 = DIRECTION('',(0.,-2.2E-16,-1.));
#427 = DIRECTION('',(0.,1.,-2.2E-16));
#428 = ADVANCED_FACE('',(#429),#448,.T.);
#429 = FACE_BOUND('',#430,.F.);
#430 = EDGE_LOOP('',(#431,#432,#433,#441));
#431 = ORIENTED_EDGE('',*,*,#103,.T.);
#432 = ORIENTED_EDGE('',*,*,#324,.T.);
#433 = ORIENTED_EDGE('',*,*,#434,.F.);
#434 = EDGE_CURVE('',#435,#317,#437,.T.);
#435 = VERTEX_POINT('',#436);
#436 = CARTESIAN_POINT('',(5.496152422707,3.000384708396,0.));
#437 = LINE('',#438,#439);
#438 = CARTESIAN_POINT('',(5.496152422707,3.000384708396,-1.33E-15));
#439 = VECTOR('',#440,1.);
#440 = DIRECTION('',(0.,4.4E-16,1.));
#441 = ORIENTED_EDGE('',*,*,#442,.F.);
#442 = EDGE_CURVE('',#104,#435,#443,.T.);
#443 = CIRCLE('',#444,3.000387175387);
#444 = AXIS2_PLACEMENT_3D('',#445,#446,#447);
#445 = CARTESIAN_POINT('',(5.5,0.,0.));
#446 = DIRECTION('',(0.,0.,1.));
#447 = DIRECTION('',(1.,0.,0.));
#448 = CYLINDRICAL_SURFACE('',#449,3.000387175387);
#449 = AXIS2_PLACEMENT_3D('',#450,#451,#452);
#450 = CARTESIAN_POINT('',(5.5,0.,0.));
#451 = DIRECTION('',(0.,-4.4E-16,-1.));
#452 = DIRECTION('',(1.,0.,0.));
#453 = ADVANCED_FACE('',(#454),#466,.T.);
#454 = FACE_BOUND('',#455,.T.);
#455 = EDGE_LOOP('',(#456,#457,#458,#459,#465));
#456 = ORIENTED_EDGE('',*,*,#111,.F.);
#457 = ORIENTED_EDGE('',*,*,#125,.F.);
#458 = ORIENTED_EDGE('',*,*,#150,.F.);
#459 = ORIENTED_EDGE('',*,*,#460,.F.);
#460 = EDGE_CURVE('',#435,#151,#461,.T.);
#461 = LINE('',#462,#463);
#462 = CARTESIAN_POINT('',(5.496152422707,3.000384708396,0.));
#463 = VECTOR('',#464,1.);
#464 = DIRECTION('',(-0.999999177776,-1.282360265012E-03,0.));
#465 = ORIENTED_EDGE('',*,*,#442,.F.);
#466 = PLANE('',#467);
#467 = AXIS2_PLACEMENT_3D('',#468,#469,#470);
#468 = CARTESIAN_POINT('',(-5.731528868746E-03,2.725072095927E-03,0.));
#469 = DIRECTION('',(0.,-2.2E-16,-1.));
#470 = DIRECTION('',(0.,1.,-2.2E-16));
#471 = ADVANCED_FACE('',(#472),#488,.T.);
#472 = FACE_BOUND('',#473,.F.);
#473 = EDGE_LOOP('',(#474,#480,#481,#487));
#474 = ORIENTED_EDGE('',*,*,#475,.T.);
#475 = EDGE_CURVE('',#187,#240,#476,.T.);
#476 = LINE('',#477,#478);
#477 = CARTESIAN_POINT('',(-5.196152422707,-3.,1.33E-15));
#478 = VECTOR('',#479,1.);
#479 = DIRECTION('',(0.,4.4E-16,1.));
#480 = ORIENTED_EDGE('',*,*,#239,.T.);
#481 = ORIENTED_EDGE('',*,*,#482,.F.);
#482 = EDGE_CURVE('',#196,#232,#483,.T.);
#483 = LINE('',#484,#485);
#484 = CARTESIAN_POINT('',(-3.,-5.196152422707,2.31E-15));
#485 = VECTOR('',#486,1.);
#486 = DIRECTION('',(0.,4.4E-16,1.));
#487 = ORIENTED_EDGE('',*,*,#195,.F.);
#488 = CYLINDRICAL_SURFACE('',#489,6.);
#489 = AXIS2_PLACEMENT_3D('',#490,#491,#492);
#490 = CARTESIAN_POINT('',(0.,0.,0.));
#491 = DIRECTION('',(0.,-4.4E-16,-1.));
#492 = DIRECTION('',(1.,0.,0.));
#493 = ADVANCED_FACE('',(#494),#520,.T.);
#494 = FACE_BOUND('',#495,.T.);
#495 = EDGE_LOOP('',(#496,#497,#505,#514));
#496 = ORIENTED_EDGE('',*,*,#186,.F.);
#497 = ORIENTED_EDGE('',*,*,#498,.F.);
#498 = EDGE_CURVE('',#499,#187,#501,.T.);
#499 = VERTEX_POINT('',#500);
#500 = CARTESIAN_POINT('',(-5.496152422707,-3.000384708396,0.));
#501 = LINE('',#502,#503);
#502 = CARTESIAN_POINT('',(-5.496152422707,-3.000384708396,0.));
#503 = VECTOR('',#504,1.);
#504 = DIRECTION('',(0.999999177776,1.282360265012E-03,0.));
#505 = ORIENTED_EDGE('',*,*,#506,.F.);
#506 = EDGE_CURVE('',#507,#499,#509,.T.);
#507 = VERTEX_POINT('',#508);
#508 = CARTESIAN_POINT('',(-5.496152422707,3.000384708396,0.));
#509 = CIRCLE('',#510,3.000387175387);
#510 = AXIS2_PLACEMENT_3D('',#511,#512,#513);
#511 = CARTESIAN_POINT('',(-5.5,0.,0.));
#512 = DIRECTION('',(0.,0.,1.));
#513 = DIRECTION('',(1.,0.,0.));
#514 = ORIENTED_EDGE('',*,*,#515,.F.);
#515 = EDGE_CURVE('',#178,#507,#516,.T.);
#516 = LINE('',#517,#518);
#517 = CARTESIAN_POINT('',(-5.196152422707,3.,0.));
#518 = VECTOR('',#519,1.);
#519 = DIRECTION('',(-0.999999177776,1.282360265013E-03,0.));
#520 = PLANE('',#521);
#521 = AXIS2_PLACEMENT_3D('',#522,#523,#524);
#522 = CARTESIAN_POINT('',(-5.731528868746E-03,2.725072095927E-03,0.));
#523 = DIRECTION('',(0.,-2.2E-16,-1.));
#524 = DIRECTION('',(0.,1.,-2.2E-16));
#525 = ADVANCED_FACE('',(#526),#542,.T.);
#526 = FACE_BOUND('',#527,.F.);
#527 = EDGE_LOOP('',(#528,#534,#535,#541));
#528 = ORIENTED_EDGE('',*,*,#529,.T.);
#529 = EDGE_CURVE('',#169,#274,#530,.T.);
#530 = LINE('',#531,#532);
#531 = CARTESIAN_POINT('',(-2.999636365957,5.196362349955,-2.31E-15));
#532 = VECTOR('',#533,1.);
#533 = DIRECTION('',(0.,4.4E-16,1.));
#534 = ORIENTED_EDGE('',*,*,#273,.T.);
#535 = ORIENTED_EDGE('',*,*,#536,.F.);
#536 = EDGE_CURVE('',#178,#266,#537,.T.);
#537 = LINE('',#538,#539);
#538 = CARTESIAN_POINT('',(-5.196152422707,3.,-1.33E-15));
#539 = VECTOR('',#540,1.);
#540 = DIRECTION('',(0.,4.4E-16,1.));
#541 = ORIENTED_EDGE('',*,*,#177,.F.);
#542 = CYLINDRICAL_SURFACE('',#543,6.);
#543 = AXIS2_PLACEMENT_3D('',#544,#545,#546);
#544 = CARTESIAN_POINT('',(0.,0.,0.));
#545 = DIRECTION('',(0.,-4.4E-16,-1.));
#546 = DIRECTION('',(1.,0.,0.));
#547 = ADVANCED_FACE('',(#548),#574,.T.);
#548 = FACE_BOUND('',#549,.T.);
#549 = EDGE_LOOP('',(#550,#558,#559,#567));
#550 = ORIENTED_EDGE('',*,*,#551,.F.);
#551 = EDGE_CURVE('',#160,#552,#554,.T.);
#552 = VERTEX_POINT('',#553);
#553 = CARTESIAN_POINT('',(2.999999869054,5.496152422707,0.));
#554 = LINE('',#555,#556);
#555 = CARTESIAN_POINT('',(3.,5.196152422707,0.));
#556 = VECTOR('',#557,1.);
#557 = DIRECTION('',(-4.3648699322E-07,1.,0.));
#558 = ORIENTED_EDGE('',*,*,#168,.F.);
#559 = ORIENTED_EDGE('',*,*,#560,.F.);
#560 = EDGE_CURVE('',#561,#169,#563,.T.);
#561 = VERTEX_POINT('',#562);
#562 = CARTESIAN_POINT('',(-3.000000130946,5.496362349955,0.));
#563 = LINE('',#564,#565);
#564 = CARTESIAN_POINT('',(-3.000000130946,5.496362349955,0.));
#565 = VECTOR('',#566,1.);
#566 = DIRECTION('',(1.212549070816E-03,-0.999999264862,0.));
#567 = ORIENTED_EDGE('',*,*,#568,.F.);
#568 = EDGE_CURVE('',#552,#561,#569,.T.);
#569 = CIRCLE('',#570,3.000002336361);
#570 = AXIS2_PLACEMENT_3D('',#571,#572,#573);
#571 = CARTESIAN_POINT('',(0.,5.5,0.));
#572 = DIRECTION('',(0.,0.,1.));
#573 = DIRECTION('',(1.,0.,0.));
#574 = PLANE('',#575);
#575 = AXIS2_PLACEMENT_3D('',#576,#577,#578);
#576 = CARTESIAN_POINT('',(-5.731528868746E-03,2.725072095927E-03,0.));
#577 = DIRECTION('',(0.,-2.2E-16,-1.));
#578 = DIRECTION('',(0.,1.,-2.2E-16));
#579 = ADVANCED_FACE('',(#580),#596,.T.);
#580 = FACE_BOUND('',#581,.F.);
#581 = EDGE_LOOP('',(#582,#588,#589,#595));
#582 = ORIENTED_EDGE('',*,*,#583,.T.);
#583 = EDGE_CURVE('',#151,#308,#584,.T.);
#584 = LINE('',#585,#586);
#585 = CARTESIAN_POINT('',(5.196152422707,3.,-1.33E-15));
#586 = VECTOR('',#587,1.);
#587 = DIRECTION('',(0.,4.4E-16,1.));
#588 = ORIENTED_EDGE('',*,*,#307,.T.);
#589 = ORIENTED_EDGE('',*,*,#590,.F.);
#590 = EDGE_CURVE('',#160,#300,#591,.T.);
#591 = LINE('',#592,#593);
#592 = CARTESIAN_POINT('',(3.,5.196152422707,-2.31E-15));
#593 = VECTOR('',#594,1.);
#594 = DIRECTION('',(0.,4.4E-16,1.));
#595 = ORIENTED_EDGE('',*,*,#159,.F.);
#596 = CYLINDRICAL_SURFACE('',#597,6.);
#597 = AXIS2_PLACEMENT_3D('',#598,#599,#600);
#598 = CARTESIAN_POINT('',(0.,0.,0.));
#599 = DIRECTION('',(0.,-4.4E-16,-1.));
#600 = DIRECTION('',(1.,0.,0.));
#601 = ADVANCED_FACE('',(#602,#605),#616,.T.);
#602 = FACE_BOUND('',#603,.T.);
#603 = EDGE_LOOP('',(#604));
#604 = ORIENTED_EDGE('',*,*,#142,.T.);
#605 = FACE_BOUND('',#606,.F.);
#606 = EDGE_LOOP('',(#607));
#607 = ORIENTED_EDGE('',*,*,#608,.T.);
#608 = EDGE_CURVE('',#609,#609,#611,.T.);
#609 = VERTEX_POINT('',#610);
#610 = CARTESIAN_POINT('',(2.675,0.,-0.5));
#611 = CIRCLE('',#612,2.675);
#612 = AXIS2_PLACEMENT_3D('',#613,#614,#615);
#613 = CARTESIAN_POINT('',(0.,0.,-0.5));
#614 = DIRECTION('',(0.,0.,-1.));
#615 = DIRECTION('',(1.,0.,0.));
#616 = PLANE('',#617);
#617 = AXIS2_PLACEMENT_3D('',#618,#619,#620);
#618 = CARTESIAN_POINT('',(-3.2E-16,-3.E-16,-0.5));
#619 = DIRECTION('',(0.,-2.2E-16,-1.));
#620 = DIRECTION('',(0.,1.,-2.2E-16));
#621 = ADVANCED_FACE('',(#622),#628,.F.);
#622 = FACE_BOUND('',#623,.F.);
#623 = EDGE_LOOP('',(#624,#625,#626,#627));
#624 = ORIENTED_EDGE('',*,*,#482,.T.);
#625 = ORIENTED_EDGE('',*,*,#231,.T.);
#626 = ORIENTED_EDGE('',*,*,#390,.F.);
#627 = ORIENTED_EDGE('',*,*,#418,.F.);
#628 = PLANE('',#629);
#629 = AXIS2_PLACEMENT_3D('',#630,#631,#632);
#630 = CARTESIAN_POINT('',(-3.,-5.196152422707,2.31E-15));
#631 = DIRECTION('',(1.,4.3648698581E-07,0.));
#632 = DIRECTION('',(4.3648698581E-07,-1.,4.4E-16));
#633 = ADVANCED_FACE('',(#634),#640,.F.);
#634 = FACE_BOUND('',#635,.F.);
#635 = EDGE_LOOP('',(#636,#637,#638,#639));
#636 = ORIENTED_EDGE('',*,*,#434,.T.);
#637 = ORIENTED_EDGE('',*,*,#316,.T.);
#638 = ORIENTED_EDGE('',*,*,#583,.F.);
#639 = ORIENTED_EDGE('',*,*,#460,.F.);
#640 = PLANE('',#641);
#641 = AXIS2_PLACEMENT_3D('',#642,#643,#644);
#642 = CARTESIAN_POINT('',(5.496152422707,3.000384708396,-1.33E-15));
#643 = DIRECTION('',(1.282360265012E-03,-0.999999177776,4.4E-16));
#644 = DIRECTION('',(-0.999999177776,-1.282360265012E-03,
    2.661456728742E-35));
#645 = ADVANCED_FACE('',(#646),#657,.F.);
#646 = FACE_BOUND('',#647,.F.);
#647 = EDGE_LOOP('',(#648,#654,#655,#656));
#648 = ORIENTED_EDGE('',*,*,#649,.T.);
#649 = EDGE_CURVE('',#499,#249,#650,.T.);
#650 = LINE('',#651,#652);
#651 = CARTESIAN_POINT('',(-5.496152422707,-3.000384708396,1.33E-15));
#652 = VECTOR('',#653,1.);
#653 = DIRECTION('',(0.,4.4E-16,1.));
#654 = ORIENTED_EDGE('',*,*,#248,.T.);
#655 = ORIENTED_EDGE('',*,*,#475,.F.);
#656 = ORIENTED_EDGE('',*,*,#498,.F.);
#657 = PLANE('',#658);
#658 = AXIS2_PLACEMENT_3D('',#659,#660,#661);
#659 = CARTESIAN_POINT('',(-5.496152422707,-3.000384708396,1.33E-15));
#660 = DIRECTION('',(-1.282360265012E-03,0.999999177776,-4.4E-16));
#661 = DIRECTION('',(0.999999177776,1.282360265012E-03,
    -2.661456728742E-35));
#662 = ADVANCED_FACE('',(#663),#674,.F.);
#663 = FACE_BOUND('',#664,.F.);
#664 = EDGE_LOOP('',(#665,#666,#667,#673));
#665 = ORIENTED_EDGE('',*,*,#590,.T.);
#666 = ORIENTED_EDGE('',*,*,#299,.T.);
#667 = ORIENTED_EDGE('',*,*,#668,.F.);
#668 = EDGE_CURVE('',#552,#291,#669,.T.);
#669 = LINE('',#670,#671);
#670 = CARTESIAN_POINT('',(2.999999869054,5.496152422707,-2.44E-15));
#671 = VECTOR('',#672,1.);
#672 = DIRECTION('',(0.,4.4E-16,1.));
#673 = ORIENTED_EDGE('',*,*,#551,.F.);
#674 = PLANE('',#675);
#675 = AXIS2_PLACEMENT_3D('',#676,#677,#678);
#676 = CARTESIAN_POINT('',(3.,5.196152422707,-2.31E-15));
#677 = DIRECTION('',(-1.,-4.3648699322E-07,0.));
#678 = DIRECTION('',(-4.3648699322E-07,1.,-4.4E-16));
#679 = ADVANCED_FACE('',(#680),#691,.T.);
#680 = FACE_BOUND('',#681,.F.);
#681 = EDGE_LOOP('',(#682,#688,#689,#690));
#682 = ORIENTED_EDGE('',*,*,#683,.T.);
#683 = EDGE_CURVE('',#507,#257,#684,.T.);
#684 = LINE('',#685,#686);
#685 = CARTESIAN_POINT('',(-5.496152422707,3.000384708396,-1.33E-15));
#686 = VECTOR('',#687,1.);
#687 = DIRECTION('',(0.,4.4E-16,1.));
#688 = ORIENTED_EDGE('',*,*,#256,.T.);
#689 = ORIENTED_EDGE('',*,*,#649,.F.);
#690 = ORIENTED_EDGE('',*,*,#506,.F.);
#691 = CYLINDRICAL_SURFACE('',#692,3.000387175387);
#692 = AXIS2_PLACEMENT_3D('',#693,#694,#695);
#693 = CARTESIAN_POINT('',(-5.5,0.,0.));
#694 = DIRECTION('',(0.,-4.4E-16,-1.));
#695 = DIRECTION('',(1.,0.,0.));
#696 = ADVANCED_FACE('',(#697),#708,.T.);
#697 = FACE_BOUND('',#698,.F.);
#698 = EDGE_LOOP('',(#699,#700,#701,#707));
#699 = ORIENTED_EDGE('',*,*,#668,.T.);
#700 = ORIENTED_EDGE('',*,*,#290,.T.);
#701 = ORIENTED_EDGE('',*,*,#702,.F.);
#702 = EDGE_CURVE('',#561,#283,#703,.T.);
#703 = LINE('',#704,#705);
#704 = CARTESIAN_POINT('',(-3.000000130946,5.496362349955,-2.44E-15));
#705 = VECTOR('',#706,1.);
#706 = DIRECTION('',(0.,4.4E-16,1.));
#707 = ORIENTED_EDGE('',*,*,#568,.F.);
#708 = CYLINDRICAL_SURFACE('',#709,3.000002336361);
#709 = AXIS2_PLACEMENT_3D('',#710,#711,#712);
#710 = CARTESIAN_POINT('',(0.,5.5,-2.44E-15));
#711 = DIRECTION('',(0.,-4.4E-16,-1.));
#712 = DIRECTION('',(1.,0.,0.));
#713 = ADVANCED_FACE('',(#714),#720,.F.);
#714 = FACE_BOUND('',#715,.F.);
#715 = EDGE_LOOP('',(#716,#717,#718,#719));
#716 = ORIENTED_EDGE('',*,*,#536,.T.);
#717 = ORIENTED_EDGE('',*,*,#265,.T.);
#718 = ORIENTED_EDGE('',*,*,#683,.F.);
#719 = ORIENTED_EDGE('',*,*,#515,.F.);
#720 = PLANE('',#721);
#721 = AXIS2_PLACEMENT_3D('',#722,#723,#724);
#722 = CARTESIAN_POINT('',(-5.196152422707,3.,-1.33E-15));
#723 = DIRECTION('',(-1.282360265013E-03,-0.999999177776,4.4E-16));
#724 = DIRECTION('',(-0.999999177776,1.282360265013E-03,
    5.530674173594E-35));
#725 = ADVANCED_FACE('',(#726),#732,.F.);
#726 = FACE_BOUND('',#727,.F.);
#727 = EDGE_LOOP('',(#728,#729,#730,#731));
#728 = ORIENTED_EDGE('',*,*,#702,.T.);
#729 = ORIENTED_EDGE('',*,*,#282,.T.);
#730 = ORIENTED_EDGE('',*,*,#529,.F.);
#731 = ORIENTED_EDGE('',*,*,#560,.F.);
#732 = PLANE('',#733);
#733 = AXIS2_PLACEMENT_3D('',#734,#735,#736);
#734 = CARTESIAN_POINT('',(-3.000000130946,5.496362349955,-2.44E-15));
#735 = DIRECTION('',(0.999999264862,1.212549070816E-03,0.));
#736 = DIRECTION('',(1.212549070816E-03,-0.999999264862,4.4E-16));
#737 = ADVANCED_FACE('',(#738),#763,.F.);
#738 = FACE_BOUND('',#739,.F.);
#739 = EDGE_LOOP('',(#740,#748,#756,#762));
#740 = ORIENTED_EDGE('',*,*,#741,.T.);
#741 = EDGE_CURVE('',#335,#742,#744,.T.);
#742 = VERTEX_POINT('',#743);
#743 = CARTESIAN_POINT('',(4.607255148133,0.,2.));
#744 = LINE('',#745,#746);
#745 = CARTESIAN_POINT('',(4.607255148133,3.48E-15,6.));
#746 = VECTOR('',#747,1.);
#747 = DIRECTION('',(-0.,-4.4E-16,-1.));
#748 = ORIENTED_EDGE('',*,*,#749,.T.);
#749 = EDGE_CURVE('',#742,#750,#752,.T.);
#750 = VERTEX_POINT('',#751);
#751 = CARTESIAN_POINT('',(2.303627574067,3.99,2.));
#752 = LINE('',#753,#754);
#753 = CARTESIAN_POINT('',(4.607255148133,-1.9E-16,2.));
#754 = VECTOR('',#755,1.);
#755 = DIRECTION('',(-0.5,0.866025403784,0.));
#756 = ORIENTED_EDGE('',*,*,#757,.F.);
#757 = EDGE_CURVE('',#337,#750,#758,.T.);
#758 = LINE('',#759,#760);
#759 = CARTESIAN_POINT('',(2.303627574067,3.99,6.));
#760 = VECTOR('',#761,1.);
#761 = DIRECTION('',(-0.,-4.4E-16,-1.));
#762 = ORIENTED_EDGE('',*,*,#334,.F.);
#763 = PLANE('',#764);
#764 = AXIS2_PLACEMENT_3D('',#765,#766,#767);
#765 = CARTESIAN_POINT('',(4.607255148133,3.48E-15,6.));
#766 = DIRECTION('',(0.866025403784,0.5,-2.2E-16));
#767 = DIRECTION('',(-0.5,0.866025403784,-3.8E-16));
#768 = ADVANCED_FACE('',(#769),#787,.F.);
#769 = FACE_BOUND('',#770,.F.);
#770 = EDGE_LOOP('',(#771,#779,#785,#786));
#771 = ORIENTED_EDGE('',*,*,#772,.T.);
#772 = EDGE_CURVE('',#369,#773,#775,.T.);
#773 = VERTEX_POINT('',#774);
#774 = CARTESIAN_POINT('',(2.303627574067,-3.99,2.));
#775 = LINE('',#776,#777);
#776 = CARTESIAN_POINT('',(2.303627574067,-3.99,6.));
#777 = VECTOR('',#778,1.);
#778 = DIRECTION('',(-0.,-4.4E-16,-1.));
#779 = ORIENTED_EDGE('',*,*,#780,.T.);
#780 = EDGE_CURVE('',#773,#742,#781,.T.);
#781 = LINE('',#782,#783);
#782 = CARTESIAN_POINT('',(2.303627574067,-3.99,2.));
#783 = VECTOR('',#784,1.);
#784 = DIRECTION('',(0.5,0.866025403784,0.));
#785 = ORIENTED_EDGE('',*,*,#741,.F.);
#786 = ORIENTED_EDGE('',*,*,#376,.F.);
#787 = PLANE('',#788);
#788 = AXIS2_PLACEMENT_3D('',#789,#790,#791);
#789 = CARTESIAN_POINT('',(2.303627574067,-3.99,6.));
#790 = DIRECTION('',(0.866025403784,-0.5,2.2E-16));
#791 = DIRECTION('',(0.5,0.866025403784,-3.8E-16));
#792 = ADVANCED_FACE('',(#793),#811,.F.);
#793 = FACE_BOUND('',#794,.F.);
#794 = EDGE_LOOP('',(#795,#803,#809,#810));
#795 = ORIENTED_EDGE('',*,*,#796,.T.);
#796 = EDGE_CURVE('',#361,#797,#799,.T.);
#797 = VERTEX_POINT('',#798);
#798 = CARTESIAN_POINT('',(-2.303627574067,-3.99,2.));
#799 = LINE('',#800,#801);
#800 = CARTESIAN_POINT('',(-2.303627574067,-3.99,6.));
#801 = VECTOR('',#802,1.);
#802 = DIRECTION('',(-0.,-4.4E-16,-1.));
#803 = ORIENTED_EDGE('',*,*,#804,.T.);
#804 = EDGE_CURVE('',#797,#773,#805,.T.);
#805 = LINE('',#806,#807);
#806 = CARTESIAN_POINT('',(-2.303627574067,-3.99,2.));
#807 = VECTOR('',#808,1.);
#808 = DIRECTION('',(1.,2.9E-16,0.));
#809 = ORIENTED_EDGE('',*,*,#772,.F.);
#810 = ORIENTED_EDGE('',*,*,#368,.F.);
#811 = PLANE('',#812);
#812 = AXIS2_PLACEMENT_3D('',#813,#814,#815);
#813 = CARTESIAN_POINT('',(-2.303627574067,-3.99,6.));
#814 = DIRECTION('',(2.9E-16,-1.,4.4E-16));
#815 = DIRECTION('',(1.,2.9E-16,5.237622077759E-49));
#816 = ADVANCED_FACE('',(#817),#835,.F.);
#817 = FACE_BOUND('',#818,.F.);
#818 = EDGE_LOOP('',(#819,#827,#833,#834));
#819 = ORIENTED_EDGE('',*,*,#820,.T.);
#820 = EDGE_CURVE('',#353,#821,#823,.T.);
#821 = VERTEX_POINT('',#822);
#822 = CARTESIAN_POINT('',(-4.607255148133,-1.E-15,2.));
#823 = LINE('',#824,#825);
#824 = CARTESIAN_POINT('',(-4.607255148133,2.81E-15,6.));
#825 = VECTOR('',#826,1.);
#826 = DIRECTION('',(-0.,-4.4E-16,-1.));
#827 = ORIENTED_EDGE('',*,*,#828,.T.);
#828 = EDGE_CURVE('',#821,#797,#829,.T.);
#829 = LINE('',#830,#831);
#830 = CARTESIAN_POINT('',(-4.607255148133,-8.6E-16,2.));
#831 = VECTOR('',#832,1.);
#832 = DIRECTION('',(0.5,-0.866025403784,0.));
#833 = ORIENTED_EDGE('',*,*,#796,.F.);
#834 = ORIENTED_EDGE('',*,*,#360,.F.);
#835 = PLANE('',#836);
#836 = AXIS2_PLACEMENT_3D('',#837,#838,#839);
#837 = CARTESIAN_POINT('',(-4.607255148133,2.81E-15,6.));
#838 = DIRECTION('',(-0.866025403784,-0.5,2.2E-16));
#839 = DIRECTION('',(0.5,-0.866025403784,3.8E-16));
#840 = ADVANCED_FACE('',(#841),#859,.F.);
#841 = FACE_BOUND('',#842,.F.);
#842 = EDGE_LOOP('',(#843,#851,#857,#858));
#843 = ORIENTED_EDGE('',*,*,#844,.T.);
#844 = EDGE_CURVE('',#345,#845,#847,.T.);
#845 = VERTEX_POINT('',#846);
#846 = CARTESIAN_POINT('',(-2.303627574067,3.99,2.));
#847 = LINE('',#848,#849);
#848 = CARTESIAN_POINT('',(-2.303627574067,3.99,6.));
#849 = VECTOR('',#850,1.);
#850 = DIRECTION('',(-0.,-4.4E-16,-1.));
#851 = ORIENTED_EDGE('',*,*,#852,.T.);
#852 = EDGE_CURVE('',#845,#821,#853,.T.);
#853 = LINE('',#854,#855);
#854 = CARTESIAN_POINT('',(-2.303627574067,3.99,2.));
#855 = VECTOR('',#856,1.);
#856 = DIRECTION('',(-0.5,-0.866025403784,0.));
#857 = ORIENTED_EDGE('',*,*,#820,.F.);
#858 = ORIENTED_EDGE('',*,*,#352,.F.);
#859 = PLANE('',#860);
#860 = AXIS2_PLACEMENT_3D('',#861,#862,#863);
#861 = CARTESIAN_POINT('',(-2.303627574067,3.99,6.));
#862 = DIRECTION('',(-0.866025403784,0.5,-2.2E-16));
#863 = DIRECTION('',(-0.5,-0.866025403784,3.8E-16));
#864 = ADVANCED_FACE('',(#865),#876,.F.);
#865 = FACE_BOUND('',#866,.F.);
#866 = EDGE_LOOP('',(#867,#868,#874,#875));
#867 = ORIENTED_EDGE('',*,*,#757,.T.);
#868 = ORIENTED_EDGE('',*,*,#869,.T.);
#869 = EDGE_CURVE('',#750,#845,#870,.T.);
#870 = LINE('',#871,#872);
#871 = CARTESIAN_POINT('',(2.303627574067,3.99,2.));
#872 = VECTOR('',#873,1.);
#873 = DIRECTION('',(-1.,0.,0.));
#874 = ORIENTED_EDGE('',*,*,#844,.F.);
#875 = ORIENTED_EDGE('',*,*,#344,.F.);
#876 = PLANE('',#877);
#877 = AXIS2_PLACEMENT_3D('',#878,#879,#880);
#878 = CARTESIAN_POINT('',(2.303627574067,3.99,6.));
#879 = DIRECTION('',(0.,1.,-4.4E-16));
#880 = DIRECTION('',(-1.,0.,0.));
#881 = ADVANCED_FACE('',(#882),#901,.F.);
#882 = FACE_BOUND('',#883,.T.);
#883 = EDGE_LOOP('',(#884,#892,#893,#894));
#884 = ORIENTED_EDGE('',*,*,#885,.T.);
#885 = EDGE_CURVE('',#886,#609,#888,.T.);
#886 = VERTEX_POINT('',#887);
#887 = CARTESIAN_POINT('',(2.675,0.,-0.));
#888 = LINE('',#889,#890);
#889 = CARTESIAN_POINT('',(2.675,-0.,-0.));
#890 = VECTOR('',#891,1.);
#891 = DIRECTION('',(-0.,-4.4E-16,-1.));
#892 = ORIENTED_EDGE('',*,*,#608,.T.);
#893 = ORIENTED_EDGE('',*,*,#885,.F.);
#894 = ORIENTED_EDGE('',*,*,#895,.T.);
#895 = EDGE_CURVE('',#886,#886,#896,.T.);
#896 = CIRCLE('',#897,2.675);
#897 = AXIS2_PLACEMENT_3D('',#898,#899,#900);
#898 = CARTESIAN_POINT('',(0.,0.,0.));
#899 = DIRECTION('',(-0.,4.4E-16,1.));
#900 = DIRECTION('',(1.,0.,0.));
#901 = CYLINDRICAL_SURFACE('',#902,2.675);
#902 = AXIS2_PLACEMENT_3D('',#903,#904,#905);
#903 = CARTESIAN_POINT('',(-0.,-0.,-0.));
#904 = DIRECTION('',(0.,4.4E-16,1.));
#905 = DIRECTION('',(1.,0.,-0.));
#906 = ADVANCED_FACE('',(#907,#915),#926,.F.);
#907 = FACE_BOUND('',#908,.F.);
#908 = EDGE_LOOP('',(#909,#910,#911,#912,#913,#914));
#909 = ORIENTED_EDGE('',*,*,#869,.F.);
#910 = ORIENTED_EDGE('',*,*,#749,.F.);
#911 = ORIENTED_EDGE('',*,*,#780,.F.);
#912 = ORIENTED_EDGE('',*,*,#804,.F.);
#913 = ORIENTED_EDGE('',*,*,#828,.F.);
#914 = ORIENTED_EDGE('',*,*,#852,.F.);
#915 = FACE_BOUND('',#916,.F.);
#916 = EDGE_LOOP('',(#917));
#917 = ORIENTED_EDGE('',*,*,#918,.T.);
#918 = EDGE_CURVE('',#919,#919,#921,.T.);
#919 = VERTEX_POINT('',#920);
#920 = CARTESIAN_POINT('',(2.675,0.,2.));
#921 = CIRCLE('',#922,2.675);
#922 = AXIS2_PLACEMENT_3D('',#923,#924,#925);
#923 = CARTESIAN_POINT('',(0.,0.,2.));
#924 = DIRECTION('',(0.,0.,1.));
#925 = DIRECTION('',(1.,0.,0.));
#926 = PLANE('',#927);
#927 = AXIS2_PLACEMENT_3D('',#928,#929,#930);
#928 = CARTESIAN_POINT('',(1.3E-16,-7.8E-16,2.));
#929 = DIRECTION('',(0.,-2.2E-16,-1.));
#930 = DIRECTION('',(0.,1.,-2.2E-16));
#931 = ADVANCED_FACE('',(#932),#943,.F.);
#932 = FACE_BOUND('',#933,.F.);
#933 = EDGE_LOOP('',(#934,#940,#941,#942));
#934 = ORIENTED_EDGE('',*,*,#935,.F.);
#935 = EDGE_CURVE('',#919,#886,#936,.T.);
#936 = LINE('',#937,#938);
#937 = CARTESIAN_POINT('',(2.675,8.9E-16,2.));
#938 = VECTOR('',#939,1.);
#939 = DIRECTION('',(0.,-4.4E-16,-1.));
#940 = ORIENTED_EDGE('',*,*,#918,.F.);
#941 = ORIENTED_EDGE('',*,*,#935,.T.);
#942 = ORIENTED_EDGE('',*,*,#895,.T.);
#943 = CYLINDRICAL_SURFACE('',#944,2.675);
#944 = AXIS2_PLACEMENT_3D('',#945,#946,#947);
#945 = CARTESIAN_POINT('',(0.,8.9E-16,2.));
#946 = DIRECTION('',(0.,4.4E-16,1.));
#947 = DIRECTION('',(1.,0.,0.));
#948 = ( GEOMETRIC_REPRESENTATION_CONTEXT(3) 
GLOBAL_UNCERTAINTY_ASSIGNED_CONTEXT((#952)) GLOBAL_UNIT_ASSIGNED_CONTEXT
((#949,#950,#951)) REPRESENTATION_CONTEXT('Context #1',
  '3D Context with UNIT and UNCERTAINTY') );
#949 = ( LENGTH_UNIT() NAMED_UNIT(*) SI_UNIT(.MILLI.,.METRE.) );
#950 = ( NAMED_UNIT(*) PLANE_ANGLE_UNIT() SI_UNIT($,.RADIAN.) );
#951 = ( NAMED_UNIT(*) SI_UNIT($,.STERADIAN.) SOLID_ANGLE_UNIT() );
#952 = UNCERTAINTY_MEASURE_WITH_UNIT(LENGTH_MEASURE(1.E-07),#949,
  'distance_accuracy_value','confusion accuracy');
#953 = PRODUCT_RELATED_PRODUCT_CATEGORY('part',$,(#7));
#954 = MECHANICAL_DESIGN_GEOMETRIC_PRESENTATION_REPRESENTATION('',(#955)
  ,#948);
#955 = STYLED_ITEM('color',(#956),#15);
#956 = PRESENTATION_STYLE_ASSIGNMENT((#957,#963));
#957 = SURFACE_STYLE_USAGE(.BOTH.,#958);
#958 = SURFACE_SIDE_STYLE('',(#959));
#959 = SURFACE_STYLE_FILL_AREA(#960);
#960 = FILL_AREA_STYLE('',(#961));
#961 = FILL_AREA_STYLE_COLOUR('',#962);
#962 = COLOUR_RGB('',0.800000010877,0.800000010877,0.800000010877);
#963 = CURVE_STYLE('',#964,POSITIVE_LENGTH_MEASURE(0.1),#965);
#964 = DRAUGHTING_PRE_DEFINED_CURVE_FONT('continuous');
#965 = COLOUR_RGB('',9.803921802644E-02,9.803921802644E-02,
  9.803921802644E-02);
ENDSEC;
END-ISO-10303-21;
