ISO-10303-21;
HEADER;
FILE_DESCRIPTION(('FreeCAD Model'),'2;1');
FILE_NAME('Open CASCADE Shape Model','2025-12-16T10:59:27',('Author'),(
    ''),'Open CASCADE STEP processor 7.6','FreeCAD','Unknown');
FILE_SCHEMA(('AUTOMOTIVE_DESIGN { 1 0 10303 214 1 1 1 1 }'));
ENDSEC;
DATA;
#1 = APPLICATION_PROTOCOL_DEFINITION('international standard',
  'automotive_design',2000,#2);
#2 = APPLICATION_CONTEXT(
  'core data for automotive mechanical design processes');
#3 = SHAPE_DEFINITION_REPRESENTATION(#4,#10);
#4 = PRODUCT_DEFINITION_SHAPE('','',#5);
#5 = PRODUCT_DEFINITION('design','',#6,#9);
#6 = PRODUCT_DEFINITION_FORMATION('','',#7);
#7 = PRODUCT('LinearPattern001','LinearPattern001','',(#8));
#8 = PRODUCT_CONTEXT('',#2,'mechanical');
#9 = PRODUCT_DEFINITION_CONTEXT('part definition',#2,'design');
#10 = ADVANCED_BREP_SHAPE_REPRESENTATION('',(#11,#15),#2394);
#11 = AXIS2_PLACEMENT_3D('',#12,#13,#14);
#12 = CARTESIAN_POINT('',(0.,0.,0.));
#13 = DIRECTION('',(0.,0.,1.));
#14 = DIRECTION('',(1.,0.,-0.));
#15 = MANIFOLD_SOLID_BREP('',#16);
#16 = CLOSED_SHELL('',(#17,#133,#164,#189,#287,#454,#489,#513,#544,#568,
    #599,#623,#647,#664,#704,#728,#753,#920,#944,#975,#992,#1023,#1047,
    #1071,#1088,#1113,#1137,#1162,#1187,#1204,#1235,#1259,#1283,#1307,
    #1331,#1348,#1379,#1403,#1427,#1451,#1475,#1492,#1522,#1560,#1593,
    #1618,#1643,#1660,#1685,#1709,#1734,#1759,#1776,#1807,#1831,#1855,
    #1879,#1903,#1920,#1951,#1975,#1999,#2023,#2047,#2064,#2102,#2135,
    #2160,#2185,#2202,#2227,#2252,#2269,#2286,#2298,#2323,#2348,#2365,
    #2382));
#17 = ADVANCED_FACE('',(#18,#94),#128,.F.);
#18 = FACE_BOUND('',#19,.F.);
#19 = EDGE_LOOP('',(#20,#30,#39,#47,#55,#63,#71,#79,#88));
#20 = ORIENTED_EDGE('',*,*,#21,.F.);
#21 = EDGE_CURVE('',#22,#24,#26,.T.);
#22 = VERTEX_POINT('',#23);
#23 = CARTESIAN_POINT('',(20.,13.,10.));
#24 = VERTEX_POINT('',#25);
#25 = CARTESIAN_POINT('',(20.,27.85,10.));
#26 = LINE('',#27,#28);
#27 = CARTESIAN_POINT('',(20.,-7.E-15,10.));
#28 = VECTOR('',#29,1.);
#29 = DIRECTION('',(0.,1.,0.));
#30 = ORIENTED_EDGE('',*,*,#31,.T.);
#31 = EDGE_CURVE('',#22,#32,#34,.T.);
#32 = VERTEX_POINT('',#33);
#33 = CARTESIAN_POINT('',(23.,10.,10.));
#34 = CIRCLE('',#35,3.);
#35 = AXIS2_PLACEMENT_3D('',#36,#37,#38);
#36 = CARTESIAN_POINT('',(23.,13.,10.));
#37 = DIRECTION('',(-0.,3.3E-16,1.));
#38 = DIRECTION('',(0.,-1.,3.3E-16));
#39 = ORIENTED_EDGE('',*,*,#40,.F.);
#40 = EDGE_CURVE('',#41,#32,#43,.T.);
#41 = VERTEX_POINT('',#42);
#42 = CARTESIAN_POINT('',(20.,10.,10.));
#43 = LINE('',#44,#45);
#44 = CARTESIAN_POINT('',(20.,10.,10.));
#45 = VECTOR('',#46,1.);
#46 = DIRECTION('',(1.,0.,0.));
#47 = ORIENTED_EDGE('',*,*,#48,.F.);
#48 = EDGE_CURVE('',#49,#41,#51,.T.);
#49 = VERTEX_POINT('',#50);
#50 = CARTESIAN_POINT('',(20.,-7.E-15,10.));
#51 = LINE('',#52,#53);
#52 = CARTESIAN_POINT('',(20.,-7.E-15,10.));
#53 = VECTOR('',#54,1.);
#54 = DIRECTION('',(0.,1.,0.));
#55 = ORIENTED_EDGE('',*,*,#56,.F.);
#56 = EDGE_CURVE('',#57,#49,#59,.T.);
#57 = VERTEX_POINT('',#58);
#58 = CARTESIAN_POINT('',(0.,-7.E-15,10.));
#59 = LINE('',#60,#61);
#60 = CARTESIAN_POINT('',(0.,-7.E-15,10.));
#61 = VECTOR('',#62,1.);
#62 = DIRECTION('',(1.,0.,0.));
#63 = ORIENTED_EDGE('',*,*,#64,.F.);
#64 = EDGE_CURVE('',#65,#57,#67,.T.);
#65 = VERTEX_POINT('',#66);
#66 = CARTESIAN_POINT('',(0.,27.85,10.));
#67 = LINE('',#68,#69);
#68 = CARTESIAN_POINT('',(0.,27.85,10.));
#69 = VECTOR('',#70,1.);
#70 = DIRECTION('',(0.,-1.,0.));
#71 = ORIENTED_EDGE('',*,*,#72,.F.);
#72 = EDGE_CURVE('',#73,#65,#75,.T.);
#73 = VERTEX_POINT('',#74);
#74 = CARTESIAN_POINT('',(7.3,27.85,10.));
#75 = LINE('',#76,#77);
#76 = CARTESIAN_POINT('',(20.,27.85,10.));
#77 = VECTOR('',#78,1.);
#78 = DIRECTION('',(-1.,0.,0.));
#79 = ORIENTED_EDGE('',*,*,#80,.F.);
#80 = EDGE_CURVE('',#81,#73,#83,.T.);
#81 = VERTEX_POINT('',#82);
#82 = CARTESIAN_POINT('',(12.7,27.85,10.));
#83 = CIRCLE('',#84,2.7);
#84 = AXIS2_PLACEMENT_3D('',#85,#86,#87);
#85 = CARTESIAN_POINT('',(10.,27.85,10.));
#86 = DIRECTION('',(0.,-1.E-15,-1.));
#87 = DIRECTION('',(1.,0.,0.));
#88 = ORIENTED_EDGE('',*,*,#89,.F.);
#89 = EDGE_CURVE('',#24,#81,#90,.T.);
#90 = LINE('',#91,#92);
#91 = CARTESIAN_POINT('',(20.,27.85,10.));
#92 = VECTOR('',#93,1.);
#93 = DIRECTION('',(-1.,0.,0.));
#94 = FACE_BOUND('',#95,.F.);
#95 = EDGE_LOOP('',(#96,#106,#114,#122));
#96 = ORIENTED_EDGE('',*,*,#97,.F.);
#97 = EDGE_CURVE('',#98,#100,#102,.T.);
#98 = VERTEX_POINT('',#99);
#99 = CARTESIAN_POINT('',(7.,24.7,10.));
#100 = VERTEX_POINT('',#101);
#101 = CARTESIAN_POINT('',(13.,24.7,10.));
#102 = LINE('',#103,#104);
#103 = CARTESIAN_POINT('',(7.,24.7,10.));
#104 = VECTOR('',#105,1.);
#105 = DIRECTION('',(1.,0.,0.));
#106 = ORIENTED_EDGE('',*,*,#107,.F.);
#107 = EDGE_CURVE('',#108,#98,#110,.T.);
#108 = VERTEX_POINT('',#109);
#109 = CARTESIAN_POINT('',(7.,18.7,10.));
#110 = LINE('',#111,#112);
#111 = CARTESIAN_POINT('',(7.,18.7,10.));
#112 = VECTOR('',#113,1.);
#113 = DIRECTION('',(0.,1.,-1.E-15));
#114 = ORIENTED_EDGE('',*,*,#115,.F.);
#115 = EDGE_CURVE('',#116,#108,#118,.T.);
#116 = VERTEX_POINT('',#117);
#117 = CARTESIAN_POINT('',(13.,18.7,10.));
#118 = LINE('',#119,#120);
#119 = CARTESIAN_POINT('',(13.,18.7,10.));
#120 = VECTOR('',#121,1.);
#121 = DIRECTION('',(-1.,0.,0.));
#122 = ORIENTED_EDGE('',*,*,#123,.F.);
#123 = EDGE_CURVE('',#100,#116,#124,.T.);
#124 = LINE('',#125,#126);
#125 = CARTESIAN_POINT('',(13.,24.7,10.));
#126 = VECTOR('',#127,1.);
#127 = DIRECTION('',(0.,-1.,1.E-15));
#128 = PLANE('',#129);
#129 = AXIS2_PLACEMENT_3D('',#130,#131,#132);
#130 = CARTESIAN_POINT('',(10.,13.925,10.));
#131 = DIRECTION('',(0.,-7.E-17,-1.));
#132 = DIRECTION('',(0.,1.,-7.E-17));
#133 = ADVANCED_FACE('',(#134),#159,.F.);
#134 = FACE_BOUND('',#135,.F.);
#135 = EDGE_LOOP('',(#136,#146,#152,#153));
#136 = ORIENTED_EDGE('',*,*,#137,.F.);
#137 = EDGE_CURVE('',#138,#140,#142,.T.);
#138 = VERTEX_POINT('',#139);
#139 = CARTESIAN_POINT('',(20.,13.,-4.E-15));
#140 = VERTEX_POINT('',#141);
#141 = CARTESIAN_POINT('',(20.,27.85,0.));
#142 = LINE('',#143,#144);
#143 = CARTESIAN_POINT('',(20.,10.,0.));
#144 = VECTOR('',#145,1.);
#145 = DIRECTION('',(0.,1.,0.));
#146 = ORIENTED_EDGE('',*,*,#147,.T.);
#147 = EDGE_CURVE('',#138,#22,#148,.T.);
#148 = LINE('',#149,#150);
#149 = CARTESIAN_POINT('',(20.,13.,-4.33E-15));
#150 = VECTOR('',#151,1.);
#151 = DIRECTION('',(0.,3.3E-16,1.));
#152 = ORIENTED_EDGE('',*,*,#21,.T.);
#153 = ORIENTED_EDGE('',*,*,#154,.F.);
#154 = EDGE_CURVE('',#140,#24,#155,.T.);
#155 = LINE('',#156,#157);
#156 = CARTESIAN_POINT('',(20.,27.85,0.));
#157 = VECTOR('',#158,1.);
#158 = DIRECTION('',(0.,0.,1.));
#159 = PLANE('',#160);
#160 = AXIS2_PLACEMENT_3D('',#161,#162,#163);
#161 = CARTESIAN_POINT('',(20.,10.,0.));
#162 = DIRECTION('',(-1.,0.,0.));
#163 = DIRECTION('',(0.,1.,0.));
#164 = ADVANCED_FACE('',(#165),#184,.F.);
#165 = FACE_BOUND('',#166,.F.);
#166 = EDGE_LOOP('',(#167,#176,#182,#183));
#167 = ORIENTED_EDGE('',*,*,#168,.T.);
#168 = EDGE_CURVE('',#138,#169,#171,.T.);
#169 = VERTEX_POINT('',#170);
#170 = CARTESIAN_POINT('',(23.,10.,-3.E-15));
#171 = CIRCLE('',#172,3.);
#172 = AXIS2_PLACEMENT_3D('',#173,#174,#175);
#173 = CARTESIAN_POINT('',(23.,13.,-1.44E-15));
#174 = DIRECTION('',(-0.,3.3E-16,1.));
#175 = DIRECTION('',(0.,-1.,3.3E-16));
#176 = ORIENTED_EDGE('',*,*,#177,.T.);
#177 = EDGE_CURVE('',#169,#32,#178,.T.);
#178 = LINE('',#179,#180);
#179 = CARTESIAN_POINT('',(23.,10.,-3.33E-15));
#180 = VECTOR('',#181,1.);
#181 = DIRECTION('',(0.,3.3E-16,1.));
#182 = ORIENTED_EDGE('',*,*,#31,.F.);
#183 = ORIENTED_EDGE('',*,*,#147,.F.);
#184 = CYLINDRICAL_SURFACE('',#185,3.);
#185 = AXIS2_PLACEMENT_3D('',#186,#187,#188);
#186 = CARTESIAN_POINT('',(23.,13.,-4.33E-15));
#187 = DIRECTION('',(0.,3.3E-16,1.));
#188 = DIRECTION('',(-1.,0.,0.));
#189 = ADVANCED_FACE('',(#190,#248),#282,.F.);
#190 = FACE_BOUND('',#191,.T.);
#191 = EDGE_LOOP('',(#192,#200,#209,#217,#225,#233,#239,#240,#247));
#192 = ORIENTED_EDGE('',*,*,#193,.F.);
#193 = EDGE_CURVE('',#194,#24,#196,.T.);
#194 = VERTEX_POINT('',#195);
#195 = CARTESIAN_POINT('',(20.,42.7,10.));
#196 = LINE('',#197,#198);
#197 = CARTESIAN_POINT('',(20.,55.7,10.));
#198 = VECTOR('',#199,1.);
#199 = DIRECTION('',(0.,-1.,6.7E-16));
#200 = ORIENTED_EDGE('',*,*,#201,.T.);
#201 = EDGE_CURVE('',#194,#202,#204,.T.);
#202 = VERTEX_POINT('',#203);
#203 = CARTESIAN_POINT('',(23.,45.7,10.));
#204 = CIRCLE('',#205,3.);
#205 = AXIS2_PLACEMENT_3D('',#206,#207,#208);
#206 = CARTESIAN_POINT('',(23.,42.7,10.));
#207 = DIRECTION('',(-0.,-7.8E-16,-1.));
#208 = DIRECTION('',(0.,-1.,7.8E-16));
#209 = ORIENTED_EDGE('',*,*,#210,.F.);
#210 = EDGE_CURVE('',#211,#202,#213,.T.);
#211 = VERTEX_POINT('',#212);
#212 = CARTESIAN_POINT('',(20.,45.7,10.));
#213 = LINE('',#214,#215);
#214 = CARTESIAN_POINT('',(20.,45.7,10.));
#215 = VECTOR('',#216,1.);
#216 = DIRECTION('',(1.,0.,0.));
#217 = ORIENTED_EDGE('',*,*,#218,.F.);
#218 = EDGE_CURVE('',#219,#211,#221,.T.);
#219 = VERTEX_POINT('',#220);
#220 = CARTESIAN_POINT('',(20.,55.7,10.));
#221 = LINE('',#222,#223);
#222 = CARTESIAN_POINT('',(20.,55.7,10.));
#223 = VECTOR('',#224,1.);
#224 = DIRECTION('',(0.,-1.,6.7E-16));
#225 = ORIENTED_EDGE('',*,*,#226,.F.);
#226 = EDGE_CURVE('',#227,#219,#229,.T.);
#227 = VERTEX_POINT('',#228);
#228 = CARTESIAN_POINT('',(0.,55.7,10.));
#229 = LINE('',#230,#231);
#230 = CARTESIAN_POINT('',(0.,55.7,10.));
#231 = VECTOR('',#232,1.);
#232 = DIRECTION('',(1.,0.,0.));
#233 = ORIENTED_EDGE('',*,*,#234,.F.);
#234 = EDGE_CURVE('',#65,#227,#235,.T.);
#235 = LINE('',#236,#237);
#236 = CARTESIAN_POINT('',(0.,27.85,10.));
#237 = VECTOR('',#238,1.);
#238 = DIRECTION('',(0.,1.,-6.7E-16));
#239 = ORIENTED_EDGE('',*,*,#72,.F.);
#240 = ORIENTED_EDGE('',*,*,#241,.T.);
#241 = EDGE_CURVE('',#73,#81,#242,.T.);
#242 = CIRCLE('',#243,2.7);
#243 = AXIS2_PLACEMENT_3D('',#244,#245,#246);
#244 = CARTESIAN_POINT('',(10.,27.85,10.));
#245 = DIRECTION('',(0.,-1.E-15,-1.));
#246 = DIRECTION('',(1.,0.,0.));
#247 = ORIENTED_EDGE('',*,*,#89,.F.);
#248 = FACE_BOUND('',#249,.T.);
#249 = EDGE_LOOP('',(#250,#260,#268,#276));
#250 = ORIENTED_EDGE('',*,*,#251,.T.);
#251 = EDGE_CURVE('',#252,#254,#256,.T.);
#252 = VERTEX_POINT('',#253);
#253 = CARTESIAN_POINT('',(7.,31.,10.));
#254 = VERTEX_POINT('',#255);
#255 = CARTESIAN_POINT('',(7.,37.,10.));
#256 = LINE('',#257,#258);
#257 = CARTESIAN_POINT('',(7.,31.,10.));
#258 = VECTOR('',#259,1.);
#259 = DIRECTION('',(0.,1.,-1.E-15));
#260 = ORIENTED_EDGE('',*,*,#261,.T.);
#261 = EDGE_CURVE('',#254,#262,#264,.T.);
#262 = VERTEX_POINT('',#263);
#263 = CARTESIAN_POINT('',(13.,37.,10.));
#264 = LINE('',#265,#266);
#265 = CARTESIAN_POINT('',(7.,37.,10.));
#266 = VECTOR('',#267,1.);
#267 = DIRECTION('',(1.,0.,0.));
#268 = ORIENTED_EDGE('',*,*,#269,.T.);
#269 = EDGE_CURVE('',#262,#270,#272,.T.);
#270 = VERTEX_POINT('',#271);
#271 = CARTESIAN_POINT('',(13.,31.,10.));
#272 = LINE('',#273,#274);
#273 = CARTESIAN_POINT('',(13.,37.,10.));
#274 = VECTOR('',#275,1.);
#275 = DIRECTION('',(0.,-1.,1.E-15));
#276 = ORIENTED_EDGE('',*,*,#277,.T.);
#277 = EDGE_CURVE('',#270,#252,#278,.T.);
#278 = LINE('',#279,#280);
#279 = CARTESIAN_POINT('',(13.,31.,10.));
#280 = VECTOR('',#281,1.);
#281 = DIRECTION('',(-1.,0.,0.));
#282 = PLANE('',#283);
#283 = AXIS2_PLACEMENT_3D('',#284,#285,#286);
#284 = CARTESIAN_POINT('',(10.,41.775,10.));
#285 = DIRECTION('',(0.,-1.04E-15,-1.));
#286 = DIRECTION('',(0.,1.,-1.04E-15));
#287 = ADVANCED_FACE('',(#288,#349,#399),#449,.F.);
#288 = FACE_BOUND('',#289,.F.);
#289 = EDGE_LOOP('',(#290,#298,#307,#315,#324,#332,#341,#347,#348));
#290 = ORIENTED_EDGE('',*,*,#291,.F.);
#291 = EDGE_CURVE('',#292,#169,#294,.T.);
#292 = VERTEX_POINT('',#293);
#293 = CARTESIAN_POINT('',(27.,10.,-3.E-15));
#294 = LINE('',#295,#296);
#295 = CARTESIAN_POINT('',(30.,10.,0.));
#296 = VECTOR('',#297,1.);
#297 = DIRECTION('',(-1.,0.,0.));
#298 = ORIENTED_EDGE('',*,*,#299,.T.);
#299 = EDGE_CURVE('',#292,#300,#302,.T.);
#300 = VERTEX_POINT('',#301);
#301 = CARTESIAN_POINT('',(30.,10.,3.));
#302 = CIRCLE('',#303,3.);
#303 = AXIS2_PLACEMENT_3D('',#304,#305,#306);
#304 = CARTESIAN_POINT('',(27.,10.,3.));
#305 = DIRECTION('',(0.,-1.,2.2E-16));
#306 = DIRECTION('',(0.,2.2E-16,1.));
#307 = ORIENTED_EDGE('',*,*,#308,.T.);
#308 = EDGE_CURVE('',#300,#309,#311,.T.);
#309 = VERTEX_POINT('',#310);
#310 = CARTESIAN_POINT('',(30.,10.,27.));
#311 = LINE('',#312,#313);
#312 = CARTESIAN_POINT('',(30.,10.,0.));
#313 = VECTOR('',#314,1.);
#314 = DIRECTION('',(0.,0.,1.));
#315 = ORIENTED_EDGE('',*,*,#316,.T.);
#316 = EDGE_CURVE('',#309,#317,#319,.T.);
#317 = VERTEX_POINT('',#318);
#318 = CARTESIAN_POINT('',(27.,10.,30.));
#319 = CIRCLE('',#320,3.);
#320 = AXIS2_PLACEMENT_3D('',#321,#322,#323);
#321 = CARTESIAN_POINT('',(27.,10.,27.));
#322 = DIRECTION('',(0.,-1.,2.2E-16));
#323 = DIRECTION('',(0.,2.2E-16,1.));
#324 = ORIENTED_EDGE('',*,*,#325,.T.);
#325 = EDGE_CURVE('',#317,#326,#328,.T.);
#326 = VERTEX_POINT('',#327);
#327 = CARTESIAN_POINT('',(23.,10.,30.));
#328 = LINE('',#329,#330);
#329 = CARTESIAN_POINT('',(30.,10.,30.));
#330 = VECTOR('',#331,1.);
#331 = DIRECTION('',(-1.,0.,0.));
#332 = ORIENTED_EDGE('',*,*,#333,.F.);
#333 = EDGE_CURVE('',#334,#326,#336,.T.);
#334 = VERTEX_POINT('',#335);
#335 = CARTESIAN_POINT('',(20.,10.,27.));
#336 = CIRCLE('',#337,3.);
#337 = AXIS2_PLACEMENT_3D('',#338,#339,#340);
#338 = CARTESIAN_POINT('',(23.,10.,27.));
#339 = DIRECTION('',(0.,1.,-2.2E-16));
#340 = DIRECTION('',(0.,2.2E-16,1.));
#341 = ORIENTED_EDGE('',*,*,#342,.F.);
#342 = EDGE_CURVE('',#41,#334,#343,.T.);
#343 = LINE('',#344,#345);
#344 = CARTESIAN_POINT('',(20.,10.,0.));
#345 = VECTOR('',#346,1.);
#346 = DIRECTION('',(0.,0.,1.));
#347 = ORIENTED_EDGE('',*,*,#40,.T.);
#348 = ORIENTED_EDGE('',*,*,#177,.F.);
#349 = FACE_BOUND('',#350,.F.);
#350 = EDGE_LOOP('',(#351,#361,#369,#377,#385,#393));
#351 = ORIENTED_EDGE('',*,*,#352,.T.);
#352 = EDGE_CURVE('',#353,#355,#357,.T.);
#353 = VERTEX_POINT('',#354);
#354 = CARTESIAN_POINT('',(26.602146997001,10.,22.225));
#355 = VERTEX_POINT('',#356);
#356 = CARTESIAN_POINT('',(23.397853002999,10.,22.225));
#357 = LINE('',#358,#359);
#358 = CARTESIAN_POINT('',(26.602146997001,10.,22.225));
#359 = VECTOR('',#360,1.);
#360 = DIRECTION('',(-1.,0.,0.));
#361 = ORIENTED_EDGE('',*,*,#362,.T.);
#362 = EDGE_CURVE('',#355,#363,#365,.T.);
#363 = VERTEX_POINT('',#364);
#364 = CARTESIAN_POINT('',(21.795706005998,10.,25.));
#365 = LINE('',#366,#367);
#366 = CARTESIAN_POINT('',(23.397853002999,10.,22.225));
#367 = VECTOR('',#368,1.);
#368 = DIRECTION('',(-0.5,8.660254037844E-16,0.866025403784));
#369 = ORIENTED_EDGE('',*,*,#370,.T.);
#370 = EDGE_CURVE('',#363,#371,#373,.T.);
#371 = VERTEX_POINT('',#372);
#372 = CARTESIAN_POINT('',(23.397853002999,10.,27.775));
#373 = LINE('',#374,#375);
#374 = CARTESIAN_POINT('',(21.795706005998,10.,25.));
#375 = VECTOR('',#376,1.);
#376 = DIRECTION('',(0.5,8.660254037844E-16,0.866025403784));
#377 = ORIENTED_EDGE('',*,*,#378,.T.);
#378 = EDGE_CURVE('',#371,#379,#381,.T.);
#379 = VERTEX_POINT('',#380);
#380 = CARTESIAN_POINT('',(26.602146997001,10.,27.775));
#381 = LINE('',#382,#383);
#382 = CARTESIAN_POINT('',(23.397853002999,10.,27.775));
#383 = VECTOR('',#384,1.);
#384 = DIRECTION('',(1.,0.,0.));
#385 = ORIENTED_EDGE('',*,*,#386,.T.);
#386 = EDGE_CURVE('',#379,#387,#389,.T.);
#387 = VERTEX_POINT('',#388);
#388 = CARTESIAN_POINT('',(28.204293994002,10.,25.));
#389 = LINE('',#390,#391);
#390 = CARTESIAN_POINT('',(26.602146997001,10.,27.775));
#391 = VECTOR('',#392,1.);
#392 = DIRECTION('',(0.5,-8.660254037844E-16,-0.866025403784));
#393 = ORIENTED_EDGE('',*,*,#394,.T.);
#394 = EDGE_CURVE('',#387,#353,#395,.T.);
#395 = LINE('',#396,#397);
#396 = CARTESIAN_POINT('',(28.204293994002,10.,25.));
#397 = VECTOR('',#398,1.);
#398 = DIRECTION('',(-0.5,-8.660254037844E-16,-0.866025403784));
#399 = FACE_BOUND('',#400,.F.);
#400 = EDGE_LOOP('',(#401,#411,#419,#427,#435,#443));
#401 = ORIENTED_EDGE('',*,*,#402,.T.);
#402 = EDGE_CURVE('',#403,#405,#407,.T.);
#403 = VERTEX_POINT('',#404);
#404 = CARTESIAN_POINT('',(26.602146997001,10.,12.225));
#405 = VERTEX_POINT('',#406);
#406 = CARTESIAN_POINT('',(23.397853002999,10.,12.225));
#407 = LINE('',#408,#409);
#408 = CARTESIAN_POINT('',(26.602146997001,10.,12.225));
#409 = VECTOR('',#410,1.);
#410 = DIRECTION('',(-1.,0.,0.));
#411 = ORIENTED_EDGE('',*,*,#412,.T.);
#412 = EDGE_CURVE('',#405,#413,#415,.T.);
#413 = VERTEX_POINT('',#414);
#414 = CARTESIAN_POINT('',(21.795706005998,10.,15.));
#415 = LINE('',#416,#417);
#416 = CARTESIAN_POINT('',(23.397853002999,10.,12.225));
#417 = VECTOR('',#418,1.);
#418 = DIRECTION('',(-0.5,8.660254037844E-16,0.866025403784));
#419 = ORIENTED_EDGE('',*,*,#420,.T.);
#420 = EDGE_CURVE('',#413,#421,#423,.T.);
#421 = VERTEX_POINT('',#422);
#422 = CARTESIAN_POINT('',(23.397853002999,10.,17.775));
#423 = LINE('',#424,#425);
#424 = CARTESIAN_POINT('',(21.795706005998,10.,15.));
#425 = VECTOR('',#426,1.);
#426 = DIRECTION('',(0.5,8.660254037844E-16,0.866025403784));
#427 = ORIENTED_EDGE('',*,*,#428,.T.);
#428 = EDGE_CURVE('',#421,#429,#431,.T.);
#429 = VERTEX_POINT('',#430);
#430 = CARTESIAN_POINT('',(26.602146997001,10.,17.775));
#431 = LINE('',#432,#433);
#432 = CARTESIAN_POINT('',(23.397853002999,10.,17.775));
#433 = VECTOR('',#434,1.);
#434 = DIRECTION('',(1.,0.,0.));
#435 = ORIENTED_EDGE('',*,*,#436,.T.);
#436 = EDGE_CURVE('',#429,#437,#439,.T.);
#437 = VERTEX_POINT('',#438);
#438 = CARTESIAN_POINT('',(28.204293994002,10.,15.));
#439 = LINE('',#440,#441);
#440 = CARTESIAN_POINT('',(26.602146997001,10.,17.775));
#441 = VECTOR('',#442,1.);
#442 = DIRECTION('',(0.5,-8.660254037844E-16,-0.866025403784));
#443 = ORIENTED_EDGE('',*,*,#444,.T.);
#444 = EDGE_CURVE('',#437,#403,#445,.T.);
#445 = LINE('',#446,#447);
#446 = CARTESIAN_POINT('',(28.204293994002,10.,15.));
#447 = VECTOR('',#448,1.);
#448 = DIRECTION('',(-0.5,-8.660254037844E-16,-0.866025403784));
#449 = PLANE('',#450);
#450 = AXIS2_PLACEMENT_3D('',#451,#452,#453);
#451 = CARTESIAN_POINT('',(30.,10.,0.));
#452 = DIRECTION('',(0.,-1.,0.));
#453 = DIRECTION('',(-1.,0.,0.));
#454 = ADVANCED_FACE('',(#455),#484,.F.);
#455 = FACE_BOUND('',#456,.F.);
#456 = EDGE_LOOP('',(#457,#468,#474,#475,#476,#477));
#457 = ORIENTED_EDGE('',*,*,#458,.F.);
#458 = EDGE_CURVE('',#459,#461,#463,.T.);
#459 = VERTEX_POINT('',#460);
#460 = CARTESIAN_POINT('',(12.7,27.85,3.15E-15));
#461 = VERTEX_POINT('',#462);
#462 = CARTESIAN_POINT('',(7.3,27.85,-2.E-15));
#463 = CIRCLE('',#464,2.7);
#464 = AXIS2_PLACEMENT_3D('',#465,#466,#467);
#465 = CARTESIAN_POINT('',(10.,27.85,3.15E-15));
#466 = DIRECTION('',(0.,-1.E-15,-1.));
#467 = DIRECTION('',(1.,0.,0.));
#468 = ORIENTED_EDGE('',*,*,#469,.T.);
#469 = EDGE_CURVE('',#459,#81,#470,.T.);
#470 = LINE('',#471,#472);
#471 = CARTESIAN_POINT('',(12.7,27.85,3.E-15));
#472 = VECTOR('',#473,1.);
#473 = DIRECTION('',(0.,1.E-15,1.));
#474 = ORIENTED_EDGE('',*,*,#80,.T.);
#475 = ORIENTED_EDGE('',*,*,#241,.T.);
#476 = ORIENTED_EDGE('',*,*,#469,.F.);
#477 = ORIENTED_EDGE('',*,*,#478,.F.);
#478 = EDGE_CURVE('',#461,#459,#479,.T.);
#479 = CIRCLE('',#480,2.7);
#480 = AXIS2_PLACEMENT_3D('',#481,#482,#483);
#481 = CARTESIAN_POINT('',(10.,27.85,3.15E-15));
#482 = DIRECTION('',(0.,-1.E-15,-1.));
#483 = DIRECTION('',(1.,0.,0.));
#484 = CYLINDRICAL_SURFACE('',#485,2.7);
#485 = AXIS2_PLACEMENT_3D('',#486,#487,#488);
#486 = CARTESIAN_POINT('',(10.,27.85,3.E-15));
#487 = DIRECTION('',(0.,-1.E-15,-1.));
#488 = DIRECTION('',(1.,0.,0.));
#489 = ADVANCED_FACE('',(#490),#508,.F.);
#490 = FACE_BOUND('',#491,.F.);
#491 = EDGE_LOOP('',(#492,#500,#501,#502));
#492 = ORIENTED_EDGE('',*,*,#493,.F.);
#493 = EDGE_CURVE('',#49,#494,#496,.T.);
#494 = VERTEX_POINT('',#495);
#495 = CARTESIAN_POINT('',(20.,6.E-15,27.));
#496 = LINE('',#497,#498);
#497 = CARTESIAN_POINT('',(20.,0.,0.));
#498 = VECTOR('',#499,1.);
#499 = DIRECTION('',(0.,0.,1.));
#500 = ORIENTED_EDGE('',*,*,#48,.T.);
#501 = ORIENTED_EDGE('',*,*,#342,.T.);
#502 = ORIENTED_EDGE('',*,*,#503,.F.);
#503 = EDGE_CURVE('',#494,#334,#504,.T.);
#504 = LINE('',#505,#506);
#505 = CARTESIAN_POINT('',(20.,-1.E-17,27.));
#506 = VECTOR('',#507,1.);
#507 = DIRECTION('',(0.,1.,-2.2E-16));
#508 = PLANE('',#509);
#509 = AXIS2_PLACEMENT_3D('',#510,#511,#512);
#510 = CARTESIAN_POINT('',(20.,0.,30.));
#511 = DIRECTION('',(1.,0.,0.));
#512 = DIRECTION('',(0.,1.,0.));
#513 = ADVANCED_FACE('',(#514),#539,.F.);
#514 = FACE_BOUND('',#515,.F.);
#515 = EDGE_LOOP('',(#516,#526,#532,#533));
#516 = ORIENTED_EDGE('',*,*,#517,.F.);
#517 = EDGE_CURVE('',#518,#520,#522,.T.);
#518 = VERTEX_POINT('',#519);
#519 = CARTESIAN_POINT('',(0.,0.,0.));
#520 = VERTEX_POINT('',#521);
#521 = CARTESIAN_POINT('',(20.,0.,0.));
#522 = LINE('',#523,#524);
#523 = CARTESIAN_POINT('',(0.,0.,0.));
#524 = VECTOR('',#525,1.);
#525 = DIRECTION('',(1.,0.,0.));
#526 = ORIENTED_EDGE('',*,*,#527,.T.);
#527 = EDGE_CURVE('',#518,#57,#528,.T.);
#528 = LINE('',#529,#530);
#529 = CARTESIAN_POINT('',(0.,0.,0.));
#530 = VECTOR('',#531,1.);
#531 = DIRECTION('',(0.,0.,1.));
#532 = ORIENTED_EDGE('',*,*,#56,.T.);
#533 = ORIENTED_EDGE('',*,*,#534,.F.);
#534 = EDGE_CURVE('',#520,#49,#535,.T.);
#535 = LINE('',#536,#537);
#536 = CARTESIAN_POINT('',(20.,0.,0.));
#537 = VECTOR('',#538,1.);
#538 = DIRECTION('',(0.,0.,1.));
#539 = PLANE('',#540);
#540 = AXIS2_PLACEMENT_3D('',#541,#542,#543);
#541 = CARTESIAN_POINT('',(0.,0.,0.));
#542 = DIRECTION('',(0.,1.,0.));
#543 = DIRECTION('',(1.,0.,0.));
#544 = ADVANCED_FACE('',(#545),#563,.F.);
#545 = FACE_BOUND('',#546,.F.);
#546 = EDGE_LOOP('',(#547,#555,#561,#562));
#547 = ORIENTED_EDGE('',*,*,#548,.F.);
#548 = EDGE_CURVE('',#549,#518,#551,.T.);
#549 = VERTEX_POINT('',#550);
#550 = CARTESIAN_POINT('',(0.,27.85,0.));
#551 = LINE('',#552,#553);
#552 = CARTESIAN_POINT('',(0.,27.85,0.));
#553 = VECTOR('',#554,1.);
#554 = DIRECTION('',(0.,-1.,0.));
#555 = ORIENTED_EDGE('',*,*,#556,.T.);
#556 = EDGE_CURVE('',#549,#65,#557,.T.);
#557 = LINE('',#558,#559);
#558 = CARTESIAN_POINT('',(0.,27.85,0.));
#559 = VECTOR('',#560,1.);
#560 = DIRECTION('',(0.,0.,1.));
#561 = ORIENTED_EDGE('',*,*,#64,.T.);
#562 = ORIENTED_EDGE('',*,*,#527,.F.);
#563 = PLANE('',#564);
#564 = AXIS2_PLACEMENT_3D('',#565,#566,#567);
#565 = CARTESIAN_POINT('',(0.,27.85,0.));
#566 = DIRECTION('',(1.,0.,0.));
#567 = DIRECTION('',(0.,-1.,0.));
#568 = ADVANCED_FACE('',(#569),#594,.T.);
#569 = FACE_BOUND('',#570,.T.);
#570 = EDGE_LOOP('',(#571,#579,#587,#593));
#571 = ORIENTED_EDGE('',*,*,#572,.T.);
#572 = EDGE_CURVE('',#98,#573,#575,.T.);
#573 = VERTEX_POINT('',#574);
#574 = CARTESIAN_POINT('',(7.,24.7,14.));
#575 = LINE('',#576,#577);
#576 = CARTESIAN_POINT('',(7.,24.7,10.));
#577 = VECTOR('',#578,1.);
#578 = DIRECTION('',(0.,1.E-15,1.));
#579 = ORIENTED_EDGE('',*,*,#580,.T.);
#580 = EDGE_CURVE('',#573,#581,#583,.T.);
#581 = VERTEX_POINT('',#582);
#582 = CARTESIAN_POINT('',(13.,24.7,14.));
#583 = LINE('',#584,#585);
#584 = CARTESIAN_POINT('',(7.,24.7,14.));
#585 = VECTOR('',#586,1.);
#586 = DIRECTION('',(1.,0.,0.));
#587 = ORIENTED_EDGE('',*,*,#588,.F.);
#588 = EDGE_CURVE('',#100,#581,#589,.T.);
#589 = LINE('',#590,#591);
#590 = CARTESIAN_POINT('',(13.,24.7,10.));
#591 = VECTOR('',#592,1.);
#592 = DIRECTION('',(0.,1.E-15,1.));
#593 = ORIENTED_EDGE('',*,*,#97,.F.);
#594 = PLANE('',#595);
#595 = AXIS2_PLACEMENT_3D('',#596,#597,#598);
#596 = CARTESIAN_POINT('',(7.,24.7,10.));
#597 = DIRECTION('',(0.,1.,-1.E-15));
#598 = DIRECTION('',(1.,0.,0.));
#599 = ADVANCED_FACE('',(#600),#618,.T.);
#600 = FACE_BOUND('',#601,.T.);
#601 = EDGE_LOOP('',(#602,#603,#611,#617));
#602 = ORIENTED_EDGE('',*,*,#588,.T.);
#603 = ORIENTED_EDGE('',*,*,#604,.T.);
#604 = EDGE_CURVE('',#581,#605,#607,.T.);
#605 = VERTEX_POINT('',#606);
#606 = CARTESIAN_POINT('',(13.,18.7,14.));
#607 = LINE('',#608,#609);
#608 = CARTESIAN_POINT('',(13.,24.7,14.));
#609 = VECTOR('',#610,1.);
#610 = DIRECTION('',(0.,-1.,1.E-15));
#611 = ORIENTED_EDGE('',*,*,#612,.F.);
#612 = EDGE_CURVE('',#116,#605,#613,.T.);
#613 = LINE('',#614,#615);
#614 = CARTESIAN_POINT('',(13.,18.7,10.));
#615 = VECTOR('',#616,1.);
#616 = DIRECTION('',(0.,1.E-15,1.));
#617 = ORIENTED_EDGE('',*,*,#123,.F.);
#618 = PLANE('',#619);
#619 = AXIS2_PLACEMENT_3D('',#620,#621,#622);
#620 = CARTESIAN_POINT('',(13.,24.7,10.));
#621 = DIRECTION('',(1.,0.,0.));
#622 = DIRECTION('',(0.,-1.,1.E-15));
#623 = ADVANCED_FACE('',(#624),#642,.T.);
#624 = FACE_BOUND('',#625,.T.);
#625 = EDGE_LOOP('',(#626,#627,#635,#641));
#626 = ORIENTED_EDGE('',*,*,#612,.T.);
#627 = ORIENTED_EDGE('',*,*,#628,.T.);
#628 = EDGE_CURVE('',#605,#629,#631,.T.);
#629 = VERTEX_POINT('',#630);
#630 = CARTESIAN_POINT('',(7.,18.7,14.));
#631 = LINE('',#632,#633);
#632 = CARTESIAN_POINT('',(13.,18.7,14.));
#633 = VECTOR('',#634,1.);
#634 = DIRECTION('',(-1.,0.,0.));
#635 = ORIENTED_EDGE('',*,*,#636,.F.);
#636 = EDGE_CURVE('',#108,#629,#637,.T.);
#637 = LINE('',#638,#639);
#638 = CARTESIAN_POINT('',(7.,18.7,10.));
#639 = VECTOR('',#640,1.);
#640 = DIRECTION('',(0.,1.E-15,1.));
#641 = ORIENTED_EDGE('',*,*,#115,.F.);
#642 = PLANE('',#643);
#643 = AXIS2_PLACEMENT_3D('',#644,#645,#646);
#644 = CARTESIAN_POINT('',(13.,18.7,10.));
#645 = DIRECTION('',(0.,-1.,1.E-15));
#646 = DIRECTION('',(-1.,0.,0.));
#647 = ADVANCED_FACE('',(#648),#659,.T.);
#648 = FACE_BOUND('',#649,.T.);
#649 = EDGE_LOOP('',(#650,#651,#657,#658));
#650 = ORIENTED_EDGE('',*,*,#636,.T.);
#651 = ORIENTED_EDGE('',*,*,#652,.T.);
#652 = EDGE_CURVE('',#629,#573,#653,.T.);
#653 = LINE('',#654,#655);
#654 = CARTESIAN_POINT('',(7.,18.7,14.));
#655 = VECTOR('',#656,1.);
#656 = DIRECTION('',(0.,1.,-1.E-15));
#657 = ORIENTED_EDGE('',*,*,#572,.F.);
#658 = ORIENTED_EDGE('',*,*,#107,.F.);
#659 = PLANE('',#660);
#660 = AXIS2_PLACEMENT_3D('',#661,#662,#663);
#661 = CARTESIAN_POINT('',(7.,18.7,10.));
#662 = DIRECTION('',(-1.,0.,0.));
#663 = DIRECTION('',(0.,1.,-1.E-15));
#664 = ADVANCED_FACE('',(#665),#699,.T.);
#665 = FACE_BOUND('',#666,.T.);
#666 = EDGE_LOOP('',(#667,#668,#676,#682,#683,#684,#690,#691,#697,#698)
  );
#667 = ORIENTED_EDGE('',*,*,#291,.F.);
#668 = ORIENTED_EDGE('',*,*,#669,.F.);
#669 = EDGE_CURVE('',#670,#292,#672,.T.);
#670 = VERTEX_POINT('',#671);
#671 = CARTESIAN_POINT('',(27.,-1.E-15,0.));
#672 = LINE('',#673,#674);
#673 = CARTESIAN_POINT('',(27.,-6.6E-16,-4.4E-16));
#674 = VECTOR('',#675,1.);
#675 = DIRECTION('',(0.,1.,-2.2E-16));
#676 = ORIENTED_EDGE('',*,*,#677,.F.);
#677 = EDGE_CURVE('',#520,#670,#678,.T.);
#678 = LINE('',#679,#680);
#679 = CARTESIAN_POINT('',(20.,0.,0.));
#680 = VECTOR('',#681,1.);
#681 = DIRECTION('',(1.,0.,0.));
#682 = ORIENTED_EDGE('',*,*,#517,.F.);
#683 = ORIENTED_EDGE('',*,*,#548,.F.);
#684 = ORIENTED_EDGE('',*,*,#685,.F.);
#685 = EDGE_CURVE('',#461,#549,#686,.T.);
#686 = LINE('',#687,#688);
#687 = CARTESIAN_POINT('',(20.,27.85,0.));
#688 = VECTOR('',#689,1.);
#689 = DIRECTION('',(-1.,0.,0.));
#690 = ORIENTED_EDGE('',*,*,#458,.F.);
#691 = ORIENTED_EDGE('',*,*,#692,.F.);
#692 = EDGE_CURVE('',#140,#459,#693,.T.);
#693 = LINE('',#694,#695);
#694 = CARTESIAN_POINT('',(20.,27.85,0.));
#695 = VECTOR('',#696,1.);
#696 = DIRECTION('',(-1.,0.,0.));
#697 = ORIENTED_EDGE('',*,*,#137,.F.);
#698 = ORIENTED_EDGE('',*,*,#168,.T.);
#699 = PLANE('',#700);
#700 = AXIS2_PLACEMENT_3D('',#701,#702,#703);
#701 = CARTESIAN_POINT('',(13.457216940363,12.382216940363,2.75E-15));
#702 = DIRECTION('',(0.,2.2E-16,-1.));
#703 = DIRECTION('',(0.,1.,2.2E-16));
#704 = ADVANCED_FACE('',(#705),#723,.F.);
#705 = FACE_BOUND('',#706,.T.);
#706 = EDGE_LOOP('',(#707,#715,#721,#722));
#707 = ORIENTED_EDGE('',*,*,#708,.F.);
#708 = EDGE_CURVE('',#709,#140,#711,.T.);
#709 = VERTEX_POINT('',#710);
#710 = CARTESIAN_POINT('',(20.,42.7,-1.5E-14));
#711 = LINE('',#712,#713);
#712 = CARTESIAN_POINT('',(20.,45.7,-1.189E-14));
#713 = VECTOR('',#714,1.);
#714 = DIRECTION('',(0.,-1.,6.7E-16));
#715 = ORIENTED_EDGE('',*,*,#716,.T.);
#716 = EDGE_CURVE('',#709,#194,#717,.T.);
#717 = LINE('',#718,#719);
#718 = CARTESIAN_POINT('',(20.,42.7,-1.463E-14));
#719 = VECTOR('',#720,1.);
#720 = DIRECTION('',(0.,7.8E-16,1.));
#721 = ORIENTED_EDGE('',*,*,#193,.T.);
#722 = ORIENTED_EDGE('',*,*,#154,.F.);
#723 = PLANE('',#724);
#724 = AXIS2_PLACEMENT_3D('',#725,#726,#727);
#725 = CARTESIAN_POINT('',(20.,45.7,-1.189E-14));
#726 = DIRECTION('',(-1.,0.,0.));
#727 = DIRECTION('',(0.,1.,-6.7E-16));
#728 = ADVANCED_FACE('',(#729),#748,.F.);
#729 = FACE_BOUND('',#730,.T.);
#730 = EDGE_LOOP('',(#731,#740,#746,#747));
#731 = ORIENTED_EDGE('',*,*,#732,.T.);
#732 = EDGE_CURVE('',#709,#733,#735,.T.);
#733 = VERTEX_POINT('',#734);
#734 = CARTESIAN_POINT('',(23.,45.7,-1.7E-14));
#735 = CIRCLE('',#736,3.);
#736 = AXIS2_PLACEMENT_3D('',#737,#738,#739);
#737 = CARTESIAN_POINT('',(23.,42.7,-1.175E-14));
#738 = DIRECTION('',(-0.,-7.8E-16,-1.));
#739 = DIRECTION('',(0.,-1.,7.8E-16));
#740 = ORIENTED_EDGE('',*,*,#741,.T.);
#741 = EDGE_CURVE('',#733,#202,#742,.T.);
#742 = LINE('',#743,#744);
#743 = CARTESIAN_POINT('',(23.,45.7,-1.696E-14));
#744 = VECTOR('',#745,1.);
#745 = DIRECTION('',(0.,7.8E-16,1.));
#746 = ORIENTED_EDGE('',*,*,#201,.F.);
#747 = ORIENTED_EDGE('',*,*,#716,.F.);
#748 = CYLINDRICAL_SURFACE('',#749,3.);
#749 = AXIS2_PLACEMENT_3D('',#750,#751,#752);
#750 = CARTESIAN_POINT('',(23.,42.7,-1.463E-14));
#751 = DIRECTION('',(0.,7.8E-16,1.));
#752 = DIRECTION('',(-1.,0.,0.));
#753 = ADVANCED_FACE('',(#754,#815,#865),#915,.F.);
#754 = FACE_BOUND('',#755,.T.);
#755 = EDGE_LOOP('',(#756,#764,#773,#781,#790,#798,#807,#813,#814));
#756 = ORIENTED_EDGE('',*,*,#757,.F.);
#757 = EDGE_CURVE('',#758,#733,#760,.T.);
#758 = VERTEX_POINT('',#759);
#759 = CARTESIAN_POINT('',(27.,45.7,-1.2E-14));
#760 = LINE('',#761,#762);
#761 = CARTESIAN_POINT('',(30.,45.7,-1.189E-14));
#762 = VECTOR('',#763,1.);
#763 = DIRECTION('',(-1.,0.,0.));
#764 = ORIENTED_EDGE('',*,*,#765,.T.);
#765 = EDGE_CURVE('',#758,#766,#768,.T.);
#766 = VERTEX_POINT('',#767);
#767 = CARTESIAN_POINT('',(30.,45.7,3.));
#768 = CIRCLE('',#769,3.);
#769 = AXIS2_PLACEMENT_3D('',#770,#771,#772);
#770 = CARTESIAN_POINT('',(27.,45.7,3.));
#771 = DIRECTION('',(0.,-1.,6.7E-16));
#772 = DIRECTION('',(0.,-6.7E-16,-1.));
#773 = ORIENTED_EDGE('',*,*,#774,.T.);
#774 = EDGE_CURVE('',#766,#775,#777,.T.);
#775 = VERTEX_POINT('',#776);
#776 = CARTESIAN_POINT('',(30.,45.7,27.));
#777 = LINE('',#778,#779);
#778 = CARTESIAN_POINT('',(30.,45.7,-1.189E-14));
#779 = VECTOR('',#780,1.);
#780 = DIRECTION('',(0.,6.7E-16,1.));
#781 = ORIENTED_EDGE('',*,*,#782,.T.);
#782 = EDGE_CURVE('',#775,#783,#785,.T.);
#783 = VERTEX_POINT('',#784);
#784 = CARTESIAN_POINT('',(27.,45.7,30.));
#785 = CIRCLE('',#786,3.);
#786 = AXIS2_PLACEMENT_3D('',#787,#788,#789);
#787 = CARTESIAN_POINT('',(27.,45.7,27.));
#788 = DIRECTION('',(0.,-1.,6.7E-16));
#789 = DIRECTION('',(0.,-6.7E-16,-1.));
#790 = ORIENTED_EDGE('',*,*,#791,.T.);
#791 = EDGE_CURVE('',#783,#792,#794,.T.);
#792 = VERTEX_POINT('',#793);
#793 = CARTESIAN_POINT('',(23.,45.7,30.));
#794 = LINE('',#795,#796);
#795 = CARTESIAN_POINT('',(30.,45.7,30.));
#796 = VECTOR('',#797,1.);
#797 = DIRECTION('',(-1.,0.,0.));
#798 = ORIENTED_EDGE('',*,*,#799,.F.);
#799 = EDGE_CURVE('',#800,#792,#802,.T.);
#800 = VERTEX_POINT('',#801);
#801 = CARTESIAN_POINT('',(20.,45.7,27.));
#802 = CIRCLE('',#803,3.);
#803 = AXIS2_PLACEMENT_3D('',#804,#805,#806);
#804 = CARTESIAN_POINT('',(23.,45.7,27.));
#805 = DIRECTION('',(0.,1.,-6.7E-16));
#806 = DIRECTION('',(0.,-6.7E-16,-1.));
#807 = ORIENTED_EDGE('',*,*,#808,.F.);
#808 = EDGE_CURVE('',#211,#800,#809,.T.);
#809 = LINE('',#810,#811);
#810 = CARTESIAN_POINT('',(20.,45.7,-1.189E-14));
#811 = VECTOR('',#812,1.);
#812 = DIRECTION('',(0.,6.7E-16,1.));
#813 = ORIENTED_EDGE('',*,*,#210,.T.);
#814 = ORIENTED_EDGE('',*,*,#741,.F.);
#815 = FACE_BOUND('',#816,.T.);
#816 = EDGE_LOOP('',(#817,#827,#835,#843,#851,#859));
#817 = ORIENTED_EDGE('',*,*,#818,.F.);
#818 = EDGE_CURVE('',#819,#821,#823,.T.);
#819 = VERTEX_POINT('',#820);
#820 = CARTESIAN_POINT('',(28.204293994002,45.7,24.999999999999));
#821 = VERTEX_POINT('',#822);
#822 = CARTESIAN_POINT('',(26.602146997001,45.7,27.774999999999));
#823 = LINE('',#824,#825);
#824 = CARTESIAN_POINT('',(28.204293994002,45.7,24.999999999999));
#825 = VECTOR('',#826,1.);
#826 = DIRECTION('',(-0.5,8.660254037846E-16,0.866025403785));
#827 = ORIENTED_EDGE('',*,*,#828,.F.);
#828 = EDGE_CURVE('',#829,#819,#831,.T.);
#829 = VERTEX_POINT('',#830);
#830 = CARTESIAN_POINT('',(26.602146996999,45.7,22.224999999999));
#831 = LINE('',#832,#833);
#832 = CARTESIAN_POINT('',(26.602146996999,45.7,22.224999999999));
#833 = VECTOR('',#834,1.);
#834 = DIRECTION('',(0.5,8.660254037842E-16,0.866025403784));
#835 = ORIENTED_EDGE('',*,*,#836,.F.);
#836 = EDGE_CURVE('',#837,#829,#839,.T.);
#837 = VERTEX_POINT('',#838);
#838 = CARTESIAN_POINT('',(23.397853002997,45.7,22.225000000002));
#839 = LINE('',#840,#841);
#840 = CARTESIAN_POINT('',(23.397853002997,45.7,22.225000000002));
#841 = VECTOR('',#842,1.);
#842 = DIRECTION('',(1.,-6.8354E-28,-6.8354E-13));
#843 = ORIENTED_EDGE('',*,*,#844,.F.);
#844 = EDGE_CURVE('',#845,#837,#847,.T.);
#845 = VERTEX_POINT('',#846);
#846 = CARTESIAN_POINT('',(21.795706005998,45.7,25.000000000003));
#847 = LINE('',#848,#849);
#848 = CARTESIAN_POINT('',(21.795706005998,45.7,25.000000000003));
#849 = VECTOR('',#850,1.);
#850 = DIRECTION('',(0.499999999999,-8.660254037849E-16,-0.866025403785)
  );
#851 = ORIENTED_EDGE('',*,*,#852,.F.);
#852 = EDGE_CURVE('',#853,#845,#855,.T.);
#853 = VERTEX_POINT('',#854);
#854 = CARTESIAN_POINT('',(23.397853002999,45.7,27.774999999999));
#855 = LINE('',#856,#857);
#856 = CARTESIAN_POINT('',(23.397853002999,45.7,27.774999999999));
#857 = VECTOR('',#858,1.);
#858 = DIRECTION('',(-0.5,-8.660254037842E-16,-0.866025403784));
#859 = ORIENTED_EDGE('',*,*,#860,.F.);
#860 = EDGE_CURVE('',#821,#853,#861,.T.);
#861 = LINE('',#862,#863);
#862 = CARTESIAN_POINT('',(26.602146997001,45.7,27.774999999999));
#863 = VECTOR('',#864,1.);
#864 = DIRECTION('',(-1.,0.,0.));
#865 = FACE_BOUND('',#866,.T.);
#866 = EDGE_LOOP('',(#867,#877,#885,#893,#901,#909));
#867 = ORIENTED_EDGE('',*,*,#868,.F.);
#868 = EDGE_CURVE('',#869,#871,#873,.T.);
#869 = VERTEX_POINT('',#870);
#870 = CARTESIAN_POINT('',(28.204293994002,45.7,14.999999999999));
#871 = VERTEX_POINT('',#872);
#872 = CARTESIAN_POINT('',(26.602146997001,45.7,17.774999999999));
#873 = LINE('',#874,#875);
#874 = CARTESIAN_POINT('',(28.204293994002,45.7,14.999999999999));
#875 = VECTOR('',#876,1.);
#876 = DIRECTION('',(-0.5,8.660254037846E-16,0.866025403785));
#877 = ORIENTED_EDGE('',*,*,#878,.F.);
#878 = EDGE_CURVE('',#879,#869,#881,.T.);
#879 = VERTEX_POINT('',#880);
#880 = CARTESIAN_POINT('',(26.602146996999,45.7,12.224999999999));
#881 = LINE('',#882,#883);
#882 = CARTESIAN_POINT('',(26.602146996999,45.7,12.224999999999));
#883 = VECTOR('',#884,1.);
#884 = DIRECTION('',(0.5,8.660254037842E-16,0.866025403784));
#885 = ORIENTED_EDGE('',*,*,#886,.F.);
#886 = EDGE_CURVE('',#887,#879,#889,.T.);
#887 = VERTEX_POINT('',#888);
#888 = CARTESIAN_POINT('',(23.397853002997,45.7,12.225000000002));
#889 = LINE('',#890,#891);
#890 = CARTESIAN_POINT('',(23.397853002997,45.7,12.225000000002));
#891 = VECTOR('',#892,1.);
#892 = DIRECTION('',(1.,-6.8354E-28,-6.8354E-13));
#893 = ORIENTED_EDGE('',*,*,#894,.F.);
#894 = EDGE_CURVE('',#895,#887,#897,.T.);
#895 = VERTEX_POINT('',#896);
#896 = CARTESIAN_POINT('',(21.795706005998,45.7,15.000000000003));
#897 = LINE('',#898,#899);
#898 = CARTESIAN_POINT('',(21.795706005998,45.7,15.000000000003));
#899 = VECTOR('',#900,1.);
#900 = DIRECTION('',(0.499999999999,-8.660254037849E-16,-0.866025403785)
  );
#901 = ORIENTED_EDGE('',*,*,#902,.F.);
#902 = EDGE_CURVE('',#903,#895,#905,.T.);
#903 = VERTEX_POINT('',#904);
#904 = CARTESIAN_POINT('',(23.397853002999,45.7,17.774999999999));
#905 = LINE('',#906,#907);
#906 = CARTESIAN_POINT('',(23.397853002999,45.7,17.774999999999));
#907 = VECTOR('',#908,1.);
#908 = DIRECTION('',(-0.5,-8.660254037842E-16,-0.866025403784));
#909 = ORIENTED_EDGE('',*,*,#910,.F.);
#910 = EDGE_CURVE('',#871,#903,#911,.T.);
#911 = LINE('',#912,#913);
#912 = CARTESIAN_POINT('',(26.602146997001,45.7,17.774999999999));
#913 = VECTOR('',#914,1.);
#914 = DIRECTION('',(-1.,0.,0.));
#915 = PLANE('',#916);
#916 = AXIS2_PLACEMENT_3D('',#917,#918,#919);
#917 = CARTESIAN_POINT('',(30.,45.7,-1.189E-14));
#918 = DIRECTION('',(0.,1.,-6.7E-16));
#919 = DIRECTION('',(1.,0.,0.));
#920 = ADVANCED_FACE('',(#921),#939,.F.);
#921 = FACE_BOUND('',#922,.T.);
#922 = EDGE_LOOP('',(#923,#931,#932,#933));
#923 = ORIENTED_EDGE('',*,*,#924,.F.);
#924 = EDGE_CURVE('',#219,#925,#927,.T.);
#925 = VERTEX_POINT('',#926);
#926 = CARTESIAN_POINT('',(20.,55.7,27.));
#927 = LINE('',#928,#929);
#928 = CARTESIAN_POINT('',(20.,55.7,-1.855E-14));
#929 = VECTOR('',#930,1.);
#930 = DIRECTION('',(0.,6.7E-16,1.));
#931 = ORIENTED_EDGE('',*,*,#218,.T.);
#932 = ORIENTED_EDGE('',*,*,#808,.T.);
#933 = ORIENTED_EDGE('',*,*,#934,.F.);
#934 = EDGE_CURVE('',#925,#800,#935,.T.);
#935 = LINE('',#936,#937);
#936 = CARTESIAN_POINT('',(20.,55.7,27.));
#937 = VECTOR('',#938,1.);
#938 = DIRECTION('',(0.,-1.,6.7E-16));
#939 = PLANE('',#940);
#940 = AXIS2_PLACEMENT_3D('',#941,#942,#943);
#941 = CARTESIAN_POINT('',(20.,55.7,30.));
#942 = DIRECTION('',(1.,0.,0.));
#943 = DIRECTION('',(0.,1.,-6.7E-16));
#944 = ADVANCED_FACE('',(#945),#970,.F.);
#945 = FACE_BOUND('',#946,.T.);
#946 = EDGE_LOOP('',(#947,#957,#963,#964));
#947 = ORIENTED_EDGE('',*,*,#948,.F.);
#948 = EDGE_CURVE('',#949,#951,#953,.T.);
#949 = VERTEX_POINT('',#950);
#950 = CARTESIAN_POINT('',(0.,55.7,-1.2E-14));
#951 = VERTEX_POINT('',#952);
#952 = CARTESIAN_POINT('',(20.,55.7,-1.2E-14));
#953 = LINE('',#954,#955);
#954 = CARTESIAN_POINT('',(0.,55.7,-1.855E-14));
#955 = VECTOR('',#956,1.);
#956 = DIRECTION('',(1.,0.,0.));
#957 = ORIENTED_EDGE('',*,*,#958,.T.);
#958 = EDGE_CURVE('',#949,#227,#959,.T.);
#959 = LINE('',#960,#961);
#960 = CARTESIAN_POINT('',(0.,55.7,-1.855E-14));
#961 = VECTOR('',#962,1.);
#962 = DIRECTION('',(0.,6.7E-16,1.));
#963 = ORIENTED_EDGE('',*,*,#226,.T.);
#964 = ORIENTED_EDGE('',*,*,#965,.F.);
#965 = EDGE_CURVE('',#951,#219,#966,.T.);
#966 = LINE('',#967,#968);
#967 = CARTESIAN_POINT('',(20.,55.7,-1.855E-14));
#968 = VECTOR('',#969,1.);
#969 = DIRECTION('',(0.,6.7E-16,1.));
#970 = PLANE('',#971);
#971 = AXIS2_PLACEMENT_3D('',#972,#973,#974);
#972 = CARTESIAN_POINT('',(0.,55.7,-1.855E-14));
#973 = DIRECTION('',(0.,-1.,6.7E-16));
#974 = DIRECTION('',(-1.,-0.,-0.));
#975 = ADVANCED_FACE('',(#976),#987,.F.);
#976 = FACE_BOUND('',#977,.T.);
#977 = EDGE_LOOP('',(#978,#984,#985,#986));
#978 = ORIENTED_EDGE('',*,*,#979,.F.);
#979 = EDGE_CURVE('',#549,#949,#980,.T.);
#980 = LINE('',#981,#982);
#981 = CARTESIAN_POINT('',(0.,27.85,0.));
#982 = VECTOR('',#983,1.);
#983 = DIRECTION('',(0.,1.,-6.7E-16));
#984 = ORIENTED_EDGE('',*,*,#556,.T.);
#985 = ORIENTED_EDGE('',*,*,#234,.T.);
#986 = ORIENTED_EDGE('',*,*,#958,.F.);
#987 = PLANE('',#988);
#988 = AXIS2_PLACEMENT_3D('',#989,#990,#991);
#989 = CARTESIAN_POINT('',(0.,27.85,0.));
#990 = DIRECTION('',(1.,0.,0.));
#991 = DIRECTION('',(0.,-1.,6.7E-16));
#992 = ADVANCED_FACE('',(#993),#1018,.T.);
#993 = FACE_BOUND('',#994,.T.);
#994 = EDGE_LOOP('',(#995,#1003,#1011,#1017));
#995 = ORIENTED_EDGE('',*,*,#996,.T.);
#996 = EDGE_CURVE('',#252,#997,#999,.T.);
#997 = VERTEX_POINT('',#998);
#998 = CARTESIAN_POINT('',(7.,31.,14.));
#999 = LINE('',#1000,#1001);
#1000 = CARTESIAN_POINT('',(7.,31.,10.));
#1001 = VECTOR('',#1002,1.);
#1002 = DIRECTION('',(0.,1.E-15,1.));
#1003 = ORIENTED_EDGE('',*,*,#1004,.T.);
#1004 = EDGE_CURVE('',#997,#1005,#1007,.T.);
#1005 = VERTEX_POINT('',#1006);
#1006 = CARTESIAN_POINT('',(7.,37.,14.));
#1007 = LINE('',#1008,#1009);
#1008 = CARTESIAN_POINT('',(7.,31.,14.));
#1009 = VECTOR('',#1010,1.);
#1010 = DIRECTION('',(0.,1.,-1.E-15));
#1011 = ORIENTED_EDGE('',*,*,#1012,.F.);
#1012 = EDGE_CURVE('',#254,#1005,#1013,.T.);
#1013 = LINE('',#1014,#1015);
#1014 = CARTESIAN_POINT('',(7.,37.,10.));
#1015 = VECTOR('',#1016,1.);
#1016 = DIRECTION('',(0.,1.E-15,1.));
#1017 = ORIENTED_EDGE('',*,*,#251,.F.);
#1018 = PLANE('',#1019);
#1019 = AXIS2_PLACEMENT_3D('',#1020,#1021,#1022);
#1020 = CARTESIAN_POINT('',(7.,31.,10.));
#1021 = DIRECTION('',(-1.,0.,0.));
#1022 = DIRECTION('',(0.,1.,-1.E-15));
#1023 = ADVANCED_FACE('',(#1024),#1042,.T.);
#1024 = FACE_BOUND('',#1025,.T.);
#1025 = EDGE_LOOP('',(#1026,#1034,#1040,#1041));
#1026 = ORIENTED_EDGE('',*,*,#1027,.T.);
#1027 = EDGE_CURVE('',#270,#1028,#1030,.T.);
#1028 = VERTEX_POINT('',#1029);
#1029 = CARTESIAN_POINT('',(13.,31.,14.));
#1030 = LINE('',#1031,#1032);
#1031 = CARTESIAN_POINT('',(13.,31.,10.));
#1032 = VECTOR('',#1033,1.);
#1033 = DIRECTION('',(0.,1.E-15,1.));
#1034 = ORIENTED_EDGE('',*,*,#1035,.T.);
#1035 = EDGE_CURVE('',#1028,#997,#1036,.T.);
#1036 = LINE('',#1037,#1038);
#1037 = CARTESIAN_POINT('',(13.,31.,14.));
#1038 = VECTOR('',#1039,1.);
#1039 = DIRECTION('',(-1.,0.,0.));
#1040 = ORIENTED_EDGE('',*,*,#996,.F.);
#1041 = ORIENTED_EDGE('',*,*,#277,.F.);
#1042 = PLANE('',#1043);
#1043 = AXIS2_PLACEMENT_3D('',#1044,#1045,#1046);
#1044 = CARTESIAN_POINT('',(13.,31.,10.));
#1045 = DIRECTION('',(0.,-1.,1.E-15));
#1046 = DIRECTION('',(-1.,0.,0.));
#1047 = ADVANCED_FACE('',(#1048),#1066,.T.);
#1048 = FACE_BOUND('',#1049,.T.);
#1049 = EDGE_LOOP('',(#1050,#1058,#1064,#1065));
#1050 = ORIENTED_EDGE('',*,*,#1051,.T.);
#1051 = EDGE_CURVE('',#262,#1052,#1054,.T.);
#1052 = VERTEX_POINT('',#1053);
#1053 = CARTESIAN_POINT('',(13.,37.,14.));
#1054 = LINE('',#1055,#1056);
#1055 = CARTESIAN_POINT('',(13.,37.,10.));
#1056 = VECTOR('',#1057,1.);
#1057 = DIRECTION('',(0.,1.E-15,1.));
#1058 = ORIENTED_EDGE('',*,*,#1059,.T.);
#1059 = EDGE_CURVE('',#1052,#1028,#1060,.T.);
#1060 = LINE('',#1061,#1062);
#1061 = CARTESIAN_POINT('',(13.,37.,14.));
#1062 = VECTOR('',#1063,1.);
#1063 = DIRECTION('',(0.,-1.,1.E-15));
#1064 = ORIENTED_EDGE('',*,*,#1027,.F.);
#1065 = ORIENTED_EDGE('',*,*,#269,.F.);
#1066 = PLANE('',#1067);
#1067 = AXIS2_PLACEMENT_3D('',#1068,#1069,#1070);
#1068 = CARTESIAN_POINT('',(13.,37.,10.));
#1069 = DIRECTION('',(1.,0.,0.));
#1070 = DIRECTION('',(0.,-1.,1.E-15));
#1071 = ADVANCED_FACE('',(#1072),#1083,.T.);
#1072 = FACE_BOUND('',#1073,.T.);
#1073 = EDGE_LOOP('',(#1074,#1075,#1081,#1082));
#1074 = ORIENTED_EDGE('',*,*,#1012,.T.);
#1075 = ORIENTED_EDGE('',*,*,#1076,.T.);
#1076 = EDGE_CURVE('',#1005,#1052,#1077,.T.);
#1077 = LINE('',#1078,#1079);
#1078 = CARTESIAN_POINT('',(7.,37.,14.));
#1079 = VECTOR('',#1080,1.);
#1080 = DIRECTION('',(1.,0.,0.));
#1081 = ORIENTED_EDGE('',*,*,#1051,.F.);
#1082 = ORIENTED_EDGE('',*,*,#261,.F.);
#1083 = PLANE('',#1084);
#1084 = AXIS2_PLACEMENT_3D('',#1085,#1086,#1087);
#1085 = CARTESIAN_POINT('',(7.,37.,10.));
#1086 = DIRECTION('',(0.,1.,-1.E-15));
#1087 = DIRECTION('',(1.,0.,0.));
#1088 = ADVANCED_FACE('',(#1089),#1108,.T.);
#1089 = FACE_BOUND('',#1090,.F.);
#1090 = EDGE_LOOP('',(#1091,#1100,#1106,#1107));
#1091 = ORIENTED_EDGE('',*,*,#1092,.T.);
#1092 = EDGE_CURVE('',#670,#1093,#1095,.T.);
#1093 = VERTEX_POINT('',#1094);
#1094 = CARTESIAN_POINT('',(30.,1.E-15,3.));
#1095 = CIRCLE('',#1096,3.);
#1096 = AXIS2_PLACEMENT_3D('',#1097,#1098,#1099);
#1097 = CARTESIAN_POINT('',(27.,6.7E-16,3.));
#1098 = DIRECTION('',(0.,-1.,2.2E-16));
#1099 = DIRECTION('',(0.,2.2E-16,1.));
#1100 = ORIENTED_EDGE('',*,*,#1101,.T.);
#1101 = EDGE_CURVE('',#1093,#300,#1102,.T.);
#1102 = LINE('',#1103,#1104);
#1103 = CARTESIAN_POINT('',(30.,1.E-17,3.));
#1104 = VECTOR('',#1105,1.);
#1105 = DIRECTION('',(0.,1.,-2.2E-16));
#1106 = ORIENTED_EDGE('',*,*,#299,.F.);
#1107 = ORIENTED_EDGE('',*,*,#669,.F.);
#1108 = CYLINDRICAL_SURFACE('',#1109,3.);
#1109 = AXIS2_PLACEMENT_3D('',#1110,#1111,#1112);
#1110 = CARTESIAN_POINT('',(27.,1.E-17,3.));
#1111 = DIRECTION('',(0.,1.,-2.2E-16));
#1112 = DIRECTION('',(0.,-2.2E-16,-1.));
#1113 = ADVANCED_FACE('',(#1114),#1132,.F.);
#1114 = FACE_BOUND('',#1115,.F.);
#1115 = EDGE_LOOP('',(#1116,#1124,#1130,#1131));
#1116 = ORIENTED_EDGE('',*,*,#1117,.T.);
#1117 = EDGE_CURVE('',#1093,#1118,#1120,.T.);
#1118 = VERTEX_POINT('',#1119);
#1119 = CARTESIAN_POINT('',(30.,6.E-15,27.));
#1120 = LINE('',#1121,#1122);
#1121 = CARTESIAN_POINT('',(30.,0.,0.));
#1122 = VECTOR('',#1123,1.);
#1123 = DIRECTION('',(0.,0.,1.));
#1124 = ORIENTED_EDGE('',*,*,#1125,.T.);
#1125 = EDGE_CURVE('',#1118,#309,#1126,.T.);
#1126 = LINE('',#1127,#1128);
#1127 = CARTESIAN_POINT('',(30.,7.1E-15,27.));
#1128 = VECTOR('',#1129,1.);
#1129 = DIRECTION('',(0.,1.,-2.2E-16));
#1130 = ORIENTED_EDGE('',*,*,#308,.F.);
#1131 = ORIENTED_EDGE('',*,*,#1101,.F.);
#1132 = PLANE('',#1133);
#1133 = AXIS2_PLACEMENT_3D('',#1134,#1135,#1136);
#1134 = CARTESIAN_POINT('',(30.,0.,0.));
#1135 = DIRECTION('',(-1.,0.,0.));
#1136 = DIRECTION('',(0.,1.,0.));
#1137 = ADVANCED_FACE('',(#1138),#1157,.T.);
#1138 = FACE_BOUND('',#1139,.F.);
#1139 = EDGE_LOOP('',(#1140,#1149,#1155,#1156));
#1140 = ORIENTED_EDGE('',*,*,#1141,.T.);
#1141 = EDGE_CURVE('',#1118,#1142,#1144,.T.);
#1142 = VERTEX_POINT('',#1143);
#1143 = CARTESIAN_POINT('',(27.,8.E-15,30.));
#1144 = CIRCLE('',#1145,3.);
#1145 = AXIS2_PLACEMENT_3D('',#1146,#1147,#1148);
#1146 = CARTESIAN_POINT('',(27.,6.E-15,27.));
#1147 = DIRECTION('',(0.,-1.,2.2E-16));
#1148 = DIRECTION('',(0.,2.2E-16,1.));
#1149 = ORIENTED_EDGE('',*,*,#1150,.T.);
#1150 = EDGE_CURVE('',#1142,#317,#1151,.T.);
#1151 = LINE('',#1152,#1153);
#1152 = CARTESIAN_POINT('',(27.,7.77E-15,30.));
#1153 = VECTOR('',#1154,1.);
#1154 = DIRECTION('',(0.,1.,-2.2E-16));
#1155 = ORIENTED_EDGE('',*,*,#316,.F.);
#1156 = ORIENTED_EDGE('',*,*,#1125,.F.);
#1157 = CYLINDRICAL_SURFACE('',#1158,3.);
#1158 = AXIS2_PLACEMENT_3D('',#1159,#1160,#1161);
#1159 = CARTESIAN_POINT('',(27.,7.1E-15,27.));
#1160 = DIRECTION('',(0.,1.,-2.2E-16));
#1161 = DIRECTION('',(1.,0.,0.));
#1162 = ADVANCED_FACE('',(#1163),#1182,.T.);
#1163 = FACE_BOUND('',#1164,.T.);
#1164 = EDGE_LOOP('',(#1165,#1174,#1180,#1181));
#1165 = ORIENTED_EDGE('',*,*,#1166,.T.);
#1166 = EDGE_CURVE('',#494,#1167,#1169,.T.);
#1167 = VERTEX_POINT('',#1168);
#1168 = CARTESIAN_POINT('',(23.,8.E-15,30.));
#1169 = CIRCLE('',#1170,3.);
#1170 = AXIS2_PLACEMENT_3D('',#1171,#1172,#1173);
#1171 = CARTESIAN_POINT('',(23.,6.E-15,27.));
#1172 = DIRECTION('',(0.,1.,-2.2E-16));
#1173 = DIRECTION('',(0.,2.2E-16,1.));
#1174 = ORIENTED_EDGE('',*,*,#1175,.T.);
#1175 = EDGE_CURVE('',#1167,#326,#1176,.T.);
#1176 = LINE('',#1177,#1178);
#1177 = CARTESIAN_POINT('',(23.,6.6E-16,30.));
#1178 = VECTOR('',#1179,1.);
#1179 = DIRECTION('',(0.,1.,-2.2E-16));
#1180 = ORIENTED_EDGE('',*,*,#333,.F.);
#1181 = ORIENTED_EDGE('',*,*,#503,.F.);
#1182 = CYLINDRICAL_SURFACE('',#1183,3.);
#1183 = AXIS2_PLACEMENT_3D('',#1184,#1185,#1186);
#1184 = CARTESIAN_POINT('',(23.,-1.E-17,27.));
#1185 = DIRECTION('',(0.,1.,-2.2E-16));
#1186 = DIRECTION('',(-1.,0.,0.));
#1187 = ADVANCED_FACE('',(#1188),#1199,.F.);
#1188 = FACE_BOUND('',#1189,.F.);
#1189 = EDGE_LOOP('',(#1190,#1196,#1197,#1198));
#1190 = ORIENTED_EDGE('',*,*,#1191,.F.);
#1191 = EDGE_CURVE('',#1167,#1142,#1192,.T.);
#1192 = LINE('',#1193,#1194);
#1193 = CARTESIAN_POINT('',(20.,0.,30.));
#1194 = VECTOR('',#1195,1.);
#1195 = DIRECTION('',(1.,0.,0.));
#1196 = ORIENTED_EDGE('',*,*,#1175,.T.);
#1197 = ORIENTED_EDGE('',*,*,#325,.F.);
#1198 = ORIENTED_EDGE('',*,*,#1150,.F.);
#1199 = PLANE('',#1200);
#1200 = AXIS2_PLACEMENT_3D('',#1201,#1202,#1203);
#1201 = CARTESIAN_POINT('',(13.457216940363,12.382216940363,30.));
#1202 = DIRECTION('',(0.,2.2E-16,-1.));
#1203 = DIRECTION('',(0.,1.,2.2E-16));
#1204 = ADVANCED_FACE('',(#1205),#1230,.F.);
#1205 = FACE_BOUND('',#1206,.F.);
#1206 = EDGE_LOOP('',(#1207,#1215,#1223,#1229));
#1207 = ORIENTED_EDGE('',*,*,#1208,.T.);
#1208 = EDGE_CURVE('',#353,#1209,#1211,.T.);
#1209 = VERTEX_POINT('',#1210);
#1210 = CARTESIAN_POINT('',(26.602146997001,5.,22.225));
#1211 = LINE('',#1212,#1213);
#1212 = CARTESIAN_POINT('',(26.602146997001,10.,22.225));
#1213 = VECTOR('',#1214,1.);
#1214 = DIRECTION('',(0.,-1.,4.4E-16));
#1215 = ORIENTED_EDGE('',*,*,#1216,.T.);
#1216 = EDGE_CURVE('',#1209,#1217,#1219,.T.);
#1217 = VERTEX_POINT('',#1218);
#1218 = CARTESIAN_POINT('',(23.397853002999,5.,22.225));
#1219 = LINE('',#1220,#1221);
#1220 = CARTESIAN_POINT('',(26.602146997001,5.,22.225));
#1221 = VECTOR('',#1222,1.);
#1222 = DIRECTION('',(-1.,0.,0.));
#1223 = ORIENTED_EDGE('',*,*,#1224,.F.);
#1224 = EDGE_CURVE('',#355,#1217,#1225,.T.);
#1225 = LINE('',#1226,#1227);
#1226 = CARTESIAN_POINT('',(23.397853002999,10.,22.225));
#1227 = VECTOR('',#1228,1.);
#1228 = DIRECTION('',(0.,-1.,4.4E-16));
#1229 = ORIENTED_EDGE('',*,*,#352,.F.);
#1230 = PLANE('',#1231);
#1231 = AXIS2_PLACEMENT_3D('',#1232,#1233,#1234);
#1232 = CARTESIAN_POINT('',(26.602146997001,10.,22.225));
#1233 = DIRECTION('',(-0.,-4.4E-16,-1.));
#1234 = DIRECTION('',(-1.,0.,0.));
#1235 = ADVANCED_FACE('',(#1236),#1254,.F.);
#1236 = FACE_BOUND('',#1237,.F.);
#1237 = EDGE_LOOP('',(#1238,#1246,#1252,#1253));
#1238 = ORIENTED_EDGE('',*,*,#1239,.T.);
#1239 = EDGE_CURVE('',#387,#1240,#1242,.T.);
#1240 = VERTEX_POINT('',#1241);
#1241 = CARTESIAN_POINT('',(28.204293994002,5.,25.));
#1242 = LINE('',#1243,#1244);
#1243 = CARTESIAN_POINT('',(28.204293994002,10.,25.));
#1244 = VECTOR('',#1245,1.);
#1245 = DIRECTION('',(0.,-1.,4.4E-16));
#1246 = ORIENTED_EDGE('',*,*,#1247,.T.);
#1247 = EDGE_CURVE('',#1240,#1209,#1248,.T.);
#1248 = LINE('',#1249,#1250);
#1249 = CARTESIAN_POINT('',(28.204293994002,5.,25.));
#1250 = VECTOR('',#1251,1.);
#1251 = DIRECTION('',(-0.5,-8.660254037844E-16,-0.866025403784));
#1252 = ORIENTED_EDGE('',*,*,#1208,.F.);
#1253 = ORIENTED_EDGE('',*,*,#394,.F.);
#1254 = PLANE('',#1255);
#1255 = AXIS2_PLACEMENT_3D('',#1256,#1257,#1258);
#1256 = CARTESIAN_POINT('',(28.204293994002,10.,25.));
#1257 = DIRECTION('',(0.866025403784,-2.2E-16,-0.5));
#1258 = DIRECTION('',(-0.5,-3.8E-16,-0.866025403784));
#1259 = ADVANCED_FACE('',(#1260),#1278,.F.);
#1260 = FACE_BOUND('',#1261,.F.);
#1261 = EDGE_LOOP('',(#1262,#1270,#1276,#1277));
#1262 = ORIENTED_EDGE('',*,*,#1263,.T.);
#1263 = EDGE_CURVE('',#379,#1264,#1266,.T.);
#1264 = VERTEX_POINT('',#1265);
#1265 = CARTESIAN_POINT('',(26.602146997001,5.,27.775));
#1266 = LINE('',#1267,#1268);
#1267 = CARTESIAN_POINT('',(26.602146997001,10.,27.775));
#1268 = VECTOR('',#1269,1.);
#1269 = DIRECTION('',(0.,-1.,4.4E-16));
#1270 = ORIENTED_EDGE('',*,*,#1271,.T.);
#1271 = EDGE_CURVE('',#1264,#1240,#1272,.T.);
#1272 = LINE('',#1273,#1274);
#1273 = CARTESIAN_POINT('',(26.602146997001,5.,27.775));
#1274 = VECTOR('',#1275,1.);
#1275 = DIRECTION('',(0.5,-8.660254037844E-16,-0.866025403784));
#1276 = ORIENTED_EDGE('',*,*,#1239,.F.);
#1277 = ORIENTED_EDGE('',*,*,#386,.F.);
#1278 = PLANE('',#1279);
#1279 = AXIS2_PLACEMENT_3D('',#1280,#1281,#1282);
#1280 = CARTESIAN_POINT('',(26.602146997001,10.,27.775));
#1281 = DIRECTION('',(0.866025403784,2.2E-16,0.5));
#1282 = DIRECTION('',(0.5,-3.8E-16,-0.866025403784));
#1283 = ADVANCED_FACE('',(#1284),#1302,.F.);
#1284 = FACE_BOUND('',#1285,.F.);
#1285 = EDGE_LOOP('',(#1286,#1294,#1300,#1301));
#1286 = ORIENTED_EDGE('',*,*,#1287,.T.);
#1287 = EDGE_CURVE('',#371,#1288,#1290,.T.);
#1288 = VERTEX_POINT('',#1289);
#1289 = CARTESIAN_POINT('',(23.397853002999,5.,27.775));
#1290 = LINE('',#1291,#1292);
#1291 = CARTESIAN_POINT('',(23.397853002999,10.,27.775));
#1292 = VECTOR('',#1293,1.);
#1293 = DIRECTION('',(0.,-1.,4.4E-16));
#1294 = ORIENTED_EDGE('',*,*,#1295,.T.);
#1295 = EDGE_CURVE('',#1288,#1264,#1296,.T.);
#1296 = LINE('',#1297,#1298);
#1297 = CARTESIAN_POINT('',(23.397853002999,5.,27.775));
#1298 = VECTOR('',#1299,1.);
#1299 = DIRECTION('',(1.,0.,0.));
#1300 = ORIENTED_EDGE('',*,*,#1263,.F.);
#1301 = ORIENTED_EDGE('',*,*,#378,.F.);
#1302 = PLANE('',#1303);
#1303 = AXIS2_PLACEMENT_3D('',#1304,#1305,#1306);
#1304 = CARTESIAN_POINT('',(23.397853002999,10.,27.775));
#1305 = DIRECTION('',(0.,4.4E-16,1.));
#1306 = DIRECTION('',(1.,0.,0.));
#1307 = ADVANCED_FACE('',(#1308),#1326,.F.);
#1308 = FACE_BOUND('',#1309,.F.);
#1309 = EDGE_LOOP('',(#1310,#1318,#1324,#1325));
#1310 = ORIENTED_EDGE('',*,*,#1311,.T.);
#1311 = EDGE_CURVE('',#363,#1312,#1314,.T.);
#1312 = VERTEX_POINT('',#1313);
#1313 = CARTESIAN_POINT('',(21.795706005998,5.,25.));
#1314 = LINE('',#1315,#1316);
#1315 = CARTESIAN_POINT('',(21.795706005998,10.,25.));
#1316 = VECTOR('',#1317,1.);
#1317 = DIRECTION('',(0.,-1.,4.4E-16));
#1318 = ORIENTED_EDGE('',*,*,#1319,.T.);
#1319 = EDGE_CURVE('',#1312,#1288,#1320,.T.);
#1320 = LINE('',#1321,#1322);
#1321 = CARTESIAN_POINT('',(21.795706005998,5.,25.));
#1322 = VECTOR('',#1323,1.);
#1323 = DIRECTION('',(0.5,8.660254037844E-16,0.866025403784));
#1324 = ORIENTED_EDGE('',*,*,#1287,.F.);
#1325 = ORIENTED_EDGE('',*,*,#370,.F.);
#1326 = PLANE('',#1327);
#1327 = AXIS2_PLACEMENT_3D('',#1328,#1329,#1330);
#1328 = CARTESIAN_POINT('',(21.795706005998,10.,25.));
#1329 = DIRECTION('',(-0.866025403784,2.2E-16,0.5));
#1330 = DIRECTION('',(0.5,3.8E-16,0.866025403784));
#1331 = ADVANCED_FACE('',(#1332),#1343,.F.);
#1332 = FACE_BOUND('',#1333,.F.);
#1333 = EDGE_LOOP('',(#1334,#1335,#1341,#1342));
#1334 = ORIENTED_EDGE('',*,*,#1224,.T.);
#1335 = ORIENTED_EDGE('',*,*,#1336,.T.);
#1336 = EDGE_CURVE('',#1217,#1312,#1337,.T.);
#1337 = LINE('',#1338,#1339);
#1338 = CARTESIAN_POINT('',(23.397853002999,5.,22.225));
#1339 = VECTOR('',#1340,1.);
#1340 = DIRECTION('',(-0.5,8.660254037844E-16,0.866025403784));
#1341 = ORIENTED_EDGE('',*,*,#1311,.F.);
#1342 = ORIENTED_EDGE('',*,*,#362,.F.);
#1343 = PLANE('',#1344);
#1344 = AXIS2_PLACEMENT_3D('',#1345,#1346,#1347);
#1345 = CARTESIAN_POINT('',(23.397853002999,10.,22.225));
#1346 = DIRECTION('',(-0.866025403784,-2.2E-16,-0.5));
#1347 = DIRECTION('',(-0.5,3.8E-16,0.866025403784));
#1348 = ADVANCED_FACE('',(#1349),#1374,.F.);
#1349 = FACE_BOUND('',#1350,.F.);
#1350 = EDGE_LOOP('',(#1351,#1359,#1367,#1373));
#1351 = ORIENTED_EDGE('',*,*,#1352,.T.);
#1352 = EDGE_CURVE('',#403,#1353,#1355,.T.);
#1353 = VERTEX_POINT('',#1354);
#1354 = CARTESIAN_POINT('',(26.602146997001,5.,12.225));
#1355 = LINE('',#1356,#1357);
#1356 = CARTESIAN_POINT('',(26.602146997001,10.,12.225));
#1357 = VECTOR('',#1358,1.);
#1358 = DIRECTION('',(0.,-1.,4.4E-16));
#1359 = ORIENTED_EDGE('',*,*,#1360,.T.);
#1360 = EDGE_CURVE('',#1353,#1361,#1363,.T.);
#1361 = VERTEX_POINT('',#1362);
#1362 = CARTESIAN_POINT('',(23.397853002999,5.,12.225));
#1363 = LINE('',#1364,#1365);
#1364 = CARTESIAN_POINT('',(26.602146997001,5.,12.225));
#1365 = VECTOR('',#1366,1.);
#1366 = DIRECTION('',(-1.,0.,0.));
#1367 = ORIENTED_EDGE('',*,*,#1368,.F.);
#1368 = EDGE_CURVE('',#405,#1361,#1369,.T.);
#1369 = LINE('',#1370,#1371);
#1370 = CARTESIAN_POINT('',(23.397853002999,10.,12.225));
#1371 = VECTOR('',#1372,1.);
#1372 = DIRECTION('',(0.,-1.,4.4E-16));
#1373 = ORIENTED_EDGE('',*,*,#402,.F.);
#1374 = PLANE('',#1375);
#1375 = AXIS2_PLACEMENT_3D('',#1376,#1377,#1378);
#1376 = CARTESIAN_POINT('',(26.602146997001,10.,12.225));
#1377 = DIRECTION('',(-0.,-4.4E-16,-1.));
#1378 = DIRECTION('',(-1.,0.,0.));
#1379 = ADVANCED_FACE('',(#1380),#1398,.F.);
#1380 = FACE_BOUND('',#1381,.F.);
#1381 = EDGE_LOOP('',(#1382,#1390,#1396,#1397));
#1382 = ORIENTED_EDGE('',*,*,#1383,.T.);
#1383 = EDGE_CURVE('',#437,#1384,#1386,.T.);
#1384 = VERTEX_POINT('',#1385);
#1385 = CARTESIAN_POINT('',(28.204293994002,5.,15.));
#1386 = LINE('',#1387,#1388);
#1387 = CARTESIAN_POINT('',(28.204293994002,10.,15.));
#1388 = VECTOR('',#1389,1.);
#1389 = DIRECTION('',(0.,-1.,4.4E-16));
#1390 = ORIENTED_EDGE('',*,*,#1391,.T.);
#1391 = EDGE_CURVE('',#1384,#1353,#1392,.T.);
#1392 = LINE('',#1393,#1394);
#1393 = CARTESIAN_POINT('',(28.204293994002,5.,15.));
#1394 = VECTOR('',#1395,1.);
#1395 = DIRECTION('',(-0.5,-8.660254037844E-16,-0.866025403784));
#1396 = ORIENTED_EDGE('',*,*,#1352,.F.);
#1397 = ORIENTED_EDGE('',*,*,#444,.F.);
#1398 = PLANE('',#1399);
#1399 = AXIS2_PLACEMENT_3D('',#1400,#1401,#1402);
#1400 = CARTESIAN_POINT('',(28.204293994002,10.,15.));
#1401 = DIRECTION('',(0.866025403784,-2.2E-16,-0.5));
#1402 = DIRECTION('',(-0.5,-3.8E-16,-0.866025403784));
#1403 = ADVANCED_FACE('',(#1404),#1422,.F.);
#1404 = FACE_BOUND('',#1405,.F.);
#1405 = EDGE_LOOP('',(#1406,#1407,#1415,#1421));
#1406 = ORIENTED_EDGE('',*,*,#1368,.T.);
#1407 = ORIENTED_EDGE('',*,*,#1408,.T.);
#1408 = EDGE_CURVE('',#1361,#1409,#1411,.T.);
#1409 = VERTEX_POINT('',#1410);
#1410 = CARTESIAN_POINT('',(21.795706005998,5.,15.));
#1411 = LINE('',#1412,#1413);
#1412 = CARTESIAN_POINT('',(23.397853002999,5.,12.225));
#1413 = VECTOR('',#1414,1.);
#1414 = DIRECTION('',(-0.5,8.660254037844E-16,0.866025403784));
#1415 = ORIENTED_EDGE('',*,*,#1416,.F.);
#1416 = EDGE_CURVE('',#413,#1409,#1417,.T.);
#1417 = LINE('',#1418,#1419);
#1418 = CARTESIAN_POINT('',(21.795706005998,10.,15.));
#1419 = VECTOR('',#1420,1.);
#1420 = DIRECTION('',(0.,-1.,4.4E-16));
#1421 = ORIENTED_EDGE('',*,*,#412,.F.);
#1422 = PLANE('',#1423);
#1423 = AXIS2_PLACEMENT_3D('',#1424,#1425,#1426);
#1424 = CARTESIAN_POINT('',(23.397853002999,10.,12.225));
#1425 = DIRECTION('',(-0.866025403784,-2.2E-16,-0.5));
#1426 = DIRECTION('',(-0.5,3.8E-16,0.866025403784));
#1427 = ADVANCED_FACE('',(#1428),#1446,.F.);
#1428 = FACE_BOUND('',#1429,.F.);
#1429 = EDGE_LOOP('',(#1430,#1438,#1444,#1445));
#1430 = ORIENTED_EDGE('',*,*,#1431,.T.);
#1431 = EDGE_CURVE('',#429,#1432,#1434,.T.);
#1432 = VERTEX_POINT('',#1433);
#1433 = CARTESIAN_POINT('',(26.602146997001,5.,17.775));
#1434 = LINE('',#1435,#1436);
#1435 = CARTESIAN_POINT('',(26.602146997001,10.,17.775));
#1436 = VECTOR('',#1437,1.);
#1437 = DIRECTION('',(0.,-1.,4.4E-16));
#1438 = ORIENTED_EDGE('',*,*,#1439,.T.);
#1439 = EDGE_CURVE('',#1432,#1384,#1440,.T.);
#1440 = LINE('',#1441,#1442);
#1441 = CARTESIAN_POINT('',(26.602146997001,5.,17.775));
#1442 = VECTOR('',#1443,1.);
#1443 = DIRECTION('',(0.5,-8.660254037844E-16,-0.866025403784));
#1444 = ORIENTED_EDGE('',*,*,#1383,.F.);
#1445 = ORIENTED_EDGE('',*,*,#436,.F.);
#1446 = PLANE('',#1447);
#1447 = AXIS2_PLACEMENT_3D('',#1448,#1449,#1450);
#1448 = CARTESIAN_POINT('',(26.602146997001,10.,17.775));
#1449 = DIRECTION('',(0.866025403784,2.2E-16,0.5));
#1450 = DIRECTION('',(0.5,-3.8E-16,-0.866025403784));
#1451 = ADVANCED_FACE('',(#1452),#1470,.F.);
#1452 = FACE_BOUND('',#1453,.F.);
#1453 = EDGE_LOOP('',(#1454,#1455,#1463,#1469));
#1454 = ORIENTED_EDGE('',*,*,#1416,.T.);
#1455 = ORIENTED_EDGE('',*,*,#1456,.T.);
#1456 = EDGE_CURVE('',#1409,#1457,#1459,.T.);
#1457 = VERTEX_POINT('',#1458);
#1458 = CARTESIAN_POINT('',(23.397853002999,5.,17.775));
#1459 = LINE('',#1460,#1461);
#1460 = CARTESIAN_POINT('',(21.795706005998,5.,15.));
#1461 = VECTOR('',#1462,1.);
#1462 = DIRECTION('',(0.5,8.660254037844E-16,0.866025403784));
#1463 = ORIENTED_EDGE('',*,*,#1464,.F.);
#1464 = EDGE_CURVE('',#421,#1457,#1465,.T.);
#1465 = LINE('',#1466,#1467);
#1466 = CARTESIAN_POINT('',(23.397853002999,10.,17.775));
#1467 = VECTOR('',#1468,1.);
#1468 = DIRECTION('',(0.,-1.,4.4E-16));
#1469 = ORIENTED_EDGE('',*,*,#420,.F.);
#1470 = PLANE('',#1471);
#1471 = AXIS2_PLACEMENT_3D('',#1472,#1473,#1474);
#1472 = CARTESIAN_POINT('',(21.795706005998,10.,15.));
#1473 = DIRECTION('',(-0.866025403784,2.2E-16,0.5));
#1474 = DIRECTION('',(0.5,3.8E-16,0.866025403784));
#1475 = ADVANCED_FACE('',(#1476),#1487,.F.);
#1476 = FACE_BOUND('',#1477,.F.);
#1477 = EDGE_LOOP('',(#1478,#1479,#1485,#1486));
#1478 = ORIENTED_EDGE('',*,*,#1464,.T.);
#1479 = ORIENTED_EDGE('',*,*,#1480,.T.);
#1480 = EDGE_CURVE('',#1457,#1432,#1481,.T.);
#1481 = LINE('',#1482,#1483);
#1482 = CARTESIAN_POINT('',(23.397853002999,5.,17.775));
#1483 = VECTOR('',#1484,1.);
#1484 = DIRECTION('',(1.,0.,0.));
#1485 = ORIENTED_EDGE('',*,*,#1431,.F.);
#1486 = ORIENTED_EDGE('',*,*,#428,.F.);
#1487 = PLANE('',#1488);
#1488 = AXIS2_PLACEMENT_3D('',#1489,#1490,#1491);
#1489 = CARTESIAN_POINT('',(23.397853002999,10.,17.775));
#1490 = DIRECTION('',(0.,4.4E-16,1.));
#1491 = DIRECTION('',(1.,0.,0.));
#1492 = ADVANCED_FACE('',(#1493),#1517,.T.);
#1493 = FACE_BOUND('',#1494,.F.);
#1494 = EDGE_LOOP('',(#1495,#1496,#1504,#1510,#1511,#1512,#1513,#1514,
    #1515,#1516));
#1495 = ORIENTED_EDGE('',*,*,#757,.F.);
#1496 = ORIENTED_EDGE('',*,*,#1497,.F.);
#1497 = EDGE_CURVE('',#1498,#758,#1500,.T.);
#1498 = VERTEX_POINT('',#1499);
#1499 = CARTESIAN_POINT('',(27.,55.7,-1.9E-14));
#1500 = LINE('',#1501,#1502);
#1501 = CARTESIAN_POINT('',(27.,55.7,-1.91E-14));
#1502 = VECTOR('',#1503,1.);
#1503 = DIRECTION('',(0.,-1.,6.7E-16));
#1504 = ORIENTED_EDGE('',*,*,#1505,.F.);
#1505 = EDGE_CURVE('',#951,#1498,#1506,.T.);
#1506 = LINE('',#1507,#1508);
#1507 = CARTESIAN_POINT('',(20.,55.7,-1.855E-14));
#1508 = VECTOR('',#1509,1.);
#1509 = DIRECTION('',(1.,0.,0.));
#1510 = ORIENTED_EDGE('',*,*,#948,.F.);
#1511 = ORIENTED_EDGE('',*,*,#979,.F.);
#1512 = ORIENTED_EDGE('',*,*,#685,.F.);
#1513 = ORIENTED_EDGE('',*,*,#478,.T.);
#1514 = ORIENTED_EDGE('',*,*,#692,.F.);
#1515 = ORIENTED_EDGE('',*,*,#708,.F.);
#1516 = ORIENTED_EDGE('',*,*,#732,.T.);
#1517 = PLANE('',#1518);
#1518 = AXIS2_PLACEMENT_3D('',#1519,#1520,#1521);
#1519 = CARTESIAN_POINT('',(13.457216940363,43.317783059637,-7.55E-15));
#1520 = DIRECTION('',(0.,-8.9E-16,-1.));
#1521 = DIRECTION('',(0.,1.,-8.9E-16));
#1522 = ADVANCED_FACE('',(#1523,#1533,#1544),#1555,.F.);
#1523 = FACE_BOUND('',#1524,.F.);
#1524 = EDGE_LOOP('',(#1525,#1526,#1527,#1528,#1529,#1530,#1531,#1532));
#1525 = ORIENTED_EDGE('',*,*,#677,.F.);
#1526 = ORIENTED_EDGE('',*,*,#534,.T.);
#1527 = ORIENTED_EDGE('',*,*,#493,.T.);
#1528 = ORIENTED_EDGE('',*,*,#1166,.T.);
#1529 = ORIENTED_EDGE('',*,*,#1191,.T.);
#1530 = ORIENTED_EDGE('',*,*,#1141,.F.);
#1531 = ORIENTED_EDGE('',*,*,#1117,.F.);
#1532 = ORIENTED_EDGE('',*,*,#1092,.F.);
#1533 = FACE_BOUND('',#1534,.F.);
#1534 = EDGE_LOOP('',(#1535));
#1535 = ORIENTED_EDGE('',*,*,#1536,.F.);
#1536 = EDGE_CURVE('',#1537,#1537,#1539,.T.);
#1537 = VERTEX_POINT('',#1538);
#1538 = CARTESIAN_POINT('',(23.35,4.E-15,25.));
#1539 = CIRCLE('',#1540,1.65);
#1540 = AXIS2_PLACEMENT_3D('',#1541,#1542,#1543);
#1541 = CARTESIAN_POINT('',(25.,3.55E-15,25.));
#1542 = DIRECTION('',(0.,1.,-1.1E-16));
#1543 = DIRECTION('',(-1.,0.,0.));
#1544 = FACE_BOUND('',#1545,.F.);
#1545 = EDGE_LOOP('',(#1546));
#1546 = ORIENTED_EDGE('',*,*,#1547,.F.);
#1547 = EDGE_CURVE('',#1548,#1548,#1550,.T.);
#1548 = VERTEX_POINT('',#1549);
#1549 = CARTESIAN_POINT('',(23.35,2.E-15,15.));
#1550 = CIRCLE('',#1551,1.65);
#1551 = AXIS2_PLACEMENT_3D('',#1552,#1553,#1554);
#1552 = CARTESIAN_POINT('',(25.,1.78E-15,15.));
#1553 = DIRECTION('',(0.,1.,-1.1E-16));
#1554 = DIRECTION('',(-1.,0.,0.));
#1555 = PLANE('',#1556);
#1556 = AXIS2_PLACEMENT_3D('',#1557,#1558,#1559);
#1557 = CARTESIAN_POINT('',(20.,0.,0.));
#1558 = DIRECTION('',(0.,1.,0.));
#1559 = DIRECTION('',(1.,0.,0.));
#1560 = ADVANCED_FACE('',(#1561),#1588,.T.);
#1561 = FACE_BOUND('',#1562,.T.);
#1562 = EDGE_LOOP('',(#1563,#1572,#1580,#1587));
#1563 = ORIENTED_EDGE('',*,*,#1564,.T.);
#1564 = EDGE_CURVE('',#573,#1565,#1567,.T.);
#1565 = VERTEX_POINT('',#1566);
#1566 = CARTESIAN_POINT('',(8.,23.7,15.));
#1567 = ELLIPSE('',#1568,1.414213562373,1.);
#1568 = AXIS2_PLACEMENT_3D('',#1569,#1570,#1571);
#1569 = CARTESIAN_POINT('',(8.,23.7,14.));
#1570 = DIRECTION('',(0.707106781187,0.707106781187,-7.1E-16));
#1571 = DIRECTION('',(0.707106781187,-0.707106781187,7.1E-16));
#1572 = ORIENTED_EDGE('',*,*,#1573,.T.);
#1573 = EDGE_CURVE('',#1565,#1574,#1576,.T.);
#1574 = VERTEX_POINT('',#1575);
#1575 = CARTESIAN_POINT('',(12.,23.7,15.));
#1576 = LINE('',#1577,#1578);
#1577 = CARTESIAN_POINT('',(7.,23.7,15.));
#1578 = VECTOR('',#1579,1.);
#1579 = DIRECTION('',(1.,0.,0.));
#1580 = ORIENTED_EDGE('',*,*,#1581,.F.);
#1581 = EDGE_CURVE('',#581,#1574,#1582,.T.);
#1582 = ELLIPSE('',#1583,1.414213562373,1.);
#1583 = AXIS2_PLACEMENT_3D('',#1584,#1585,#1586);
#1584 = CARTESIAN_POINT('',(12.,23.7,14.));
#1585 = DIRECTION('',(0.707106781187,-0.707106781187,7.1E-16));
#1586 = DIRECTION('',(0.707106781187,0.707106781187,-7.1E-16));
#1587 = ORIENTED_EDGE('',*,*,#580,.F.);
#1588 = CYLINDRICAL_SURFACE('',#1589,1.);
#1589 = AXIS2_PLACEMENT_3D('',#1590,#1591,#1592);
#1590 = CARTESIAN_POINT('',(7.,23.7,14.));
#1591 = DIRECTION('',(1.,0.,0.));
#1592 = DIRECTION('',(0.,1.,-1.E-15));
#1593 = ADVANCED_FACE('',(#1594),#1613,.T.);
#1594 = FACE_BOUND('',#1595,.T.);
#1595 = EDGE_LOOP('',(#1596,#1597,#1605,#1612));
#1596 = ORIENTED_EDGE('',*,*,#1581,.T.);
#1597 = ORIENTED_EDGE('',*,*,#1598,.T.);
#1598 = EDGE_CURVE('',#1574,#1599,#1601,.T.);
#1599 = VERTEX_POINT('',#1600);
#1600 = CARTESIAN_POINT('',(12.,19.7,15.));
#1601 = LINE('',#1602,#1603);
#1602 = CARTESIAN_POINT('',(12.,24.7,15.));
#1603 = VECTOR('',#1604,1.);
#1604 = DIRECTION('',(0.,-1.,1.E-15));
#1605 = ORIENTED_EDGE('',*,*,#1606,.F.);
#1606 = EDGE_CURVE('',#605,#1599,#1607,.T.);
#1607 = ELLIPSE('',#1608,1.414213562373,1.);
#1608 = AXIS2_PLACEMENT_3D('',#1609,#1610,#1611);
#1609 = CARTESIAN_POINT('',(12.,19.7,14.));
#1610 = DIRECTION('',(-0.707106781187,-0.707106781187,7.1E-16));
#1611 = DIRECTION('',(0.707106781187,-0.707106781187,7.1E-16));
#1612 = ORIENTED_EDGE('',*,*,#604,.F.);
#1613 = CYLINDRICAL_SURFACE('',#1614,1.);
#1614 = AXIS2_PLACEMENT_3D('',#1615,#1616,#1617);
#1615 = CARTESIAN_POINT('',(12.,24.7,14.));
#1616 = DIRECTION('',(0.,-1.,1.E-15));
#1617 = DIRECTION('',(1.,0.,0.));
#1618 = ADVANCED_FACE('',(#1619),#1638,.T.);
#1619 = FACE_BOUND('',#1620,.T.);
#1620 = EDGE_LOOP('',(#1621,#1622,#1630,#1637));
#1621 = ORIENTED_EDGE('',*,*,#1606,.T.);
#1622 = ORIENTED_EDGE('',*,*,#1623,.T.);
#1623 = EDGE_CURVE('',#1599,#1624,#1626,.T.);
#1624 = VERTEX_POINT('',#1625);
#1625 = CARTESIAN_POINT('',(8.,19.7,15.));
#1626 = LINE('',#1627,#1628);
#1627 = CARTESIAN_POINT('',(13.,19.7,15.));
#1628 = VECTOR('',#1629,1.);
#1629 = DIRECTION('',(-1.,0.,0.));
#1630 = ORIENTED_EDGE('',*,*,#1631,.F.);
#1631 = EDGE_CURVE('',#629,#1624,#1632,.T.);
#1632 = ELLIPSE('',#1633,1.414213562373,1.);
#1633 = AXIS2_PLACEMENT_3D('',#1634,#1635,#1636);
#1634 = CARTESIAN_POINT('',(8.,19.7,14.));
#1635 = DIRECTION('',(-0.707106781187,0.707106781187,-7.1E-16));
#1636 = DIRECTION('',(-0.707106781187,-0.707106781187,7.1E-16));
#1637 = ORIENTED_EDGE('',*,*,#628,.F.);
#1638 = CYLINDRICAL_SURFACE('',#1639,1.);
#1639 = AXIS2_PLACEMENT_3D('',#1640,#1641,#1642);
#1640 = CARTESIAN_POINT('',(13.,19.7,14.));
#1641 = DIRECTION('',(-1.,0.,0.));
#1642 = DIRECTION('',(0.,-1.,1.E-15));
#1643 = ADVANCED_FACE('',(#1644),#1655,.T.);
#1644 = FACE_BOUND('',#1645,.T.);
#1645 = EDGE_LOOP('',(#1646,#1647,#1653,#1654));
#1646 = ORIENTED_EDGE('',*,*,#1631,.T.);
#1647 = ORIENTED_EDGE('',*,*,#1648,.T.);
#1648 = EDGE_CURVE('',#1624,#1565,#1649,.T.);
#1649 = LINE('',#1650,#1651);
#1650 = CARTESIAN_POINT('',(8.,18.7,15.));
#1651 = VECTOR('',#1652,1.);
#1652 = DIRECTION('',(0.,1.,-1.E-15));
#1653 = ORIENTED_EDGE('',*,*,#1564,.F.);
#1654 = ORIENTED_EDGE('',*,*,#652,.F.);
#1655 = CYLINDRICAL_SURFACE('',#1656,1.);
#1656 = AXIS2_PLACEMENT_3D('',#1657,#1658,#1659);
#1657 = CARTESIAN_POINT('',(8.,18.7,14.));
#1658 = DIRECTION('',(0.,1.,-1.E-15));
#1659 = DIRECTION('',(-1.,0.,0.));
#1660 = ADVANCED_FACE('',(#1661),#1680,.T.);
#1661 = FACE_BOUND('',#1662,.T.);
#1662 = EDGE_LOOP('',(#1663,#1672,#1678,#1679));
#1663 = ORIENTED_EDGE('',*,*,#1664,.T.);
#1664 = EDGE_CURVE('',#1498,#1665,#1667,.T.);
#1665 = VERTEX_POINT('',#1666);
#1666 = CARTESIAN_POINT('',(30.,55.7,3.));
#1667 = CIRCLE('',#1668,3.);
#1668 = AXIS2_PLACEMENT_3D('',#1669,#1670,#1671);
#1669 = CARTESIAN_POINT('',(27.,55.7,3.));
#1670 = DIRECTION('',(0.,-1.,6.7E-16));
#1671 = DIRECTION('',(0.,-6.7E-16,-1.));
#1672 = ORIENTED_EDGE('',*,*,#1673,.T.);
#1673 = EDGE_CURVE('',#1665,#766,#1674,.T.);
#1674 = LINE('',#1675,#1676);
#1675 = CARTESIAN_POINT('',(30.,55.7,3.));
#1676 = VECTOR('',#1677,1.);
#1677 = DIRECTION('',(0.,-1.,6.7E-16));
#1678 = ORIENTED_EDGE('',*,*,#765,.F.);
#1679 = ORIENTED_EDGE('',*,*,#1497,.F.);
#1680 = CYLINDRICAL_SURFACE('',#1681,3.);
#1681 = AXIS2_PLACEMENT_3D('',#1682,#1683,#1684);
#1682 = CARTESIAN_POINT('',(27.,55.7,3.));
#1683 = DIRECTION('',(0.,-1.,6.7E-16));
#1684 = DIRECTION('',(0.,-6.7E-16,-1.));
#1685 = ADVANCED_FACE('',(#1686),#1704,.F.);
#1686 = FACE_BOUND('',#1687,.T.);
#1687 = EDGE_LOOP('',(#1688,#1696,#1702,#1703));
#1688 = ORIENTED_EDGE('',*,*,#1689,.T.);
#1689 = EDGE_CURVE('',#1665,#1690,#1692,.T.);
#1690 = VERTEX_POINT('',#1691);
#1691 = CARTESIAN_POINT('',(30.,55.7,27.));
#1692 = LINE('',#1693,#1694);
#1693 = CARTESIAN_POINT('',(30.,55.7,-1.855E-14));
#1694 = VECTOR('',#1695,1.);
#1695 = DIRECTION('',(0.,6.7E-16,1.));
#1696 = ORIENTED_EDGE('',*,*,#1697,.T.);
#1697 = EDGE_CURVE('',#1690,#775,#1698,.T.);
#1698 = LINE('',#1699,#1700);
#1699 = CARTESIAN_POINT('',(30.,55.7,27.));
#1700 = VECTOR('',#1701,1.);
#1701 = DIRECTION('',(0.,-1.,6.7E-16));
#1702 = ORIENTED_EDGE('',*,*,#774,.F.);
#1703 = ORIENTED_EDGE('',*,*,#1673,.F.);
#1704 = PLANE('',#1705);
#1705 = AXIS2_PLACEMENT_3D('',#1706,#1707,#1708);
#1706 = CARTESIAN_POINT('',(30.,55.7,-1.855E-14));
#1707 = DIRECTION('',(-1.,0.,0.));
#1708 = DIRECTION('',(0.,1.,-6.7E-16));
#1709 = ADVANCED_FACE('',(#1710),#1729,.T.);
#1710 = FACE_BOUND('',#1711,.T.);
#1711 = EDGE_LOOP('',(#1712,#1721,#1727,#1728));
#1712 = ORIENTED_EDGE('',*,*,#1713,.T.);
#1713 = EDGE_CURVE('',#1690,#1714,#1716,.T.);
#1714 = VERTEX_POINT('',#1715);
#1715 = CARTESIAN_POINT('',(27.,55.7,30.));
#1716 = CIRCLE('',#1717,3.);
#1717 = AXIS2_PLACEMENT_3D('',#1718,#1719,#1720);
#1718 = CARTESIAN_POINT('',(27.,55.7,27.));
#1719 = DIRECTION('',(0.,-1.,6.7E-16));
#1720 = DIRECTION('',(0.,-6.7E-16,-1.));
#1721 = ORIENTED_EDGE('',*,*,#1722,.T.);
#1722 = EDGE_CURVE('',#1714,#783,#1723,.T.);
#1723 = LINE('',#1724,#1725);
#1724 = CARTESIAN_POINT('',(27.,55.7,30.));
#1725 = VECTOR('',#1726,1.);
#1726 = DIRECTION('',(0.,-1.,6.7E-16));
#1727 = ORIENTED_EDGE('',*,*,#782,.F.);
#1728 = ORIENTED_EDGE('',*,*,#1697,.F.);
#1729 = CYLINDRICAL_SURFACE('',#1730,3.);
#1730 = AXIS2_PLACEMENT_3D('',#1731,#1732,#1733);
#1731 = CARTESIAN_POINT('',(27.,55.7,27.));
#1732 = DIRECTION('',(0.,-1.,6.7E-16));
#1733 = DIRECTION('',(1.,0.,0.));
#1734 = ADVANCED_FACE('',(#1735),#1754,.T.);
#1735 = FACE_BOUND('',#1736,.F.);
#1736 = EDGE_LOOP('',(#1737,#1746,#1752,#1753));
#1737 = ORIENTED_EDGE('',*,*,#1738,.T.);
#1738 = EDGE_CURVE('',#925,#1739,#1741,.T.);
#1739 = VERTEX_POINT('',#1740);
#1740 = CARTESIAN_POINT('',(23.,55.7,30.));
#1741 = CIRCLE('',#1742,3.);
#1742 = AXIS2_PLACEMENT_3D('',#1743,#1744,#1745);
#1743 = CARTESIAN_POINT('',(23.,55.7,27.));
#1744 = DIRECTION('',(0.,1.,-6.7E-16));
#1745 = DIRECTION('',(0.,-6.7E-16,-1.));
#1746 = ORIENTED_EDGE('',*,*,#1747,.T.);
#1747 = EDGE_CURVE('',#1739,#792,#1748,.T.);
#1748 = LINE('',#1749,#1750);
#1749 = CARTESIAN_POINT('',(23.,55.7,30.));
#1750 = VECTOR('',#1751,1.);
#1751 = DIRECTION('',(0.,-1.,6.7E-16));
#1752 = ORIENTED_EDGE('',*,*,#799,.F.);
#1753 = ORIENTED_EDGE('',*,*,#934,.F.);
#1754 = CYLINDRICAL_SURFACE('',#1755,3.);
#1755 = AXIS2_PLACEMENT_3D('',#1756,#1757,#1758);
#1756 = CARTESIAN_POINT('',(23.,55.7,27.));
#1757 = DIRECTION('',(0.,-1.,6.7E-16));
#1758 = DIRECTION('',(-1.,0.,0.));
#1759 = ADVANCED_FACE('',(#1760),#1771,.F.);
#1760 = FACE_BOUND('',#1761,.T.);
#1761 = EDGE_LOOP('',(#1762,#1768,#1769,#1770));
#1762 = ORIENTED_EDGE('',*,*,#1763,.F.);
#1763 = EDGE_CURVE('',#1739,#1714,#1764,.T.);
#1764 = LINE('',#1765,#1766);
#1765 = CARTESIAN_POINT('',(20.,55.7,30.));
#1766 = VECTOR('',#1767,1.);
#1767 = DIRECTION('',(1.,0.,0.));
#1768 = ORIENTED_EDGE('',*,*,#1747,.T.);
#1769 = ORIENTED_EDGE('',*,*,#791,.F.);
#1770 = ORIENTED_EDGE('',*,*,#1722,.F.);
#1771 = PLANE('',#1772);
#1772 = AXIS2_PLACEMENT_3D('',#1773,#1774,#1775);
#1773 = CARTESIAN_POINT('',(13.457216940363,43.317783059637,30.));
#1774 = DIRECTION('',(0.,-8.9E-16,-1.));
#1775 = DIRECTION('',(0.,1.,-8.9E-16));
#1776 = ADVANCED_FACE('',(#1777),#1802,.F.);
#1777 = FACE_BOUND('',#1778,.F.);
#1778 = EDGE_LOOP('',(#1779,#1787,#1795,#1801));
#1779 = ORIENTED_EDGE('',*,*,#1780,.T.);
#1780 = EDGE_CURVE('',#819,#1781,#1783,.T.);
#1781 = VERTEX_POINT('',#1782);
#1782 = CARTESIAN_POINT('',(28.204293994002,50.7,24.999999999999));
#1783 = LINE('',#1784,#1785);
#1784 = CARTESIAN_POINT('',(28.204293994002,45.7,24.999999999999));
#1785 = VECTOR('',#1786,1.);
#1786 = DIRECTION('',(0.,1.,-1.E-15));
#1787 = ORIENTED_EDGE('',*,*,#1788,.T.);
#1788 = EDGE_CURVE('',#1781,#1789,#1791,.T.);
#1789 = VERTEX_POINT('',#1790);
#1790 = CARTESIAN_POINT('',(26.602146997001,50.7,27.774999999999));
#1791 = LINE('',#1792,#1793);
#1792 = CARTESIAN_POINT('',(28.204293994002,50.7,24.999999999999));
#1793 = VECTOR('',#1794,1.);
#1794 = DIRECTION('',(-0.5,8.660254037846E-16,0.866025403785));
#1795 = ORIENTED_EDGE('',*,*,#1796,.F.);
#1796 = EDGE_CURVE('',#821,#1789,#1797,.T.);
#1797 = LINE('',#1798,#1799);
#1798 = CARTESIAN_POINT('',(26.602146997001,45.7,27.774999999999));
#1799 = VECTOR('',#1800,1.);
#1800 = DIRECTION('',(0.,1.,-1.E-15));
#1801 = ORIENTED_EDGE('',*,*,#818,.F.);
#1802 = PLANE('',#1803);
#1803 = AXIS2_PLACEMENT_3D('',#1804,#1805,#1806);
#1804 = CARTESIAN_POINT('',(28.204293994002,45.7,24.999999999999));
#1805 = DIRECTION('',(0.866025403785,5.E-16,0.5));
#1806 = DIRECTION('',(-0.5,8.7E-16,0.866025403785));
#1807 = ADVANCED_FACE('',(#1808),#1826,.F.);
#1808 = FACE_BOUND('',#1809,.F.);
#1809 = EDGE_LOOP('',(#1810,#1811,#1819,#1825));
#1810 = ORIENTED_EDGE('',*,*,#1796,.T.);
#1811 = ORIENTED_EDGE('',*,*,#1812,.T.);
#1812 = EDGE_CURVE('',#1789,#1813,#1815,.T.);
#1813 = VERTEX_POINT('',#1814);
#1814 = CARTESIAN_POINT('',(23.397853002999,50.7,27.774999999999));
#1815 = LINE('',#1816,#1817);
#1816 = CARTESIAN_POINT('',(26.602146997001,50.7,27.774999999999));
#1817 = VECTOR('',#1818,1.);
#1818 = DIRECTION('',(-1.,0.,0.));
#1819 = ORIENTED_EDGE('',*,*,#1820,.F.);
#1820 = EDGE_CURVE('',#853,#1813,#1821,.T.);
#1821 = LINE('',#1822,#1823);
#1822 = CARTESIAN_POINT('',(23.397853002999,45.7,27.774999999999));
#1823 = VECTOR('',#1824,1.);
#1824 = DIRECTION('',(0.,1.,-1.E-15));
#1825 = ORIENTED_EDGE('',*,*,#860,.F.);
#1826 = PLANE('',#1827);
#1827 = AXIS2_PLACEMENT_3D('',#1828,#1829,#1830);
#1828 = CARTESIAN_POINT('',(26.602146997001,45.7,27.774999999999));
#1829 = DIRECTION('',(0.,1.E-15,1.));
#1830 = DIRECTION('',(-1.,0.,0.));
#1831 = ADVANCED_FACE('',(#1832),#1850,.F.);
#1832 = FACE_BOUND('',#1833,.F.);
#1833 = EDGE_LOOP('',(#1834,#1835,#1843,#1849));
#1834 = ORIENTED_EDGE('',*,*,#1820,.T.);
#1835 = ORIENTED_EDGE('',*,*,#1836,.T.);
#1836 = EDGE_CURVE('',#1813,#1837,#1839,.T.);
#1837 = VERTEX_POINT('',#1838);
#1838 = CARTESIAN_POINT('',(21.795706005998,50.7,25.000000000003));
#1839 = LINE('',#1840,#1841);
#1840 = CARTESIAN_POINT('',(23.397853002999,50.7,27.774999999999));
#1841 = VECTOR('',#1842,1.);
#1842 = DIRECTION('',(-0.5,-8.660254037842E-16,-0.866025403784));
#1843 = ORIENTED_EDGE('',*,*,#1844,.F.);
#1844 = EDGE_CURVE('',#845,#1837,#1845,.T.);
#1845 = LINE('',#1846,#1847);
#1846 = CARTESIAN_POINT('',(21.795706005998,45.7,25.000000000003));
#1847 = VECTOR('',#1848,1.);
#1848 = DIRECTION('',(0.,1.,-1.E-15));
#1849 = ORIENTED_EDGE('',*,*,#852,.F.);
#1850 = PLANE('',#1851);
#1851 = AXIS2_PLACEMENT_3D('',#1852,#1853,#1854);
#1852 = CARTESIAN_POINT('',(23.397853002999,45.7,27.774999999999));
#1853 = DIRECTION('',(-0.866025403784,5.E-16,0.5));
#1854 = DIRECTION('',(-0.5,-8.7E-16,-0.866025403784));
#1855 = ADVANCED_FACE('',(#1856),#1874,.F.);
#1856 = FACE_BOUND('',#1857,.F.);
#1857 = EDGE_LOOP('',(#1858,#1859,#1867,#1873));
#1858 = ORIENTED_EDGE('',*,*,#1844,.T.);
#1859 = ORIENTED_EDGE('',*,*,#1860,.T.);
#1860 = EDGE_CURVE('',#1837,#1861,#1863,.T.);
#1861 = VERTEX_POINT('',#1862);
#1862 = CARTESIAN_POINT('',(23.397853002997,50.7,22.225000000002));
#1863 = LINE('',#1864,#1865);
#1864 = CARTESIAN_POINT('',(21.795706005998,50.7,25.000000000003));
#1865 = VECTOR('',#1866,1.);
#1866 = DIRECTION('',(0.499999999999,-8.660254037849E-16,-0.866025403785
    ));
#1867 = ORIENTED_EDGE('',*,*,#1868,.F.);
#1868 = EDGE_CURVE('',#837,#1861,#1869,.T.);
#1869 = LINE('',#1870,#1871);
#1870 = CARTESIAN_POINT('',(23.397853002997,45.7,22.225000000002));
#1871 = VECTOR('',#1872,1.);
#1872 = DIRECTION('',(0.,1.,-1.E-15));
#1873 = ORIENTED_EDGE('',*,*,#844,.F.);
#1874 = PLANE('',#1875);
#1875 = AXIS2_PLACEMENT_3D('',#1876,#1877,#1878);
#1876 = CARTESIAN_POINT('',(21.795706005998,45.7,25.000000000003));
#1877 = DIRECTION('',(-0.866025403785,-5.E-16,-0.499999999999));
#1878 = DIRECTION('',(0.499999999999,-8.7E-16,-0.866025403785));
#1879 = ADVANCED_FACE('',(#1880),#1898,.F.);
#1880 = FACE_BOUND('',#1881,.F.);
#1881 = EDGE_LOOP('',(#1882,#1883,#1891,#1897));
#1882 = ORIENTED_EDGE('',*,*,#1868,.T.);
#1883 = ORIENTED_EDGE('',*,*,#1884,.T.);
#1884 = EDGE_CURVE('',#1861,#1885,#1887,.T.);
#1885 = VERTEX_POINT('',#1886);
#1886 = CARTESIAN_POINT('',(26.602146996999,50.7,22.224999999999));
#1887 = LINE('',#1888,#1889);
#1888 = CARTESIAN_POINT('',(23.397853002997,50.7,22.225000000002));
#1889 = VECTOR('',#1890,1.);
#1890 = DIRECTION('',(1.,-6.8354E-28,-6.8354E-13));
#1891 = ORIENTED_EDGE('',*,*,#1892,.F.);
#1892 = EDGE_CURVE('',#829,#1885,#1893,.T.);
#1893 = LINE('',#1894,#1895);
#1894 = CARTESIAN_POINT('',(26.602146996999,45.7,22.224999999999));
#1895 = VECTOR('',#1896,1.);
#1896 = DIRECTION('',(0.,1.,-1.E-15));
#1897 = ORIENTED_EDGE('',*,*,#836,.F.);
#1898 = PLANE('',#1899);
#1899 = AXIS2_PLACEMENT_3D('',#1900,#1901,#1902);
#1900 = CARTESIAN_POINT('',(23.397853002997,45.7,22.225000000002));
#1901 = DIRECTION('',(-6.8354E-13,-1.E-15,-1.));
#1902 = DIRECTION('',(1.,0.,-6.8354E-13));
#1903 = ADVANCED_FACE('',(#1904),#1915,.F.);
#1904 = FACE_BOUND('',#1905,.F.);
#1905 = EDGE_LOOP('',(#1906,#1907,#1913,#1914));
#1906 = ORIENTED_EDGE('',*,*,#1892,.T.);
#1907 = ORIENTED_EDGE('',*,*,#1908,.T.);
#1908 = EDGE_CURVE('',#1885,#1781,#1909,.T.);
#1909 = LINE('',#1910,#1911);
#1910 = CARTESIAN_POINT('',(26.602146996999,50.7,22.224999999999));
#1911 = VECTOR('',#1912,1.);
#1912 = DIRECTION('',(0.5,8.660254037842E-16,0.866025403784));
#1913 = ORIENTED_EDGE('',*,*,#1780,.F.);
#1914 = ORIENTED_EDGE('',*,*,#828,.F.);
#1915 = PLANE('',#1916);
#1916 = AXIS2_PLACEMENT_3D('',#1917,#1918,#1919);
#1917 = CARTESIAN_POINT('',(26.602146996999,45.7,22.224999999999));
#1918 = DIRECTION('',(0.866025403784,-5.E-16,-0.5));
#1919 = DIRECTION('',(0.5,8.7E-16,0.866025403784));
#1920 = ADVANCED_FACE('',(#1921),#1946,.F.);
#1921 = FACE_BOUND('',#1922,.F.);
#1922 = EDGE_LOOP('',(#1923,#1931,#1939,#1945));
#1923 = ORIENTED_EDGE('',*,*,#1924,.T.);
#1924 = EDGE_CURVE('',#869,#1925,#1927,.T.);
#1925 = VERTEX_POINT('',#1926);
#1926 = CARTESIAN_POINT('',(28.204293994002,50.7,14.999999999999));
#1927 = LINE('',#1928,#1929);
#1928 = CARTESIAN_POINT('',(28.204293994002,45.7,14.999999999999));
#1929 = VECTOR('',#1930,1.);
#1930 = DIRECTION('',(0.,1.,-1.E-15));
#1931 = ORIENTED_EDGE('',*,*,#1932,.T.);
#1932 = EDGE_CURVE('',#1925,#1933,#1935,.T.);
#1933 = VERTEX_POINT('',#1934);
#1934 = CARTESIAN_POINT('',(26.602146997001,50.7,17.774999999999));
#1935 = LINE('',#1936,#1937);
#1936 = CARTESIAN_POINT('',(28.204293994002,50.7,14.999999999999));
#1937 = VECTOR('',#1938,1.);
#1938 = DIRECTION('',(-0.5,8.660254037846E-16,0.866025403785));
#1939 = ORIENTED_EDGE('',*,*,#1940,.F.);
#1940 = EDGE_CURVE('',#871,#1933,#1941,.T.);
#1941 = LINE('',#1942,#1943);
#1942 = CARTESIAN_POINT('',(26.602146997001,45.7,17.774999999999));
#1943 = VECTOR('',#1944,1.);
#1944 = DIRECTION('',(0.,1.,-1.E-15));
#1945 = ORIENTED_EDGE('',*,*,#868,.F.);
#1946 = PLANE('',#1947);
#1947 = AXIS2_PLACEMENT_3D('',#1948,#1949,#1950);
#1948 = CARTESIAN_POINT('',(28.204293994002,45.7,14.999999999999));
#1949 = DIRECTION('',(0.866025403785,5.E-16,0.5));
#1950 = DIRECTION('',(-0.5,8.7E-16,0.866025403785));
#1951 = ADVANCED_FACE('',(#1952),#1970,.F.);
#1952 = FACE_BOUND('',#1953,.F.);
#1953 = EDGE_LOOP('',(#1954,#1962,#1968,#1969));
#1954 = ORIENTED_EDGE('',*,*,#1955,.T.);
#1955 = EDGE_CURVE('',#879,#1956,#1958,.T.);
#1956 = VERTEX_POINT('',#1957);
#1957 = CARTESIAN_POINT('',(26.602146996999,50.7,12.224999999999));
#1958 = LINE('',#1959,#1960);
#1959 = CARTESIAN_POINT('',(26.602146996999,45.7,12.224999999999));
#1960 = VECTOR('',#1961,1.);
#1961 = DIRECTION('',(0.,1.,-1.E-15));
#1962 = ORIENTED_EDGE('',*,*,#1963,.T.);
#1963 = EDGE_CURVE('',#1956,#1925,#1964,.T.);
#1964 = LINE('',#1965,#1966);
#1965 = CARTESIAN_POINT('',(26.602146996999,50.7,12.224999999999));
#1966 = VECTOR('',#1967,1.);
#1967 = DIRECTION('',(0.5,8.660254037842E-16,0.866025403784));
#1968 = ORIENTED_EDGE('',*,*,#1924,.F.);
#1969 = ORIENTED_EDGE('',*,*,#878,.F.);
#1970 = PLANE('',#1971);
#1971 = AXIS2_PLACEMENT_3D('',#1972,#1973,#1974);
#1972 = CARTESIAN_POINT('',(26.602146996999,45.7,12.224999999999));
#1973 = DIRECTION('',(0.866025403784,-5.E-16,-0.5));
#1974 = DIRECTION('',(0.5,8.7E-16,0.866025403784));
#1975 = ADVANCED_FACE('',(#1976),#1994,.F.);
#1976 = FACE_BOUND('',#1977,.F.);
#1977 = EDGE_LOOP('',(#1978,#1979,#1987,#1993));
#1978 = ORIENTED_EDGE('',*,*,#1940,.T.);
#1979 = ORIENTED_EDGE('',*,*,#1980,.T.);
#1980 = EDGE_CURVE('',#1933,#1981,#1983,.T.);
#1981 = VERTEX_POINT('',#1982);
#1982 = CARTESIAN_POINT('',(23.397853002999,50.7,17.774999999999));
#1983 = LINE('',#1984,#1985);
#1984 = CARTESIAN_POINT('',(26.602146997001,50.7,17.774999999999));
#1985 = VECTOR('',#1986,1.);
#1986 = DIRECTION('',(-1.,0.,0.));
#1987 = ORIENTED_EDGE('',*,*,#1988,.F.);
#1988 = EDGE_CURVE('',#903,#1981,#1989,.T.);
#1989 = LINE('',#1990,#1991);
#1990 = CARTESIAN_POINT('',(23.397853002999,45.7,17.774999999999));
#1991 = VECTOR('',#1992,1.);
#1992 = DIRECTION('',(0.,1.,-1.E-15));
#1993 = ORIENTED_EDGE('',*,*,#910,.F.);
#1994 = PLANE('',#1995);
#1995 = AXIS2_PLACEMENT_3D('',#1996,#1997,#1998);
#1996 = CARTESIAN_POINT('',(26.602146997001,45.7,17.774999999999));
#1997 = DIRECTION('',(0.,1.E-15,1.));
#1998 = DIRECTION('',(-1.,0.,0.));
#1999 = ADVANCED_FACE('',(#2000),#2018,.F.);
#2000 = FACE_BOUND('',#2001,.F.);
#2001 = EDGE_LOOP('',(#2002,#2010,#2016,#2017));
#2002 = ORIENTED_EDGE('',*,*,#2003,.T.);
#2003 = EDGE_CURVE('',#887,#2004,#2006,.T.);
#2004 = VERTEX_POINT('',#2005);
#2005 = CARTESIAN_POINT('',(23.397853002997,50.7,12.225000000002));
#2006 = LINE('',#2007,#2008);
#2007 = CARTESIAN_POINT('',(23.397853002997,45.7,12.225000000002));
#2008 = VECTOR('',#2009,1.);
#2009 = DIRECTION('',(0.,1.,-1.E-15));
#2010 = ORIENTED_EDGE('',*,*,#2011,.T.);
#2011 = EDGE_CURVE('',#2004,#1956,#2012,.T.);
#2012 = LINE('',#2013,#2014);
#2013 = CARTESIAN_POINT('',(23.397853002997,50.7,12.225000000002));
#2014 = VECTOR('',#2015,1.);
#2015 = DIRECTION('',(1.,-6.8354E-28,-6.8354E-13));
#2016 = ORIENTED_EDGE('',*,*,#1955,.F.);
#2017 = ORIENTED_EDGE('',*,*,#886,.F.);
#2018 = PLANE('',#2019);
#2019 = AXIS2_PLACEMENT_3D('',#2020,#2021,#2022);
#2020 = CARTESIAN_POINT('',(23.397853002997,45.7,12.225000000002));
#2021 = DIRECTION('',(-6.8354E-13,-1.E-15,-1.));
#2022 = DIRECTION('',(1.,0.,-6.8354E-13));
#2023 = ADVANCED_FACE('',(#2024),#2042,.F.);
#2024 = FACE_BOUND('',#2025,.F.);
#2025 = EDGE_LOOP('',(#2026,#2027,#2035,#2041));
#2026 = ORIENTED_EDGE('',*,*,#1988,.T.);
#2027 = ORIENTED_EDGE('',*,*,#2028,.T.);
#2028 = EDGE_CURVE('',#1981,#2029,#2031,.T.);
#2029 = VERTEX_POINT('',#2030);
#2030 = CARTESIAN_POINT('',(21.795706005998,50.7,15.000000000003));
#2031 = LINE('',#2032,#2033);
#2032 = CARTESIAN_POINT('',(23.397853002999,50.7,17.774999999999));
#2033 = VECTOR('',#2034,1.);
#2034 = DIRECTION('',(-0.5,-8.660254037842E-16,-0.866025403784));
#2035 = ORIENTED_EDGE('',*,*,#2036,.F.);
#2036 = EDGE_CURVE('',#895,#2029,#2037,.T.);
#2037 = LINE('',#2038,#2039);
#2038 = CARTESIAN_POINT('',(21.795706005998,45.7,15.000000000003));
#2039 = VECTOR('',#2040,1.);
#2040 = DIRECTION('',(0.,1.,-1.E-15));
#2041 = ORIENTED_EDGE('',*,*,#902,.F.);
#2042 = PLANE('',#2043);
#2043 = AXIS2_PLACEMENT_3D('',#2044,#2045,#2046);
#2044 = CARTESIAN_POINT('',(23.397853002999,45.7,17.774999999999));
#2045 = DIRECTION('',(-0.866025403784,5.E-16,0.5));
#2046 = DIRECTION('',(-0.5,-8.7E-16,-0.866025403784));
#2047 = ADVANCED_FACE('',(#2048),#2059,.F.);
#2048 = FACE_BOUND('',#2049,.F.);
#2049 = EDGE_LOOP('',(#2050,#2051,#2057,#2058));
#2050 = ORIENTED_EDGE('',*,*,#2036,.T.);
#2051 = ORIENTED_EDGE('',*,*,#2052,.T.);
#2052 = EDGE_CURVE('',#2029,#2004,#2053,.T.);
#2053 = LINE('',#2054,#2055);
#2054 = CARTESIAN_POINT('',(21.795706005998,50.7,15.000000000003));
#2055 = VECTOR('',#2056,1.);
#2056 = DIRECTION('',(0.499999999999,-8.660254037849E-16,-0.866025403785
    ));
#2057 = ORIENTED_EDGE('',*,*,#2003,.F.);
#2058 = ORIENTED_EDGE('',*,*,#894,.F.);
#2059 = PLANE('',#2060);
#2060 = AXIS2_PLACEMENT_3D('',#2061,#2062,#2063);
#2061 = CARTESIAN_POINT('',(21.795706005998,45.7,15.000000000003));
#2062 = DIRECTION('',(-0.866025403785,-5.E-16,-0.499999999999));
#2063 = DIRECTION('',(0.499999999999,-8.7E-16,-0.866025403785));
#2064 = ADVANCED_FACE('',(#2065,#2075,#2086),#2097,.F.);
#2065 = FACE_BOUND('',#2066,.T.);
#2066 = EDGE_LOOP('',(#2067,#2068,#2069,#2070,#2071,#2072,#2073,#2074));
#2067 = ORIENTED_EDGE('',*,*,#1505,.F.);
#2068 = ORIENTED_EDGE('',*,*,#965,.T.);
#2069 = ORIENTED_EDGE('',*,*,#924,.T.);
#2070 = ORIENTED_EDGE('',*,*,#1738,.T.);
#2071 = ORIENTED_EDGE('',*,*,#1763,.T.);
#2072 = ORIENTED_EDGE('',*,*,#1713,.F.);
#2073 = ORIENTED_EDGE('',*,*,#1689,.F.);
#2074 = ORIENTED_EDGE('',*,*,#1664,.F.);
#2075 = FACE_BOUND('',#2076,.T.);
#2076 = EDGE_LOOP('',(#2077));
#2077 = ORIENTED_EDGE('',*,*,#2078,.T.);
#2078 = EDGE_CURVE('',#2079,#2079,#2081,.T.);
#2079 = VERTEX_POINT('',#2080);
#2080 = CARTESIAN_POINT('',(23.35,55.7,25.));
#2081 = CIRCLE('',#2082,1.65);
#2082 = AXIS2_PLACEMENT_3D('',#2083,#2084,#2085);
#2083 = CARTESIAN_POINT('',(25.,55.7,25.));
#2084 = DIRECTION('',(0.,-1.,4.4E-16));
#2085 = DIRECTION('',(-1.,0.,0.));
#2086 = FACE_BOUND('',#2087,.T.);
#2087 = EDGE_LOOP('',(#2088));
#2088 = ORIENTED_EDGE('',*,*,#2089,.T.);
#2089 = EDGE_CURVE('',#2090,#2090,#2092,.T.);
#2090 = VERTEX_POINT('',#2091);
#2091 = CARTESIAN_POINT('',(23.35,55.7,15.));
#2092 = CIRCLE('',#2093,1.65);
#2093 = AXIS2_PLACEMENT_3D('',#2094,#2095,#2096);
#2094 = CARTESIAN_POINT('',(25.,55.7,15.));
#2095 = DIRECTION('',(0.,-1.,4.4E-16));
#2096 = DIRECTION('',(-1.,0.,0.));
#2097 = PLANE('',#2098);
#2098 = AXIS2_PLACEMENT_3D('',#2099,#2100,#2101);
#2099 = CARTESIAN_POINT('',(20.,55.7,-1.855E-14));
#2100 = DIRECTION('',(0.,-1.,6.7E-16));
#2101 = DIRECTION('',(-1.,-0.,-0.));
#2102 = ADVANCED_FACE('',(#2103),#2130,.T.);
#2103 = FACE_BOUND('',#2104,.T.);
#2104 = EDGE_LOOP('',(#2105,#2114,#2122,#2129));
#2105 = ORIENTED_EDGE('',*,*,#2106,.T.);
#2106 = EDGE_CURVE('',#997,#2107,#2109,.T.);
#2107 = VERTEX_POINT('',#2108);
#2108 = CARTESIAN_POINT('',(8.,32.,15.));
#2109 = ELLIPSE('',#2110,1.414213562373,1.);
#2110 = AXIS2_PLACEMENT_3D('',#2111,#2112,#2113);
#2111 = CARTESIAN_POINT('',(8.,32.,14.));
#2112 = DIRECTION('',(-0.707106781187,0.707106781187,-7.1E-16));
#2113 = DIRECTION('',(-0.707106781187,-0.707106781187,7.1E-16));
#2114 = ORIENTED_EDGE('',*,*,#2115,.T.);
#2115 = EDGE_CURVE('',#2107,#2116,#2118,.T.);
#2116 = VERTEX_POINT('',#2117);
#2117 = CARTESIAN_POINT('',(8.,36.,15.));
#2118 = LINE('',#2119,#2120);
#2119 = CARTESIAN_POINT('',(8.,31.,15.));
#2120 = VECTOR('',#2121,1.);
#2121 = DIRECTION('',(0.,1.,-1.E-15));
#2122 = ORIENTED_EDGE('',*,*,#2123,.F.);
#2123 = EDGE_CURVE('',#1005,#2116,#2124,.T.);
#2124 = ELLIPSE('',#2125,1.414213562373,1.);
#2125 = AXIS2_PLACEMENT_3D('',#2126,#2127,#2128);
#2126 = CARTESIAN_POINT('',(8.,36.,14.));
#2127 = DIRECTION('',(0.707106781187,0.707106781187,-7.1E-16));
#2128 = DIRECTION('',(0.707106781187,-0.707106781187,7.1E-16));
#2129 = ORIENTED_EDGE('',*,*,#1004,.F.);
#2130 = CYLINDRICAL_SURFACE('',#2131,1.);
#2131 = AXIS2_PLACEMENT_3D('',#2132,#2133,#2134);
#2132 = CARTESIAN_POINT('',(8.,31.,14.));
#2133 = DIRECTION('',(0.,1.,-1.E-15));
#2134 = DIRECTION('',(-1.,0.,0.));
#2135 = ADVANCED_FACE('',(#2136),#2155,.T.);
#2136 = FACE_BOUND('',#2137,.T.);
#2137 = EDGE_LOOP('',(#2138,#2147,#2153,#2154));
#2138 = ORIENTED_EDGE('',*,*,#2139,.T.);
#2139 = EDGE_CURVE('',#1028,#2140,#2142,.T.);
#2140 = VERTEX_POINT('',#2141);
#2141 = CARTESIAN_POINT('',(12.,32.,15.));
#2142 = ELLIPSE('',#2143,1.414213562373,1.);
#2143 = AXIS2_PLACEMENT_3D('',#2144,#2145,#2146);
#2144 = CARTESIAN_POINT('',(12.,32.,14.));
#2145 = DIRECTION('',(-0.707106781187,-0.707106781187,7.1E-16));
#2146 = DIRECTION('',(0.707106781187,-0.707106781187,7.1E-16));
#2147 = ORIENTED_EDGE('',*,*,#2148,.T.);
#2148 = EDGE_CURVE('',#2140,#2107,#2149,.T.);
#2149 = LINE('',#2150,#2151);
#2150 = CARTESIAN_POINT('',(13.,32.,15.));
#2151 = VECTOR('',#2152,1.);
#2152 = DIRECTION('',(-1.,0.,0.));
#2153 = ORIENTED_EDGE('',*,*,#2106,.F.);
#2154 = ORIENTED_EDGE('',*,*,#1035,.F.);
#2155 = CYLINDRICAL_SURFACE('',#2156,1.);
#2156 = AXIS2_PLACEMENT_3D('',#2157,#2158,#2159);
#2157 = CARTESIAN_POINT('',(13.,32.,14.));
#2158 = DIRECTION('',(-1.,0.,0.));
#2159 = DIRECTION('',(0.,-1.,1.E-15));
#2160 = ADVANCED_FACE('',(#2161),#2180,.T.);
#2161 = FACE_BOUND('',#2162,.T.);
#2162 = EDGE_LOOP('',(#2163,#2172,#2178,#2179));
#2163 = ORIENTED_EDGE('',*,*,#2164,.T.);
#2164 = EDGE_CURVE('',#1052,#2165,#2167,.T.);
#2165 = VERTEX_POINT('',#2166);
#2166 = CARTESIAN_POINT('',(12.,36.,15.));
#2167 = ELLIPSE('',#2168,1.414213562373,1.);
#2168 = AXIS2_PLACEMENT_3D('',#2169,#2170,#2171);
#2169 = CARTESIAN_POINT('',(12.,36.,14.));
#2170 = DIRECTION('',(0.707106781187,-0.707106781187,7.1E-16));
#2171 = DIRECTION('',(0.707106781187,0.707106781187,-7.1E-16));
#2172 = ORIENTED_EDGE('',*,*,#2173,.T.);
#2173 = EDGE_CURVE('',#2165,#2140,#2174,.T.);
#2174 = LINE('',#2175,#2176);
#2175 = CARTESIAN_POINT('',(12.,37.,15.));
#2176 = VECTOR('',#2177,1.);
#2177 = DIRECTION('',(0.,-1.,1.E-15));
#2178 = ORIENTED_EDGE('',*,*,#2139,.F.);
#2179 = ORIENTED_EDGE('',*,*,#1059,.F.);
#2180 = CYLINDRICAL_SURFACE('',#2181,1.);
#2181 = AXIS2_PLACEMENT_3D('',#2182,#2183,#2184);
#2182 = CARTESIAN_POINT('',(12.,37.,14.));
#2183 = DIRECTION('',(0.,-1.,1.E-15));
#2184 = DIRECTION('',(1.,0.,0.));
#2185 = ADVANCED_FACE('',(#2186),#2197,.T.);
#2186 = FACE_BOUND('',#2187,.T.);
#2187 = EDGE_LOOP('',(#2188,#2189,#2195,#2196));
#2188 = ORIENTED_EDGE('',*,*,#2123,.T.);
#2189 = ORIENTED_EDGE('',*,*,#2190,.T.);
#2190 = EDGE_CURVE('',#2116,#2165,#2191,.T.);
#2191 = LINE('',#2192,#2193);
#2192 = CARTESIAN_POINT('',(7.,36.,15.));
#2193 = VECTOR('',#2194,1.);
#2194 = DIRECTION('',(1.,0.,0.));
#2195 = ORIENTED_EDGE('',*,*,#2164,.F.);
#2196 = ORIENTED_EDGE('',*,*,#1076,.F.);
#2197 = CYLINDRICAL_SURFACE('',#2198,1.);
#2198 = AXIS2_PLACEMENT_3D('',#2199,#2200,#2201);
#2199 = CARTESIAN_POINT('',(7.,36.,14.));
#2200 = DIRECTION('',(1.,0.,0.));
#2201 = DIRECTION('',(0.,1.,-1.E-15));
#2202 = ADVANCED_FACE('',(#2203,#2211),#2222,.T.);
#2203 = FACE_BOUND('',#2204,.T.);
#2204 = EDGE_LOOP('',(#2205,#2206,#2207,#2208,#2209,#2210));
#2205 = ORIENTED_EDGE('',*,*,#1336,.T.);
#2206 = ORIENTED_EDGE('',*,*,#1319,.T.);
#2207 = ORIENTED_EDGE('',*,*,#1295,.T.);
#2208 = ORIENTED_EDGE('',*,*,#1271,.T.);
#2209 = ORIENTED_EDGE('',*,*,#1247,.T.);
#2210 = ORIENTED_EDGE('',*,*,#1216,.T.);
#2211 = FACE_BOUND('',#2212,.T.);
#2212 = EDGE_LOOP('',(#2213));
#2213 = ORIENTED_EDGE('',*,*,#2214,.F.);
#2214 = EDGE_CURVE('',#2215,#2215,#2217,.T.);
#2215 = VERTEX_POINT('',#2216);
#2216 = CARTESIAN_POINT('',(23.35,5.,25.));
#2217 = CIRCLE('',#2218,1.65);
#2218 = AXIS2_PLACEMENT_3D('',#2219,#2220,#2221);
#2219 = CARTESIAN_POINT('',(25.,5.,25.));
#2220 = DIRECTION('',(0.,1.,-4.4E-16));
#2221 = DIRECTION('',(-1.,0.,0.));
#2222 = PLANE('',#2223);
#2223 = AXIS2_PLACEMENT_3D('',#2224,#2225,#2226);
#2224 = CARTESIAN_POINT('',(25.,5.,25.));
#2225 = DIRECTION('',(0.,1.,-6.4E-16));
#2226 = DIRECTION('',(0.,-6.4E-16,-1.));
#2227 = ADVANCED_FACE('',(#2228,#2236),#2247,.T.);
#2228 = FACE_BOUND('',#2229,.T.);
#2229 = EDGE_LOOP('',(#2230,#2231,#2232,#2233,#2234,#2235));
#2230 = ORIENTED_EDGE('',*,*,#1408,.T.);
#2231 = ORIENTED_EDGE('',*,*,#1456,.T.);
#2232 = ORIENTED_EDGE('',*,*,#1480,.T.);
#2233 = ORIENTED_EDGE('',*,*,#1439,.T.);
#2234 = ORIENTED_EDGE('',*,*,#1391,.T.);
#2235 = ORIENTED_EDGE('',*,*,#1360,.T.);
#2236 = FACE_BOUND('',#2237,.T.);
#2237 = EDGE_LOOP('',(#2238));
#2238 = ORIENTED_EDGE('',*,*,#2239,.F.);
#2239 = EDGE_CURVE('',#2240,#2240,#2242,.T.);
#2240 = VERTEX_POINT('',#2241);
#2241 = CARTESIAN_POINT('',(23.35,5.,15.));
#2242 = CIRCLE('',#2243,1.65);
#2243 = AXIS2_PLACEMENT_3D('',#2244,#2245,#2246);
#2244 = CARTESIAN_POINT('',(25.,5.,15.));
#2245 = DIRECTION('',(0.,1.,-4.4E-16));
#2246 = DIRECTION('',(-1.,0.,0.));
#2247 = PLANE('',#2248);
#2248 = AXIS2_PLACEMENT_3D('',#2249,#2250,#2251);
#2249 = CARTESIAN_POINT('',(25.,5.,15.));
#2250 = DIRECTION('',(0.,1.,-6.4E-16));
#2251 = DIRECTION('',(0.,-6.4E-16,-1.));
#2252 = ADVANCED_FACE('',(#2253),#2264,.F.);
#2253 = FACE_BOUND('',#2254,.F.);
#2254 = EDGE_LOOP('',(#2255,#2256,#2262,#2263));
#2255 = ORIENTED_EDGE('',*,*,#2214,.F.);
#2256 = ORIENTED_EDGE('',*,*,#2257,.T.);
#2257 = EDGE_CURVE('',#2215,#1537,#2258,.T.);
#2258 = LINE('',#2259,#2260);
#2259 = CARTESIAN_POINT('',(23.35,10.,25.));
#2260 = VECTOR('',#2261,1.);
#2261 = DIRECTION('',(0.,-1.,1.1E-16));
#2262 = ORIENTED_EDGE('',*,*,#1536,.T.);
#2263 = ORIENTED_EDGE('',*,*,#2257,.F.);
#2264 = CYLINDRICAL_SURFACE('',#2265,1.65);
#2265 = AXIS2_PLACEMENT_3D('',#2266,#2267,#2268);
#2266 = CARTESIAN_POINT('',(25.,10.,25.));
#2267 = DIRECTION('',(0.,1.,-1.1E-16));
#2268 = DIRECTION('',(-1.,0.,0.));
#2269 = ADVANCED_FACE('',(#2270),#2281,.F.);
#2270 = FACE_BOUND('',#2271,.F.);
#2271 = EDGE_LOOP('',(#2272,#2273,#2279,#2280));
#2272 = ORIENTED_EDGE('',*,*,#2239,.F.);
#2273 = ORIENTED_EDGE('',*,*,#2274,.T.);
#2274 = EDGE_CURVE('',#2240,#1548,#2275,.T.);
#2275 = LINE('',#2276,#2277);
#2276 = CARTESIAN_POINT('',(23.35,10.,15.));
#2277 = VECTOR('',#2278,1.);
#2278 = DIRECTION('',(0.,-1.,1.1E-16));
#2279 = ORIENTED_EDGE('',*,*,#1547,.T.);
#2280 = ORIENTED_EDGE('',*,*,#2274,.F.);
#2281 = CYLINDRICAL_SURFACE('',#2282,1.65);
#2282 = AXIS2_PLACEMENT_3D('',#2283,#2284,#2285);
#2283 = CARTESIAN_POINT('',(25.,10.,15.));
#2284 = DIRECTION('',(0.,1.,-1.1E-16));
#2285 = DIRECTION('',(-1.,0.,0.));
#2286 = ADVANCED_FACE('',(#2287),#2293,.F.);
#2287 = FACE_BOUND('',#2288,.F.);
#2288 = EDGE_LOOP('',(#2289,#2290,#2291,#2292));
#2289 = ORIENTED_EDGE('',*,*,#1573,.T.);
#2290 = ORIENTED_EDGE('',*,*,#1598,.T.);
#2291 = ORIENTED_EDGE('',*,*,#1623,.T.);
#2292 = ORIENTED_EDGE('',*,*,#1648,.T.);
#2293 = PLANE('',#2294);
#2294 = AXIS2_PLACEMENT_3D('',#2295,#2296,#2297);
#2295 = CARTESIAN_POINT('',(10.,27.85,15.));
#2296 = DIRECTION('',(0.,-1.07E-15,-1.));
#2297 = DIRECTION('',(0.,1.,-1.07E-15));
#2298 = ADVANCED_FACE('',(#2299,#2307),#2318,.F.);
#2299 = FACE_BOUND('',#2300,.F.);
#2300 = EDGE_LOOP('',(#2301,#2302,#2303,#2304,#2305,#2306));
#2301 = ORIENTED_EDGE('',*,*,#1788,.F.);
#2302 = ORIENTED_EDGE('',*,*,#1908,.F.);
#2303 = ORIENTED_EDGE('',*,*,#1884,.F.);
#2304 = ORIENTED_EDGE('',*,*,#1860,.F.);
#2305 = ORIENTED_EDGE('',*,*,#1836,.F.);
#2306 = ORIENTED_EDGE('',*,*,#1812,.F.);
#2307 = FACE_BOUND('',#2308,.F.);
#2308 = EDGE_LOOP('',(#2309));
#2309 = ORIENTED_EDGE('',*,*,#2310,.T.);
#2310 = EDGE_CURVE('',#2311,#2311,#2313,.T.);
#2311 = VERTEX_POINT('',#2312);
#2312 = CARTESIAN_POINT('',(23.35,50.7,25.));
#2313 = CIRCLE('',#2314,1.65);
#2314 = AXIS2_PLACEMENT_3D('',#2315,#2316,#2317);
#2315 = CARTESIAN_POINT('',(25.,50.7,25.));
#2316 = DIRECTION('',(0.,-1.,8.9E-16));
#2317 = DIRECTION('',(-1.,0.,0.));
#2318 = PLANE('',#2319);
#2319 = AXIS2_PLACEMENT_3D('',#2320,#2321,#2322);
#2320 = CARTESIAN_POINT('',(25.,50.7,25.));
#2321 = DIRECTION('',(0.,1.,-1.28E-15));
#2322 = DIRECTION('',(0.,-1.28E-15,-1.));
#2323 = ADVANCED_FACE('',(#2324,#2332),#2343,.F.);
#2324 = FACE_BOUND('',#2325,.F.);
#2325 = EDGE_LOOP('',(#2326,#2327,#2328,#2329,#2330,#2331));
#2326 = ORIENTED_EDGE('',*,*,#1932,.F.);
#2327 = ORIENTED_EDGE('',*,*,#1963,.F.);
#2328 = ORIENTED_EDGE('',*,*,#2011,.F.);
#2329 = ORIENTED_EDGE('',*,*,#2052,.F.);
#2330 = ORIENTED_EDGE('',*,*,#2028,.F.);
#2331 = ORIENTED_EDGE('',*,*,#1980,.F.);
#2332 = FACE_BOUND('',#2333,.F.);
#2333 = EDGE_LOOP('',(#2334));
#2334 = ORIENTED_EDGE('',*,*,#2335,.T.);
#2335 = EDGE_CURVE('',#2336,#2336,#2338,.T.);
#2336 = VERTEX_POINT('',#2337);
#2337 = CARTESIAN_POINT('',(23.35,50.7,15.));
#2338 = CIRCLE('',#2339,1.65);
#2339 = AXIS2_PLACEMENT_3D('',#2340,#2341,#2342);
#2340 = CARTESIAN_POINT('',(25.,50.7,15.));
#2341 = DIRECTION('',(0.,-1.,8.9E-16));
#2342 = DIRECTION('',(-1.,0.,0.));
#2343 = PLANE('',#2344);
#2344 = AXIS2_PLACEMENT_3D('',#2345,#2346,#2347);
#2345 = CARTESIAN_POINT('',(25.,50.7,15.));
#2346 = DIRECTION('',(0.,1.,-1.28E-15));
#2347 = DIRECTION('',(0.,-1.28E-15,-1.));
#2348 = ADVANCED_FACE('',(#2349),#2360,.F.);
#2349 = FACE_BOUND('',#2350,.T.);
#2350 = EDGE_LOOP('',(#2351,#2352,#2358,#2359));
#2351 = ORIENTED_EDGE('',*,*,#2310,.T.);
#2352 = ORIENTED_EDGE('',*,*,#2353,.T.);
#2353 = EDGE_CURVE('',#2311,#2079,#2354,.T.);
#2354 = LINE('',#2355,#2356);
#2355 = CARTESIAN_POINT('',(23.35,45.7,25.));
#2356 = VECTOR('',#2357,1.);
#2357 = DIRECTION('',(0.,1.,-5.6E-16));
#2358 = ORIENTED_EDGE('',*,*,#2078,.F.);
#2359 = ORIENTED_EDGE('',*,*,#2353,.F.);
#2360 = CYLINDRICAL_SURFACE('',#2361,1.65);
#2361 = AXIS2_PLACEMENT_3D('',#2362,#2363,#2364);
#2362 = CARTESIAN_POINT('',(25.,45.7,25.));
#2363 = DIRECTION('',(0.,-1.,5.6E-16));
#2364 = DIRECTION('',(-1.,0.,0.));
#2365 = ADVANCED_FACE('',(#2366),#2377,.F.);
#2366 = FACE_BOUND('',#2367,.T.);
#2367 = EDGE_LOOP('',(#2368,#2369,#2375,#2376));
#2368 = ORIENTED_EDGE('',*,*,#2335,.T.);
#2369 = ORIENTED_EDGE('',*,*,#2370,.T.);
#2370 = EDGE_CURVE('',#2336,#2090,#2371,.T.);
#2371 = LINE('',#2372,#2373);
#2372 = CARTESIAN_POINT('',(23.35,45.7,15.));
#2373 = VECTOR('',#2374,1.);
#2374 = DIRECTION('',(0.,1.,-5.6E-16));
#2375 = ORIENTED_EDGE('',*,*,#2089,.F.);
#2376 = ORIENTED_EDGE('',*,*,#2370,.F.);
#2377 = CYLINDRICAL_SURFACE('',#2378,1.65);
#2378 = AXIS2_PLACEMENT_3D('',#2379,#2380,#2381);
#2379 = CARTESIAN_POINT('',(25.,45.7,15.));
#2380 = DIRECTION('',(0.,-1.,5.6E-16));
#2381 = DIRECTION('',(-1.,0.,0.));
#2382 = ADVANCED_FACE('',(#2383),#2389,.F.);
#2383 = FACE_BOUND('',#2384,.F.);
#2384 = EDGE_LOOP('',(#2385,#2386,#2387,#2388));
#2385 = ORIENTED_EDGE('',*,*,#2190,.T.);
#2386 = ORIENTED_EDGE('',*,*,#2173,.T.);
#2387 = ORIENTED_EDGE('',*,*,#2148,.T.);
#2388 = ORIENTED_EDGE('',*,*,#2115,.T.);
#2389 = PLANE('',#2390);
#2390 = AXIS2_PLACEMENT_3D('',#2391,#2392,#2393);
#2391 = CARTESIAN_POINT('',(10.,27.85,15.));
#2392 = DIRECTION('',(0.,-1.07E-15,-1.));
#2393 = DIRECTION('',(0.,1.,-1.07E-15));
#2394 = ( GEOMETRIC_REPRESENTATION_CONTEXT(3) 
GLOBAL_UNCERTAINTY_ASSIGNED_CONTEXT((#2398)) 
GLOBAL_UNIT_ASSIGNED_CONTEXT((#2395,#2396,#2397)) REPRESENTATION_CONTEXT
('Context #1','3D Context with UNIT and UNCERTAINTY') );
#2395 = ( LENGTH_UNIT() NAMED_UNIT(*) SI_UNIT(.MILLI.,.METRE.) );
#2396 = ( NAMED_UNIT(*) PLANE_ANGLE_UNIT() SI_UNIT($,.RADIAN.) );
#2397 = ( NAMED_UNIT(*) SI_UNIT($,.STERADIAN.) SOLID_ANGLE_UNIT() );
#2398 = UNCERTAINTY_MEASURE_WITH_UNIT(LENGTH_MEASURE(1.E-07),#2395,
  'distance_accuracy_value','confusion accuracy');
#2399 = PRODUCT_RELATED_PRODUCT_CATEGORY('part',$,(#7));
#2400 = MECHANICAL_DESIGN_GEOMETRIC_PRESENTATION_REPRESENTATION('',(
    #2401),#2394);
#2401 = STYLED_ITEM('color',(#2402),#15);
#2402 = PRESENTATION_STYLE_ASSIGNMENT((#2403,#2409));
#2403 = SURFACE_STYLE_USAGE(.BOTH.,#2404);
#2404 = SURFACE_SIDE_STYLE('',(#2405));
#2405 = SURFACE_STYLE_FILL_AREA(#2406);
#2406 = FILL_AREA_STYLE('',(#2407));
#2407 = FILL_AREA_STYLE_COLOUR('',#2408);
#2408 = COLOUR_RGB('',0.800000010877,0.800000010877,0.800000010877);
#2409 = CURVE_STYLE('',#2410,POSITIVE_LENGTH_MEASURE(0.1),#2411);
#2410 = DRAUGHTING_PRE_DEFINED_CURVE_FONT('continuous');
#2411 = COLOUR_RGB('',9.803921802644E-02,9.803921802644E-02,
  9.803921802644E-02);
ENDSEC;
END-ISO-10303-21;
