ISO-10303-21;
HEADER;
FILE_DESCRIPTION(('FreeCAD Model'),'2;1');
FILE_NAME('Open CASCADE Shape Model','2025-12-16T11:14:22',('Author'),(
    ''),'Open CASCADE STEP processor 7.6','FreeCAD','Unknown');
FILE_SCHEMA(('AUTOMOTIVE_DESIGN { 1 0 10303 214 1 1 1 1 }'));
ENDSEC;
DATA;
#1 = APPLICATION_PROTOCOL_DEFINITION('international standard',
  'automotive_design',2000,#2);
#2 = APPLICATION_CONTEXT(
  'core data for automotive mechanical design processes');
#3 = SHAPE_DEFINITION_REPRESENTATION(#4,#10);
#4 = PRODUCT_DEFINITION_SHAPE('','',#5);
#5 = PRODUCT_DEFINITION('design','',#6,#9);
#6 = PRODUCT_DEFINITION_FORMATION('','',#7);
#7 = PRODUCT('Pad002','Pad002','',(#8));
#8 = PRODUCT_CONTEXT('',#2,'mechanical');
#9 = PRODUCT_DEFINITION_CONTEXT('part definition',#2,'design');
#10 = ADVANCED_BREP_SHAPE_REPRESENTATION('',(#11,#15),#2241);
#11 = AXIS2_PLACEMENT_3D('',#12,#13,#14);
#12 = CARTESIAN_POINT('',(0.,0.,0.));
#13 = DIRECTION('',(0.,0.,1.));
#14 = DIRECTION('',(1.,0.,-0.));
#15 = MANIFOLD_SOLID_BREP('',#16);
#16 = CLOSED_SHELL('',(#17,#65,#104,#143,#198,#222,#246,#393,#425,#603,
    #620,#651,#675,#716,#748,#772,#796,#838,#860,#877,#894,#911,#928,
    #945,#962,#979,#996,#1013,#1025,#1042,#1067,#1092,#1239,#1264,#1427,
    #1451,#1482,#1513,#1525,#1550,#1575,#1615,#1639,#1656,#1682,#1694,
    #1706,#1728,#1745,#1762,#1779,#1796,#1813,#1830,#1847,#1864,#1881,
    #1898,#1910,#1935,#1960,#1977,#2008,#2032,#2044,#2069,#2094,#2118,
    #2161,#2186,#2198,#2210,#2227));
#17 = ADVANCED_FACE('',(#18),#60,.T.);
#18 = FACE_BOUND('',#19,.F.);
#19 = EDGE_LOOP('',(#20,#30,#38,#46,#54));
#20 = ORIENTED_EDGE('',*,*,#21,.F.);
#21 = EDGE_CURVE('',#22,#24,#26,.T.);
#22 = VERTEX_POINT('',#23);
#23 = CARTESIAN_POINT('',(39.2,0.,0.));
#24 = VERTEX_POINT('',#25);
#25 = CARTESIAN_POINT('',(0.,0.,0.));
#26 = LINE('',#27,#28);
#27 = CARTESIAN_POINT('',(44.,0.,0.));
#28 = VECTOR('',#29,1.);
#29 = DIRECTION('',(-1.,-0.,-0.));
#30 = ORIENTED_EDGE('',*,*,#31,.T.);
#31 = EDGE_CURVE('',#22,#32,#34,.T.);
#32 = VERTEX_POINT('',#33);
#33 = CARTESIAN_POINT('',(39.2,0.,-1.6));
#34 = LINE('',#35,#36);
#35 = CARTESIAN_POINT('',(39.2,0.,0.));
#36 = VECTOR('',#37,1.);
#37 = DIRECTION('',(-0.,-0.,-1.));
#38 = ORIENTED_EDGE('',*,*,#39,.T.);
#39 = EDGE_CURVE('',#32,#40,#42,.T.);
#40 = VERTEX_POINT('',#41);
#41 = CARTESIAN_POINT('',(33.2,1.E-15,-7.6));
#42 = LINE('',#43,#44);
#43 = CARTESIAN_POINT('',(38.1,-1.67E-15,-2.7));
#44 = VECTOR('',#45,1.);
#45 = DIRECTION('',(-0.707106781187,-0.,-0.707106781187));
#46 = ORIENTED_EDGE('',*,*,#47,.T.);
#47 = EDGE_CURVE('',#40,#48,#50,.T.);
#48 = VERTEX_POINT('',#49);
#49 = CARTESIAN_POINT('',(0.,0.,-7.6));
#50 = LINE('',#51,#52);
#51 = CARTESIAN_POINT('',(39.2,0.,-7.6));
#52 = VECTOR('',#53,1.);
#53 = DIRECTION('',(-1.,0.,0.));
#54 = ORIENTED_EDGE('',*,*,#55,.F.);
#55 = EDGE_CURVE('',#24,#48,#56,.T.);
#56 = LINE('',#57,#58);
#57 = CARTESIAN_POINT('',(0.,0.,0.));
#58 = VECTOR('',#59,1.);
#59 = DIRECTION('',(0.,0.,-1.));
#60 = PLANE('',#61);
#61 = AXIS2_PLACEMENT_3D('',#62,#63,#64);
#62 = CARTESIAN_POINT('',(39.2,0.,0.));
#63 = DIRECTION('',(0.,-1.,0.));
#64 = DIRECTION('',(1.,0.,0.));
#65 = ADVANCED_FACE('',(#66),#99,.F.);
#66 = FACE_BOUND('',#67,.T.);
#67 = EDGE_LOOP('',(#68,#76,#84,#92,#98));
#68 = ORIENTED_EDGE('',*,*,#69,.F.);
#69 = EDGE_CURVE('',#70,#22,#72,.T.);
#70 = VERTEX_POINT('',#71);
#71 = CARTESIAN_POINT('',(41.,0.,0.));
#72 = LINE('',#73,#74);
#73 = CARTESIAN_POINT('',(44.,0.,0.));
#74 = VECTOR('',#75,1.);
#75 = DIRECTION('',(-1.,-0.,-0.));
#76 = ORIENTED_EDGE('',*,*,#77,.T.);
#77 = EDGE_CURVE('',#70,#78,#80,.T.);
#78 = VERTEX_POINT('',#79);
#79 = CARTESIAN_POINT('',(41.,-1.E-15,10.));
#80 = LINE('',#81,#82);
#81 = CARTESIAN_POINT('',(41.,-4.4E-16,0.));
#82 = VECTOR('',#83,1.);
#83 = DIRECTION('',(0.,0.,1.));
#84 = ORIENTED_EDGE('',*,*,#85,.T.);
#85 = EDGE_CURVE('',#78,#86,#88,.T.);
#86 = VERTEX_POINT('',#87);
#87 = CARTESIAN_POINT('',(0.,0.,10.));
#88 = LINE('',#89,#90);
#89 = CARTESIAN_POINT('',(44.,0.,10.));
#90 = VECTOR('',#91,1.);
#91 = DIRECTION('',(-1.,-0.,-0.));
#92 = ORIENTED_EDGE('',*,*,#93,.F.);
#93 = EDGE_CURVE('',#24,#86,#94,.T.);
#94 = LINE('',#95,#96);
#95 = CARTESIAN_POINT('',(0.,0.,0.));
#96 = VECTOR('',#97,1.);
#97 = DIRECTION('',(0.,0.,1.));
#98 = ORIENTED_EDGE('',*,*,#21,.F.);
#99 = PLANE('',#100);
#100 = AXIS2_PLACEMENT_3D('',#101,#102,#103);
#101 = CARTESIAN_POINT('',(44.,0.,0.));
#102 = DIRECTION('',(0.,1.,0.));
#103 = DIRECTION('',(1.,0.,0.));
#104 = ADVANCED_FACE('',(#105),#138,.T.);
#105 = FACE_BOUND('',#106,.T.);
#106 = EDGE_LOOP('',(#107,#117,#125,#131,#132));
#107 = ORIENTED_EDGE('',*,*,#108,.T.);
#108 = EDGE_CURVE('',#109,#111,#113,.T.);
#109 = VERTEX_POINT('',#110);
#110 = CARTESIAN_POINT('',(-39.2,0.,0.));
#111 = VERTEX_POINT('',#112);
#112 = CARTESIAN_POINT('',(-39.2,0.,-1.6));
#113 = LINE('',#114,#115);
#114 = CARTESIAN_POINT('',(-39.2,0.,0.));
#115 = VECTOR('',#116,1.);
#116 = DIRECTION('',(0.,0.,-1.));
#117 = ORIENTED_EDGE('',*,*,#118,.T.);
#118 = EDGE_CURVE('',#111,#119,#121,.T.);
#119 = VERTEX_POINT('',#120);
#120 = CARTESIAN_POINT('',(-33.2,0.,-7.6));
#121 = LINE('',#122,#123);
#122 = CARTESIAN_POINT('',(-38.1,-1.67E-15,-2.7));
#123 = VECTOR('',#124,1.);
#124 = DIRECTION('',(0.707106781187,0.,-0.707106781187));
#125 = ORIENTED_EDGE('',*,*,#126,.T.);
#126 = EDGE_CURVE('',#119,#48,#127,.T.);
#127 = LINE('',#128,#129);
#128 = CARTESIAN_POINT('',(-39.2,0.,-7.6));
#129 = VECTOR('',#130,1.);
#130 = DIRECTION('',(1.,0.,0.));
#131 = ORIENTED_EDGE('',*,*,#55,.F.);
#132 = ORIENTED_EDGE('',*,*,#133,.F.);
#133 = EDGE_CURVE('',#109,#24,#134,.T.);
#134 = LINE('',#135,#136);
#135 = CARTESIAN_POINT('',(-44.,0.,0.));
#136 = VECTOR('',#137,1.);
#137 = DIRECTION('',(1.,0.,0.));
#138 = PLANE('',#139);
#139 = AXIS2_PLACEMENT_3D('',#140,#141,#142);
#140 = CARTESIAN_POINT('',(-39.2,0.,0.));
#141 = DIRECTION('',(-0.,-1.,-0.));
#142 = DIRECTION('',(1.,0.,0.));
#143 = ADVANCED_FACE('',(#144),#193,.T.);
#144 = FACE_BOUND('',#145,.F.);
#145 = EDGE_LOOP('',(#146,#147,#155,#163,#171,#179,#187));
#146 = ORIENTED_EDGE('',*,*,#47,.F.);
#147 = ORIENTED_EDGE('',*,*,#148,.F.);
#148 = EDGE_CURVE('',#149,#40,#151,.T.);
#149 = VERTEX_POINT('',#150);
#150 = CARTESIAN_POINT('',(33.2,12.5,-7.6));
#151 = LINE('',#152,#153);
#152 = CARTESIAN_POINT('',(33.2,15.,-7.6));
#153 = VECTOR('',#154,1.);
#154 = DIRECTION('',(0.,-1.,0.));
#155 = ORIENTED_EDGE('',*,*,#156,.F.);
#156 = EDGE_CURVE('',#157,#149,#159,.T.);
#157 = VERTEX_POINT('',#158);
#158 = CARTESIAN_POINT('',(2.303627574067,12.5,-7.6));
#159 = LINE('',#160,#161);
#160 = CARTESIAN_POINT('',(0.,12.5,-7.6));
#161 = VECTOR('',#162,1.);
#162 = DIRECTION('',(1.,0.,0.));
#163 = ORIENTED_EDGE('',*,*,#164,.T.);
#164 = EDGE_CURVE('',#157,#165,#167,.T.);
#165 = VERTEX_POINT('',#166);
#166 = CARTESIAN_POINT('',(4.607255148133,8.51,-7.6));
#167 = LINE('',#168,#169);
#168 = CARTESIAN_POINT('',(2.303627574067,12.5,-7.6));
#169 = VECTOR('',#170,1.);
#170 = DIRECTION('',(0.5,-0.866025403784,0.));
#171 = ORIENTED_EDGE('',*,*,#172,.T.);
#172 = EDGE_CURVE('',#165,#173,#175,.T.);
#173 = VERTEX_POINT('',#174);
#174 = CARTESIAN_POINT('',(2.303627574067,4.52,-7.6));
#175 = LINE('',#176,#177);
#176 = CARTESIAN_POINT('',(4.607255148133,8.51,-7.6));
#177 = VECTOR('',#178,1.);
#178 = DIRECTION('',(-0.5,-0.866025403784,0.));
#179 = ORIENTED_EDGE('',*,*,#180,.T.);
#180 = EDGE_CURVE('',#173,#181,#183,.T.);
#181 = VERTEX_POINT('',#182);
#182 = CARTESIAN_POINT('',(0.,4.52,-7.6));
#183 = LINE('',#184,#185);
#184 = CARTESIAN_POINT('',(2.303627574067,4.52,-7.6));
#185 = VECTOR('',#186,1.);
#186 = DIRECTION('',(-1.,0.,0.));
#187 = ORIENTED_EDGE('',*,*,#188,.F.);
#188 = EDGE_CURVE('',#48,#181,#189,.T.);
#189 = LINE('',#190,#191);
#190 = CARTESIAN_POINT('',(0.,0.,-7.6));
#191 = VECTOR('',#192,1.);
#192 = DIRECTION('',(0.,1.,0.));
#193 = PLANE('',#194);
#194 = AXIS2_PLACEMENT_3D('',#195,#196,#197);
#195 = CARTESIAN_POINT('',(19.6,7.5,-7.6));
#196 = DIRECTION('',(0.,2.2E-16,-1.));
#197 = DIRECTION('',(0.,-1.,-2.2E-16));
#198 = ADVANCED_FACE('',(#199),#217,.T.);
#199 = FACE_BOUND('',#200,.T.);
#200 = EDGE_LOOP('',(#201,#209,#215,#216));
#201 = ORIENTED_EDGE('',*,*,#202,.F.);
#202 = EDGE_CURVE('',#203,#149,#205,.T.);
#203 = VERTEX_POINT('',#204);
#204 = CARTESIAN_POINT('',(39.2,12.5,-1.6));
#205 = LINE('',#206,#207);
#206 = CARTESIAN_POINT('',(28.3,12.5,-12.5));
#207 = VECTOR('',#208,1.);
#208 = DIRECTION('',(-0.707106781187,-0.,-0.707106781187));
#209 = ORIENTED_EDGE('',*,*,#210,.T.);
#210 = EDGE_CURVE('',#203,#32,#211,.T.);
#211 = LINE('',#212,#213);
#212 = CARTESIAN_POINT('',(39.2,15.,-1.6));
#213 = VECTOR('',#214,1.);
#214 = DIRECTION('',(0.,-1.,0.));
#215 = ORIENTED_EDGE('',*,*,#39,.T.);
#216 = ORIENTED_EDGE('',*,*,#148,.F.);
#217 = PLANE('',#218);
#218 = AXIS2_PLACEMENT_3D('',#219,#220,#221);
#219 = CARTESIAN_POINT('',(36.2,15.,-4.6));
#220 = DIRECTION('',(0.707106781187,1.E-17,-0.707106781187));
#221 = DIRECTION('',(7.071067811865E-18,-1.,-7.071067811865E-18));
#222 = ADVANCED_FACE('',(#223),#241,.T.);
#223 = FACE_BOUND('',#224,.F.);
#224 = EDGE_LOOP('',(#225,#233,#239,#240));
#225 = ORIENTED_EDGE('',*,*,#226,.F.);
#226 = EDGE_CURVE('',#227,#22,#229,.T.);
#227 = VERTEX_POINT('',#228);
#228 = CARTESIAN_POINT('',(39.2,12.5,2.E-15));
#229 = LINE('',#230,#231);
#230 = CARTESIAN_POINT('',(39.2,15.,0.));
#231 = VECTOR('',#232,1.);
#232 = DIRECTION('',(0.,-1.,0.));
#233 = ORIENTED_EDGE('',*,*,#234,.T.);
#234 = EDGE_CURVE('',#227,#203,#235,.T.);
#235 = LINE('',#236,#237);
#236 = CARTESIAN_POINT('',(39.2,12.5,0.));
#237 = VECTOR('',#238,1.);
#238 = DIRECTION('',(-0.,-0.,-1.));
#239 = ORIENTED_EDGE('',*,*,#210,.T.);
#240 = ORIENTED_EDGE('',*,*,#31,.F.);
#241 = PLANE('',#242);
#242 = AXIS2_PLACEMENT_3D('',#243,#244,#245);
#243 = CARTESIAN_POINT('',(39.2,15.,0.));
#244 = DIRECTION('',(1.,0.,0.));
#245 = DIRECTION('',(0.,1.,0.));
#246 = ADVANCED_FACE('',(#247,#366,#377),#388,.T.);
#247 = FACE_BOUND('',#248,.F.);
#248 = EDGE_LOOP('',(#249,#259,#267,#273,#274,#275,#284,#292,#300,#308,
    #317,#325,#334,#342,#351,#359));
#249 = ORIENTED_EDGE('',*,*,#250,.F.);
#250 = EDGE_CURVE('',#251,#253,#255,.T.);
#251 = VERTEX_POINT('',#252);
#252 = CARTESIAN_POINT('',(34.,15.,2.E-15));
#253 = VERTEX_POINT('',#254);
#254 = CARTESIAN_POINT('',(34.,29.8,3.E-15));
#255 = LINE('',#256,#257);
#256 = CARTESIAN_POINT('',(34.,15.,0.));
#257 = VECTOR('',#258,1.);
#258 = DIRECTION('',(0.,1.,0.));
#259 = ORIENTED_EDGE('',*,*,#260,.T.);
#260 = EDGE_CURVE('',#251,#261,#263,.T.);
#261 = VERTEX_POINT('',#262);
#262 = CARTESIAN_POINT('',(39.2,15.,2.E-15));
#263 = LINE('',#264,#265);
#264 = CARTESIAN_POINT('',(0.,15.,0.));
#265 = VECTOR('',#266,1.);
#266 = DIRECTION('',(1.,0.,0.));
#267 = ORIENTED_EDGE('',*,*,#268,.T.);
#268 = EDGE_CURVE('',#261,#227,#269,.T.);
#269 = LINE('',#270,#271);
#270 = CARTESIAN_POINT('',(39.2,15.,0.));
#271 = VECTOR('',#272,1.);
#272 = DIRECTION('',(0.,-1.,0.));
#273 = ORIENTED_EDGE('',*,*,#226,.T.);
#274 = ORIENTED_EDGE('',*,*,#69,.F.);
#275 = ORIENTED_EDGE('',*,*,#276,.F.);
#276 = EDGE_CURVE('',#277,#70,#279,.T.);
#277 = VERTEX_POINT('',#278);
#278 = CARTESIAN_POINT('',(44.,3.,0.));
#279 = CIRCLE('',#280,3.);
#280 = AXIS2_PLACEMENT_3D('',#281,#282,#283);
#281 = CARTESIAN_POINT('',(41.,3.,0.));
#282 = DIRECTION('',(0.,0.,-1.));
#283 = DIRECTION('',(0.,-1.,0.));
#284 = ORIENTED_EDGE('',*,*,#285,.F.);
#285 = EDGE_CURVE('',#286,#277,#288,.T.);
#286 = VERTEX_POINT('',#287);
#287 = CARTESIAN_POINT('',(44.,22.8,3.E-15));
#288 = LINE('',#289,#290);
#289 = CARTESIAN_POINT('',(44.,22.8,0.));
#290 = VECTOR('',#291,1.);
#291 = DIRECTION('',(-0.,-1.,-0.));
#292 = ORIENTED_EDGE('',*,*,#293,.F.);
#293 = EDGE_CURVE('',#294,#286,#296,.T.);
#294 = VERTEX_POINT('',#295);
#295 = CARTESIAN_POINT('',(90.,22.8,3.E-15));
#296 = LINE('',#297,#298);
#297 = CARTESIAN_POINT('',(90.,22.8,0.));
#298 = VECTOR('',#299,1.);
#299 = DIRECTION('',(-1.,-0.,-0.));
#300 = ORIENTED_EDGE('',*,*,#301,.F.);
#301 = EDGE_CURVE('',#302,#294,#304,.T.);
#302 = VERTEX_POINT('',#303);
#303 = CARTESIAN_POINT('',(90.,5.8,1.E-15));
#304 = LINE('',#305,#306);
#305 = CARTESIAN_POINT('',(90.,2.8,0.));
#306 = VECTOR('',#307,1.);
#307 = DIRECTION('',(0.,1.,0.));
#308 = ORIENTED_EDGE('',*,*,#309,.T.);
#309 = EDGE_CURVE('',#302,#310,#312,.T.);
#310 = VERTEX_POINT('',#311);
#311 = CARTESIAN_POINT('',(93.,2.8,0.));
#312 = CIRCLE('',#313,3.);
#313 = AXIS2_PLACEMENT_3D('',#314,#315,#316);
#314 = CARTESIAN_POINT('',(93.,5.8,0.));
#315 = DIRECTION('',(-0.,0.,1.));
#316 = DIRECTION('',(0.,-1.,0.));
#317 = ORIENTED_EDGE('',*,*,#318,.F.);
#318 = EDGE_CURVE('',#319,#310,#321,.T.);
#319 = VERTEX_POINT('',#320);
#320 = CARTESIAN_POINT('',(97.,2.8,0.));
#321 = LINE('',#322,#323);
#322 = CARTESIAN_POINT('',(100.,2.8,0.));
#323 = VECTOR('',#324,1.);
#324 = DIRECTION('',(-1.,-0.,-0.));
#325 = ORIENTED_EDGE('',*,*,#326,.F.);
#326 = EDGE_CURVE('',#327,#319,#329,.T.);
#327 = VERTEX_POINT('',#328);
#328 = CARTESIAN_POINT('',(100.,5.8,1.E-15));
#329 = CIRCLE('',#330,3.);
#330 = AXIS2_PLACEMENT_3D('',#331,#332,#333);
#331 = CARTESIAN_POINT('',(97.,5.8,0.));
#332 = DIRECTION('',(0.,0.,-1.));
#333 = DIRECTION('',(0.,-1.,0.));
#334 = ORIENTED_EDGE('',*,*,#335,.F.);
#335 = EDGE_CURVE('',#336,#327,#338,.T.);
#336 = VERTEX_POINT('',#337);
#337 = CARTESIAN_POINT('',(100.,29.8,0.));
#338 = LINE('',#339,#340);
#339 = CARTESIAN_POINT('',(100.,32.8,0.));
#340 = VECTOR('',#341,1.);
#341 = DIRECTION('',(-0.,-1.,-0.));
#342 = ORIENTED_EDGE('',*,*,#343,.F.);
#343 = EDGE_CURVE('',#344,#336,#346,.T.);
#344 = VERTEX_POINT('',#345);
#345 = CARTESIAN_POINT('',(97.,32.8,0.));
#346 = CIRCLE('',#347,3.);
#347 = AXIS2_PLACEMENT_3D('',#348,#349,#350);
#348 = CARTESIAN_POINT('',(97.,29.8,3.28E-15));
#349 = DIRECTION('',(-0.,-1.1E-16,-1.));
#350 = DIRECTION('',(0.,-1.,1.1E-16));
#351 = ORIENTED_EDGE('',*,*,#352,.F.);
#352 = EDGE_CURVE('',#353,#344,#355,.T.);
#353 = VERTEX_POINT('',#354);
#354 = CARTESIAN_POINT('',(37.,32.8,4.E-15));
#355 = LINE('',#356,#357);
#356 = CARTESIAN_POINT('',(34.,32.8,0.));
#357 = VECTOR('',#358,1.);
#358 = DIRECTION('',(1.,0.,0.));
#359 = ORIENTED_EDGE('',*,*,#360,.T.);
#360 = EDGE_CURVE('',#353,#253,#361,.T.);
#361 = CIRCLE('',#362,3.);
#362 = AXIS2_PLACEMENT_3D('',#363,#364,#365);
#363 = CARTESIAN_POINT('',(37.,29.8,0.));
#364 = DIRECTION('',(-0.,0.,1.));
#365 = DIRECTION('',(0.,-1.,0.));
#366 = FACE_BOUND('',#367,.F.);
#367 = EDGE_LOOP('',(#368));
#368 = ORIENTED_EDGE('',*,*,#369,.F.);
#369 = EDGE_CURVE('',#370,#370,#372,.T.);
#370 = VERTEX_POINT('',#371);
#371 = CARTESIAN_POINT('',(93.35,7.8,2.E-15));
#372 = CIRCLE('',#373,1.65);
#373 = AXIS2_PLACEMENT_3D('',#374,#375,#376);
#374 = CARTESIAN_POINT('',(95.,7.8,1.78E-15));
#375 = DIRECTION('',(0.,-1.1E-16,1.));
#376 = DIRECTION('',(-1.,0.,0.));
#377 = FACE_BOUND('',#378,.F.);
#378 = EDGE_LOOP('',(#379));
#379 = ORIENTED_EDGE('',*,*,#380,.F.);
#380 = EDGE_CURVE('',#381,#381,#383,.T.);
#381 = VERTEX_POINT('',#382);
#382 = CARTESIAN_POINT('',(93.35,17.8,5.E-15));
#383 = CIRCLE('',#384,1.65);
#384 = AXIS2_PLACEMENT_3D('',#385,#386,#387);
#385 = CARTESIAN_POINT('',(95.,17.8,5.33E-15));
#386 = DIRECTION('',(0.,-1.1E-16,1.));
#387 = DIRECTION('',(-1.,0.,0.));
#388 = PLANE('',#389);
#389 = AXIS2_PLACEMENT_3D('',#390,#391,#392);
#390 = CARTESIAN_POINT('',(53.692408376963,17.471989528796,3.88E-15));
#391 = DIRECTION('',(0.,2.2E-16,-1.));
#392 = DIRECTION('',(0.,-1.,-2.2E-16));
#393 = ADVANCED_FACE('',(#394),#420,.F.);
#394 = FACE_BOUND('',#395,.F.);
#395 = EDGE_LOOP('',(#396,#404,#412,#418,#419));
#396 = ORIENTED_EDGE('',*,*,#397,.F.);
#397 = EDGE_CURVE('',#398,#109,#400,.T.);
#398 = VERTEX_POINT('',#399);
#399 = CARTESIAN_POINT('',(-41.,0.,0.));
#400 = LINE('',#401,#402);
#401 = CARTESIAN_POINT('',(-44.,0.,0.));
#402 = VECTOR('',#403,1.);
#403 = DIRECTION('',(1.,0.,0.));
#404 = ORIENTED_EDGE('',*,*,#405,.T.);
#405 = EDGE_CURVE('',#398,#406,#408,.T.);
#406 = VERTEX_POINT('',#407);
#407 = CARTESIAN_POINT('',(-41.,0.,10.));
#408 = LINE('',#409,#410);
#409 = CARTESIAN_POINT('',(-41.,-4.4E-16,0.));
#410 = VECTOR('',#411,1.);
#411 = DIRECTION('',(0.,0.,1.));
#412 = ORIENTED_EDGE('',*,*,#413,.T.);
#413 = EDGE_CURVE('',#406,#86,#414,.T.);
#414 = LINE('',#415,#416);
#415 = CARTESIAN_POINT('',(-44.,0.,10.));
#416 = VECTOR('',#417,1.);
#417 = DIRECTION('',(1.,0.,0.));
#418 = ORIENTED_EDGE('',*,*,#93,.F.);
#419 = ORIENTED_EDGE('',*,*,#133,.F.);
#420 = PLANE('',#421);
#421 = AXIS2_PLACEMENT_3D('',#422,#423,#424);
#422 = CARTESIAN_POINT('',(-44.,0.,0.));
#423 = DIRECTION('',(0.,1.,0.));
#424 = DIRECTION('',(1.,0.,0.));
#425 = ADVANCED_FACE('',(#426,#576,#587),#598,.F.);
#426 = FACE_BOUND('',#427,.T.);
#427 = EDGE_LOOP('',(#428,#436,#437,#446,#454,#462,#470,#479,#487,#496,
    #504,#513,#521,#530,#538,#546,#554,#562,#570));
#428 = ORIENTED_EDGE('',*,*,#429,.F.);
#429 = EDGE_CURVE('',#86,#430,#432,.T.);
#430 = VERTEX_POINT('',#431);
#431 = CARTESIAN_POINT('',(0.,2.4,10.));
#432 = LINE('',#433,#434);
#433 = CARTESIAN_POINT('',(0.,0.,10.));
#434 = VECTOR('',#435,1.);
#435 = DIRECTION('',(0.,1.,0.));
#436 = ORIENTED_EDGE('',*,*,#85,.F.);
#437 = ORIENTED_EDGE('',*,*,#438,.F.);
#438 = EDGE_CURVE('',#439,#78,#441,.T.);
#439 = VERTEX_POINT('',#440);
#440 = CARTESIAN_POINT('',(44.,3.,10.));
#441 = CIRCLE('',#442,3.);
#442 = AXIS2_PLACEMENT_3D('',#443,#444,#445);
#443 = CARTESIAN_POINT('',(41.,3.,10.));
#444 = DIRECTION('',(0.,0.,-1.));
#445 = DIRECTION('',(0.,-1.,0.));
#446 = ORIENTED_EDGE('',*,*,#447,.F.);
#447 = EDGE_CURVE('',#448,#439,#450,.T.);
#448 = VERTEX_POINT('',#449);
#449 = CARTESIAN_POINT('',(44.,22.8,10.));
#450 = LINE('',#451,#452);
#451 = CARTESIAN_POINT('',(44.,22.8,10.));
#452 = VECTOR('',#453,1.);
#453 = DIRECTION('',(-0.,-1.,-0.));
#454 = ORIENTED_EDGE('',*,*,#455,.F.);
#455 = EDGE_CURVE('',#456,#448,#458,.T.);
#456 = VERTEX_POINT('',#457);
#457 = CARTESIAN_POINT('',(90.,22.8,10.));
#458 = LINE('',#459,#460);
#459 = CARTESIAN_POINT('',(90.,22.8,10.));
#460 = VECTOR('',#461,1.);
#461 = DIRECTION('',(-1.,-0.,-0.));
#462 = ORIENTED_EDGE('',*,*,#463,.F.);
#463 = EDGE_CURVE('',#464,#456,#466,.T.);
#464 = VERTEX_POINT('',#465);
#465 = CARTESIAN_POINT('',(90.,5.8,10.));
#466 = LINE('',#467,#468);
#467 = CARTESIAN_POINT('',(90.,2.8,10.));
#468 = VECTOR('',#469,1.);
#469 = DIRECTION('',(0.,1.,0.));
#470 = ORIENTED_EDGE('',*,*,#471,.T.);
#471 = EDGE_CURVE('',#464,#472,#474,.T.);
#472 = VERTEX_POINT('',#473);
#473 = CARTESIAN_POINT('',(93.,2.8,10.));
#474 = CIRCLE('',#475,3.);
#475 = AXIS2_PLACEMENT_3D('',#476,#477,#478);
#476 = CARTESIAN_POINT('',(93.,5.8,10.));
#477 = DIRECTION('',(-0.,0.,1.));
#478 = DIRECTION('',(0.,-1.,0.));
#479 = ORIENTED_EDGE('',*,*,#480,.F.);
#480 = EDGE_CURVE('',#481,#472,#483,.T.);
#481 = VERTEX_POINT('',#482);
#482 = CARTESIAN_POINT('',(97.,2.8,10.));
#483 = LINE('',#484,#485);
#484 = CARTESIAN_POINT('',(100.,2.8,10.));
#485 = VECTOR('',#486,1.);
#486 = DIRECTION('',(-1.,-0.,-0.));
#487 = ORIENTED_EDGE('',*,*,#488,.F.);
#488 = EDGE_CURVE('',#489,#481,#491,.T.);
#489 = VERTEX_POINT('',#490);
#490 = CARTESIAN_POINT('',(100.,5.8,10.));
#491 = CIRCLE('',#492,3.);
#492 = AXIS2_PLACEMENT_3D('',#493,#494,#495);
#493 = CARTESIAN_POINT('',(97.,5.8,10.));
#494 = DIRECTION('',(0.,0.,-1.));
#495 = DIRECTION('',(0.,-1.,0.));
#496 = ORIENTED_EDGE('',*,*,#497,.F.);
#497 = EDGE_CURVE('',#498,#489,#500,.T.);
#498 = VERTEX_POINT('',#499);
#499 = CARTESIAN_POINT('',(100.,29.8,10.));
#500 = LINE('',#501,#502);
#501 = CARTESIAN_POINT('',(100.,32.8,10.));
#502 = VECTOR('',#503,1.);
#503 = DIRECTION('',(-0.,-1.,-0.));
#504 = ORIENTED_EDGE('',*,*,#505,.F.);
#505 = EDGE_CURVE('',#506,#498,#508,.T.);
#506 = VERTEX_POINT('',#507);
#507 = CARTESIAN_POINT('',(97.,32.8,10.));
#508 = CIRCLE('',#509,3.);
#509 = AXIS2_PLACEMENT_3D('',#510,#511,#512);
#510 = CARTESIAN_POINT('',(97.,29.8,10.));
#511 = DIRECTION('',(-0.,-1.1E-16,-1.));
#512 = DIRECTION('',(0.,-1.,1.1E-16));
#513 = ORIENTED_EDGE('',*,*,#514,.F.);
#514 = EDGE_CURVE('',#515,#506,#517,.T.);
#515 = VERTEX_POINT('',#516);
#516 = CARTESIAN_POINT('',(37.,32.8,10.));
#517 = LINE('',#518,#519);
#518 = CARTESIAN_POINT('',(34.,32.8,10.));
#519 = VECTOR('',#520,1.);
#520 = DIRECTION('',(1.,0.,0.));
#521 = ORIENTED_EDGE('',*,*,#522,.T.);
#522 = EDGE_CURVE('',#515,#523,#525,.T.);
#523 = VERTEX_POINT('',#524);
#524 = CARTESIAN_POINT('',(34.,29.8,10.));
#525 = CIRCLE('',#526,3.);
#526 = AXIS2_PLACEMENT_3D('',#527,#528,#529);
#527 = CARTESIAN_POINT('',(37.,29.8,10.));
#528 = DIRECTION('',(-0.,0.,1.));
#529 = DIRECTION('',(0.,-1.,0.));
#530 = ORIENTED_EDGE('',*,*,#531,.F.);
#531 = EDGE_CURVE('',#532,#523,#534,.T.);
#532 = VERTEX_POINT('',#533);
#533 = CARTESIAN_POINT('',(34.,15.,10.));
#534 = LINE('',#535,#536);
#535 = CARTESIAN_POINT('',(34.,15.,10.));
#536 = VECTOR('',#537,1.);
#537 = DIRECTION('',(0.,1.,0.));
#538 = ORIENTED_EDGE('',*,*,#539,.T.);
#539 = EDGE_CURVE('',#532,#540,#542,.T.);
#540 = VERTEX_POINT('',#541);
#541 = CARTESIAN_POINT('',(34.,12.5,10.));
#542 = LINE('',#543,#544);
#543 = CARTESIAN_POINT('',(34.,15.,10.));
#544 = VECTOR('',#545,1.);
#545 = DIRECTION('',(0.,-1.,0.));
#546 = ORIENTED_EDGE('',*,*,#547,.F.);
#547 = EDGE_CURVE('',#548,#540,#550,.T.);
#548 = VERTEX_POINT('',#549);
#549 = CARTESIAN_POINT('',(13.,12.5,10.));
#550 = LINE('',#551,#552);
#551 = CARTESIAN_POINT('',(0.,12.5,10.));
#552 = VECTOR('',#553,1.);
#553 = DIRECTION('',(1.,0.,0.));
#554 = ORIENTED_EDGE('',*,*,#555,.T.);
#555 = EDGE_CURVE('',#548,#556,#558,.T.);
#556 = VERTEX_POINT('',#557);
#557 = CARTESIAN_POINT('',(13.,4.9,10.));
#558 = LINE('',#559,#560);
#559 = CARTESIAN_POINT('',(13.,15.,10.));
#560 = VECTOR('',#561,1.);
#561 = DIRECTION('',(0.,-1.,1.1E-16));
#562 = ORIENTED_EDGE('',*,*,#563,.T.);
#563 = EDGE_CURVE('',#556,#564,#566,.T.);
#564 = VERTEX_POINT('',#565);
#565 = CARTESIAN_POINT('',(13.,2.4,10.));
#566 = LINE('',#567,#568);
#567 = CARTESIAN_POINT('',(13.,15.,10.));
#568 = VECTOR('',#569,1.);
#569 = DIRECTION('',(0.,-1.,1.1E-16));
#570 = ORIENTED_EDGE('',*,*,#571,.T.);
#571 = EDGE_CURVE('',#564,#430,#572,.T.);
#572 = LINE('',#573,#574);
#573 = CARTESIAN_POINT('',(13.,2.4,10.));
#574 = VECTOR('',#575,1.);
#575 = DIRECTION('',(-1.,0.,0.));
#576 = FACE_BOUND('',#577,.T.);
#577 = EDGE_LOOP('',(#578));
#578 = ORIENTED_EDGE('',*,*,#579,.T.);
#579 = EDGE_CURVE('',#580,#580,#582,.T.);
#580 = VERTEX_POINT('',#581);
#581 = CARTESIAN_POINT('',(91.5,7.8,10.));
#582 = CIRCLE('',#583,3.5);
#583 = AXIS2_PLACEMENT_3D('',#584,#585,#586);
#584 = CARTESIAN_POINT('',(95.,7.8,10.));
#585 = DIRECTION('',(0.,0.,-1.));
#586 = DIRECTION('',(-1.,-0.,-0.));
#587 = FACE_BOUND('',#588,.T.);
#588 = EDGE_LOOP('',(#589));
#589 = ORIENTED_EDGE('',*,*,#590,.T.);
#590 = EDGE_CURVE('',#591,#591,#593,.T.);
#591 = VERTEX_POINT('',#592);
#592 = CARTESIAN_POINT('',(91.5,17.8,10.));
#593 = CIRCLE('',#594,3.5);
#594 = AXIS2_PLACEMENT_3D('',#595,#596,#597);
#595 = CARTESIAN_POINT('',(95.,17.8,10.));
#596 = DIRECTION('',(0.,0.,-1.));
#597 = DIRECTION('',(-1.,-0.,-0.));
#598 = PLANE('',#599);
#599 = AXIS2_PLACEMENT_3D('',#600,#601,#602);
#600 = CARTESIAN_POINT('',(53.692408376963,17.471989528796,10.));
#601 = DIRECTION('',(0.,2.2E-16,-1.));
#602 = DIRECTION('',(0.,-1.,-2.2E-16));
#603 = ADVANCED_FACE('',(#604),#615,.T.);
#604 = FACE_BOUND('',#605,.F.);
#605 = EDGE_LOOP('',(#606,#607,#608,#609));
#606 = ORIENTED_EDGE('',*,*,#276,.T.);
#607 = ORIENTED_EDGE('',*,*,#77,.T.);
#608 = ORIENTED_EDGE('',*,*,#438,.F.);
#609 = ORIENTED_EDGE('',*,*,#610,.F.);
#610 = EDGE_CURVE('',#277,#439,#611,.T.);
#611 = LINE('',#612,#613);
#612 = CARTESIAN_POINT('',(44.,3.,0.));
#613 = VECTOR('',#614,1.);
#614 = DIRECTION('',(0.,0.,1.));
#615 = CYLINDRICAL_SURFACE('',#616,3.);
#616 = AXIS2_PLACEMENT_3D('',#617,#618,#619);
#617 = CARTESIAN_POINT('',(41.,3.,0.));
#618 = DIRECTION('',(0.,0.,1.));
#619 = DIRECTION('',(1.,0.,0.));
#620 = ADVANCED_FACE('',(#621),#646,.T.);
#621 = FACE_BOUND('',#622,.T.);
#622 = EDGE_LOOP('',(#623,#631,#639,#645));
#623 = ORIENTED_EDGE('',*,*,#624,.F.);
#624 = EDGE_CURVE('',#625,#109,#627,.T.);
#625 = VERTEX_POINT('',#626);
#626 = CARTESIAN_POINT('',(-39.2,12.5,0.));
#627 = LINE('',#628,#629);
#628 = CARTESIAN_POINT('',(-39.2,15.,0.));
#629 = VECTOR('',#630,1.);
#630 = DIRECTION('',(0.,-1.,0.));
#631 = ORIENTED_EDGE('',*,*,#632,.T.);
#632 = EDGE_CURVE('',#625,#633,#635,.T.);
#633 = VERTEX_POINT('',#634);
#634 = CARTESIAN_POINT('',(-39.2,12.5,-1.6));
#635 = LINE('',#636,#637);
#636 = CARTESIAN_POINT('',(-39.2,12.5,0.));
#637 = VECTOR('',#638,1.);
#638 = DIRECTION('',(0.,0.,-1.));
#639 = ORIENTED_EDGE('',*,*,#640,.T.);
#640 = EDGE_CURVE('',#633,#111,#641,.T.);
#641 = LINE('',#642,#643);
#642 = CARTESIAN_POINT('',(-39.2,15.,-1.6));
#643 = VECTOR('',#644,1.);
#644 = DIRECTION('',(0.,-1.,0.));
#645 = ORIENTED_EDGE('',*,*,#108,.F.);
#646 = PLANE('',#647);
#647 = AXIS2_PLACEMENT_3D('',#648,#649,#650);
#648 = CARTESIAN_POINT('',(-39.2,15.,0.));
#649 = DIRECTION('',(-1.,0.,0.));
#650 = DIRECTION('',(0.,-1.,0.));
#651 = ADVANCED_FACE('',(#652),#670,.T.);
#652 = FACE_BOUND('',#653,.F.);
#653 = EDGE_LOOP('',(#654,#662,#663,#664));
#654 = ORIENTED_EDGE('',*,*,#655,.F.);
#655 = EDGE_CURVE('',#633,#656,#658,.T.);
#656 = VERTEX_POINT('',#657);
#657 = CARTESIAN_POINT('',(-33.2,12.5,-7.6));
#658 = LINE('',#659,#660);
#659 = CARTESIAN_POINT('',(-28.3,12.5,-12.5));
#660 = VECTOR('',#661,1.);
#661 = DIRECTION('',(0.707106781187,0.,-0.707106781187));
#662 = ORIENTED_EDGE('',*,*,#640,.T.);
#663 = ORIENTED_EDGE('',*,*,#118,.T.);
#664 = ORIENTED_EDGE('',*,*,#665,.F.);
#665 = EDGE_CURVE('',#656,#119,#666,.T.);
#666 = LINE('',#667,#668);
#667 = CARTESIAN_POINT('',(-33.2,15.,-7.6));
#668 = VECTOR('',#669,1.);
#669 = DIRECTION('',(0.,-1.,0.));
#670 = PLANE('',#671);
#671 = AXIS2_PLACEMENT_3D('',#672,#673,#674);
#672 = CARTESIAN_POINT('',(-36.2,15.,-4.6));
#673 = DIRECTION('',(-0.707106781187,1.E-17,-0.707106781187));
#674 = DIRECTION('',(7.071067811865E-18,1.,7.071067811865E-18));
#675 = ADVANCED_FACE('',(#676),#711,.T.);
#676 = FACE_BOUND('',#677,.T.);
#677 = EDGE_LOOP('',(#678,#679,#680,#688,#696,#704,#710));
#678 = ORIENTED_EDGE('',*,*,#126,.F.);
#679 = ORIENTED_EDGE('',*,*,#665,.F.);
#680 = ORIENTED_EDGE('',*,*,#681,.F.);
#681 = EDGE_CURVE('',#682,#656,#684,.T.);
#682 = VERTEX_POINT('',#683);
#683 = CARTESIAN_POINT('',(-2.303627574067,12.5,-7.6));
#684 = LINE('',#685,#686);
#685 = CARTESIAN_POINT('',(0.,12.5,-7.6));
#686 = VECTOR('',#687,1.);
#687 = DIRECTION('',(-1.,0.,0.));
#688 = ORIENTED_EDGE('',*,*,#689,.F.);
#689 = EDGE_CURVE('',#690,#682,#692,.T.);
#690 = VERTEX_POINT('',#691);
#691 = CARTESIAN_POINT('',(-4.607255148133,8.51,-7.6));
#692 = LINE('',#693,#694);
#693 = CARTESIAN_POINT('',(-4.607255148133,8.51,-7.6));
#694 = VECTOR('',#695,1.);
#695 = DIRECTION('',(0.5,0.866025403784,0.));
#696 = ORIENTED_EDGE('',*,*,#697,.F.);
#697 = EDGE_CURVE('',#698,#690,#700,.T.);
#698 = VERTEX_POINT('',#699);
#699 = CARTESIAN_POINT('',(-2.303627574067,4.52,-7.6));
#700 = LINE('',#701,#702);
#701 = CARTESIAN_POINT('',(-2.303627574067,4.52,-7.6));
#702 = VECTOR('',#703,1.);
#703 = DIRECTION('',(-0.5,0.866025403784,-0.));
#704 = ORIENTED_EDGE('',*,*,#705,.F.);
#705 = EDGE_CURVE('',#181,#698,#706,.T.);
#706 = LINE('',#707,#708);
#707 = CARTESIAN_POINT('',(2.303627574067,4.52,-7.6));
#708 = VECTOR('',#709,1.);
#709 = DIRECTION('',(-1.,0.,0.));
#710 = ORIENTED_EDGE('',*,*,#188,.F.);
#711 = PLANE('',#712);
#712 = AXIS2_PLACEMENT_3D('',#713,#714,#715);
#713 = CARTESIAN_POINT('',(-19.6,7.5,-7.6));
#714 = DIRECTION('',(0.,2.2E-16,-1.));
#715 = DIRECTION('',(0.,1.,2.2E-16));
#716 = ADVANCED_FACE('',(#717),#743,.F.);
#717 = FACE_BOUND('',#718,.F.);
#718 = EDGE_LOOP('',(#719,#727,#735,#741,#742));
#719 = ORIENTED_EDGE('',*,*,#720,.T.);
#720 = EDGE_CURVE('',#173,#721,#723,.T.);
#721 = VERTEX_POINT('',#722);
#722 = CARTESIAN_POINT('',(2.303627574067,4.52,-2.6));
#723 = LINE('',#724,#725);
#724 = CARTESIAN_POINT('',(2.303627574067,4.52,-7.6));
#725 = VECTOR('',#726,1.);
#726 = DIRECTION('',(0.,-3.3E-16,1.));
#727 = ORIENTED_EDGE('',*,*,#728,.T.);
#728 = EDGE_CURVE('',#721,#729,#731,.T.);
#729 = VERTEX_POINT('',#730);
#730 = CARTESIAN_POINT('',(-2.303627574067,4.52,-2.6));
#731 = LINE('',#732,#733);
#732 = CARTESIAN_POINT('',(2.303627574067,4.52,-2.6));
#733 = VECTOR('',#734,1.);
#734 = DIRECTION('',(-1.,0.,0.));
#735 = ORIENTED_EDGE('',*,*,#736,.F.);
#736 = EDGE_CURVE('',#698,#729,#737,.T.);
#737 = LINE('',#738,#739);
#738 = CARTESIAN_POINT('',(-2.303627574067,4.52,-7.6));
#739 = VECTOR('',#740,1.);
#740 = DIRECTION('',(0.,-3.3E-16,1.));
#741 = ORIENTED_EDGE('',*,*,#705,.F.);
#742 = ORIENTED_EDGE('',*,*,#180,.F.);
#743 = PLANE('',#744);
#744 = AXIS2_PLACEMENT_3D('',#745,#746,#747);
#745 = CARTESIAN_POINT('',(2.303627574067,4.52,-7.6));
#746 = DIRECTION('',(0.,-1.,-3.3E-16));
#747 = DIRECTION('',(-1.,0.,0.));
#748 = ADVANCED_FACE('',(#749),#767,.F.);
#749 = FACE_BOUND('',#750,.F.);
#750 = EDGE_LOOP('',(#751,#759,#765,#766));
#751 = ORIENTED_EDGE('',*,*,#752,.T.);
#752 = EDGE_CURVE('',#165,#753,#755,.T.);
#753 = VERTEX_POINT('',#754);
#754 = CARTESIAN_POINT('',(4.607255148133,8.51,-2.6));
#755 = LINE('',#756,#757);
#756 = CARTESIAN_POINT('',(4.607255148133,8.51,-7.6));
#757 = VECTOR('',#758,1.);
#758 = DIRECTION('',(0.,-3.3E-16,1.));
#759 = ORIENTED_EDGE('',*,*,#760,.T.);
#760 = EDGE_CURVE('',#753,#721,#761,.T.);
#761 = LINE('',#762,#763);
#762 = CARTESIAN_POINT('',(4.607255148133,8.51,-2.6));
#763 = VECTOR('',#764,1.);
#764 = DIRECTION('',(-0.5,-0.866025403784,0.));
#765 = ORIENTED_EDGE('',*,*,#720,.F.);
#766 = ORIENTED_EDGE('',*,*,#172,.F.);
#767 = PLANE('',#768);
#768 = AXIS2_PLACEMENT_3D('',#769,#770,#771);
#769 = CARTESIAN_POINT('',(4.607255148133,8.51,-7.6));
#770 = DIRECTION('',(0.866025403784,-0.5,-1.7E-16));
#771 = DIRECTION('',(-0.5,-0.866025403784,-2.9E-16));
#772 = ADVANCED_FACE('',(#773),#791,.F.);
#773 = FACE_BOUND('',#774,.F.);
#774 = EDGE_LOOP('',(#775,#783,#789,#790));
#775 = ORIENTED_EDGE('',*,*,#776,.T.);
#776 = EDGE_CURVE('',#157,#777,#779,.T.);
#777 = VERTEX_POINT('',#778);
#778 = CARTESIAN_POINT('',(2.303627574067,12.5,-2.6));
#779 = LINE('',#780,#781);
#780 = CARTESIAN_POINT('',(2.303627574067,12.5,-7.6));
#781 = VECTOR('',#782,1.);
#782 = DIRECTION('',(0.,-3.3E-16,1.));
#783 = ORIENTED_EDGE('',*,*,#784,.T.);
#784 = EDGE_CURVE('',#777,#753,#785,.T.);
#785 = LINE('',#786,#787);
#786 = CARTESIAN_POINT('',(2.303627574067,12.5,-2.6));
#787 = VECTOR('',#788,1.);
#788 = DIRECTION('',(0.5,-0.866025403784,0.));
#789 = ORIENTED_EDGE('',*,*,#752,.F.);
#790 = ORIENTED_EDGE('',*,*,#164,.F.);
#791 = PLANE('',#792);
#792 = AXIS2_PLACEMENT_3D('',#793,#794,#795);
#793 = CARTESIAN_POINT('',(2.303627574067,12.5,-7.6));
#794 = DIRECTION('',(0.866025403784,0.5,1.7E-16));
#795 = DIRECTION('',(0.5,-0.866025403784,-2.9E-16));
#796 = ADVANCED_FACE('',(#797),#833,.T.);
#797 = FACE_BOUND('',#798,.F.);
#798 = EDGE_LOOP('',(#799,#809,#817,#823,#824,#825,#826,#827));
#799 = ORIENTED_EDGE('',*,*,#800,.F.);
#800 = EDGE_CURVE('',#801,#803,#805,.T.);
#801 = VERTEX_POINT('',#802);
#802 = CARTESIAN_POINT('',(0.,12.5,0.));
#803 = VERTEX_POINT('',#804);
#804 = CARTESIAN_POINT('',(34.,12.5,2.E-15));
#805 = LINE('',#806,#807);
#806 = CARTESIAN_POINT('',(0.,12.5,0.));
#807 = VECTOR('',#808,1.);
#808 = DIRECTION('',(1.,0.,0.));
#809 = ORIENTED_EDGE('',*,*,#810,.T.);
#810 = EDGE_CURVE('',#801,#811,#813,.T.);
#811 = VERTEX_POINT('',#812);
#812 = CARTESIAN_POINT('',(0.,12.5,-2.6));
#813 = LINE('',#814,#815);
#814 = CARTESIAN_POINT('',(0.,12.5,0.));
#815 = VECTOR('',#816,1.);
#816 = DIRECTION('',(0.,0.,-1.));
#817 = ORIENTED_EDGE('',*,*,#818,.T.);
#818 = EDGE_CURVE('',#811,#777,#819,.T.);
#819 = LINE('',#820,#821);
#820 = CARTESIAN_POINT('',(-2.303627574067,12.5,-2.6));
#821 = VECTOR('',#822,1.);
#822 = DIRECTION('',(1.,0.,0.));
#823 = ORIENTED_EDGE('',*,*,#776,.F.);
#824 = ORIENTED_EDGE('',*,*,#156,.T.);
#825 = ORIENTED_EDGE('',*,*,#202,.F.);
#826 = ORIENTED_EDGE('',*,*,#234,.F.);
#827 = ORIENTED_EDGE('',*,*,#828,.F.);
#828 = EDGE_CURVE('',#803,#227,#829,.T.);
#829 = LINE('',#830,#831);
#830 = CARTESIAN_POINT('',(0.,12.5,0.));
#831 = VECTOR('',#832,1.);
#832 = DIRECTION('',(1.,0.,0.));
#833 = PLANE('',#834);
#834 = AXIS2_PLACEMENT_3D('',#835,#836,#837);
#835 = CARTESIAN_POINT('',(0.,12.5,0.));
#836 = DIRECTION('',(0.,1.,0.));
#837 = DIRECTION('',(-1.,0.,0.));
#838 = ADVANCED_FACE('',(#839),#855,.F.);
#839 = FACE_BOUND('',#840,.T.);
#840 = EDGE_LOOP('',(#841,#842,#848,#849));
#841 = ORIENTED_EDGE('',*,*,#250,.F.);
#842 = ORIENTED_EDGE('',*,*,#843,.T.);
#843 = EDGE_CURVE('',#251,#532,#844,.T.);
#844 = LINE('',#845,#846);
#845 = CARTESIAN_POINT('',(34.,15.,0.));
#846 = VECTOR('',#847,1.);
#847 = DIRECTION('',(0.,0.,1.));
#848 = ORIENTED_EDGE('',*,*,#531,.T.);
#849 = ORIENTED_EDGE('',*,*,#850,.F.);
#850 = EDGE_CURVE('',#253,#523,#851,.T.);
#851 = LINE('',#852,#853);
#852 = CARTESIAN_POINT('',(34.,29.8,0.));
#853 = VECTOR('',#854,1.);
#854 = DIRECTION('',(0.,0.,1.));
#855 = PLANE('',#856);
#856 = AXIS2_PLACEMENT_3D('',#857,#858,#859);
#857 = CARTESIAN_POINT('',(34.,15.,0.));
#858 = DIRECTION('',(1.,0.,0.));
#859 = DIRECTION('',(-0.,-1.,-0.));
#860 = ADVANCED_FACE('',(#861),#872,.T.);
#861 = FACE_BOUND('',#862,.T.);
#862 = EDGE_LOOP('',(#863,#864,#865,#866));
#863 = ORIENTED_EDGE('',*,*,#360,.T.);
#864 = ORIENTED_EDGE('',*,*,#850,.T.);
#865 = ORIENTED_EDGE('',*,*,#522,.F.);
#866 = ORIENTED_EDGE('',*,*,#867,.F.);
#867 = EDGE_CURVE('',#353,#515,#868,.T.);
#868 = LINE('',#869,#870);
#869 = CARTESIAN_POINT('',(37.,32.8,0.));
#870 = VECTOR('',#871,1.);
#871 = DIRECTION('',(0.,0.,1.));
#872 = CYLINDRICAL_SURFACE('',#873,3.);
#873 = AXIS2_PLACEMENT_3D('',#874,#875,#876);
#874 = CARTESIAN_POINT('',(37.,29.8,0.));
#875 = DIRECTION('',(0.,0.,1.));
#876 = DIRECTION('',(0.,1.,0.));
#877 = ADVANCED_FACE('',(#878),#889,.F.);
#878 = FACE_BOUND('',#879,.T.);
#879 = EDGE_LOOP('',(#880,#881,#882,#883));
#880 = ORIENTED_EDGE('',*,*,#352,.F.);
#881 = ORIENTED_EDGE('',*,*,#867,.T.);
#882 = ORIENTED_EDGE('',*,*,#514,.T.);
#883 = ORIENTED_EDGE('',*,*,#884,.F.);
#884 = EDGE_CURVE('',#344,#506,#885,.T.);
#885 = LINE('',#886,#887);
#886 = CARTESIAN_POINT('',(97.,32.8,-3.64E-15));
#887 = VECTOR('',#888,1.);
#888 = DIRECTION('',(0.,1.1E-16,1.));
#889 = PLANE('',#890);
#890 = AXIS2_PLACEMENT_3D('',#891,#892,#893);
#891 = CARTESIAN_POINT('',(34.,32.8,0.));
#892 = DIRECTION('',(-0.,-1.,-0.));
#893 = DIRECTION('',(-1.,0.,0.));
#894 = ADVANCED_FACE('',(#895),#906,.T.);
#895 = FACE_BOUND('',#896,.F.);
#896 = EDGE_LOOP('',(#897,#898,#904,#905));
#897 = ORIENTED_EDGE('',*,*,#343,.T.);
#898 = ORIENTED_EDGE('',*,*,#899,.T.);
#899 = EDGE_CURVE('',#336,#498,#900,.T.);
#900 = LINE('',#901,#902);
#901 = CARTESIAN_POINT('',(100.,29.8,-3.31E-15));
#902 = VECTOR('',#903,1.);
#903 = DIRECTION('',(0.,1.1E-16,1.));
#904 = ORIENTED_EDGE('',*,*,#505,.F.);
#905 = ORIENTED_EDGE('',*,*,#884,.F.);
#906 = CYLINDRICAL_SURFACE('',#907,3.);
#907 = AXIS2_PLACEMENT_3D('',#908,#909,#910);
#908 = CARTESIAN_POINT('',(97.,29.8,-3.31E-15));
#909 = DIRECTION('',(0.,1.1E-16,1.));
#910 = DIRECTION('',(0.,1.,-1.1E-16));
#911 = ADVANCED_FACE('',(#912),#923,.F.);
#912 = FACE_BOUND('',#913,.T.);
#913 = EDGE_LOOP('',(#914,#915,#916,#917));
#914 = ORIENTED_EDGE('',*,*,#335,.F.);
#915 = ORIENTED_EDGE('',*,*,#899,.T.);
#916 = ORIENTED_EDGE('',*,*,#497,.T.);
#917 = ORIENTED_EDGE('',*,*,#918,.F.);
#918 = EDGE_CURVE('',#327,#489,#919,.T.);
#919 = LINE('',#920,#921);
#920 = CARTESIAN_POINT('',(100.,5.8,0.));
#921 = VECTOR('',#922,1.);
#922 = DIRECTION('',(0.,0.,1.));
#923 = PLANE('',#924);
#924 = AXIS2_PLACEMENT_3D('',#925,#926,#927);
#925 = CARTESIAN_POINT('',(100.,32.8,0.));
#926 = DIRECTION('',(-1.,-0.,-0.));
#927 = DIRECTION('',(0.,1.,0.));
#928 = ADVANCED_FACE('',(#929),#940,.T.);
#929 = FACE_BOUND('',#930,.F.);
#930 = EDGE_LOOP('',(#931,#932,#938,#939));
#931 = ORIENTED_EDGE('',*,*,#326,.T.);
#932 = ORIENTED_EDGE('',*,*,#933,.T.);
#933 = EDGE_CURVE('',#319,#481,#934,.T.);
#934 = LINE('',#935,#936);
#935 = CARTESIAN_POINT('',(97.,2.8,0.));
#936 = VECTOR('',#937,1.);
#937 = DIRECTION('',(0.,0.,1.));
#938 = ORIENTED_EDGE('',*,*,#488,.F.);
#939 = ORIENTED_EDGE('',*,*,#918,.F.);
#940 = CYLINDRICAL_SURFACE('',#941,3.);
#941 = AXIS2_PLACEMENT_3D('',#942,#943,#944);
#942 = CARTESIAN_POINT('',(97.,5.8,0.));
#943 = DIRECTION('',(0.,0.,1.));
#944 = DIRECTION('',(1.,0.,0.));
#945 = ADVANCED_FACE('',(#946),#957,.F.);
#946 = FACE_BOUND('',#947,.T.);
#947 = EDGE_LOOP('',(#948,#949,#950,#951));
#948 = ORIENTED_EDGE('',*,*,#318,.F.);
#949 = ORIENTED_EDGE('',*,*,#933,.T.);
#950 = ORIENTED_EDGE('',*,*,#480,.T.);
#951 = ORIENTED_EDGE('',*,*,#952,.F.);
#952 = EDGE_CURVE('',#310,#472,#953,.T.);
#953 = LINE('',#954,#955);
#954 = CARTESIAN_POINT('',(93.,2.8,0.));
#955 = VECTOR('',#956,1.);
#956 = DIRECTION('',(0.,0.,1.));
#957 = PLANE('',#958);
#958 = AXIS2_PLACEMENT_3D('',#959,#960,#961);
#959 = CARTESIAN_POINT('',(100.,2.8,0.));
#960 = DIRECTION('',(0.,1.,0.));
#961 = DIRECTION('',(1.,0.,0.));
#962 = ADVANCED_FACE('',(#963),#974,.T.);
#963 = FACE_BOUND('',#964,.T.);
#964 = EDGE_LOOP('',(#965,#966,#967,#968));
#965 = ORIENTED_EDGE('',*,*,#309,.T.);
#966 = ORIENTED_EDGE('',*,*,#952,.T.);
#967 = ORIENTED_EDGE('',*,*,#471,.F.);
#968 = ORIENTED_EDGE('',*,*,#969,.F.);
#969 = EDGE_CURVE('',#302,#464,#970,.T.);
#970 = LINE('',#971,#972);
#971 = CARTESIAN_POINT('',(90.,5.8,0.));
#972 = VECTOR('',#973,1.);
#973 = DIRECTION('',(0.,0.,1.));
#974 = CYLINDRICAL_SURFACE('',#975,3.);
#975 = AXIS2_PLACEMENT_3D('',#976,#977,#978);
#976 = CARTESIAN_POINT('',(93.,5.8,0.));
#977 = DIRECTION('',(0.,0.,1.));
#978 = DIRECTION('',(-1.,0.,0.));
#979 = ADVANCED_FACE('',(#980),#991,.F.);
#980 = FACE_BOUND('',#981,.T.);
#981 = EDGE_LOOP('',(#982,#983,#984,#985));
#982 = ORIENTED_EDGE('',*,*,#301,.F.);
#983 = ORIENTED_EDGE('',*,*,#969,.T.);
#984 = ORIENTED_EDGE('',*,*,#463,.T.);
#985 = ORIENTED_EDGE('',*,*,#986,.F.);
#986 = EDGE_CURVE('',#294,#456,#987,.T.);
#987 = LINE('',#988,#989);
#988 = CARTESIAN_POINT('',(90.,22.8,0.));
#989 = VECTOR('',#990,1.);
#990 = DIRECTION('',(0.,0.,1.));
#991 = PLANE('',#992);
#992 = AXIS2_PLACEMENT_3D('',#993,#994,#995);
#993 = CARTESIAN_POINT('',(90.,2.8,0.));
#994 = DIRECTION('',(1.,0.,0.));
#995 = DIRECTION('',(-0.,-1.,-0.));
#996 = ADVANCED_FACE('',(#997),#1008,.F.);
#997 = FACE_BOUND('',#998,.T.);
#998 = EDGE_LOOP('',(#999,#1000,#1001,#1007));
#999 = ORIENTED_EDGE('',*,*,#986,.T.);
#1000 = ORIENTED_EDGE('',*,*,#455,.T.);
#1001 = ORIENTED_EDGE('',*,*,#1002,.F.);
#1002 = EDGE_CURVE('',#286,#448,#1003,.T.);
#1003 = LINE('',#1004,#1005);
#1004 = CARTESIAN_POINT('',(44.,22.8,0.));
#1005 = VECTOR('',#1006,1.);
#1006 = DIRECTION('',(0.,0.,1.));
#1007 = ORIENTED_EDGE('',*,*,#293,.F.);
#1008 = PLANE('',#1009);
#1009 = AXIS2_PLACEMENT_3D('',#1010,#1011,#1012);
#1010 = CARTESIAN_POINT('',(90.,22.8,0.));
#1011 = DIRECTION('',(0.,1.,0.));
#1012 = DIRECTION('',(1.,0.,0.));
#1013 = ADVANCED_FACE('',(#1014),#1020,.F.);
#1014 = FACE_BOUND('',#1015,.T.);
#1015 = EDGE_LOOP('',(#1016,#1017,#1018,#1019));
#1016 = ORIENTED_EDGE('',*,*,#285,.F.);
#1017 = ORIENTED_EDGE('',*,*,#1002,.T.);
#1018 = ORIENTED_EDGE('',*,*,#447,.T.);
#1019 = ORIENTED_EDGE('',*,*,#610,.F.);
#1020 = PLANE('',#1021);
#1021 = AXIS2_PLACEMENT_3D('',#1022,#1023,#1024);
#1022 = CARTESIAN_POINT('',(44.,22.8,0.));
#1023 = DIRECTION('',(-1.,-0.,-0.));
#1024 = DIRECTION('',(0.,1.,0.));
#1025 = ADVANCED_FACE('',(#1026),#1037,.F.);
#1026 = FACE_BOUND('',#1027,.F.);
#1027 = EDGE_LOOP('',(#1028,#1034,#1035,#1036));
#1028 = ORIENTED_EDGE('',*,*,#1029,.T.);
#1029 = EDGE_CURVE('',#251,#803,#1030,.T.);
#1030 = LINE('',#1031,#1032);
#1031 = CARTESIAN_POINT('',(34.,15.,2.E-15));
#1032 = VECTOR('',#1033,1.);
#1033 = DIRECTION('',(0.,-1.,0.));
#1034 = ORIENTED_EDGE('',*,*,#828,.T.);
#1035 = ORIENTED_EDGE('',*,*,#268,.F.);
#1036 = ORIENTED_EDGE('',*,*,#260,.F.);
#1037 = PLANE('',#1038);
#1038 = AXIS2_PLACEMENT_3D('',#1039,#1040,#1041);
#1039 = CARTESIAN_POINT('',(34.,15.,0.));
#1040 = DIRECTION('',(0.,0.,1.));
#1041 = DIRECTION('',(1.,0.,0.));
#1042 = ADVANCED_FACE('',(#1043),#1062,.F.);
#1043 = FACE_BOUND('',#1044,.T.);
#1044 = EDGE_LOOP('',(#1045,#1054,#1060,#1061));
#1045 = ORIENTED_EDGE('',*,*,#1046,.T.);
#1046 = EDGE_CURVE('',#1047,#1047,#1049,.T.);
#1047 = VERTEX_POINT('',#1048);
#1048 = CARTESIAN_POINT('',(93.35,7.8,4.5));
#1049 = CIRCLE('',#1050,1.65);
#1050 = AXIS2_PLACEMENT_3D('',#1051,#1052,#1053);
#1051 = CARTESIAN_POINT('',(95.,7.8,4.5));
#1052 = DIRECTION('',(0.,-1.1E-16,1.));
#1053 = DIRECTION('',(-1.,0.,0.));
#1054 = ORIENTED_EDGE('',*,*,#1055,.T.);
#1055 = EDGE_CURVE('',#1047,#370,#1056,.T.);
#1056 = LINE('',#1057,#1058);
#1057 = CARTESIAN_POINT('',(93.35,7.8,10.));
#1058 = VECTOR('',#1059,1.);
#1059 = DIRECTION('',(-0.,-0.,-1.));
#1060 = ORIENTED_EDGE('',*,*,#369,.F.);
#1061 = ORIENTED_EDGE('',*,*,#1055,.F.);
#1062 = CYLINDRICAL_SURFACE('',#1063,1.65);
#1063 = AXIS2_PLACEMENT_3D('',#1064,#1065,#1066);
#1064 = CARTESIAN_POINT('',(95.,7.8,10.));
#1065 = DIRECTION('',(0.,0.,1.));
#1066 = DIRECTION('',(-1.,0.,0.));
#1067 = ADVANCED_FACE('',(#1068),#1087,.F.);
#1068 = FACE_BOUND('',#1069,.T.);
#1069 = EDGE_LOOP('',(#1070,#1079,#1085,#1086));
#1070 = ORIENTED_EDGE('',*,*,#1071,.T.);
#1071 = EDGE_CURVE('',#1072,#1072,#1074,.T.);
#1072 = VERTEX_POINT('',#1073);
#1073 = CARTESIAN_POINT('',(93.35,17.8,4.5));
#1074 = CIRCLE('',#1075,1.65);
#1075 = AXIS2_PLACEMENT_3D('',#1076,#1077,#1078);
#1076 = CARTESIAN_POINT('',(95.,17.8,4.5));
#1077 = DIRECTION('',(0.,-1.1E-16,1.));
#1078 = DIRECTION('',(-1.,0.,0.));
#1079 = ORIENTED_EDGE('',*,*,#1080,.T.);
#1080 = EDGE_CURVE('',#1072,#381,#1081,.T.);
#1081 = LINE('',#1082,#1083);
#1082 = CARTESIAN_POINT('',(93.35,17.8,10.));
#1083 = VECTOR('',#1084,1.);
#1084 = DIRECTION('',(-0.,-0.,-1.));
#1085 = ORIENTED_EDGE('',*,*,#380,.F.);
#1086 = ORIENTED_EDGE('',*,*,#1080,.F.);
#1087 = CYLINDRICAL_SURFACE('',#1088,1.65);
#1088 = AXIS2_PLACEMENT_3D('',#1089,#1090,#1091);
#1089 = CARTESIAN_POINT('',(95.,17.8,10.));
#1090 = DIRECTION('',(0.,0.,1.));
#1091 = DIRECTION('',(-1.,0.,0.));
#1092 = ADVANCED_FACE('',(#1093,#1212,#1223),#1234,.T.);
#1093 = FACE_BOUND('',#1094,.T.);
#1094 = EDGE_LOOP('',(#1095,#1105,#1114,#1122,#1130,#1136,#1137,#1138,
    #1147,#1155,#1163,#1171,#1180,#1188,#1197,#1205));
#1095 = ORIENTED_EDGE('',*,*,#1096,.F.);
#1096 = EDGE_CURVE('',#1097,#1099,#1101,.T.);
#1097 = VERTEX_POINT('',#1098);
#1098 = CARTESIAN_POINT('',(-37.,32.8,0.));
#1099 = VERTEX_POINT('',#1100);
#1100 = CARTESIAN_POINT('',(-97.,32.8,-4.E-15));
#1101 = LINE('',#1102,#1103);
#1102 = CARTESIAN_POINT('',(-34.,32.8,0.));
#1103 = VECTOR('',#1104,1.);
#1104 = DIRECTION('',(-1.,0.,0.));
#1105 = ORIENTED_EDGE('',*,*,#1106,.T.);
#1106 = EDGE_CURVE('',#1097,#1107,#1109,.T.);
#1107 = VERTEX_POINT('',#1108);
#1108 = CARTESIAN_POINT('',(-34.,29.8,0.));
#1109 = CIRCLE('',#1110,3.);
#1110 = AXIS2_PLACEMENT_3D('',#1111,#1112,#1113);
#1111 = CARTESIAN_POINT('',(-37.,29.8,0.));
#1112 = DIRECTION('',(-0.,-0.,-1.));
#1113 = DIRECTION('',(0.,-1.,0.));
#1114 = ORIENTED_EDGE('',*,*,#1115,.F.);
#1115 = EDGE_CURVE('',#1116,#1107,#1118,.T.);
#1116 = VERTEX_POINT('',#1117);
#1117 = CARTESIAN_POINT('',(-34.,15.,0.));
#1118 = LINE('',#1119,#1120);
#1119 = CARTESIAN_POINT('',(-34.,15.,0.));
#1120 = VECTOR('',#1121,1.);
#1121 = DIRECTION('',(0.,1.,0.));
#1122 = ORIENTED_EDGE('',*,*,#1123,.T.);
#1123 = EDGE_CURVE('',#1116,#1124,#1126,.T.);
#1124 = VERTEX_POINT('',#1125);
#1125 = CARTESIAN_POINT('',(-39.2,15.,0.));
#1126 = LINE('',#1127,#1128);
#1127 = CARTESIAN_POINT('',(0.,15.,0.));
#1128 = VECTOR('',#1129,1.);
#1129 = DIRECTION('',(-1.,0.,0.));
#1130 = ORIENTED_EDGE('',*,*,#1131,.T.);
#1131 = EDGE_CURVE('',#1124,#625,#1132,.T.);
#1132 = LINE('',#1133,#1134);
#1133 = CARTESIAN_POINT('',(-39.2,15.,0.));
#1134 = VECTOR('',#1135,1.);
#1135 = DIRECTION('',(0.,-1.,0.));
#1136 = ORIENTED_EDGE('',*,*,#624,.T.);
#1137 = ORIENTED_EDGE('',*,*,#397,.F.);
#1138 = ORIENTED_EDGE('',*,*,#1139,.F.);
#1139 = EDGE_CURVE('',#1140,#398,#1142,.T.);
#1140 = VERTEX_POINT('',#1141);
#1141 = CARTESIAN_POINT('',(-44.,3.,0.));
#1142 = CIRCLE('',#1143,3.);
#1143 = AXIS2_PLACEMENT_3D('',#1144,#1145,#1146);
#1144 = CARTESIAN_POINT('',(-41.,3.,0.));
#1145 = DIRECTION('',(-0.,0.,1.));
#1146 = DIRECTION('',(0.,-1.,0.));
#1147 = ORIENTED_EDGE('',*,*,#1148,.F.);
#1148 = EDGE_CURVE('',#1149,#1140,#1151,.T.);
#1149 = VERTEX_POINT('',#1150);
#1150 = CARTESIAN_POINT('',(-44.,22.8,0.));
#1151 = LINE('',#1152,#1153);
#1152 = CARTESIAN_POINT('',(-44.,22.8,0.));
#1153 = VECTOR('',#1154,1.);
#1154 = DIRECTION('',(0.,-1.,0.));
#1155 = ORIENTED_EDGE('',*,*,#1156,.F.);
#1156 = EDGE_CURVE('',#1157,#1149,#1159,.T.);
#1157 = VERTEX_POINT('',#1158);
#1158 = CARTESIAN_POINT('',(-90.,22.8,0.));
#1159 = LINE('',#1160,#1161);
#1160 = CARTESIAN_POINT('',(-90.,22.8,0.));
#1161 = VECTOR('',#1162,1.);
#1162 = DIRECTION('',(1.,0.,0.));
#1163 = ORIENTED_EDGE('',*,*,#1164,.F.);
#1164 = EDGE_CURVE('',#1165,#1157,#1167,.T.);
#1165 = VERTEX_POINT('',#1166);
#1166 = CARTESIAN_POINT('',(-90.,5.8,0.));
#1167 = LINE('',#1168,#1169);
#1168 = CARTESIAN_POINT('',(-90.,2.8,0.));
#1169 = VECTOR('',#1170,1.);
#1170 = DIRECTION('',(0.,1.,0.));
#1171 = ORIENTED_EDGE('',*,*,#1172,.T.);
#1172 = EDGE_CURVE('',#1165,#1173,#1175,.T.);
#1173 = VERTEX_POINT('',#1174);
#1174 = CARTESIAN_POINT('',(-93.,2.8,0.));
#1175 = CIRCLE('',#1176,3.);
#1176 = AXIS2_PLACEMENT_3D('',#1177,#1178,#1179);
#1177 = CARTESIAN_POINT('',(-93.,5.8,0.));
#1178 = DIRECTION('',(-0.,-0.,-1.));
#1179 = DIRECTION('',(0.,-1.,0.));
#1180 = ORIENTED_EDGE('',*,*,#1181,.F.);
#1181 = EDGE_CURVE('',#1182,#1173,#1184,.T.);
#1182 = VERTEX_POINT('',#1183);
#1183 = CARTESIAN_POINT('',(-97.,2.8,0.));
#1184 = LINE('',#1185,#1186);
#1185 = CARTESIAN_POINT('',(-100.,2.8,0.));
#1186 = VECTOR('',#1187,1.);
#1187 = DIRECTION('',(1.,0.,0.));
#1188 = ORIENTED_EDGE('',*,*,#1189,.F.);
#1189 = EDGE_CURVE('',#1190,#1182,#1192,.T.);
#1190 = VERTEX_POINT('',#1191);
#1191 = CARTESIAN_POINT('',(-100.,5.8,0.));
#1192 = CIRCLE('',#1193,3.);
#1193 = AXIS2_PLACEMENT_3D('',#1194,#1195,#1196);
#1194 = CARTESIAN_POINT('',(-97.,5.8,0.));
#1195 = DIRECTION('',(-0.,0.,1.));
#1196 = DIRECTION('',(0.,-1.,0.));
#1197 = ORIENTED_EDGE('',*,*,#1198,.F.);
#1198 = EDGE_CURVE('',#1199,#1190,#1201,.T.);
#1199 = VERTEX_POINT('',#1200);
#1200 = CARTESIAN_POINT('',(-100.,29.8,-3.E-15));
#1201 = LINE('',#1202,#1203);
#1202 = CARTESIAN_POINT('',(-100.,32.8,0.));
#1203 = VECTOR('',#1204,1.);
#1204 = DIRECTION('',(0.,-1.,0.));
#1205 = ORIENTED_EDGE('',*,*,#1206,.F.);
#1206 = EDGE_CURVE('',#1099,#1199,#1207,.T.);
#1207 = CIRCLE('',#1208,3.);
#1208 = AXIS2_PLACEMENT_3D('',#1209,#1210,#1211);
#1209 = CARTESIAN_POINT('',(-97.,29.8,3.28E-15));
#1210 = DIRECTION('',(-0.,1.1E-16,1.));
#1211 = DIRECTION('',(0.,-1.,1.1E-16));
#1212 = FACE_BOUND('',#1213,.T.);
#1213 = EDGE_LOOP('',(#1214));
#1214 = ORIENTED_EDGE('',*,*,#1215,.T.);
#1215 = EDGE_CURVE('',#1216,#1216,#1218,.T.);
#1216 = VERTEX_POINT('',#1217);
#1217 = CARTESIAN_POINT('',(-93.35,7.8,0.));
#1218 = CIRCLE('',#1219,1.65);
#1219 = AXIS2_PLACEMENT_3D('',#1220,#1221,#1222);
#1220 = CARTESIAN_POINT('',(-95.,7.8,0.));
#1221 = DIRECTION('',(0.,0.,1.));
#1222 = DIRECTION('',(1.,0.,0.));
#1223 = FACE_BOUND('',#1224,.T.);
#1224 = EDGE_LOOP('',(#1225));
#1225 = ORIENTED_EDGE('',*,*,#1226,.T.);
#1226 = EDGE_CURVE('',#1227,#1227,#1229,.T.);
#1227 = VERTEX_POINT('',#1228);
#1228 = CARTESIAN_POINT('',(-93.35,17.8,0.));
#1229 = CIRCLE('',#1230,1.65);
#1230 = AXIS2_PLACEMENT_3D('',#1231,#1232,#1233);
#1231 = CARTESIAN_POINT('',(-95.,17.8,0.));
#1232 = DIRECTION('',(0.,0.,1.));
#1233 = DIRECTION('',(1.,0.,0.));
#1234 = PLANE('',#1235);
#1235 = AXIS2_PLACEMENT_3D('',#1236,#1237,#1238);
#1236 = CARTESIAN_POINT('',(-53.69240837696,17.471989528796,3.88E-15));
#1237 = DIRECTION('',(0.,2.2E-16,-1.));
#1238 = DIRECTION('',(0.,1.,2.2E-16));
#1239 = ADVANCED_FACE('',(#1240),#1259,.T.);
#1240 = FACE_BOUND('',#1241,.T.);
#1241 = EDGE_LOOP('',(#1242,#1243,#1244,#1253));
#1242 = ORIENTED_EDGE('',*,*,#1139,.T.);
#1243 = ORIENTED_EDGE('',*,*,#405,.T.);
#1244 = ORIENTED_EDGE('',*,*,#1245,.F.);
#1245 = EDGE_CURVE('',#1246,#406,#1248,.T.);
#1246 = VERTEX_POINT('',#1247);
#1247 = CARTESIAN_POINT('',(-44.,3.,10.));
#1248 = CIRCLE('',#1249,3.);
#1249 = AXIS2_PLACEMENT_3D('',#1250,#1251,#1252);
#1250 = CARTESIAN_POINT('',(-41.,3.,10.));
#1251 = DIRECTION('',(-0.,0.,1.));
#1252 = DIRECTION('',(0.,-1.,0.));
#1253 = ORIENTED_EDGE('',*,*,#1254,.F.);
#1254 = EDGE_CURVE('',#1140,#1246,#1255,.T.);
#1255 = LINE('',#1256,#1257);
#1256 = CARTESIAN_POINT('',(-44.,3.,0.));
#1257 = VECTOR('',#1258,1.);
#1258 = DIRECTION('',(0.,0.,1.));
#1259 = CYLINDRICAL_SURFACE('',#1260,3.);
#1260 = AXIS2_PLACEMENT_3D('',#1261,#1262,#1263);
#1261 = CARTESIAN_POINT('',(-41.,3.,0.));
#1262 = DIRECTION('',(0.,0.,1.));
#1263 = DIRECTION('',(-1.,0.,0.));
#1264 = ADVANCED_FACE('',(#1265,#1400,#1411),#1422,.F.);
#1265 = FACE_BOUND('',#1266,.F.);
#1266 = EDGE_LOOP('',(#1267,#1278,#1286,#1295,#1303,#1311,#1319,#1327,
    #1335,#1341,#1342,#1343,#1344,#1352,#1360,#1368,#1377,#1385,#1394));
#1267 = ORIENTED_EDGE('',*,*,#1268,.F.);
#1268 = EDGE_CURVE('',#1269,#1271,#1273,.T.);
#1269 = VERTEX_POINT('',#1270);
#1270 = CARTESIAN_POINT('',(-97.,32.8,10.));
#1271 = VERTEX_POINT('',#1272);
#1272 = CARTESIAN_POINT('',(-100.,29.8,10.));
#1273 = CIRCLE('',#1274,3.);
#1274 = AXIS2_PLACEMENT_3D('',#1275,#1276,#1277);
#1275 = CARTESIAN_POINT('',(-97.,29.8,10.));
#1276 = DIRECTION('',(-0.,1.1E-16,1.));
#1277 = DIRECTION('',(0.,-1.,1.1E-16));
#1278 = ORIENTED_EDGE('',*,*,#1279,.F.);
#1279 = EDGE_CURVE('',#1280,#1269,#1282,.T.);
#1280 = VERTEX_POINT('',#1281);
#1281 = CARTESIAN_POINT('',(-37.,32.8,10.));
#1282 = LINE('',#1283,#1284);
#1283 = CARTESIAN_POINT('',(-34.,32.8,10.));
#1284 = VECTOR('',#1285,1.);
#1285 = DIRECTION('',(-1.,0.,0.));
#1286 = ORIENTED_EDGE('',*,*,#1287,.T.);
#1287 = EDGE_CURVE('',#1280,#1288,#1290,.T.);
#1288 = VERTEX_POINT('',#1289);
#1289 = CARTESIAN_POINT('',(-34.,29.8,10.));
#1290 = CIRCLE('',#1291,3.);
#1291 = AXIS2_PLACEMENT_3D('',#1292,#1293,#1294);
#1292 = CARTESIAN_POINT('',(-37.,29.8,10.));
#1293 = DIRECTION('',(-0.,-0.,-1.));
#1294 = DIRECTION('',(0.,-1.,0.));
#1295 = ORIENTED_EDGE('',*,*,#1296,.F.);
#1296 = EDGE_CURVE('',#1297,#1288,#1299,.T.);
#1297 = VERTEX_POINT('',#1298);
#1298 = CARTESIAN_POINT('',(-34.,15.,10.));
#1299 = LINE('',#1300,#1301);
#1300 = CARTESIAN_POINT('',(-34.,15.,10.));
#1301 = VECTOR('',#1302,1.);
#1302 = DIRECTION('',(0.,1.,0.));
#1303 = ORIENTED_EDGE('',*,*,#1304,.T.);
#1304 = EDGE_CURVE('',#1297,#1305,#1307,.T.);
#1305 = VERTEX_POINT('',#1306);
#1306 = CARTESIAN_POINT('',(-34.,12.5,10.));
#1307 = LINE('',#1308,#1309);
#1308 = CARTESIAN_POINT('',(-34.,15.,10.));
#1309 = VECTOR('',#1310,1.);
#1310 = DIRECTION('',(0.,-1.,0.));
#1311 = ORIENTED_EDGE('',*,*,#1312,.F.);
#1312 = EDGE_CURVE('',#1313,#1305,#1315,.T.);
#1313 = VERTEX_POINT('',#1314);
#1314 = CARTESIAN_POINT('',(-13.,12.5,10.));
#1315 = LINE('',#1316,#1317);
#1316 = CARTESIAN_POINT('',(0.,12.5,10.));
#1317 = VECTOR('',#1318,1.);
#1318 = DIRECTION('',(-1.,0.,0.));
#1319 = ORIENTED_EDGE('',*,*,#1320,.T.);
#1320 = EDGE_CURVE('',#1313,#1321,#1323,.T.);
#1321 = VERTEX_POINT('',#1322);
#1322 = CARTESIAN_POINT('',(-13.,4.9,10.));
#1323 = LINE('',#1324,#1325);
#1324 = CARTESIAN_POINT('',(-13.,15.,10.));
#1325 = VECTOR('',#1326,1.);
#1326 = DIRECTION('',(0.,-1.,1.1E-16));
#1327 = ORIENTED_EDGE('',*,*,#1328,.T.);
#1328 = EDGE_CURVE('',#1321,#1329,#1331,.T.);
#1329 = VERTEX_POINT('',#1330);
#1330 = CARTESIAN_POINT('',(-13.,2.4,10.));
#1331 = LINE('',#1332,#1333);
#1332 = CARTESIAN_POINT('',(-13.,15.,10.));
#1333 = VECTOR('',#1334,1.);
#1334 = DIRECTION('',(0.,-1.,1.1E-16));
#1335 = ORIENTED_EDGE('',*,*,#1336,.T.);
#1336 = EDGE_CURVE('',#1329,#430,#1337,.T.);
#1337 = LINE('',#1338,#1339);
#1338 = CARTESIAN_POINT('',(-13.,2.4,10.));
#1339 = VECTOR('',#1340,1.);
#1340 = DIRECTION('',(1.,0.,0.));
#1341 = ORIENTED_EDGE('',*,*,#429,.F.);
#1342 = ORIENTED_EDGE('',*,*,#413,.F.);
#1343 = ORIENTED_EDGE('',*,*,#1245,.F.);
#1344 = ORIENTED_EDGE('',*,*,#1345,.F.);
#1345 = EDGE_CURVE('',#1346,#1246,#1348,.T.);
#1346 = VERTEX_POINT('',#1347);
#1347 = CARTESIAN_POINT('',(-44.,22.8,10.));
#1348 = LINE('',#1349,#1350);
#1349 = CARTESIAN_POINT('',(-44.,22.8,10.));
#1350 = VECTOR('',#1351,1.);
#1351 = DIRECTION('',(0.,-1.,0.));
#1352 = ORIENTED_EDGE('',*,*,#1353,.F.);
#1353 = EDGE_CURVE('',#1354,#1346,#1356,.T.);
#1354 = VERTEX_POINT('',#1355);
#1355 = CARTESIAN_POINT('',(-90.,22.8,10.));
#1356 = LINE('',#1357,#1358);
#1357 = CARTESIAN_POINT('',(-90.,22.8,10.));
#1358 = VECTOR('',#1359,1.);
#1359 = DIRECTION('',(1.,0.,0.));
#1360 = ORIENTED_EDGE('',*,*,#1361,.F.);
#1361 = EDGE_CURVE('',#1362,#1354,#1364,.T.);
#1362 = VERTEX_POINT('',#1363);
#1363 = CARTESIAN_POINT('',(-90.,5.8,10.));
#1364 = LINE('',#1365,#1366);
#1365 = CARTESIAN_POINT('',(-90.,2.8,10.));
#1366 = VECTOR('',#1367,1.);
#1367 = DIRECTION('',(0.,1.,0.));
#1368 = ORIENTED_EDGE('',*,*,#1369,.T.);
#1369 = EDGE_CURVE('',#1362,#1370,#1372,.T.);
#1370 = VERTEX_POINT('',#1371);
#1371 = CARTESIAN_POINT('',(-93.,2.8,10.));
#1372 = CIRCLE('',#1373,3.);
#1373 = AXIS2_PLACEMENT_3D('',#1374,#1375,#1376);
#1374 = CARTESIAN_POINT('',(-93.,5.8,10.));
#1375 = DIRECTION('',(-0.,-0.,-1.));
#1376 = DIRECTION('',(0.,-1.,0.));
#1377 = ORIENTED_EDGE('',*,*,#1378,.F.);
#1378 = EDGE_CURVE('',#1379,#1370,#1381,.T.);
#1379 = VERTEX_POINT('',#1380);
#1380 = CARTESIAN_POINT('',(-97.,2.8,10.));
#1381 = LINE('',#1382,#1383);
#1382 = CARTESIAN_POINT('',(-100.,2.8,10.));
#1383 = VECTOR('',#1384,1.);
#1384 = DIRECTION('',(1.,0.,0.));
#1385 = ORIENTED_EDGE('',*,*,#1386,.F.);
#1386 = EDGE_CURVE('',#1387,#1379,#1389,.T.);
#1387 = VERTEX_POINT('',#1388);
#1388 = CARTESIAN_POINT('',(-100.,5.8,10.));
#1389 = CIRCLE('',#1390,3.);
#1390 = AXIS2_PLACEMENT_3D('',#1391,#1392,#1393);
#1391 = CARTESIAN_POINT('',(-97.,5.8,10.));
#1392 = DIRECTION('',(-0.,0.,1.));
#1393 = DIRECTION('',(0.,-1.,0.));
#1394 = ORIENTED_EDGE('',*,*,#1395,.F.);
#1395 = EDGE_CURVE('',#1271,#1387,#1396,.T.);
#1396 = LINE('',#1397,#1398);
#1397 = CARTESIAN_POINT('',(-100.,32.8,10.));
#1398 = VECTOR('',#1399,1.);
#1399 = DIRECTION('',(0.,-1.,0.));
#1400 = FACE_BOUND('',#1401,.F.);
#1401 = EDGE_LOOP('',(#1402));
#1402 = ORIENTED_EDGE('',*,*,#1403,.T.);
#1403 = EDGE_CURVE('',#1404,#1404,#1406,.T.);
#1404 = VERTEX_POINT('',#1405);
#1405 = CARTESIAN_POINT('',(-91.5,7.8,10.));
#1406 = CIRCLE('',#1407,3.5);
#1407 = AXIS2_PLACEMENT_3D('',#1408,#1409,#1410);
#1408 = CARTESIAN_POINT('',(-95.,7.8,10.));
#1409 = DIRECTION('',(0.,0.,1.));
#1410 = DIRECTION('',(1.,0.,0.));
#1411 = FACE_BOUND('',#1412,.F.);
#1412 = EDGE_LOOP('',(#1413));
#1413 = ORIENTED_EDGE('',*,*,#1414,.T.);
#1414 = EDGE_CURVE('',#1415,#1415,#1417,.T.);
#1415 = VERTEX_POINT('',#1416);
#1416 = CARTESIAN_POINT('',(-91.5,17.8,10.));
#1417 = CIRCLE('',#1418,3.5);
#1418 = AXIS2_PLACEMENT_3D('',#1419,#1420,#1421);
#1419 = CARTESIAN_POINT('',(-95.,17.8,10.));
#1420 = DIRECTION('',(0.,0.,1.));
#1421 = DIRECTION('',(1.,0.,0.));
#1422 = PLANE('',#1423);
#1423 = AXIS2_PLACEMENT_3D('',#1424,#1425,#1426);
#1424 = CARTESIAN_POINT('',(-53.69240837696,17.471989528796,10.));
#1425 = DIRECTION('',(0.,2.2E-16,-1.));
#1426 = DIRECTION('',(0.,1.,2.2E-16));
#1427 = ADVANCED_FACE('',(#1428),#1446,.T.);
#1428 = FACE_BOUND('',#1429,.T.);
#1429 = EDGE_LOOP('',(#1430,#1431,#1439,#1445));
#1430 = ORIENTED_EDGE('',*,*,#563,.F.);
#1431 = ORIENTED_EDGE('',*,*,#1432,.T.);
#1432 = EDGE_CURVE('',#556,#1433,#1435,.T.);
#1433 = VERTEX_POINT('',#1434);
#1434 = CARTESIAN_POINT('',(0.,4.9,10.));
#1435 = LINE('',#1436,#1437);
#1436 = CARTESIAN_POINT('',(13.,4.9,10.));
#1437 = VECTOR('',#1438,1.);
#1438 = DIRECTION('',(-1.,0.,0.));
#1439 = ORIENTED_EDGE('',*,*,#1440,.F.);
#1440 = EDGE_CURVE('',#430,#1433,#1441,.T.);
#1441 = LINE('',#1442,#1443);
#1442 = CARTESIAN_POINT('',(0.,2.4,10.));
#1443 = VECTOR('',#1444,1.);
#1444 = DIRECTION('',(0.,1.,-1.1E-16));
#1445 = ORIENTED_EDGE('',*,*,#571,.F.);
#1446 = PLANE('',#1447);
#1447 = AXIS2_PLACEMENT_3D('',#1448,#1449,#1450);
#1448 = CARTESIAN_POINT('',(13.,2.4,10.));
#1449 = DIRECTION('',(0.,1.1E-16,1.));
#1450 = DIRECTION('',(-1.,0.,0.));
#1451 = ADVANCED_FACE('',(#1452),#1477,.F.);
#1452 = FACE_BOUND('',#1453,.T.);
#1453 = EDGE_LOOP('',(#1454,#1462,#1470,#1476));
#1454 = ORIENTED_EDGE('',*,*,#1455,.F.);
#1455 = EDGE_CURVE('',#1456,#548,#1458,.T.);
#1456 = VERTEX_POINT('',#1457);
#1457 = CARTESIAN_POINT('',(13.,12.5,5.));
#1458 = LINE('',#1459,#1460);
#1459 = CARTESIAN_POINT('',(13.,12.5,5.));
#1460 = VECTOR('',#1461,1.);
#1461 = DIRECTION('',(0.,0.,1.));
#1462 = ORIENTED_EDGE('',*,*,#1463,.T.);
#1463 = EDGE_CURVE('',#1456,#1464,#1466,.T.);
#1464 = VERTEX_POINT('',#1465);
#1465 = CARTESIAN_POINT('',(13.,4.9,5.));
#1466 = LINE('',#1467,#1468);
#1467 = CARTESIAN_POINT('',(13.,15.,5.));
#1468 = VECTOR('',#1469,1.);
#1469 = DIRECTION('',(0.,-1.,1.1E-16));
#1470 = ORIENTED_EDGE('',*,*,#1471,.T.);
#1471 = EDGE_CURVE('',#1464,#556,#1472,.T.);
#1472 = LINE('',#1473,#1474);
#1473 = CARTESIAN_POINT('',(13.,4.9,5.));
#1474 = VECTOR('',#1475,1.);
#1475 = DIRECTION('',(0.,0.,1.));
#1476 = ORIENTED_EDGE('',*,*,#555,.F.);
#1477 = PLANE('',#1478);
#1478 = AXIS2_PLACEMENT_3D('',#1479,#1480,#1481);
#1479 = CARTESIAN_POINT('',(13.,15.,5.));
#1480 = DIRECTION('',(1.,0.,0.));
#1481 = DIRECTION('',(-0.,-1.1E-16,-1.));
#1482 = ADVANCED_FACE('',(#1483),#1508,.F.);
#1483 = FACE_BOUND('',#1484,.T.);
#1484 = EDGE_LOOP('',(#1485,#1486,#1494,#1500,#1501,#1502));
#1485 = ORIENTED_EDGE('',*,*,#800,.F.);
#1486 = ORIENTED_EDGE('',*,*,#1487,.T.);
#1487 = EDGE_CURVE('',#801,#1488,#1490,.T.);
#1488 = VERTEX_POINT('',#1489);
#1489 = CARTESIAN_POINT('',(0.,12.5,5.));
#1490 = LINE('',#1491,#1492);
#1491 = CARTESIAN_POINT('',(0.,12.5,0.));
#1492 = VECTOR('',#1493,1.);
#1493 = DIRECTION('',(0.,0.,1.));
#1494 = ORIENTED_EDGE('',*,*,#1495,.T.);
#1495 = EDGE_CURVE('',#1488,#1456,#1496,.T.);
#1496 = LINE('',#1497,#1498);
#1497 = CARTESIAN_POINT('',(0.,12.5,5.));
#1498 = VECTOR('',#1499,1.);
#1499 = DIRECTION('',(1.,-0.,-0.));
#1500 = ORIENTED_EDGE('',*,*,#1455,.T.);
#1501 = ORIENTED_EDGE('',*,*,#547,.T.);
#1502 = ORIENTED_EDGE('',*,*,#1503,.F.);
#1503 = EDGE_CURVE('',#803,#540,#1504,.T.);
#1504 = LINE('',#1505,#1506);
#1505 = CARTESIAN_POINT('',(34.,12.5,0.));
#1506 = VECTOR('',#1507,1.);
#1507 = DIRECTION('',(0.,0.,1.));
#1508 = PLANE('',#1509);
#1509 = AXIS2_PLACEMENT_3D('',#1510,#1511,#1512);
#1510 = CARTESIAN_POINT('',(0.,12.5,0.));
#1511 = DIRECTION('',(-0.,-1.,-0.));
#1512 = DIRECTION('',(-1.,0.,0.));
#1513 = ADVANCED_FACE('',(#1514),#1520,.T.);
#1514 = FACE_BOUND('',#1515,.T.);
#1515 = EDGE_LOOP('',(#1516,#1517,#1518,#1519));
#1516 = ORIENTED_EDGE('',*,*,#1029,.T.);
#1517 = ORIENTED_EDGE('',*,*,#1503,.T.);
#1518 = ORIENTED_EDGE('',*,*,#539,.F.);
#1519 = ORIENTED_EDGE('',*,*,#843,.F.);
#1520 = PLANE('',#1521);
#1521 = AXIS2_PLACEMENT_3D('',#1522,#1523,#1524);
#1522 = CARTESIAN_POINT('',(34.,15.,0.));
#1523 = DIRECTION('',(-1.,0.,0.));
#1524 = DIRECTION('',(0.,0.,1.));
#1525 = ADVANCED_FACE('',(#1526),#1545,.F.);
#1526 = FACE_BOUND('',#1527,.T.);
#1527 = EDGE_LOOP('',(#1528,#1536,#1543,#1544));
#1528 = ORIENTED_EDGE('',*,*,#1529,.T.);
#1529 = EDGE_CURVE('',#580,#1530,#1532,.T.);
#1530 = VERTEX_POINT('',#1531);
#1531 = CARTESIAN_POINT('',(91.5,7.8,4.5));
#1532 = LINE('',#1533,#1534);
#1533 = CARTESIAN_POINT('',(91.5,7.8,10.));
#1534 = VECTOR('',#1535,1.);
#1535 = DIRECTION('',(-0.,-0.,-1.));
#1536 = ORIENTED_EDGE('',*,*,#1537,.T.);
#1537 = EDGE_CURVE('',#1530,#1530,#1538,.T.);
#1538 = CIRCLE('',#1539,3.5);
#1539 = AXIS2_PLACEMENT_3D('',#1540,#1541,#1542);
#1540 = CARTESIAN_POINT('',(95.,7.8,4.5));
#1541 = DIRECTION('',(0.,0.,-1.));
#1542 = DIRECTION('',(-1.,-0.,-0.));
#1543 = ORIENTED_EDGE('',*,*,#1529,.F.);
#1544 = ORIENTED_EDGE('',*,*,#579,.F.);
#1545 = CYLINDRICAL_SURFACE('',#1546,3.5);
#1546 = AXIS2_PLACEMENT_3D('',#1547,#1548,#1549);
#1547 = CARTESIAN_POINT('',(95.,7.8,10.));
#1548 = DIRECTION('',(0.,0.,1.));
#1549 = DIRECTION('',(-1.,0.,0.));
#1550 = ADVANCED_FACE('',(#1551),#1570,.F.);
#1551 = FACE_BOUND('',#1552,.T.);
#1552 = EDGE_LOOP('',(#1553,#1561,#1568,#1569));
#1553 = ORIENTED_EDGE('',*,*,#1554,.T.);
#1554 = EDGE_CURVE('',#591,#1555,#1557,.T.);
#1555 = VERTEX_POINT('',#1556);
#1556 = CARTESIAN_POINT('',(91.5,17.8,4.5));
#1557 = LINE('',#1558,#1559);
#1558 = CARTESIAN_POINT('',(91.5,17.8,10.));
#1559 = VECTOR('',#1560,1.);
#1560 = DIRECTION('',(-0.,-0.,-1.));
#1561 = ORIENTED_EDGE('',*,*,#1562,.T.);
#1562 = EDGE_CURVE('',#1555,#1555,#1563,.T.);
#1563 = CIRCLE('',#1564,3.5);
#1564 = AXIS2_PLACEMENT_3D('',#1565,#1566,#1567);
#1565 = CARTESIAN_POINT('',(95.,17.8,4.5));
#1566 = DIRECTION('',(0.,0.,-1.));
#1567 = DIRECTION('',(-1.,-0.,-0.));
#1568 = ORIENTED_EDGE('',*,*,#1554,.F.);
#1569 = ORIENTED_EDGE('',*,*,#590,.F.);
#1570 = CYLINDRICAL_SURFACE('',#1571,3.5);
#1571 = AXIS2_PLACEMENT_3D('',#1572,#1573,#1574);
#1572 = CARTESIAN_POINT('',(95.,17.8,10.));
#1573 = DIRECTION('',(0.,0.,1.));
#1574 = DIRECTION('',(-1.,0.,0.));
#1575 = ADVANCED_FACE('',(#1576),#1610,.T.);
#1576 = FACE_BOUND('',#1577,.T.);
#1577 = EDGE_LOOP('',(#1578,#1579,#1580,#1588,#1594,#1595,#1603,#1609));
#1578 = ORIENTED_EDGE('',*,*,#655,.F.);
#1579 = ORIENTED_EDGE('',*,*,#632,.F.);
#1580 = ORIENTED_EDGE('',*,*,#1581,.F.);
#1581 = EDGE_CURVE('',#1582,#625,#1584,.T.);
#1582 = VERTEX_POINT('',#1583);
#1583 = CARTESIAN_POINT('',(-34.,12.5,0.));
#1584 = LINE('',#1585,#1586);
#1585 = CARTESIAN_POINT('',(0.,12.5,0.));
#1586 = VECTOR('',#1587,1.);
#1587 = DIRECTION('',(-1.,0.,0.));
#1588 = ORIENTED_EDGE('',*,*,#1589,.F.);
#1589 = EDGE_CURVE('',#801,#1582,#1590,.T.);
#1590 = LINE('',#1591,#1592);
#1591 = CARTESIAN_POINT('',(0.,12.5,0.));
#1592 = VECTOR('',#1593,1.);
#1593 = DIRECTION('',(-1.,0.,0.));
#1594 = ORIENTED_EDGE('',*,*,#810,.T.);
#1595 = ORIENTED_EDGE('',*,*,#1596,.F.);
#1596 = EDGE_CURVE('',#1597,#811,#1599,.T.);
#1597 = VERTEX_POINT('',#1598);
#1598 = CARTESIAN_POINT('',(-2.303627574067,12.5,-2.6));
#1599 = LINE('',#1600,#1601);
#1600 = CARTESIAN_POINT('',(-2.303627574067,12.5,-2.6));
#1601 = VECTOR('',#1602,1.);
#1602 = DIRECTION('',(1.,0.,0.));
#1603 = ORIENTED_EDGE('',*,*,#1604,.F.);
#1604 = EDGE_CURVE('',#682,#1597,#1605,.T.);
#1605 = LINE('',#1606,#1607);
#1606 = CARTESIAN_POINT('',(-2.303627574067,12.5,-7.6));
#1607 = VECTOR('',#1608,1.);
#1608 = DIRECTION('',(0.,-3.3E-16,1.));
#1609 = ORIENTED_EDGE('',*,*,#681,.T.);
#1610 = PLANE('',#1611);
#1611 = AXIS2_PLACEMENT_3D('',#1612,#1613,#1614);
#1612 = CARTESIAN_POINT('',(0.,12.5,0.));
#1613 = DIRECTION('',(0.,1.,0.));
#1614 = DIRECTION('',(-1.,0.,0.));
#1615 = ADVANCED_FACE('',(#1616),#1634,.F.);
#1616 = FACE_BOUND('',#1617,.F.);
#1617 = EDGE_LOOP('',(#1618,#1619,#1627,#1633));
#1618 = ORIENTED_EDGE('',*,*,#736,.T.);
#1619 = ORIENTED_EDGE('',*,*,#1620,.T.);
#1620 = EDGE_CURVE('',#729,#1621,#1623,.T.);
#1621 = VERTEX_POINT('',#1622);
#1622 = CARTESIAN_POINT('',(-4.607255148133,8.51,-2.6));
#1623 = LINE('',#1624,#1625);
#1624 = CARTESIAN_POINT('',(-2.303627574067,4.52,-2.6));
#1625 = VECTOR('',#1626,1.);
#1626 = DIRECTION('',(-0.5,0.866025403784,-0.));
#1627 = ORIENTED_EDGE('',*,*,#1628,.F.);
#1628 = EDGE_CURVE('',#690,#1621,#1629,.T.);
#1629 = LINE('',#1630,#1631);
#1630 = CARTESIAN_POINT('',(-4.607255148133,8.51,-7.6));
#1631 = VECTOR('',#1632,1.);
#1632 = DIRECTION('',(0.,-3.3E-16,1.));
#1633 = ORIENTED_EDGE('',*,*,#697,.F.);
#1634 = PLANE('',#1635);
#1635 = AXIS2_PLACEMENT_3D('',#1636,#1637,#1638);
#1636 = CARTESIAN_POINT('',(-2.303627574067,4.52,-7.6));
#1637 = DIRECTION('',(-0.866025403784,-0.5,-1.7E-16));
#1638 = DIRECTION('',(-0.5,0.866025403784,2.9E-16));
#1639 = ADVANCED_FACE('',(#1640),#1651,.F.);
#1640 = FACE_BOUND('',#1641,.F.);
#1641 = EDGE_LOOP('',(#1642,#1643,#1649,#1650));
#1642 = ORIENTED_EDGE('',*,*,#1628,.T.);
#1643 = ORIENTED_EDGE('',*,*,#1644,.T.);
#1644 = EDGE_CURVE('',#1621,#1597,#1645,.T.);
#1645 = LINE('',#1646,#1647);
#1646 = CARTESIAN_POINT('',(-4.607255148133,8.51,-2.6));
#1647 = VECTOR('',#1648,1.);
#1648 = DIRECTION('',(0.5,0.866025403784,0.));
#1649 = ORIENTED_EDGE('',*,*,#1604,.F.);
#1650 = ORIENTED_EDGE('',*,*,#689,.F.);
#1651 = PLANE('',#1652);
#1652 = AXIS2_PLACEMENT_3D('',#1653,#1654,#1655);
#1653 = CARTESIAN_POINT('',(-4.607255148133,8.51,-7.6));
#1654 = DIRECTION('',(-0.866025403784,0.5,1.7E-16));
#1655 = DIRECTION('',(0.5,0.866025403784,2.9E-16));
#1656 = ADVANCED_FACE('',(#1657,#1666),#1677,.T.);
#1657 = FACE_BOUND('',#1658,.T.);
#1658 = EDGE_LOOP('',(#1659,#1660,#1661,#1662,#1663,#1664,#1665));
#1659 = ORIENTED_EDGE('',*,*,#760,.T.);
#1660 = ORIENTED_EDGE('',*,*,#728,.T.);
#1661 = ORIENTED_EDGE('',*,*,#1620,.T.);
#1662 = ORIENTED_EDGE('',*,*,#1644,.T.);
#1663 = ORIENTED_EDGE('',*,*,#1596,.T.);
#1664 = ORIENTED_EDGE('',*,*,#818,.T.);
#1665 = ORIENTED_EDGE('',*,*,#784,.T.);
#1666 = FACE_BOUND('',#1667,.T.);
#1667 = EDGE_LOOP('',(#1668));
#1668 = ORIENTED_EDGE('',*,*,#1669,.F.);
#1669 = EDGE_CURVE('',#1670,#1670,#1672,.T.);
#1670 = VERTEX_POINT('',#1671);
#1671 = CARTESIAN_POINT('',(2.65,8.51,-2.6));
#1672 = CIRCLE('',#1673,2.65);
#1673 = AXIS2_PLACEMENT_3D('',#1674,#1675,#1676);
#1674 = CARTESIAN_POINT('',(0.,8.51,-2.6));
#1675 = DIRECTION('',(0.,4.4E-16,-1.));
#1676 = DIRECTION('',(1.,0.,0.));
#1677 = PLANE('',#1678);
#1678 = AXIS2_PLACEMENT_3D('',#1679,#1680,#1681);
#1679 = CARTESIAN_POINT('',(-6.E-17,8.51,-2.6));
#1680 = DIRECTION('',(0.,2.2E-16,-1.));
#1681 = DIRECTION('',(0.,1.,2.2E-16));
#1682 = ADVANCED_FACE('',(#1683,#1686),#1689,.F.);
#1683 = FACE_BOUND('',#1684,.T.);
#1684 = EDGE_LOOP('',(#1685));
#1685 = ORIENTED_EDGE('',*,*,#1537,.F.);
#1686 = FACE_BOUND('',#1687,.T.);
#1687 = EDGE_LOOP('',(#1688));
#1688 = ORIENTED_EDGE('',*,*,#1046,.F.);
#1689 = PLANE('',#1690);
#1690 = AXIS2_PLACEMENT_3D('',#1691,#1692,#1693);
#1691 = CARTESIAN_POINT('',(95.,12.8,4.5));
#1692 = DIRECTION('',(8.E-17,2.2E-16,-1.));
#1693 = DIRECTION('',(0.,-1.,-2.2E-16));
#1694 = ADVANCED_FACE('',(#1695,#1698),#1701,.F.);
#1695 = FACE_BOUND('',#1696,.T.);
#1696 = EDGE_LOOP('',(#1697));
#1697 = ORIENTED_EDGE('',*,*,#1562,.F.);
#1698 = FACE_BOUND('',#1699,.T.);
#1699 = EDGE_LOOP('',(#1700));
#1700 = ORIENTED_EDGE('',*,*,#1071,.F.);
#1701 = PLANE('',#1702);
#1702 = AXIS2_PLACEMENT_3D('',#1703,#1704,#1705);
#1703 = CARTESIAN_POINT('',(95.,12.8,4.5));
#1704 = DIRECTION('',(8.E-17,2.2E-16,-1.));
#1705 = DIRECTION('',(0.,-1.,-2.2E-16));
#1706 = ADVANCED_FACE('',(#1707),#1723,.F.);
#1707 = FACE_BOUND('',#1708,.F.);
#1708 = EDGE_LOOP('',(#1709,#1710,#1716,#1717));
#1709 = ORIENTED_EDGE('',*,*,#1096,.F.);
#1710 = ORIENTED_EDGE('',*,*,#1711,.T.);
#1711 = EDGE_CURVE('',#1097,#1280,#1712,.T.);
#1712 = LINE('',#1713,#1714);
#1713 = CARTESIAN_POINT('',(-37.,32.8,0.));
#1714 = VECTOR('',#1715,1.);
#1715 = DIRECTION('',(0.,0.,1.));
#1716 = ORIENTED_EDGE('',*,*,#1279,.T.);
#1717 = ORIENTED_EDGE('',*,*,#1718,.F.);
#1718 = EDGE_CURVE('',#1099,#1269,#1719,.T.);
#1719 = LINE('',#1720,#1721);
#1720 = CARTESIAN_POINT('',(-97.,32.8,-3.64E-15));
#1721 = VECTOR('',#1722,1.);
#1722 = DIRECTION('',(0.,1.1E-16,1.));
#1723 = PLANE('',#1724);
#1724 = AXIS2_PLACEMENT_3D('',#1725,#1726,#1727);
#1725 = CARTESIAN_POINT('',(-34.,32.8,0.));
#1726 = DIRECTION('',(0.,-1.,0.));
#1727 = DIRECTION('',(-1.,0.,0.));
#1728 = ADVANCED_FACE('',(#1729),#1740,.T.);
#1729 = FACE_BOUND('',#1730,.T.);
#1730 = EDGE_LOOP('',(#1731,#1732,#1738,#1739));
#1731 = ORIENTED_EDGE('',*,*,#1206,.T.);
#1732 = ORIENTED_EDGE('',*,*,#1733,.T.);
#1733 = EDGE_CURVE('',#1199,#1271,#1734,.T.);
#1734 = LINE('',#1735,#1736);
#1735 = CARTESIAN_POINT('',(-100.,29.8,-3.31E-15));
#1736 = VECTOR('',#1737,1.);
#1737 = DIRECTION('',(0.,1.1E-16,1.));
#1738 = ORIENTED_EDGE('',*,*,#1268,.F.);
#1739 = ORIENTED_EDGE('',*,*,#1718,.F.);
#1740 = CYLINDRICAL_SURFACE('',#1741,3.);
#1741 = AXIS2_PLACEMENT_3D('',#1742,#1743,#1744);
#1742 = CARTESIAN_POINT('',(-97.,29.8,-3.31E-15));
#1743 = DIRECTION('',(0.,1.1E-16,1.));
#1744 = DIRECTION('',(0.,1.,-1.1E-16));
#1745 = ADVANCED_FACE('',(#1746),#1757,.T.);
#1746 = FACE_BOUND('',#1747,.F.);
#1747 = EDGE_LOOP('',(#1748,#1749,#1755,#1756));
#1748 = ORIENTED_EDGE('',*,*,#1106,.T.);
#1749 = ORIENTED_EDGE('',*,*,#1750,.T.);
#1750 = EDGE_CURVE('',#1107,#1288,#1751,.T.);
#1751 = LINE('',#1752,#1753);
#1752 = CARTESIAN_POINT('',(-34.,29.8,0.));
#1753 = VECTOR('',#1754,1.);
#1754 = DIRECTION('',(0.,0.,1.));
#1755 = ORIENTED_EDGE('',*,*,#1287,.F.);
#1756 = ORIENTED_EDGE('',*,*,#1711,.F.);
#1757 = CYLINDRICAL_SURFACE('',#1758,3.);
#1758 = AXIS2_PLACEMENT_3D('',#1759,#1760,#1761);
#1759 = CARTESIAN_POINT('',(-37.,29.8,0.));
#1760 = DIRECTION('',(0.,0.,1.));
#1761 = DIRECTION('',(0.,1.,0.));
#1762 = ADVANCED_FACE('',(#1763),#1774,.F.);
#1763 = FACE_BOUND('',#1764,.F.);
#1764 = EDGE_LOOP('',(#1765,#1766,#1767,#1768));
#1765 = ORIENTED_EDGE('',*,*,#1198,.F.);
#1766 = ORIENTED_EDGE('',*,*,#1733,.T.);
#1767 = ORIENTED_EDGE('',*,*,#1395,.T.);
#1768 = ORIENTED_EDGE('',*,*,#1769,.F.);
#1769 = EDGE_CURVE('',#1190,#1387,#1770,.T.);
#1770 = LINE('',#1771,#1772);
#1771 = CARTESIAN_POINT('',(-100.,5.8,0.));
#1772 = VECTOR('',#1773,1.);
#1773 = DIRECTION('',(0.,0.,1.));
#1774 = PLANE('',#1775);
#1775 = AXIS2_PLACEMENT_3D('',#1776,#1777,#1778);
#1776 = CARTESIAN_POINT('',(-100.,32.8,0.));
#1777 = DIRECTION('',(1.,0.,0.));
#1778 = DIRECTION('',(0.,-1.,0.));
#1779 = ADVANCED_FACE('',(#1780),#1791,.F.);
#1780 = FACE_BOUND('',#1781,.F.);
#1781 = EDGE_LOOP('',(#1782,#1783,#1789,#1790));
#1782 = ORIENTED_EDGE('',*,*,#1115,.F.);
#1783 = ORIENTED_EDGE('',*,*,#1784,.T.);
#1784 = EDGE_CURVE('',#1116,#1297,#1785,.T.);
#1785 = LINE('',#1786,#1787);
#1786 = CARTESIAN_POINT('',(-34.,15.,0.));
#1787 = VECTOR('',#1788,1.);
#1788 = DIRECTION('',(0.,0.,1.));
#1789 = ORIENTED_EDGE('',*,*,#1296,.T.);
#1790 = ORIENTED_EDGE('',*,*,#1750,.F.);
#1791 = PLANE('',#1792);
#1792 = AXIS2_PLACEMENT_3D('',#1793,#1794,#1795);
#1793 = CARTESIAN_POINT('',(-34.,15.,0.));
#1794 = DIRECTION('',(-1.,0.,0.));
#1795 = DIRECTION('',(0.,1.,0.));
#1796 = ADVANCED_FACE('',(#1797),#1808,.T.);
#1797 = FACE_BOUND('',#1798,.T.);
#1798 = EDGE_LOOP('',(#1799,#1800,#1806,#1807));
#1799 = ORIENTED_EDGE('',*,*,#1189,.T.);
#1800 = ORIENTED_EDGE('',*,*,#1801,.T.);
#1801 = EDGE_CURVE('',#1182,#1379,#1802,.T.);
#1802 = LINE('',#1803,#1804);
#1803 = CARTESIAN_POINT('',(-97.,2.8,0.));
#1804 = VECTOR('',#1805,1.);
#1805 = DIRECTION('',(0.,0.,1.));
#1806 = ORIENTED_EDGE('',*,*,#1386,.F.);
#1807 = ORIENTED_EDGE('',*,*,#1769,.F.);
#1808 = CYLINDRICAL_SURFACE('',#1809,3.);
#1809 = AXIS2_PLACEMENT_3D('',#1810,#1811,#1812);
#1810 = CARTESIAN_POINT('',(-97.,5.8,0.));
#1811 = DIRECTION('',(0.,0.,1.));
#1812 = DIRECTION('',(-1.,0.,0.));
#1813 = ADVANCED_FACE('',(#1814),#1825,.T.);
#1814 = FACE_BOUND('',#1815,.T.);
#1815 = EDGE_LOOP('',(#1816,#1822,#1823,#1824));
#1816 = ORIENTED_EDGE('',*,*,#1817,.T.);
#1817 = EDGE_CURVE('',#1116,#1582,#1818,.T.);
#1818 = LINE('',#1819,#1820);
#1819 = CARTESIAN_POINT('',(-34.,15.,0.));
#1820 = VECTOR('',#1821,1.);
#1821 = DIRECTION('',(0.,-1.,0.));
#1822 = ORIENTED_EDGE('',*,*,#1581,.T.);
#1823 = ORIENTED_EDGE('',*,*,#1131,.F.);
#1824 = ORIENTED_EDGE('',*,*,#1123,.F.);
#1825 = PLANE('',#1826);
#1826 = AXIS2_PLACEMENT_3D('',#1827,#1828,#1829);
#1827 = CARTESIAN_POINT('',(-34.,15.,0.));
#1828 = DIRECTION('',(-0.,-0.,-1.));
#1829 = DIRECTION('',(-1.,0.,0.));
#1830 = ADVANCED_FACE('',(#1831),#1842,.F.);
#1831 = FACE_BOUND('',#1832,.F.);
#1832 = EDGE_LOOP('',(#1833,#1834,#1835,#1836));
#1833 = ORIENTED_EDGE('',*,*,#1181,.F.);
#1834 = ORIENTED_EDGE('',*,*,#1801,.T.);
#1835 = ORIENTED_EDGE('',*,*,#1378,.T.);
#1836 = ORIENTED_EDGE('',*,*,#1837,.F.);
#1837 = EDGE_CURVE('',#1173,#1370,#1838,.T.);
#1838 = LINE('',#1839,#1840);
#1839 = CARTESIAN_POINT('',(-93.,2.8,0.));
#1840 = VECTOR('',#1841,1.);
#1841 = DIRECTION('',(0.,0.,1.));
#1842 = PLANE('',#1843);
#1843 = AXIS2_PLACEMENT_3D('',#1844,#1845,#1846);
#1844 = CARTESIAN_POINT('',(-100.,2.8,0.));
#1845 = DIRECTION('',(0.,1.,0.));
#1846 = DIRECTION('',(1.,0.,0.));
#1847 = ADVANCED_FACE('',(#1848),#1859,.T.);
#1848 = FACE_BOUND('',#1849,.F.);
#1849 = EDGE_LOOP('',(#1850,#1851,#1852,#1853));
#1850 = ORIENTED_EDGE('',*,*,#1172,.T.);
#1851 = ORIENTED_EDGE('',*,*,#1837,.T.);
#1852 = ORIENTED_EDGE('',*,*,#1369,.F.);
#1853 = ORIENTED_EDGE('',*,*,#1854,.F.);
#1854 = EDGE_CURVE('',#1165,#1362,#1855,.T.);
#1855 = LINE('',#1856,#1857);
#1856 = CARTESIAN_POINT('',(-90.,5.8,0.));
#1857 = VECTOR('',#1858,1.);
#1858 = DIRECTION('',(0.,0.,1.));
#1859 = CYLINDRICAL_SURFACE('',#1860,3.);
#1860 = AXIS2_PLACEMENT_3D('',#1861,#1862,#1863);
#1861 = CARTESIAN_POINT('',(-93.,5.8,0.));
#1862 = DIRECTION('',(0.,0.,1.));
#1863 = DIRECTION('',(1.,0.,0.));
#1864 = ADVANCED_FACE('',(#1865),#1876,.F.);
#1865 = FACE_BOUND('',#1866,.F.);
#1866 = EDGE_LOOP('',(#1867,#1868,#1869,#1870));
#1867 = ORIENTED_EDGE('',*,*,#1164,.F.);
#1868 = ORIENTED_EDGE('',*,*,#1854,.T.);
#1869 = ORIENTED_EDGE('',*,*,#1361,.T.);
#1870 = ORIENTED_EDGE('',*,*,#1871,.F.);
#1871 = EDGE_CURVE('',#1157,#1354,#1872,.T.);
#1872 = LINE('',#1873,#1874);
#1873 = CARTESIAN_POINT('',(-90.,22.8,0.));
#1874 = VECTOR('',#1875,1.);
#1875 = DIRECTION('',(0.,0.,1.));
#1876 = PLANE('',#1877);
#1877 = AXIS2_PLACEMENT_3D('',#1878,#1879,#1880);
#1878 = CARTESIAN_POINT('',(-90.,2.8,0.));
#1879 = DIRECTION('',(-1.,0.,0.));
#1880 = DIRECTION('',(0.,1.,0.));
#1881 = ADVANCED_FACE('',(#1882),#1893,.F.);
#1882 = FACE_BOUND('',#1883,.F.);
#1883 = EDGE_LOOP('',(#1884,#1885,#1886,#1892));
#1884 = ORIENTED_EDGE('',*,*,#1871,.T.);
#1885 = ORIENTED_EDGE('',*,*,#1353,.T.);
#1886 = ORIENTED_EDGE('',*,*,#1887,.F.);
#1887 = EDGE_CURVE('',#1149,#1346,#1888,.T.);
#1888 = LINE('',#1889,#1890);
#1889 = CARTESIAN_POINT('',(-44.,22.8,0.));
#1890 = VECTOR('',#1891,1.);
#1891 = DIRECTION('',(0.,0.,1.));
#1892 = ORIENTED_EDGE('',*,*,#1156,.F.);
#1893 = PLANE('',#1894);
#1894 = AXIS2_PLACEMENT_3D('',#1895,#1896,#1897);
#1895 = CARTESIAN_POINT('',(-90.,22.8,0.));
#1896 = DIRECTION('',(0.,1.,0.));
#1897 = DIRECTION('',(1.,0.,0.));
#1898 = ADVANCED_FACE('',(#1899),#1905,.F.);
#1899 = FACE_BOUND('',#1900,.F.);
#1900 = EDGE_LOOP('',(#1901,#1902,#1903,#1904));
#1901 = ORIENTED_EDGE('',*,*,#1148,.F.);
#1902 = ORIENTED_EDGE('',*,*,#1887,.T.);
#1903 = ORIENTED_EDGE('',*,*,#1345,.T.);
#1904 = ORIENTED_EDGE('',*,*,#1254,.F.);
#1905 = PLANE('',#1906);
#1906 = AXIS2_PLACEMENT_3D('',#1907,#1908,#1909);
#1907 = CARTESIAN_POINT('',(-44.,22.8,0.));
#1908 = DIRECTION('',(1.,0.,0.));
#1909 = DIRECTION('',(0.,-1.,0.));
#1910 = ADVANCED_FACE('',(#1911),#1930,.F.);
#1911 = FACE_BOUND('',#1912,.F.);
#1912 = EDGE_LOOP('',(#1913,#1922,#1928,#1929));
#1913 = ORIENTED_EDGE('',*,*,#1914,.F.);
#1914 = EDGE_CURVE('',#1915,#1915,#1917,.T.);
#1915 = VERTEX_POINT('',#1916);
#1916 = CARTESIAN_POINT('',(-93.35,7.8,4.5));
#1917 = CIRCLE('',#1918,1.65);
#1918 = AXIS2_PLACEMENT_3D('',#1919,#1920,#1921);
#1919 = CARTESIAN_POINT('',(-95.,7.8,4.5));
#1920 = DIRECTION('',(0.,0.,1.));
#1921 = DIRECTION('',(1.,0.,0.));
#1922 = ORIENTED_EDGE('',*,*,#1923,.T.);
#1923 = EDGE_CURVE('',#1915,#1216,#1924,.T.);
#1924 = LINE('',#1925,#1926);
#1925 = CARTESIAN_POINT('',(-93.35,7.8,10.));
#1926 = VECTOR('',#1927,1.);
#1927 = DIRECTION('',(0.,0.,-1.));
#1928 = ORIENTED_EDGE('',*,*,#1215,.T.);
#1929 = ORIENTED_EDGE('',*,*,#1923,.F.);
#1930 = CYLINDRICAL_SURFACE('',#1931,1.65);
#1931 = AXIS2_PLACEMENT_3D('',#1932,#1933,#1934);
#1932 = CARTESIAN_POINT('',(-95.,7.8,10.));
#1933 = DIRECTION('',(0.,0.,1.));
#1934 = DIRECTION('',(1.,0.,0.));
#1935 = ADVANCED_FACE('',(#1936),#1955,.F.);
#1936 = FACE_BOUND('',#1937,.F.);
#1937 = EDGE_LOOP('',(#1938,#1947,#1953,#1954));
#1938 = ORIENTED_EDGE('',*,*,#1939,.F.);
#1939 = EDGE_CURVE('',#1940,#1940,#1942,.T.);
#1940 = VERTEX_POINT('',#1941);
#1941 = CARTESIAN_POINT('',(-93.35,17.8,4.5));
#1942 = CIRCLE('',#1943,1.65);
#1943 = AXIS2_PLACEMENT_3D('',#1944,#1945,#1946);
#1944 = CARTESIAN_POINT('',(-95.,17.8,4.5));
#1945 = DIRECTION('',(0.,0.,1.));
#1946 = DIRECTION('',(1.,0.,0.));
#1947 = ORIENTED_EDGE('',*,*,#1948,.T.);
#1948 = EDGE_CURVE('',#1940,#1227,#1949,.T.);
#1949 = LINE('',#1950,#1951);
#1950 = CARTESIAN_POINT('',(-93.35,17.8,10.));
#1951 = VECTOR('',#1952,1.);
#1952 = DIRECTION('',(0.,0.,-1.));
#1953 = ORIENTED_EDGE('',*,*,#1226,.T.);
#1954 = ORIENTED_EDGE('',*,*,#1948,.F.);
#1955 = CYLINDRICAL_SURFACE('',#1956,1.65);
#1956 = AXIS2_PLACEMENT_3D('',#1957,#1958,#1959);
#1957 = CARTESIAN_POINT('',(-95.,17.8,10.));
#1958 = DIRECTION('',(0.,0.,1.));
#1959 = DIRECTION('',(1.,0.,0.));
#1960 = ADVANCED_FACE('',(#1961),#1972,.F.);
#1961 = FACE_BOUND('',#1962,.F.);
#1962 = EDGE_LOOP('',(#1963,#1964,#1970,#1971));
#1963 = ORIENTED_EDGE('',*,*,#1328,.F.);
#1964 = ORIENTED_EDGE('',*,*,#1965,.T.);
#1965 = EDGE_CURVE('',#1321,#1433,#1966,.T.);
#1966 = LINE('',#1967,#1968);
#1967 = CARTESIAN_POINT('',(-13.,4.9,10.));
#1968 = VECTOR('',#1969,1.);
#1969 = DIRECTION('',(1.,0.,0.));
#1970 = ORIENTED_EDGE('',*,*,#1440,.F.);
#1971 = ORIENTED_EDGE('',*,*,#1336,.F.);
#1972 = PLANE('',#1973);
#1973 = AXIS2_PLACEMENT_3D('',#1974,#1975,#1976);
#1974 = CARTESIAN_POINT('',(-13.,2.4,10.));
#1975 = DIRECTION('',(0.,-1.1E-16,-1.));
#1976 = DIRECTION('',(1.,0.,0.));
#1977 = ADVANCED_FACE('',(#1978),#2003,.F.);
#1978 = FACE_BOUND('',#1979,.F.);
#1979 = EDGE_LOOP('',(#1980,#1988,#1996,#2002));
#1980 = ORIENTED_EDGE('',*,*,#1981,.F.);
#1981 = EDGE_CURVE('',#1982,#1313,#1984,.T.);
#1982 = VERTEX_POINT('',#1983);
#1983 = CARTESIAN_POINT('',(-13.,12.5,5.));
#1984 = LINE('',#1985,#1986);
#1985 = CARTESIAN_POINT('',(-13.,12.5,5.));
#1986 = VECTOR('',#1987,1.);
#1987 = DIRECTION('',(0.,0.,1.));
#1988 = ORIENTED_EDGE('',*,*,#1989,.T.);
#1989 = EDGE_CURVE('',#1982,#1990,#1992,.T.);
#1990 = VERTEX_POINT('',#1991);
#1991 = CARTESIAN_POINT('',(-13.,4.9,5.));
#1992 = LINE('',#1993,#1994);
#1993 = CARTESIAN_POINT('',(-13.,15.,5.));
#1994 = VECTOR('',#1995,1.);
#1995 = DIRECTION('',(0.,-1.,1.1E-16));
#1996 = ORIENTED_EDGE('',*,*,#1997,.T.);
#1997 = EDGE_CURVE('',#1990,#1321,#1998,.T.);
#1998 = LINE('',#1999,#2000);
#1999 = CARTESIAN_POINT('',(-13.,4.9,5.));
#2000 = VECTOR('',#2001,1.);
#2001 = DIRECTION('',(0.,0.,1.));
#2002 = ORIENTED_EDGE('',*,*,#1320,.F.);
#2003 = PLANE('',#2004);
#2004 = AXIS2_PLACEMENT_3D('',#2005,#2006,#2007);
#2005 = CARTESIAN_POINT('',(-13.,15.,5.));
#2006 = DIRECTION('',(-1.,0.,0.));
#2007 = DIRECTION('',(0.,1.1E-16,1.));
#2008 = ADVANCED_FACE('',(#2009),#2027,.F.);
#2009 = FACE_BOUND('',#2010,.F.);
#2010 = EDGE_LOOP('',(#2011,#2012,#2013,#2019,#2020,#2021));
#2011 = ORIENTED_EDGE('',*,*,#1589,.F.);
#2012 = ORIENTED_EDGE('',*,*,#1487,.T.);
#2013 = ORIENTED_EDGE('',*,*,#2014,.T.);
#2014 = EDGE_CURVE('',#1488,#1982,#2015,.T.);
#2015 = LINE('',#2016,#2017);
#2016 = CARTESIAN_POINT('',(0.,12.5,5.));
#2017 = VECTOR('',#2018,1.);
#2018 = DIRECTION('',(-1.,0.,0.));
#2019 = ORIENTED_EDGE('',*,*,#1981,.T.);
#2020 = ORIENTED_EDGE('',*,*,#1312,.T.);
#2021 = ORIENTED_EDGE('',*,*,#2022,.F.);
#2022 = EDGE_CURVE('',#1582,#1305,#2023,.T.);
#2023 = LINE('',#2024,#2025);
#2024 = CARTESIAN_POINT('',(-34.,12.5,0.));
#2025 = VECTOR('',#2026,1.);
#2026 = DIRECTION('',(0.,0.,1.));
#2027 = PLANE('',#2028);
#2028 = AXIS2_PLACEMENT_3D('',#2029,#2030,#2031);
#2029 = CARTESIAN_POINT('',(0.,12.5,0.));
#2030 = DIRECTION('',(0.,-1.,0.));
#2031 = DIRECTION('',(-1.,0.,0.));
#2032 = ADVANCED_FACE('',(#2033),#2039,.F.);
#2033 = FACE_BOUND('',#2034,.F.);
#2034 = EDGE_LOOP('',(#2035,#2036,#2037,#2038));
#2035 = ORIENTED_EDGE('',*,*,#1817,.T.);
#2036 = ORIENTED_EDGE('',*,*,#2022,.T.);
#2037 = ORIENTED_EDGE('',*,*,#1304,.F.);
#2038 = ORIENTED_EDGE('',*,*,#1784,.F.);
#2039 = PLANE('',#2040);
#2040 = AXIS2_PLACEMENT_3D('',#2041,#2042,#2043);
#2041 = CARTESIAN_POINT('',(-34.,15.,0.));
#2042 = DIRECTION('',(-1.,0.,0.));
#2043 = DIRECTION('',(0.,0.,1.));
#2044 = ADVANCED_FACE('',(#2045),#2064,.F.);
#2045 = FACE_BOUND('',#2046,.F.);
#2046 = EDGE_LOOP('',(#2047,#2055,#2062,#2063));
#2047 = ORIENTED_EDGE('',*,*,#2048,.T.);
#2048 = EDGE_CURVE('',#1404,#2049,#2051,.T.);
#2049 = VERTEX_POINT('',#2050);
#2050 = CARTESIAN_POINT('',(-91.5,7.8,4.5));
#2051 = LINE('',#2052,#2053);
#2052 = CARTESIAN_POINT('',(-91.5,7.8,10.));
#2053 = VECTOR('',#2054,1.);
#2054 = DIRECTION('',(0.,0.,-1.));
#2055 = ORIENTED_EDGE('',*,*,#2056,.T.);
#2056 = EDGE_CURVE('',#2049,#2049,#2057,.T.);
#2057 = CIRCLE('',#2058,3.5);
#2058 = AXIS2_PLACEMENT_3D('',#2059,#2060,#2061);
#2059 = CARTESIAN_POINT('',(-95.,7.8,4.5));
#2060 = DIRECTION('',(0.,0.,1.));
#2061 = DIRECTION('',(1.,0.,0.));
#2062 = ORIENTED_EDGE('',*,*,#2048,.F.);
#2063 = ORIENTED_EDGE('',*,*,#1403,.F.);
#2064 = CYLINDRICAL_SURFACE('',#2065,3.5);
#2065 = AXIS2_PLACEMENT_3D('',#2066,#2067,#2068);
#2066 = CARTESIAN_POINT('',(-95.,7.8,10.));
#2067 = DIRECTION('',(0.,0.,1.));
#2068 = DIRECTION('',(1.,0.,0.));
#2069 = ADVANCED_FACE('',(#2070),#2089,.F.);
#2070 = FACE_BOUND('',#2071,.F.);
#2071 = EDGE_LOOP('',(#2072,#2080,#2087,#2088));
#2072 = ORIENTED_EDGE('',*,*,#2073,.T.);
#2073 = EDGE_CURVE('',#1415,#2074,#2076,.T.);
#2074 = VERTEX_POINT('',#2075);
#2075 = CARTESIAN_POINT('',(-91.5,17.8,4.5));
#2076 = LINE('',#2077,#2078);
#2077 = CARTESIAN_POINT('',(-91.5,17.8,10.));
#2078 = VECTOR('',#2079,1.);
#2079 = DIRECTION('',(0.,0.,-1.));
#2080 = ORIENTED_EDGE('',*,*,#2081,.T.);
#2081 = EDGE_CURVE('',#2074,#2074,#2082,.T.);
#2082 = CIRCLE('',#2083,3.5);
#2083 = AXIS2_PLACEMENT_3D('',#2084,#2085,#2086);
#2084 = CARTESIAN_POINT('',(-95.,17.8,4.5));
#2085 = DIRECTION('',(0.,0.,1.));
#2086 = DIRECTION('',(1.,0.,0.));
#2087 = ORIENTED_EDGE('',*,*,#2073,.F.);
#2088 = ORIENTED_EDGE('',*,*,#1414,.F.);
#2089 = CYLINDRICAL_SURFACE('',#2090,3.5);
#2090 = AXIS2_PLACEMENT_3D('',#2091,#2092,#2093);
#2091 = CARTESIAN_POINT('',(-95.,17.8,10.));
#2092 = DIRECTION('',(0.,0.,1.));
#2093 = DIRECTION('',(1.,0.,0.));
#2094 = ADVANCED_FACE('',(#2095),#2113,.T.);
#2095 = FACE_BOUND('',#2096,.F.);
#2096 = EDGE_LOOP('',(#2097,#2105,#2106,#2107));
#2097 = ORIENTED_EDGE('',*,*,#2098,.T.);
#2098 = EDGE_CURVE('',#2099,#1464,#2101,.T.);
#2099 = VERTEX_POINT('',#2100);
#2100 = CARTESIAN_POINT('',(0.,4.9,5.));
#2101 = LINE('',#2102,#2103);
#2102 = CARTESIAN_POINT('',(0.,4.9,5.));
#2103 = VECTOR('',#2104,1.);
#2104 = DIRECTION('',(1.,-0.,-0.));
#2105 = ORIENTED_EDGE('',*,*,#1471,.T.);
#2106 = ORIENTED_EDGE('',*,*,#1432,.T.);
#2107 = ORIENTED_EDGE('',*,*,#2108,.T.);
#2108 = EDGE_CURVE('',#1433,#2099,#2109,.T.);
#2109 = LINE('',#2110,#2111);
#2110 = CARTESIAN_POINT('',(0.,4.9,10.));
#2111 = VECTOR('',#2112,1.);
#2112 = DIRECTION('',(0.,0.,-1.));
#2113 = PLANE('',#2114);
#2114 = AXIS2_PLACEMENT_3D('',#2115,#2116,#2117);
#2115 = CARTESIAN_POINT('',(6.5,4.9,7.5));
#2116 = DIRECTION('',(0.,1.,0.));
#2117 = DIRECTION('',(1.,0.,0.));
#2118 = ADVANCED_FACE('',(#2119),#2156,.F.);
#2119 = FACE_BOUND('',#2120,.T.);
#2120 = EDGE_LOOP('',(#2121,#2122,#2130,#2139,#2148,#2154,#2155));
#2121 = ORIENTED_EDGE('',*,*,#1495,.F.);
#2122 = ORIENTED_EDGE('',*,*,#2123,.T.);
#2123 = EDGE_CURVE('',#1488,#2124,#2126,.T.);
#2124 = VERTEX_POINT('',#2125);
#2125 = CARTESIAN_POINT('',(0.,11.16,5.));
#2126 = LINE('',#2127,#2128);
#2127 = CARTESIAN_POINT('',(0.,15.,5.));
#2128 = VECTOR('',#2129,1.);
#2129 = DIRECTION('',(0.,-1.,1.1E-16));
#2130 = ORIENTED_EDGE('',*,*,#2131,.T.);
#2131 = EDGE_CURVE('',#2124,#2132,#2134,.T.);
#2132 = VERTEX_POINT('',#2133);
#2133 = CARTESIAN_POINT('',(2.65,8.51,5.));
#2134 = CIRCLE('',#2135,2.65);
#2135 = AXIS2_PLACEMENT_3D('',#2136,#2137,#2138);
#2136 = CARTESIAN_POINT('',(0.,8.51,5.));
#2137 = DIRECTION('',(0.,3.3E-16,-1.));
#2138 = DIRECTION('',(1.,0.,0.));
#2139 = ORIENTED_EDGE('',*,*,#2140,.T.);
#2140 = EDGE_CURVE('',#2132,#2141,#2143,.T.);
#2141 = VERTEX_POINT('',#2142);
#2142 = CARTESIAN_POINT('',(0.,5.86,5.));
#2143 = CIRCLE('',#2144,2.65);
#2144 = AXIS2_PLACEMENT_3D('',#2145,#2146,#2147);
#2145 = CARTESIAN_POINT('',(0.,8.51,5.));
#2146 = DIRECTION('',(0.,3.3E-16,-1.));
#2147 = DIRECTION('',(1.,0.,0.));
#2148 = ORIENTED_EDGE('',*,*,#2149,.T.);
#2149 = EDGE_CURVE('',#2141,#2099,#2150,.T.);
#2150 = LINE('',#2151,#2152);
#2151 = CARTESIAN_POINT('',(0.,15.,5.));
#2152 = VECTOR('',#2153,1.);
#2153 = DIRECTION('',(0.,-1.,1.1E-16));
#2154 = ORIENTED_EDGE('',*,*,#2098,.T.);
#2155 = ORIENTED_EDGE('',*,*,#1463,.F.);
#2156 = PLANE('',#2157);
#2157 = AXIS2_PLACEMENT_3D('',#2158,#2159,#2160);
#2158 = CARTESIAN_POINT('',(0.,15.,5.));
#2159 = DIRECTION('',(0.,-1.1E-16,-1.));
#2160 = DIRECTION('',(-1.,-0.,-0.));
#2161 = ADVANCED_FACE('',(#2162),#2181,.F.);
#2162 = FACE_BOUND('',#2163,.F.);
#2163 = EDGE_LOOP('',(#2164,#2165,#2171,#2172,#2179,#2180));
#2164 = ORIENTED_EDGE('',*,*,#1669,.F.);
#2165 = ORIENTED_EDGE('',*,*,#2166,.T.);
#2166 = EDGE_CURVE('',#1670,#2132,#2167,.T.);
#2167 = LINE('',#2168,#2169);
#2168 = CARTESIAN_POINT('',(2.65,8.51,-7.6));
#2169 = VECTOR('',#2170,1.);
#2170 = DIRECTION('',(0.,-3.3E-16,1.));
#2171 = ORIENTED_EDGE('',*,*,#2140,.T.);
#2172 = ORIENTED_EDGE('',*,*,#2173,.T.);
#2173 = EDGE_CURVE('',#2141,#2124,#2174,.T.);
#2174 = CIRCLE('',#2175,2.65);
#2175 = AXIS2_PLACEMENT_3D('',#2176,#2177,#2178);
#2176 = CARTESIAN_POINT('',(0.,8.51,5.));
#2177 = DIRECTION('',(0.,3.3E-16,-1.));
#2178 = DIRECTION('',(1.,0.,0.));
#2179 = ORIENTED_EDGE('',*,*,#2131,.T.);
#2180 = ORIENTED_EDGE('',*,*,#2166,.F.);
#2181 = CYLINDRICAL_SURFACE('',#2182,2.65);
#2182 = AXIS2_PLACEMENT_3D('',#2183,#2184,#2185);
#2183 = CARTESIAN_POINT('',(0.,8.51,-7.6));
#2184 = DIRECTION('',(0.,3.3E-16,-1.));
#2185 = DIRECTION('',(1.,0.,0.));
#2186 = ADVANCED_FACE('',(#2187,#2190),#2193,.F.);
#2187 = FACE_BOUND('',#2188,.F.);
#2188 = EDGE_LOOP('',(#2189));
#2189 = ORIENTED_EDGE('',*,*,#2056,.F.);
#2190 = FACE_BOUND('',#2191,.F.);
#2191 = EDGE_LOOP('',(#2192));
#2192 = ORIENTED_EDGE('',*,*,#1914,.T.);
#2193 = PLANE('',#2194);
#2194 = AXIS2_PLACEMENT_3D('',#2195,#2196,#2197);
#2195 = CARTESIAN_POINT('',(-95.,12.8,4.5));
#2196 = DIRECTION('',(-8.E-17,2.2E-16,-1.));
#2197 = DIRECTION('',(0.,1.,2.2E-16));
#2198 = ADVANCED_FACE('',(#2199,#2202),#2205,.F.);
#2199 = FACE_BOUND('',#2200,.F.);
#2200 = EDGE_LOOP('',(#2201));
#2201 = ORIENTED_EDGE('',*,*,#2081,.F.);
#2202 = FACE_BOUND('',#2203,.F.);
#2203 = EDGE_LOOP('',(#2204));
#2204 = ORIENTED_EDGE('',*,*,#1939,.T.);
#2205 = PLANE('',#2206);
#2206 = AXIS2_PLACEMENT_3D('',#2207,#2208,#2209);
#2207 = CARTESIAN_POINT('',(-95.,12.8,4.5));
#2208 = DIRECTION('',(-8.E-17,2.2E-16,-1.));
#2209 = DIRECTION('',(0.,1.,2.2E-16));
#2210 = ADVANCED_FACE('',(#2211),#2222,.T.);
#2211 = FACE_BOUND('',#2212,.T.);
#2212 = EDGE_LOOP('',(#2213,#2219,#2220,#2221));
#2213 = ORIENTED_EDGE('',*,*,#2214,.T.);
#2214 = EDGE_CURVE('',#2099,#1990,#2215,.T.);
#2215 = LINE('',#2216,#2217);
#2216 = CARTESIAN_POINT('',(0.,4.9,5.));
#2217 = VECTOR('',#2218,1.);
#2218 = DIRECTION('',(-1.,0.,0.));
#2219 = ORIENTED_EDGE('',*,*,#1997,.T.);
#2220 = ORIENTED_EDGE('',*,*,#1965,.T.);
#2221 = ORIENTED_EDGE('',*,*,#2108,.T.);
#2222 = PLANE('',#2223);
#2223 = AXIS2_PLACEMENT_3D('',#2224,#2225,#2226);
#2224 = CARTESIAN_POINT('',(-6.5,4.9,7.5));
#2225 = DIRECTION('',(0.,1.,0.));
#2226 = DIRECTION('',(1.,0.,0.));
#2227 = ADVANCED_FACE('',(#2228),#2236,.F.);
#2228 = FACE_BOUND('',#2229,.F.);
#2229 = EDGE_LOOP('',(#2230,#2231,#2232,#2233,#2234,#2235));
#2230 = ORIENTED_EDGE('',*,*,#2014,.F.);
#2231 = ORIENTED_EDGE('',*,*,#2123,.T.);
#2232 = ORIENTED_EDGE('',*,*,#2173,.F.);
#2233 = ORIENTED_EDGE('',*,*,#2149,.T.);
#2234 = ORIENTED_EDGE('',*,*,#2214,.T.);
#2235 = ORIENTED_EDGE('',*,*,#1989,.F.);
#2236 = PLANE('',#2237);
#2237 = AXIS2_PLACEMENT_3D('',#2238,#2239,#2240);
#2238 = CARTESIAN_POINT('',(0.,15.,5.));
#2239 = DIRECTION('',(-0.,-1.1E-16,-1.));
#2240 = DIRECTION('',(-1.,0.,0.));
#2241 = ( GEOMETRIC_REPRESENTATION_CONTEXT(3) 
GLOBAL_UNCERTAINTY_ASSIGNED_CONTEXT((#2245)) 
GLOBAL_UNIT_ASSIGNED_CONTEXT((#2242,#2243,#2244)) REPRESENTATION_CONTEXT
('Context #1','3D Context with UNIT and UNCERTAINTY') );
#2242 = ( LENGTH_UNIT() NAMED_UNIT(*) SI_UNIT(.MILLI.,.METRE.) );
#2243 = ( NAMED_UNIT(*) PLANE_ANGLE_UNIT() SI_UNIT($,.RADIAN.) );
#2244 = ( NAMED_UNIT(*) SI_UNIT($,.STERADIAN.) SOLID_ANGLE_UNIT() );
#2245 = UNCERTAINTY_MEASURE_WITH_UNIT(LENGTH_MEASURE(1.E-07),#2242,
  'distance_accuracy_value','confusion accuracy');
#2246 = PRODUCT_RELATED_PRODUCT_CATEGORY('part',$,(#7));
#2247 = MECHANICAL_DESIGN_GEOMETRIC_PRESENTATION_REPRESENTATION('',(
    #2248),#2241);
#2248 = STYLED_ITEM('color',(#2249),#15);
#2249 = PRESENTATION_STYLE_ASSIGNMENT((#2250,#2256));
#2250 = SURFACE_STYLE_USAGE(.BOTH.,#2251);
#2251 = SURFACE_SIDE_STYLE('',(#2252));
#2252 = SURFACE_STYLE_FILL_AREA(#2253);
#2253 = FILL_AREA_STYLE('',(#2254));
#2254 = FILL_AREA_STYLE_COLOUR('',#2255);
#2255 = COLOUR_RGB('',0.800000010877,0.800000010877,0.800000010877);
#2256 = CURVE_STYLE('',#2257,POSITIVE_LENGTH_MEASURE(0.1),#2258);
#2257 = DRAUGHTING_PRE_DEFINED_CURVE_FONT('continuous');
#2258 = COLOUR_RGB('',9.803921802644E-02,9.803921802644E-02,
  9.803921802644E-02);
ENDSEC;
END-ISO-10303-21;
