ISO-10303-21;
HEADER;
FILE_DESCRIPTION(('FreeCAD Model'),'2;1');
FILE_NAME('Open CASCADE Shape Model','2025-12-16T11:16:42',('Author'),(
    ''),'Open CASCADE STEP processor 7.6','FreeCAD','Unknown');
FILE_SCHEMA(('AUTOMOTIVE_DESIGN { 1 0 10303 214 1 1 1 1 }'));
ENDSEC;
DATA;
#1 = APPLICATION_PROTOCOL_DEFINITION('international standard',
  'automotive_design',2000,#2);
#2 = APPLICATION_CONTEXT(
  'core data for automotive mechanical design processes');
#3 = SHAPE_DEFINITION_REPRESENTATION(#4,#10);
#4 = PRODUCT_DEFINITION_SHAPE('','',#5);
#5 = PRODUCT_DEFINITION('design','',#6,#9);
#6 = PRODUCT_DEFINITION_FORMATION('','',#7);
#7 = PRODUCT('Mirrored','Mirrored','',(#8));
#8 = PRODUCT_CONTEXT('',#2,'mechanical');
#9 = PRODUCT_DEFINITION_CONTEXT('part definition',#2,'design');
#10 = ADVANCED_BREP_SHAPE_REPRESENTATION('',(#11,#15),#1951);
#11 = AXIS2_PLACEMENT_3D('',#12,#13,#14);
#12 = CARTESIAN_POINT('',(0.,0.,0.));
#13 = DIRECTION('',(0.,0.,1.));
#14 = DIRECTION('',(1.,0.,-0.));
#15 = MANIFOLD_SOLID_BREP('',#16);
#16 = CLOSED_SHELL('',(#17,#65,#104,#143,#174,#198,#222,#369,#401,#555,
    #572,#603,#627,#644,#677,#725,#742,#759,#776,#793,#810,#827,#844,
    #861,#878,#901,#918,#943,#968,#1115,#1140,#1279,#1301,#1321,#1346,
    #1371,#1397,#1424,#1449,#1461,#1473,#1495,#1512,#1529,#1546,#1589,
    #1606,#1623,#1640,#1657,#1674,#1691,#1714,#1739,#1764,#1781,#1801,
    #1826,#1851,#1863,#1890,#1915,#1927,#1939));
#17 = ADVANCED_FACE('',(#18),#60,.T.);
#18 = FACE_BOUND('',#19,.F.);
#19 = EDGE_LOOP('',(#20,#30,#38,#46,#54));
#20 = ORIENTED_EDGE('',*,*,#21,.F.);
#21 = EDGE_CURVE('',#22,#24,#26,.T.);
#22 = VERTEX_POINT('',#23);
#23 = CARTESIAN_POINT('',(39.2,0.,0.));
#24 = VERTEX_POINT('',#25);
#25 = CARTESIAN_POINT('',(0.,0.,0.));
#26 = LINE('',#27,#28);
#27 = CARTESIAN_POINT('',(44.,0.,0.));
#28 = VECTOR('',#29,1.);
#29 = DIRECTION('',(-1.,-0.,-0.));
#30 = ORIENTED_EDGE('',*,*,#31,.T.);
#31 = EDGE_CURVE('',#22,#32,#34,.T.);
#32 = VERTEX_POINT('',#33);
#33 = CARTESIAN_POINT('',(39.2,0.,-1.6));
#34 = LINE('',#35,#36);
#35 = CARTESIAN_POINT('',(39.2,0.,0.));
#36 = VECTOR('',#37,1.);
#37 = DIRECTION('',(-0.,0.,-1.));
#38 = ORIENTED_EDGE('',*,*,#39,.T.);
#39 = EDGE_CURVE('',#32,#40,#42,.T.);
#40 = VERTEX_POINT('',#41);
#41 = CARTESIAN_POINT('',(33.2,1.E-15,-7.6));
#42 = LINE('',#43,#44);
#43 = CARTESIAN_POINT('',(38.1,-1.67E-15,-2.7));
#44 = VECTOR('',#45,1.);
#45 = DIRECTION('',(-0.707106781187,-0.,-0.707106781187));
#46 = ORIENTED_EDGE('',*,*,#47,.T.);
#47 = EDGE_CURVE('',#40,#48,#50,.T.);
#48 = VERTEX_POINT('',#49);
#49 = CARTESIAN_POINT('',(0.,-1.E-15,-7.6));
#50 = LINE('',#51,#52);
#51 = CARTESIAN_POINT('',(39.2,0.,-7.6));
#52 = VECTOR('',#53,1.);
#53 = DIRECTION('',(-1.,0.,0.));
#54 = ORIENTED_EDGE('',*,*,#55,.F.);
#55 = EDGE_CURVE('',#24,#48,#56,.T.);
#56 = LINE('',#57,#58);
#57 = CARTESIAN_POINT('',(0.,0.,0.));
#58 = VECTOR('',#59,1.);
#59 = DIRECTION('',(0.,0.,-1.));
#60 = PLANE('',#61);
#61 = AXIS2_PLACEMENT_3D('',#62,#63,#64);
#62 = CARTESIAN_POINT('',(39.2,0.,0.));
#63 = DIRECTION('',(0.,-1.,0.));
#64 = DIRECTION('',(1.,0.,0.));
#65 = ADVANCED_FACE('',(#66),#99,.F.);
#66 = FACE_BOUND('',#67,.T.);
#67 = EDGE_LOOP('',(#68,#76,#84,#92,#98));
#68 = ORIENTED_EDGE('',*,*,#69,.F.);
#69 = EDGE_CURVE('',#70,#22,#72,.T.);
#70 = VERTEX_POINT('',#71);
#71 = CARTESIAN_POINT('',(41.,0.,0.));
#72 = LINE('',#73,#74);
#73 = CARTESIAN_POINT('',(44.,0.,0.));
#74 = VECTOR('',#75,1.);
#75 = DIRECTION('',(-1.,-0.,-0.));
#76 = ORIENTED_EDGE('',*,*,#77,.T.);
#77 = EDGE_CURVE('',#70,#78,#80,.T.);
#78 = VERTEX_POINT('',#79);
#79 = CARTESIAN_POINT('',(41.,-1.E-15,10.));
#80 = LINE('',#81,#82);
#81 = CARTESIAN_POINT('',(41.,-4.4E-16,0.));
#82 = VECTOR('',#83,1.);
#83 = DIRECTION('',(0.,0.,1.));
#84 = ORIENTED_EDGE('',*,*,#85,.T.);
#85 = EDGE_CURVE('',#78,#86,#88,.T.);
#86 = VERTEX_POINT('',#87);
#87 = CARTESIAN_POINT('',(0.,2.E-15,10.));
#88 = LINE('',#89,#90);
#89 = CARTESIAN_POINT('',(44.,0.,10.));
#90 = VECTOR('',#91,1.);
#91 = DIRECTION('',(-1.,-0.,-0.));
#92 = ORIENTED_EDGE('',*,*,#93,.F.);
#93 = EDGE_CURVE('',#24,#86,#94,.T.);
#94 = LINE('',#95,#96);
#95 = CARTESIAN_POINT('',(0.,0.,0.));
#96 = VECTOR('',#97,1.);
#97 = DIRECTION('',(0.,0.,1.));
#98 = ORIENTED_EDGE('',*,*,#21,.F.);
#99 = PLANE('',#100);
#100 = AXIS2_PLACEMENT_3D('',#101,#102,#103);
#101 = CARTESIAN_POINT('',(44.,0.,0.));
#102 = DIRECTION('',(0.,1.,0.));
#103 = DIRECTION('',(1.,0.,0.));
#104 = ADVANCED_FACE('',(#105),#138,.T.);
#105 = FACE_BOUND('',#106,.T.);
#106 = EDGE_LOOP('',(#107,#117,#125,#131,#132));
#107 = ORIENTED_EDGE('',*,*,#108,.T.);
#108 = EDGE_CURVE('',#109,#111,#113,.T.);
#109 = VERTEX_POINT('',#110);
#110 = CARTESIAN_POINT('',(-39.2,0.,0.));
#111 = VERTEX_POINT('',#112);
#112 = CARTESIAN_POINT('',(-39.2,0.,-1.6));
#113 = LINE('',#114,#115);
#114 = CARTESIAN_POINT('',(-39.2,0.,0.));
#115 = VECTOR('',#116,1.);
#116 = DIRECTION('',(0.,0.,-1.));
#117 = ORIENTED_EDGE('',*,*,#118,.T.);
#118 = EDGE_CURVE('',#111,#119,#121,.T.);
#119 = VERTEX_POINT('',#120);
#120 = CARTESIAN_POINT('',(-33.2,0.,-7.6));
#121 = LINE('',#122,#123);
#122 = CARTESIAN_POINT('',(-38.1,-1.67E-15,-2.7));
#123 = VECTOR('',#124,1.);
#124 = DIRECTION('',(0.707106781187,0.,-0.707106781187));
#125 = ORIENTED_EDGE('',*,*,#126,.T.);
#126 = EDGE_CURVE('',#119,#48,#127,.T.);
#127 = LINE('',#128,#129);
#128 = CARTESIAN_POINT('',(-39.2,0.,-7.6));
#129 = VECTOR('',#130,1.);
#130 = DIRECTION('',(1.,0.,0.));
#131 = ORIENTED_EDGE('',*,*,#55,.F.);
#132 = ORIENTED_EDGE('',*,*,#133,.F.);
#133 = EDGE_CURVE('',#109,#24,#134,.T.);
#134 = LINE('',#135,#136);
#135 = CARTESIAN_POINT('',(-44.,0.,0.));
#136 = VECTOR('',#137,1.);
#137 = DIRECTION('',(1.,0.,0.));
#138 = PLANE('',#139);
#139 = AXIS2_PLACEMENT_3D('',#140,#141,#142);
#140 = CARTESIAN_POINT('',(-39.2,0.,0.));
#141 = DIRECTION('',(-0.,-1.,-0.));
#142 = DIRECTION('',(1.,0.,0.));
#143 = ADVANCED_FACE('',(#144),#169,.T.);
#144 = FACE_BOUND('',#145,.F.);
#145 = EDGE_LOOP('',(#146,#147,#155,#163));
#146 = ORIENTED_EDGE('',*,*,#47,.F.);
#147 = ORIENTED_EDGE('',*,*,#148,.F.);
#148 = EDGE_CURVE('',#149,#40,#151,.T.);
#149 = VERTEX_POINT('',#150);
#150 = CARTESIAN_POINT('',(33.2,10.,-7.6));
#151 = LINE('',#152,#153);
#152 = CARTESIAN_POINT('',(33.2,15.,-7.6));
#153 = VECTOR('',#154,1.);
#154 = DIRECTION('',(0.,-1.,0.));
#155 = ORIENTED_EDGE('',*,*,#156,.F.);
#156 = EDGE_CURVE('',#157,#149,#159,.T.);
#157 = VERTEX_POINT('',#158);
#158 = CARTESIAN_POINT('',(0.,10.,-7.6));
#159 = LINE('',#160,#161);
#160 = CARTESIAN_POINT('',(0.,10.,-7.6));
#161 = VECTOR('',#162,1.);
#162 = DIRECTION('',(1.,0.,0.));
#163 = ORIENTED_EDGE('',*,*,#164,.F.);
#164 = EDGE_CURVE('',#48,#157,#165,.T.);
#165 = LINE('',#166,#167);
#166 = CARTESIAN_POINT('',(0.,0.,-7.6));
#167 = VECTOR('',#168,1.);
#168 = DIRECTION('',(0.,1.,0.));
#169 = PLANE('',#170);
#170 = AXIS2_PLACEMENT_3D('',#171,#172,#173);
#171 = CARTESIAN_POINT('',(19.6,7.5,-7.6));
#172 = DIRECTION('',(0.,2.2E-16,-1.));
#173 = DIRECTION('',(0.,-1.,-2.2E-16));
#174 = ADVANCED_FACE('',(#175),#193,.T.);
#175 = FACE_BOUND('',#176,.T.);
#176 = EDGE_LOOP('',(#177,#185,#191,#192));
#177 = ORIENTED_EDGE('',*,*,#178,.F.);
#178 = EDGE_CURVE('',#179,#149,#181,.T.);
#179 = VERTEX_POINT('',#180);
#180 = CARTESIAN_POINT('',(39.2,10.,-1.6));
#181 = LINE('',#182,#183);
#182 = CARTESIAN_POINT('',(28.3,10.,-12.5));
#183 = VECTOR('',#184,1.);
#184 = DIRECTION('',(-0.707106781187,-0.,-0.707106781187));
#185 = ORIENTED_EDGE('',*,*,#186,.T.);
#186 = EDGE_CURVE('',#179,#32,#187,.T.);
#187 = LINE('',#188,#189);
#188 = CARTESIAN_POINT('',(39.2,15.,-1.6));
#189 = VECTOR('',#190,1.);
#190 = DIRECTION('',(0.,-1.,0.));
#191 = ORIENTED_EDGE('',*,*,#39,.T.);
#192 = ORIENTED_EDGE('',*,*,#148,.F.);
#193 = PLANE('',#194);
#194 = AXIS2_PLACEMENT_3D('',#195,#196,#197);
#195 = CARTESIAN_POINT('',(36.2,15.,-4.6));
#196 = DIRECTION('',(0.707106781187,1.E-17,-0.707106781187));
#197 = DIRECTION('',(7.071067811865E-18,-1.,-7.071067811865E-18));
#198 = ADVANCED_FACE('',(#199),#217,.T.);
#199 = FACE_BOUND('',#200,.F.);
#200 = EDGE_LOOP('',(#201,#209,#215,#216));
#201 = ORIENTED_EDGE('',*,*,#202,.F.);
#202 = EDGE_CURVE('',#203,#22,#205,.T.);
#203 = VERTEX_POINT('',#204);
#204 = CARTESIAN_POINT('',(39.2,10.,-1.E-15));
#205 = LINE('',#206,#207);
#206 = CARTESIAN_POINT('',(39.2,15.,0.));
#207 = VECTOR('',#208,1.);
#208 = DIRECTION('',(0.,-1.,0.));
#209 = ORIENTED_EDGE('',*,*,#210,.T.);
#210 = EDGE_CURVE('',#203,#179,#211,.T.);
#211 = LINE('',#212,#213);
#212 = CARTESIAN_POINT('',(39.2,10.,1.E-15));
#213 = VECTOR('',#214,1.);
#214 = DIRECTION('',(-0.,-0.,-1.));
#215 = ORIENTED_EDGE('',*,*,#186,.T.);
#216 = ORIENTED_EDGE('',*,*,#31,.F.);
#217 = PLANE('',#218);
#218 = AXIS2_PLACEMENT_3D('',#219,#220,#221);
#219 = CARTESIAN_POINT('',(39.2,15.,0.));
#220 = DIRECTION('',(1.,0.,0.));
#221 = DIRECTION('',(0.,1.,0.));
#222 = ADVANCED_FACE('',(#223,#342,#353),#364,.T.);
#223 = FACE_BOUND('',#224,.F.);
#224 = EDGE_LOOP('',(#225,#235,#243,#249,#250,#251,#260,#268,#276,#284,
    #293,#301,#310,#318,#327,#335));
#225 = ORIENTED_EDGE('',*,*,#226,.F.);
#226 = EDGE_CURVE('',#227,#229,#231,.T.);
#227 = VERTEX_POINT('',#228);
#228 = CARTESIAN_POINT('',(34.,15.,-0.));
#229 = VERTEX_POINT('',#230);
#230 = CARTESIAN_POINT('',(34.,29.8,3.E-15));
#231 = LINE('',#232,#233);
#232 = CARTESIAN_POINT('',(34.,15.,0.));
#233 = VECTOR('',#234,1.);
#234 = DIRECTION('',(0.,1.,0.));
#235 = ORIENTED_EDGE('',*,*,#236,.T.);
#236 = EDGE_CURVE('',#227,#237,#239,.T.);
#237 = VERTEX_POINT('',#238);
#238 = CARTESIAN_POINT('',(39.2,15.,2.E-15));
#239 = LINE('',#240,#241);
#240 = CARTESIAN_POINT('',(0.,15.,0.));
#241 = VECTOR('',#242,1.);
#242 = DIRECTION('',(1.,0.,0.));
#243 = ORIENTED_EDGE('',*,*,#244,.T.);
#244 = EDGE_CURVE('',#237,#203,#245,.T.);
#245 = LINE('',#246,#247);
#246 = CARTESIAN_POINT('',(39.2,15.,0.));
#247 = VECTOR('',#248,1.);
#248 = DIRECTION('',(0.,-1.,0.));
#249 = ORIENTED_EDGE('',*,*,#202,.T.);
#250 = ORIENTED_EDGE('',*,*,#69,.F.);
#251 = ORIENTED_EDGE('',*,*,#252,.F.);
#252 = EDGE_CURVE('',#253,#70,#255,.T.);
#253 = VERTEX_POINT('',#254);
#254 = CARTESIAN_POINT('',(44.,3.,0.));
#255 = CIRCLE('',#256,3.);
#256 = AXIS2_PLACEMENT_3D('',#257,#258,#259);
#257 = CARTESIAN_POINT('',(41.,3.,0.));
#258 = DIRECTION('',(-0.,-0.,-1.));
#259 = DIRECTION('',(0.,-1.,0.));
#260 = ORIENTED_EDGE('',*,*,#261,.F.);
#261 = EDGE_CURVE('',#262,#253,#264,.T.);
#262 = VERTEX_POINT('',#263);
#263 = CARTESIAN_POINT('',(44.,22.8,3.E-15));
#264 = LINE('',#265,#266);
#265 = CARTESIAN_POINT('',(44.,22.8,0.));
#266 = VECTOR('',#267,1.);
#267 = DIRECTION('',(-0.,-1.,-0.));
#268 = ORIENTED_EDGE('',*,*,#269,.F.);
#269 = EDGE_CURVE('',#270,#262,#272,.T.);
#270 = VERTEX_POINT('',#271);
#271 = CARTESIAN_POINT('',(90.,22.8,3.E-15));
#272 = LINE('',#273,#274);
#273 = CARTESIAN_POINT('',(90.,22.8,0.));
#274 = VECTOR('',#275,1.);
#275 = DIRECTION('',(-1.,-0.,-0.));
#276 = ORIENTED_EDGE('',*,*,#277,.F.);
#277 = EDGE_CURVE('',#278,#270,#280,.T.);
#278 = VERTEX_POINT('',#279);
#279 = CARTESIAN_POINT('',(90.,5.8,1.E-15));
#280 = LINE('',#281,#282);
#281 = CARTESIAN_POINT('',(90.,2.8,0.));
#282 = VECTOR('',#283,1.);
#283 = DIRECTION('',(0.,1.,0.));
#284 = ORIENTED_EDGE('',*,*,#285,.T.);
#285 = EDGE_CURVE('',#278,#286,#288,.T.);
#286 = VERTEX_POINT('',#287);
#287 = CARTESIAN_POINT('',(93.,2.8,0.));
#288 = CIRCLE('',#289,3.);
#289 = AXIS2_PLACEMENT_3D('',#290,#291,#292);
#290 = CARTESIAN_POINT('',(93.,5.8,0.));
#291 = DIRECTION('',(-0.,0.,1.));
#292 = DIRECTION('',(0.,-1.,0.));
#293 = ORIENTED_EDGE('',*,*,#294,.F.);
#294 = EDGE_CURVE('',#295,#286,#297,.T.);
#295 = VERTEX_POINT('',#296);
#296 = CARTESIAN_POINT('',(97.,2.8,0.));
#297 = LINE('',#298,#299);
#298 = CARTESIAN_POINT('',(100.,2.8,0.));
#299 = VECTOR('',#300,1.);
#300 = DIRECTION('',(-1.,-0.,-0.));
#301 = ORIENTED_EDGE('',*,*,#302,.F.);
#302 = EDGE_CURVE('',#303,#295,#305,.T.);
#303 = VERTEX_POINT('',#304);
#304 = CARTESIAN_POINT('',(100.,5.8,1.E-15));
#305 = CIRCLE('',#306,3.);
#306 = AXIS2_PLACEMENT_3D('',#307,#308,#309);
#307 = CARTESIAN_POINT('',(97.,5.8,0.));
#308 = DIRECTION('',(-0.,-0.,-1.));
#309 = DIRECTION('',(0.,-1.,0.));
#310 = ORIENTED_EDGE('',*,*,#311,.F.);
#311 = EDGE_CURVE('',#312,#303,#314,.T.);
#312 = VERTEX_POINT('',#313);
#313 = CARTESIAN_POINT('',(100.,29.8,3.E-15));
#314 = LINE('',#315,#316);
#315 = CARTESIAN_POINT('',(100.,32.8,0.));
#316 = VECTOR('',#317,1.);
#317 = DIRECTION('',(-0.,-1.,-0.));
#318 = ORIENTED_EDGE('',*,*,#319,.F.);
#319 = EDGE_CURVE('',#320,#312,#322,.T.);
#320 = VERTEX_POINT('',#321);
#321 = CARTESIAN_POINT('',(97.,32.8,4.E-15));
#322 = CIRCLE('',#323,3.);
#323 = AXIS2_PLACEMENT_3D('',#324,#325,#326);
#324 = CARTESIAN_POINT('',(97.,29.8,6.59E-15));
#325 = DIRECTION('',(-0.,-0.,-1.));
#326 = DIRECTION('',(0.,-1.,0.));
#327 = ORIENTED_EDGE('',*,*,#328,.F.);
#328 = EDGE_CURVE('',#329,#320,#331,.T.);
#329 = VERTEX_POINT('',#330);
#330 = CARTESIAN_POINT('',(37.,32.8,4.E-15));
#331 = LINE('',#332,#333);
#332 = CARTESIAN_POINT('',(34.,32.8,0.));
#333 = VECTOR('',#334,1.);
#334 = DIRECTION('',(1.,0.,0.));
#335 = ORIENTED_EDGE('',*,*,#336,.T.);
#336 = EDGE_CURVE('',#329,#229,#337,.T.);
#337 = CIRCLE('',#338,3.);
#338 = AXIS2_PLACEMENT_3D('',#339,#340,#341);
#339 = CARTESIAN_POINT('',(37.,29.8,0.));
#340 = DIRECTION('',(-0.,0.,1.));
#341 = DIRECTION('',(0.,-1.,0.));
#342 = FACE_BOUND('',#343,.F.);
#343 = EDGE_LOOP('',(#344));
#344 = ORIENTED_EDGE('',*,*,#345,.F.);
#345 = EDGE_CURVE('',#346,#346,#348,.T.);
#346 = VERTEX_POINT('',#347);
#347 = CARTESIAN_POINT('',(93.35,7.8,2.E-15));
#348 = CIRCLE('',#349,1.65);
#349 = AXIS2_PLACEMENT_3D('',#350,#351,#352);
#350 = CARTESIAN_POINT('',(95.,7.8,1.78E-15));
#351 = DIRECTION('',(0.,-1.1E-16,1.));
#352 = DIRECTION('',(-1.,0.,0.));
#353 = FACE_BOUND('',#354,.F.);
#354 = EDGE_LOOP('',(#355));
#355 = ORIENTED_EDGE('',*,*,#356,.F.);
#356 = EDGE_CURVE('',#357,#357,#359,.T.);
#357 = VERTEX_POINT('',#358);
#358 = CARTESIAN_POINT('',(93.35,17.8,5.E-15));
#359 = CIRCLE('',#360,1.65);
#360 = AXIS2_PLACEMENT_3D('',#361,#362,#363);
#361 = CARTESIAN_POINT('',(95.,17.8,5.33E-15));
#362 = DIRECTION('',(0.,-1.1E-16,1.));
#363 = DIRECTION('',(-1.,0.,0.));
#364 = PLANE('',#365);
#365 = AXIS2_PLACEMENT_3D('',#366,#367,#368);
#366 = CARTESIAN_POINT('',(53.692408376963,17.471989528796,3.88E-15));
#367 = DIRECTION('',(0.,2.2E-16,-1.));
#368 = DIRECTION('',(0.,-1.,-2.2E-16));
#369 = ADVANCED_FACE('',(#370),#396,.F.);
#370 = FACE_BOUND('',#371,.F.);
#371 = EDGE_LOOP('',(#372,#380,#388,#394,#395));
#372 = ORIENTED_EDGE('',*,*,#373,.F.);
#373 = EDGE_CURVE('',#374,#109,#376,.T.);
#374 = VERTEX_POINT('',#375);
#375 = CARTESIAN_POINT('',(-41.,0.,0.));
#376 = LINE('',#377,#378);
#377 = CARTESIAN_POINT('',(-44.,0.,0.));
#378 = VECTOR('',#379,1.);
#379 = DIRECTION('',(1.,0.,0.));
#380 = ORIENTED_EDGE('',*,*,#381,.T.);
#381 = EDGE_CURVE('',#374,#382,#384,.T.);
#382 = VERTEX_POINT('',#383);
#383 = CARTESIAN_POINT('',(-41.,0.,10.));
#384 = LINE('',#385,#386);
#385 = CARTESIAN_POINT('',(-41.,-4.4E-16,0.));
#386 = VECTOR('',#387,1.);
#387 = DIRECTION('',(0.,0.,1.));
#388 = ORIENTED_EDGE('',*,*,#389,.T.);
#389 = EDGE_CURVE('',#382,#86,#390,.T.);
#390 = LINE('',#391,#392);
#391 = CARTESIAN_POINT('',(-44.,0.,10.));
#392 = VECTOR('',#393,1.);
#393 = DIRECTION('',(1.,0.,0.));
#394 = ORIENTED_EDGE('',*,*,#93,.F.);
#395 = ORIENTED_EDGE('',*,*,#133,.F.);
#396 = PLANE('',#397);
#397 = AXIS2_PLACEMENT_3D('',#398,#399,#400);
#398 = CARTESIAN_POINT('',(-44.,0.,0.));
#399 = DIRECTION('',(0.,1.,0.));
#400 = DIRECTION('',(1.,0.,0.));
#401 = ADVANCED_FACE('',(#402,#528,#539),#550,.F.);
#402 = FACE_BOUND('',#403,.T.);
#403 = EDGE_LOOP('',(#404,#412,#413,#422,#430,#438,#446,#455,#463,#472,
    #480,#489,#497,#506,#514,#522));
#404 = ORIENTED_EDGE('',*,*,#405,.F.);
#405 = EDGE_CURVE('',#86,#406,#408,.T.);
#406 = VERTEX_POINT('',#407);
#407 = CARTESIAN_POINT('',(0.,10.,10.));
#408 = LINE('',#409,#410);
#409 = CARTESIAN_POINT('',(0.,0.,10.));
#410 = VECTOR('',#411,1.);
#411 = DIRECTION('',(0.,1.,0.));
#412 = ORIENTED_EDGE('',*,*,#85,.F.);
#413 = ORIENTED_EDGE('',*,*,#414,.F.);
#414 = EDGE_CURVE('',#415,#78,#417,.T.);
#415 = VERTEX_POINT('',#416);
#416 = CARTESIAN_POINT('',(44.,3.,10.));
#417 = CIRCLE('',#418,3.);
#418 = AXIS2_PLACEMENT_3D('',#419,#420,#421);
#419 = CARTESIAN_POINT('',(41.,3.,10.));
#420 = DIRECTION('',(-0.,-0.,-1.));
#421 = DIRECTION('',(0.,-1.,0.));
#422 = ORIENTED_EDGE('',*,*,#423,.F.);
#423 = EDGE_CURVE('',#424,#415,#426,.T.);
#424 = VERTEX_POINT('',#425);
#425 = CARTESIAN_POINT('',(44.,22.8,10.));
#426 = LINE('',#427,#428);
#427 = CARTESIAN_POINT('',(44.,22.8,10.));
#428 = VECTOR('',#429,1.);
#429 = DIRECTION('',(-0.,-1.,-0.));
#430 = ORIENTED_EDGE('',*,*,#431,.F.);
#431 = EDGE_CURVE('',#432,#424,#434,.T.);
#432 = VERTEX_POINT('',#433);
#433 = CARTESIAN_POINT('',(90.,22.8,10.));
#434 = LINE('',#435,#436);
#435 = CARTESIAN_POINT('',(90.,22.8,10.));
#436 = VECTOR('',#437,1.);
#437 = DIRECTION('',(-1.,-0.,-0.));
#438 = ORIENTED_EDGE('',*,*,#439,.F.);
#439 = EDGE_CURVE('',#440,#432,#442,.T.);
#440 = VERTEX_POINT('',#441);
#441 = CARTESIAN_POINT('',(90.,5.8,10.));
#442 = LINE('',#443,#444);
#443 = CARTESIAN_POINT('',(90.,2.8,10.));
#444 = VECTOR('',#445,1.);
#445 = DIRECTION('',(0.,1.,0.));
#446 = ORIENTED_EDGE('',*,*,#447,.T.);
#447 = EDGE_CURVE('',#440,#448,#450,.T.);
#448 = VERTEX_POINT('',#449);
#449 = CARTESIAN_POINT('',(93.,2.8,10.));
#450 = CIRCLE('',#451,3.);
#451 = AXIS2_PLACEMENT_3D('',#452,#453,#454);
#452 = CARTESIAN_POINT('',(93.,5.8,10.));
#453 = DIRECTION('',(-0.,0.,1.));
#454 = DIRECTION('',(0.,-1.,0.));
#455 = ORIENTED_EDGE('',*,*,#456,.F.);
#456 = EDGE_CURVE('',#457,#448,#459,.T.);
#457 = VERTEX_POINT('',#458);
#458 = CARTESIAN_POINT('',(97.,2.8,10.));
#459 = LINE('',#460,#461);
#460 = CARTESIAN_POINT('',(100.,2.8,10.));
#461 = VECTOR('',#462,1.);
#462 = DIRECTION('',(-1.,-0.,-0.));
#463 = ORIENTED_EDGE('',*,*,#464,.F.);
#464 = EDGE_CURVE('',#465,#457,#467,.T.);
#465 = VERTEX_POINT('',#466);
#466 = CARTESIAN_POINT('',(100.,5.8,10.));
#467 = CIRCLE('',#468,3.);
#468 = AXIS2_PLACEMENT_3D('',#469,#470,#471);
#469 = CARTESIAN_POINT('',(97.,5.8,10.));
#470 = DIRECTION('',(-0.,-0.,-1.));
#471 = DIRECTION('',(0.,-1.,0.));
#472 = ORIENTED_EDGE('',*,*,#473,.F.);
#473 = EDGE_CURVE('',#474,#465,#476,.T.);
#474 = VERTEX_POINT('',#475);
#475 = CARTESIAN_POINT('',(100.,29.8,10.));
#476 = LINE('',#477,#478);
#477 = CARTESIAN_POINT('',(100.,32.8,10.));
#478 = VECTOR('',#479,1.);
#479 = DIRECTION('',(-0.,-1.,-0.));
#480 = ORIENTED_EDGE('',*,*,#481,.F.);
#481 = EDGE_CURVE('',#482,#474,#484,.T.);
#482 = VERTEX_POINT('',#483);
#483 = CARTESIAN_POINT('',(97.,32.8,10.));
#484 = CIRCLE('',#485,3.);
#485 = AXIS2_PLACEMENT_3D('',#486,#487,#488);
#486 = CARTESIAN_POINT('',(97.,29.8,10.));
#487 = DIRECTION('',(-0.,-0.,-1.));
#488 = DIRECTION('',(0.,-1.,0.));
#489 = ORIENTED_EDGE('',*,*,#490,.F.);
#490 = EDGE_CURVE('',#491,#482,#493,.T.);
#491 = VERTEX_POINT('',#492);
#492 = CARTESIAN_POINT('',(37.,32.8,10.));
#493 = LINE('',#494,#495);
#494 = CARTESIAN_POINT('',(34.,32.8,10.));
#495 = VECTOR('',#496,1.);
#496 = DIRECTION('',(1.,0.,0.));
#497 = ORIENTED_EDGE('',*,*,#498,.T.);
#498 = EDGE_CURVE('',#491,#499,#501,.T.);
#499 = VERTEX_POINT('',#500);
#500 = CARTESIAN_POINT('',(34.,29.8,10.));
#501 = CIRCLE('',#502,3.);
#502 = AXIS2_PLACEMENT_3D('',#503,#504,#505);
#503 = CARTESIAN_POINT('',(37.,29.8,10.));
#504 = DIRECTION('',(-0.,0.,1.));
#505 = DIRECTION('',(0.,-1.,0.));
#506 = ORIENTED_EDGE('',*,*,#507,.F.);
#507 = EDGE_CURVE('',#508,#499,#510,.T.);
#508 = VERTEX_POINT('',#509);
#509 = CARTESIAN_POINT('',(34.,15.,10.));
#510 = LINE('',#511,#512);
#511 = CARTESIAN_POINT('',(34.,15.,10.));
#512 = VECTOR('',#513,1.);
#513 = DIRECTION('',(0.,1.,0.));
#514 = ORIENTED_EDGE('',*,*,#515,.T.);
#515 = EDGE_CURVE('',#508,#516,#518,.T.);
#516 = VERTEX_POINT('',#517);
#517 = CARTESIAN_POINT('',(34.,10.,10.));
#518 = LINE('',#519,#520);
#519 = CARTESIAN_POINT('',(34.,15.,10.));
#520 = VECTOR('',#521,1.);
#521 = DIRECTION('',(0.,-1.,1.1E-16));
#522 = ORIENTED_EDGE('',*,*,#523,.F.);
#523 = EDGE_CURVE('',#406,#516,#524,.T.);
#524 = LINE('',#525,#526);
#525 = CARTESIAN_POINT('',(0.,10.,10.));
#526 = VECTOR('',#527,1.);
#527 = DIRECTION('',(1.,0.,0.));
#528 = FACE_BOUND('',#529,.T.);
#529 = EDGE_LOOP('',(#530));
#530 = ORIENTED_EDGE('',*,*,#531,.T.);
#531 = EDGE_CURVE('',#532,#532,#534,.T.);
#532 = VERTEX_POINT('',#533);
#533 = CARTESIAN_POINT('',(91.5,7.8,10.));
#534 = CIRCLE('',#535,3.5);
#535 = AXIS2_PLACEMENT_3D('',#536,#537,#538);
#536 = CARTESIAN_POINT('',(95.,7.8,10.));
#537 = DIRECTION('',(0.,0.,-1.));
#538 = DIRECTION('',(-1.,-0.,-0.));
#539 = FACE_BOUND('',#540,.T.);
#540 = EDGE_LOOP('',(#541));
#541 = ORIENTED_EDGE('',*,*,#542,.T.);
#542 = EDGE_CURVE('',#543,#543,#545,.T.);
#543 = VERTEX_POINT('',#544);
#544 = CARTESIAN_POINT('',(91.5,17.8,10.));
#545 = CIRCLE('',#546,3.5);
#546 = AXIS2_PLACEMENT_3D('',#547,#548,#549);
#547 = CARTESIAN_POINT('',(95.,17.8,10.));
#548 = DIRECTION('',(0.,0.,-1.));
#549 = DIRECTION('',(-1.,-0.,-0.));
#550 = PLANE('',#551);
#551 = AXIS2_PLACEMENT_3D('',#552,#553,#554);
#552 = CARTESIAN_POINT('',(53.692408376963,17.471989528796,10.));
#553 = DIRECTION('',(0.,2.2E-16,-1.));
#554 = DIRECTION('',(0.,-1.,-2.2E-16));
#555 = ADVANCED_FACE('',(#556),#567,.T.);
#556 = FACE_BOUND('',#557,.F.);
#557 = EDGE_LOOP('',(#558,#559,#560,#561));
#558 = ORIENTED_EDGE('',*,*,#252,.T.);
#559 = ORIENTED_EDGE('',*,*,#77,.T.);
#560 = ORIENTED_EDGE('',*,*,#414,.F.);
#561 = ORIENTED_EDGE('',*,*,#562,.F.);
#562 = EDGE_CURVE('',#253,#415,#563,.T.);
#563 = LINE('',#564,#565);
#564 = CARTESIAN_POINT('',(44.,3.,0.));
#565 = VECTOR('',#566,1.);
#566 = DIRECTION('',(0.,0.,1.));
#567 = CYLINDRICAL_SURFACE('',#568,3.);
#568 = AXIS2_PLACEMENT_3D('',#569,#570,#571);
#569 = CARTESIAN_POINT('',(41.,3.,0.));
#570 = DIRECTION('',(0.,0.,1.));
#571 = DIRECTION('',(1.,0.,0.));
#572 = ADVANCED_FACE('',(#573),#598,.T.);
#573 = FACE_BOUND('',#574,.T.);
#574 = EDGE_LOOP('',(#575,#583,#591,#597));
#575 = ORIENTED_EDGE('',*,*,#576,.F.);
#576 = EDGE_CURVE('',#577,#109,#579,.T.);
#577 = VERTEX_POINT('',#578);
#578 = CARTESIAN_POINT('',(-39.2,10.,1.E-15));
#579 = LINE('',#580,#581);
#580 = CARTESIAN_POINT('',(-39.2,15.,0.));
#581 = VECTOR('',#582,1.);
#582 = DIRECTION('',(0.,-1.,0.));
#583 = ORIENTED_EDGE('',*,*,#584,.T.);
#584 = EDGE_CURVE('',#577,#585,#587,.T.);
#585 = VERTEX_POINT('',#586);
#586 = CARTESIAN_POINT('',(-39.2,10.,-1.6));
#587 = LINE('',#588,#589);
#588 = CARTESIAN_POINT('',(-39.2,10.,1.E-15));
#589 = VECTOR('',#590,1.);
#590 = DIRECTION('',(0.,0.,-1.));
#591 = ORIENTED_EDGE('',*,*,#592,.T.);
#592 = EDGE_CURVE('',#585,#111,#593,.T.);
#593 = LINE('',#594,#595);
#594 = CARTESIAN_POINT('',(-39.2,15.,-1.6));
#595 = VECTOR('',#596,1.);
#596 = DIRECTION('',(0.,-1.,0.));
#597 = ORIENTED_EDGE('',*,*,#108,.F.);
#598 = PLANE('',#599);
#599 = AXIS2_PLACEMENT_3D('',#600,#601,#602);
#600 = CARTESIAN_POINT('',(-39.2,15.,0.));
#601 = DIRECTION('',(-1.,0.,0.));
#602 = DIRECTION('',(0.,-1.,0.));
#603 = ADVANCED_FACE('',(#604),#622,.T.);
#604 = FACE_BOUND('',#605,.F.);
#605 = EDGE_LOOP('',(#606,#614,#615,#616));
#606 = ORIENTED_EDGE('',*,*,#607,.F.);
#607 = EDGE_CURVE('',#585,#608,#610,.T.);
#608 = VERTEX_POINT('',#609);
#609 = CARTESIAN_POINT('',(-33.2,10.,-7.6));
#610 = LINE('',#611,#612);
#611 = CARTESIAN_POINT('',(-28.3,10.,-12.5));
#612 = VECTOR('',#613,1.);
#613 = DIRECTION('',(0.707106781187,0.,-0.707106781187));
#614 = ORIENTED_EDGE('',*,*,#592,.T.);
#615 = ORIENTED_EDGE('',*,*,#118,.T.);
#616 = ORIENTED_EDGE('',*,*,#617,.F.);
#617 = EDGE_CURVE('',#608,#119,#618,.T.);
#618 = LINE('',#619,#620);
#619 = CARTESIAN_POINT('',(-33.2,15.,-7.6));
#620 = VECTOR('',#621,1.);
#621 = DIRECTION('',(0.,-1.,0.));
#622 = PLANE('',#623);
#623 = AXIS2_PLACEMENT_3D('',#624,#625,#626);
#624 = CARTESIAN_POINT('',(-36.2,15.,-4.6));
#625 = DIRECTION('',(-0.707106781187,1.E-17,-0.707106781187));
#626 = DIRECTION('',(7.071067811865E-18,1.,7.071067811865E-18));
#627 = ADVANCED_FACE('',(#628),#639,.T.);
#628 = FACE_BOUND('',#629,.T.);
#629 = EDGE_LOOP('',(#630,#631,#632,#638));
#630 = ORIENTED_EDGE('',*,*,#126,.F.);
#631 = ORIENTED_EDGE('',*,*,#617,.F.);
#632 = ORIENTED_EDGE('',*,*,#633,.F.);
#633 = EDGE_CURVE('',#157,#608,#634,.T.);
#634 = LINE('',#635,#636);
#635 = CARTESIAN_POINT('',(0.,10.,-7.6));
#636 = VECTOR('',#637,1.);
#637 = DIRECTION('',(-1.,0.,0.));
#638 = ORIENTED_EDGE('',*,*,#164,.F.);
#639 = PLANE('',#640);
#640 = AXIS2_PLACEMENT_3D('',#641,#642,#643);
#641 = CARTESIAN_POINT('',(-19.6,7.5,-7.6));
#642 = DIRECTION('',(0.,2.2E-16,-1.));
#643 = DIRECTION('',(0.,1.,2.2E-16));
#644 = ADVANCED_FACE('',(#645),#672,.T.);
#645 = FACE_BOUND('',#646,.F.);
#646 = EDGE_LOOP('',(#647,#648,#656,#664,#670,#671));
#647 = ORIENTED_EDGE('',*,*,#210,.F.);
#648 = ORIENTED_EDGE('',*,*,#649,.F.);
#649 = EDGE_CURVE('',#650,#203,#652,.T.);
#650 = VERTEX_POINT('',#651);
#651 = CARTESIAN_POINT('',(34.,10.,-1.E-15));
#652 = LINE('',#653,#654);
#653 = CARTESIAN_POINT('',(0.,10.,1.E-15));
#654 = VECTOR('',#655,1.);
#655 = DIRECTION('',(1.,0.,0.));
#656 = ORIENTED_EDGE('',*,*,#657,.F.);
#657 = EDGE_CURVE('',#658,#650,#660,.T.);
#658 = VERTEX_POINT('',#659);
#659 = CARTESIAN_POINT('',(0.,10.,-4.E-15));
#660 = LINE('',#661,#662);
#661 = CARTESIAN_POINT('',(0.,10.,1.E-15));
#662 = VECTOR('',#663,1.);
#663 = DIRECTION('',(1.,0.,0.));
#664 = ORIENTED_EDGE('',*,*,#665,.T.);
#665 = EDGE_CURVE('',#658,#157,#666,.T.);
#666 = LINE('',#667,#668);
#667 = CARTESIAN_POINT('',(0.,10.,1.E-15));
#668 = VECTOR('',#669,1.);
#669 = DIRECTION('',(0.,0.,-1.));
#670 = ORIENTED_EDGE('',*,*,#156,.T.);
#671 = ORIENTED_EDGE('',*,*,#178,.F.);
#672 = PLANE('',#673);
#673 = AXIS2_PLACEMENT_3D('',#674,#675,#676);
#674 = CARTESIAN_POINT('',(0.,10.,1.E-15));
#675 = DIRECTION('',(0.,1.,0.));
#676 = DIRECTION('',(-1.,0.,0.));
#677 = ADVANCED_FACE('',(#678),#720,.F.);
#678 = FACE_BOUND('',#679,.T.);
#679 = EDGE_LOOP('',(#680,#681,#689,#698,#707,#713,#714));
#680 = ORIENTED_EDGE('',*,*,#226,.F.);
#681 = ORIENTED_EDGE('',*,*,#682,.T.);
#682 = EDGE_CURVE('',#227,#683,#685,.T.);
#683 = VERTEX_POINT('',#684);
#684 = CARTESIAN_POINT('',(34.,15.,3.815728071767));
#685 = LINE('',#686,#687);
#686 = CARTESIAN_POINT('',(34.,15.,0.));
#687 = VECTOR('',#688,1.);
#688 = DIRECTION('',(0.,-0.,1.));
#689 = ORIENTED_EDGE('',*,*,#690,.T.);
#690 = EDGE_CURVE('',#683,#691,#693,.T.);
#691 = VERTEX_POINT('',#692);
#692 = CARTESIAN_POINT('',(34.,15.55,5.));
#693 = CIRCLE('',#694,1.55);
#694 = AXIS2_PLACEMENT_3D('',#695,#696,#697);
#695 = CARTESIAN_POINT('',(34.,14.,5.));
#696 = DIRECTION('',(1.,4.4E-16,-0.));
#697 = DIRECTION('',(-4.4E-16,1.,0.));
#698 = ORIENTED_EDGE('',*,*,#699,.T.);
#699 = EDGE_CURVE('',#691,#700,#702,.T.);
#700 = VERTEX_POINT('',#701);
#701 = CARTESIAN_POINT('',(34.,15.,6.184271928233));
#702 = CIRCLE('',#703,1.55);
#703 = AXIS2_PLACEMENT_3D('',#704,#705,#706);
#704 = CARTESIAN_POINT('',(34.,14.,5.));
#705 = DIRECTION('',(1.,4.4E-16,-0.));
#706 = DIRECTION('',(-4.4E-16,1.,0.));
#707 = ORIENTED_EDGE('',*,*,#708,.T.);
#708 = EDGE_CURVE('',#700,#508,#709,.T.);
#709 = LINE('',#710,#711);
#710 = CARTESIAN_POINT('',(34.,15.,0.));
#711 = VECTOR('',#712,1.);
#712 = DIRECTION('',(0.,-0.,1.));
#713 = ORIENTED_EDGE('',*,*,#507,.T.);
#714 = ORIENTED_EDGE('',*,*,#715,.F.);
#715 = EDGE_CURVE('',#229,#499,#716,.T.);
#716 = LINE('',#717,#718);
#717 = CARTESIAN_POINT('',(34.,29.8,0.));
#718 = VECTOR('',#719,1.);
#719 = DIRECTION('',(0.,0.,1.));
#720 = PLANE('',#721);
#721 = AXIS2_PLACEMENT_3D('',#722,#723,#724);
#722 = CARTESIAN_POINT('',(34.,15.,0.));
#723 = DIRECTION('',(1.,0.,0.));
#724 = DIRECTION('',(0.,-1.,0.));
#725 = ADVANCED_FACE('',(#726),#737,.T.);
#726 = FACE_BOUND('',#727,.T.);
#727 = EDGE_LOOP('',(#728,#729,#730,#731));
#728 = ORIENTED_EDGE('',*,*,#336,.T.);
#729 = ORIENTED_EDGE('',*,*,#715,.T.);
#730 = ORIENTED_EDGE('',*,*,#498,.F.);
#731 = ORIENTED_EDGE('',*,*,#732,.F.);
#732 = EDGE_CURVE('',#329,#491,#733,.T.);
#733 = LINE('',#734,#735);
#734 = CARTESIAN_POINT('',(37.,32.8,0.));
#735 = VECTOR('',#736,1.);
#736 = DIRECTION('',(0.,0.,1.));
#737 = CYLINDRICAL_SURFACE('',#738,3.);
#738 = AXIS2_PLACEMENT_3D('',#739,#740,#741);
#739 = CARTESIAN_POINT('',(37.,29.8,0.));
#740 = DIRECTION('',(0.,0.,1.));
#741 = DIRECTION('',(0.,1.,0.));
#742 = ADVANCED_FACE('',(#743),#754,.F.);
#743 = FACE_BOUND('',#744,.T.);
#744 = EDGE_LOOP('',(#745,#746,#747,#748));
#745 = ORIENTED_EDGE('',*,*,#328,.F.);
#746 = ORIENTED_EDGE('',*,*,#732,.T.);
#747 = ORIENTED_EDGE('',*,*,#490,.T.);
#748 = ORIENTED_EDGE('',*,*,#749,.F.);
#749 = EDGE_CURVE('',#320,#482,#750,.T.);
#750 = LINE('',#751,#752);
#751 = CARTESIAN_POINT('',(97.,32.8,0.));
#752 = VECTOR('',#753,1.);
#753 = DIRECTION('',(0.,0.,1.));
#754 = PLANE('',#755);
#755 = AXIS2_PLACEMENT_3D('',#756,#757,#758);
#756 = CARTESIAN_POINT('',(34.,32.8,0.));
#757 = DIRECTION('',(-0.,-1.,-0.));
#758 = DIRECTION('',(-1.,0.,0.));
#759 = ADVANCED_FACE('',(#760),#771,.T.);
#760 = FACE_BOUND('',#761,.F.);
#761 = EDGE_LOOP('',(#762,#763,#769,#770));
#762 = ORIENTED_EDGE('',*,*,#319,.T.);
#763 = ORIENTED_EDGE('',*,*,#764,.T.);
#764 = EDGE_CURVE('',#312,#474,#765,.T.);
#765 = LINE('',#766,#767);
#766 = CARTESIAN_POINT('',(100.,29.8,0.));
#767 = VECTOR('',#768,1.);
#768 = DIRECTION('',(0.,0.,1.));
#769 = ORIENTED_EDGE('',*,*,#481,.F.);
#770 = ORIENTED_EDGE('',*,*,#749,.F.);
#771 = CYLINDRICAL_SURFACE('',#772,3.);
#772 = AXIS2_PLACEMENT_3D('',#773,#774,#775);
#773 = CARTESIAN_POINT('',(97.,29.8,0.));
#774 = DIRECTION('',(0.,0.,1.));
#775 = DIRECTION('',(0.,1.,0.));
#776 = ADVANCED_FACE('',(#777),#788,.F.);
#777 = FACE_BOUND('',#778,.T.);
#778 = EDGE_LOOP('',(#779,#780,#781,#782));
#779 = ORIENTED_EDGE('',*,*,#311,.F.);
#780 = ORIENTED_EDGE('',*,*,#764,.T.);
#781 = ORIENTED_EDGE('',*,*,#473,.T.);
#782 = ORIENTED_EDGE('',*,*,#783,.F.);
#783 = EDGE_CURVE('',#303,#465,#784,.T.);
#784 = LINE('',#785,#786);
#785 = CARTESIAN_POINT('',(100.,5.8,0.));
#786 = VECTOR('',#787,1.);
#787 = DIRECTION('',(0.,0.,1.));
#788 = PLANE('',#789);
#789 = AXIS2_PLACEMENT_3D('',#790,#791,#792);
#790 = CARTESIAN_POINT('',(100.,32.8,0.));
#791 = DIRECTION('',(-1.,0.,-0.));
#792 = DIRECTION('',(0.,1.,0.));
#793 = ADVANCED_FACE('',(#794),#805,.T.);
#794 = FACE_BOUND('',#795,.F.);
#795 = EDGE_LOOP('',(#796,#797,#803,#804));
#796 = ORIENTED_EDGE('',*,*,#302,.T.);
#797 = ORIENTED_EDGE('',*,*,#798,.T.);
#798 = EDGE_CURVE('',#295,#457,#799,.T.);
#799 = LINE('',#800,#801);
#800 = CARTESIAN_POINT('',(97.,2.8,0.));
#801 = VECTOR('',#802,1.);
#802 = DIRECTION('',(0.,0.,1.));
#803 = ORIENTED_EDGE('',*,*,#464,.F.);
#804 = ORIENTED_EDGE('',*,*,#783,.F.);
#805 = CYLINDRICAL_SURFACE('',#806,3.);
#806 = AXIS2_PLACEMENT_3D('',#807,#808,#809);
#807 = CARTESIAN_POINT('',(97.,5.8,0.));
#808 = DIRECTION('',(0.,0.,1.));
#809 = DIRECTION('',(1.,0.,0.));
#810 = ADVANCED_FACE('',(#811),#822,.F.);
#811 = FACE_BOUND('',#812,.T.);
#812 = EDGE_LOOP('',(#813,#814,#815,#816));
#813 = ORIENTED_EDGE('',*,*,#294,.F.);
#814 = ORIENTED_EDGE('',*,*,#798,.T.);
#815 = ORIENTED_EDGE('',*,*,#456,.T.);
#816 = ORIENTED_EDGE('',*,*,#817,.F.);
#817 = EDGE_CURVE('',#286,#448,#818,.T.);
#818 = LINE('',#819,#820);
#819 = CARTESIAN_POINT('',(93.,2.8,0.));
#820 = VECTOR('',#821,1.);
#821 = DIRECTION('',(0.,0.,1.));
#822 = PLANE('',#823);
#823 = AXIS2_PLACEMENT_3D('',#824,#825,#826);
#824 = CARTESIAN_POINT('',(100.,2.8,0.));
#825 = DIRECTION('',(0.,1.,0.));
#826 = DIRECTION('',(1.,0.,0.));
#827 = ADVANCED_FACE('',(#828),#839,.T.);
#828 = FACE_BOUND('',#829,.T.);
#829 = EDGE_LOOP('',(#830,#831,#832,#833));
#830 = ORIENTED_EDGE('',*,*,#285,.T.);
#831 = ORIENTED_EDGE('',*,*,#817,.T.);
#832 = ORIENTED_EDGE('',*,*,#447,.F.);
#833 = ORIENTED_EDGE('',*,*,#834,.F.);
#834 = EDGE_CURVE('',#278,#440,#835,.T.);
#835 = LINE('',#836,#837);
#836 = CARTESIAN_POINT('',(90.,5.8,0.));
#837 = VECTOR('',#838,1.);
#838 = DIRECTION('',(0.,0.,1.));
#839 = CYLINDRICAL_SURFACE('',#840,3.);
#840 = AXIS2_PLACEMENT_3D('',#841,#842,#843);
#841 = CARTESIAN_POINT('',(93.,5.8,0.));
#842 = DIRECTION('',(0.,0.,1.));
#843 = DIRECTION('',(-1.,0.,0.));
#844 = ADVANCED_FACE('',(#845),#856,.F.);
#845 = FACE_BOUND('',#846,.T.);
#846 = EDGE_LOOP('',(#847,#848,#849,#850));
#847 = ORIENTED_EDGE('',*,*,#277,.F.);
#848 = ORIENTED_EDGE('',*,*,#834,.T.);
#849 = ORIENTED_EDGE('',*,*,#439,.T.);
#850 = ORIENTED_EDGE('',*,*,#851,.F.);
#851 = EDGE_CURVE('',#270,#432,#852,.T.);
#852 = LINE('',#853,#854);
#853 = CARTESIAN_POINT('',(90.,22.8,0.));
#854 = VECTOR('',#855,1.);
#855 = DIRECTION('',(0.,-0.,1.));
#856 = PLANE('',#857);
#857 = AXIS2_PLACEMENT_3D('',#858,#859,#860);
#858 = CARTESIAN_POINT('',(90.,2.8,0.));
#859 = DIRECTION('',(1.,0.,0.));
#860 = DIRECTION('',(0.,-1.,0.));
#861 = ADVANCED_FACE('',(#862),#873,.F.);
#862 = FACE_BOUND('',#863,.T.);
#863 = EDGE_LOOP('',(#864,#865,#866,#872));
#864 = ORIENTED_EDGE('',*,*,#851,.T.);
#865 = ORIENTED_EDGE('',*,*,#431,.T.);
#866 = ORIENTED_EDGE('',*,*,#867,.F.);
#867 = EDGE_CURVE('',#262,#424,#868,.T.);
#868 = LINE('',#869,#870);
#869 = CARTESIAN_POINT('',(44.,22.8,0.));
#870 = VECTOR('',#871,1.);
#871 = DIRECTION('',(0.,-0.,1.));
#872 = ORIENTED_EDGE('',*,*,#269,.F.);
#873 = PLANE('',#874);
#874 = AXIS2_PLACEMENT_3D('',#875,#876,#877);
#875 = CARTESIAN_POINT('',(90.,22.8,0.));
#876 = DIRECTION('',(0.,1.,0.));
#877 = DIRECTION('',(1.,0.,0.));
#878 = ADVANCED_FACE('',(#879,#885),#896,.F.);
#879 = FACE_BOUND('',#880,.T.);
#880 = EDGE_LOOP('',(#881,#882,#883,#884));
#881 = ORIENTED_EDGE('',*,*,#261,.F.);
#882 = ORIENTED_EDGE('',*,*,#867,.T.);
#883 = ORIENTED_EDGE('',*,*,#423,.T.);
#884 = ORIENTED_EDGE('',*,*,#562,.F.);
#885 = FACE_BOUND('',#886,.T.);
#886 = EDGE_LOOP('',(#887));
#887 = ORIENTED_EDGE('',*,*,#888,.T.);
#888 = EDGE_CURVE('',#889,#889,#891,.T.);
#889 = VERTEX_POINT('',#890);
#890 = CARTESIAN_POINT('',(44.,11.25,5.));
#891 = CIRCLE('',#892,2.75);
#892 = AXIS2_PLACEMENT_3D('',#893,#894,#895);
#893 = CARTESIAN_POINT('',(44.,14.,5.));
#894 = DIRECTION('',(-1.,4.4E-16,0.));
#895 = DIRECTION('',(-4.4E-16,-1.,0.));
#896 = PLANE('',#897);
#897 = AXIS2_PLACEMENT_3D('',#898,#899,#900);
#898 = CARTESIAN_POINT('',(44.,22.8,0.));
#899 = DIRECTION('',(-1.,0.,-0.));
#900 = DIRECTION('',(0.,1.,0.));
#901 = ADVANCED_FACE('',(#902),#913,.T.);
#902 = FACE_BOUND('',#903,.F.);
#903 = EDGE_LOOP('',(#904,#910,#911,#912));
#904 = ORIENTED_EDGE('',*,*,#905,.T.);
#905 = EDGE_CURVE('',#227,#650,#906,.T.);
#906 = LINE('',#907,#908);
#907 = CARTESIAN_POINT('',(34.,15.,-1.67E-15));
#908 = VECTOR('',#909,1.);
#909 = DIRECTION('',(0.,-1.,1.1E-16));
#910 = ORIENTED_EDGE('',*,*,#649,.T.);
#911 = ORIENTED_EDGE('',*,*,#244,.F.);
#912 = ORIENTED_EDGE('',*,*,#236,.F.);
#913 = PLANE('',#914);
#914 = AXIS2_PLACEMENT_3D('',#915,#916,#917);
#915 = CARTESIAN_POINT('',(34.,15.,-3.33E-15));
#916 = DIRECTION('',(-0.,-2.2E-16,-1.));
#917 = DIRECTION('',(-1.,0.,0.));
#918 = ADVANCED_FACE('',(#919),#938,.F.);
#919 = FACE_BOUND('',#920,.T.);
#920 = EDGE_LOOP('',(#921,#930,#936,#937));
#921 = ORIENTED_EDGE('',*,*,#922,.T.);
#922 = EDGE_CURVE('',#923,#923,#925,.T.);
#923 = VERTEX_POINT('',#924);
#924 = CARTESIAN_POINT('',(93.35,7.8,4.5));
#925 = CIRCLE('',#926,1.65);
#926 = AXIS2_PLACEMENT_3D('',#927,#928,#929);
#927 = CARTESIAN_POINT('',(95.,7.8,4.5));
#928 = DIRECTION('',(0.,-1.1E-16,1.));
#929 = DIRECTION('',(-1.,0.,0.));
#930 = ORIENTED_EDGE('',*,*,#931,.T.);
#931 = EDGE_CURVE('',#923,#346,#932,.T.);
#932 = LINE('',#933,#934);
#933 = CARTESIAN_POINT('',(93.35,7.8,10.));
#934 = VECTOR('',#935,1.);
#935 = DIRECTION('',(-0.,0.,-1.));
#936 = ORIENTED_EDGE('',*,*,#345,.F.);
#937 = ORIENTED_EDGE('',*,*,#931,.F.);
#938 = CYLINDRICAL_SURFACE('',#939,1.65);
#939 = AXIS2_PLACEMENT_3D('',#940,#941,#942);
#940 = CARTESIAN_POINT('',(95.,7.8,10.));
#941 = DIRECTION('',(0.,-0.,1.));
#942 = DIRECTION('',(-1.,0.,0.));
#943 = ADVANCED_FACE('',(#944),#963,.F.);
#944 = FACE_BOUND('',#945,.T.);
#945 = EDGE_LOOP('',(#946,#955,#961,#962));
#946 = ORIENTED_EDGE('',*,*,#947,.T.);
#947 = EDGE_CURVE('',#948,#948,#950,.T.);
#948 = VERTEX_POINT('',#949);
#949 = CARTESIAN_POINT('',(93.35,17.8,4.5));
#950 = CIRCLE('',#951,1.65);
#951 = AXIS2_PLACEMENT_3D('',#952,#953,#954);
#952 = CARTESIAN_POINT('',(95.,17.8,4.5));
#953 = DIRECTION('',(0.,-1.1E-16,1.));
#954 = DIRECTION('',(-1.,0.,0.));
#955 = ORIENTED_EDGE('',*,*,#956,.T.);
#956 = EDGE_CURVE('',#948,#357,#957,.T.);
#957 = LINE('',#958,#959);
#958 = CARTESIAN_POINT('',(93.35,17.8,10.));
#959 = VECTOR('',#960,1.);
#960 = DIRECTION('',(-0.,0.,-1.));
#961 = ORIENTED_EDGE('',*,*,#356,.F.);
#962 = ORIENTED_EDGE('',*,*,#956,.F.);
#963 = CYLINDRICAL_SURFACE('',#964,1.65);
#964 = AXIS2_PLACEMENT_3D('',#965,#966,#967);
#965 = CARTESIAN_POINT('',(95.,17.8,10.));
#966 = DIRECTION('',(0.,-0.,1.));
#967 = DIRECTION('',(-1.,0.,0.));
#968 = ADVANCED_FACE('',(#969,#1088,#1099),#1110,.T.);
#969 = FACE_BOUND('',#970,.T.);
#970 = EDGE_LOOP('',(#971,#981,#990,#998,#1006,#1012,#1013,#1014,#1023,
    #1031,#1039,#1047,#1056,#1064,#1073,#1081));
#971 = ORIENTED_EDGE('',*,*,#972,.F.);
#972 = EDGE_CURVE('',#973,#975,#977,.T.);
#973 = VERTEX_POINT('',#974);
#974 = CARTESIAN_POINT('',(-37.,32.8,0.));
#975 = VERTEX_POINT('',#976);
#976 = CARTESIAN_POINT('',(-97.,32.8,0.));
#977 = LINE('',#978,#979);
#978 = CARTESIAN_POINT('',(-34.,32.8,0.));
#979 = VECTOR('',#980,1.);
#980 = DIRECTION('',(-1.,0.,0.));
#981 = ORIENTED_EDGE('',*,*,#982,.T.);
#982 = EDGE_CURVE('',#973,#983,#985,.T.);
#983 = VERTEX_POINT('',#984);
#984 = CARTESIAN_POINT('',(-34.,29.8,0.));
#985 = CIRCLE('',#986,3.);
#986 = AXIS2_PLACEMENT_3D('',#987,#988,#989);
#987 = CARTESIAN_POINT('',(-37.,29.8,0.));
#988 = DIRECTION('',(-0.,-0.,-1.));
#989 = DIRECTION('',(0.,-1.,0.));
#990 = ORIENTED_EDGE('',*,*,#991,.F.);
#991 = EDGE_CURVE('',#992,#983,#994,.T.);
#992 = VERTEX_POINT('',#993);
#993 = CARTESIAN_POINT('',(-34.,15.,-3.E-15));
#994 = LINE('',#995,#996);
#995 = CARTESIAN_POINT('',(-34.,15.,0.));
#996 = VECTOR('',#997,1.);
#997 = DIRECTION('',(0.,1.,0.));
#998 = ORIENTED_EDGE('',*,*,#999,.T.);
#999 = EDGE_CURVE('',#992,#1000,#1002,.T.);
#1000 = VERTEX_POINT('',#1001);
#1001 = CARTESIAN_POINT('',(-39.2,15.,-3.E-15));
#1002 = LINE('',#1003,#1004);
#1003 = CARTESIAN_POINT('',(0.,15.,0.));
#1004 = VECTOR('',#1005,1.);
#1005 = DIRECTION('',(-1.,0.,0.));
#1006 = ORIENTED_EDGE('',*,*,#1007,.T.);
#1007 = EDGE_CURVE('',#1000,#577,#1008,.T.);
#1008 = LINE('',#1009,#1010);
#1009 = CARTESIAN_POINT('',(-39.2,15.,0.));
#1010 = VECTOR('',#1011,1.);
#1011 = DIRECTION('',(0.,-1.,0.));
#1012 = ORIENTED_EDGE('',*,*,#576,.T.);
#1013 = ORIENTED_EDGE('',*,*,#373,.F.);
#1014 = ORIENTED_EDGE('',*,*,#1015,.F.);
#1015 = EDGE_CURVE('',#1016,#374,#1018,.T.);
#1016 = VERTEX_POINT('',#1017);
#1017 = CARTESIAN_POINT('',(-44.,3.,0.));
#1018 = CIRCLE('',#1019,3.);
#1019 = AXIS2_PLACEMENT_3D('',#1020,#1021,#1022);
#1020 = CARTESIAN_POINT('',(-41.,3.,0.));
#1021 = DIRECTION('',(-0.,0.,1.));
#1022 = DIRECTION('',(0.,-1.,0.));
#1023 = ORIENTED_EDGE('',*,*,#1024,.F.);
#1024 = EDGE_CURVE('',#1025,#1016,#1027,.T.);
#1025 = VERTEX_POINT('',#1026);
#1026 = CARTESIAN_POINT('',(-44.,22.8,0.));
#1027 = LINE('',#1028,#1029);
#1028 = CARTESIAN_POINT('',(-44.,22.8,0.));
#1029 = VECTOR('',#1030,1.);
#1030 = DIRECTION('',(0.,-1.,0.));
#1031 = ORIENTED_EDGE('',*,*,#1032,.F.);
#1032 = EDGE_CURVE('',#1033,#1025,#1035,.T.);
#1033 = VERTEX_POINT('',#1034);
#1034 = CARTESIAN_POINT('',(-90.,22.8,0.));
#1035 = LINE('',#1036,#1037);
#1036 = CARTESIAN_POINT('',(-90.,22.8,0.));
#1037 = VECTOR('',#1038,1.);
#1038 = DIRECTION('',(1.,0.,0.));
#1039 = ORIENTED_EDGE('',*,*,#1040,.F.);
#1040 = EDGE_CURVE('',#1041,#1033,#1043,.T.);
#1041 = VERTEX_POINT('',#1042);
#1042 = CARTESIAN_POINT('',(-90.,5.8,0.));
#1043 = LINE('',#1044,#1045);
#1044 = CARTESIAN_POINT('',(-90.,2.8,0.));
#1045 = VECTOR('',#1046,1.);
#1046 = DIRECTION('',(0.,1.,0.));
#1047 = ORIENTED_EDGE('',*,*,#1048,.T.);
#1048 = EDGE_CURVE('',#1041,#1049,#1051,.T.);
#1049 = VERTEX_POINT('',#1050);
#1050 = CARTESIAN_POINT('',(-93.,2.8,0.));
#1051 = CIRCLE('',#1052,3.);
#1052 = AXIS2_PLACEMENT_3D('',#1053,#1054,#1055);
#1053 = CARTESIAN_POINT('',(-93.,5.8,0.));
#1054 = DIRECTION('',(-0.,-0.,-1.));
#1055 = DIRECTION('',(0.,-1.,0.));
#1056 = ORIENTED_EDGE('',*,*,#1057,.F.);
#1057 = EDGE_CURVE('',#1058,#1049,#1060,.T.);
#1058 = VERTEX_POINT('',#1059);
#1059 = CARTESIAN_POINT('',(-97.,2.8,0.));
#1060 = LINE('',#1061,#1062);
#1061 = CARTESIAN_POINT('',(-100.,2.8,0.));
#1062 = VECTOR('',#1063,1.);
#1063 = DIRECTION('',(1.,0.,0.));
#1064 = ORIENTED_EDGE('',*,*,#1065,.F.);
#1065 = EDGE_CURVE('',#1066,#1058,#1068,.T.);
#1066 = VERTEX_POINT('',#1067);
#1067 = CARTESIAN_POINT('',(-100.,5.8,0.));
#1068 = CIRCLE('',#1069,3.);
#1069 = AXIS2_PLACEMENT_3D('',#1070,#1071,#1072);
#1070 = CARTESIAN_POINT('',(-97.,5.8,0.));
#1071 = DIRECTION('',(-0.,0.,1.));
#1072 = DIRECTION('',(0.,-1.,0.));
#1073 = ORIENTED_EDGE('',*,*,#1074,.F.);
#1074 = EDGE_CURVE('',#1075,#1066,#1077,.T.);
#1075 = VERTEX_POINT('',#1076);
#1076 = CARTESIAN_POINT('',(-100.,29.8,0.));
#1077 = LINE('',#1078,#1079);
#1078 = CARTESIAN_POINT('',(-100.,32.8,0.));
#1079 = VECTOR('',#1080,1.);
#1080 = DIRECTION('',(0.,-1.,0.));
#1081 = ORIENTED_EDGE('',*,*,#1082,.F.);
#1082 = EDGE_CURVE('',#975,#1075,#1083,.T.);
#1083 = CIRCLE('',#1084,3.);
#1084 = AXIS2_PLACEMENT_3D('',#1085,#1086,#1087);
#1085 = CARTESIAN_POINT('',(-97.,29.8,6.59E-15));
#1086 = DIRECTION('',(-0.,0.,1.));
#1087 = DIRECTION('',(0.,-1.,0.));
#1088 = FACE_BOUND('',#1089,.T.);
#1089 = EDGE_LOOP('',(#1090));
#1090 = ORIENTED_EDGE('',*,*,#1091,.T.);
#1091 = EDGE_CURVE('',#1092,#1092,#1094,.T.);
#1092 = VERTEX_POINT('',#1093);
#1093 = CARTESIAN_POINT('',(-93.35,7.8,0.));
#1094 = CIRCLE('',#1095,1.65);
#1095 = AXIS2_PLACEMENT_3D('',#1096,#1097,#1098);
#1096 = CARTESIAN_POINT('',(-95.,7.8,0.));
#1097 = DIRECTION('',(0.,0.,1.));
#1098 = DIRECTION('',(1.,0.,0.));
#1099 = FACE_BOUND('',#1100,.T.);
#1100 = EDGE_LOOP('',(#1101));
#1101 = ORIENTED_EDGE('',*,*,#1102,.T.);
#1102 = EDGE_CURVE('',#1103,#1103,#1105,.T.);
#1103 = VERTEX_POINT('',#1104);
#1104 = CARTESIAN_POINT('',(-93.35,17.8,0.));
#1105 = CIRCLE('',#1106,1.65);
#1106 = AXIS2_PLACEMENT_3D('',#1107,#1108,#1109);
#1107 = CARTESIAN_POINT('',(-95.,17.8,0.));
#1108 = DIRECTION('',(0.,0.,1.));
#1109 = DIRECTION('',(1.,0.,0.));
#1110 = PLANE('',#1111);
#1111 = AXIS2_PLACEMENT_3D('',#1112,#1113,#1114);
#1112 = CARTESIAN_POINT('',(-53.69240837696,17.471989528796,3.88E-15));
#1113 = DIRECTION('',(0.,2.2E-16,-1.));
#1114 = DIRECTION('',(0.,1.,2.2E-16));
#1115 = ADVANCED_FACE('',(#1116),#1135,.T.);
#1116 = FACE_BOUND('',#1117,.T.);
#1117 = EDGE_LOOP('',(#1118,#1119,#1120,#1129));
#1118 = ORIENTED_EDGE('',*,*,#1015,.T.);
#1119 = ORIENTED_EDGE('',*,*,#381,.T.);
#1120 = ORIENTED_EDGE('',*,*,#1121,.F.);
#1121 = EDGE_CURVE('',#1122,#382,#1124,.T.);
#1122 = VERTEX_POINT('',#1123);
#1123 = CARTESIAN_POINT('',(-44.,3.,10.));
#1124 = CIRCLE('',#1125,3.);
#1125 = AXIS2_PLACEMENT_3D('',#1126,#1127,#1128);
#1126 = CARTESIAN_POINT('',(-41.,3.,10.));
#1127 = DIRECTION('',(-0.,0.,1.));
#1128 = DIRECTION('',(0.,-1.,0.));
#1129 = ORIENTED_EDGE('',*,*,#1130,.F.);
#1130 = EDGE_CURVE('',#1016,#1122,#1131,.T.);
#1131 = LINE('',#1132,#1133);
#1132 = CARTESIAN_POINT('',(-44.,3.,0.));
#1133 = VECTOR('',#1134,1.);
#1134 = DIRECTION('',(0.,0.,1.));
#1135 = CYLINDRICAL_SURFACE('',#1136,3.);
#1136 = AXIS2_PLACEMENT_3D('',#1137,#1138,#1139);
#1137 = CARTESIAN_POINT('',(-41.,3.,0.));
#1138 = DIRECTION('',(0.,0.,1.));
#1139 = DIRECTION('',(-1.,0.,0.));
#1140 = ADVANCED_FACE('',(#1141,#1252,#1263),#1274,.F.);
#1141 = FACE_BOUND('',#1142,.F.);
#1142 = EDGE_LOOP('',(#1143,#1153,#1162,#1170,#1179,#1187,#1195,#1201,
    #1202,#1203,#1204,#1212,#1220,#1228,#1237,#1245));
#1143 = ORIENTED_EDGE('',*,*,#1144,.F.);
#1144 = EDGE_CURVE('',#1145,#1147,#1149,.T.);
#1145 = VERTEX_POINT('',#1146);
#1146 = CARTESIAN_POINT('',(-100.,29.8,10.));
#1147 = VERTEX_POINT('',#1148);
#1148 = CARTESIAN_POINT('',(-100.,5.8,10.));
#1149 = LINE('',#1150,#1151);
#1150 = CARTESIAN_POINT('',(-100.,32.8,10.));
#1151 = VECTOR('',#1152,1.);
#1152 = DIRECTION('',(0.,-1.,0.));
#1153 = ORIENTED_EDGE('',*,*,#1154,.F.);
#1154 = EDGE_CURVE('',#1155,#1145,#1157,.T.);
#1155 = VERTEX_POINT('',#1156);
#1156 = CARTESIAN_POINT('',(-97.,32.8,10.));
#1157 = CIRCLE('',#1158,3.);
#1158 = AXIS2_PLACEMENT_3D('',#1159,#1160,#1161);
#1159 = CARTESIAN_POINT('',(-97.,29.8,10.));
#1160 = DIRECTION('',(-0.,0.,1.));
#1161 = DIRECTION('',(0.,-1.,0.));
#1162 = ORIENTED_EDGE('',*,*,#1163,.F.);
#1163 = EDGE_CURVE('',#1164,#1155,#1166,.T.);
#1164 = VERTEX_POINT('',#1165);
#1165 = CARTESIAN_POINT('',(-37.,32.8,10.));
#1166 = LINE('',#1167,#1168);
#1167 = CARTESIAN_POINT('',(-34.,32.8,10.));
#1168 = VECTOR('',#1169,1.);
#1169 = DIRECTION('',(-1.,0.,0.));
#1170 = ORIENTED_EDGE('',*,*,#1171,.T.);
#1171 = EDGE_CURVE('',#1164,#1172,#1174,.T.);
#1172 = VERTEX_POINT('',#1173);
#1173 = CARTESIAN_POINT('',(-34.,29.8,10.));
#1174 = CIRCLE('',#1175,3.);
#1175 = AXIS2_PLACEMENT_3D('',#1176,#1177,#1178);
#1176 = CARTESIAN_POINT('',(-37.,29.8,10.));
#1177 = DIRECTION('',(-0.,-0.,-1.));
#1178 = DIRECTION('',(0.,-1.,0.));
#1179 = ORIENTED_EDGE('',*,*,#1180,.F.);
#1180 = EDGE_CURVE('',#1181,#1172,#1183,.T.);
#1181 = VERTEX_POINT('',#1182);
#1182 = CARTESIAN_POINT('',(-34.,15.,10.));
#1183 = LINE('',#1184,#1185);
#1184 = CARTESIAN_POINT('',(-34.,15.,10.));
#1185 = VECTOR('',#1186,1.);
#1186 = DIRECTION('',(0.,1.,0.));
#1187 = ORIENTED_EDGE('',*,*,#1188,.T.);
#1188 = EDGE_CURVE('',#1181,#1189,#1191,.T.);
#1189 = VERTEX_POINT('',#1190);
#1190 = CARTESIAN_POINT('',(-34.,10.,10.));
#1191 = LINE('',#1192,#1193);
#1192 = CARTESIAN_POINT('',(-34.,15.,10.));
#1193 = VECTOR('',#1194,1.);
#1194 = DIRECTION('',(0.,-1.,1.1E-16));
#1195 = ORIENTED_EDGE('',*,*,#1196,.F.);
#1196 = EDGE_CURVE('',#406,#1189,#1197,.T.);
#1197 = LINE('',#1198,#1199);
#1198 = CARTESIAN_POINT('',(0.,10.,10.));
#1199 = VECTOR('',#1200,1.);
#1200 = DIRECTION('',(-1.,0.,0.));
#1201 = ORIENTED_EDGE('',*,*,#405,.F.);
#1202 = ORIENTED_EDGE('',*,*,#389,.F.);
#1203 = ORIENTED_EDGE('',*,*,#1121,.F.);
#1204 = ORIENTED_EDGE('',*,*,#1205,.F.);
#1205 = EDGE_CURVE('',#1206,#1122,#1208,.T.);
#1206 = VERTEX_POINT('',#1207);
#1207 = CARTESIAN_POINT('',(-44.,22.8,10.));
#1208 = LINE('',#1209,#1210);
#1209 = CARTESIAN_POINT('',(-44.,22.8,10.));
#1210 = VECTOR('',#1211,1.);
#1211 = DIRECTION('',(0.,-1.,0.));
#1212 = ORIENTED_EDGE('',*,*,#1213,.F.);
#1213 = EDGE_CURVE('',#1214,#1206,#1216,.T.);
#1214 = VERTEX_POINT('',#1215);
#1215 = CARTESIAN_POINT('',(-90.,22.8,10.));
#1216 = LINE('',#1217,#1218);
#1217 = CARTESIAN_POINT('',(-90.,22.8,10.));
#1218 = VECTOR('',#1219,1.);
#1219 = DIRECTION('',(1.,0.,0.));
#1220 = ORIENTED_EDGE('',*,*,#1221,.F.);
#1221 = EDGE_CURVE('',#1222,#1214,#1224,.T.);
#1222 = VERTEX_POINT('',#1223);
#1223 = CARTESIAN_POINT('',(-90.,5.8,10.));
#1224 = LINE('',#1225,#1226);
#1225 = CARTESIAN_POINT('',(-90.,2.8,10.));
#1226 = VECTOR('',#1227,1.);
#1227 = DIRECTION('',(0.,1.,0.));
#1228 = ORIENTED_EDGE('',*,*,#1229,.T.);
#1229 = EDGE_CURVE('',#1222,#1230,#1232,.T.);
#1230 = VERTEX_POINT('',#1231);
#1231 = CARTESIAN_POINT('',(-93.,2.8,10.));
#1232 = CIRCLE('',#1233,3.);
#1233 = AXIS2_PLACEMENT_3D('',#1234,#1235,#1236);
#1234 = CARTESIAN_POINT('',(-93.,5.8,10.));
#1235 = DIRECTION('',(-0.,-0.,-1.));
#1236 = DIRECTION('',(0.,-1.,0.));
#1237 = ORIENTED_EDGE('',*,*,#1238,.F.);
#1238 = EDGE_CURVE('',#1239,#1230,#1241,.T.);
#1239 = VERTEX_POINT('',#1240);
#1240 = CARTESIAN_POINT('',(-97.,2.8,10.));
#1241 = LINE('',#1242,#1243);
#1242 = CARTESIAN_POINT('',(-100.,2.8,10.));
#1243 = VECTOR('',#1244,1.);
#1244 = DIRECTION('',(1.,0.,0.));
#1245 = ORIENTED_EDGE('',*,*,#1246,.F.);
#1246 = EDGE_CURVE('',#1147,#1239,#1247,.T.);
#1247 = CIRCLE('',#1248,3.);
#1248 = AXIS2_PLACEMENT_3D('',#1249,#1250,#1251);
#1249 = CARTESIAN_POINT('',(-97.,5.8,10.));
#1250 = DIRECTION('',(-0.,0.,1.));
#1251 = DIRECTION('',(0.,-1.,0.));
#1252 = FACE_BOUND('',#1253,.F.);
#1253 = EDGE_LOOP('',(#1254));
#1254 = ORIENTED_EDGE('',*,*,#1255,.T.);
#1255 = EDGE_CURVE('',#1256,#1256,#1258,.T.);
#1256 = VERTEX_POINT('',#1257);
#1257 = CARTESIAN_POINT('',(-91.5,7.8,10.));
#1258 = CIRCLE('',#1259,3.5);
#1259 = AXIS2_PLACEMENT_3D('',#1260,#1261,#1262);
#1260 = CARTESIAN_POINT('',(-95.,7.8,10.));
#1261 = DIRECTION('',(0.,0.,1.));
#1262 = DIRECTION('',(1.,0.,0.));
#1263 = FACE_BOUND('',#1264,.F.);
#1264 = EDGE_LOOP('',(#1265));
#1265 = ORIENTED_EDGE('',*,*,#1266,.T.);
#1266 = EDGE_CURVE('',#1267,#1267,#1269,.T.);
#1267 = VERTEX_POINT('',#1268);
#1268 = CARTESIAN_POINT('',(-91.5,17.8,10.));
#1269 = CIRCLE('',#1270,3.5);
#1270 = AXIS2_PLACEMENT_3D('',#1271,#1272,#1273);
#1271 = CARTESIAN_POINT('',(-95.,17.8,10.));
#1272 = DIRECTION('',(0.,0.,1.));
#1273 = DIRECTION('',(1.,0.,0.));
#1274 = PLANE('',#1275);
#1275 = AXIS2_PLACEMENT_3D('',#1276,#1277,#1278);
#1276 = CARTESIAN_POINT('',(-53.69240837696,17.471989528796,10.));
#1277 = DIRECTION('',(0.,2.2E-16,-1.));
#1278 = DIRECTION('',(0.,1.,2.2E-16));
#1279 = ADVANCED_FACE('',(#1280),#1296,.F.);
#1280 = FACE_BOUND('',#1281,.T.);
#1281 = EDGE_LOOP('',(#1282,#1288,#1289,#1295));
#1282 = ORIENTED_EDGE('',*,*,#1283,.T.);
#1283 = EDGE_CURVE('',#658,#406,#1284,.T.);
#1284 = LINE('',#1285,#1286);
#1285 = CARTESIAN_POINT('',(0.,10.,1.E-15));
#1286 = VECTOR('',#1287,1.);
#1287 = DIRECTION('',(0.,0.,1.));
#1288 = ORIENTED_EDGE('',*,*,#523,.T.);
#1289 = ORIENTED_EDGE('',*,*,#1290,.F.);
#1290 = EDGE_CURVE('',#650,#516,#1291,.T.);
#1291 = LINE('',#1292,#1293);
#1292 = CARTESIAN_POINT('',(34.,10.,1.E-15));
#1293 = VECTOR('',#1294,1.);
#1294 = DIRECTION('',(0.,0.,1.));
#1295 = ORIENTED_EDGE('',*,*,#657,.F.);
#1296 = PLANE('',#1297);
#1297 = AXIS2_PLACEMENT_3D('',#1298,#1299,#1300);
#1298 = CARTESIAN_POINT('',(0.,10.,1.E-15));
#1299 = DIRECTION('',(-0.,-1.,-0.));
#1300 = DIRECTION('',(-1.,0.,0.));
#1301 = ADVANCED_FACE('',(#1302),#1316,.F.);
#1302 = FACE_BOUND('',#1303,.T.);
#1303 = EDGE_LOOP('',(#1304,#1305,#1306,#1307,#1308,#1309));
#1304 = ORIENTED_EDGE('',*,*,#682,.F.);
#1305 = ORIENTED_EDGE('',*,*,#905,.T.);
#1306 = ORIENTED_EDGE('',*,*,#1290,.T.);
#1307 = ORIENTED_EDGE('',*,*,#515,.F.);
#1308 = ORIENTED_EDGE('',*,*,#708,.F.);
#1309 = ORIENTED_EDGE('',*,*,#1310,.T.);
#1310 = EDGE_CURVE('',#700,#683,#1311,.T.);
#1311 = CIRCLE('',#1312,1.55);
#1312 = AXIS2_PLACEMENT_3D('',#1313,#1314,#1315);
#1313 = CARTESIAN_POINT('',(34.,14.,5.));
#1314 = DIRECTION('',(1.,4.4E-16,-0.));
#1315 = DIRECTION('',(-4.4E-16,1.,0.));
#1316 = PLANE('',#1317);
#1317 = AXIS2_PLACEMENT_3D('',#1318,#1319,#1320);
#1318 = CARTESIAN_POINT('',(34.,15.,-1.67E-15));
#1319 = DIRECTION('',(1.,0.,0.));
#1320 = DIRECTION('',(-0.,-1.1E-16,-1.));
#1321 = ADVANCED_FACE('',(#1322),#1341,.F.);
#1322 = FACE_BOUND('',#1323,.T.);
#1323 = EDGE_LOOP('',(#1324,#1332,#1339,#1340));
#1324 = ORIENTED_EDGE('',*,*,#1325,.T.);
#1325 = EDGE_CURVE('',#532,#1326,#1328,.T.);
#1326 = VERTEX_POINT('',#1327);
#1327 = CARTESIAN_POINT('',(91.5,7.8,4.5));
#1328 = LINE('',#1329,#1330);
#1329 = CARTESIAN_POINT('',(91.5,7.8,10.));
#1330 = VECTOR('',#1331,1.);
#1331 = DIRECTION('',(-0.,0.,-1.));
#1332 = ORIENTED_EDGE('',*,*,#1333,.T.);
#1333 = EDGE_CURVE('',#1326,#1326,#1334,.T.);
#1334 = CIRCLE('',#1335,3.5);
#1335 = AXIS2_PLACEMENT_3D('',#1336,#1337,#1338);
#1336 = CARTESIAN_POINT('',(95.,7.8,4.5));
#1337 = DIRECTION('',(0.,0.,-1.));
#1338 = DIRECTION('',(-1.,-0.,-0.));
#1339 = ORIENTED_EDGE('',*,*,#1325,.F.);
#1340 = ORIENTED_EDGE('',*,*,#531,.F.);
#1341 = CYLINDRICAL_SURFACE('',#1342,3.5);
#1342 = AXIS2_PLACEMENT_3D('',#1343,#1344,#1345);
#1343 = CARTESIAN_POINT('',(95.,7.8,10.));
#1344 = DIRECTION('',(0.,-0.,1.));
#1345 = DIRECTION('',(-1.,0.,0.));
#1346 = ADVANCED_FACE('',(#1347),#1366,.F.);
#1347 = FACE_BOUND('',#1348,.T.);
#1348 = EDGE_LOOP('',(#1349,#1357,#1364,#1365));
#1349 = ORIENTED_EDGE('',*,*,#1350,.T.);
#1350 = EDGE_CURVE('',#543,#1351,#1353,.T.);
#1351 = VERTEX_POINT('',#1352);
#1352 = CARTESIAN_POINT('',(91.5,17.8,4.5));
#1353 = LINE('',#1354,#1355);
#1354 = CARTESIAN_POINT('',(91.5,17.8,10.));
#1355 = VECTOR('',#1356,1.);
#1356 = DIRECTION('',(-0.,0.,-1.));
#1357 = ORIENTED_EDGE('',*,*,#1358,.T.);
#1358 = EDGE_CURVE('',#1351,#1351,#1359,.T.);
#1359 = CIRCLE('',#1360,3.5);
#1360 = AXIS2_PLACEMENT_3D('',#1361,#1362,#1363);
#1361 = CARTESIAN_POINT('',(95.,17.8,4.5));
#1362 = DIRECTION('',(0.,0.,-1.));
#1363 = DIRECTION('',(-1.,-0.,-0.));
#1364 = ORIENTED_EDGE('',*,*,#1350,.F.);
#1365 = ORIENTED_EDGE('',*,*,#542,.F.);
#1366 = CYLINDRICAL_SURFACE('',#1367,3.5);
#1367 = AXIS2_PLACEMENT_3D('',#1368,#1369,#1370);
#1368 = CARTESIAN_POINT('',(95.,17.8,10.));
#1369 = DIRECTION('',(0.,-0.,1.));
#1370 = DIRECTION('',(-1.,0.,0.));
#1371 = ADVANCED_FACE('',(#1372),#1392,.T.);
#1372 = FACE_BOUND('',#1373,.T.);
#1373 = EDGE_LOOP('',(#1374,#1375,#1383,#1389,#1390,#1391));
#1374 = ORIENTED_EDGE('',*,*,#584,.F.);
#1375 = ORIENTED_EDGE('',*,*,#1376,.F.);
#1376 = EDGE_CURVE('',#1377,#577,#1379,.T.);
#1377 = VERTEX_POINT('',#1378);
#1378 = CARTESIAN_POINT('',(-34.,10.,-2.E-15));
#1379 = LINE('',#1380,#1381);
#1380 = CARTESIAN_POINT('',(0.,10.,1.E-15));
#1381 = VECTOR('',#1382,1.);
#1382 = DIRECTION('',(-1.,0.,0.));
#1383 = ORIENTED_EDGE('',*,*,#1384,.F.);
#1384 = EDGE_CURVE('',#658,#1377,#1385,.T.);
#1385 = LINE('',#1386,#1387);
#1386 = CARTESIAN_POINT('',(0.,10.,1.E-15));
#1387 = VECTOR('',#1388,1.);
#1388 = DIRECTION('',(-1.,0.,0.));
#1389 = ORIENTED_EDGE('',*,*,#665,.T.);
#1390 = ORIENTED_EDGE('',*,*,#633,.T.);
#1391 = ORIENTED_EDGE('',*,*,#607,.F.);
#1392 = PLANE('',#1393);
#1393 = AXIS2_PLACEMENT_3D('',#1394,#1395,#1396);
#1394 = CARTESIAN_POINT('',(0.,10.,1.E-15));
#1395 = DIRECTION('',(0.,1.,0.));
#1396 = DIRECTION('',(-1.,0.,0.));
#1397 = ADVANCED_FACE('',(#1398),#1419,.F.);
#1398 = FACE_BOUND('',#1399,.T.);
#1399 = EDGE_LOOP('',(#1400,#1408,#1409,#1410,#1411,#1412));
#1400 = ORIENTED_EDGE('',*,*,#1401,.F.);
#1401 = EDGE_CURVE('',#691,#1402,#1404,.T.);
#1402 = VERTEX_POINT('',#1403);
#1403 = CARTESIAN_POINT('',(41.,15.55,5.));
#1404 = LINE('',#1405,#1406);
#1405 = CARTESIAN_POINT('',(34.,15.55,5.));
#1406 = VECTOR('',#1407,1.);
#1407 = DIRECTION('',(1.,2.2E-16,0.));
#1408 = ORIENTED_EDGE('',*,*,#690,.F.);
#1409 = ORIENTED_EDGE('',*,*,#1310,.F.);
#1410 = ORIENTED_EDGE('',*,*,#699,.F.);
#1411 = ORIENTED_EDGE('',*,*,#1401,.T.);
#1412 = ORIENTED_EDGE('',*,*,#1413,.F.);
#1413 = EDGE_CURVE('',#1402,#1402,#1414,.T.);
#1414 = CIRCLE('',#1415,1.55);
#1415 = AXIS2_PLACEMENT_3D('',#1416,#1417,#1418);
#1416 = CARTESIAN_POINT('',(41.,14.,5.));
#1417 = DIRECTION('',(-1.,-2.2E-16,-0.));
#1418 = DIRECTION('',(-2.2E-16,1.,0.));
#1419 = CYLINDRICAL_SURFACE('',#1420,1.55);
#1420 = AXIS2_PLACEMENT_3D('',#1421,#1422,#1423);
#1421 = CARTESIAN_POINT('',(34.,14.,5.));
#1422 = DIRECTION('',(-1.,-2.2E-16,0.));
#1423 = DIRECTION('',(-2.2E-16,1.,-1.1E-16));
#1424 = ADVANCED_FACE('',(#1425),#1444,.F.);
#1425 = FACE_BOUND('',#1426,.T.);
#1426 = EDGE_LOOP('',(#1427,#1435,#1442,#1443));
#1427 = ORIENTED_EDGE('',*,*,#1428,.T.);
#1428 = EDGE_CURVE('',#889,#1429,#1431,.T.);
#1429 = VERTEX_POINT('',#1430);
#1430 = CARTESIAN_POINT('',(41.,11.25,5.));
#1431 = LINE('',#1432,#1433);
#1432 = CARTESIAN_POINT('',(44.,11.25,5.));
#1433 = VECTOR('',#1434,1.);
#1434 = DIRECTION('',(-1.,2.2E-16,0.));
#1435 = ORIENTED_EDGE('',*,*,#1436,.T.);
#1436 = EDGE_CURVE('',#1429,#1429,#1437,.T.);
#1437 = CIRCLE('',#1438,2.75);
#1438 = AXIS2_PLACEMENT_3D('',#1439,#1440,#1441);
#1439 = CARTESIAN_POINT('',(41.,14.,5.));
#1440 = DIRECTION('',(-1.,4.4E-16,0.));
#1441 = DIRECTION('',(-4.4E-16,-1.,0.));
#1442 = ORIENTED_EDGE('',*,*,#1428,.F.);
#1443 = ORIENTED_EDGE('',*,*,#888,.F.);
#1444 = CYLINDRICAL_SURFACE('',#1445,2.75);
#1445 = AXIS2_PLACEMENT_3D('',#1446,#1447,#1448);
#1446 = CARTESIAN_POINT('',(44.,14.,5.));
#1447 = DIRECTION('',(1.,-2.2E-16,0.));
#1448 = DIRECTION('',(-2.2E-16,-1.,1.1E-16));
#1449 = ADVANCED_FACE('',(#1450,#1453),#1456,.F.);
#1450 = FACE_BOUND('',#1451,.T.);
#1451 = EDGE_LOOP('',(#1452));
#1452 = ORIENTED_EDGE('',*,*,#1333,.F.);
#1453 = FACE_BOUND('',#1454,.T.);
#1454 = EDGE_LOOP('',(#1455));
#1455 = ORIENTED_EDGE('',*,*,#922,.F.);
#1456 = PLANE('',#1457);
#1457 = AXIS2_PLACEMENT_3D('',#1458,#1459,#1460);
#1458 = CARTESIAN_POINT('',(95.,12.8,4.5));
#1459 = DIRECTION('',(8.E-17,2.2E-16,-1.));
#1460 = DIRECTION('',(0.,-1.,-2.2E-16));
#1461 = ADVANCED_FACE('',(#1462,#1465),#1468,.F.);
#1462 = FACE_BOUND('',#1463,.T.);
#1463 = EDGE_LOOP('',(#1464));
#1464 = ORIENTED_EDGE('',*,*,#1358,.F.);
#1465 = FACE_BOUND('',#1466,.T.);
#1466 = EDGE_LOOP('',(#1467));
#1467 = ORIENTED_EDGE('',*,*,#947,.F.);
#1468 = PLANE('',#1469);
#1469 = AXIS2_PLACEMENT_3D('',#1470,#1471,#1472);
#1470 = CARTESIAN_POINT('',(95.,12.8,4.5));
#1471 = DIRECTION('',(8.E-17,2.2E-16,-1.));
#1472 = DIRECTION('',(0.,-1.,-2.2E-16));
#1473 = ADVANCED_FACE('',(#1474),#1490,.F.);
#1474 = FACE_BOUND('',#1475,.F.);
#1475 = EDGE_LOOP('',(#1476,#1477,#1483,#1484));
#1476 = ORIENTED_EDGE('',*,*,#972,.F.);
#1477 = ORIENTED_EDGE('',*,*,#1478,.T.);
#1478 = EDGE_CURVE('',#973,#1164,#1479,.T.);
#1479 = LINE('',#1480,#1481);
#1480 = CARTESIAN_POINT('',(-37.,32.8,0.));
#1481 = VECTOR('',#1482,1.);
#1482 = DIRECTION('',(0.,0.,1.));
#1483 = ORIENTED_EDGE('',*,*,#1163,.T.);
#1484 = ORIENTED_EDGE('',*,*,#1485,.F.);
#1485 = EDGE_CURVE('',#975,#1155,#1486,.T.);
#1486 = LINE('',#1487,#1488);
#1487 = CARTESIAN_POINT('',(-97.,32.8,0.));
#1488 = VECTOR('',#1489,1.);
#1489 = DIRECTION('',(0.,0.,1.));
#1490 = PLANE('',#1491);
#1491 = AXIS2_PLACEMENT_3D('',#1492,#1493,#1494);
#1492 = CARTESIAN_POINT('',(-34.,32.8,0.));
#1493 = DIRECTION('',(0.,-1.,0.));
#1494 = DIRECTION('',(-1.,0.,0.));
#1495 = ADVANCED_FACE('',(#1496),#1507,.T.);
#1496 = FACE_BOUND('',#1497,.T.);
#1497 = EDGE_LOOP('',(#1498,#1499,#1505,#1506));
#1498 = ORIENTED_EDGE('',*,*,#1082,.T.);
#1499 = ORIENTED_EDGE('',*,*,#1500,.T.);
#1500 = EDGE_CURVE('',#1075,#1145,#1501,.T.);
#1501 = LINE('',#1502,#1503);
#1502 = CARTESIAN_POINT('',(-100.,29.8,0.));
#1503 = VECTOR('',#1504,1.);
#1504 = DIRECTION('',(0.,0.,1.));
#1505 = ORIENTED_EDGE('',*,*,#1154,.F.);
#1506 = ORIENTED_EDGE('',*,*,#1485,.F.);
#1507 = CYLINDRICAL_SURFACE('',#1508,3.);
#1508 = AXIS2_PLACEMENT_3D('',#1509,#1510,#1511);
#1509 = CARTESIAN_POINT('',(-97.,29.8,0.));
#1510 = DIRECTION('',(0.,0.,1.));
#1511 = DIRECTION('',(0.,1.,0.));
#1512 = ADVANCED_FACE('',(#1513),#1524,.T.);
#1513 = FACE_BOUND('',#1514,.F.);
#1514 = EDGE_LOOP('',(#1515,#1516,#1522,#1523));
#1515 = ORIENTED_EDGE('',*,*,#982,.T.);
#1516 = ORIENTED_EDGE('',*,*,#1517,.T.);
#1517 = EDGE_CURVE('',#983,#1172,#1518,.T.);
#1518 = LINE('',#1519,#1520);
#1519 = CARTESIAN_POINT('',(-34.,29.8,0.));
#1520 = VECTOR('',#1521,1.);
#1521 = DIRECTION('',(0.,0.,1.));
#1522 = ORIENTED_EDGE('',*,*,#1171,.F.);
#1523 = ORIENTED_EDGE('',*,*,#1478,.F.);
#1524 = CYLINDRICAL_SURFACE('',#1525,3.);
#1525 = AXIS2_PLACEMENT_3D('',#1526,#1527,#1528);
#1526 = CARTESIAN_POINT('',(-37.,29.8,0.));
#1527 = DIRECTION('',(0.,0.,1.));
#1528 = DIRECTION('',(0.,1.,0.));
#1529 = ADVANCED_FACE('',(#1530),#1541,.F.);
#1530 = FACE_BOUND('',#1531,.F.);
#1531 = EDGE_LOOP('',(#1532,#1533,#1534,#1535));
#1532 = ORIENTED_EDGE('',*,*,#1074,.F.);
#1533 = ORIENTED_EDGE('',*,*,#1500,.T.);
#1534 = ORIENTED_EDGE('',*,*,#1144,.T.);
#1535 = ORIENTED_EDGE('',*,*,#1536,.F.);
#1536 = EDGE_CURVE('',#1066,#1147,#1537,.T.);
#1537 = LINE('',#1538,#1539);
#1538 = CARTESIAN_POINT('',(-100.,5.8,0.));
#1539 = VECTOR('',#1540,1.);
#1540 = DIRECTION('',(0.,0.,1.));
#1541 = PLANE('',#1542);
#1542 = AXIS2_PLACEMENT_3D('',#1543,#1544,#1545);
#1543 = CARTESIAN_POINT('',(-100.,32.8,0.));
#1544 = DIRECTION('',(1.,0.,0.));
#1545 = DIRECTION('',(0.,-1.,0.));
#1546 = ADVANCED_FACE('',(#1547),#1584,.F.);
#1547 = FACE_BOUND('',#1548,.F.);
#1548 = EDGE_LOOP('',(#1549,#1550,#1558,#1567,#1576,#1582,#1583));
#1549 = ORIENTED_EDGE('',*,*,#991,.F.);
#1550 = ORIENTED_EDGE('',*,*,#1551,.T.);
#1551 = EDGE_CURVE('',#992,#1552,#1554,.T.);
#1552 = VERTEX_POINT('',#1553);
#1553 = CARTESIAN_POINT('',(-34.,15.,3.815728071767));
#1554 = LINE('',#1555,#1556);
#1555 = CARTESIAN_POINT('',(-34.,15.,0.));
#1556 = VECTOR('',#1557,1.);
#1557 = DIRECTION('',(0.,0.,1.));
#1558 = ORIENTED_EDGE('',*,*,#1559,.T.);
#1559 = EDGE_CURVE('',#1552,#1560,#1562,.T.);
#1560 = VERTEX_POINT('',#1561);
#1561 = CARTESIAN_POINT('',(-34.,15.55,5.));
#1562 = CIRCLE('',#1563,1.55);
#1563 = AXIS2_PLACEMENT_3D('',#1564,#1565,#1566);
#1564 = CARTESIAN_POINT('',(-34.,14.,5.));
#1565 = DIRECTION('',(1.,0.,0.));
#1566 = DIRECTION('',(0.,1.,0.));
#1567 = ORIENTED_EDGE('',*,*,#1568,.T.);
#1568 = EDGE_CURVE('',#1560,#1569,#1571,.T.);
#1569 = VERTEX_POINT('',#1570);
#1570 = CARTESIAN_POINT('',(-34.,15.,6.184271928233));
#1571 = CIRCLE('',#1572,1.55);
#1572 = AXIS2_PLACEMENT_3D('',#1573,#1574,#1575);
#1573 = CARTESIAN_POINT('',(-34.,14.,5.));
#1574 = DIRECTION('',(1.,0.,0.));
#1575 = DIRECTION('',(0.,1.,0.));
#1576 = ORIENTED_EDGE('',*,*,#1577,.T.);
#1577 = EDGE_CURVE('',#1569,#1181,#1578,.T.);
#1578 = LINE('',#1579,#1580);
#1579 = CARTESIAN_POINT('',(-34.,15.,0.));
#1580 = VECTOR('',#1581,1.);
#1581 = DIRECTION('',(0.,0.,1.));
#1582 = ORIENTED_EDGE('',*,*,#1180,.T.);
#1583 = ORIENTED_EDGE('',*,*,#1517,.F.);
#1584 = PLANE('',#1585);
#1585 = AXIS2_PLACEMENT_3D('',#1586,#1587,#1588);
#1586 = CARTESIAN_POINT('',(-34.,15.,0.));
#1587 = DIRECTION('',(-1.,0.,0.));
#1588 = DIRECTION('',(0.,1.,0.));
#1589 = ADVANCED_FACE('',(#1590),#1601,.T.);
#1590 = FACE_BOUND('',#1591,.T.);
#1591 = EDGE_LOOP('',(#1592,#1593,#1599,#1600));
#1592 = ORIENTED_EDGE('',*,*,#1065,.T.);
#1593 = ORIENTED_EDGE('',*,*,#1594,.T.);
#1594 = EDGE_CURVE('',#1058,#1239,#1595,.T.);
#1595 = LINE('',#1596,#1597);
#1596 = CARTESIAN_POINT('',(-97.,2.8,0.));
#1597 = VECTOR('',#1598,1.);
#1598 = DIRECTION('',(0.,0.,1.));
#1599 = ORIENTED_EDGE('',*,*,#1246,.F.);
#1600 = ORIENTED_EDGE('',*,*,#1536,.F.);
#1601 = CYLINDRICAL_SURFACE('',#1602,3.);
#1602 = AXIS2_PLACEMENT_3D('',#1603,#1604,#1605);
#1603 = CARTESIAN_POINT('',(-97.,5.8,0.));
#1604 = DIRECTION('',(0.,0.,1.));
#1605 = DIRECTION('',(-1.,0.,0.));
#1606 = ADVANCED_FACE('',(#1607),#1618,.T.);
#1607 = FACE_BOUND('',#1608,.T.);
#1608 = EDGE_LOOP('',(#1609,#1615,#1616,#1617));
#1609 = ORIENTED_EDGE('',*,*,#1610,.T.);
#1610 = EDGE_CURVE('',#992,#1377,#1611,.T.);
#1611 = LINE('',#1612,#1613);
#1612 = CARTESIAN_POINT('',(-34.,15.,-1.67E-15));
#1613 = VECTOR('',#1614,1.);
#1614 = DIRECTION('',(0.,-1.,1.1E-16));
#1615 = ORIENTED_EDGE('',*,*,#1376,.T.);
#1616 = ORIENTED_EDGE('',*,*,#1007,.F.);
#1617 = ORIENTED_EDGE('',*,*,#999,.F.);
#1618 = PLANE('',#1619);
#1619 = AXIS2_PLACEMENT_3D('',#1620,#1621,#1622);
#1620 = CARTESIAN_POINT('',(-34.,15.,-3.33E-15));
#1621 = DIRECTION('',(0.,-2.2E-16,-1.));
#1622 = DIRECTION('',(-1.,0.,0.));
#1623 = ADVANCED_FACE('',(#1624),#1635,.F.);
#1624 = FACE_BOUND('',#1625,.F.);
#1625 = EDGE_LOOP('',(#1626,#1627,#1628,#1629));
#1626 = ORIENTED_EDGE('',*,*,#1057,.F.);
#1627 = ORIENTED_EDGE('',*,*,#1594,.T.);
#1628 = ORIENTED_EDGE('',*,*,#1238,.T.);
#1629 = ORIENTED_EDGE('',*,*,#1630,.F.);
#1630 = EDGE_CURVE('',#1049,#1230,#1631,.T.);
#1631 = LINE('',#1632,#1633);
#1632 = CARTESIAN_POINT('',(-93.,2.8,0.));
#1633 = VECTOR('',#1634,1.);
#1634 = DIRECTION('',(0.,0.,1.));
#1635 = PLANE('',#1636);
#1636 = AXIS2_PLACEMENT_3D('',#1637,#1638,#1639);
#1637 = CARTESIAN_POINT('',(-100.,2.8,0.));
#1638 = DIRECTION('',(0.,1.,0.));
#1639 = DIRECTION('',(1.,0.,0.));
#1640 = ADVANCED_FACE('',(#1641),#1652,.T.);
#1641 = FACE_BOUND('',#1642,.F.);
#1642 = EDGE_LOOP('',(#1643,#1644,#1645,#1646));
#1643 = ORIENTED_EDGE('',*,*,#1048,.T.);
#1644 = ORIENTED_EDGE('',*,*,#1630,.T.);
#1645 = ORIENTED_EDGE('',*,*,#1229,.F.);
#1646 = ORIENTED_EDGE('',*,*,#1647,.F.);
#1647 = EDGE_CURVE('',#1041,#1222,#1648,.T.);
#1648 = LINE('',#1649,#1650);
#1649 = CARTESIAN_POINT('',(-90.,5.8,0.));
#1650 = VECTOR('',#1651,1.);
#1651 = DIRECTION('',(0.,0.,1.));
#1652 = CYLINDRICAL_SURFACE('',#1653,3.);
#1653 = AXIS2_PLACEMENT_3D('',#1654,#1655,#1656);
#1654 = CARTESIAN_POINT('',(-93.,5.8,0.));
#1655 = DIRECTION('',(0.,0.,1.));
#1656 = DIRECTION('',(1.,0.,0.));
#1657 = ADVANCED_FACE('',(#1658),#1669,.F.);
#1658 = FACE_BOUND('',#1659,.F.);
#1659 = EDGE_LOOP('',(#1660,#1661,#1662,#1663));
#1660 = ORIENTED_EDGE('',*,*,#1040,.F.);
#1661 = ORIENTED_EDGE('',*,*,#1647,.T.);
#1662 = ORIENTED_EDGE('',*,*,#1221,.T.);
#1663 = ORIENTED_EDGE('',*,*,#1664,.F.);
#1664 = EDGE_CURVE('',#1033,#1214,#1665,.T.);
#1665 = LINE('',#1666,#1667);
#1666 = CARTESIAN_POINT('',(-90.,22.8,0.));
#1667 = VECTOR('',#1668,1.);
#1668 = DIRECTION('',(0.,0.,1.));
#1669 = PLANE('',#1670);
#1670 = AXIS2_PLACEMENT_3D('',#1671,#1672,#1673);
#1671 = CARTESIAN_POINT('',(-90.,2.8,0.));
#1672 = DIRECTION('',(-1.,0.,0.));
#1673 = DIRECTION('',(0.,1.,0.));
#1674 = ADVANCED_FACE('',(#1675),#1686,.F.);
#1675 = FACE_BOUND('',#1676,.F.);
#1676 = EDGE_LOOP('',(#1677,#1678,#1679,#1685));
#1677 = ORIENTED_EDGE('',*,*,#1664,.T.);
#1678 = ORIENTED_EDGE('',*,*,#1213,.T.);
#1679 = ORIENTED_EDGE('',*,*,#1680,.F.);
#1680 = EDGE_CURVE('',#1025,#1206,#1681,.T.);
#1681 = LINE('',#1682,#1683);
#1682 = CARTESIAN_POINT('',(-44.,22.8,0.));
#1683 = VECTOR('',#1684,1.);
#1684 = DIRECTION('',(0.,0.,1.));
#1685 = ORIENTED_EDGE('',*,*,#1032,.F.);
#1686 = PLANE('',#1687);
#1687 = AXIS2_PLACEMENT_3D('',#1688,#1689,#1690);
#1688 = CARTESIAN_POINT('',(-90.,22.8,0.));
#1689 = DIRECTION('',(0.,1.,0.));
#1690 = DIRECTION('',(1.,0.,0.));
#1691 = ADVANCED_FACE('',(#1692,#1698),#1709,.F.);
#1692 = FACE_BOUND('',#1693,.F.);
#1693 = EDGE_LOOP('',(#1694,#1695,#1696,#1697));
#1694 = ORIENTED_EDGE('',*,*,#1024,.F.);
#1695 = ORIENTED_EDGE('',*,*,#1680,.T.);
#1696 = ORIENTED_EDGE('',*,*,#1205,.T.);
#1697 = ORIENTED_EDGE('',*,*,#1130,.F.);
#1698 = FACE_BOUND('',#1699,.F.);
#1699 = EDGE_LOOP('',(#1700));
#1700 = ORIENTED_EDGE('',*,*,#1701,.T.);
#1701 = EDGE_CURVE('',#1702,#1702,#1704,.T.);
#1702 = VERTEX_POINT('',#1703);
#1703 = CARTESIAN_POINT('',(-44.,11.25,5.));
#1704 = CIRCLE('',#1705,2.75);
#1705 = AXIS2_PLACEMENT_3D('',#1706,#1707,#1708);
#1706 = CARTESIAN_POINT('',(-44.,14.,5.));
#1707 = DIRECTION('',(-1.,0.,0.));
#1708 = DIRECTION('',(0.,-1.,0.));
#1709 = PLANE('',#1710);
#1710 = AXIS2_PLACEMENT_3D('',#1711,#1712,#1713);
#1711 = CARTESIAN_POINT('',(-44.,22.8,0.));
#1712 = DIRECTION('',(1.,0.,0.));
#1713 = DIRECTION('',(0.,-1.,0.));
#1714 = ADVANCED_FACE('',(#1715),#1734,.F.);
#1715 = FACE_BOUND('',#1716,.F.);
#1716 = EDGE_LOOP('',(#1717,#1726,#1732,#1733));
#1717 = ORIENTED_EDGE('',*,*,#1718,.F.);
#1718 = EDGE_CURVE('',#1719,#1719,#1721,.T.);
#1719 = VERTEX_POINT('',#1720);
#1720 = CARTESIAN_POINT('',(-93.35,7.8,4.5));
#1721 = CIRCLE('',#1722,1.65);
#1722 = AXIS2_PLACEMENT_3D('',#1723,#1724,#1725);
#1723 = CARTESIAN_POINT('',(-95.,7.8,4.5));
#1724 = DIRECTION('',(0.,0.,1.));
#1725 = DIRECTION('',(1.,0.,0.));
#1726 = ORIENTED_EDGE('',*,*,#1727,.T.);
#1727 = EDGE_CURVE('',#1719,#1092,#1728,.T.);
#1728 = LINE('',#1729,#1730);
#1729 = CARTESIAN_POINT('',(-93.35,7.8,10.));
#1730 = VECTOR('',#1731,1.);
#1731 = DIRECTION('',(0.,0.,-1.));
#1732 = ORIENTED_EDGE('',*,*,#1091,.T.);
#1733 = ORIENTED_EDGE('',*,*,#1727,.F.);
#1734 = CYLINDRICAL_SURFACE('',#1735,1.65);
#1735 = AXIS2_PLACEMENT_3D('',#1736,#1737,#1738);
#1736 = CARTESIAN_POINT('',(-95.,7.8,10.));
#1737 = DIRECTION('',(0.,0.,1.));
#1738 = DIRECTION('',(1.,0.,0.));
#1739 = ADVANCED_FACE('',(#1740),#1759,.F.);
#1740 = FACE_BOUND('',#1741,.F.);
#1741 = EDGE_LOOP('',(#1742,#1751,#1757,#1758));
#1742 = ORIENTED_EDGE('',*,*,#1743,.F.);
#1743 = EDGE_CURVE('',#1744,#1744,#1746,.T.);
#1744 = VERTEX_POINT('',#1745);
#1745 = CARTESIAN_POINT('',(-93.35,17.8,4.5));
#1746 = CIRCLE('',#1747,1.65);
#1747 = AXIS2_PLACEMENT_3D('',#1748,#1749,#1750);
#1748 = CARTESIAN_POINT('',(-95.,17.8,4.5));
#1749 = DIRECTION('',(0.,0.,1.));
#1750 = DIRECTION('',(1.,0.,0.));
#1751 = ORIENTED_EDGE('',*,*,#1752,.T.);
#1752 = EDGE_CURVE('',#1744,#1103,#1753,.T.);
#1753 = LINE('',#1754,#1755);
#1754 = CARTESIAN_POINT('',(-93.35,17.8,10.));
#1755 = VECTOR('',#1756,1.);
#1756 = DIRECTION('',(0.,0.,-1.));
#1757 = ORIENTED_EDGE('',*,*,#1102,.T.);
#1758 = ORIENTED_EDGE('',*,*,#1752,.F.);
#1759 = CYLINDRICAL_SURFACE('',#1760,1.65);
#1760 = AXIS2_PLACEMENT_3D('',#1761,#1762,#1763);
#1761 = CARTESIAN_POINT('',(-95.,17.8,10.));
#1762 = DIRECTION('',(0.,0.,1.));
#1763 = DIRECTION('',(1.,0.,0.));
#1764 = ADVANCED_FACE('',(#1765),#1776,.F.);
#1765 = FACE_BOUND('',#1766,.F.);
#1766 = EDGE_LOOP('',(#1767,#1768,#1769,#1775));
#1767 = ORIENTED_EDGE('',*,*,#1283,.T.);
#1768 = ORIENTED_EDGE('',*,*,#1196,.T.);
#1769 = ORIENTED_EDGE('',*,*,#1770,.F.);
#1770 = EDGE_CURVE('',#1377,#1189,#1771,.T.);
#1771 = LINE('',#1772,#1773);
#1772 = CARTESIAN_POINT('',(-34.,10.,1.E-15));
#1773 = VECTOR('',#1774,1.);
#1774 = DIRECTION('',(0.,0.,1.));
#1775 = ORIENTED_EDGE('',*,*,#1384,.F.);
#1776 = PLANE('',#1777);
#1777 = AXIS2_PLACEMENT_3D('',#1778,#1779,#1780);
#1778 = CARTESIAN_POINT('',(0.,10.,1.E-15));
#1779 = DIRECTION('',(0.,-1.,0.));
#1780 = DIRECTION('',(-1.,0.,0.));
#1781 = ADVANCED_FACE('',(#1782),#1796,.F.);
#1782 = FACE_BOUND('',#1783,.F.);
#1783 = EDGE_LOOP('',(#1784,#1785,#1786,#1787,#1788,#1789));
#1784 = ORIENTED_EDGE('',*,*,#1551,.F.);
#1785 = ORIENTED_EDGE('',*,*,#1610,.T.);
#1786 = ORIENTED_EDGE('',*,*,#1770,.T.);
#1787 = ORIENTED_EDGE('',*,*,#1188,.F.);
#1788 = ORIENTED_EDGE('',*,*,#1577,.F.);
#1789 = ORIENTED_EDGE('',*,*,#1790,.T.);
#1790 = EDGE_CURVE('',#1569,#1552,#1791,.T.);
#1791 = CIRCLE('',#1792,1.55);
#1792 = AXIS2_PLACEMENT_3D('',#1793,#1794,#1795);
#1793 = CARTESIAN_POINT('',(-34.,14.,5.));
#1794 = DIRECTION('',(1.,0.,0.));
#1795 = DIRECTION('',(0.,1.,0.));
#1796 = PLANE('',#1797);
#1797 = AXIS2_PLACEMENT_3D('',#1798,#1799,#1800);
#1798 = CARTESIAN_POINT('',(-34.,15.,-1.67E-15));
#1799 = DIRECTION('',(-1.,0.,0.));
#1800 = DIRECTION('',(0.,1.1E-16,1.));
#1801 = ADVANCED_FACE('',(#1802),#1821,.F.);
#1802 = FACE_BOUND('',#1803,.F.);
#1803 = EDGE_LOOP('',(#1804,#1812,#1819,#1820));
#1804 = ORIENTED_EDGE('',*,*,#1805,.T.);
#1805 = EDGE_CURVE('',#1256,#1806,#1808,.T.);
#1806 = VERTEX_POINT('',#1807);
#1807 = CARTESIAN_POINT('',(-91.5,7.8,4.5));
#1808 = LINE('',#1809,#1810);
#1809 = CARTESIAN_POINT('',(-91.5,7.8,10.));
#1810 = VECTOR('',#1811,1.);
#1811 = DIRECTION('',(0.,0.,-1.));
#1812 = ORIENTED_EDGE('',*,*,#1813,.T.);
#1813 = EDGE_CURVE('',#1806,#1806,#1814,.T.);
#1814 = CIRCLE('',#1815,3.5);
#1815 = AXIS2_PLACEMENT_3D('',#1816,#1817,#1818);
#1816 = CARTESIAN_POINT('',(-95.,7.8,4.5));
#1817 = DIRECTION('',(0.,0.,1.));
#1818 = DIRECTION('',(1.,0.,0.));
#1819 = ORIENTED_EDGE('',*,*,#1805,.F.);
#1820 = ORIENTED_EDGE('',*,*,#1255,.F.);
#1821 = CYLINDRICAL_SURFACE('',#1822,3.5);
#1822 = AXIS2_PLACEMENT_3D('',#1823,#1824,#1825);
#1823 = CARTESIAN_POINT('',(-95.,7.8,10.));
#1824 = DIRECTION('',(0.,0.,1.));
#1825 = DIRECTION('',(1.,0.,0.));
#1826 = ADVANCED_FACE('',(#1827),#1846,.F.);
#1827 = FACE_BOUND('',#1828,.F.);
#1828 = EDGE_LOOP('',(#1829,#1837,#1844,#1845));
#1829 = ORIENTED_EDGE('',*,*,#1830,.T.);
#1830 = EDGE_CURVE('',#1267,#1831,#1833,.T.);
#1831 = VERTEX_POINT('',#1832);
#1832 = CARTESIAN_POINT('',(-91.5,17.8,4.5));
#1833 = LINE('',#1834,#1835);
#1834 = CARTESIAN_POINT('',(-91.5,17.8,10.));
#1835 = VECTOR('',#1836,1.);
#1836 = DIRECTION('',(0.,0.,-1.));
#1837 = ORIENTED_EDGE('',*,*,#1838,.T.);
#1838 = EDGE_CURVE('',#1831,#1831,#1839,.T.);
#1839 = CIRCLE('',#1840,3.5);
#1840 = AXIS2_PLACEMENT_3D('',#1841,#1842,#1843);
#1841 = CARTESIAN_POINT('',(-95.,17.8,4.5));
#1842 = DIRECTION('',(0.,0.,1.));
#1843 = DIRECTION('',(1.,0.,0.));
#1844 = ORIENTED_EDGE('',*,*,#1830,.F.);
#1845 = ORIENTED_EDGE('',*,*,#1266,.F.);
#1846 = CYLINDRICAL_SURFACE('',#1847,3.5);
#1847 = AXIS2_PLACEMENT_3D('',#1848,#1849,#1850);
#1848 = CARTESIAN_POINT('',(-95.,17.8,10.));
#1849 = DIRECTION('',(0.,0.,1.));
#1850 = DIRECTION('',(1.,0.,0.));
#1851 = ADVANCED_FACE('',(#1852,#1855),#1858,.F.);
#1852 = FACE_BOUND('',#1853,.T.);
#1853 = EDGE_LOOP('',(#1854));
#1854 = ORIENTED_EDGE('',*,*,#1436,.F.);
#1855 = FACE_BOUND('',#1856,.T.);
#1856 = EDGE_LOOP('',(#1857));
#1857 = ORIENTED_EDGE('',*,*,#1413,.T.);
#1858 = PLANE('',#1859);
#1859 = AXIS2_PLACEMENT_3D('',#1860,#1861,#1862);
#1860 = CARTESIAN_POINT('',(41.,14.,5.));
#1861 = DIRECTION('',(-1.,0.,0.));
#1862 = DIRECTION('',(-0.,-1.,0.));
#1863 = ADVANCED_FACE('',(#1864),#1885,.F.);
#1864 = FACE_BOUND('',#1865,.F.);
#1865 = EDGE_LOOP('',(#1866,#1874,#1875,#1876,#1877,#1878));
#1866 = ORIENTED_EDGE('',*,*,#1867,.F.);
#1867 = EDGE_CURVE('',#1560,#1868,#1870,.T.);
#1868 = VERTEX_POINT('',#1869);
#1869 = CARTESIAN_POINT('',(-41.,15.55,5.));
#1870 = LINE('',#1871,#1872);
#1871 = CARTESIAN_POINT('',(-34.,15.55,5.));
#1872 = VECTOR('',#1873,1.);
#1873 = DIRECTION('',(-1.,2.2E-16,0.));
#1874 = ORIENTED_EDGE('',*,*,#1559,.F.);
#1875 = ORIENTED_EDGE('',*,*,#1790,.F.);
#1876 = ORIENTED_EDGE('',*,*,#1568,.F.);
#1877 = ORIENTED_EDGE('',*,*,#1867,.T.);
#1878 = ORIENTED_EDGE('',*,*,#1879,.T.);
#1879 = EDGE_CURVE('',#1868,#1868,#1880,.T.);
#1880 = CIRCLE('',#1881,1.55);
#1881 = AXIS2_PLACEMENT_3D('',#1882,#1883,#1884);
#1882 = CARTESIAN_POINT('',(-41.,14.,5.));
#1883 = DIRECTION('',(1.,-2.2E-16,-1.741711239665E-48));
#1884 = DIRECTION('',(2.2E-16,1.,-2.2E-16));
#1885 = CYLINDRICAL_SURFACE('',#1886,1.55);
#1886 = AXIS2_PLACEMENT_3D('',#1887,#1888,#1889);
#1887 = CARTESIAN_POINT('',(-34.,14.,5.));
#1888 = DIRECTION('',(1.,-2.2E-16,0.));
#1889 = DIRECTION('',(2.2E-16,1.,-1.1E-16));
#1890 = ADVANCED_FACE('',(#1891),#1910,.F.);
#1891 = FACE_BOUND('',#1892,.F.);
#1892 = EDGE_LOOP('',(#1893,#1901,#1908,#1909));
#1893 = ORIENTED_EDGE('',*,*,#1894,.T.);
#1894 = EDGE_CURVE('',#1702,#1895,#1897,.T.);
#1895 = VERTEX_POINT('',#1896);
#1896 = CARTESIAN_POINT('',(-41.,11.25,5.));
#1897 = LINE('',#1898,#1899);
#1898 = CARTESIAN_POINT('',(-44.,11.25,5.));
#1899 = VECTOR('',#1900,1.);
#1900 = DIRECTION('',(1.,2.2E-16,0.));
#1901 = ORIENTED_EDGE('',*,*,#1902,.T.);
#1902 = EDGE_CURVE('',#1895,#1895,#1903,.T.);
#1903 = CIRCLE('',#1904,2.75);
#1904 = AXIS2_PLACEMENT_3D('',#1905,#1906,#1907);
#1905 = CARTESIAN_POINT('',(-41.,14.,5.));
#1906 = DIRECTION('',(-1.,0.,0.));
#1907 = DIRECTION('',(0.,-1.,0.));
#1908 = ORIENTED_EDGE('',*,*,#1894,.F.);
#1909 = ORIENTED_EDGE('',*,*,#1701,.F.);
#1910 = CYLINDRICAL_SURFACE('',#1911,2.75);
#1911 = AXIS2_PLACEMENT_3D('',#1912,#1913,#1914);
#1912 = CARTESIAN_POINT('',(-44.,14.,5.));
#1913 = DIRECTION('',(-1.,-2.2E-16,0.));
#1914 = DIRECTION('',(2.2E-16,-1.,1.1E-16));
#1915 = ADVANCED_FACE('',(#1916,#1919),#1922,.F.);
#1916 = FACE_BOUND('',#1917,.F.);
#1917 = EDGE_LOOP('',(#1918));
#1918 = ORIENTED_EDGE('',*,*,#1813,.F.);
#1919 = FACE_BOUND('',#1920,.F.);
#1920 = EDGE_LOOP('',(#1921));
#1921 = ORIENTED_EDGE('',*,*,#1718,.T.);
#1922 = PLANE('',#1923);
#1923 = AXIS2_PLACEMENT_3D('',#1924,#1925,#1926);
#1924 = CARTESIAN_POINT('',(-95.,12.8,4.5));
#1925 = DIRECTION('',(-8.E-17,2.2E-16,-1.));
#1926 = DIRECTION('',(0.,1.,2.2E-16));
#1927 = ADVANCED_FACE('',(#1928,#1931),#1934,.F.);
#1928 = FACE_BOUND('',#1929,.F.);
#1929 = EDGE_LOOP('',(#1930));
#1930 = ORIENTED_EDGE('',*,*,#1838,.F.);
#1931 = FACE_BOUND('',#1932,.F.);
#1932 = EDGE_LOOP('',(#1933));
#1933 = ORIENTED_EDGE('',*,*,#1743,.T.);
#1934 = PLANE('',#1935);
#1935 = AXIS2_PLACEMENT_3D('',#1936,#1937,#1938);
#1936 = CARTESIAN_POINT('',(-95.,12.8,4.5));
#1937 = DIRECTION('',(-8.E-17,2.2E-16,-1.));
#1938 = DIRECTION('',(0.,1.,2.2E-16));
#1939 = ADVANCED_FACE('',(#1940,#1943),#1946,.F.);
#1940 = FACE_BOUND('',#1941,.F.);
#1941 = EDGE_LOOP('',(#1942));
#1942 = ORIENTED_EDGE('',*,*,#1902,.F.);
#1943 = FACE_BOUND('',#1944,.F.);
#1944 = EDGE_LOOP('',(#1945));
#1945 = ORIENTED_EDGE('',*,*,#1879,.F.);
#1946 = PLANE('',#1947);
#1947 = AXIS2_PLACEMENT_3D('',#1948,#1949,#1950);
#1948 = CARTESIAN_POINT('',(-41.,14.,5.));
#1949 = DIRECTION('',(1.,0.,0.));
#1950 = DIRECTION('',(0.,1.,0.));
#1951 = ( GEOMETRIC_REPRESENTATION_CONTEXT(3) 
GLOBAL_UNCERTAINTY_ASSIGNED_CONTEXT((#1955)) 
GLOBAL_UNIT_ASSIGNED_CONTEXT((#1952,#1953,#1954)) REPRESENTATION_CONTEXT
('Context #1','3D Context with UNIT and UNCERTAINTY') );
#1952 = ( LENGTH_UNIT() NAMED_UNIT(*) SI_UNIT(.MILLI.,.METRE.) );
#1953 = ( NAMED_UNIT(*) PLANE_ANGLE_UNIT() SI_UNIT($,.RADIAN.) );
#1954 = ( NAMED_UNIT(*) SI_UNIT($,.STERADIAN.) SOLID_ANGLE_UNIT() );
#1955 = UNCERTAINTY_MEASURE_WITH_UNIT(LENGTH_MEASURE(1.E-07),#1952,
  'distance_accuracy_value','confusion accuracy');
#1956 = PRODUCT_RELATED_PRODUCT_CATEGORY('part',$,(#7));
#1957 = MECHANICAL_DESIGN_GEOMETRIC_PRESENTATION_REPRESENTATION('',(
    #1958),#1951);
#1958 = STYLED_ITEM('color',(#1959),#15);
#1959 = PRESENTATION_STYLE_ASSIGNMENT((#1960,#1966));
#1960 = SURFACE_STYLE_USAGE(.BOTH.,#1961);
#1961 = SURFACE_SIDE_STYLE('',(#1962));
#1962 = SURFACE_STYLE_FILL_AREA(#1963);
#1963 = FILL_AREA_STYLE('',(#1964));
#1964 = FILL_AREA_STYLE_COLOUR('',#1965);
#1965 = COLOUR_RGB('',0.800000010877,0.800000010877,0.800000010877);
#1966 = CURVE_STYLE('',#1967,POSITIVE_LENGTH_MEASURE(0.1),#1968);
#1967 = DRAUGHTING_PRE_DEFINED_CURVE_FONT('continuous');
#1968 = COLOUR_RGB('',9.803921802644E-02,9.803921802644E-02,
  9.803921802644E-02);
ENDSEC;
END-ISO-10303-21;
