ISO-10303-21;
HEADER;
FILE_DESCRIPTION(('FreeCAD Model'),'2;1');
FILE_NAME('Open CASCADE Shape Model','2025-05-21T10:01:31',('Author'),(
    ''),'Open CASCADE STEP processor 7.6','FreeCAD','Unknown');
FILE_SCHEMA(('AUTOMOTIVE_DESIGN { 1 0 10303 214 1 1 1 1 }'));
ENDSEC;
DATA;
#1 = APPLICATION_PROTOCOL_DEFINITION('international standard',
  'automotive_design',2000,#2);
#2 = APPLICATION_CONTEXT(
  'core data for automotive mechanical design processes');
#3 = SHAPE_DEFINITION_REPRESENTATION(#4,#10);
#4 = PRODUCT_DEFINITION_SHAPE('','',#5);
#5 = PRODUCT_DEFINITION('design','',#6,#9);
#6 = PRODUCT_DEFINITION_FORMATION('','',#7);
#7 = PRODUCT('Pocket004','Pocket004','',(#8));
#8 = PRODUCT_CONTEXT('',#2,'mechanical');
#9 = PRODUCT_DEFINITION_CONTEXT('part definition',#2,'design');
#10 = ADVANCED_BREP_SHAPE_REPRESENTATION('',(#11,#15),#1878);
#11 = AXIS2_PLACEMENT_3D('',#12,#13,#14);
#12 = CARTESIAN_POINT('',(0.,0.,0.));
#13 = DIRECTION('',(0.,0.,1.));
#14 = DIRECTION('',(1.,0.,-0.));
#15 = MANIFOLD_SOLID_BREP('',#16);
#16 = CLOSED_SHELL('',(#17,#57,#105,#136,#160,#191,#215,#276,#301,#325,
    #358,#382,#422,#455,#489,#501,#534,#559,#591,#623,#647,#665,#689,
    #720,#760,#792,#817,#841,#867,#914,#949,#1006,#1024,#1051,#1081,
    #1106,#1138,#1162,#1187,#1212,#1237,#1288,#1323,#1347,#1364,#1394,
    #1433,#1444,#1455,#1482,#1502,#1525,#1552,#1609,#1627,#1666,#1677,
    #1693,#1711,#1723,#1748,#1765,#1777,#1797,#1824,#1849,#1866));
#17 = ADVANCED_FACE('',(#18),#52,.T.);
#18 = FACE_BOUND('',#19,.F.);
#19 = EDGE_LOOP('',(#20,#30,#38,#46));
#20 = ORIENTED_EDGE('',*,*,#21,.F.);
#21 = EDGE_CURVE('',#22,#24,#26,.T.);
#22 = VERTEX_POINT('',#23);
#23 = CARTESIAN_POINT('',(0.,39.95,5.));
#24 = VERTEX_POINT('',#25);
#25 = CARTESIAN_POINT('',(-20.,39.95,5.));
#26 = LINE('',#27,#28);
#27 = CARTESIAN_POINT('',(0.,39.95,5.));
#28 = VECTOR('',#29,1.);
#29 = DIRECTION('',(-1.,-0.,-0.));
#30 = ORIENTED_EDGE('',*,*,#31,.T.);
#31 = EDGE_CURVE('',#22,#32,#34,.T.);
#32 = VERTEX_POINT('',#33);
#33 = CARTESIAN_POINT('',(0.,39.95,30.));
#34 = LINE('',#35,#36);
#35 = CARTESIAN_POINT('',(0.,39.95,5.));
#36 = VECTOR('',#37,1.);
#37 = DIRECTION('',(0.,4.4E-16,1.));
#38 = ORIENTED_EDGE('',*,*,#39,.T.);
#39 = EDGE_CURVE('',#32,#40,#42,.T.);
#40 = VERTEX_POINT('',#41);
#41 = CARTESIAN_POINT('',(-20.,39.95,30.));
#42 = LINE('',#43,#44);
#43 = CARTESIAN_POINT('',(0.,39.95,30.));
#44 = VECTOR('',#45,1.);
#45 = DIRECTION('',(-1.,-0.,-0.));
#46 = ORIENTED_EDGE('',*,*,#47,.T.);
#47 = EDGE_CURVE('',#40,#24,#48,.T.);
#48 = LINE('',#49,#50);
#49 = CARTESIAN_POINT('',(-20.,39.95,30.));
#50 = VECTOR('',#51,1.);
#51 = DIRECTION('',(0.,-4.4E-16,-1.));
#52 = PLANE('',#53);
#53 = AXIS2_PLACEMENT_3D('',#54,#55,#56);
#54 = CARTESIAN_POINT('',(0.,39.95,5.));
#55 = DIRECTION('',(0.,1.,-4.4E-16));
#56 = DIRECTION('',(1.,0.,0.));
#57 = ADVANCED_FACE('',(#58),#100,.F.);
#58 = FACE_BOUND('',#59,.T.);
#59 = EDGE_LOOP('',(#60,#61,#69,#77,#86,#94));
#60 = ORIENTED_EDGE('',*,*,#21,.F.);
#61 = ORIENTED_EDGE('',*,*,#62,.F.);
#62 = EDGE_CURVE('',#63,#22,#65,.T.);
#63 = VERTEX_POINT('',#64);
#64 = CARTESIAN_POINT('',(0.,80.,5.));
#65 = LINE('',#66,#67);
#66 = CARTESIAN_POINT('',(0.,80.,5.));
#67 = VECTOR('',#68,1.);
#68 = DIRECTION('',(0.,-1.,0.));
#69 = ORIENTED_EDGE('',*,*,#70,.F.);
#70 = EDGE_CURVE('',#71,#63,#73,.T.);
#71 = VERTEX_POINT('',#72);
#72 = CARTESIAN_POINT('',(-25.,80.,5.));
#73 = LINE('',#74,#75);
#74 = CARTESIAN_POINT('',(-30.,80.,5.));
#75 = VECTOR('',#76,1.);
#76 = DIRECTION('',(1.,0.,0.));
#77 = ORIENTED_EDGE('',*,*,#78,.T.);
#78 = EDGE_CURVE('',#71,#79,#81,.T.);
#79 = VERTEX_POINT('',#80);
#80 = CARTESIAN_POINT('',(-30.,75.,5.));
#81 = CIRCLE('',#82,5.);
#82 = AXIS2_PLACEMENT_3D('',#83,#84,#85);
#83 = CARTESIAN_POINT('',(-30.,80.,5.));
#84 = DIRECTION('',(0.,0.,-1.));
#85 = DIRECTION('',(-1.,-0.,-0.));
#86 = ORIENTED_EDGE('',*,*,#87,.F.);
#87 = EDGE_CURVE('',#88,#79,#90,.T.);
#88 = VERTEX_POINT('',#89);
#89 = CARTESIAN_POINT('',(-30.,39.95,5.));
#90 = LINE('',#91,#92);
#91 = CARTESIAN_POINT('',(-30.,5.,5.));
#92 = VECTOR('',#93,1.);
#93 = DIRECTION('',(0.,1.,0.));
#94 = ORIENTED_EDGE('',*,*,#95,.F.);
#95 = EDGE_CURVE('',#24,#88,#96,.T.);
#96 = LINE('',#97,#98);
#97 = CARTESIAN_POINT('',(0.,39.95,5.));
#98 = VECTOR('',#99,1.);
#99 = DIRECTION('',(-1.,-0.,-0.));
#100 = PLANE('',#101);
#101 = AXIS2_PLACEMENT_3D('',#102,#103,#104);
#102 = CARTESIAN_POINT('',(-15.,42.5,5.));
#103 = DIRECTION('',(0.,-2.8E-16,-1.));
#104 = DIRECTION('',(-0.,-1.,2.8E-16));
#105 = ADVANCED_FACE('',(#106),#131,.T.);
#106 = FACE_BOUND('',#107,.T.);
#107 = EDGE_LOOP('',(#108,#109,#117,#125));
#108 = ORIENTED_EDGE('',*,*,#47,.T.);
#109 = ORIENTED_EDGE('',*,*,#110,.T.);
#110 = EDGE_CURVE('',#24,#111,#113,.T.);
#111 = VERTEX_POINT('',#112);
#112 = CARTESIAN_POINT('',(-20.,17.5,5.));
#113 = LINE('',#114,#115);
#114 = CARTESIAN_POINT('',(-20.,39.95,5.));
#115 = VECTOR('',#116,1.);
#116 = DIRECTION('',(0.,-1.,0.));
#117 = ORIENTED_EDGE('',*,*,#118,.F.);
#118 = EDGE_CURVE('',#119,#111,#121,.T.);
#119 = VERTEX_POINT('',#120);
#120 = CARTESIAN_POINT('',(-20.,17.5,30.));
#121 = LINE('',#122,#123);
#122 = CARTESIAN_POINT('',(-20.,17.5,30.));
#123 = VECTOR('',#124,1.);
#124 = DIRECTION('',(0.,-4.4E-16,-1.));
#125 = ORIENTED_EDGE('',*,*,#126,.F.);
#126 = EDGE_CURVE('',#40,#119,#127,.T.);
#127 = LINE('',#128,#129);
#128 = CARTESIAN_POINT('',(-20.,39.95,30.));
#129 = VECTOR('',#130,1.);
#130 = DIRECTION('',(0.,-1.,0.));
#131 = PLANE('',#132);
#132 = AXIS2_PLACEMENT_3D('',#133,#134,#135);
#133 = CARTESIAN_POINT('',(-20.,39.95,30.));
#134 = DIRECTION('',(-1.,-0.,-0.));
#135 = DIRECTION('',(0.,-1.,4.4E-16));
#136 = ADVANCED_FACE('',(#137),#155,.F.);
#137 = FACE_BOUND('',#138,.T.);
#138 = EDGE_LOOP('',(#139,#147,#148,#149));
#139 = ORIENTED_EDGE('',*,*,#140,.T.);
#140 = EDGE_CURVE('',#141,#32,#143,.T.);
#141 = VERTEX_POINT('',#142);
#142 = CARTESIAN_POINT('',(0.,17.5,30.));
#143 = LINE('',#144,#145);
#144 = CARTESIAN_POINT('',(0.,17.5,30.));
#145 = VECTOR('',#146,1.);
#146 = DIRECTION('',(0.,1.,0.));
#147 = ORIENTED_EDGE('',*,*,#39,.T.);
#148 = ORIENTED_EDGE('',*,*,#126,.T.);
#149 = ORIENTED_EDGE('',*,*,#150,.T.);
#150 = EDGE_CURVE('',#119,#141,#151,.T.);
#151 = LINE('',#152,#153);
#152 = CARTESIAN_POINT('',(-30.,17.5,30.));
#153 = VECTOR('',#154,1.);
#154 = DIRECTION('',(1.,0.,0.));
#155 = PLANE('',#156);
#156 = AXIS2_PLACEMENT_3D('',#157,#158,#159);
#157 = CARTESIAN_POINT('',(-15.,28.725,30.));
#158 = DIRECTION('',(0.,-2.4E-16,-1.));
#159 = DIRECTION('',(-0.,-1.,2.4E-16));
#160 = ADVANCED_FACE('',(#161),#186,.T.);
#161 = FACE_BOUND('',#162,.T.);
#162 = EDGE_LOOP('',(#163,#164,#172,#180));
#163 = ORIENTED_EDGE('',*,*,#31,.T.);
#164 = ORIENTED_EDGE('',*,*,#165,.T.);
#165 = EDGE_CURVE('',#32,#166,#168,.T.);
#166 = VERTEX_POINT('',#167);
#167 = CARTESIAN_POINT('',(30.,39.95,30.));
#168 = LINE('',#169,#170);
#169 = CARTESIAN_POINT('',(0.,39.95,30.));
#170 = VECTOR('',#171,1.);
#171 = DIRECTION('',(1.,0.,0.));
#172 = ORIENTED_EDGE('',*,*,#173,.F.);
#173 = EDGE_CURVE('',#174,#166,#176,.T.);
#174 = VERTEX_POINT('',#175);
#175 = CARTESIAN_POINT('',(30.,39.95,5.));
#176 = LINE('',#177,#178);
#177 = CARTESIAN_POINT('',(30.,39.95,5.));
#178 = VECTOR('',#179,1.);
#179 = DIRECTION('',(0.,4.4E-16,1.));
#180 = ORIENTED_EDGE('',*,*,#181,.F.);
#181 = EDGE_CURVE('',#22,#174,#182,.T.);
#182 = LINE('',#183,#184);
#183 = CARTESIAN_POINT('',(0.,39.95,5.));
#184 = VECTOR('',#185,1.);
#185 = DIRECTION('',(1.,0.,0.));
#186 = PLANE('',#187);
#187 = AXIS2_PLACEMENT_3D('',#188,#189,#190);
#188 = CARTESIAN_POINT('',(0.,39.95,5.));
#189 = DIRECTION('',(0.,1.,-4.4E-16));
#190 = DIRECTION('',(1.,0.,0.));
#191 = ADVANCED_FACE('',(#192),#210,.F.);
#192 = FACE_BOUND('',#193,.F.);
#193 = EDGE_LOOP('',(#194,#195,#196,#204));
#194 = ORIENTED_EDGE('',*,*,#95,.F.);
#195 = ORIENTED_EDGE('',*,*,#110,.T.);
#196 = ORIENTED_EDGE('',*,*,#197,.F.);
#197 = EDGE_CURVE('',#198,#111,#200,.T.);
#198 = VERTEX_POINT('',#199);
#199 = CARTESIAN_POINT('',(-30.,17.5,5.));
#200 = LINE('',#201,#202);
#201 = CARTESIAN_POINT('',(-30.,17.5,5.));
#202 = VECTOR('',#203,1.);
#203 = DIRECTION('',(1.,0.,0.));
#204 = ORIENTED_EDGE('',*,*,#205,.T.);
#205 = EDGE_CURVE('',#198,#88,#206,.T.);
#206 = LINE('',#207,#208);
#207 = CARTESIAN_POINT('',(-30.,17.5,5.));
#208 = VECTOR('',#209,1.);
#209 = DIRECTION('',(0.,1.,0.));
#210 = PLANE('',#211);
#211 = AXIS2_PLACEMENT_3D('',#212,#213,#214);
#212 = CARTESIAN_POINT('',(-25.,28.725,5.));
#213 = DIRECTION('',(0.,-1.6E-16,-1.));
#214 = DIRECTION('',(0.,1.,-1.6E-16));
#215 = ADVANCED_FACE('',(#216),#271,.F.);
#216 = FACE_BOUND('',#217,.T.);
#217 = EDGE_LOOP('',(#218,#228,#236,#242,#250,#258,#264,#265));
#218 = ORIENTED_EDGE('',*,*,#219,.F.);
#219 = EDGE_CURVE('',#220,#222,#224,.T.);
#220 = VERTEX_POINT('',#221);
#221 = CARTESIAN_POINT('',(-30.,10.,37.5));
#222 = VERTEX_POINT('',#223);
#223 = CARTESIAN_POINT('',(-30.,75.,37.5));
#224 = LINE('',#225,#226);
#225 = CARTESIAN_POINT('',(-30.,5.,37.5));
#226 = VECTOR('',#227,1.);
#227 = DIRECTION('',(0.,1.,0.));
#228 = ORIENTED_EDGE('',*,*,#229,.T.);
#229 = EDGE_CURVE('',#220,#230,#232,.T.);
#230 = VERTEX_POINT('',#231);
#231 = CARTESIAN_POINT('',(-30.,10.,5.));
#232 = LINE('',#233,#234);
#233 = CARTESIAN_POINT('',(-30.,10.,5.));
#234 = VECTOR('',#235,1.);
#235 = DIRECTION('',(-0.,-4.4E-16,-1.));
#236 = ORIENTED_EDGE('',*,*,#237,.T.);
#237 = EDGE_CURVE('',#230,#198,#238,.T.);
#238 = LINE('',#239,#240);
#239 = CARTESIAN_POINT('',(-30.,5.,5.));
#240 = VECTOR('',#241,1.);
#241 = DIRECTION('',(0.,1.,0.));
#242 = ORIENTED_EDGE('',*,*,#243,.T.);
#243 = EDGE_CURVE('',#198,#244,#246,.T.);
#244 = VERTEX_POINT('',#245);
#245 = CARTESIAN_POINT('',(-30.,17.5,30.));
#246 = LINE('',#247,#248);
#247 = CARTESIAN_POINT('',(-30.,17.5,5.));
#248 = VECTOR('',#249,1.);
#249 = DIRECTION('',(0.,4.4E-16,1.));
#250 = ORIENTED_EDGE('',*,*,#251,.F.);
#251 = EDGE_CURVE('',#252,#244,#254,.T.);
#252 = VERTEX_POINT('',#253);
#253 = CARTESIAN_POINT('',(-30.,39.95,30.));
#254 = LINE('',#255,#256);
#255 = CARTESIAN_POINT('',(-30.,39.95,30.));
#256 = VECTOR('',#257,1.);
#257 = DIRECTION('',(-0.,-1.,-0.));
#258 = ORIENTED_EDGE('',*,*,#259,.F.);
#259 = EDGE_CURVE('',#88,#252,#260,.T.);
#260 = LINE('',#261,#262);
#261 = CARTESIAN_POINT('',(-30.,39.95,5.));
#262 = VECTOR('',#263,1.);
#263 = DIRECTION('',(0.,4.4E-16,1.));
#264 = ORIENTED_EDGE('',*,*,#87,.T.);
#265 = ORIENTED_EDGE('',*,*,#266,.F.);
#266 = EDGE_CURVE('',#222,#79,#267,.T.);
#267 = LINE('',#268,#269);
#268 = CARTESIAN_POINT('',(-30.,75.,5.));
#269 = VECTOR('',#270,1.);
#270 = DIRECTION('',(-0.,-4.4E-16,-1.));
#271 = PLANE('',#272);
#272 = AXIS2_PLACEMENT_3D('',#273,#274,#275);
#273 = CARTESIAN_POINT('',(-30.,5.,37.5));
#274 = DIRECTION('',(-1.,-0.,-0.));
#275 = DIRECTION('',(0.,-1.,4.4E-16));
#276 = ADVANCED_FACE('',(#277),#296,.T.);
#277 = FACE_BOUND('',#278,.T.);
#278 = EDGE_LOOP('',(#279,#280,#281,#289));
#279 = ORIENTED_EDGE('',*,*,#266,.T.);
#280 = ORIENTED_EDGE('',*,*,#78,.F.);
#281 = ORIENTED_EDGE('',*,*,#282,.F.);
#282 = EDGE_CURVE('',#283,#71,#285,.T.);
#283 = VERTEX_POINT('',#284);
#284 = CARTESIAN_POINT('',(-25.,80.,37.5));
#285 = LINE('',#286,#287);
#286 = CARTESIAN_POINT('',(-25.,80.,5.));
#287 = VECTOR('',#288,1.);
#288 = DIRECTION('',(-0.,-4.4E-16,-1.));
#289 = ORIENTED_EDGE('',*,*,#290,.T.);
#290 = EDGE_CURVE('',#283,#222,#291,.T.);
#291 = CIRCLE('',#292,5.);
#292 = AXIS2_PLACEMENT_3D('',#293,#294,#295);
#293 = CARTESIAN_POINT('',(-30.,80.,37.5));
#294 = DIRECTION('',(0.,0.,-1.));
#295 = DIRECTION('',(-1.,-0.,-0.));
#296 = CYLINDRICAL_SURFACE('',#297,5.);
#297 = AXIS2_PLACEMENT_3D('',#298,#299,#300);
#298 = CARTESIAN_POINT('',(-30.,80.,5.));
#299 = DIRECTION('',(-0.,-4.4E-16,-1.));
#300 = DIRECTION('',(-1.,0.,0.));
#301 = ADVANCED_FACE('',(#302),#320,.F.);
#302 = FACE_BOUND('',#303,.T.);
#303 = EDGE_LOOP('',(#304,#312,#313,#314));
#304 = ORIENTED_EDGE('',*,*,#305,.F.);
#305 = EDGE_CURVE('',#283,#306,#308,.T.);
#306 = VERTEX_POINT('',#307);
#307 = CARTESIAN_POINT('',(0.,80.,37.5));
#308 = LINE('',#309,#310);
#309 = CARTESIAN_POINT('',(-30.,80.,37.5));
#310 = VECTOR('',#311,1.);
#311 = DIRECTION('',(1.,0.,0.));
#312 = ORIENTED_EDGE('',*,*,#282,.T.);
#313 = ORIENTED_EDGE('',*,*,#70,.T.);
#314 = ORIENTED_EDGE('',*,*,#315,.F.);
#315 = EDGE_CURVE('',#306,#63,#316,.T.);
#316 = LINE('',#317,#318);
#317 = CARTESIAN_POINT('',(0.,80.,37.5));
#318 = VECTOR('',#319,1.);
#319 = DIRECTION('',(0.,-4.4E-16,-1.));
#320 = PLANE('',#321);
#321 = AXIS2_PLACEMENT_3D('',#322,#323,#324);
#322 = CARTESIAN_POINT('',(-30.,80.,37.5));
#323 = DIRECTION('',(0.,1.,-4.4E-16));
#324 = DIRECTION('',(-1.,0.,0.));
#325 = ADVANCED_FACE('',(#326),#353,.F.);
#326 = FACE_BOUND('',#327,.F.);
#327 = EDGE_LOOP('',(#328,#329,#330,#338,#347));
#328 = ORIENTED_EDGE('',*,*,#181,.F.);
#329 = ORIENTED_EDGE('',*,*,#62,.F.);
#330 = ORIENTED_EDGE('',*,*,#331,.F.);
#331 = EDGE_CURVE('',#332,#63,#334,.T.);
#332 = VERTEX_POINT('',#333);
#333 = CARTESIAN_POINT('',(25.,80.,5.));
#334 = LINE('',#335,#336);
#335 = CARTESIAN_POINT('',(30.,80.,5.));
#336 = VECTOR('',#337,1.);
#337 = DIRECTION('',(-1.,0.,0.));
#338 = ORIENTED_EDGE('',*,*,#339,.T.);
#339 = EDGE_CURVE('',#332,#340,#342,.T.);
#340 = VERTEX_POINT('',#341);
#341 = CARTESIAN_POINT('',(30.,75.,5.));
#342 = CIRCLE('',#343,5.);
#343 = AXIS2_PLACEMENT_3D('',#344,#345,#346);
#344 = CARTESIAN_POINT('',(30.,80.,5.));
#345 = DIRECTION('',(0.,0.,1.));
#346 = DIRECTION('',(1.,0.,0.));
#347 = ORIENTED_EDGE('',*,*,#348,.F.);
#348 = EDGE_CURVE('',#174,#340,#349,.T.);
#349 = LINE('',#350,#351);
#350 = CARTESIAN_POINT('',(30.,5.,5.));
#351 = VECTOR('',#352,1.);
#352 = DIRECTION('',(0.,1.,0.));
#353 = PLANE('',#354);
#354 = AXIS2_PLACEMENT_3D('',#355,#356,#357);
#355 = CARTESIAN_POINT('',(15.,42.5,5.));
#356 = DIRECTION('',(0.,-2.8E-16,-1.));
#357 = DIRECTION('',(0.,1.,-2.8E-16));
#358 = ADVANCED_FACE('',(#359),#377,.T.);
#359 = FACE_BOUND('',#360,.F.);
#360 = EDGE_LOOP('',(#361,#369,#370,#371));
#361 = ORIENTED_EDGE('',*,*,#362,.F.);
#362 = EDGE_CURVE('',#111,#363,#365,.T.);
#363 = VERTEX_POINT('',#364);
#364 = CARTESIAN_POINT('',(0.,17.5,5.));
#365 = LINE('',#366,#367);
#366 = CARTESIAN_POINT('',(-30.,17.5,5.));
#367 = VECTOR('',#368,1.);
#368 = DIRECTION('',(1.,0.,0.));
#369 = ORIENTED_EDGE('',*,*,#118,.F.);
#370 = ORIENTED_EDGE('',*,*,#150,.T.);
#371 = ORIENTED_EDGE('',*,*,#372,.F.);
#372 = EDGE_CURVE('',#363,#141,#373,.T.);
#373 = LINE('',#374,#375);
#374 = CARTESIAN_POINT('',(0.,17.5,5.));
#375 = VECTOR('',#376,1.);
#376 = DIRECTION('',(0.,4.4E-16,1.));
#377 = PLANE('',#378);
#378 = AXIS2_PLACEMENT_3D('',#379,#380,#381);
#379 = CARTESIAN_POINT('',(-30.,17.5,5.));
#380 = DIRECTION('',(0.,-1.,4.4E-16));
#381 = DIRECTION('',(-1.,0.,0.));
#382 = ADVANCED_FACE('',(#383),#417,.F.);
#383 = FACE_BOUND('',#384,.F.);
#384 = EDGE_LOOP('',(#385,#386,#394,#402,#410,#416));
#385 = ORIENTED_EDGE('',*,*,#165,.T.);
#386 = ORIENTED_EDGE('',*,*,#387,.T.);
#387 = EDGE_CURVE('',#166,#388,#390,.T.);
#388 = VERTEX_POINT('',#389);
#389 = CARTESIAN_POINT('',(30.,36.225,30.));
#390 = LINE('',#391,#392);
#391 = CARTESIAN_POINT('',(30.,39.95,30.));
#392 = VECTOR('',#393,1.);
#393 = DIRECTION('',(0.,-1.,0.));
#394 = ORIENTED_EDGE('',*,*,#395,.T.);
#395 = EDGE_CURVE('',#388,#396,#398,.T.);
#396 = VERTEX_POINT('',#397);
#397 = CARTESIAN_POINT('',(30.,21.225,30.));
#398 = LINE('',#399,#400);
#399 = CARTESIAN_POINT('',(30.,39.95,30.));
#400 = VECTOR('',#401,1.);
#401 = DIRECTION('',(0.,-1.,0.));
#402 = ORIENTED_EDGE('',*,*,#403,.T.);
#403 = EDGE_CURVE('',#396,#404,#406,.T.);
#404 = VERTEX_POINT('',#405);
#405 = CARTESIAN_POINT('',(30.,17.5,30.));
#406 = LINE('',#407,#408);
#407 = CARTESIAN_POINT('',(30.,39.95,30.));
#408 = VECTOR('',#409,1.);
#409 = DIRECTION('',(0.,-1.,0.));
#410 = ORIENTED_EDGE('',*,*,#411,.T.);
#411 = EDGE_CURVE('',#404,#141,#412,.T.);
#412 = LINE('',#413,#414);
#413 = CARTESIAN_POINT('',(30.,17.5,30.));
#414 = VECTOR('',#415,1.);
#415 = DIRECTION('',(-1.,0.,0.));
#416 = ORIENTED_EDGE('',*,*,#140,.T.);
#417 = PLANE('',#418);
#418 = AXIS2_PLACEMENT_3D('',#419,#420,#421);
#419 = CARTESIAN_POINT('',(15.,28.725,30.));
#420 = DIRECTION('',(0.,-2.4E-16,-1.));
#421 = DIRECTION('',(0.,1.,-2.4E-16));
#422 = ADVANCED_FACE('',(#423),#450,.F.);
#423 = FACE_BOUND('',#424,.F.);
#424 = EDGE_LOOP('',(#425,#435,#441,#442,#443,#444));
#425 = ORIENTED_EDGE('',*,*,#426,.F.);
#426 = EDGE_CURVE('',#427,#429,#431,.T.);
#427 = VERTEX_POINT('',#428);
#428 = CARTESIAN_POINT('',(30.,36.225,37.5));
#429 = VERTEX_POINT('',#430);
#430 = CARTESIAN_POINT('',(30.,75.,37.5));
#431 = LINE('',#432,#433);
#432 = CARTESIAN_POINT('',(30.,5.,37.5));
#433 = VECTOR('',#434,1.);
#434 = DIRECTION('',(0.,1.,0.));
#435 = ORIENTED_EDGE('',*,*,#436,.T.);
#436 = EDGE_CURVE('',#427,#388,#437,.T.);
#437 = LINE('',#438,#439);
#438 = CARTESIAN_POINT('',(30.,36.225,37.5));
#439 = VECTOR('',#440,1.);
#440 = DIRECTION('',(0.,0.,-1.));
#441 = ORIENTED_EDGE('',*,*,#387,.F.);
#442 = ORIENTED_EDGE('',*,*,#173,.F.);
#443 = ORIENTED_EDGE('',*,*,#348,.T.);
#444 = ORIENTED_EDGE('',*,*,#445,.F.);
#445 = EDGE_CURVE('',#429,#340,#446,.T.);
#446 = LINE('',#447,#448);
#447 = CARTESIAN_POINT('',(30.,75.,5.));
#448 = VECTOR('',#449,1.);
#449 = DIRECTION('',(0.,-4.4E-16,-1.));
#450 = PLANE('',#451);
#451 = AXIS2_PLACEMENT_3D('',#452,#453,#454);
#452 = CARTESIAN_POINT('',(30.,5.,37.5));
#453 = DIRECTION('',(1.,0.,0.));
#454 = DIRECTION('',(0.,1.,-4.4E-16));
#455 = ADVANCED_FACE('',(#456),#484,.F.);
#456 = FACE_BOUND('',#457,.T.);
#457 = EDGE_LOOP('',(#458,#468,#474,#475,#476,#477));
#458 = ORIENTED_EDGE('',*,*,#459,.F.);
#459 = EDGE_CURVE('',#460,#462,#464,.T.);
#460 = VERTEX_POINT('',#461);
#461 = CARTESIAN_POINT('',(0.,5.,5.));
#462 = VERTEX_POINT('',#463);
#463 = CARTESIAN_POINT('',(-25.,5.,5.));
#464 = LINE('',#465,#466);
#465 = CARTESIAN_POINT('',(0.,5.,5.));
#466 = VECTOR('',#467,1.);
#467 = DIRECTION('',(-1.,-0.,-0.));
#468 = ORIENTED_EDGE('',*,*,#469,.F.);
#469 = EDGE_CURVE('',#363,#460,#470,.T.);
#470 = LINE('',#471,#472);
#471 = CARTESIAN_POINT('',(0.,80.,5.));
#472 = VECTOR('',#473,1.);
#473 = DIRECTION('',(0.,-1.,0.));
#474 = ORIENTED_EDGE('',*,*,#362,.F.);
#475 = ORIENTED_EDGE('',*,*,#197,.F.);
#476 = ORIENTED_EDGE('',*,*,#237,.F.);
#477 = ORIENTED_EDGE('',*,*,#478,.T.);
#478 = EDGE_CURVE('',#230,#462,#479,.T.);
#479 = CIRCLE('',#480,5.);
#480 = AXIS2_PLACEMENT_3D('',#481,#482,#483);
#481 = CARTESIAN_POINT('',(-30.,5.,5.));
#482 = DIRECTION('',(0.,0.,-1.));
#483 = DIRECTION('',(-1.,-0.,-0.));
#484 = PLANE('',#485);
#485 = AXIS2_PLACEMENT_3D('',#486,#487,#488);
#486 = CARTESIAN_POINT('',(-15.,42.5,5.));
#487 = DIRECTION('',(0.,-2.8E-16,-1.));
#488 = DIRECTION('',(-0.,-1.,2.8E-16));
#489 = ADVANCED_FACE('',(#490),#496,.T.);
#490 = FACE_BOUND('',#491,.T.);
#491 = EDGE_LOOP('',(#492,#493,#494,#495));
#492 = ORIENTED_EDGE('',*,*,#243,.F.);
#493 = ORIENTED_EDGE('',*,*,#205,.T.);
#494 = ORIENTED_EDGE('',*,*,#259,.T.);
#495 = ORIENTED_EDGE('',*,*,#251,.T.);
#496 = PLANE('',#497);
#497 = AXIS2_PLACEMENT_3D('',#498,#499,#500);
#498 = CARTESIAN_POINT('',(-30.,17.5,30.));
#499 = DIRECTION('',(1.,0.,0.));
#500 = DIRECTION('',(0.,1.,-4.4E-16));
#501 = ADVANCED_FACE('',(#502),#529,.F.);
#502 = FACE_BOUND('',#503,.T.);
#503 = EDGE_LOOP('',(#504,#514,#521,#522));
#504 = ORIENTED_EDGE('',*,*,#505,.F.);
#505 = EDGE_CURVE('',#506,#508,#510,.T.);
#506 = VERTEX_POINT('',#507);
#507 = CARTESIAN_POINT('',(-35.,5.,37.5));
#508 = VERTEX_POINT('',#509);
#509 = CARTESIAN_POINT('',(-35.,80.,37.5));
#510 = LINE('',#511,#512);
#511 = CARTESIAN_POINT('',(-35.,1.7E-14,37.5));
#512 = VECTOR('',#513,1.);
#513 = DIRECTION('',(0.,1.,0.));
#514 = ORIENTED_EDGE('',*,*,#515,.T.);
#515 = EDGE_CURVE('',#506,#220,#516,.T.);
#516 = CIRCLE('',#517,5.);
#517 = AXIS2_PLACEMENT_3D('',#518,#519,#520);
#518 = CARTESIAN_POINT('',(-30.,5.,37.5));
#519 = DIRECTION('',(0.,0.,-1.));
#520 = DIRECTION('',(-1.,-0.,-0.));
#521 = ORIENTED_EDGE('',*,*,#219,.T.);
#522 = ORIENTED_EDGE('',*,*,#523,.T.);
#523 = EDGE_CURVE('',#222,#508,#524,.T.);
#524 = CIRCLE('',#525,5.);
#525 = AXIS2_PLACEMENT_3D('',#526,#527,#528);
#526 = CARTESIAN_POINT('',(-30.,80.,37.5));
#527 = DIRECTION('',(0.,0.,-1.));
#528 = DIRECTION('',(-1.,-0.,-0.));
#529 = PLANE('',#530);
#530 = AXIS2_PLACEMENT_3D('',#531,#532,#533);
#531 = CARTESIAN_POINT('',(-17.5,42.5,37.5));
#532 = DIRECTION('',(0.,-2.2E-16,-1.));
#533 = DIRECTION('',(-0.,-1.,2.2E-16));
#534 = ADVANCED_FACE('',(#535),#554,.T.);
#535 = FACE_BOUND('',#536,.T.);
#536 = EDGE_LOOP('',(#537,#538,#539,#548));
#537 = ORIENTED_EDGE('',*,*,#478,.F.);
#538 = ORIENTED_EDGE('',*,*,#229,.F.);
#539 = ORIENTED_EDGE('',*,*,#540,.T.);
#540 = EDGE_CURVE('',#220,#541,#543,.T.);
#541 = VERTEX_POINT('',#542);
#542 = CARTESIAN_POINT('',(-25.,5.,37.5));
#543 = CIRCLE('',#544,5.);
#544 = AXIS2_PLACEMENT_3D('',#545,#546,#547);
#545 = CARTESIAN_POINT('',(-30.,5.,37.5));
#546 = DIRECTION('',(0.,0.,-1.));
#547 = DIRECTION('',(-1.,-0.,-0.));
#548 = ORIENTED_EDGE('',*,*,#549,.T.);
#549 = EDGE_CURVE('',#541,#462,#550,.T.);
#550 = LINE('',#551,#552);
#551 = CARTESIAN_POINT('',(-25.,5.,5.));
#552 = VECTOR('',#553,1.);
#553 = DIRECTION('',(-0.,-4.4E-16,-1.));
#554 = CYLINDRICAL_SURFACE('',#555,5.);
#555 = AXIS2_PLACEMENT_3D('',#556,#557,#558);
#556 = CARTESIAN_POINT('',(-30.,5.,5.));
#557 = DIRECTION('',(-0.,-4.4E-16,-1.));
#558 = DIRECTION('',(-1.,0.,0.));
#559 = ADVANCED_FACE('',(#560),#586,.F.);
#560 = FACE_BOUND('',#561,.T.);
#561 = EDGE_LOOP('',(#562,#570,#571,#579));
#562 = ORIENTED_EDGE('',*,*,#563,.F.);
#563 = EDGE_CURVE('',#222,#564,#566,.T.);
#564 = VERTEX_POINT('',#565);
#565 = CARTESIAN_POINT('',(-30.,78.25,37.5));
#566 = LINE('',#567,#568);
#567 = CARTESIAN_POINT('',(-30.,5.,37.5));
#568 = VECTOR('',#569,1.);
#569 = DIRECTION('',(0.,1.,0.));
#570 = ORIENTED_EDGE('',*,*,#290,.F.);
#571 = ORIENTED_EDGE('',*,*,#572,.F.);
#572 = EDGE_CURVE('',#573,#283,#575,.T.);
#573 = VERTEX_POINT('',#574);
#574 = CARTESIAN_POINT('',(-28.25,80.,37.5));
#575 = LINE('',#576,#577);
#576 = CARTESIAN_POINT('',(-30.,80.,37.5));
#577 = VECTOR('',#578,1.);
#578 = DIRECTION('',(1.,0.,0.));
#579 = ORIENTED_EDGE('',*,*,#580,.T.);
#580 = EDGE_CURVE('',#573,#564,#581,.T.);
#581 = CIRCLE('',#582,1.75);
#582 = AXIS2_PLACEMENT_3D('',#583,#584,#585);
#583 = CARTESIAN_POINT('',(-30.,80.,37.5));
#584 = DIRECTION('',(0.,0.,-1.));
#585 = DIRECTION('',(-1.,-0.,-0.));
#586 = PLANE('',#587);
#587 = AXIS2_PLACEMENT_3D('',#588,#589,#590);
#588 = CARTESIAN_POINT('',(-30.,42.5,37.5));
#589 = DIRECTION('',(0.,-2.2E-16,-1.));
#590 = DIRECTION('',(-0.,-1.,2.2E-16));
#591 = ADVANCED_FACE('',(#592),#618,.F.);
#592 = FACE_BOUND('',#593,.T.);
#593 = EDGE_LOOP('',(#594,#604,#611,#612));
#594 = ORIENTED_EDGE('',*,*,#595,.F.);
#595 = EDGE_CURVE('',#596,#598,#600,.T.);
#596 = VERTEX_POINT('',#597);
#597 = CARTESIAN_POINT('',(-30.,85.,37.5));
#598 = VERTEX_POINT('',#599);
#599 = CARTESIAN_POINT('',(0.,85.,37.5));
#600 = LINE('',#601,#602);
#601 = CARTESIAN_POINT('',(-35.,85.,37.5));
#602 = VECTOR('',#603,1.);
#603 = DIRECTION('',(1.,0.,0.));
#604 = ORIENTED_EDGE('',*,*,#605,.T.);
#605 = EDGE_CURVE('',#596,#283,#606,.T.);
#606 = CIRCLE('',#607,5.);
#607 = AXIS2_PLACEMENT_3D('',#608,#609,#610);
#608 = CARTESIAN_POINT('',(-30.,80.,37.5));
#609 = DIRECTION('',(0.,0.,-1.));
#610 = DIRECTION('',(-1.,-0.,-0.));
#611 = ORIENTED_EDGE('',*,*,#305,.T.);
#612 = ORIENTED_EDGE('',*,*,#613,.F.);
#613 = EDGE_CURVE('',#598,#306,#614,.T.);
#614 = LINE('',#615,#616);
#615 = CARTESIAN_POINT('',(0.,85.,37.5));
#616 = VECTOR('',#617,1.);
#617 = DIRECTION('',(0.,-1.,0.));
#618 = PLANE('',#619);
#619 = AXIS2_PLACEMENT_3D('',#620,#621,#622);
#620 = CARTESIAN_POINT('',(-17.5,42.5,37.5));
#621 = DIRECTION('',(0.,-2.2E-16,-1.));
#622 = DIRECTION('',(-0.,-1.,2.2E-16));
#623 = ADVANCED_FACE('',(#624),#642,.F.);
#624 = FACE_BOUND('',#625,.F.);
#625 = EDGE_LOOP('',(#626,#634,#640,#641));
#626 = ORIENTED_EDGE('',*,*,#627,.F.);
#627 = EDGE_CURVE('',#628,#306,#630,.T.);
#628 = VERTEX_POINT('',#629);
#629 = CARTESIAN_POINT('',(25.,80.,37.5));
#630 = LINE('',#631,#632);
#631 = CARTESIAN_POINT('',(30.,80.,37.5));
#632 = VECTOR('',#633,1.);
#633 = DIRECTION('',(-1.,0.,0.));
#634 = ORIENTED_EDGE('',*,*,#635,.T.);
#635 = EDGE_CURVE('',#628,#332,#636,.T.);
#636 = LINE('',#637,#638);
#637 = CARTESIAN_POINT('',(25.,80.,5.));
#638 = VECTOR('',#639,1.);
#639 = DIRECTION('',(0.,-4.4E-16,-1.));
#640 = ORIENTED_EDGE('',*,*,#331,.T.);
#641 = ORIENTED_EDGE('',*,*,#315,.F.);
#642 = PLANE('',#643);
#643 = AXIS2_PLACEMENT_3D('',#644,#645,#646);
#644 = CARTESIAN_POINT('',(30.,80.,37.5));
#645 = DIRECTION('',(0.,1.,-4.4E-16));
#646 = DIRECTION('',(-1.,0.,0.));
#647 = ADVANCED_FACE('',(#648),#660,.T.);
#648 = FACE_BOUND('',#649,.F.);
#649 = EDGE_LOOP('',(#650,#651,#652,#653));
#650 = ORIENTED_EDGE('',*,*,#445,.T.);
#651 = ORIENTED_EDGE('',*,*,#339,.F.);
#652 = ORIENTED_EDGE('',*,*,#635,.F.);
#653 = ORIENTED_EDGE('',*,*,#654,.T.);
#654 = EDGE_CURVE('',#628,#429,#655,.T.);
#655 = CIRCLE('',#656,5.);
#656 = AXIS2_PLACEMENT_3D('',#657,#658,#659);
#657 = CARTESIAN_POINT('',(30.,80.,37.5));
#658 = DIRECTION('',(0.,0.,1.));
#659 = DIRECTION('',(1.,0.,0.));
#660 = CYLINDRICAL_SURFACE('',#661,5.);
#661 = AXIS2_PLACEMENT_3D('',#662,#663,#664);
#662 = CARTESIAN_POINT('',(30.,80.,5.));
#663 = DIRECTION('',(0.,-4.4E-16,-1.));
#664 = DIRECTION('',(1.,0.,0.));
#665 = ADVANCED_FACE('',(#666),#684,.T.);
#666 = FACE_BOUND('',#667,.T.);
#667 = EDGE_LOOP('',(#668,#676,#677,#678));
#668 = ORIENTED_EDGE('',*,*,#669,.T.);
#669 = EDGE_CURVE('',#670,#404,#672,.T.);
#670 = VERTEX_POINT('',#671);
#671 = CARTESIAN_POINT('',(30.,17.5,5.));
#672 = LINE('',#673,#674);
#673 = CARTESIAN_POINT('',(30.,17.5,5.));
#674 = VECTOR('',#675,1.);
#675 = DIRECTION('',(0.,4.4E-16,1.));
#676 = ORIENTED_EDGE('',*,*,#411,.T.);
#677 = ORIENTED_EDGE('',*,*,#372,.F.);
#678 = ORIENTED_EDGE('',*,*,#679,.F.);
#679 = EDGE_CURVE('',#670,#363,#680,.T.);
#680 = LINE('',#681,#682);
#681 = CARTESIAN_POINT('',(30.,17.5,5.));
#682 = VECTOR('',#683,1.);
#683 = DIRECTION('',(-1.,0.,0.));
#684 = PLANE('',#685);
#685 = AXIS2_PLACEMENT_3D('',#686,#687,#688);
#686 = CARTESIAN_POINT('',(30.,17.5,5.));
#687 = DIRECTION('',(0.,-1.,4.4E-16));
#688 = DIRECTION('',(-1.,0.,0.));
#689 = ADVANCED_FACE('',(#690),#715,.T.);
#690 = FACE_BOUND('',#691,.T.);
#691 = EDGE_LOOP('',(#692,#693,#701,#709));
#692 = ORIENTED_EDGE('',*,*,#395,.T.);
#693 = ORIENTED_EDGE('',*,*,#694,.F.);
#694 = EDGE_CURVE('',#695,#396,#697,.T.);
#695 = VERTEX_POINT('',#696);
#696 = CARTESIAN_POINT('',(30.,21.225,27.5));
#697 = LINE('',#698,#699);
#698 = CARTESIAN_POINT('',(30.,21.225,27.5));
#699 = VECTOR('',#700,1.);
#700 = DIRECTION('',(0.,0.,1.));
#701 = ORIENTED_EDGE('',*,*,#702,.F.);
#702 = EDGE_CURVE('',#703,#695,#705,.T.);
#703 = VERTEX_POINT('',#704);
#704 = CARTESIAN_POINT('',(30.,36.225,27.5));
#705 = LINE('',#706,#707);
#706 = CARTESIAN_POINT('',(30.,36.225,27.5));
#707 = VECTOR('',#708,1.);
#708 = DIRECTION('',(0.,-1.,0.));
#709 = ORIENTED_EDGE('',*,*,#710,.F.);
#710 = EDGE_CURVE('',#388,#703,#711,.T.);
#711 = LINE('',#712,#713);
#712 = CARTESIAN_POINT('',(30.,36.225,37.5));
#713 = VECTOR('',#714,1.);
#714 = DIRECTION('',(0.,0.,-1.));
#715 = PLANE('',#716);
#716 = AXIS2_PLACEMENT_3D('',#717,#718,#719);
#717 = CARTESIAN_POINT('',(30.,28.725,32.5));
#718 = DIRECTION('',(1.,0.,0.));
#719 = DIRECTION('',(0.,1.,0.));
#720 = ADVANCED_FACE('',(#721),#755,.F.);
#721 = FACE_BOUND('',#722,.F.);
#722 = EDGE_LOOP('',(#723,#733,#741,#747,#748,#749));
#723 = ORIENTED_EDGE('',*,*,#724,.F.);
#724 = EDGE_CURVE('',#725,#727,#729,.T.);
#725 = VERTEX_POINT('',#726);
#726 = CARTESIAN_POINT('',(30.,10.,37.5));
#727 = VERTEX_POINT('',#728);
#728 = CARTESIAN_POINT('',(30.,21.225,37.5));
#729 = LINE('',#730,#731);
#730 = CARTESIAN_POINT('',(30.,5.,37.5));
#731 = VECTOR('',#732,1.);
#732 = DIRECTION('',(0.,1.,0.));
#733 = ORIENTED_EDGE('',*,*,#734,.T.);
#734 = EDGE_CURVE('',#725,#735,#737,.T.);
#735 = VERTEX_POINT('',#736);
#736 = CARTESIAN_POINT('',(30.,10.,5.));
#737 = LINE('',#738,#739);
#738 = CARTESIAN_POINT('',(30.,10.,5.));
#739 = VECTOR('',#740,1.);
#740 = DIRECTION('',(0.,-4.4E-16,-1.));
#741 = ORIENTED_EDGE('',*,*,#742,.T.);
#742 = EDGE_CURVE('',#735,#670,#743,.T.);
#743 = LINE('',#744,#745);
#744 = CARTESIAN_POINT('',(30.,5.,5.));
#745 = VECTOR('',#746,1.);
#746 = DIRECTION('',(0.,1.,0.));
#747 = ORIENTED_EDGE('',*,*,#669,.T.);
#748 = ORIENTED_EDGE('',*,*,#403,.F.);
#749 = ORIENTED_EDGE('',*,*,#750,.T.);
#750 = EDGE_CURVE('',#396,#727,#751,.T.);
#751 = LINE('',#752,#753);
#752 = CARTESIAN_POINT('',(30.,21.225,27.5));
#753 = VECTOR('',#754,1.);
#754 = DIRECTION('',(0.,0.,1.));
#755 = PLANE('',#756);
#756 = AXIS2_PLACEMENT_3D('',#757,#758,#759);
#757 = CARTESIAN_POINT('',(30.,5.,37.5));
#758 = DIRECTION('',(1.,0.,0.));
#759 = DIRECTION('',(0.,1.,-4.4E-16));
#760 = ADVANCED_FACE('',(#761),#787,.F.);
#761 = FACE_BOUND('',#762,.F.);
#762 = EDGE_LOOP('',(#763,#773,#779,#780));
#763 = ORIENTED_EDGE('',*,*,#764,.F.);
#764 = EDGE_CURVE('',#765,#767,#769,.T.);
#765 = VERTEX_POINT('',#766);
#766 = CARTESIAN_POINT('',(35.,36.225,37.5));
#767 = VERTEX_POINT('',#768);
#768 = CARTESIAN_POINT('',(35.,80.,37.5));
#769 = LINE('',#770,#771);
#770 = CARTESIAN_POINT('',(35.,1.7E-14,37.5));
#771 = VECTOR('',#772,1.);
#772 = DIRECTION('',(0.,1.,0.));
#773 = ORIENTED_EDGE('',*,*,#774,.T.);
#774 = EDGE_CURVE('',#765,#427,#775,.T.);
#775 = LINE('',#776,#777);
#776 = CARTESIAN_POINT('',(35.,36.225,37.5));
#777 = VECTOR('',#778,1.);
#778 = DIRECTION('',(-1.,2.2E-16,-0.));
#779 = ORIENTED_EDGE('',*,*,#426,.T.);
#780 = ORIENTED_EDGE('',*,*,#781,.T.);
#781 = EDGE_CURVE('',#429,#767,#782,.T.);
#782 = CIRCLE('',#783,5.);
#783 = AXIS2_PLACEMENT_3D('',#784,#785,#786);
#784 = CARTESIAN_POINT('',(30.,80.,37.5));
#785 = DIRECTION('',(0.,0.,1.));
#786 = DIRECTION('',(1.,0.,0.));
#787 = PLANE('',#788);
#788 = AXIS2_PLACEMENT_3D('',#789,#790,#791);
#789 = CARTESIAN_POINT('',(17.5,42.5,37.5));
#790 = DIRECTION('',(0.,-2.2E-16,-1.));
#791 = DIRECTION('',(0.,1.,-2.2E-16));
#792 = ADVANCED_FACE('',(#793),#812,.T.);
#793 = FACE_BOUND('',#794,.T.);
#794 = EDGE_LOOP('',(#795,#796,#797,#798,#806));
#795 = ORIENTED_EDGE('',*,*,#774,.T.);
#796 = ORIENTED_EDGE('',*,*,#436,.T.);
#797 = ORIENTED_EDGE('',*,*,#710,.T.);
#798 = ORIENTED_EDGE('',*,*,#799,.F.);
#799 = EDGE_CURVE('',#800,#703,#802,.T.);
#800 = VERTEX_POINT('',#801);
#801 = CARTESIAN_POINT('',(35.,36.225,27.5));
#802 = LINE('',#803,#804);
#803 = CARTESIAN_POINT('',(35.,36.225,27.5));
#804 = VECTOR('',#805,1.);
#805 = DIRECTION('',(-1.,2.2E-16,-0.));
#806 = ORIENTED_EDGE('',*,*,#807,.F.);
#807 = EDGE_CURVE('',#765,#800,#808,.T.);
#808 = LINE('',#809,#810);
#809 = CARTESIAN_POINT('',(35.,36.225,37.5));
#810 = VECTOR('',#811,1.);
#811 = DIRECTION('',(0.,0.,-1.));
#812 = PLANE('',#813);
#813 = AXIS2_PLACEMENT_3D('',#814,#815,#816);
#814 = CARTESIAN_POINT('',(35.,36.225,37.5));
#815 = DIRECTION('',(-2.2E-16,-1.,2.2E-16));
#816 = DIRECTION('',(0.,-2.2E-16,-1.));
#817 = ADVANCED_FACE('',(#818),#836,.F.);
#818 = FACE_BOUND('',#819,.T.);
#819 = EDGE_LOOP('',(#820,#828,#834,#835));
#820 = ORIENTED_EDGE('',*,*,#821,.F.);
#821 = EDGE_CURVE('',#822,#541,#824,.T.);
#822 = VERTEX_POINT('',#823);
#823 = CARTESIAN_POINT('',(0.,5.,37.5));
#824 = LINE('',#825,#826);
#825 = CARTESIAN_POINT('',(0.,5.,37.5));
#826 = VECTOR('',#827,1.);
#827 = DIRECTION('',(-1.,-0.,-0.));
#828 = ORIENTED_EDGE('',*,*,#829,.T.);
#829 = EDGE_CURVE('',#822,#460,#830,.T.);
#830 = LINE('',#831,#832);
#831 = CARTESIAN_POINT('',(0.,5.,37.5));
#832 = VECTOR('',#833,1.);
#833 = DIRECTION('',(0.,-4.4E-16,-1.));
#834 = ORIENTED_EDGE('',*,*,#459,.T.);
#835 = ORIENTED_EDGE('',*,*,#549,.F.);
#836 = PLANE('',#837);
#837 = AXIS2_PLACEMENT_3D('',#838,#839,#840);
#838 = CARTESIAN_POINT('',(0.,5.,37.5));
#839 = DIRECTION('',(0.,-1.,4.4E-16));
#840 = DIRECTION('',(1.,0.,0.));
#841 = ADVANCED_FACE('',(#842),#862,.F.);
#842 = FACE_BOUND('',#843,.F.);
#843 = EDGE_LOOP('',(#844,#852,#853,#854,#855));
#844 = ORIENTED_EDGE('',*,*,#845,.F.);
#845 = EDGE_CURVE('',#460,#846,#848,.T.);
#846 = VERTEX_POINT('',#847);
#847 = CARTESIAN_POINT('',(25.,5.,5.));
#848 = LINE('',#849,#850);
#849 = CARTESIAN_POINT('',(0.,5.,5.));
#850 = VECTOR('',#851,1.);
#851 = DIRECTION('',(1.,0.,0.));
#852 = ORIENTED_EDGE('',*,*,#469,.F.);
#853 = ORIENTED_EDGE('',*,*,#679,.F.);
#854 = ORIENTED_EDGE('',*,*,#742,.F.);
#855 = ORIENTED_EDGE('',*,*,#856,.T.);
#856 = EDGE_CURVE('',#735,#846,#857,.T.);
#857 = CIRCLE('',#858,5.);
#858 = AXIS2_PLACEMENT_3D('',#859,#860,#861);
#859 = CARTESIAN_POINT('',(30.,5.,5.));
#860 = DIRECTION('',(0.,0.,1.));
#861 = DIRECTION('',(1.,0.,0.));
#862 = PLANE('',#863);
#863 = AXIS2_PLACEMENT_3D('',#864,#865,#866);
#864 = CARTESIAN_POINT('',(15.,42.5,5.));
#865 = DIRECTION('',(0.,-2.8E-16,-1.));
#866 = DIRECTION('',(0.,1.,-2.8E-16));
#867 = ADVANCED_FACE('',(#868),#909,.F.);
#868 = FACE_BOUND('',#869,.T.);
#869 = EDGE_LOOP('',(#870,#880,#886,#887,#895,#903));
#870 = ORIENTED_EDGE('',*,*,#871,.T.);
#871 = EDGE_CURVE('',#872,#874,#876,.T.);
#872 = VERTEX_POINT('',#873);
#873 = CARTESIAN_POINT('',(-35.,0.,0.));
#874 = VERTEX_POINT('',#875);
#875 = CARTESIAN_POINT('',(-35.,1.7E-14,37.5));
#876 = LINE('',#877,#878);
#877 = CARTESIAN_POINT('',(-35.,0.,0.));
#878 = VECTOR('',#879,1.);
#879 = DIRECTION('',(0.,4.4E-16,1.));
#880 = ORIENTED_EDGE('',*,*,#881,.T.);
#881 = EDGE_CURVE('',#874,#506,#882,.T.);
#882 = LINE('',#883,#884);
#883 = CARTESIAN_POINT('',(-35.,1.7E-14,37.5));
#884 = VECTOR('',#885,1.);
#885 = DIRECTION('',(0.,1.,0.));
#886 = ORIENTED_EDGE('',*,*,#505,.T.);
#887 = ORIENTED_EDGE('',*,*,#888,.T.);
#888 = EDGE_CURVE('',#508,#889,#891,.T.);
#889 = VERTEX_POINT('',#890);
#890 = CARTESIAN_POINT('',(-35.,85.,37.5));
#891 = LINE('',#892,#893);
#892 = CARTESIAN_POINT('',(-35.,1.7E-14,37.5));
#893 = VECTOR('',#894,1.);
#894 = DIRECTION('',(0.,1.,0.));
#895 = ORIENTED_EDGE('',*,*,#896,.F.);
#896 = EDGE_CURVE('',#897,#889,#899,.T.);
#897 = VERTEX_POINT('',#898);
#898 = CARTESIAN_POINT('',(-35.,85.,-3.8E-14));
#899 = LINE('',#900,#901);
#900 = CARTESIAN_POINT('',(-35.,85.,-3.775E-14));
#901 = VECTOR('',#902,1.);
#902 = DIRECTION('',(0.,4.4E-16,1.));
#903 = ORIENTED_EDGE('',*,*,#904,.F.);
#904 = EDGE_CURVE('',#872,#897,#905,.T.);
#905 = LINE('',#906,#907);
#906 = CARTESIAN_POINT('',(-35.,0.,0.));
#907 = VECTOR('',#908,1.);
#908 = DIRECTION('',(0.,1.,0.));
#909 = PLANE('',#910);
#910 = AXIS2_PLACEMENT_3D('',#911,#912,#913);
#911 = CARTESIAN_POINT('',(-35.,0.,0.));
#912 = DIRECTION('',(1.,0.,0.));
#913 = DIRECTION('',(0.,-1.,4.4E-16));
#914 = ADVANCED_FACE('',(#915),#944,.F.);
#915 = FACE_BOUND('',#916,.T.);
#916 = EDGE_LOOP('',(#917,#924,#925,#926,#935,#942,#943));
#917 = ORIENTED_EDGE('',*,*,#918,.F.);
#918 = EDGE_CURVE('',#508,#596,#919,.T.);
#919 = CIRCLE('',#920,5.);
#920 = AXIS2_PLACEMENT_3D('',#921,#922,#923);
#921 = CARTESIAN_POINT('',(-30.,80.,37.5));
#922 = DIRECTION('',(0.,0.,-1.));
#923 = DIRECTION('',(-1.,-0.,-0.));
#924 = ORIENTED_EDGE('',*,*,#523,.F.);
#925 = ORIENTED_EDGE('',*,*,#563,.T.);
#926 = ORIENTED_EDGE('',*,*,#927,.T.);
#927 = EDGE_CURVE('',#564,#928,#930,.T.);
#928 = VERTEX_POINT('',#929);
#929 = CARTESIAN_POINT('',(-31.75,80.,37.5));
#930 = CIRCLE('',#931,1.75);
#931 = AXIS2_PLACEMENT_3D('',#932,#933,#934);
#932 = CARTESIAN_POINT('',(-30.,80.,37.5));
#933 = DIRECTION('',(0.,0.,-1.));
#934 = DIRECTION('',(-1.,-0.,-0.));
#935 = ORIENTED_EDGE('',*,*,#936,.T.);
#936 = EDGE_CURVE('',#928,#573,#937,.T.);
#937 = CIRCLE('',#938,1.75);
#938 = AXIS2_PLACEMENT_3D('',#939,#940,#941);
#939 = CARTESIAN_POINT('',(-30.,80.,37.5));
#940 = DIRECTION('',(0.,0.,-1.));
#941 = DIRECTION('',(-1.,-0.,-0.));
#942 = ORIENTED_EDGE('',*,*,#572,.T.);
#943 = ORIENTED_EDGE('',*,*,#605,.F.);
#944 = PLANE('',#945);
#945 = AXIS2_PLACEMENT_3D('',#946,#947,#948);
#946 = CARTESIAN_POINT('',(-17.5,42.5,37.5));
#947 = DIRECTION('',(0.,-2.2E-16,-1.));
#948 = DIRECTION('',(-0.,-1.,2.2E-16));
#949 = ADVANCED_FACE('',(#950),#1001,.F.);
#950 = FACE_BOUND('',#951,.T.);
#951 = EDGE_LOOP('',(#952,#961,#968,#976,#985,#994,#1000));
#952 = ORIENTED_EDGE('',*,*,#953,.F.);
#953 = EDGE_CURVE('',#954,#506,#956,.T.);
#954 = VERTEX_POINT('',#955);
#955 = CARTESIAN_POINT('',(-30.,1.7E-14,37.5));
#956 = CIRCLE('',#957,5.);
#957 = AXIS2_PLACEMENT_3D('',#958,#959,#960);
#958 = CARTESIAN_POINT('',(-30.,5.,37.5));
#959 = DIRECTION('',(0.,0.,-1.));
#960 = DIRECTION('',(-1.,-0.,-0.));
#961 = ORIENTED_EDGE('',*,*,#962,.F.);
#962 = EDGE_CURVE('',#541,#954,#963,.T.);
#963 = CIRCLE('',#964,5.);
#964 = AXIS2_PLACEMENT_3D('',#965,#966,#967);
#965 = CARTESIAN_POINT('',(-30.,5.,37.5));
#966 = DIRECTION('',(0.,0.,-1.));
#967 = DIRECTION('',(-1.,-0.,-0.));
#968 = ORIENTED_EDGE('',*,*,#969,.T.);
#969 = EDGE_CURVE('',#541,#970,#972,.T.);
#970 = VERTEX_POINT('',#971);
#971 = CARTESIAN_POINT('',(-28.25,5.,37.5));
#972 = LINE('',#973,#974);
#973 = CARTESIAN_POINT('',(0.,5.,37.5));
#974 = VECTOR('',#975,1.);
#975 = DIRECTION('',(-1.,-0.,-0.));
#976 = ORIENTED_EDGE('',*,*,#977,.T.);
#977 = EDGE_CURVE('',#970,#978,#980,.T.);
#978 = VERTEX_POINT('',#979);
#979 = CARTESIAN_POINT('',(-31.75,5.,37.5));
#980 = CIRCLE('',#981,1.75);
#981 = AXIS2_PLACEMENT_3D('',#982,#983,#984);
#982 = CARTESIAN_POINT('',(-30.,5.,37.5));
#983 = DIRECTION('',(0.,0.,-1.));
#984 = DIRECTION('',(-1.,-0.,-0.));
#985 = ORIENTED_EDGE('',*,*,#986,.T.);
#986 = EDGE_CURVE('',#978,#987,#989,.T.);
#987 = VERTEX_POINT('',#988);
#988 = CARTESIAN_POINT('',(-30.,6.75,37.5));
#989 = CIRCLE('',#990,1.75);
#990 = AXIS2_PLACEMENT_3D('',#991,#992,#993);
#991 = CARTESIAN_POINT('',(-30.,5.,37.5));
#992 = DIRECTION('',(0.,0.,-1.));
#993 = DIRECTION('',(-1.,-0.,-0.));
#994 = ORIENTED_EDGE('',*,*,#995,.T.);
#995 = EDGE_CURVE('',#987,#220,#996,.T.);
#996 = LINE('',#997,#998);
#997 = CARTESIAN_POINT('',(-30.,5.,37.5));
#998 = VECTOR('',#999,1.);
#999 = DIRECTION('',(0.,1.,0.));
#1000 = ORIENTED_EDGE('',*,*,#515,.F.);
#1001 = PLANE('',#1002);
#1002 = AXIS2_PLACEMENT_3D('',#1003,#1004,#1005);
#1003 = CARTESIAN_POINT('',(-17.5,42.5,37.5));
#1004 = DIRECTION('',(0.,-2.2E-16,-1.));
#1005 = DIRECTION('',(-0.,-1.,2.2E-16));
#1006 = ADVANCED_FACE('',(#1007),#1019,.F.);
#1007 = FACE_BOUND('',#1008,.T.);
#1008 = EDGE_LOOP('',(#1009,#1010,#1011,#1018));
#1009 = ORIENTED_EDGE('',*,*,#540,.F.);
#1010 = ORIENTED_EDGE('',*,*,#995,.F.);
#1011 = ORIENTED_EDGE('',*,*,#1012,.T.);
#1012 = EDGE_CURVE('',#987,#970,#1013,.T.);
#1013 = CIRCLE('',#1014,1.75);
#1014 = AXIS2_PLACEMENT_3D('',#1015,#1016,#1017);
#1015 = CARTESIAN_POINT('',(-30.,5.,37.5));
#1016 = DIRECTION('',(0.,0.,-1.));
#1017 = DIRECTION('',(-1.,-0.,-0.));
#1018 = ORIENTED_EDGE('',*,*,#969,.F.);
#1019 = PLANE('',#1020);
#1020 = AXIS2_PLACEMENT_3D('',#1021,#1022,#1023);
#1021 = CARTESIAN_POINT('',(-30.,42.5,37.5));
#1022 = DIRECTION('',(0.,-2.2E-16,-1.));
#1023 = DIRECTION('',(-0.,-1.,2.2E-16));
#1024 = ADVANCED_FACE('',(#1025),#1046,.F.);
#1025 = FACE_BOUND('',#1026,.T.);
#1026 = EDGE_LOOP('',(#1027,#1035,#1036,#1037,#1038,#1039));
#1027 = ORIENTED_EDGE('',*,*,#1028,.F.);
#1028 = EDGE_CURVE('',#928,#1029,#1031,.T.);
#1029 = VERTEX_POINT('',#1030);
#1030 = CARTESIAN_POINT('',(-31.75,80.,30.));
#1031 = LINE('',#1032,#1033);
#1032 = CARTESIAN_POINT('',(-31.75,80.,37.5));
#1033 = VECTOR('',#1034,1.);
#1034 = DIRECTION('',(-0.,-4.4E-16,-1.));
#1035 = ORIENTED_EDGE('',*,*,#927,.F.);
#1036 = ORIENTED_EDGE('',*,*,#580,.F.);
#1037 = ORIENTED_EDGE('',*,*,#936,.F.);
#1038 = ORIENTED_EDGE('',*,*,#1028,.T.);
#1039 = ORIENTED_EDGE('',*,*,#1040,.F.);
#1040 = EDGE_CURVE('',#1029,#1029,#1041,.T.);
#1041 = CIRCLE('',#1042,1.75);
#1042 = AXIS2_PLACEMENT_3D('',#1043,#1044,#1045);
#1043 = CARTESIAN_POINT('',(-30.,80.,30.));
#1044 = DIRECTION('',(0.,4.4E-16,1.));
#1045 = DIRECTION('',(-1.,0.,0.));
#1046 = CYLINDRICAL_SURFACE('',#1047,1.75);
#1047 = AXIS2_PLACEMENT_3D('',#1048,#1049,#1050);
#1048 = CARTESIAN_POINT('',(-30.,80.,37.5));
#1049 = DIRECTION('',(0.,4.4E-16,1.));
#1050 = DIRECTION('',(-1.,0.,0.));
#1051 = ADVANCED_FACE('',(#1052),#1076,.F.);
#1052 = FACE_BOUND('',#1053,.T.);
#1053 = EDGE_LOOP('',(#1054,#1055,#1061,#1062,#1070));
#1054 = ORIENTED_EDGE('',*,*,#896,.T.);
#1055 = ORIENTED_EDGE('',*,*,#1056,.T.);
#1056 = EDGE_CURVE('',#889,#596,#1057,.T.);
#1057 = LINE('',#1058,#1059);
#1058 = CARTESIAN_POINT('',(-35.,85.,37.5));
#1059 = VECTOR('',#1060,1.);
#1060 = DIRECTION('',(1.,0.,0.));
#1061 = ORIENTED_EDGE('',*,*,#595,.T.);
#1062 = ORIENTED_EDGE('',*,*,#1063,.F.);
#1063 = EDGE_CURVE('',#1064,#598,#1066,.T.);
#1064 = VERTEX_POINT('',#1065);
#1065 = CARTESIAN_POINT('',(0.,85.,-3.8E-14));
#1066 = LINE('',#1067,#1068);
#1067 = CARTESIAN_POINT('',(0.,85.,-3.775E-14));
#1068 = VECTOR('',#1069,1.);
#1069 = DIRECTION('',(0.,4.4E-16,1.));
#1070 = ORIENTED_EDGE('',*,*,#1071,.F.);
#1071 = EDGE_CURVE('',#897,#1064,#1072,.T.);
#1072 = LINE('',#1073,#1074);
#1073 = CARTESIAN_POINT('',(-35.,85.,0.));
#1074 = VECTOR('',#1075,1.);
#1075 = DIRECTION('',(1.,0.,0.));
#1076 = PLANE('',#1077);
#1077 = AXIS2_PLACEMENT_3D('',#1078,#1079,#1080);
#1078 = CARTESIAN_POINT('',(-35.,85.,-3.775E-14));
#1079 = DIRECTION('',(0.,-1.,4.4E-16));
#1080 = DIRECTION('',(-1.,0.,0.));
#1081 = ADVANCED_FACE('',(#1082),#1101,.F.);
#1082 = FACE_BOUND('',#1083,.F.);
#1083 = EDGE_LOOP('',(#1084,#1092,#1099,#1100));
#1084 = ORIENTED_EDGE('',*,*,#1085,.F.);
#1085 = EDGE_CURVE('',#1086,#598,#1088,.T.);
#1086 = VERTEX_POINT('',#1087);
#1087 = CARTESIAN_POINT('',(30.,85.,37.5));
#1088 = LINE('',#1089,#1090);
#1089 = CARTESIAN_POINT('',(35.,85.,37.5));
#1090 = VECTOR('',#1091,1.);
#1091 = DIRECTION('',(-1.,0.,0.));
#1092 = ORIENTED_EDGE('',*,*,#1093,.T.);
#1093 = EDGE_CURVE('',#1086,#628,#1094,.T.);
#1094 = CIRCLE('',#1095,5.);
#1095 = AXIS2_PLACEMENT_3D('',#1096,#1097,#1098);
#1096 = CARTESIAN_POINT('',(30.,80.,37.5));
#1097 = DIRECTION('',(0.,0.,1.));
#1098 = DIRECTION('',(1.,0.,0.));
#1099 = ORIENTED_EDGE('',*,*,#627,.T.);
#1100 = ORIENTED_EDGE('',*,*,#613,.F.);
#1101 = PLANE('',#1102);
#1102 = AXIS2_PLACEMENT_3D('',#1103,#1104,#1105);
#1103 = CARTESIAN_POINT('',(17.5,42.5,37.5));
#1104 = DIRECTION('',(0.,-2.2E-16,-1.));
#1105 = DIRECTION('',(0.,1.,-2.2E-16));
#1106 = ADVANCED_FACE('',(#1107),#1133,.F.);
#1107 = FACE_BOUND('',#1108,.F.);
#1108 = EDGE_LOOP('',(#1109,#1117,#1118,#1126));
#1109 = ORIENTED_EDGE('',*,*,#1110,.F.);
#1110 = EDGE_CURVE('',#429,#1111,#1113,.T.);
#1111 = VERTEX_POINT('',#1112);
#1112 = CARTESIAN_POINT('',(30.,78.25,37.5));
#1113 = LINE('',#1114,#1115);
#1114 = CARTESIAN_POINT('',(30.,5.,37.5));
#1115 = VECTOR('',#1116,1.);
#1116 = DIRECTION('',(0.,1.,0.));
#1117 = ORIENTED_EDGE('',*,*,#654,.F.);
#1118 = ORIENTED_EDGE('',*,*,#1119,.F.);
#1119 = EDGE_CURVE('',#1120,#628,#1122,.T.);
#1120 = VERTEX_POINT('',#1121);
#1121 = CARTESIAN_POINT('',(28.25,80.,37.5));
#1122 = LINE('',#1123,#1124);
#1123 = CARTESIAN_POINT('',(30.,80.,37.5));
#1124 = VECTOR('',#1125,1.);
#1125 = DIRECTION('',(-1.,0.,0.));
#1126 = ORIENTED_EDGE('',*,*,#1127,.T.);
#1127 = EDGE_CURVE('',#1120,#1111,#1128,.T.);
#1128 = CIRCLE('',#1129,1.75);
#1129 = AXIS2_PLACEMENT_3D('',#1130,#1131,#1132);
#1130 = CARTESIAN_POINT('',(30.,80.,37.5));
#1131 = DIRECTION('',(0.,0.,1.));
#1132 = DIRECTION('',(1.,0.,0.));
#1133 = PLANE('',#1134);
#1134 = AXIS2_PLACEMENT_3D('',#1135,#1136,#1137);
#1135 = CARTESIAN_POINT('',(30.,42.5,37.5));
#1136 = DIRECTION('',(0.,-2.2E-16,-1.));
#1137 = DIRECTION('',(0.,1.,-2.2E-16));
#1138 = ADVANCED_FACE('',(#1139),#1157,.T.);
#1139 = FACE_BOUND('',#1140,.T.);
#1140 = EDGE_LOOP('',(#1141,#1142,#1143,#1151));
#1141 = ORIENTED_EDGE('',*,*,#799,.T.);
#1142 = ORIENTED_EDGE('',*,*,#702,.T.);
#1143 = ORIENTED_EDGE('',*,*,#1144,.F.);
#1144 = EDGE_CURVE('',#1145,#695,#1147,.T.);
#1145 = VERTEX_POINT('',#1146);
#1146 = CARTESIAN_POINT('',(35.,21.225,27.5));
#1147 = LINE('',#1148,#1149);
#1148 = CARTESIAN_POINT('',(35.,21.225,27.5));
#1149 = VECTOR('',#1150,1.);
#1150 = DIRECTION('',(-1.,2.2E-16,-0.));
#1151 = ORIENTED_EDGE('',*,*,#1152,.F.);
#1152 = EDGE_CURVE('',#800,#1145,#1153,.T.);
#1153 = LINE('',#1154,#1155);
#1154 = CARTESIAN_POINT('',(35.,36.225,27.5));
#1155 = VECTOR('',#1156,1.);
#1156 = DIRECTION('',(0.,-1.,0.));
#1157 = PLANE('',#1158);
#1158 = AXIS2_PLACEMENT_3D('',#1159,#1160,#1161);
#1159 = CARTESIAN_POINT('',(35.,36.225,27.5));
#1160 = DIRECTION('',(0.,2.2E-16,1.));
#1161 = DIRECTION('',(-2.2E-16,-1.,2.2E-16));
#1162 = ADVANCED_FACE('',(#1163),#1182,.T.);
#1163 = FACE_BOUND('',#1164,.T.);
#1164 = EDGE_LOOP('',(#1165,#1166,#1167,#1168,#1176));
#1165 = ORIENTED_EDGE('',*,*,#1144,.T.);
#1166 = ORIENTED_EDGE('',*,*,#694,.T.);
#1167 = ORIENTED_EDGE('',*,*,#750,.T.);
#1168 = ORIENTED_EDGE('',*,*,#1169,.F.);
#1169 = EDGE_CURVE('',#1170,#727,#1172,.T.);
#1170 = VERTEX_POINT('',#1171);
#1171 = CARTESIAN_POINT('',(35.,21.225,37.5));
#1172 = LINE('',#1173,#1174);
#1173 = CARTESIAN_POINT('',(35.,21.225,37.5));
#1174 = VECTOR('',#1175,1.);
#1175 = DIRECTION('',(-1.,2.2E-16,-0.));
#1176 = ORIENTED_EDGE('',*,*,#1177,.F.);
#1177 = EDGE_CURVE('',#1145,#1170,#1178,.T.);
#1178 = LINE('',#1179,#1180);
#1179 = CARTESIAN_POINT('',(35.,21.225,27.5));
#1180 = VECTOR('',#1181,1.);
#1181 = DIRECTION('',(0.,0.,1.));
#1182 = PLANE('',#1183);
#1183 = AXIS2_PLACEMENT_3D('',#1184,#1185,#1186);
#1184 = CARTESIAN_POINT('',(35.,21.225,27.5));
#1185 = DIRECTION('',(2.2E-16,1.,-2.2E-16));
#1186 = DIRECTION('',(0.,2.2E-16,1.));
#1187 = ADVANCED_FACE('',(#1188),#1207,.F.);
#1188 = FACE_BOUND('',#1189,.F.);
#1189 = EDGE_LOOP('',(#1190,#1198,#1205,#1206));
#1190 = ORIENTED_EDGE('',*,*,#1191,.F.);
#1191 = EDGE_CURVE('',#1192,#1170,#1194,.T.);
#1192 = VERTEX_POINT('',#1193);
#1193 = CARTESIAN_POINT('',(35.,5.,37.5));
#1194 = LINE('',#1195,#1196);
#1195 = CARTESIAN_POINT('',(35.,1.7E-14,37.5));
#1196 = VECTOR('',#1197,1.);
#1197 = DIRECTION('',(0.,1.,0.));
#1198 = ORIENTED_EDGE('',*,*,#1199,.T.);
#1199 = EDGE_CURVE('',#1192,#725,#1200,.T.);
#1200 = CIRCLE('',#1201,5.);
#1201 = AXIS2_PLACEMENT_3D('',#1202,#1203,#1204);
#1202 = CARTESIAN_POINT('',(30.,5.,37.5));
#1203 = DIRECTION('',(0.,0.,1.));
#1204 = DIRECTION('',(1.,0.,0.));
#1205 = ORIENTED_EDGE('',*,*,#724,.T.);
#1206 = ORIENTED_EDGE('',*,*,#1169,.F.);
#1207 = PLANE('',#1208);
#1208 = AXIS2_PLACEMENT_3D('',#1209,#1210,#1211);
#1209 = CARTESIAN_POINT('',(17.5,42.5,37.5));
#1210 = DIRECTION('',(0.,-2.2E-16,-1.));
#1211 = DIRECTION('',(0.,1.,-2.2E-16));
#1212 = ADVANCED_FACE('',(#1213),#1232,.T.);
#1213 = FACE_BOUND('',#1214,.F.);
#1214 = EDGE_LOOP('',(#1215,#1216,#1217,#1226));
#1215 = ORIENTED_EDGE('',*,*,#856,.F.);
#1216 = ORIENTED_EDGE('',*,*,#734,.F.);
#1217 = ORIENTED_EDGE('',*,*,#1218,.T.);
#1218 = EDGE_CURVE('',#725,#1219,#1221,.T.);
#1219 = VERTEX_POINT('',#1220);
#1220 = CARTESIAN_POINT('',(25.,5.,37.5));
#1221 = CIRCLE('',#1222,5.);
#1222 = AXIS2_PLACEMENT_3D('',#1223,#1224,#1225);
#1223 = CARTESIAN_POINT('',(30.,5.,37.5));
#1224 = DIRECTION('',(0.,0.,1.));
#1225 = DIRECTION('',(1.,0.,0.));
#1226 = ORIENTED_EDGE('',*,*,#1227,.T.);
#1227 = EDGE_CURVE('',#1219,#846,#1228,.T.);
#1228 = LINE('',#1229,#1230);
#1229 = CARTESIAN_POINT('',(25.,5.,5.));
#1230 = VECTOR('',#1231,1.);
#1231 = DIRECTION('',(0.,-4.4E-16,-1.));
#1232 = CYLINDRICAL_SURFACE('',#1233,5.);
#1233 = AXIS2_PLACEMENT_3D('',#1234,#1235,#1236);
#1234 = CARTESIAN_POINT('',(30.,5.,5.));
#1235 = DIRECTION('',(0.,-4.4E-16,-1.));
#1236 = DIRECTION('',(1.,0.,0.));
#1237 = ADVANCED_FACE('',(#1238),#1283,.F.);
#1238 = FACE_BOUND('',#1239,.F.);
#1239 = EDGE_LOOP('',(#1240,#1250,#1258,#1264,#1265,#1266,#1267,#1268,
    #1269,#1277));
#1240 = ORIENTED_EDGE('',*,*,#1241,.F.);
#1241 = EDGE_CURVE('',#1242,#1244,#1246,.T.);
#1242 = VERTEX_POINT('',#1243);
#1243 = CARTESIAN_POINT('',(35.,0.,0.));
#1244 = VERTEX_POINT('',#1245);
#1245 = CARTESIAN_POINT('',(35.,85.,0.));
#1246 = LINE('',#1247,#1248);
#1247 = CARTESIAN_POINT('',(35.,0.,0.));
#1248 = VECTOR('',#1249,1.);
#1249 = DIRECTION('',(0.,1.,0.));
#1250 = ORIENTED_EDGE('',*,*,#1251,.T.);
#1251 = EDGE_CURVE('',#1242,#1252,#1254,.T.);
#1252 = VERTEX_POINT('',#1253);
#1253 = CARTESIAN_POINT('',(35.,1.7E-14,37.5));
#1254 = LINE('',#1255,#1256);
#1255 = CARTESIAN_POINT('',(35.,0.,0.));
#1256 = VECTOR('',#1257,1.);
#1257 = DIRECTION('',(0.,4.4E-16,1.));
#1258 = ORIENTED_EDGE('',*,*,#1259,.T.);
#1259 = EDGE_CURVE('',#1252,#1192,#1260,.T.);
#1260 = LINE('',#1261,#1262);
#1261 = CARTESIAN_POINT('',(35.,1.7E-14,37.5));
#1262 = VECTOR('',#1263,1.);
#1263 = DIRECTION('',(0.,1.,0.));
#1264 = ORIENTED_EDGE('',*,*,#1191,.T.);
#1265 = ORIENTED_EDGE('',*,*,#1177,.F.);
#1266 = ORIENTED_EDGE('',*,*,#1152,.F.);
#1267 = ORIENTED_EDGE('',*,*,#807,.F.);
#1268 = ORIENTED_EDGE('',*,*,#764,.T.);
#1269 = ORIENTED_EDGE('',*,*,#1270,.T.);
#1270 = EDGE_CURVE('',#767,#1271,#1273,.T.);
#1271 = VERTEX_POINT('',#1272);
#1272 = CARTESIAN_POINT('',(35.,85.,37.5));
#1273 = LINE('',#1274,#1275);
#1274 = CARTESIAN_POINT('',(35.,1.7E-14,37.5));
#1275 = VECTOR('',#1276,1.);
#1276 = DIRECTION('',(0.,1.,0.));
#1277 = ORIENTED_EDGE('',*,*,#1278,.F.);
#1278 = EDGE_CURVE('',#1244,#1271,#1279,.T.);
#1279 = LINE('',#1280,#1281);
#1280 = CARTESIAN_POINT('',(35.,85.,-3.775E-14));
#1281 = VECTOR('',#1282,1.);
#1282 = DIRECTION('',(0.,4.4E-16,1.));
#1283 = PLANE('',#1284);
#1284 = AXIS2_PLACEMENT_3D('',#1285,#1286,#1287);
#1285 = CARTESIAN_POINT('',(35.,0.,0.));
#1286 = DIRECTION('',(-1.,0.,0.));
#1287 = DIRECTION('',(0.,1.,-4.4E-16));
#1288 = ADVANCED_FACE('',(#1289),#1318,.F.);
#1289 = FACE_BOUND('',#1290,.F.);
#1290 = EDGE_LOOP('',(#1291,#1298,#1299,#1300,#1309,#1316,#1317));
#1291 = ORIENTED_EDGE('',*,*,#1292,.F.);
#1292 = EDGE_CURVE('',#767,#1086,#1293,.T.);
#1293 = CIRCLE('',#1294,5.);
#1294 = AXIS2_PLACEMENT_3D('',#1295,#1296,#1297);
#1295 = CARTESIAN_POINT('',(30.,80.,37.5));
#1296 = DIRECTION('',(0.,0.,1.));
#1297 = DIRECTION('',(1.,0.,0.));
#1298 = ORIENTED_EDGE('',*,*,#781,.F.);
#1299 = ORIENTED_EDGE('',*,*,#1110,.T.);
#1300 = ORIENTED_EDGE('',*,*,#1301,.T.);
#1301 = EDGE_CURVE('',#1111,#1302,#1304,.T.);
#1302 = VERTEX_POINT('',#1303);
#1303 = CARTESIAN_POINT('',(31.75,80.,37.5));
#1304 = CIRCLE('',#1305,1.75);
#1305 = AXIS2_PLACEMENT_3D('',#1306,#1307,#1308);
#1306 = CARTESIAN_POINT('',(30.,80.,37.5));
#1307 = DIRECTION('',(0.,0.,1.));
#1308 = DIRECTION('',(1.,0.,0.));
#1309 = ORIENTED_EDGE('',*,*,#1310,.T.);
#1310 = EDGE_CURVE('',#1302,#1120,#1311,.T.);
#1311 = CIRCLE('',#1312,1.75);
#1312 = AXIS2_PLACEMENT_3D('',#1313,#1314,#1315);
#1313 = CARTESIAN_POINT('',(30.,80.,37.5));
#1314 = DIRECTION('',(0.,0.,1.));
#1315 = DIRECTION('',(1.,0.,0.));
#1316 = ORIENTED_EDGE('',*,*,#1119,.T.);
#1317 = ORIENTED_EDGE('',*,*,#1093,.F.);
#1318 = PLANE('',#1319);
#1319 = AXIS2_PLACEMENT_3D('',#1320,#1321,#1322);
#1320 = CARTESIAN_POINT('',(17.5,42.5,37.5));
#1321 = DIRECTION('',(0.,-2.2E-16,-1.));
#1322 = DIRECTION('',(0.,1.,-2.2E-16));
#1323 = ADVANCED_FACE('',(#1324),#1342,.F.);
#1324 = FACE_BOUND('',#1325,.T.);
#1325 = EDGE_LOOP('',(#1326,#1334,#1340,#1341));
#1326 = ORIENTED_EDGE('',*,*,#1327,.F.);
#1327 = EDGE_CURVE('',#1328,#954,#1330,.T.);
#1328 = VERTEX_POINT('',#1329);
#1329 = CARTESIAN_POINT('',(0.,1.7E-14,37.5));
#1330 = LINE('',#1331,#1332);
#1331 = CARTESIAN_POINT('',(0.,1.7E-14,37.5));
#1332 = VECTOR('',#1333,1.);
#1333 = DIRECTION('',(-1.,-0.,-0.));
#1334 = ORIENTED_EDGE('',*,*,#1335,.F.);
#1335 = EDGE_CURVE('',#822,#1328,#1336,.T.);
#1336 = LINE('',#1337,#1338);
#1337 = CARTESIAN_POINT('',(0.,85.,37.5));
#1338 = VECTOR('',#1339,1.);
#1339 = DIRECTION('',(0.,-1.,0.));
#1340 = ORIENTED_EDGE('',*,*,#821,.T.);
#1341 = ORIENTED_EDGE('',*,*,#962,.T.);
#1342 = PLANE('',#1343);
#1343 = AXIS2_PLACEMENT_3D('',#1344,#1345,#1346);
#1344 = CARTESIAN_POINT('',(-17.5,42.5,37.5));
#1345 = DIRECTION('',(0.,-2.2E-16,-1.));
#1346 = DIRECTION('',(-0.,-1.,2.2E-16));
#1347 = ADVANCED_FACE('',(#1348),#1359,.F.);
#1348 = FACE_BOUND('',#1349,.F.);
#1349 = EDGE_LOOP('',(#1350,#1356,#1357,#1358));
#1350 = ORIENTED_EDGE('',*,*,#1351,.F.);
#1351 = EDGE_CURVE('',#822,#1219,#1352,.T.);
#1352 = LINE('',#1353,#1354);
#1353 = CARTESIAN_POINT('',(0.,5.,37.5));
#1354 = VECTOR('',#1355,1.);
#1355 = DIRECTION('',(1.,0.,0.));
#1356 = ORIENTED_EDGE('',*,*,#829,.T.);
#1357 = ORIENTED_EDGE('',*,*,#845,.T.);
#1358 = ORIENTED_EDGE('',*,*,#1227,.F.);
#1359 = PLANE('',#1360);
#1360 = AXIS2_PLACEMENT_3D('',#1361,#1362,#1363);
#1361 = CARTESIAN_POINT('',(0.,5.,37.5));
#1362 = DIRECTION('',(0.,-1.,4.4E-16));
#1363 = DIRECTION('',(1.,0.,0.));
#1364 = ADVANCED_FACE('',(#1365),#1389,.F.);
#1365 = FACE_BOUND('',#1366,.T.);
#1366 = EDGE_LOOP('',(#1367,#1375,#1376,#1382,#1383));
#1367 = ORIENTED_EDGE('',*,*,#1368,.T.);
#1368 = EDGE_CURVE('',#1369,#1328,#1371,.T.);
#1369 = VERTEX_POINT('',#1370);
#1370 = CARTESIAN_POINT('',(0.,0.,0.));
#1371 = LINE('',#1372,#1373);
#1372 = CARTESIAN_POINT('',(0.,0.,0.));
#1373 = VECTOR('',#1374,1.);
#1374 = DIRECTION('',(0.,4.4E-16,1.));
#1375 = ORIENTED_EDGE('',*,*,#1327,.T.);
#1376 = ORIENTED_EDGE('',*,*,#1377,.T.);
#1377 = EDGE_CURVE('',#954,#874,#1378,.T.);
#1378 = LINE('',#1379,#1380);
#1379 = CARTESIAN_POINT('',(0.,1.7E-14,37.5));
#1380 = VECTOR('',#1381,1.);
#1381 = DIRECTION('',(-1.,-0.,-0.));
#1382 = ORIENTED_EDGE('',*,*,#871,.F.);
#1383 = ORIENTED_EDGE('',*,*,#1384,.F.);
#1384 = EDGE_CURVE('',#1369,#872,#1385,.T.);
#1385 = LINE('',#1386,#1387);
#1386 = CARTESIAN_POINT('',(0.,0.,0.));
#1387 = VECTOR('',#1388,1.);
#1388 = DIRECTION('',(-1.,-0.,-0.));
#1389 = PLANE('',#1390);
#1390 = AXIS2_PLACEMENT_3D('',#1391,#1392,#1393);
#1391 = CARTESIAN_POINT('',(0.,0.,0.));
#1392 = DIRECTION('',(0.,1.,-4.4E-16));
#1393 = DIRECTION('',(1.,0.,0.));
#1394 = ADVANCED_FACE('',(#1395,#1406,#1417),#1428,.T.);
#1395 = FACE_BOUND('',#1396,.F.);
#1396 = EDGE_LOOP('',(#1397,#1398,#1404,#1405));
#1397 = ORIENTED_EDGE('',*,*,#1384,.F.);
#1398 = ORIENTED_EDGE('',*,*,#1399,.F.);
#1399 = EDGE_CURVE('',#1064,#1369,#1400,.T.);
#1400 = LINE('',#1401,#1402);
#1401 = CARTESIAN_POINT('',(0.,85.,0.));
#1402 = VECTOR('',#1403,1.);
#1403 = DIRECTION('',(0.,-1.,0.));
#1404 = ORIENTED_EDGE('',*,*,#1071,.F.);
#1405 = ORIENTED_EDGE('',*,*,#904,.F.);
#1406 = FACE_BOUND('',#1407,.F.);
#1407 = EDGE_LOOP('',(#1408));
#1408 = ORIENTED_EDGE('',*,*,#1409,.F.);
#1409 = EDGE_CURVE('',#1410,#1410,#1412,.T.);
#1410 = VERTEX_POINT('',#1411);
#1411 = CARTESIAN_POINT('',(-33.5,5.,-2.E-15));
#1412 = CIRCLE('',#1413,3.5);
#1413 = AXIS2_PLACEMENT_3D('',#1414,#1415,#1416);
#1414 = CARTESIAN_POINT('',(-30.,5.,0.));
#1415 = DIRECTION('',(0.,0.,1.));
#1416 = DIRECTION('',(-1.,0.,0.));
#1417 = FACE_BOUND('',#1418,.F.);
#1418 = EDGE_LOOP('',(#1419));
#1419 = ORIENTED_EDGE('',*,*,#1420,.F.);
#1420 = EDGE_CURVE('',#1421,#1421,#1423,.T.);
#1421 = VERTEX_POINT('',#1422);
#1422 = CARTESIAN_POINT('',(-33.5,80.,-3.6E-14));
#1423 = CIRCLE('',#1424,3.5);
#1424 = AXIS2_PLACEMENT_3D('',#1425,#1426,#1427);
#1425 = CARTESIAN_POINT('',(-30.,80.,0.));
#1426 = DIRECTION('',(0.,0.,1.));
#1427 = DIRECTION('',(-1.,0.,0.));
#1428 = PLANE('',#1429);
#1429 = AXIS2_PLACEMENT_3D('',#1430,#1431,#1432);
#1430 = CARTESIAN_POINT('',(-17.5,42.5,-9.44E-15));
#1431 = DIRECTION('',(0.,-2.2E-16,-1.));
#1432 = DIRECTION('',(-0.,-1.,2.2E-16));
#1433 = ADVANCED_FACE('',(#1434),#1439,.F.);
#1434 = FACE_BOUND('',#1435,.T.);
#1435 = EDGE_LOOP('',(#1436,#1437,#1438));
#1436 = ORIENTED_EDGE('',*,*,#1377,.F.);
#1437 = ORIENTED_EDGE('',*,*,#953,.T.);
#1438 = ORIENTED_EDGE('',*,*,#881,.F.);
#1439 = PLANE('',#1440);
#1440 = AXIS2_PLACEMENT_3D('',#1441,#1442,#1443);
#1441 = CARTESIAN_POINT('',(-17.5,42.5,37.5));
#1442 = DIRECTION('',(0.,-2.2E-16,-1.));
#1443 = DIRECTION('',(-0.,-1.,2.2E-16));
#1444 = ADVANCED_FACE('',(#1445),#1450,.F.);
#1445 = FACE_BOUND('',#1446,.T.);
#1446 = EDGE_LOOP('',(#1447,#1448,#1449));
#1447 = ORIENTED_EDGE('',*,*,#888,.F.);
#1448 = ORIENTED_EDGE('',*,*,#918,.T.);
#1449 = ORIENTED_EDGE('',*,*,#1056,.F.);
#1450 = PLANE('',#1451);
#1451 = AXIS2_PLACEMENT_3D('',#1452,#1453,#1454);
#1452 = CARTESIAN_POINT('',(-17.5,42.5,37.5));
#1453 = DIRECTION('',(0.,-2.2E-16,-1.));
#1454 = DIRECTION('',(-0.,-1.,2.2E-16));
#1455 = ADVANCED_FACE('',(#1456),#1477,.F.);
#1456 = FACE_BOUND('',#1457,.T.);
#1457 = EDGE_LOOP('',(#1458,#1466,#1467,#1468,#1469,#1470));
#1458 = ORIENTED_EDGE('',*,*,#1459,.F.);
#1459 = EDGE_CURVE('',#978,#1460,#1462,.T.);
#1460 = VERTEX_POINT('',#1461);
#1461 = CARTESIAN_POINT('',(-31.75,5.,30.));
#1462 = LINE('',#1463,#1464);
#1463 = CARTESIAN_POINT('',(-31.75,5.,37.5));
#1464 = VECTOR('',#1465,1.);
#1465 = DIRECTION('',(-0.,-4.4E-16,-1.));
#1466 = ORIENTED_EDGE('',*,*,#977,.F.);
#1467 = ORIENTED_EDGE('',*,*,#1012,.F.);
#1468 = ORIENTED_EDGE('',*,*,#986,.F.);
#1469 = ORIENTED_EDGE('',*,*,#1459,.T.);
#1470 = ORIENTED_EDGE('',*,*,#1471,.F.);
#1471 = EDGE_CURVE('',#1460,#1460,#1472,.T.);
#1472 = CIRCLE('',#1473,1.75);
#1473 = AXIS2_PLACEMENT_3D('',#1474,#1475,#1476);
#1474 = CARTESIAN_POINT('',(-30.,5.,30.));
#1475 = DIRECTION('',(0.,4.4E-16,1.));
#1476 = DIRECTION('',(-1.,0.,0.));
#1477 = CYLINDRICAL_SURFACE('',#1478,1.75);
#1478 = AXIS2_PLACEMENT_3D('',#1479,#1480,#1481);
#1479 = CARTESIAN_POINT('',(-30.,5.,37.5));
#1480 = DIRECTION('',(0.,4.4E-16,1.));
#1481 = DIRECTION('',(-1.,0.,0.));
#1482 = ADVANCED_FACE('',(#1483,#1494),#1497,.T.);
#1483 = FACE_BOUND('',#1484,.F.);
#1484 = EDGE_LOOP('',(#1485));
#1485 = ORIENTED_EDGE('',*,*,#1486,.T.);
#1486 = EDGE_CURVE('',#1487,#1487,#1489,.T.);
#1487 = VERTEX_POINT('',#1488);
#1488 = CARTESIAN_POINT('',(-33.5,80.,30.));
#1489 = CIRCLE('',#1490,3.5);
#1490 = AXIS2_PLACEMENT_3D('',#1491,#1492,#1493);
#1491 = CARTESIAN_POINT('',(-30.,80.,30.));
#1492 = DIRECTION('',(0.,0.,1.));
#1493 = DIRECTION('',(-1.,0.,0.));
#1494 = FACE_BOUND('',#1495,.F.);
#1495 = EDGE_LOOP('',(#1496));
#1496 = ORIENTED_EDGE('',*,*,#1040,.F.);
#1497 = PLANE('',#1498);
#1498 = AXIS2_PLACEMENT_3D('',#1499,#1500,#1501);
#1499 = CARTESIAN_POINT('',(-30.,42.5,30.));
#1500 = DIRECTION('',(0.,-2.2E-16,-1.));
#1501 = DIRECTION('',(-0.,-1.,2.2E-16));
#1502 = ADVANCED_FACE('',(#1503),#1520,.F.);
#1503 = FACE_BOUND('',#1504,.F.);
#1504 = EDGE_LOOP('',(#1505,#1506,#1512,#1513,#1514));
#1505 = ORIENTED_EDGE('',*,*,#1278,.T.);
#1506 = ORIENTED_EDGE('',*,*,#1507,.T.);
#1507 = EDGE_CURVE('',#1271,#1086,#1508,.T.);
#1508 = LINE('',#1509,#1510);
#1509 = CARTESIAN_POINT('',(35.,85.,37.5));
#1510 = VECTOR('',#1511,1.);
#1511 = DIRECTION('',(-1.,0.,0.));
#1512 = ORIENTED_EDGE('',*,*,#1085,.T.);
#1513 = ORIENTED_EDGE('',*,*,#1063,.F.);
#1514 = ORIENTED_EDGE('',*,*,#1515,.F.);
#1515 = EDGE_CURVE('',#1244,#1064,#1516,.T.);
#1516 = LINE('',#1517,#1518);
#1517 = CARTESIAN_POINT('',(35.,85.,0.));
#1518 = VECTOR('',#1519,1.);
#1519 = DIRECTION('',(-1.,0.,0.));
#1520 = PLANE('',#1521);
#1521 = AXIS2_PLACEMENT_3D('',#1522,#1523,#1524);
#1522 = CARTESIAN_POINT('',(35.,85.,-3.775E-14));
#1523 = DIRECTION('',(0.,-1.,4.4E-16));
#1524 = DIRECTION('',(-1.,0.,0.));
#1525 = ADVANCED_FACE('',(#1526),#1547,.F.);
#1526 = FACE_BOUND('',#1527,.F.);
#1527 = EDGE_LOOP('',(#1528,#1536,#1537,#1538,#1539,#1540));
#1528 = ORIENTED_EDGE('',*,*,#1529,.F.);
#1529 = EDGE_CURVE('',#1302,#1530,#1532,.T.);
#1530 = VERTEX_POINT('',#1531);
#1531 = CARTESIAN_POINT('',(31.75,80.,30.));
#1532 = LINE('',#1533,#1534);
#1533 = CARTESIAN_POINT('',(31.75,80.,37.5));
#1534 = VECTOR('',#1535,1.);
#1535 = DIRECTION('',(0.,-4.4E-16,-1.));
#1536 = ORIENTED_EDGE('',*,*,#1301,.F.);
#1537 = ORIENTED_EDGE('',*,*,#1127,.F.);
#1538 = ORIENTED_EDGE('',*,*,#1310,.F.);
#1539 = ORIENTED_EDGE('',*,*,#1529,.T.);
#1540 = ORIENTED_EDGE('',*,*,#1541,.T.);
#1541 = EDGE_CURVE('',#1530,#1530,#1542,.T.);
#1542 = CIRCLE('',#1543,1.75);
#1543 = AXIS2_PLACEMENT_3D('',#1544,#1545,#1546);
#1544 = CARTESIAN_POINT('',(30.,80.,30.));
#1545 = DIRECTION('',(-0.,4.4E-16,1.));
#1546 = DIRECTION('',(1.,0.,0.));
#1547 = CYLINDRICAL_SURFACE('',#1548,1.75);
#1548 = AXIS2_PLACEMENT_3D('',#1549,#1550,#1551);
#1549 = CARTESIAN_POINT('',(30.,80.,37.5));
#1550 = DIRECTION('',(0.,4.4E-16,1.));
#1551 = DIRECTION('',(1.,0.,0.));
#1552 = ADVANCED_FACE('',(#1553),#1604,.F.);
#1553 = FACE_BOUND('',#1554,.F.);
#1554 = EDGE_LOOP('',(#1555,#1564,#1571,#1579,#1588,#1597,#1603));
#1555 = ORIENTED_EDGE('',*,*,#1556,.F.);
#1556 = EDGE_CURVE('',#1557,#1192,#1559,.T.);
#1557 = VERTEX_POINT('',#1558);
#1558 = CARTESIAN_POINT('',(30.,1.7E-14,37.5));
#1559 = CIRCLE('',#1560,5.);
#1560 = AXIS2_PLACEMENT_3D('',#1561,#1562,#1563);
#1561 = CARTESIAN_POINT('',(30.,5.,37.5));
#1562 = DIRECTION('',(0.,0.,1.));
#1563 = DIRECTION('',(1.,0.,0.));
#1564 = ORIENTED_EDGE('',*,*,#1565,.F.);
#1565 = EDGE_CURVE('',#1219,#1557,#1566,.T.);
#1566 = CIRCLE('',#1567,5.);
#1567 = AXIS2_PLACEMENT_3D('',#1568,#1569,#1570);
#1568 = CARTESIAN_POINT('',(30.,5.,37.5));
#1569 = DIRECTION('',(0.,0.,1.));
#1570 = DIRECTION('',(1.,0.,0.));
#1571 = ORIENTED_EDGE('',*,*,#1572,.T.);
#1572 = EDGE_CURVE('',#1219,#1573,#1575,.T.);
#1573 = VERTEX_POINT('',#1574);
#1574 = CARTESIAN_POINT('',(28.25,5.,37.5));
#1575 = LINE('',#1576,#1577);
#1576 = CARTESIAN_POINT('',(0.,5.,37.5));
#1577 = VECTOR('',#1578,1.);
#1578 = DIRECTION('',(1.,0.,0.));
#1579 = ORIENTED_EDGE('',*,*,#1580,.T.);
#1580 = EDGE_CURVE('',#1573,#1581,#1583,.T.);
#1581 = VERTEX_POINT('',#1582);
#1582 = CARTESIAN_POINT('',(31.75,5.,37.5));
#1583 = CIRCLE('',#1584,1.75);
#1584 = AXIS2_PLACEMENT_3D('',#1585,#1586,#1587);
#1585 = CARTESIAN_POINT('',(30.,5.,37.5));
#1586 = DIRECTION('',(0.,0.,1.));
#1587 = DIRECTION('',(1.,0.,0.));
#1588 = ORIENTED_EDGE('',*,*,#1589,.T.);
#1589 = EDGE_CURVE('',#1581,#1590,#1592,.T.);
#1590 = VERTEX_POINT('',#1591);
#1591 = CARTESIAN_POINT('',(30.,6.75,37.5));
#1592 = CIRCLE('',#1593,1.75);
#1593 = AXIS2_PLACEMENT_3D('',#1594,#1595,#1596);
#1594 = CARTESIAN_POINT('',(30.,5.,37.5));
#1595 = DIRECTION('',(0.,0.,1.));
#1596 = DIRECTION('',(1.,0.,0.));
#1597 = ORIENTED_EDGE('',*,*,#1598,.T.);
#1598 = EDGE_CURVE('',#1590,#725,#1599,.T.);
#1599 = LINE('',#1600,#1601);
#1600 = CARTESIAN_POINT('',(30.,5.,37.5));
#1601 = VECTOR('',#1602,1.);
#1602 = DIRECTION('',(0.,1.,0.));
#1603 = ORIENTED_EDGE('',*,*,#1199,.F.);
#1604 = PLANE('',#1605);
#1605 = AXIS2_PLACEMENT_3D('',#1606,#1607,#1608);
#1606 = CARTESIAN_POINT('',(17.5,42.5,37.5));
#1607 = DIRECTION('',(0.,-2.2E-16,-1.));
#1608 = DIRECTION('',(0.,1.,-2.2E-16));
#1609 = ADVANCED_FACE('',(#1610),#1622,.F.);
#1610 = FACE_BOUND('',#1611,.F.);
#1611 = EDGE_LOOP('',(#1612,#1613,#1614,#1621));
#1612 = ORIENTED_EDGE('',*,*,#1218,.F.);
#1613 = ORIENTED_EDGE('',*,*,#1598,.F.);
#1614 = ORIENTED_EDGE('',*,*,#1615,.T.);
#1615 = EDGE_CURVE('',#1590,#1573,#1616,.T.);
#1616 = CIRCLE('',#1617,1.75);
#1617 = AXIS2_PLACEMENT_3D('',#1618,#1619,#1620);
#1618 = CARTESIAN_POINT('',(30.,5.,37.5));
#1619 = DIRECTION('',(0.,0.,1.));
#1620 = DIRECTION('',(1.,0.,0.));
#1621 = ORIENTED_EDGE('',*,*,#1572,.F.);
#1622 = PLANE('',#1623);
#1623 = AXIS2_PLACEMENT_3D('',#1624,#1625,#1626);
#1624 = CARTESIAN_POINT('',(30.,42.5,37.5));
#1625 = DIRECTION('',(0.,-2.2E-16,-1.));
#1626 = DIRECTION('',(0.,1.,-2.2E-16));
#1627 = ADVANCED_FACE('',(#1628,#1639,#1650),#1661,.T.);
#1628 = FACE_BOUND('',#1629,.T.);
#1629 = EDGE_LOOP('',(#1630,#1636,#1637,#1638));
#1630 = ORIENTED_EDGE('',*,*,#1631,.F.);
#1631 = EDGE_CURVE('',#1369,#1242,#1632,.T.);
#1632 = LINE('',#1633,#1634);
#1633 = CARTESIAN_POINT('',(0.,0.,0.));
#1634 = VECTOR('',#1635,1.);
#1635 = DIRECTION('',(1.,0.,0.));
#1636 = ORIENTED_EDGE('',*,*,#1399,.F.);
#1637 = ORIENTED_EDGE('',*,*,#1515,.F.);
#1638 = ORIENTED_EDGE('',*,*,#1241,.F.);
#1639 = FACE_BOUND('',#1640,.T.);
#1640 = EDGE_LOOP('',(#1641));
#1641 = ORIENTED_EDGE('',*,*,#1642,.F.);
#1642 = EDGE_CURVE('',#1643,#1643,#1645,.T.);
#1643 = VERTEX_POINT('',#1644);
#1644 = CARTESIAN_POINT('',(33.5,5.,0.));
#1645 = CIRCLE('',#1646,3.5);
#1646 = AXIS2_PLACEMENT_3D('',#1647,#1648,#1649);
#1647 = CARTESIAN_POINT('',(30.,5.,0.));
#1648 = DIRECTION('',(0.,0.,-1.));
#1649 = DIRECTION('',(1.,0.,0.));
#1650 = FACE_BOUND('',#1651,.T.);
#1651 = EDGE_LOOP('',(#1652));
#1652 = ORIENTED_EDGE('',*,*,#1653,.F.);
#1653 = EDGE_CURVE('',#1654,#1654,#1656,.T.);
#1654 = VERTEX_POINT('',#1655);
#1655 = CARTESIAN_POINT('',(33.5,80.,0.));
#1656 = CIRCLE('',#1657,3.5);
#1657 = AXIS2_PLACEMENT_3D('',#1658,#1659,#1660);
#1658 = CARTESIAN_POINT('',(30.,80.,0.));
#1659 = DIRECTION('',(0.,0.,-1.));
#1660 = DIRECTION('',(1.,0.,0.));
#1661 = PLANE('',#1662);
#1662 = AXIS2_PLACEMENT_3D('',#1663,#1664,#1665);
#1663 = CARTESIAN_POINT('',(17.5,42.5,-9.44E-15));
#1664 = DIRECTION('',(0.,-2.2E-16,-1.));
#1665 = DIRECTION('',(0.,1.,-2.2E-16));
#1666 = ADVANCED_FACE('',(#1667),#1672,.F.);
#1667 = FACE_BOUND('',#1668,.F.);
#1668 = EDGE_LOOP('',(#1669,#1670,#1671));
#1669 = ORIENTED_EDGE('',*,*,#1270,.F.);
#1670 = ORIENTED_EDGE('',*,*,#1292,.T.);
#1671 = ORIENTED_EDGE('',*,*,#1507,.F.);
#1672 = PLANE('',#1673);
#1673 = AXIS2_PLACEMENT_3D('',#1674,#1675,#1676);
#1674 = CARTESIAN_POINT('',(17.5,42.5,37.5));
#1675 = DIRECTION('',(0.,-2.2E-16,-1.));
#1676 = DIRECTION('',(0.,1.,-2.2E-16));
#1677 = ADVANCED_FACE('',(#1678),#1688,.F.);
#1678 = FACE_BOUND('',#1679,.F.);
#1679 = EDGE_LOOP('',(#1680,#1686,#1687));
#1680 = ORIENTED_EDGE('',*,*,#1681,.F.);
#1681 = EDGE_CURVE('',#1557,#1252,#1682,.T.);
#1682 = LINE('',#1683,#1684);
#1683 = CARTESIAN_POINT('',(0.,1.7E-14,37.5));
#1684 = VECTOR('',#1685,1.);
#1685 = DIRECTION('',(1.,0.,0.));
#1686 = ORIENTED_EDGE('',*,*,#1556,.T.);
#1687 = ORIENTED_EDGE('',*,*,#1259,.F.);
#1688 = PLANE('',#1689);
#1689 = AXIS2_PLACEMENT_3D('',#1690,#1691,#1692);
#1690 = CARTESIAN_POINT('',(17.5,42.5,37.5));
#1691 = DIRECTION('',(0.,-2.2E-16,-1.));
#1692 = DIRECTION('',(0.,1.,-2.2E-16));
#1693 = ADVANCED_FACE('',(#1694),#1706,.F.);
#1694 = FACE_BOUND('',#1695,.F.);
#1695 = EDGE_LOOP('',(#1696,#1697,#1703,#1704,#1705));
#1696 = ORIENTED_EDGE('',*,*,#1368,.T.);
#1697 = ORIENTED_EDGE('',*,*,#1698,.T.);
#1698 = EDGE_CURVE('',#1328,#1557,#1699,.T.);
#1699 = LINE('',#1700,#1701);
#1700 = CARTESIAN_POINT('',(0.,1.7E-14,37.5));
#1701 = VECTOR('',#1702,1.);
#1702 = DIRECTION('',(1.,0.,0.));
#1703 = ORIENTED_EDGE('',*,*,#1681,.T.);
#1704 = ORIENTED_EDGE('',*,*,#1251,.F.);
#1705 = ORIENTED_EDGE('',*,*,#1631,.F.);
#1706 = PLANE('',#1707);
#1707 = AXIS2_PLACEMENT_3D('',#1708,#1709,#1710);
#1708 = CARTESIAN_POINT('',(0.,0.,0.));
#1709 = DIRECTION('',(0.,1.,-4.4E-16));
#1710 = DIRECTION('',(1.,0.,0.));
#1711 = ADVANCED_FACE('',(#1712),#1718,.F.);
#1712 = FACE_BOUND('',#1713,.F.);
#1713 = EDGE_LOOP('',(#1714,#1715,#1716,#1717));
#1714 = ORIENTED_EDGE('',*,*,#1698,.F.);
#1715 = ORIENTED_EDGE('',*,*,#1335,.F.);
#1716 = ORIENTED_EDGE('',*,*,#1351,.T.);
#1717 = ORIENTED_EDGE('',*,*,#1565,.T.);
#1718 = PLANE('',#1719);
#1719 = AXIS2_PLACEMENT_3D('',#1720,#1721,#1722);
#1720 = CARTESIAN_POINT('',(17.5,42.5,37.5));
#1721 = DIRECTION('',(0.,-2.2E-16,-1.));
#1722 = DIRECTION('',(0.,1.,-2.2E-16));
#1723 = ADVANCED_FACE('',(#1724),#1743,.F.);
#1724 = FACE_BOUND('',#1725,.T.);
#1725 = EDGE_LOOP('',(#1726,#1734,#1741,#1742));
#1726 = ORIENTED_EDGE('',*,*,#1727,.T.);
#1727 = EDGE_CURVE('',#1410,#1728,#1730,.T.);
#1728 = VERTEX_POINT('',#1729);
#1729 = CARTESIAN_POINT('',(-33.5,5.,30.));
#1730 = LINE('',#1731,#1732);
#1731 = CARTESIAN_POINT('',(-33.5,5.,-2.22E-15));
#1732 = VECTOR('',#1733,1.);
#1733 = DIRECTION('',(0.,4.4E-16,1.));
#1734 = ORIENTED_EDGE('',*,*,#1735,.T.);
#1735 = EDGE_CURVE('',#1728,#1728,#1736,.T.);
#1736 = CIRCLE('',#1737,3.5);
#1737 = AXIS2_PLACEMENT_3D('',#1738,#1739,#1740);
#1738 = CARTESIAN_POINT('',(-30.,5.,30.));
#1739 = DIRECTION('',(0.,0.,1.));
#1740 = DIRECTION('',(-1.,0.,0.));
#1741 = ORIENTED_EDGE('',*,*,#1727,.F.);
#1742 = ORIENTED_EDGE('',*,*,#1409,.F.);
#1743 = CYLINDRICAL_SURFACE('',#1744,3.5);
#1744 = AXIS2_PLACEMENT_3D('',#1745,#1746,#1747);
#1745 = CARTESIAN_POINT('',(-30.,5.,-2.22E-15));
#1746 = DIRECTION('',(-0.,-4.4E-16,-1.));
#1747 = DIRECTION('',(-1.,0.,0.));
#1748 = ADVANCED_FACE('',(#1749),#1760,.F.);
#1749 = FACE_BOUND('',#1750,.T.);
#1750 = EDGE_LOOP('',(#1751,#1757,#1758,#1759));
#1751 = ORIENTED_EDGE('',*,*,#1752,.T.);
#1752 = EDGE_CURVE('',#1421,#1487,#1753,.T.);
#1753 = LINE('',#1754,#1755);
#1754 = CARTESIAN_POINT('',(-33.5,80.,-3.553E-14));
#1755 = VECTOR('',#1756,1.);
#1756 = DIRECTION('',(0.,4.4E-16,1.));
#1757 = ORIENTED_EDGE('',*,*,#1486,.T.);
#1758 = ORIENTED_EDGE('',*,*,#1752,.F.);
#1759 = ORIENTED_EDGE('',*,*,#1420,.F.);
#1760 = CYLINDRICAL_SURFACE('',#1761,3.5);
#1761 = AXIS2_PLACEMENT_3D('',#1762,#1763,#1764);
#1762 = CARTESIAN_POINT('',(-30.,80.,-3.553E-14));
#1763 = DIRECTION('',(-0.,-4.4E-16,-1.));
#1764 = DIRECTION('',(-1.,0.,0.));
#1765 = ADVANCED_FACE('',(#1766,#1769),#1772,.T.);
#1766 = FACE_BOUND('',#1767,.F.);
#1767 = EDGE_LOOP('',(#1768));
#1768 = ORIENTED_EDGE('',*,*,#1735,.T.);
#1769 = FACE_BOUND('',#1770,.F.);
#1770 = EDGE_LOOP('',(#1771));
#1771 = ORIENTED_EDGE('',*,*,#1471,.F.);
#1772 = PLANE('',#1773);
#1773 = AXIS2_PLACEMENT_3D('',#1774,#1775,#1776);
#1774 = CARTESIAN_POINT('',(-30.,42.5,30.));
#1775 = DIRECTION('',(0.,-2.2E-16,-1.));
#1776 = DIRECTION('',(-0.,-1.,2.2E-16));
#1777 = ADVANCED_FACE('',(#1778,#1789),#1792,.T.);
#1778 = FACE_BOUND('',#1779,.T.);
#1779 = EDGE_LOOP('',(#1780));
#1780 = ORIENTED_EDGE('',*,*,#1781,.T.);
#1781 = EDGE_CURVE('',#1782,#1782,#1784,.T.);
#1782 = VERTEX_POINT('',#1783);
#1783 = CARTESIAN_POINT('',(33.5,80.,30.));
#1784 = CIRCLE('',#1785,3.5);
#1785 = AXIS2_PLACEMENT_3D('',#1786,#1787,#1788);
#1786 = CARTESIAN_POINT('',(30.,80.,30.));
#1787 = DIRECTION('',(0.,0.,-1.));
#1788 = DIRECTION('',(1.,0.,0.));
#1789 = FACE_BOUND('',#1790,.T.);
#1790 = EDGE_LOOP('',(#1791));
#1791 = ORIENTED_EDGE('',*,*,#1541,.T.);
#1792 = PLANE('',#1793);
#1793 = AXIS2_PLACEMENT_3D('',#1794,#1795,#1796);
#1794 = CARTESIAN_POINT('',(30.,42.5,30.));
#1795 = DIRECTION('',(0.,-2.2E-16,-1.));
#1796 = DIRECTION('',(0.,1.,-2.2E-16));
#1797 = ADVANCED_FACE('',(#1798),#1819,.F.);
#1798 = FACE_BOUND('',#1799,.F.);
#1799 = EDGE_LOOP('',(#1800,#1808,#1809,#1810,#1811,#1812));
#1800 = ORIENTED_EDGE('',*,*,#1801,.F.);
#1801 = EDGE_CURVE('',#1581,#1802,#1804,.T.);
#1802 = VERTEX_POINT('',#1803);
#1803 = CARTESIAN_POINT('',(31.75,5.,30.));
#1804 = LINE('',#1805,#1806);
#1805 = CARTESIAN_POINT('',(31.75,5.,37.5));
#1806 = VECTOR('',#1807,1.);
#1807 = DIRECTION('',(0.,-4.4E-16,-1.));
#1808 = ORIENTED_EDGE('',*,*,#1580,.F.);
#1809 = ORIENTED_EDGE('',*,*,#1615,.F.);
#1810 = ORIENTED_EDGE('',*,*,#1589,.F.);
#1811 = ORIENTED_EDGE('',*,*,#1801,.T.);
#1812 = ORIENTED_EDGE('',*,*,#1813,.T.);
#1813 = EDGE_CURVE('',#1802,#1802,#1814,.T.);
#1814 = CIRCLE('',#1815,1.75);
#1815 = AXIS2_PLACEMENT_3D('',#1816,#1817,#1818);
#1816 = CARTESIAN_POINT('',(30.,5.,30.));
#1817 = DIRECTION('',(-0.,4.4E-16,1.));
#1818 = DIRECTION('',(1.,0.,0.));
#1819 = CYLINDRICAL_SURFACE('',#1820,1.75);
#1820 = AXIS2_PLACEMENT_3D('',#1821,#1822,#1823);
#1821 = CARTESIAN_POINT('',(30.,5.,37.5));
#1822 = DIRECTION('',(0.,4.4E-16,1.));
#1823 = DIRECTION('',(1.,0.,0.));
#1824 = ADVANCED_FACE('',(#1825),#1844,.F.);
#1825 = FACE_BOUND('',#1826,.F.);
#1826 = EDGE_LOOP('',(#1827,#1835,#1842,#1843));
#1827 = ORIENTED_EDGE('',*,*,#1828,.T.);
#1828 = EDGE_CURVE('',#1643,#1829,#1831,.T.);
#1829 = VERTEX_POINT('',#1830);
#1830 = CARTESIAN_POINT('',(33.5,5.,30.));
#1831 = LINE('',#1832,#1833);
#1832 = CARTESIAN_POINT('',(33.5,5.,-2.22E-15));
#1833 = VECTOR('',#1834,1.);
#1834 = DIRECTION('',(0.,4.4E-16,1.));
#1835 = ORIENTED_EDGE('',*,*,#1836,.T.);
#1836 = EDGE_CURVE('',#1829,#1829,#1837,.T.);
#1837 = CIRCLE('',#1838,3.5);
#1838 = AXIS2_PLACEMENT_3D('',#1839,#1840,#1841);
#1839 = CARTESIAN_POINT('',(30.,5.,30.));
#1840 = DIRECTION('',(0.,0.,-1.));
#1841 = DIRECTION('',(1.,0.,0.));
#1842 = ORIENTED_EDGE('',*,*,#1828,.F.);
#1843 = ORIENTED_EDGE('',*,*,#1642,.F.);
#1844 = CYLINDRICAL_SURFACE('',#1845,3.5);
#1845 = AXIS2_PLACEMENT_3D('',#1846,#1847,#1848);
#1846 = CARTESIAN_POINT('',(30.,5.,-2.22E-15));
#1847 = DIRECTION('',(0.,-4.4E-16,-1.));
#1848 = DIRECTION('',(1.,0.,0.));
#1849 = ADVANCED_FACE('',(#1850),#1861,.F.);
#1850 = FACE_BOUND('',#1851,.F.);
#1851 = EDGE_LOOP('',(#1852,#1858,#1859,#1860));
#1852 = ORIENTED_EDGE('',*,*,#1853,.T.);
#1853 = EDGE_CURVE('',#1654,#1782,#1854,.T.);
#1854 = LINE('',#1855,#1856);
#1855 = CARTESIAN_POINT('',(33.5,80.,-3.553E-14));
#1856 = VECTOR('',#1857,1.);
#1857 = DIRECTION('',(0.,4.4E-16,1.));
#1858 = ORIENTED_EDGE('',*,*,#1781,.T.);
#1859 = ORIENTED_EDGE('',*,*,#1853,.F.);
#1860 = ORIENTED_EDGE('',*,*,#1653,.F.);
#1861 = CYLINDRICAL_SURFACE('',#1862,3.5);
#1862 = AXIS2_PLACEMENT_3D('',#1863,#1864,#1865);
#1863 = CARTESIAN_POINT('',(30.,80.,-3.553E-14));
#1864 = DIRECTION('',(0.,-4.4E-16,-1.));
#1865 = DIRECTION('',(1.,0.,0.));
#1866 = ADVANCED_FACE('',(#1867,#1870),#1873,.T.);
#1867 = FACE_BOUND('',#1868,.T.);
#1868 = EDGE_LOOP('',(#1869));
#1869 = ORIENTED_EDGE('',*,*,#1836,.T.);
#1870 = FACE_BOUND('',#1871,.T.);
#1871 = EDGE_LOOP('',(#1872));
#1872 = ORIENTED_EDGE('',*,*,#1813,.T.);
#1873 = PLANE('',#1874);
#1874 = AXIS2_PLACEMENT_3D('',#1875,#1876,#1877);
#1875 = CARTESIAN_POINT('',(30.,42.5,30.));
#1876 = DIRECTION('',(0.,-2.2E-16,-1.));
#1877 = DIRECTION('',(0.,1.,-2.2E-16));
#1878 = ( GEOMETRIC_REPRESENTATION_CONTEXT(3) 
GLOBAL_UNCERTAINTY_ASSIGNED_CONTEXT((#1882)) 
GLOBAL_UNIT_ASSIGNED_CONTEXT((#1879,#1880,#1881)) REPRESENTATION_CONTEXT
('Context #1','3D Context with UNIT and UNCERTAINTY') );
#1879 = ( LENGTH_UNIT() NAMED_UNIT(*) SI_UNIT(.MILLI.,.METRE.) );
#1880 = ( NAMED_UNIT(*) PLANE_ANGLE_UNIT() SI_UNIT($,.RADIAN.) );
#1881 = ( NAMED_UNIT(*) SI_UNIT($,.STERADIAN.) SOLID_ANGLE_UNIT() );
#1882 = UNCERTAINTY_MEASURE_WITH_UNIT(LENGTH_MEASURE(1.E-07),#1879,
  'distance_accuracy_value','confusion accuracy');
#1883 = PRODUCT_RELATED_PRODUCT_CATEGORY('part',$,(#7));
#1884 = MECHANICAL_DESIGN_GEOMETRIC_PRESENTATION_REPRESENTATION('',(
    #1885),#1878);
#1885 = STYLED_ITEM('color',(#1886),#15);
#1886 = PRESENTATION_STYLE_ASSIGNMENT((#1887,#1893));
#1887 = SURFACE_STYLE_USAGE(.BOTH.,#1888);
#1888 = SURFACE_SIDE_STYLE('',(#1889));
#1889 = SURFACE_STYLE_FILL_AREA(#1890);
#1890 = FILL_AREA_STYLE('',(#1891));
#1891 = FILL_AREA_STYLE_COLOUR('',#1892);
#1892 = COLOUR_RGB('',0.800000010877,0.800000010877,0.800000010877);
#1893 = CURVE_STYLE('',#1894,POSITIVE_LENGTH_MEASURE(0.1),#1895);
#1894 = DRAUGHTING_PRE_DEFINED_CURVE_FONT('continuous');
#1895 = COLOUR_RGB('',9.803921802644E-02,9.803921802644E-02,
  9.803921802644E-02);
ENDSEC;
END-ISO-10303-21;
