ISO-10303-21;
HEADER;
FILE_DESCRIPTION(('FreeCAD Model'),'2;1');
FILE_NAME('Open CASCADE Shape Model','2025-05-21T10:11:13',('Author'),(
    ''),'Open CASCADE STEP processor 7.6','FreeCAD','Unknown');
FILE_SCHEMA(('AUTOMOTIVE_DESIGN { 1 0 10303 214 1 1 1 1 }'));
ENDSEC;
DATA;
#1 = APPLICATION_PROTOCOL_DEFINITION('international standard',
  'automotive_design',2000,#2);
#2 = APPLICATION_CONTEXT(
  'core data for automotive mechanical design processes');
#3 = SHAPE_DEFINITION_REPRESENTATION(#4,#10);
#4 = PRODUCT_DEFINITION_SHAPE('','',#5);
#5 = PRODUCT_DEFINITION('design','',#6,#9);
#6 = PRODUCT_DEFINITION_FORMATION('','',#7);
#7 = PRODUCT('Mirrored','Mirrored','',(#8));
#8 = PRODUCT_CONTEXT('',#2,'mechanical');
#9 = PRODUCT_DEFINITION_CONTEXT('part definition',#2,'design');
#10 = ADVANCED_BREP_SHAPE_REPRESENTATION('',(#11,#15),#2429);
#11 = AXIS2_PLACEMENT_3D('',#12,#13,#14);
#12 = CARTESIAN_POINT('',(0.,0.,0.));
#13 = DIRECTION('',(0.,0.,1.));
#14 = DIRECTION('',(1.,0.,-0.));
#15 = MANIFOLD_SOLID_BREP('',#16);
#16 = CLOSED_SHELL('',(#17,#73,#290,#314,#360,#384,#455,#472,#689,#720,
    #744,#768,#792,#816,#833,#864,#888,#912,#936,#960,#977,#1008,#1033,
    #1058,#1075,#1106,#1130,#1154,#1178,#1202,#1219,#1243,#1289,#1314,
    #1339,#1363,#1434,#1465,#1490,#1514,#1532,#1557,#1574,#1588,#1619,
    #1643,#1667,#1691,#1715,#1732,#1763,#1787,#1811,#1835,#1859,#1876,
    #1908,#1932,#1956,#1974,#2005,#2029,#2053,#2077,#2101,#2118,#2135,
    #2152,#2170,#2187,#2212,#2237,#2268,#2293,#2317,#2335,#2360,#2377,
    #2394,#2412));
#17 = ADVANCED_FACE('',(#18),#68,.T.);
#18 = FACE_BOUND('',#19,.T.);
#19 = EDGE_LOOP('',(#20,#30,#38,#46,#54,#62));
#20 = ORIENTED_EDGE('',*,*,#21,.F.);
#21 = EDGE_CURVE('',#22,#24,#26,.T.);
#22 = VERTEX_POINT('',#23);
#23 = CARTESIAN_POINT('',(0.,0.,0.));
#24 = VERTEX_POINT('',#25);
#25 = CARTESIAN_POINT('',(-170.,0.,0.));
#26 = LINE('',#27,#28);
#27 = CARTESIAN_POINT('',(0.,0.,0.));
#28 = VECTOR('',#29,1.);
#29 = DIRECTION('',(-1.,0.,0.));
#30 = ORIENTED_EDGE('',*,*,#31,.T.);
#31 = EDGE_CURVE('',#22,#32,#34,.T.);
#32 = VERTEX_POINT('',#33);
#33 = CARTESIAN_POINT('',(0.,9.E-15,20.));
#34 = LINE('',#35,#36);
#35 = CARTESIAN_POINT('',(0.,0.,0.));
#36 = VECTOR('',#37,1.);
#37 = DIRECTION('',(0.,4.4E-16,1.));
#38 = ORIENTED_EDGE('',*,*,#39,.T.);
#39 = EDGE_CURVE('',#32,#40,#42,.T.);
#40 = VERTEX_POINT('',#41);
#41 = CARTESIAN_POINT('',(-130.,4.E-15,20.));
#42 = LINE('',#43,#44);
#43 = CARTESIAN_POINT('',(0.,9.E-15,20.));
#44 = VECTOR('',#45,1.);
#45 = DIRECTION('',(-1.,0.,0.));
#46 = ORIENTED_EDGE('',*,*,#47,.T.);
#47 = EDGE_CURVE('',#40,#48,#50,.T.);
#48 = VERTEX_POINT('',#49);
#49 = CARTESIAN_POINT('',(-130.,0.,10.));
#50 = LINE('',#51,#52);
#51 = CARTESIAN_POINT('',(-130.,8.88E-15,20.));
#52 = VECTOR('',#53,1.);
#53 = DIRECTION('',(0.,-4.4E-16,-1.));
#54 = ORIENTED_EDGE('',*,*,#55,.F.);
#55 = EDGE_CURVE('',#56,#48,#58,.T.);
#56 = VERTEX_POINT('',#57);
#57 = CARTESIAN_POINT('',(-170.,0.,10.));
#58 = LINE('',#59,#60);
#59 = CARTESIAN_POINT('',(-170.,0.,10.));
#60 = VECTOR('',#61,1.);
#61 = DIRECTION('',(1.,0.,0.));
#62 = ORIENTED_EDGE('',*,*,#63,.F.);
#63 = EDGE_CURVE('',#24,#56,#64,.T.);
#64 = LINE('',#65,#66);
#65 = CARTESIAN_POINT('',(-170.,0.,0.));
#66 = VECTOR('',#67,1.);
#67 = DIRECTION('',(0.,4.4E-16,1.));
#68 = PLANE('',#69);
#69 = AXIS2_PLACEMENT_3D('',#70,#71,#72);
#70 = CARTESIAN_POINT('',(0.,0.,0.));
#71 = DIRECTION('',(0.,-1.,4.4E-16));
#72 = DIRECTION('',(-1.,0.,0.));
#73 = ADVANCED_FACE('',(#74,#99,#149,#199,#235),#285,.T.);
#74 = FACE_BOUND('',#75,.T.);
#75 = EDGE_LOOP('',(#76,#77,#85,#93));
#76 = ORIENTED_EDGE('',*,*,#21,.T.);
#77 = ORIENTED_EDGE('',*,*,#78,.T.);
#78 = EDGE_CURVE('',#24,#79,#81,.T.);
#79 = VERTEX_POINT('',#80);
#80 = CARTESIAN_POINT('',(-170.,31.,-1.4E-14));
#81 = LINE('',#82,#83);
#82 = CARTESIAN_POINT('',(-170.,0.,0.));
#83 = VECTOR('',#84,1.);
#84 = DIRECTION('',(0.,1.,0.));
#85 = ORIENTED_EDGE('',*,*,#86,.T.);
#86 = EDGE_CURVE('',#79,#87,#89,.T.);
#87 = VERTEX_POINT('',#88);
#88 = CARTESIAN_POINT('',(0.,31.,-1.4E-14));
#89 = LINE('',#90,#91);
#90 = CARTESIAN_POINT('',(-170.,31.,0.));
#91 = VECTOR('',#92,1.);
#92 = DIRECTION('',(1.,0.,0.));
#93 = ORIENTED_EDGE('',*,*,#94,.T.);
#94 = EDGE_CURVE('',#87,#22,#95,.T.);
#95 = LINE('',#96,#97);
#96 = CARTESIAN_POINT('',(0.,31.,0.));
#97 = VECTOR('',#98,1.);
#98 = DIRECTION('',(0.,-1.,0.));
#99 = FACE_BOUND('',#100,.T.);
#100 = EDGE_LOOP('',(#101,#111,#119,#127,#135,#143));
#101 = ORIENTED_EDGE('',*,*,#102,.F.);
#102 = EDGE_CURVE('',#103,#105,#107,.T.);
#103 = VERTEX_POINT('',#104);
#104 = CARTESIAN_POINT('',(-157.15,11.64544826719,0.));
#105 = VERTEX_POINT('',#106);
#106 = CARTESIAN_POINT('',(-157.15,8.35455173281,0.));
#107 = LINE('',#108,#109);
#108 = CARTESIAN_POINT('',(-157.15,11.64544826719,0.));
#109 = VECTOR('',#110,1.);
#110 = DIRECTION('',(0.,-1.,0.));
#111 = ORIENTED_EDGE('',*,*,#112,.F.);
#112 = EDGE_CURVE('',#113,#103,#115,.T.);
#113 = VERTEX_POINT('',#114);
#114 = CARTESIAN_POINT('',(-160.,13.290896534381,0.));
#115 = LINE('',#116,#117);
#116 = CARTESIAN_POINT('',(-160.,13.290896534381,0.));
#117 = VECTOR('',#118,1.);
#118 = DIRECTION('',(0.866025403784,-0.5,0.));
#119 = ORIENTED_EDGE('',*,*,#120,.F.);
#120 = EDGE_CURVE('',#121,#113,#123,.T.);
#121 = VERTEX_POINT('',#122);
#122 = CARTESIAN_POINT('',(-162.85,11.64544826719,0.));
#123 = LINE('',#124,#125);
#124 = CARTESIAN_POINT('',(-162.85,11.64544826719,0.));
#125 = VECTOR('',#126,1.);
#126 = DIRECTION('',(0.866025403784,0.5,0.));
#127 = ORIENTED_EDGE('',*,*,#128,.F.);
#128 = EDGE_CURVE('',#129,#121,#131,.T.);
#129 = VERTEX_POINT('',#130);
#130 = CARTESIAN_POINT('',(-162.85,8.35455173281,0.));
#131 = LINE('',#132,#133);
#132 = CARTESIAN_POINT('',(-162.85,8.35455173281,0.));
#133 = VECTOR('',#134,1.);
#134 = DIRECTION('',(0.,1.,0.));
#135 = ORIENTED_EDGE('',*,*,#136,.F.);
#136 = EDGE_CURVE('',#137,#129,#139,.T.);
#137 = VERTEX_POINT('',#138);
#138 = CARTESIAN_POINT('',(-160.,6.709103465619,0.));
#139 = LINE('',#140,#141);
#140 = CARTESIAN_POINT('',(-160.,6.709103465619,0.));
#141 = VECTOR('',#142,1.);
#142 = DIRECTION('',(-0.866025403784,0.5,-0.));
#143 = ORIENTED_EDGE('',*,*,#144,.F.);
#144 = EDGE_CURVE('',#105,#137,#145,.T.);
#145 = LINE('',#146,#147);
#146 = CARTESIAN_POINT('',(-157.15,8.35455173281,0.));
#147 = VECTOR('',#148,1.);
#148 = DIRECTION('',(-0.866025403784,-0.5,0.));
#149 = FACE_BOUND('',#150,.T.);
#150 = EDGE_LOOP('',(#151,#161,#169,#177,#185,#193));
#151 = ORIENTED_EDGE('',*,*,#152,.F.);
#152 = EDGE_CURVE('',#153,#155,#157,.T.);
#153 = VERTEX_POINT('',#154);
#154 = CARTESIAN_POINT('',(-136.7091034656,11.9,0.));
#155 = VERTEX_POINT('',#156);
#156 = CARTESIAN_POINT('',(-136.7091034656,8.1,0.));
#157 = LINE('',#158,#159);
#158 = CARTESIAN_POINT('',(-136.7091034656,11.9,0.));
#159 = VECTOR('',#160,1.);
#160 = DIRECTION('',(0.,-1.,0.));
#161 = ORIENTED_EDGE('',*,*,#162,.F.);
#162 = EDGE_CURVE('',#163,#153,#165,.T.);
#163 = VERTEX_POINT('',#164);
#164 = CARTESIAN_POINT('',(-140.,13.8,0.));
#165 = LINE('',#166,#167);
#166 = CARTESIAN_POINT('',(-140.,13.8,0.));
#167 = VECTOR('',#168,1.);
#168 = DIRECTION('',(0.866025403784,-0.5,0.));
#169 = ORIENTED_EDGE('',*,*,#170,.F.);
#170 = EDGE_CURVE('',#171,#163,#173,.T.);
#171 = VERTEX_POINT('',#172);
#172 = CARTESIAN_POINT('',(-143.2908965343,11.9,0.));
#173 = LINE('',#174,#175);
#174 = CARTESIAN_POINT('',(-143.2908965343,11.9,0.));
#175 = VECTOR('',#176,1.);
#176 = DIRECTION('',(0.866025403784,0.5,0.));
#177 = ORIENTED_EDGE('',*,*,#178,.F.);
#178 = EDGE_CURVE('',#179,#171,#181,.T.);
#179 = VERTEX_POINT('',#180);
#180 = CARTESIAN_POINT('',(-143.2908965343,8.1,0.));
#181 = LINE('',#182,#183);
#182 = CARTESIAN_POINT('',(-143.2908965343,8.1,0.));
#183 = VECTOR('',#184,1.);
#184 = DIRECTION('',(0.,1.,0.));
#185 = ORIENTED_EDGE('',*,*,#186,.F.);
#186 = EDGE_CURVE('',#187,#179,#189,.T.);
#187 = VERTEX_POINT('',#188);
#188 = CARTESIAN_POINT('',(-140.,6.2,0.));
#189 = LINE('',#190,#191);
#190 = CARTESIAN_POINT('',(-140.,6.2,0.));
#191 = VECTOR('',#192,1.);
#192 = DIRECTION('',(-0.866025403784,0.5,-0.));
#193 = ORIENTED_EDGE('',*,*,#194,.F.);
#194 = EDGE_CURVE('',#155,#187,#195,.T.);
#195 = LINE('',#196,#197);
#196 = CARTESIAN_POINT('',(-136.7091034656,8.1,0.));
#197 = VECTOR('',#198,1.);
#198 = DIRECTION('',(-0.866025403784,-0.5,0.));
#199 = FACE_BOUND('',#200,.T.);
#200 = EDGE_LOOP('',(#201,#211,#220,#228));
#201 = ORIENTED_EDGE('',*,*,#202,.F.);
#202 = EDGE_CURVE('',#203,#205,#207,.T.);
#203 = VERTEX_POINT('',#204);
#204 = CARTESIAN_POINT('',(-120.,12.75,-7.E-15));
#205 = VERTEX_POINT('',#206);
#206 = CARTESIAN_POINT('',(-90.,12.75,-7.E-15));
#207 = LINE('',#208,#209);
#208 = CARTESIAN_POINT('',(-87.5,12.75,-6.38E-15));
#209 = VECTOR('',#210,1.);
#210 = DIRECTION('',(1.,0.,0.));
#211 = ORIENTED_EDGE('',*,*,#212,.T.);
#212 = EDGE_CURVE('',#203,#213,#215,.T.);
#213 = VERTEX_POINT('',#214);
#214 = CARTESIAN_POINT('',(-120.,7.25,-4.E-15));
#215 = CIRCLE('',#216,2.75);
#216 = AXIS2_PLACEMENT_3D('',#217,#218,#219);
#217 = CARTESIAN_POINT('',(-120.,10.,-3.55E-15));
#218 = DIRECTION('',(-0.,4.4E-16,1.));
#219 = DIRECTION('',(1.,0.,0.));
#220 = ORIENTED_EDGE('',*,*,#221,.F.);
#221 = EDGE_CURVE('',#222,#213,#224,.T.);
#222 = VERTEX_POINT('',#223);
#223 = CARTESIAN_POINT('',(-90.,7.25,-4.E-15));
#224 = LINE('',#225,#226);
#225 = CARTESIAN_POINT('',(-102.5,7.25,-3.39E-15));
#226 = VECTOR('',#227,1.);
#227 = DIRECTION('',(-1.,0.,0.));
#228 = ORIENTED_EDGE('',*,*,#229,.T.);
#229 = EDGE_CURVE('',#222,#205,#230,.T.);
#230 = CIRCLE('',#231,2.75);
#231 = AXIS2_PLACEMENT_3D('',#232,#233,#234);
#232 = CARTESIAN_POINT('',(-90.,10.,-3.55E-15));
#233 = DIRECTION('',(-0.,4.4E-16,1.));
#234 = DIRECTION('',(1.,0.,0.));
#235 = FACE_BOUND('',#236,.T.);
#236 = EDGE_LOOP('',(#237,#247,#255,#263,#271,#279));
#237 = ORIENTED_EDGE('',*,*,#238,.F.);
#238 = EDGE_CURVE('',#239,#241,#243,.T.);
#239 = VERTEX_POINT('',#240);
#240 = CARTESIAN_POINT('',(-5.95,7.661731409782,0.));
#241 = VERTEX_POINT('',#242);
#242 = CARTESIAN_POINT('',(-10.,5.323462819564,0.));
#243 = LINE('',#244,#245);
#244 = CARTESIAN_POINT('',(-5.95,7.661731409782,0.));
#245 = VECTOR('',#246,1.);
#246 = DIRECTION('',(-0.866025403784,-0.5,0.));
#247 = ORIENTED_EDGE('',*,*,#248,.F.);
#248 = EDGE_CURVE('',#249,#239,#251,.T.);
#249 = VERTEX_POINT('',#250);
#250 = CARTESIAN_POINT('',(-5.95,12.338268590218,0.));
#251 = LINE('',#252,#253);
#252 = CARTESIAN_POINT('',(-5.95,12.338268590218,0.));
#253 = VECTOR('',#254,1.);
#254 = DIRECTION('',(0.,-1.,0.));
#255 = ORIENTED_EDGE('',*,*,#256,.F.);
#256 = EDGE_CURVE('',#257,#249,#259,.T.);
#257 = VERTEX_POINT('',#258);
#258 = CARTESIAN_POINT('',(-10.,14.676537180436,0.));
#259 = LINE('',#260,#261);
#260 = CARTESIAN_POINT('',(-10.,14.676537180436,0.));
#261 = VECTOR('',#262,1.);
#262 = DIRECTION('',(0.866025403784,-0.5,0.));
#263 = ORIENTED_EDGE('',*,*,#264,.F.);
#264 = EDGE_CURVE('',#265,#257,#267,.T.);
#265 = VERTEX_POINT('',#266);
#266 = CARTESIAN_POINT('',(-14.05,12.338268590218,0.));
#267 = LINE('',#268,#269);
#268 = CARTESIAN_POINT('',(-14.05,12.338268590218,0.));
#269 = VECTOR('',#270,1.);
#270 = DIRECTION('',(0.866025403784,0.5,0.));
#271 = ORIENTED_EDGE('',*,*,#272,.F.);
#272 = EDGE_CURVE('',#273,#265,#275,.T.);
#273 = VERTEX_POINT('',#274);
#274 = CARTESIAN_POINT('',(-14.05,7.661731409782,0.));
#275 = LINE('',#276,#277);
#276 = CARTESIAN_POINT('',(-14.05,7.661731409782,0.));
#277 = VECTOR('',#278,1.);
#278 = DIRECTION('',(0.,1.,0.));
#279 = ORIENTED_EDGE('',*,*,#280,.F.);
#280 = EDGE_CURVE('',#241,#273,#281,.T.);
#281 = LINE('',#282,#283);
#282 = CARTESIAN_POINT('',(-10.,5.323462819564,0.));
#283 = VECTOR('',#284,1.);
#284 = DIRECTION('',(-0.866025403784,0.5,-0.));
#285 = PLANE('',#286);
#286 = AXIS2_PLACEMENT_3D('',#287,#288,#289);
#287 = CARTESIAN_POINT('',(-85.,15.5,-3.44E-15));
#288 = DIRECTION('',(0.,-2.2E-16,-1.));
#289 = DIRECTION('',(0.,1.,-2.2E-16));
#290 = ADVANCED_FACE('',(#291),#309,.T.);
#291 = FACE_BOUND('',#292,.T.);
#292 = EDGE_LOOP('',(#293,#294,#295,#303));
#293 = ORIENTED_EDGE('',*,*,#78,.F.);
#294 = ORIENTED_EDGE('',*,*,#63,.T.);
#295 = ORIENTED_EDGE('',*,*,#296,.F.);
#296 = EDGE_CURVE('',#297,#56,#299,.T.);
#297 = VERTEX_POINT('',#298);
#298 = CARTESIAN_POINT('',(-170.,31.,10.));
#299 = LINE('',#300,#301);
#300 = CARTESIAN_POINT('',(-170.,31.,10.));
#301 = VECTOR('',#302,1.);
#302 = DIRECTION('',(0.,-1.,0.));
#303 = ORIENTED_EDGE('',*,*,#304,.F.);
#304 = EDGE_CURVE('',#79,#297,#305,.T.);
#305 = LINE('',#306,#307);
#306 = CARTESIAN_POINT('',(-170.,31.,-1.377E-14));
#307 = VECTOR('',#308,1.);
#308 = DIRECTION('',(0.,4.4E-16,1.));
#309 = PLANE('',#310);
#310 = AXIS2_PLACEMENT_3D('',#311,#312,#313);
#311 = CARTESIAN_POINT('',(-170.,0.,0.));
#312 = DIRECTION('',(-1.,0.,0.));
#313 = DIRECTION('',(0.,1.,-4.4E-16));
#314 = ADVANCED_FACE('',(#315,#333,#344),#355,.F.);
#315 = FACE_BOUND('',#316,.F.);
#316 = EDGE_LOOP('',(#317,#318,#319,#327));
#317 = ORIENTED_EDGE('',*,*,#55,.F.);
#318 = ORIENTED_EDGE('',*,*,#296,.F.);
#319 = ORIENTED_EDGE('',*,*,#320,.F.);
#320 = EDGE_CURVE('',#321,#297,#323,.T.);
#321 = VERTEX_POINT('',#322);
#322 = CARTESIAN_POINT('',(-130.,31.,10.));
#323 = LINE('',#324,#325);
#324 = CARTESIAN_POINT('',(-130.,31.,10.));
#325 = VECTOR('',#326,1.);
#326 = DIRECTION('',(-1.,0.,0.));
#327 = ORIENTED_EDGE('',*,*,#328,.F.);
#328 = EDGE_CURVE('',#48,#321,#329,.T.);
#329 = LINE('',#330,#331);
#330 = CARTESIAN_POINT('',(-130.,0.,10.));
#331 = VECTOR('',#332,1.);
#332 = DIRECTION('',(0.,1.,0.));
#333 = FACE_BOUND('',#334,.F.);
#334 = EDGE_LOOP('',(#335));
#335 = ORIENTED_EDGE('',*,*,#336,.T.);
#336 = EDGE_CURVE('',#337,#337,#339,.T.);
#337 = VERTEX_POINT('',#338);
#338 = CARTESIAN_POINT('',(-158.3,10.,10.));
#339 = CIRCLE('',#340,1.7);
#340 = AXIS2_PLACEMENT_3D('',#341,#342,#343);
#341 = CARTESIAN_POINT('',(-160.,10.,10.));
#342 = DIRECTION('',(-0.,4.4E-16,1.));
#343 = DIRECTION('',(1.,0.,0.));
#344 = FACE_BOUND('',#345,.F.);
#345 = EDGE_LOOP('',(#346));
#346 = ORIENTED_EDGE('',*,*,#347,.T.);
#347 = EDGE_CURVE('',#348,#348,#350,.T.);
#348 = VERTEX_POINT('',#349);
#349 = CARTESIAN_POINT('',(-138.3,10.,10.));
#350 = CIRCLE('',#351,1.7);
#351 = AXIS2_PLACEMENT_3D('',#352,#353,#354);
#352 = CARTESIAN_POINT('',(-140.,10.,10.));
#353 = DIRECTION('',(-0.,4.4E-16,1.));
#354 = DIRECTION('',(1.,0.,0.));
#355 = PLANE('',#356);
#356 = AXIS2_PLACEMENT_3D('',#357,#358,#359);
#357 = CARTESIAN_POINT('',(-131.5145228215,13.240663900415,10.));
#358 = DIRECTION('',(1.E-17,-2.4E-16,-1.));
#359 = DIRECTION('',(0.,1.,-2.4E-16));
#360 = ADVANCED_FACE('',(#361),#379,.F.);
#361 = FACE_BOUND('',#362,.F.);
#362 = EDGE_LOOP('',(#363,#364,#365,#373));
#363 = ORIENTED_EDGE('',*,*,#47,.T.);
#364 = ORIENTED_EDGE('',*,*,#328,.T.);
#365 = ORIENTED_EDGE('',*,*,#366,.F.);
#366 = EDGE_CURVE('',#367,#321,#369,.T.);
#367 = VERTEX_POINT('',#368);
#368 = CARTESIAN_POINT('',(-130.,31.,20.));
#369 = LINE('',#370,#371);
#370 = CARTESIAN_POINT('',(-130.,31.,20.));
#371 = VECTOR('',#372,1.);
#372 = DIRECTION('',(0.,-4.4E-16,-1.));
#373 = ORIENTED_EDGE('',*,*,#374,.F.);
#374 = EDGE_CURVE('',#40,#367,#375,.T.);
#375 = LINE('',#376,#377);
#376 = CARTESIAN_POINT('',(-130.,4.E-15,20.));
#377 = VECTOR('',#378,1.);
#378 = DIRECTION('',(0.,1.,0.));
#379 = PLANE('',#380);
#380 = AXIS2_PLACEMENT_3D('',#381,#382,#383);
#381 = CARTESIAN_POINT('',(-130.,8.88E-15,20.));
#382 = DIRECTION('',(1.,0.,0.));
#383 = DIRECTION('',(0.,1.,-4.4E-16));
#384 = ADVANCED_FACE('',(#385,#403,#439),#450,.F.);
#385 = FACE_BOUND('',#386,.F.);
#386 = EDGE_LOOP('',(#387,#395,#396,#397));
#387 = ORIENTED_EDGE('',*,*,#388,.T.);
#388 = EDGE_CURVE('',#389,#32,#391,.T.);
#389 = VERTEX_POINT('',#390);
#390 = CARTESIAN_POINT('',(0.,31.,20.));
#391 = LINE('',#392,#393);
#392 = CARTESIAN_POINT('',(0.,31.,20.));
#393 = VECTOR('',#394,1.);
#394 = DIRECTION('',(0.,-1.,0.));
#395 = ORIENTED_EDGE('',*,*,#39,.T.);
#396 = ORIENTED_EDGE('',*,*,#374,.T.);
#397 = ORIENTED_EDGE('',*,*,#398,.T.);
#398 = EDGE_CURVE('',#367,#389,#399,.T.);
#399 = LINE('',#400,#401);
#400 = CARTESIAN_POINT('',(-170.,31.,20.));
#401 = VECTOR('',#402,1.);
#402 = DIRECTION('',(1.,0.,0.));
#403 = FACE_BOUND('',#404,.F.);
#404 = EDGE_LOOP('',(#405,#415,#424,#432));
#405 = ORIENTED_EDGE('',*,*,#406,.T.);
#406 = EDGE_CURVE('',#407,#409,#411,.T.);
#407 = VERTEX_POINT('',#408);
#408 = CARTESIAN_POINT('',(-90.,16.5,20.));
#409 = VERTEX_POINT('',#410);
#410 = CARTESIAN_POINT('',(-120.,16.5,20.));
#411 = LINE('',#412,#413);
#412 = CARTESIAN_POINT('',(-90.,16.5,20.));
#413 = VECTOR('',#414,1.);
#414 = DIRECTION('',(-1.,0.,0.));
#415 = ORIENTED_EDGE('',*,*,#416,.T.);
#416 = EDGE_CURVE('',#409,#417,#419,.T.);
#417 = VERTEX_POINT('',#418);
#418 = CARTESIAN_POINT('',(-120.,3.5,20.));
#419 = CIRCLE('',#420,6.5);
#420 = AXIS2_PLACEMENT_3D('',#421,#422,#423);
#421 = CARTESIAN_POINT('',(-120.,10.,20.));
#422 = DIRECTION('',(0.,0.,1.));
#423 = DIRECTION('',(1.,0.,0.));
#424 = ORIENTED_EDGE('',*,*,#425,.T.);
#425 = EDGE_CURVE('',#417,#426,#428,.T.);
#426 = VERTEX_POINT('',#427);
#427 = CARTESIAN_POINT('',(-90.,3.5,20.));
#428 = LINE('',#429,#430);
#429 = CARTESIAN_POINT('',(-120.,3.5,20.));
#430 = VECTOR('',#431,1.);
#431 = DIRECTION('',(1.,0.,0.));
#432 = ORIENTED_EDGE('',*,*,#433,.T.);
#433 = EDGE_CURVE('',#426,#407,#434,.T.);
#434 = CIRCLE('',#435,6.5);
#435 = AXIS2_PLACEMENT_3D('',#436,#437,#438);
#436 = CARTESIAN_POINT('',(-90.,10.,20.));
#437 = DIRECTION('',(0.,0.,1.));
#438 = DIRECTION('',(1.,0.,0.));
#439 = FACE_BOUND('',#440,.F.);
#440 = EDGE_LOOP('',(#441));
#441 = ORIENTED_EDGE('',*,*,#442,.T.);
#442 = EDGE_CURVE('',#443,#443,#445,.T.);
#443 = VERTEX_POINT('',#444);
#444 = CARTESIAN_POINT('',(-7.25,10.,20.));
#445 = CIRCLE('',#446,2.75);
#446 = AXIS2_PLACEMENT_3D('',#447,#448,#449);
#447 = CARTESIAN_POINT('',(-10.,10.,20.));
#448 = DIRECTION('',(0.,0.,1.));
#449 = DIRECTION('',(1.,0.,0.));
#450 = PLANE('',#451);
#451 = AXIS2_PLACEMENT_3D('',#452,#453,#454);
#452 = CARTESIAN_POINT('',(-85.,15.5,20.));
#453 = DIRECTION('',(0.,-2.2E-16,-1.));
#454 = DIRECTION('',(0.,1.,-2.2E-16));
#455 = ADVANCED_FACE('',(#456),#467,.T.);
#456 = FACE_BOUND('',#457,.T.);
#457 = EDGE_LOOP('',(#458,#464,#465,#466));
#458 = ORIENTED_EDGE('',*,*,#459,.T.);
#459 = EDGE_CURVE('',#87,#389,#460,.T.);
#460 = LINE('',#461,#462);
#461 = CARTESIAN_POINT('',(0.,31.,-1.377E-14));
#462 = VECTOR('',#463,1.);
#463 = DIRECTION('',(0.,4.4E-16,1.));
#464 = ORIENTED_EDGE('',*,*,#388,.T.);
#465 = ORIENTED_EDGE('',*,*,#31,.F.);
#466 = ORIENTED_EDGE('',*,*,#94,.F.);
#467 = PLANE('',#468);
#468 = AXIS2_PLACEMENT_3D('',#469,#470,#471);
#469 = CARTESIAN_POINT('',(0.,31.,-1.377E-14));
#470 = DIRECTION('',(1.,0.,0.));
#471 = DIRECTION('',(0.,-1.,4.4E-16));
#472 = ADVANCED_FACE('',(#473,#498,#548,#598,#634),#684,.T.);
#473 = FACE_BOUND('',#474,.F.);
#474 = EDGE_LOOP('',(#475,#485,#491,#492));
#475 = ORIENTED_EDGE('',*,*,#476,.T.);
#476 = EDGE_CURVE('',#477,#479,#481,.T.);
#477 = VERTEX_POINT('',#478);
#478 = CARTESIAN_POINT('',(0.,62.,-2.8E-14));
#479 = VERTEX_POINT('',#480);
#480 = CARTESIAN_POINT('',(-170.,62.,-2.8E-14));
#481 = LINE('',#482,#483);
#482 = CARTESIAN_POINT('',(0.,62.,0.));
#483 = VECTOR('',#484,1.);
#484 = DIRECTION('',(-1.,0.,0.));
#485 = ORIENTED_EDGE('',*,*,#486,.T.);
#486 = EDGE_CURVE('',#479,#79,#487,.T.);
#487 = LINE('',#488,#489);
#488 = CARTESIAN_POINT('',(-170.,62.,0.));
#489 = VECTOR('',#490,1.);
#490 = DIRECTION('',(0.,-1.,0.));
#491 = ORIENTED_EDGE('',*,*,#86,.T.);
#492 = ORIENTED_EDGE('',*,*,#493,.T.);
#493 = EDGE_CURVE('',#87,#477,#494,.T.);
#494 = LINE('',#495,#496);
#495 = CARTESIAN_POINT('',(0.,31.,0.));
#496 = VECTOR('',#497,1.);
#497 = DIRECTION('',(0.,1.,0.));
#498 = FACE_BOUND('',#499,.F.);
#499 = EDGE_LOOP('',(#500,#510,#518,#526,#534,#542));
#500 = ORIENTED_EDGE('',*,*,#501,.F.);
#501 = EDGE_CURVE('',#502,#504,#506,.T.);
#502 = VERTEX_POINT('',#503);
#503 = CARTESIAN_POINT('',(-157.15,50.35455173281,-2.2E-14));
#504 = VERTEX_POINT('',#505);
#505 = CARTESIAN_POINT('',(-157.15,53.64544826719,-2.4E-14));
#506 = LINE('',#507,#508);
#507 = CARTESIAN_POINT('',(-157.15,50.35455173281,0.));
#508 = VECTOR('',#509,1.);
#509 = DIRECTION('',(0.,1.,-0.));
#510 = ORIENTED_EDGE('',*,*,#511,.F.);
#511 = EDGE_CURVE('',#512,#502,#514,.T.);
#512 = VERTEX_POINT('',#513);
#513 = CARTESIAN_POINT('',(-160.,48.709103465619,-2.2E-14));
#514 = LINE('',#515,#516);
#515 = CARTESIAN_POINT('',(-160.,48.709103465619,0.));
#516 = VECTOR('',#517,1.);
#517 = DIRECTION('',(0.866025403784,0.5,0.));
#518 = ORIENTED_EDGE('',*,*,#519,.F.);
#519 = EDGE_CURVE('',#520,#512,#522,.T.);
#520 = VERTEX_POINT('',#521);
#521 = CARTESIAN_POINT('',(-162.85,50.35455173281,-2.2E-14));
#522 = LINE('',#523,#524);
#523 = CARTESIAN_POINT('',(-162.85,50.35455173281,0.));
#524 = VECTOR('',#525,1.);
#525 = DIRECTION('',(0.866025403784,-0.5,0.));
#526 = ORIENTED_EDGE('',*,*,#527,.F.);
#527 = EDGE_CURVE('',#528,#520,#530,.T.);
#528 = VERTEX_POINT('',#529);
#529 = CARTESIAN_POINT('',(-162.85,53.64544826719,-2.4E-14));
#530 = LINE('',#531,#532);
#531 = CARTESIAN_POINT('',(-162.85,53.645448267191,0.));
#532 = VECTOR('',#533,1.);
#533 = DIRECTION('',(0.,-1.,0.));
#534 = ORIENTED_EDGE('',*,*,#535,.F.);
#535 = EDGE_CURVE('',#536,#528,#538,.T.);
#536 = VERTEX_POINT('',#537);
#537 = CARTESIAN_POINT('',(-160.,55.290896534381,-2.5E-14));
#538 = LINE('',#539,#540);
#539 = CARTESIAN_POINT('',(-160.,55.290896534381,0.));
#540 = VECTOR('',#541,1.);
#541 = DIRECTION('',(-0.866025403784,-0.5,0.));
#542 = ORIENTED_EDGE('',*,*,#543,.F.);
#543 = EDGE_CURVE('',#504,#536,#544,.T.);
#544 = LINE('',#545,#546);
#545 = CARTESIAN_POINT('',(-157.15,53.645448267191,0.));
#546 = VECTOR('',#547,1.);
#547 = DIRECTION('',(-0.866025403784,0.5,-0.));
#548 = FACE_BOUND('',#549,.F.);
#549 = EDGE_LOOP('',(#550,#560,#568,#576,#584,#592));
#550 = ORIENTED_EDGE('',*,*,#551,.F.);
#551 = EDGE_CURVE('',#552,#554,#556,.T.);
#552 = VERTEX_POINT('',#553);
#553 = CARTESIAN_POINT('',(-136.7091034656,50.1,-2.2E-14));
#554 = VERTEX_POINT('',#555);
#555 = CARTESIAN_POINT('',(-136.7091034656,53.9,-2.4E-14));
#556 = LINE('',#557,#558);
#557 = CARTESIAN_POINT('',(-136.7091034656,50.1,0.));
#558 = VECTOR('',#559,1.);
#559 = DIRECTION('',(0.,1.,-0.));
#560 = ORIENTED_EDGE('',*,*,#561,.F.);
#561 = EDGE_CURVE('',#562,#552,#564,.T.);
#562 = VERTEX_POINT('',#563);
#563 = CARTESIAN_POINT('',(-140.,48.2,-2.1E-14));
#564 = LINE('',#565,#566);
#565 = CARTESIAN_POINT('',(-140.,48.2,0.));
#566 = VECTOR('',#567,1.);
#567 = DIRECTION('',(0.866025403784,0.5,0.));
#568 = ORIENTED_EDGE('',*,*,#569,.F.);
#569 = EDGE_CURVE('',#570,#562,#572,.T.);
#570 = VERTEX_POINT('',#571);
#571 = CARTESIAN_POINT('',(-143.2908965343,50.1,-2.2E-14));
#572 = LINE('',#573,#574);
#573 = CARTESIAN_POINT('',(-143.2908965343,50.1,0.));
#574 = VECTOR('',#575,1.);
#575 = DIRECTION('',(0.866025403784,-0.5,0.));
#576 = ORIENTED_EDGE('',*,*,#577,.F.);
#577 = EDGE_CURVE('',#578,#570,#580,.T.);
#578 = VERTEX_POINT('',#579);
#579 = CARTESIAN_POINT('',(-143.2908965343,53.9,-2.4E-14));
#580 = LINE('',#581,#582);
#581 = CARTESIAN_POINT('',(-143.2908965343,53.9,0.));
#582 = VECTOR('',#583,1.);
#583 = DIRECTION('',(0.,-1.,0.));
#584 = ORIENTED_EDGE('',*,*,#585,.F.);
#585 = EDGE_CURVE('',#586,#578,#588,.T.);
#586 = VERTEX_POINT('',#587);
#587 = CARTESIAN_POINT('',(-140.,55.8,-2.5E-14));
#588 = LINE('',#589,#590);
#589 = CARTESIAN_POINT('',(-140.,55.8,0.));
#590 = VECTOR('',#591,1.);
#591 = DIRECTION('',(-0.866025403784,-0.5,0.));
#592 = ORIENTED_EDGE('',*,*,#593,.F.);
#593 = EDGE_CURVE('',#554,#586,#594,.T.);
#594 = LINE('',#595,#596);
#595 = CARTESIAN_POINT('',(-136.7091034656,53.9,0.));
#596 = VECTOR('',#597,1.);
#597 = DIRECTION('',(-0.866025403784,0.5,-0.));
#598 = FACE_BOUND('',#599,.F.);
#599 = EDGE_LOOP('',(#600,#611,#619,#628));
#600 = ORIENTED_EDGE('',*,*,#601,.F.);
#601 = EDGE_CURVE('',#602,#604,#606,.T.);
#602 = VERTEX_POINT('',#603);
#603 = CARTESIAN_POINT('',(-120.,54.75,-2.5E-14));
#604 = VERTEX_POINT('',#605);
#605 = CARTESIAN_POINT('',(-120.,49.25,-2.1E-14));
#606 = CIRCLE('',#607,2.75);
#607 = AXIS2_PLACEMENT_3D('',#608,#609,#610);
#608 = CARTESIAN_POINT('',(-120.,52.,-2.487E-14));
#609 = DIRECTION('',(0.,4.4E-16,1.));
#610 = DIRECTION('',(1.,0.,-0.));
#611 = ORIENTED_EDGE('',*,*,#612,.T.);
#612 = EDGE_CURVE('',#602,#613,#615,.T.);
#613 = VERTEX_POINT('',#614);
#614 = CARTESIAN_POINT('',(-90.,54.75,-2.5E-14));
#615 = LINE('',#616,#617);
#616 = CARTESIAN_POINT('',(-102.5,54.75,-2.459E-14));
#617 = VECTOR('',#618,1.);
#618 = DIRECTION('',(1.,0.,0.));
#619 = ORIENTED_EDGE('',*,*,#620,.F.);
#620 = EDGE_CURVE('',#621,#613,#623,.T.);
#621 = VERTEX_POINT('',#622);
#622 = CARTESIAN_POINT('',(-90.,49.25,-2.1E-14));
#623 = CIRCLE('',#624,2.75);
#624 = AXIS2_PLACEMENT_3D('',#625,#626,#627);
#625 = CARTESIAN_POINT('',(-90.,52.,-2.487E-14));
#626 = DIRECTION('',(0.,4.4E-16,1.));
#627 = DIRECTION('',(1.,0.,-0.));
#628 = ORIENTED_EDGE('',*,*,#629,.T.);
#629 = EDGE_CURVE('',#621,#604,#630,.T.);
#630 = LINE('',#631,#632);
#631 = CARTESIAN_POINT('',(-87.5,49.25,-2.159E-14));
#632 = VECTOR('',#633,1.);
#633 = DIRECTION('',(-1.,-0.,0.));
#634 = FACE_BOUND('',#635,.F.);
#635 = EDGE_LOOP('',(#636,#646,#654,#662,#670,#678));
#636 = ORIENTED_EDGE('',*,*,#637,.F.);
#637 = EDGE_CURVE('',#638,#640,#642,.T.);
#638 = VERTEX_POINT('',#639);
#639 = CARTESIAN_POINT('',(-5.95,54.338268590218,-2.4E-14));
#640 = VERTEX_POINT('',#641);
#641 = CARTESIAN_POINT('',(-10.,56.676537180436,-2.5E-14));
#642 = LINE('',#643,#644);
#643 = CARTESIAN_POINT('',(-5.95,54.338268590218,0.));
#644 = VECTOR('',#645,1.);
#645 = DIRECTION('',(-0.866025403784,0.5,-0.));
#646 = ORIENTED_EDGE('',*,*,#647,.F.);
#647 = EDGE_CURVE('',#648,#638,#650,.T.);
#648 = VERTEX_POINT('',#649);
#649 = CARTESIAN_POINT('',(-5.95,49.661731409782,-2.2E-14));
#650 = LINE('',#651,#652);
#651 = CARTESIAN_POINT('',(-5.95,49.661731409782,0.));
#652 = VECTOR('',#653,1.);
#653 = DIRECTION('',(0.,1.,-0.));
#654 = ORIENTED_EDGE('',*,*,#655,.F.);
#655 = EDGE_CURVE('',#656,#648,#658,.T.);
#656 = VERTEX_POINT('',#657);
#657 = CARTESIAN_POINT('',(-10.,47.323462819564,-2.1E-14));
#658 = LINE('',#659,#660);
#659 = CARTESIAN_POINT('',(-10.,47.323462819564,0.));
#660 = VECTOR('',#661,1.);
#661 = DIRECTION('',(0.866025403784,0.5,0.));
#662 = ORIENTED_EDGE('',*,*,#663,.F.);
#663 = EDGE_CURVE('',#664,#656,#666,.T.);
#664 = VERTEX_POINT('',#665);
#665 = CARTESIAN_POINT('',(-14.05,49.661731409782,-2.2E-14));
#666 = LINE('',#667,#668);
#667 = CARTESIAN_POINT('',(-14.05,49.661731409782,0.));
#668 = VECTOR('',#669,1.);
#669 = DIRECTION('',(0.866025403784,-0.5,0.));
#670 = ORIENTED_EDGE('',*,*,#671,.F.);
#671 = EDGE_CURVE('',#672,#664,#674,.T.);
#672 = VERTEX_POINT('',#673);
#673 = CARTESIAN_POINT('',(-14.05,54.338268590218,-2.4E-14));
#674 = LINE('',#675,#676);
#675 = CARTESIAN_POINT('',(-14.05,54.338268590218,0.));
#676 = VECTOR('',#677,1.);
#677 = DIRECTION('',(0.,-1.,0.));
#678 = ORIENTED_EDGE('',*,*,#679,.F.);
#679 = EDGE_CURVE('',#640,#672,#680,.T.);
#680 = LINE('',#681,#682);
#681 = CARTESIAN_POINT('',(-10.,56.676537180436,0.));
#682 = VECTOR('',#683,1.);
#683 = DIRECTION('',(-0.866025403784,-0.5,0.));
#684 = PLANE('',#685);
#685 = AXIS2_PLACEMENT_3D('',#686,#687,#688);
#686 = CARTESIAN_POINT('',(-85.,46.5,-1.033E-14));
#687 = DIRECTION('',(0.,-2.2E-16,-1.));
#688 = DIRECTION('',(0.,1.,-2.2E-16));
#689 = ADVANCED_FACE('',(#690),#715,.F.);
#690 = FACE_BOUND('',#691,.F.);
#691 = EDGE_LOOP('',(#692,#700,#708,#714));
#692 = ORIENTED_EDGE('',*,*,#693,.T.);
#693 = EDGE_CURVE('',#103,#694,#696,.T.);
#694 = VERTEX_POINT('',#695);
#695 = CARTESIAN_POINT('',(-157.15,11.64544826719,5.));
#696 = LINE('',#697,#698);
#697 = CARTESIAN_POINT('',(-157.15,11.64544826719,-5.17E-15));
#698 = VECTOR('',#699,1.);
#699 = DIRECTION('',(0.,4.4E-16,1.));
#700 = ORIENTED_EDGE('',*,*,#701,.T.);
#701 = EDGE_CURVE('',#694,#702,#704,.T.);
#702 = VERTEX_POINT('',#703);
#703 = CARTESIAN_POINT('',(-157.15,8.35455173281,5.));
#704 = LINE('',#705,#706);
#705 = CARTESIAN_POINT('',(-157.15,11.64544826719,5.));
#706 = VECTOR('',#707,1.);
#707 = DIRECTION('',(0.,-1.,0.));
#708 = ORIENTED_EDGE('',*,*,#709,.F.);
#709 = EDGE_CURVE('',#105,#702,#710,.T.);
#710 = LINE('',#711,#712);
#711 = CARTESIAN_POINT('',(-157.15,8.35455173281,-3.71E-15));
#712 = VECTOR('',#713,1.);
#713 = DIRECTION('',(0.,4.4E-16,1.));
#714 = ORIENTED_EDGE('',*,*,#102,.F.);
#715 = PLANE('',#716);
#716 = AXIS2_PLACEMENT_3D('',#717,#718,#719);
#717 = CARTESIAN_POINT('',(-157.15,11.64544826719,-5.17E-15));
#718 = DIRECTION('',(1.,0.,0.));
#719 = DIRECTION('',(0.,-1.,4.4E-16));
#720 = ADVANCED_FACE('',(#721),#739,.F.);
#721 = FACE_BOUND('',#722,.F.);
#722 = EDGE_LOOP('',(#723,#724,#732,#738));
#723 = ORIENTED_EDGE('',*,*,#709,.T.);
#724 = ORIENTED_EDGE('',*,*,#725,.T.);
#725 = EDGE_CURVE('',#702,#726,#728,.T.);
#726 = VERTEX_POINT('',#727);
#727 = CARTESIAN_POINT('',(-160.,6.709103465619,5.));
#728 = LINE('',#729,#730);
#729 = CARTESIAN_POINT('',(-157.15,8.35455173281,5.));
#730 = VECTOR('',#731,1.);
#731 = DIRECTION('',(-0.866025403784,-0.5,0.));
#732 = ORIENTED_EDGE('',*,*,#733,.F.);
#733 = EDGE_CURVE('',#137,#726,#734,.T.);
#734 = LINE('',#735,#736);
#735 = CARTESIAN_POINT('',(-160.,6.709103465619,-2.98E-15));
#736 = VECTOR('',#737,1.);
#737 = DIRECTION('',(0.,4.4E-16,1.));
#738 = ORIENTED_EDGE('',*,*,#144,.F.);
#739 = PLANE('',#740);
#740 = AXIS2_PLACEMENT_3D('',#741,#742,#743);
#741 = CARTESIAN_POINT('',(-157.15,8.35455173281,-3.71E-15));
#742 = DIRECTION('',(0.5,-0.866025403784,3.8E-16));
#743 = DIRECTION('',(-0.866025403784,-0.5,2.2E-16));
#744 = ADVANCED_FACE('',(#745),#763,.F.);
#745 = FACE_BOUND('',#746,.F.);
#746 = EDGE_LOOP('',(#747,#748,#756,#762));
#747 = ORIENTED_EDGE('',*,*,#733,.T.);
#748 = ORIENTED_EDGE('',*,*,#749,.T.);
#749 = EDGE_CURVE('',#726,#750,#752,.T.);
#750 = VERTEX_POINT('',#751);
#751 = CARTESIAN_POINT('',(-162.85,8.35455173281,5.));
#752 = LINE('',#753,#754);
#753 = CARTESIAN_POINT('',(-160.,6.709103465619,5.));
#754 = VECTOR('',#755,1.);
#755 = DIRECTION('',(-0.866025403784,0.5,-0.));
#756 = ORIENTED_EDGE('',*,*,#757,.F.);
#757 = EDGE_CURVE('',#129,#750,#758,.T.);
#758 = LINE('',#759,#760);
#759 = CARTESIAN_POINT('',(-162.85,8.35455173281,-3.71E-15));
#760 = VECTOR('',#761,1.);
#761 = DIRECTION('',(0.,4.4E-16,1.));
#762 = ORIENTED_EDGE('',*,*,#136,.F.);
#763 = PLANE('',#764);
#764 = AXIS2_PLACEMENT_3D('',#765,#766,#767);
#765 = CARTESIAN_POINT('',(-160.,6.709103465619,-2.98E-15));
#766 = DIRECTION('',(-0.5,-0.866025403784,3.8E-16));
#767 = DIRECTION('',(-0.866025403784,0.5,-2.2E-16));
#768 = ADVANCED_FACE('',(#769),#787,.F.);
#769 = FACE_BOUND('',#770,.F.);
#770 = EDGE_LOOP('',(#771,#772,#780,#786));
#771 = ORIENTED_EDGE('',*,*,#757,.T.);
#772 = ORIENTED_EDGE('',*,*,#773,.T.);
#773 = EDGE_CURVE('',#750,#774,#776,.T.);
#774 = VERTEX_POINT('',#775);
#775 = CARTESIAN_POINT('',(-162.85,11.64544826719,5.));
#776 = LINE('',#777,#778);
#777 = CARTESIAN_POINT('',(-162.85,8.35455173281,5.));
#778 = VECTOR('',#779,1.);
#779 = DIRECTION('',(0.,1.,0.));
#780 = ORIENTED_EDGE('',*,*,#781,.F.);
#781 = EDGE_CURVE('',#121,#774,#782,.T.);
#782 = LINE('',#783,#784);
#783 = CARTESIAN_POINT('',(-162.85,11.64544826719,-5.17E-15));
#784 = VECTOR('',#785,1.);
#785 = DIRECTION('',(0.,4.4E-16,1.));
#786 = ORIENTED_EDGE('',*,*,#128,.F.);
#787 = PLANE('',#788);
#788 = AXIS2_PLACEMENT_3D('',#789,#790,#791);
#789 = CARTESIAN_POINT('',(-162.85,8.35455173281,-3.71E-15));
#790 = DIRECTION('',(-1.,0.,0.));
#791 = DIRECTION('',(0.,1.,-4.4E-16));
#792 = ADVANCED_FACE('',(#793),#811,.F.);
#793 = FACE_BOUND('',#794,.F.);
#794 = EDGE_LOOP('',(#795,#796,#804,#810));
#795 = ORIENTED_EDGE('',*,*,#781,.T.);
#796 = ORIENTED_EDGE('',*,*,#797,.T.);
#797 = EDGE_CURVE('',#774,#798,#800,.T.);
#798 = VERTEX_POINT('',#799);
#799 = CARTESIAN_POINT('',(-160.,13.290896534381,5.));
#800 = LINE('',#801,#802);
#801 = CARTESIAN_POINT('',(-162.85,11.64544826719,5.));
#802 = VECTOR('',#803,1.);
#803 = DIRECTION('',(0.866025403784,0.5,0.));
#804 = ORIENTED_EDGE('',*,*,#805,.F.);
#805 = EDGE_CURVE('',#113,#798,#806,.T.);
#806 = LINE('',#807,#808);
#807 = CARTESIAN_POINT('',(-160.,13.290896534381,-5.9E-15));
#808 = VECTOR('',#809,1.);
#809 = DIRECTION('',(0.,4.4E-16,1.));
#810 = ORIENTED_EDGE('',*,*,#120,.F.);
#811 = PLANE('',#812);
#812 = AXIS2_PLACEMENT_3D('',#813,#814,#815);
#813 = CARTESIAN_POINT('',(-162.85,11.64544826719,-5.17E-15));
#814 = DIRECTION('',(-0.5,0.866025403784,-3.8E-16));
#815 = DIRECTION('',(0.866025403784,0.5,-2.2E-16));
#816 = ADVANCED_FACE('',(#817),#828,.F.);
#817 = FACE_BOUND('',#818,.F.);
#818 = EDGE_LOOP('',(#819,#820,#826,#827));
#819 = ORIENTED_EDGE('',*,*,#805,.T.);
#820 = ORIENTED_EDGE('',*,*,#821,.T.);
#821 = EDGE_CURVE('',#798,#694,#822,.T.);
#822 = LINE('',#823,#824);
#823 = CARTESIAN_POINT('',(-160.,13.290896534381,5.));
#824 = VECTOR('',#825,1.);
#825 = DIRECTION('',(0.866025403784,-0.5,0.));
#826 = ORIENTED_EDGE('',*,*,#693,.F.);
#827 = ORIENTED_EDGE('',*,*,#112,.F.);
#828 = PLANE('',#829);
#829 = AXIS2_PLACEMENT_3D('',#830,#831,#832);
#830 = CARTESIAN_POINT('',(-160.,13.290896534381,-5.9E-15));
#831 = DIRECTION('',(0.5,0.866025403784,-3.8E-16));
#832 = DIRECTION('',(0.866025403784,-0.5,2.2E-16));
#833 = ADVANCED_FACE('',(#834),#859,.F.);
#834 = FACE_BOUND('',#835,.F.);
#835 = EDGE_LOOP('',(#836,#844,#852,#858));
#836 = ORIENTED_EDGE('',*,*,#837,.T.);
#837 = EDGE_CURVE('',#153,#838,#840,.T.);
#838 = VERTEX_POINT('',#839);
#839 = CARTESIAN_POINT('',(-136.7091034656,11.9,5.));
#840 = LINE('',#841,#842);
#841 = CARTESIAN_POINT('',(-136.7091034656,11.9,-5.28E-15));
#842 = VECTOR('',#843,1.);
#843 = DIRECTION('',(0.,4.4E-16,1.));
#844 = ORIENTED_EDGE('',*,*,#845,.T.);
#845 = EDGE_CURVE('',#838,#846,#848,.T.);
#846 = VERTEX_POINT('',#847);
#847 = CARTESIAN_POINT('',(-136.7091034656,8.1,5.));
#848 = LINE('',#849,#850);
#849 = CARTESIAN_POINT('',(-136.7091034656,11.9,5.));
#850 = VECTOR('',#851,1.);
#851 = DIRECTION('',(0.,-1.,0.));
#852 = ORIENTED_EDGE('',*,*,#853,.F.);
#853 = EDGE_CURVE('',#155,#846,#854,.T.);
#854 = LINE('',#855,#856);
#855 = CARTESIAN_POINT('',(-136.7091034656,8.1,-3.6E-15));
#856 = VECTOR('',#857,1.);
#857 = DIRECTION('',(0.,4.4E-16,1.));
#858 = ORIENTED_EDGE('',*,*,#152,.F.);
#859 = PLANE('',#860);
#860 = AXIS2_PLACEMENT_3D('',#861,#862,#863);
#861 = CARTESIAN_POINT('',(-136.7091034656,11.9,-5.28E-15));
#862 = DIRECTION('',(1.,0.,0.));
#863 = DIRECTION('',(0.,-1.,4.4E-16));
#864 = ADVANCED_FACE('',(#865),#883,.F.);
#865 = FACE_BOUND('',#866,.F.);
#866 = EDGE_LOOP('',(#867,#868,#876,#882));
#867 = ORIENTED_EDGE('',*,*,#853,.T.);
#868 = ORIENTED_EDGE('',*,*,#869,.T.);
#869 = EDGE_CURVE('',#846,#870,#872,.T.);
#870 = VERTEX_POINT('',#871);
#871 = CARTESIAN_POINT('',(-140.,6.2,5.));
#872 = LINE('',#873,#874);
#873 = CARTESIAN_POINT('',(-136.7091034656,8.1,5.));
#874 = VECTOR('',#875,1.);
#875 = DIRECTION('',(-0.866025403784,-0.5,0.));
#876 = ORIENTED_EDGE('',*,*,#877,.F.);
#877 = EDGE_CURVE('',#187,#870,#878,.T.);
#878 = LINE('',#879,#880);
#879 = CARTESIAN_POINT('',(-140.,6.2,-2.75E-15));
#880 = VECTOR('',#881,1.);
#881 = DIRECTION('',(0.,4.4E-16,1.));
#882 = ORIENTED_EDGE('',*,*,#194,.F.);
#883 = PLANE('',#884);
#884 = AXIS2_PLACEMENT_3D('',#885,#886,#887);
#885 = CARTESIAN_POINT('',(-136.7091034656,8.1,-3.6E-15));
#886 = DIRECTION('',(0.5,-0.866025403784,3.8E-16));
#887 = DIRECTION('',(-0.866025403784,-0.5,2.2E-16));
#888 = ADVANCED_FACE('',(#889),#907,.F.);
#889 = FACE_BOUND('',#890,.F.);
#890 = EDGE_LOOP('',(#891,#892,#900,#906));
#891 = ORIENTED_EDGE('',*,*,#877,.T.);
#892 = ORIENTED_EDGE('',*,*,#893,.T.);
#893 = EDGE_CURVE('',#870,#894,#896,.T.);
#894 = VERTEX_POINT('',#895);
#895 = CARTESIAN_POINT('',(-143.2908965343,8.1,5.));
#896 = LINE('',#897,#898);
#897 = CARTESIAN_POINT('',(-140.,6.2,5.));
#898 = VECTOR('',#899,1.);
#899 = DIRECTION('',(-0.866025403784,0.5,-0.));
#900 = ORIENTED_EDGE('',*,*,#901,.F.);
#901 = EDGE_CURVE('',#179,#894,#902,.T.);
#902 = LINE('',#903,#904);
#903 = CARTESIAN_POINT('',(-143.2908965343,8.1,-3.6E-15));
#904 = VECTOR('',#905,1.);
#905 = DIRECTION('',(0.,4.4E-16,1.));
#906 = ORIENTED_EDGE('',*,*,#186,.F.);
#907 = PLANE('',#908);
#908 = AXIS2_PLACEMENT_3D('',#909,#910,#911);
#909 = CARTESIAN_POINT('',(-140.,6.2,-2.75E-15));
#910 = DIRECTION('',(-0.5,-0.866025403784,3.8E-16));
#911 = DIRECTION('',(-0.866025403784,0.5,-2.2E-16));
#912 = ADVANCED_FACE('',(#913),#931,.F.);
#913 = FACE_BOUND('',#914,.F.);
#914 = EDGE_LOOP('',(#915,#916,#924,#930));
#915 = ORIENTED_EDGE('',*,*,#901,.T.);
#916 = ORIENTED_EDGE('',*,*,#917,.T.);
#917 = EDGE_CURVE('',#894,#918,#920,.T.);
#918 = VERTEX_POINT('',#919);
#919 = CARTESIAN_POINT('',(-143.2908965343,11.9,5.));
#920 = LINE('',#921,#922);
#921 = CARTESIAN_POINT('',(-143.2908965343,8.1,5.));
#922 = VECTOR('',#923,1.);
#923 = DIRECTION('',(0.,1.,0.));
#924 = ORIENTED_EDGE('',*,*,#925,.F.);
#925 = EDGE_CURVE('',#171,#918,#926,.T.);
#926 = LINE('',#927,#928);
#927 = CARTESIAN_POINT('',(-143.2908965343,11.9,-5.28E-15));
#928 = VECTOR('',#929,1.);
#929 = DIRECTION('',(0.,4.4E-16,1.));
#930 = ORIENTED_EDGE('',*,*,#178,.F.);
#931 = PLANE('',#932);
#932 = AXIS2_PLACEMENT_3D('',#933,#934,#935);
#933 = CARTESIAN_POINT('',(-143.2908965343,8.1,-3.6E-15));
#934 = DIRECTION('',(-1.,0.,0.));
#935 = DIRECTION('',(0.,1.,-4.4E-16));
#936 = ADVANCED_FACE('',(#937),#955,.F.);
#937 = FACE_BOUND('',#938,.F.);
#938 = EDGE_LOOP('',(#939,#940,#948,#954));
#939 = ORIENTED_EDGE('',*,*,#925,.T.);
#940 = ORIENTED_EDGE('',*,*,#941,.T.);
#941 = EDGE_CURVE('',#918,#942,#944,.T.);
#942 = VERTEX_POINT('',#943);
#943 = CARTESIAN_POINT('',(-140.,13.8,5.));
#944 = LINE('',#945,#946);
#945 = CARTESIAN_POINT('',(-143.2908965343,11.9,5.));
#946 = VECTOR('',#947,1.);
#947 = DIRECTION('',(0.866025403784,0.5,0.));
#948 = ORIENTED_EDGE('',*,*,#949,.F.);
#949 = EDGE_CURVE('',#163,#942,#950,.T.);
#950 = LINE('',#951,#952);
#951 = CARTESIAN_POINT('',(-140.,13.8,-6.13E-15));
#952 = VECTOR('',#953,1.);
#953 = DIRECTION('',(0.,4.4E-16,1.));
#954 = ORIENTED_EDGE('',*,*,#170,.F.);
#955 = PLANE('',#956);
#956 = AXIS2_PLACEMENT_3D('',#957,#958,#959);
#957 = CARTESIAN_POINT('',(-143.2908965343,11.9,-5.28E-15));
#958 = DIRECTION('',(-0.5,0.866025403784,-3.8E-16));
#959 = DIRECTION('',(0.866025403784,0.5,-2.2E-16));
#960 = ADVANCED_FACE('',(#961),#972,.F.);
#961 = FACE_BOUND('',#962,.F.);
#962 = EDGE_LOOP('',(#963,#964,#970,#971));
#963 = ORIENTED_EDGE('',*,*,#949,.T.);
#964 = ORIENTED_EDGE('',*,*,#965,.T.);
#965 = EDGE_CURVE('',#942,#838,#966,.T.);
#966 = LINE('',#967,#968);
#967 = CARTESIAN_POINT('',(-140.,13.8,5.));
#968 = VECTOR('',#969,1.);
#969 = DIRECTION('',(0.866025403784,-0.5,0.));
#970 = ORIENTED_EDGE('',*,*,#837,.F.);
#971 = ORIENTED_EDGE('',*,*,#162,.F.);
#972 = PLANE('',#973);
#973 = AXIS2_PLACEMENT_3D('',#974,#975,#976);
#974 = CARTESIAN_POINT('',(-140.,13.8,-6.13E-15));
#975 = DIRECTION('',(0.5,0.866025403784,-3.8E-16));
#976 = DIRECTION('',(0.866025403784,-0.5,2.2E-16));
#977 = ADVANCED_FACE('',(#978),#1003,.F.);
#978 = FACE_BOUND('',#979,.F.);
#979 = EDGE_LOOP('',(#980,#990,#996,#997));
#980 = ORIENTED_EDGE('',*,*,#981,.F.);
#981 = EDGE_CURVE('',#982,#984,#986,.T.);
#982 = VERTEX_POINT('',#983);
#983 = CARTESIAN_POINT('',(-90.,12.75,10.));
#984 = VERTEX_POINT('',#985);
#985 = CARTESIAN_POINT('',(-120.,12.75,10.));
#986 = LINE('',#987,#988);
#987 = CARTESIAN_POINT('',(-110.7572614107,12.75,10.));
#988 = VECTOR('',#989,1.);
#989 = DIRECTION('',(-1.,-0.,-1.E-17));
#990 = ORIENTED_EDGE('',*,*,#991,.T.);
#991 = EDGE_CURVE('',#982,#205,#992,.T.);
#992 = LINE('',#993,#994);
#993 = CARTESIAN_POINT('',(-90.,12.75,20.));
#994 = VECTOR('',#995,1.);
#995 = DIRECTION('',(0.,-4.4E-16,-1.));
#996 = ORIENTED_EDGE('',*,*,#202,.F.);
#997 = ORIENTED_EDGE('',*,*,#998,.F.);
#998 = EDGE_CURVE('',#984,#203,#999,.T.);
#999 = LINE('',#1000,#1001);
#1000 = CARTESIAN_POINT('',(-120.,12.75,20.));
#1001 = VECTOR('',#1002,1.);
#1002 = DIRECTION('',(0.,-4.4E-16,-1.));
#1003 = PLANE('',#1004);
#1004 = AXIS2_PLACEMENT_3D('',#1005,#1006,#1007);
#1005 = CARTESIAN_POINT('',(-90.,12.75,20.));
#1006 = DIRECTION('',(0.,1.,-4.4E-16));
#1007 = DIRECTION('',(-1.,0.,0.));
#1008 = ADVANCED_FACE('',(#1009),#1028,.F.);
#1009 = FACE_BOUND('',#1010,.F.);
#1010 = EDGE_LOOP('',(#1011,#1020,#1021,#1022));
#1011 = ORIENTED_EDGE('',*,*,#1012,.F.);
#1012 = EDGE_CURVE('',#984,#1013,#1015,.T.);
#1013 = VERTEX_POINT('',#1014);
#1014 = CARTESIAN_POINT('',(-120.,7.25,10.));
#1015 = CIRCLE('',#1016,2.75);
#1016 = AXIS2_PLACEMENT_3D('',#1017,#1018,#1019);
#1017 = CARTESIAN_POINT('',(-120.,10.,10.));
#1018 = DIRECTION('',(-0.,4.4E-16,1.));
#1019 = DIRECTION('',(1.,0.,0.));
#1020 = ORIENTED_EDGE('',*,*,#998,.T.);
#1021 = ORIENTED_EDGE('',*,*,#212,.T.);
#1022 = ORIENTED_EDGE('',*,*,#1023,.F.);
#1023 = EDGE_CURVE('',#1013,#213,#1024,.T.);
#1024 = LINE('',#1025,#1026);
#1025 = CARTESIAN_POINT('',(-120.,7.25,20.));
#1026 = VECTOR('',#1027,1.);
#1027 = DIRECTION('',(0.,-4.4E-16,-1.));
#1028 = CYLINDRICAL_SURFACE('',#1029,2.75);
#1029 = AXIS2_PLACEMENT_3D('',#1030,#1031,#1032);
#1030 = CARTESIAN_POINT('',(-120.,10.,20.));
#1031 = DIRECTION('',(0.,4.4E-16,1.));
#1032 = DIRECTION('',(1.,0.,0.));
#1033 = ADVANCED_FACE('',(#1034),#1053,.F.);
#1034 = FACE_BOUND('',#1035,.F.);
#1035 = EDGE_LOOP('',(#1036,#1045,#1051,#1052));
#1036 = ORIENTED_EDGE('',*,*,#1037,.F.);
#1037 = EDGE_CURVE('',#1038,#982,#1040,.T.);
#1038 = VERTEX_POINT('',#1039);
#1039 = CARTESIAN_POINT('',(-90.,7.25,10.));
#1040 = CIRCLE('',#1041,2.75);
#1041 = AXIS2_PLACEMENT_3D('',#1042,#1043,#1044);
#1042 = CARTESIAN_POINT('',(-90.,10.,10.));
#1043 = DIRECTION('',(-0.,4.4E-16,1.));
#1044 = DIRECTION('',(1.,0.,0.));
#1045 = ORIENTED_EDGE('',*,*,#1046,.T.);
#1046 = EDGE_CURVE('',#1038,#222,#1047,.T.);
#1047 = LINE('',#1048,#1049);
#1048 = CARTESIAN_POINT('',(-90.,7.25,20.));
#1049 = VECTOR('',#1050,1.);
#1050 = DIRECTION('',(0.,-4.4E-16,-1.));
#1051 = ORIENTED_EDGE('',*,*,#229,.T.);
#1052 = ORIENTED_EDGE('',*,*,#991,.F.);
#1053 = CYLINDRICAL_SURFACE('',#1054,2.75);
#1054 = AXIS2_PLACEMENT_3D('',#1055,#1056,#1057);
#1055 = CARTESIAN_POINT('',(-90.,10.,20.));
#1056 = DIRECTION('',(0.,4.4E-16,1.));
#1057 = DIRECTION('',(1.,0.,0.));
#1058 = ADVANCED_FACE('',(#1059),#1070,.F.);
#1059 = FACE_BOUND('',#1060,.F.);
#1060 = EDGE_LOOP('',(#1061,#1067,#1068,#1069));
#1061 = ORIENTED_EDGE('',*,*,#1062,.F.);
#1062 = EDGE_CURVE('',#1013,#1038,#1063,.T.);
#1063 = LINE('',#1064,#1065);
#1064 = CARTESIAN_POINT('',(-125.7572614107,7.25,10.));
#1065 = VECTOR('',#1066,1.);
#1066 = DIRECTION('',(1.,0.,1.E-17));
#1067 = ORIENTED_EDGE('',*,*,#1023,.T.);
#1068 = ORIENTED_EDGE('',*,*,#221,.F.);
#1069 = ORIENTED_EDGE('',*,*,#1046,.F.);
#1070 = PLANE('',#1071);
#1071 = AXIS2_PLACEMENT_3D('',#1072,#1073,#1074);
#1072 = CARTESIAN_POINT('',(-120.,7.25,20.));
#1073 = DIRECTION('',(0.,-1.,4.4E-16));
#1074 = DIRECTION('',(1.,0.,0.));
#1075 = ADVANCED_FACE('',(#1076),#1101,.F.);
#1076 = FACE_BOUND('',#1077,.F.);
#1077 = EDGE_LOOP('',(#1078,#1086,#1094,#1100));
#1078 = ORIENTED_EDGE('',*,*,#1079,.T.);
#1079 = EDGE_CURVE('',#239,#1080,#1082,.T.);
#1080 = VERTEX_POINT('',#1081);
#1081 = CARTESIAN_POINT('',(-5.95,7.661731409782,5.));
#1082 = LINE('',#1083,#1084);
#1083 = CARTESIAN_POINT('',(-5.95,7.661731409782,-3.4E-15));
#1084 = VECTOR('',#1085,1.);
#1085 = DIRECTION('',(0.,4.4E-16,1.));
#1086 = ORIENTED_EDGE('',*,*,#1087,.T.);
#1087 = EDGE_CURVE('',#1080,#1088,#1090,.T.);
#1088 = VERTEX_POINT('',#1089);
#1089 = CARTESIAN_POINT('',(-10.,5.323462819564,5.));
#1090 = LINE('',#1091,#1092);
#1091 = CARTESIAN_POINT('',(-5.95,7.661731409782,5.));
#1092 = VECTOR('',#1093,1.);
#1093 = DIRECTION('',(-0.866025403784,-0.5,0.));
#1094 = ORIENTED_EDGE('',*,*,#1095,.F.);
#1095 = EDGE_CURVE('',#241,#1088,#1096,.T.);
#1096 = LINE('',#1097,#1098);
#1097 = CARTESIAN_POINT('',(-10.,5.323462819564,-2.36E-15));
#1098 = VECTOR('',#1099,1.);
#1099 = DIRECTION('',(0.,4.4E-16,1.));
#1100 = ORIENTED_EDGE('',*,*,#238,.F.);
#1101 = PLANE('',#1102);
#1102 = AXIS2_PLACEMENT_3D('',#1103,#1104,#1105);
#1103 = CARTESIAN_POINT('',(-5.95,7.661731409782,-3.4E-15));
#1104 = DIRECTION('',(0.5,-0.866025403784,3.8E-16));
#1105 = DIRECTION('',(-0.866025403784,-0.5,2.2E-16));
#1106 = ADVANCED_FACE('',(#1107),#1125,.F.);
#1107 = FACE_BOUND('',#1108,.F.);
#1108 = EDGE_LOOP('',(#1109,#1110,#1118,#1124));
#1109 = ORIENTED_EDGE('',*,*,#1095,.T.);
#1110 = ORIENTED_EDGE('',*,*,#1111,.T.);
#1111 = EDGE_CURVE('',#1088,#1112,#1114,.T.);
#1112 = VERTEX_POINT('',#1113);
#1113 = CARTESIAN_POINT('',(-14.05,7.661731409782,5.));
#1114 = LINE('',#1115,#1116);
#1115 = CARTESIAN_POINT('',(-10.,5.323462819564,5.));
#1116 = VECTOR('',#1117,1.);
#1117 = DIRECTION('',(-0.866025403784,0.5,-0.));
#1118 = ORIENTED_EDGE('',*,*,#1119,.F.);
#1119 = EDGE_CURVE('',#273,#1112,#1120,.T.);
#1120 = LINE('',#1121,#1122);
#1121 = CARTESIAN_POINT('',(-14.05,7.661731409782,-3.4E-15));
#1122 = VECTOR('',#1123,1.);
#1123 = DIRECTION('',(0.,4.4E-16,1.));
#1124 = ORIENTED_EDGE('',*,*,#280,.F.);
#1125 = PLANE('',#1126);
#1126 = AXIS2_PLACEMENT_3D('',#1127,#1128,#1129);
#1127 = CARTESIAN_POINT('',(-10.,5.323462819564,-2.36E-15));
#1128 = DIRECTION('',(-0.5,-0.866025403784,3.8E-16));
#1129 = DIRECTION('',(-0.866025403784,0.5,-2.2E-16));
#1130 = ADVANCED_FACE('',(#1131),#1149,.F.);
#1131 = FACE_BOUND('',#1132,.F.);
#1132 = EDGE_LOOP('',(#1133,#1134,#1142,#1148));
#1133 = ORIENTED_EDGE('',*,*,#1119,.T.);
#1134 = ORIENTED_EDGE('',*,*,#1135,.T.);
#1135 = EDGE_CURVE('',#1112,#1136,#1138,.T.);
#1136 = VERTEX_POINT('',#1137);
#1137 = CARTESIAN_POINT('',(-14.05,12.338268590218,5.));
#1138 = LINE('',#1139,#1140);
#1139 = CARTESIAN_POINT('',(-14.05,7.661731409782,5.));
#1140 = VECTOR('',#1141,1.);
#1141 = DIRECTION('',(0.,1.,0.));
#1142 = ORIENTED_EDGE('',*,*,#1143,.F.);
#1143 = EDGE_CURVE('',#265,#1136,#1144,.T.);
#1144 = LINE('',#1145,#1146);
#1145 = CARTESIAN_POINT('',(-14.05,12.338268590218,-5.48E-15));
#1146 = VECTOR('',#1147,1.);
#1147 = DIRECTION('',(0.,4.4E-16,1.));
#1148 = ORIENTED_EDGE('',*,*,#272,.F.);
#1149 = PLANE('',#1150);
#1150 = AXIS2_PLACEMENT_3D('',#1151,#1152,#1153);
#1151 = CARTESIAN_POINT('',(-14.05,7.661731409782,-3.4E-15));
#1152 = DIRECTION('',(-1.,0.,0.));
#1153 = DIRECTION('',(0.,1.,-4.4E-16));
#1154 = ADVANCED_FACE('',(#1155),#1173,.F.);
#1155 = FACE_BOUND('',#1156,.F.);
#1156 = EDGE_LOOP('',(#1157,#1158,#1166,#1172));
#1157 = ORIENTED_EDGE('',*,*,#1143,.T.);
#1158 = ORIENTED_EDGE('',*,*,#1159,.T.);
#1159 = EDGE_CURVE('',#1136,#1160,#1162,.T.);
#1160 = VERTEX_POINT('',#1161);
#1161 = CARTESIAN_POINT('',(-10.,14.676537180436,5.));
#1162 = LINE('',#1163,#1164);
#1163 = CARTESIAN_POINT('',(-14.05,12.338268590218,5.));
#1164 = VECTOR('',#1165,1.);
#1165 = DIRECTION('',(0.866025403784,0.5,0.));
#1166 = ORIENTED_EDGE('',*,*,#1167,.F.);
#1167 = EDGE_CURVE('',#257,#1160,#1168,.T.);
#1168 = LINE('',#1169,#1170);
#1169 = CARTESIAN_POINT('',(-10.,14.676537180436,-6.52E-15));
#1170 = VECTOR('',#1171,1.);
#1171 = DIRECTION('',(0.,4.4E-16,1.));
#1172 = ORIENTED_EDGE('',*,*,#264,.F.);
#1173 = PLANE('',#1174);
#1174 = AXIS2_PLACEMENT_3D('',#1175,#1176,#1177);
#1175 = CARTESIAN_POINT('',(-14.05,12.338268590218,-5.48E-15));
#1176 = DIRECTION('',(-0.5,0.866025403784,-3.8E-16));
#1177 = DIRECTION('',(0.866025403784,0.5,-2.2E-16));
#1178 = ADVANCED_FACE('',(#1179),#1197,.F.);
#1179 = FACE_BOUND('',#1180,.F.);
#1180 = EDGE_LOOP('',(#1181,#1182,#1190,#1196));
#1181 = ORIENTED_EDGE('',*,*,#1167,.T.);
#1182 = ORIENTED_EDGE('',*,*,#1183,.T.);
#1183 = EDGE_CURVE('',#1160,#1184,#1186,.T.);
#1184 = VERTEX_POINT('',#1185);
#1185 = CARTESIAN_POINT('',(-5.95,12.338268590218,5.));
#1186 = LINE('',#1187,#1188);
#1187 = CARTESIAN_POINT('',(-10.,14.676537180436,5.));
#1188 = VECTOR('',#1189,1.);
#1189 = DIRECTION('',(0.866025403784,-0.5,0.));
#1190 = ORIENTED_EDGE('',*,*,#1191,.F.);
#1191 = EDGE_CURVE('',#249,#1184,#1192,.T.);
#1192 = LINE('',#1193,#1194);
#1193 = CARTESIAN_POINT('',(-5.95,12.338268590218,-5.48E-15));
#1194 = VECTOR('',#1195,1.);
#1195 = DIRECTION('',(0.,4.4E-16,1.));
#1196 = ORIENTED_EDGE('',*,*,#256,.F.);
#1197 = PLANE('',#1198);
#1198 = AXIS2_PLACEMENT_3D('',#1199,#1200,#1201);
#1199 = CARTESIAN_POINT('',(-10.,14.676537180436,-6.52E-15));
#1200 = DIRECTION('',(0.5,0.866025403784,-3.8E-16));
#1201 = DIRECTION('',(0.866025403784,-0.5,2.2E-16));
#1202 = ADVANCED_FACE('',(#1203),#1214,.F.);
#1203 = FACE_BOUND('',#1204,.F.);
#1204 = EDGE_LOOP('',(#1205,#1206,#1212,#1213));
#1205 = ORIENTED_EDGE('',*,*,#1191,.T.);
#1206 = ORIENTED_EDGE('',*,*,#1207,.T.);
#1207 = EDGE_CURVE('',#1184,#1080,#1208,.T.);
#1208 = LINE('',#1209,#1210);
#1209 = CARTESIAN_POINT('',(-5.95,12.338268590218,5.));
#1210 = VECTOR('',#1211,1.);
#1211 = DIRECTION('',(0.,-1.,0.));
#1212 = ORIENTED_EDGE('',*,*,#1079,.F.);
#1213 = ORIENTED_EDGE('',*,*,#248,.F.);
#1214 = PLANE('',#1215);
#1215 = AXIS2_PLACEMENT_3D('',#1216,#1217,#1218);
#1216 = CARTESIAN_POINT('',(-5.95,12.338268590218,-5.48E-15));
#1217 = DIRECTION('',(1.,0.,0.));
#1218 = DIRECTION('',(0.,-1.,4.4E-16));
#1219 = ADVANCED_FACE('',(#1220),#1238,.T.);
#1220 = FACE_BOUND('',#1221,.F.);
#1221 = EDGE_LOOP('',(#1222,#1223,#1231,#1237));
#1222 = ORIENTED_EDGE('',*,*,#486,.F.);
#1223 = ORIENTED_EDGE('',*,*,#1224,.T.);
#1224 = EDGE_CURVE('',#479,#1225,#1227,.T.);
#1225 = VERTEX_POINT('',#1226);
#1226 = CARTESIAN_POINT('',(-170.,62.,10.));
#1227 = LINE('',#1228,#1229);
#1228 = CARTESIAN_POINT('',(-170.,62.,-2.753E-14));
#1229 = VECTOR('',#1230,1.);
#1230 = DIRECTION('',(0.,4.4E-16,1.));
#1231 = ORIENTED_EDGE('',*,*,#1232,.F.);
#1232 = EDGE_CURVE('',#297,#1225,#1233,.T.);
#1233 = LINE('',#1234,#1235);
#1234 = CARTESIAN_POINT('',(-170.,31.,10.));
#1235 = VECTOR('',#1236,1.);
#1236 = DIRECTION('',(0.,1.,0.));
#1237 = ORIENTED_EDGE('',*,*,#304,.F.);
#1238 = PLANE('',#1239);
#1239 = AXIS2_PLACEMENT_3D('',#1240,#1241,#1242);
#1240 = CARTESIAN_POINT('',(-170.,62.,-2.753E-14));
#1241 = DIRECTION('',(-1.,0.,-0.));
#1242 = DIRECTION('',(0.,1.,-4.4E-16));
#1243 = ADVANCED_FACE('',(#1244,#1262,#1273),#1284,.F.);
#1244 = FACE_BOUND('',#1245,.T.);
#1245 = EDGE_LOOP('',(#1246,#1254,#1255,#1256));
#1246 = ORIENTED_EDGE('',*,*,#1247,.F.);
#1247 = EDGE_CURVE('',#1225,#1248,#1250,.T.);
#1248 = VERTEX_POINT('',#1249);
#1249 = CARTESIAN_POINT('',(-130.,62.,10.));
#1250 = LINE('',#1251,#1252);
#1251 = CARTESIAN_POINT('',(-170.,62.,10.));
#1252 = VECTOR('',#1253,1.);
#1253 = DIRECTION('',(1.,0.,0.));
#1254 = ORIENTED_EDGE('',*,*,#1232,.F.);
#1255 = ORIENTED_EDGE('',*,*,#320,.F.);
#1256 = ORIENTED_EDGE('',*,*,#1257,.F.);
#1257 = EDGE_CURVE('',#1248,#321,#1258,.T.);
#1258 = LINE('',#1259,#1260);
#1259 = CARTESIAN_POINT('',(-130.,62.,10.));
#1260 = VECTOR('',#1261,1.);
#1261 = DIRECTION('',(0.,-1.,0.));
#1262 = FACE_BOUND('',#1263,.T.);
#1263 = EDGE_LOOP('',(#1264));
#1264 = ORIENTED_EDGE('',*,*,#1265,.F.);
#1265 = EDGE_CURVE('',#1266,#1266,#1268,.T.);
#1266 = VERTEX_POINT('',#1267);
#1267 = CARTESIAN_POINT('',(-158.3,52.,10.));
#1268 = CIRCLE('',#1269,1.7);
#1269 = AXIS2_PLACEMENT_3D('',#1270,#1271,#1272);
#1270 = CARTESIAN_POINT('',(-160.,52.,10.));
#1271 = DIRECTION('',(0.,4.4E-16,1.));
#1272 = DIRECTION('',(1.,0.,-0.));
#1273 = FACE_BOUND('',#1274,.T.);
#1274 = EDGE_LOOP('',(#1275));
#1275 = ORIENTED_EDGE('',*,*,#1276,.F.);
#1276 = EDGE_CURVE('',#1277,#1277,#1279,.T.);
#1277 = VERTEX_POINT('',#1278);
#1278 = CARTESIAN_POINT('',(-138.3,52.,10.));
#1279 = CIRCLE('',#1280,1.7);
#1280 = AXIS2_PLACEMENT_3D('',#1281,#1282,#1283);
#1281 = CARTESIAN_POINT('',(-140.,52.,10.));
#1282 = DIRECTION('',(0.,4.4E-16,1.));
#1283 = DIRECTION('',(1.,0.,-0.));
#1284 = PLANE('',#1285);
#1285 = AXIS2_PLACEMENT_3D('',#1286,#1287,#1288);
#1286 = CARTESIAN_POINT('',(-131.5145228215,48.759336099585,10.));
#1287 = DIRECTION('',(1.E-17,-2.1E-16,-1.));
#1288 = DIRECTION('',(0.,1.,-2.1E-16));
#1289 = ADVANCED_FACE('',(#1290),#1309,.F.);
#1290 = FACE_BOUND('',#1291,.F.);
#1291 = EDGE_LOOP('',(#1292,#1300,#1301,#1302));
#1292 = ORIENTED_EDGE('',*,*,#1293,.F.);
#1293 = EDGE_CURVE('',#337,#1294,#1296,.T.);
#1294 = VERTEX_POINT('',#1295);
#1295 = CARTESIAN_POINT('',(-158.3,10.,5.));
#1296 = LINE('',#1297,#1298);
#1297 = CARTESIAN_POINT('',(-158.3,10.,20.));
#1298 = VECTOR('',#1299,1.);
#1299 = DIRECTION('',(0.,-4.4E-16,-1.));
#1300 = ORIENTED_EDGE('',*,*,#336,.F.);
#1301 = ORIENTED_EDGE('',*,*,#1293,.T.);
#1302 = ORIENTED_EDGE('',*,*,#1303,.T.);
#1303 = EDGE_CURVE('',#1294,#1294,#1304,.T.);
#1304 = CIRCLE('',#1305,1.7);
#1305 = AXIS2_PLACEMENT_3D('',#1306,#1307,#1308);
#1306 = CARTESIAN_POINT('',(-160.,10.,5.));
#1307 = DIRECTION('',(-0.,4.4E-16,1.));
#1308 = DIRECTION('',(1.,0.,0.));
#1309 = CYLINDRICAL_SURFACE('',#1310,1.7);
#1310 = AXIS2_PLACEMENT_3D('',#1311,#1312,#1313);
#1311 = CARTESIAN_POINT('',(-160.,10.,20.));
#1312 = DIRECTION('',(0.,4.4E-16,1.));
#1313 = DIRECTION('',(1.,0.,0.));
#1314 = ADVANCED_FACE('',(#1315),#1334,.F.);
#1315 = FACE_BOUND('',#1316,.F.);
#1316 = EDGE_LOOP('',(#1317,#1325,#1326,#1327));
#1317 = ORIENTED_EDGE('',*,*,#1318,.F.);
#1318 = EDGE_CURVE('',#348,#1319,#1321,.T.);
#1319 = VERTEX_POINT('',#1320);
#1320 = CARTESIAN_POINT('',(-138.3,10.,5.));
#1321 = LINE('',#1322,#1323);
#1322 = CARTESIAN_POINT('',(-138.3,10.,20.));
#1323 = VECTOR('',#1324,1.);
#1324 = DIRECTION('',(0.,-4.4E-16,-1.));
#1325 = ORIENTED_EDGE('',*,*,#347,.F.);
#1326 = ORIENTED_EDGE('',*,*,#1318,.T.);
#1327 = ORIENTED_EDGE('',*,*,#1328,.T.);
#1328 = EDGE_CURVE('',#1319,#1319,#1329,.T.);
#1329 = CIRCLE('',#1330,1.7);
#1330 = AXIS2_PLACEMENT_3D('',#1331,#1332,#1333);
#1331 = CARTESIAN_POINT('',(-140.,10.,5.));
#1332 = DIRECTION('',(-0.,4.4E-16,1.));
#1333 = DIRECTION('',(1.,0.,0.));
#1334 = CYLINDRICAL_SURFACE('',#1335,1.7);
#1335 = AXIS2_PLACEMENT_3D('',#1336,#1337,#1338);
#1336 = CARTESIAN_POINT('',(-140.,10.,20.));
#1337 = DIRECTION('',(0.,4.4E-16,1.));
#1338 = DIRECTION('',(1.,0.,0.));
#1339 = ADVANCED_FACE('',(#1340),#1358,.F.);
#1340 = FACE_BOUND('',#1341,.T.);
#1341 = EDGE_LOOP('',(#1342,#1350,#1351,#1352));
#1342 = ORIENTED_EDGE('',*,*,#1343,.T.);
#1343 = EDGE_CURVE('',#1344,#1248,#1346,.T.);
#1344 = VERTEX_POINT('',#1345);
#1345 = CARTESIAN_POINT('',(-130.,62.,20.));
#1346 = LINE('',#1347,#1348);
#1347 = CARTESIAN_POINT('',(-130.,62.,20.));
#1348 = VECTOR('',#1349,1.);
#1349 = DIRECTION('',(-0.,-4.4E-16,-1.));
#1350 = ORIENTED_EDGE('',*,*,#1257,.T.);
#1351 = ORIENTED_EDGE('',*,*,#366,.F.);
#1352 = ORIENTED_EDGE('',*,*,#1353,.F.);
#1353 = EDGE_CURVE('',#1344,#367,#1354,.T.);
#1354 = LINE('',#1355,#1356);
#1355 = CARTESIAN_POINT('',(-130.,62.,20.));
#1356 = VECTOR('',#1357,1.);
#1357 = DIRECTION('',(0.,-1.,0.));
#1358 = PLANE('',#1359);
#1359 = AXIS2_PLACEMENT_3D('',#1360,#1361,#1362);
#1360 = CARTESIAN_POINT('',(-130.,62.,20.));
#1361 = DIRECTION('',(1.,0.,0.));
#1362 = DIRECTION('',(0.,1.,-4.4E-16));
#1363 = ADVANCED_FACE('',(#1364,#1382,#1418),#1429,.F.);
#1364 = FACE_BOUND('',#1365,.T.);
#1365 = EDGE_LOOP('',(#1366,#1374,#1380,#1381));
#1366 = ORIENTED_EDGE('',*,*,#1367,.T.);
#1367 = EDGE_CURVE('',#389,#1368,#1370,.T.);
#1368 = VERTEX_POINT('',#1369);
#1369 = CARTESIAN_POINT('',(0.,62.,20.));
#1370 = LINE('',#1371,#1372);
#1371 = CARTESIAN_POINT('',(0.,31.,20.));
#1372 = VECTOR('',#1373,1.);
#1373 = DIRECTION('',(0.,1.,0.));
#1374 = ORIENTED_EDGE('',*,*,#1375,.T.);
#1375 = EDGE_CURVE('',#1368,#1344,#1376,.T.);
#1376 = LINE('',#1377,#1378);
#1377 = CARTESIAN_POINT('',(0.,62.,20.));
#1378 = VECTOR('',#1379,1.);
#1379 = DIRECTION('',(-1.,0.,0.));
#1380 = ORIENTED_EDGE('',*,*,#1353,.T.);
#1381 = ORIENTED_EDGE('',*,*,#398,.T.);
#1382 = FACE_BOUND('',#1383,.T.);
#1383 = EDGE_LOOP('',(#1384,#1394,#1403,#1411));
#1384 = ORIENTED_EDGE('',*,*,#1385,.T.);
#1385 = EDGE_CURVE('',#1386,#1388,#1390,.T.);
#1386 = VERTEX_POINT('',#1387);
#1387 = CARTESIAN_POINT('',(-90.,45.5,20.));
#1388 = VERTEX_POINT('',#1389);
#1389 = CARTESIAN_POINT('',(-120.,45.5,20.));
#1390 = LINE('',#1391,#1392);
#1391 = CARTESIAN_POINT('',(-90.,45.5,20.));
#1392 = VECTOR('',#1393,1.);
#1393 = DIRECTION('',(-1.,0.,0.));
#1394 = ORIENTED_EDGE('',*,*,#1395,.T.);
#1395 = EDGE_CURVE('',#1388,#1396,#1398,.T.);
#1396 = VERTEX_POINT('',#1397);
#1397 = CARTESIAN_POINT('',(-120.,58.5,20.));
#1398 = CIRCLE('',#1399,6.5);
#1399 = AXIS2_PLACEMENT_3D('',#1400,#1401,#1402);
#1400 = CARTESIAN_POINT('',(-120.,52.,20.));
#1401 = DIRECTION('',(0.,0.,-1.));
#1402 = DIRECTION('',(1.,0.,0.));
#1403 = ORIENTED_EDGE('',*,*,#1404,.T.);
#1404 = EDGE_CURVE('',#1396,#1405,#1407,.T.);
#1405 = VERTEX_POINT('',#1406);
#1406 = CARTESIAN_POINT('',(-90.,58.5,20.));
#1407 = LINE('',#1408,#1409);
#1408 = CARTESIAN_POINT('',(-120.,58.5,20.));
#1409 = VECTOR('',#1410,1.);
#1410 = DIRECTION('',(1.,0.,0.));
#1411 = ORIENTED_EDGE('',*,*,#1412,.T.);
#1412 = EDGE_CURVE('',#1405,#1386,#1413,.T.);
#1413 = CIRCLE('',#1414,6.5);
#1414 = AXIS2_PLACEMENT_3D('',#1415,#1416,#1417);
#1415 = CARTESIAN_POINT('',(-90.,52.,20.));
#1416 = DIRECTION('',(0.,0.,-1.));
#1417 = DIRECTION('',(1.,0.,0.));
#1418 = FACE_BOUND('',#1419,.T.);
#1419 = EDGE_LOOP('',(#1420));
#1420 = ORIENTED_EDGE('',*,*,#1421,.T.);
#1421 = EDGE_CURVE('',#1422,#1422,#1424,.T.);
#1422 = VERTEX_POINT('',#1423);
#1423 = CARTESIAN_POINT('',(-7.25,52.,20.));
#1424 = CIRCLE('',#1425,2.75);
#1425 = AXIS2_PLACEMENT_3D('',#1426,#1427,#1428);
#1426 = CARTESIAN_POINT('',(-10.,52.,20.));
#1427 = DIRECTION('',(0.,0.,-1.));
#1428 = DIRECTION('',(1.,0.,0.));
#1429 = PLANE('',#1430);
#1430 = AXIS2_PLACEMENT_3D('',#1431,#1432,#1433);
#1431 = CARTESIAN_POINT('',(-85.,46.5,20.));
#1432 = DIRECTION('',(0.,-2.2E-16,-1.));
#1433 = DIRECTION('',(0.,1.,-2.2E-16));
#1434 = ADVANCED_FACE('',(#1435),#1460,.F.);
#1435 = FACE_BOUND('',#1436,.F.);
#1436 = EDGE_LOOP('',(#1437,#1445,#1453,#1459));
#1437 = ORIENTED_EDGE('',*,*,#1438,.T.);
#1438 = EDGE_CURVE('',#407,#1439,#1441,.T.);
#1439 = VERTEX_POINT('',#1440);
#1440 = CARTESIAN_POINT('',(-90.,16.5,10.));
#1441 = LINE('',#1442,#1443);
#1442 = CARTESIAN_POINT('',(-90.,16.5,20.));
#1443 = VECTOR('',#1444,1.);
#1444 = DIRECTION('',(0.,-4.4E-16,-1.));
#1445 = ORIENTED_EDGE('',*,*,#1446,.T.);
#1446 = EDGE_CURVE('',#1439,#1447,#1449,.T.);
#1447 = VERTEX_POINT('',#1448);
#1448 = CARTESIAN_POINT('',(-120.,16.5,10.));
#1449 = LINE('',#1450,#1451);
#1450 = CARTESIAN_POINT('',(-90.,16.5,10.));
#1451 = VECTOR('',#1452,1.);
#1452 = DIRECTION('',(-1.,0.,0.));
#1453 = ORIENTED_EDGE('',*,*,#1454,.F.);
#1454 = EDGE_CURVE('',#409,#1447,#1455,.T.);
#1455 = LINE('',#1456,#1457);
#1456 = CARTESIAN_POINT('',(-120.,16.5,20.));
#1457 = VECTOR('',#1458,1.);
#1458 = DIRECTION('',(0.,-4.4E-16,-1.));
#1459 = ORIENTED_EDGE('',*,*,#406,.F.);
#1460 = PLANE('',#1461);
#1461 = AXIS2_PLACEMENT_3D('',#1462,#1463,#1464);
#1462 = CARTESIAN_POINT('',(-90.,16.5,20.));
#1463 = DIRECTION('',(0.,1.,-4.4E-16));
#1464 = DIRECTION('',(-1.,0.,0.));
#1465 = ADVANCED_FACE('',(#1466),#1485,.F.);
#1466 = FACE_BOUND('',#1467,.F.);
#1467 = EDGE_LOOP('',(#1468,#1476,#1483,#1484));
#1468 = ORIENTED_EDGE('',*,*,#1469,.T.);
#1469 = EDGE_CURVE('',#426,#1470,#1472,.T.);
#1470 = VERTEX_POINT('',#1471);
#1471 = CARTESIAN_POINT('',(-90.,3.5,10.));
#1472 = LINE('',#1473,#1474);
#1473 = CARTESIAN_POINT('',(-90.,3.5,20.));
#1474 = VECTOR('',#1475,1.);
#1475 = DIRECTION('',(0.,-4.4E-16,-1.));
#1476 = ORIENTED_EDGE('',*,*,#1477,.T.);
#1477 = EDGE_CURVE('',#1470,#1439,#1478,.T.);
#1478 = CIRCLE('',#1479,6.5);
#1479 = AXIS2_PLACEMENT_3D('',#1480,#1481,#1482);
#1480 = CARTESIAN_POINT('',(-90.,10.,10.));
#1481 = DIRECTION('',(0.,0.,1.));
#1482 = DIRECTION('',(1.,0.,0.));
#1483 = ORIENTED_EDGE('',*,*,#1438,.F.);
#1484 = ORIENTED_EDGE('',*,*,#433,.F.);
#1485 = CYLINDRICAL_SURFACE('',#1486,6.5);
#1486 = AXIS2_PLACEMENT_3D('',#1487,#1488,#1489);
#1487 = CARTESIAN_POINT('',(-90.,10.,20.));
#1488 = DIRECTION('',(0.,4.4E-16,1.));
#1489 = DIRECTION('',(1.,0.,0.));
#1490 = ADVANCED_FACE('',(#1491),#1509,.F.);
#1491 = FACE_BOUND('',#1492,.F.);
#1492 = EDGE_LOOP('',(#1493,#1501,#1507,#1508));
#1493 = ORIENTED_EDGE('',*,*,#1494,.T.);
#1494 = EDGE_CURVE('',#417,#1495,#1497,.T.);
#1495 = VERTEX_POINT('',#1496);
#1496 = CARTESIAN_POINT('',(-120.,3.5,10.));
#1497 = LINE('',#1498,#1499);
#1498 = CARTESIAN_POINT('',(-120.,3.5,20.));
#1499 = VECTOR('',#1500,1.);
#1500 = DIRECTION('',(0.,-4.4E-16,-1.));
#1501 = ORIENTED_EDGE('',*,*,#1502,.T.);
#1502 = EDGE_CURVE('',#1495,#1470,#1503,.T.);
#1503 = LINE('',#1504,#1505);
#1504 = CARTESIAN_POINT('',(-120.,3.5,10.));
#1505 = VECTOR('',#1506,1.);
#1506 = DIRECTION('',(1.,0.,0.));
#1507 = ORIENTED_EDGE('',*,*,#1469,.F.);
#1508 = ORIENTED_EDGE('',*,*,#425,.F.);
#1509 = PLANE('',#1510);
#1510 = AXIS2_PLACEMENT_3D('',#1511,#1512,#1513);
#1511 = CARTESIAN_POINT('',(-120.,3.5,20.));
#1512 = DIRECTION('',(0.,-1.,4.4E-16));
#1513 = DIRECTION('',(1.,0.,0.));
#1514 = ADVANCED_FACE('',(#1515),#1527,.F.);
#1515 = FACE_BOUND('',#1516,.F.);
#1516 = EDGE_LOOP('',(#1517,#1518,#1525,#1526));
#1517 = ORIENTED_EDGE('',*,*,#1454,.T.);
#1518 = ORIENTED_EDGE('',*,*,#1519,.T.);
#1519 = EDGE_CURVE('',#1447,#1495,#1520,.T.);
#1520 = CIRCLE('',#1521,6.5);
#1521 = AXIS2_PLACEMENT_3D('',#1522,#1523,#1524);
#1522 = CARTESIAN_POINT('',(-120.,10.,10.));
#1523 = DIRECTION('',(0.,0.,1.));
#1524 = DIRECTION('',(1.,0.,0.));
#1525 = ORIENTED_EDGE('',*,*,#1494,.F.);
#1526 = ORIENTED_EDGE('',*,*,#416,.F.);
#1527 = CYLINDRICAL_SURFACE('',#1528,6.5);
#1528 = AXIS2_PLACEMENT_3D('',#1529,#1530,#1531);
#1529 = CARTESIAN_POINT('',(-120.,10.,20.));
#1530 = DIRECTION('',(0.,4.4E-16,1.));
#1531 = DIRECTION('',(1.,0.,0.));
#1532 = ADVANCED_FACE('',(#1533),#1552,.F.);
#1533 = FACE_BOUND('',#1534,.F.);
#1534 = EDGE_LOOP('',(#1535,#1543,#1544,#1545));
#1535 = ORIENTED_EDGE('',*,*,#1536,.F.);
#1536 = EDGE_CURVE('',#443,#1537,#1539,.T.);
#1537 = VERTEX_POINT('',#1538);
#1538 = CARTESIAN_POINT('',(-7.25,10.,5.));
#1539 = LINE('',#1540,#1541);
#1540 = CARTESIAN_POINT('',(-7.25,10.,20.));
#1541 = VECTOR('',#1542,1.);
#1542 = DIRECTION('',(0.,-4.4E-16,-1.));
#1543 = ORIENTED_EDGE('',*,*,#442,.F.);
#1544 = ORIENTED_EDGE('',*,*,#1536,.T.);
#1545 = ORIENTED_EDGE('',*,*,#1546,.T.);
#1546 = EDGE_CURVE('',#1537,#1537,#1547,.T.);
#1547 = CIRCLE('',#1548,2.75);
#1548 = AXIS2_PLACEMENT_3D('',#1549,#1550,#1551);
#1549 = CARTESIAN_POINT('',(-10.,10.,5.));
#1550 = DIRECTION('',(-0.,4.4E-16,1.));
#1551 = DIRECTION('',(1.,0.,0.));
#1552 = CYLINDRICAL_SURFACE('',#1553,2.75);
#1553 = AXIS2_PLACEMENT_3D('',#1554,#1555,#1556);
#1554 = CARTESIAN_POINT('',(-10.,10.,20.));
#1555 = DIRECTION('',(0.,4.4E-16,1.));
#1556 = DIRECTION('',(1.,0.,0.));
#1557 = ADVANCED_FACE('',(#1558),#1569,.T.);
#1558 = FACE_BOUND('',#1559,.F.);
#1559 = EDGE_LOOP('',(#1560,#1561,#1562,#1568));
#1560 = ORIENTED_EDGE('',*,*,#459,.T.);
#1561 = ORIENTED_EDGE('',*,*,#1367,.T.);
#1562 = ORIENTED_EDGE('',*,*,#1563,.F.);
#1563 = EDGE_CURVE('',#477,#1368,#1564,.T.);
#1564 = LINE('',#1565,#1566);
#1565 = CARTESIAN_POINT('',(0.,62.,-2.753E-14));
#1566 = VECTOR('',#1567,1.);
#1567 = DIRECTION('',(0.,4.4E-16,1.));
#1568 = ORIENTED_EDGE('',*,*,#493,.F.);
#1569 = PLANE('',#1570);
#1570 = AXIS2_PLACEMENT_3D('',#1571,#1572,#1573);
#1571 = CARTESIAN_POINT('',(0.,31.,-1.377E-14));
#1572 = DIRECTION('',(1.,0.,0.));
#1573 = DIRECTION('',(0.,-1.,4.4E-16));
#1574 = ADVANCED_FACE('',(#1575),#1583,.T.);
#1575 = FACE_BOUND('',#1576,.F.);
#1576 = EDGE_LOOP('',(#1577,#1578,#1579,#1580,#1581,#1582));
#1577 = ORIENTED_EDGE('',*,*,#476,.F.);
#1578 = ORIENTED_EDGE('',*,*,#1563,.T.);
#1579 = ORIENTED_EDGE('',*,*,#1375,.T.);
#1580 = ORIENTED_EDGE('',*,*,#1343,.T.);
#1581 = ORIENTED_EDGE('',*,*,#1247,.F.);
#1582 = ORIENTED_EDGE('',*,*,#1224,.F.);
#1583 = PLANE('',#1584);
#1584 = AXIS2_PLACEMENT_3D('',#1585,#1586,#1587);
#1585 = CARTESIAN_POINT('',(0.,62.,-2.753E-14));
#1586 = DIRECTION('',(0.,1.,-4.4E-16));
#1587 = DIRECTION('',(1.,0.,0.));
#1588 = ADVANCED_FACE('',(#1589),#1614,.F.);
#1589 = FACE_BOUND('',#1590,.T.);
#1590 = EDGE_LOOP('',(#1591,#1599,#1607,#1613));
#1591 = ORIENTED_EDGE('',*,*,#1592,.T.);
#1592 = EDGE_CURVE('',#502,#1593,#1595,.T.);
#1593 = VERTEX_POINT('',#1594);
#1594 = CARTESIAN_POINT('',(-157.15,50.35455173281,5.));
#1595 = LINE('',#1596,#1597);
#1596 = CARTESIAN_POINT('',(-157.15,50.35455173281,-2.236E-14));
#1597 = VECTOR('',#1598,1.);
#1598 = DIRECTION('',(0.,4.4E-16,1.));
#1599 = ORIENTED_EDGE('',*,*,#1600,.T.);
#1600 = EDGE_CURVE('',#1593,#1601,#1603,.T.);
#1601 = VERTEX_POINT('',#1602);
#1602 = CARTESIAN_POINT('',(-157.15,53.64544826719,5.));
#1603 = LINE('',#1604,#1605);
#1604 = CARTESIAN_POINT('',(-157.15,50.35455173281,5.));
#1605 = VECTOR('',#1606,1.);
#1606 = DIRECTION('',(0.,1.,-0.));
#1607 = ORIENTED_EDGE('',*,*,#1608,.F.);
#1608 = EDGE_CURVE('',#504,#1601,#1609,.T.);
#1609 = LINE('',#1610,#1611);
#1610 = CARTESIAN_POINT('',(-157.15,53.645448267191,-2.382E-14));
#1611 = VECTOR('',#1612,1.);
#1612 = DIRECTION('',(0.,4.4E-16,1.));
#1613 = ORIENTED_EDGE('',*,*,#501,.F.);
#1614 = PLANE('',#1615);
#1615 = AXIS2_PLACEMENT_3D('',#1616,#1617,#1618);
#1616 = CARTESIAN_POINT('',(-157.15,50.35455173281,-2.236E-14));
#1617 = DIRECTION('',(1.,0.,0.));
#1618 = DIRECTION('',(0.,-1.,4.4E-16));
#1619 = ADVANCED_FACE('',(#1620),#1638,.F.);
#1620 = FACE_BOUND('',#1621,.T.);
#1621 = EDGE_LOOP('',(#1622,#1623,#1631,#1637));
#1622 = ORIENTED_EDGE('',*,*,#1608,.T.);
#1623 = ORIENTED_EDGE('',*,*,#1624,.T.);
#1624 = EDGE_CURVE('',#1601,#1625,#1627,.T.);
#1625 = VERTEX_POINT('',#1626);
#1626 = CARTESIAN_POINT('',(-160.,55.290896534381,5.));
#1627 = LINE('',#1628,#1629);
#1628 = CARTESIAN_POINT('',(-157.15,53.645448267191,5.));
#1629 = VECTOR('',#1630,1.);
#1630 = DIRECTION('',(-0.866025403784,0.5,-0.));
#1631 = ORIENTED_EDGE('',*,*,#1632,.F.);
#1632 = EDGE_CURVE('',#536,#1625,#1633,.T.);
#1633 = LINE('',#1634,#1635);
#1634 = CARTESIAN_POINT('',(-160.,55.290896534381,-2.455E-14));
#1635 = VECTOR('',#1636,1.);
#1636 = DIRECTION('',(0.,4.4E-16,1.));
#1637 = ORIENTED_EDGE('',*,*,#543,.F.);
#1638 = PLANE('',#1639);
#1639 = AXIS2_PLACEMENT_3D('',#1640,#1641,#1642);
#1640 = CARTESIAN_POINT('',(-157.15,53.645448267191,-2.382E-14));
#1641 = DIRECTION('',(0.5,0.866025403784,-3.8E-16));
#1642 = DIRECTION('',(0.866025403784,-0.5,2.2E-16));
#1643 = ADVANCED_FACE('',(#1644),#1662,.F.);
#1644 = FACE_BOUND('',#1645,.T.);
#1645 = EDGE_LOOP('',(#1646,#1647,#1655,#1661));
#1646 = ORIENTED_EDGE('',*,*,#1632,.T.);
#1647 = ORIENTED_EDGE('',*,*,#1648,.T.);
#1648 = EDGE_CURVE('',#1625,#1649,#1651,.T.);
#1649 = VERTEX_POINT('',#1650);
#1650 = CARTESIAN_POINT('',(-162.85,53.64544826719,5.));
#1651 = LINE('',#1652,#1653);
#1652 = CARTESIAN_POINT('',(-160.,55.290896534381,5.));
#1653 = VECTOR('',#1654,1.);
#1654 = DIRECTION('',(-0.866025403784,-0.5,0.));
#1655 = ORIENTED_EDGE('',*,*,#1656,.F.);
#1656 = EDGE_CURVE('',#528,#1649,#1657,.T.);
#1657 = LINE('',#1658,#1659);
#1658 = CARTESIAN_POINT('',(-162.85,53.645448267191,-2.382E-14));
#1659 = VECTOR('',#1660,1.);
#1660 = DIRECTION('',(0.,4.4E-16,1.));
#1661 = ORIENTED_EDGE('',*,*,#535,.F.);
#1662 = PLANE('',#1663);
#1663 = AXIS2_PLACEMENT_3D('',#1664,#1665,#1666);
#1664 = CARTESIAN_POINT('',(-160.,55.290896534381,-2.455E-14));
#1665 = DIRECTION('',(-0.5,0.866025403784,-3.8E-16));
#1666 = DIRECTION('',(0.866025403784,0.5,-2.2E-16));
#1667 = ADVANCED_FACE('',(#1668),#1686,.F.);
#1668 = FACE_BOUND('',#1669,.T.);
#1669 = EDGE_LOOP('',(#1670,#1671,#1679,#1685));
#1670 = ORIENTED_EDGE('',*,*,#1656,.T.);
#1671 = ORIENTED_EDGE('',*,*,#1672,.T.);
#1672 = EDGE_CURVE('',#1649,#1673,#1675,.T.);
#1673 = VERTEX_POINT('',#1674);
#1674 = CARTESIAN_POINT('',(-162.85,50.35455173281,5.));
#1675 = LINE('',#1676,#1677);
#1676 = CARTESIAN_POINT('',(-162.85,53.645448267191,5.));
#1677 = VECTOR('',#1678,1.);
#1678 = DIRECTION('',(0.,-1.,0.));
#1679 = ORIENTED_EDGE('',*,*,#1680,.F.);
#1680 = EDGE_CURVE('',#520,#1673,#1681,.T.);
#1681 = LINE('',#1682,#1683);
#1682 = CARTESIAN_POINT('',(-162.85,50.35455173281,-2.236E-14));
#1683 = VECTOR('',#1684,1.);
#1684 = DIRECTION('',(0.,4.4E-16,1.));
#1685 = ORIENTED_EDGE('',*,*,#527,.F.);
#1686 = PLANE('',#1687);
#1687 = AXIS2_PLACEMENT_3D('',#1688,#1689,#1690);
#1688 = CARTESIAN_POINT('',(-162.85,53.645448267191,-2.382E-14));
#1689 = DIRECTION('',(-1.,0.,-0.));
#1690 = DIRECTION('',(0.,1.,-4.4E-16));
#1691 = ADVANCED_FACE('',(#1692),#1710,.F.);
#1692 = FACE_BOUND('',#1693,.T.);
#1693 = EDGE_LOOP('',(#1694,#1695,#1703,#1709));
#1694 = ORIENTED_EDGE('',*,*,#1680,.T.);
#1695 = ORIENTED_EDGE('',*,*,#1696,.T.);
#1696 = EDGE_CURVE('',#1673,#1697,#1699,.T.);
#1697 = VERTEX_POINT('',#1698);
#1698 = CARTESIAN_POINT('',(-160.,48.709103465619,5.));
#1699 = LINE('',#1700,#1701);
#1700 = CARTESIAN_POINT('',(-162.85,50.35455173281,5.));
#1701 = VECTOR('',#1702,1.);
#1702 = DIRECTION('',(0.866025403784,-0.5,0.));
#1703 = ORIENTED_EDGE('',*,*,#1704,.F.);
#1704 = EDGE_CURVE('',#512,#1697,#1705,.T.);
#1705 = LINE('',#1706,#1707);
#1706 = CARTESIAN_POINT('',(-160.,48.709103465619,-2.163E-14));
#1707 = VECTOR('',#1708,1.);
#1708 = DIRECTION('',(0.,4.4E-16,1.));
#1709 = ORIENTED_EDGE('',*,*,#519,.F.);
#1710 = PLANE('',#1711);
#1711 = AXIS2_PLACEMENT_3D('',#1712,#1713,#1714);
#1712 = CARTESIAN_POINT('',(-162.85,50.35455173281,-2.236E-14));
#1713 = DIRECTION('',(-0.5,-0.866025403784,3.8E-16));
#1714 = DIRECTION('',(-0.866025403784,0.5,-2.2E-16));
#1715 = ADVANCED_FACE('',(#1716),#1727,.F.);
#1716 = FACE_BOUND('',#1717,.T.);
#1717 = EDGE_LOOP('',(#1718,#1719,#1725,#1726));
#1718 = ORIENTED_EDGE('',*,*,#1704,.T.);
#1719 = ORIENTED_EDGE('',*,*,#1720,.T.);
#1720 = EDGE_CURVE('',#1697,#1593,#1721,.T.);
#1721 = LINE('',#1722,#1723);
#1722 = CARTESIAN_POINT('',(-160.,48.709103465619,5.));
#1723 = VECTOR('',#1724,1.);
#1724 = DIRECTION('',(0.866025403784,0.5,0.));
#1725 = ORIENTED_EDGE('',*,*,#1592,.F.);
#1726 = ORIENTED_EDGE('',*,*,#511,.F.);
#1727 = PLANE('',#1728);
#1728 = AXIS2_PLACEMENT_3D('',#1729,#1730,#1731);
#1729 = CARTESIAN_POINT('',(-160.,48.709103465619,-2.163E-14));
#1730 = DIRECTION('',(0.5,-0.866025403784,3.8E-16));
#1731 = DIRECTION('',(-0.866025403784,-0.5,2.2E-16));
#1732 = ADVANCED_FACE('',(#1733),#1758,.F.);
#1733 = FACE_BOUND('',#1734,.T.);
#1734 = EDGE_LOOP('',(#1735,#1743,#1751,#1757));
#1735 = ORIENTED_EDGE('',*,*,#1736,.T.);
#1736 = EDGE_CURVE('',#552,#1737,#1739,.T.);
#1737 = VERTEX_POINT('',#1738);
#1738 = CARTESIAN_POINT('',(-136.7091034656,50.1,5.));
#1739 = LINE('',#1740,#1741);
#1740 = CARTESIAN_POINT('',(-136.7091034656,50.1,-2.225E-14));
#1741 = VECTOR('',#1742,1.);
#1742 = DIRECTION('',(0.,4.4E-16,1.));
#1743 = ORIENTED_EDGE('',*,*,#1744,.T.);
#1744 = EDGE_CURVE('',#1737,#1745,#1747,.T.);
#1745 = VERTEX_POINT('',#1746);
#1746 = CARTESIAN_POINT('',(-136.7091034656,53.9,5.));
#1747 = LINE('',#1748,#1749);
#1748 = CARTESIAN_POINT('',(-136.7091034656,50.1,5.));
#1749 = VECTOR('',#1750,1.);
#1750 = DIRECTION('',(0.,1.,-0.));
#1751 = ORIENTED_EDGE('',*,*,#1752,.F.);
#1752 = EDGE_CURVE('',#554,#1745,#1753,.T.);
#1753 = LINE('',#1754,#1755);
#1754 = CARTESIAN_POINT('',(-136.7091034656,53.9,-2.394E-14));
#1755 = VECTOR('',#1756,1.);
#1756 = DIRECTION('',(0.,4.4E-16,1.));
#1757 = ORIENTED_EDGE('',*,*,#551,.F.);
#1758 = PLANE('',#1759);
#1759 = AXIS2_PLACEMENT_3D('',#1760,#1761,#1762);
#1760 = CARTESIAN_POINT('',(-136.7091034656,50.1,-2.225E-14));
#1761 = DIRECTION('',(1.,0.,0.));
#1762 = DIRECTION('',(0.,-1.,4.4E-16));
#1763 = ADVANCED_FACE('',(#1764),#1782,.F.);
#1764 = FACE_BOUND('',#1765,.T.);
#1765 = EDGE_LOOP('',(#1766,#1767,#1775,#1781));
#1766 = ORIENTED_EDGE('',*,*,#1752,.T.);
#1767 = ORIENTED_EDGE('',*,*,#1768,.T.);
#1768 = EDGE_CURVE('',#1745,#1769,#1771,.T.);
#1769 = VERTEX_POINT('',#1770);
#1770 = CARTESIAN_POINT('',(-140.,55.8,5.));
#1771 = LINE('',#1772,#1773);
#1772 = CARTESIAN_POINT('',(-136.7091034656,53.9,5.));
#1773 = VECTOR('',#1774,1.);
#1774 = DIRECTION('',(-0.866025403784,0.5,-0.));
#1775 = ORIENTED_EDGE('',*,*,#1776,.F.);
#1776 = EDGE_CURVE('',#586,#1769,#1777,.T.);
#1777 = LINE('',#1778,#1779);
#1778 = CARTESIAN_POINT('',(-140.,55.8,-2.478E-14));
#1779 = VECTOR('',#1780,1.);
#1780 = DIRECTION('',(0.,4.4E-16,1.));
#1781 = ORIENTED_EDGE('',*,*,#593,.F.);
#1782 = PLANE('',#1783);
#1783 = AXIS2_PLACEMENT_3D('',#1784,#1785,#1786);
#1784 = CARTESIAN_POINT('',(-136.7091034656,53.9,-2.394E-14));
#1785 = DIRECTION('',(0.5,0.866025403784,-3.8E-16));
#1786 = DIRECTION('',(0.866025403784,-0.5,2.2E-16));
#1787 = ADVANCED_FACE('',(#1788),#1806,.F.);
#1788 = FACE_BOUND('',#1789,.T.);
#1789 = EDGE_LOOP('',(#1790,#1791,#1799,#1805));
#1790 = ORIENTED_EDGE('',*,*,#1776,.T.);
#1791 = ORIENTED_EDGE('',*,*,#1792,.T.);
#1792 = EDGE_CURVE('',#1769,#1793,#1795,.T.);
#1793 = VERTEX_POINT('',#1794);
#1794 = CARTESIAN_POINT('',(-143.2908965343,53.9,5.));
#1795 = LINE('',#1796,#1797);
#1796 = CARTESIAN_POINT('',(-140.,55.8,5.));
#1797 = VECTOR('',#1798,1.);
#1798 = DIRECTION('',(-0.866025403784,-0.5,0.));
#1799 = ORIENTED_EDGE('',*,*,#1800,.F.);
#1800 = EDGE_CURVE('',#578,#1793,#1801,.T.);
#1801 = LINE('',#1802,#1803);
#1802 = CARTESIAN_POINT('',(-143.2908965343,53.9,-2.394E-14));
#1803 = VECTOR('',#1804,1.);
#1804 = DIRECTION('',(0.,4.4E-16,1.));
#1805 = ORIENTED_EDGE('',*,*,#585,.F.);
#1806 = PLANE('',#1807);
#1807 = AXIS2_PLACEMENT_3D('',#1808,#1809,#1810);
#1808 = CARTESIAN_POINT('',(-140.,55.8,-2.478E-14));
#1809 = DIRECTION('',(-0.5,0.866025403784,-3.8E-16));
#1810 = DIRECTION('',(0.866025403784,0.5,-2.2E-16));
#1811 = ADVANCED_FACE('',(#1812),#1830,.F.);
#1812 = FACE_BOUND('',#1813,.T.);
#1813 = EDGE_LOOP('',(#1814,#1815,#1823,#1829));
#1814 = ORIENTED_EDGE('',*,*,#1800,.T.);
#1815 = ORIENTED_EDGE('',*,*,#1816,.T.);
#1816 = EDGE_CURVE('',#1793,#1817,#1819,.T.);
#1817 = VERTEX_POINT('',#1818);
#1818 = CARTESIAN_POINT('',(-143.2908965343,50.1,5.));
#1819 = LINE('',#1820,#1821);
#1820 = CARTESIAN_POINT('',(-143.2908965343,53.9,5.));
#1821 = VECTOR('',#1822,1.);
#1822 = DIRECTION('',(0.,-1.,0.));
#1823 = ORIENTED_EDGE('',*,*,#1824,.F.);
#1824 = EDGE_CURVE('',#570,#1817,#1825,.T.);
#1825 = LINE('',#1826,#1827);
#1826 = CARTESIAN_POINT('',(-143.2908965343,50.1,-2.225E-14));
#1827 = VECTOR('',#1828,1.);
#1828 = DIRECTION('',(0.,4.4E-16,1.));
#1829 = ORIENTED_EDGE('',*,*,#577,.F.);
#1830 = PLANE('',#1831);
#1831 = AXIS2_PLACEMENT_3D('',#1832,#1833,#1834);
#1832 = CARTESIAN_POINT('',(-143.2908965343,53.9,-2.394E-14));
#1833 = DIRECTION('',(-1.,0.,-0.));
#1834 = DIRECTION('',(0.,1.,-4.4E-16));
#1835 = ADVANCED_FACE('',(#1836),#1854,.F.);
#1836 = FACE_BOUND('',#1837,.T.);
#1837 = EDGE_LOOP('',(#1838,#1839,#1847,#1853));
#1838 = ORIENTED_EDGE('',*,*,#1824,.T.);
#1839 = ORIENTED_EDGE('',*,*,#1840,.T.);
#1840 = EDGE_CURVE('',#1817,#1841,#1843,.T.);
#1841 = VERTEX_POINT('',#1842);
#1842 = CARTESIAN_POINT('',(-140.,48.2,5.));
#1843 = LINE('',#1844,#1845);
#1844 = CARTESIAN_POINT('',(-143.2908965343,50.1,5.));
#1845 = VECTOR('',#1846,1.);
#1846 = DIRECTION('',(0.866025403784,-0.5,0.));
#1847 = ORIENTED_EDGE('',*,*,#1848,.F.);
#1848 = EDGE_CURVE('',#562,#1841,#1849,.T.);
#1849 = LINE('',#1850,#1851);
#1850 = CARTESIAN_POINT('',(-140.,48.2,-2.141E-14));
#1851 = VECTOR('',#1852,1.);
#1852 = DIRECTION('',(0.,4.4E-16,1.));
#1853 = ORIENTED_EDGE('',*,*,#569,.F.);
#1854 = PLANE('',#1855);
#1855 = AXIS2_PLACEMENT_3D('',#1856,#1857,#1858);
#1856 = CARTESIAN_POINT('',(-143.2908965343,50.1,-2.225E-14));
#1857 = DIRECTION('',(-0.5,-0.866025403784,3.8E-16));
#1858 = DIRECTION('',(-0.866025403784,0.5,-2.2E-16));
#1859 = ADVANCED_FACE('',(#1860),#1871,.F.);
#1860 = FACE_BOUND('',#1861,.T.);
#1861 = EDGE_LOOP('',(#1862,#1863,#1869,#1870));
#1862 = ORIENTED_EDGE('',*,*,#1848,.T.);
#1863 = ORIENTED_EDGE('',*,*,#1864,.T.);
#1864 = EDGE_CURVE('',#1841,#1737,#1865,.T.);
#1865 = LINE('',#1866,#1867);
#1866 = CARTESIAN_POINT('',(-140.,48.2,5.));
#1867 = VECTOR('',#1868,1.);
#1868 = DIRECTION('',(0.866025403784,0.5,0.));
#1869 = ORIENTED_EDGE('',*,*,#1736,.F.);
#1870 = ORIENTED_EDGE('',*,*,#561,.F.);
#1871 = PLANE('',#1872);
#1872 = AXIS2_PLACEMENT_3D('',#1873,#1874,#1875);
#1873 = CARTESIAN_POINT('',(-140.,48.2,-2.141E-14));
#1874 = DIRECTION('',(0.5,-0.866025403784,3.8E-16));
#1875 = DIRECTION('',(-0.866025403784,-0.5,2.2E-16));
#1876 = ADVANCED_FACE('',(#1877),#1903,.F.);
#1877 = FACE_BOUND('',#1878,.T.);
#1878 = EDGE_LOOP('',(#1879,#1890,#1896,#1897));
#1879 = ORIENTED_EDGE('',*,*,#1880,.T.);
#1880 = EDGE_CURVE('',#1881,#1883,#1885,.T.);
#1881 = VERTEX_POINT('',#1882);
#1882 = CARTESIAN_POINT('',(-120.,54.75,10.));
#1883 = VERTEX_POINT('',#1884);
#1884 = CARTESIAN_POINT('',(-120.,49.25,10.));
#1885 = CIRCLE('',#1886,2.75);
#1886 = AXIS2_PLACEMENT_3D('',#1887,#1888,#1889);
#1887 = CARTESIAN_POINT('',(-120.,52.,10.));
#1888 = DIRECTION('',(0.,4.4E-16,1.));
#1889 = DIRECTION('',(1.,0.,-0.));
#1890 = ORIENTED_EDGE('',*,*,#1891,.T.);
#1891 = EDGE_CURVE('',#1883,#604,#1892,.T.);
#1892 = LINE('',#1893,#1894);
#1893 = CARTESIAN_POINT('',(-120.,49.25,20.));
#1894 = VECTOR('',#1895,1.);
#1895 = DIRECTION('',(-0.,-4.4E-16,-1.));
#1896 = ORIENTED_EDGE('',*,*,#601,.F.);
#1897 = ORIENTED_EDGE('',*,*,#1898,.F.);
#1898 = EDGE_CURVE('',#1881,#602,#1899,.T.);
#1899 = LINE('',#1900,#1901);
#1900 = CARTESIAN_POINT('',(-120.,54.75,20.));
#1901 = VECTOR('',#1902,1.);
#1902 = DIRECTION('',(-0.,-4.4E-16,-1.));
#1903 = CYLINDRICAL_SURFACE('',#1904,2.75);
#1904 = AXIS2_PLACEMENT_3D('',#1905,#1906,#1907);
#1905 = CARTESIAN_POINT('',(-120.,52.,20.));
#1906 = DIRECTION('',(0.,4.4E-16,1.));
#1907 = DIRECTION('',(1.,0.,0.));
#1908 = ADVANCED_FACE('',(#1909),#1927,.F.);
#1909 = FACE_BOUND('',#1910,.T.);
#1910 = EDGE_LOOP('',(#1911,#1919,#1920,#1921));
#1911 = ORIENTED_EDGE('',*,*,#1912,.T.);
#1912 = EDGE_CURVE('',#1913,#1881,#1915,.T.);
#1913 = VERTEX_POINT('',#1914);
#1914 = CARTESIAN_POINT('',(-90.,54.75,10.));
#1915 = LINE('',#1916,#1917);
#1916 = CARTESIAN_POINT('',(-125.7572614107,54.75,10.));
#1917 = VECTOR('',#1918,1.);
#1918 = DIRECTION('',(-1.,-0.,-1.E-17));
#1919 = ORIENTED_EDGE('',*,*,#1898,.T.);
#1920 = ORIENTED_EDGE('',*,*,#612,.T.);
#1921 = ORIENTED_EDGE('',*,*,#1922,.F.);
#1922 = EDGE_CURVE('',#1913,#613,#1923,.T.);
#1923 = LINE('',#1924,#1925);
#1924 = CARTESIAN_POINT('',(-90.,54.75,20.));
#1925 = VECTOR('',#1926,1.);
#1926 = DIRECTION('',(-0.,-4.4E-16,-1.));
#1927 = PLANE('',#1928);
#1928 = AXIS2_PLACEMENT_3D('',#1929,#1930,#1931);
#1929 = CARTESIAN_POINT('',(-120.,54.75,20.));
#1930 = DIRECTION('',(0.,1.,-4.4E-16));
#1931 = DIRECTION('',(-1.,0.,0.));
#1932 = ADVANCED_FACE('',(#1933),#1951,.F.);
#1933 = FACE_BOUND('',#1934,.T.);
#1934 = EDGE_LOOP('',(#1935,#1943,#1949,#1950));
#1935 = ORIENTED_EDGE('',*,*,#1936,.T.);
#1936 = EDGE_CURVE('',#1883,#1937,#1939,.T.);
#1937 = VERTEX_POINT('',#1938);
#1938 = CARTESIAN_POINT('',(-90.,49.25,10.));
#1939 = LINE('',#1940,#1941);
#1940 = CARTESIAN_POINT('',(-110.7572614107,49.25,10.));
#1941 = VECTOR('',#1942,1.);
#1942 = DIRECTION('',(1.,0.,1.E-17));
#1943 = ORIENTED_EDGE('',*,*,#1944,.T.);
#1944 = EDGE_CURVE('',#1937,#621,#1945,.T.);
#1945 = LINE('',#1946,#1947);
#1946 = CARTESIAN_POINT('',(-90.,49.25,20.));
#1947 = VECTOR('',#1948,1.);
#1948 = DIRECTION('',(-0.,-4.4E-16,-1.));
#1949 = ORIENTED_EDGE('',*,*,#629,.T.);
#1950 = ORIENTED_EDGE('',*,*,#1891,.F.);
#1951 = PLANE('',#1952);
#1952 = AXIS2_PLACEMENT_3D('',#1953,#1954,#1955);
#1953 = CARTESIAN_POINT('',(-90.,49.25,20.));
#1954 = DIRECTION('',(0.,-1.,4.4E-16));
#1955 = DIRECTION('',(1.,0.,0.));
#1956 = ADVANCED_FACE('',(#1957),#1969,.F.);
#1957 = FACE_BOUND('',#1958,.T.);
#1958 = EDGE_LOOP('',(#1959,#1966,#1967,#1968));
#1959 = ORIENTED_EDGE('',*,*,#1960,.T.);
#1960 = EDGE_CURVE('',#1937,#1913,#1961,.T.);
#1961 = CIRCLE('',#1962,2.75);
#1962 = AXIS2_PLACEMENT_3D('',#1963,#1964,#1965);
#1963 = CARTESIAN_POINT('',(-90.,52.,10.));
#1964 = DIRECTION('',(0.,4.4E-16,1.));
#1965 = DIRECTION('',(1.,0.,-0.));
#1966 = ORIENTED_EDGE('',*,*,#1922,.T.);
#1967 = ORIENTED_EDGE('',*,*,#620,.F.);
#1968 = ORIENTED_EDGE('',*,*,#1944,.F.);
#1969 = CYLINDRICAL_SURFACE('',#1970,2.75);
#1970 = AXIS2_PLACEMENT_3D('',#1971,#1972,#1973);
#1971 = CARTESIAN_POINT('',(-90.,52.,20.));
#1972 = DIRECTION('',(0.,4.4E-16,1.));
#1973 = DIRECTION('',(1.,0.,0.));
#1974 = ADVANCED_FACE('',(#1975),#2000,.F.);
#1975 = FACE_BOUND('',#1976,.T.);
#1976 = EDGE_LOOP('',(#1977,#1985,#1993,#1999));
#1977 = ORIENTED_EDGE('',*,*,#1978,.T.);
#1978 = EDGE_CURVE('',#638,#1979,#1981,.T.);
#1979 = VERTEX_POINT('',#1980);
#1980 = CARTESIAN_POINT('',(-5.95,54.338268590218,5.));
#1981 = LINE('',#1982,#1983);
#1982 = CARTESIAN_POINT('',(-5.95,54.338268590218,-2.413E-14));
#1983 = VECTOR('',#1984,1.);
#1984 = DIRECTION('',(0.,4.4E-16,1.));
#1985 = ORIENTED_EDGE('',*,*,#1986,.T.);
#1986 = EDGE_CURVE('',#1979,#1987,#1989,.T.);
#1987 = VERTEX_POINT('',#1988);
#1988 = CARTESIAN_POINT('',(-10.,56.676537180436,5.));
#1989 = LINE('',#1990,#1991);
#1990 = CARTESIAN_POINT('',(-5.95,54.338268590218,5.));
#1991 = VECTOR('',#1992,1.);
#1992 = DIRECTION('',(-0.866025403784,0.5,-0.));
#1993 = ORIENTED_EDGE('',*,*,#1994,.F.);
#1994 = EDGE_CURVE('',#640,#1987,#1995,.T.);
#1995 = LINE('',#1996,#1997);
#1996 = CARTESIAN_POINT('',(-10.,56.676537180436,-2.517E-14));
#1997 = VECTOR('',#1998,1.);
#1998 = DIRECTION('',(0.,4.4E-16,1.));
#1999 = ORIENTED_EDGE('',*,*,#637,.F.);
#2000 = PLANE('',#2001);
#2001 = AXIS2_PLACEMENT_3D('',#2002,#2003,#2004);
#2002 = CARTESIAN_POINT('',(-5.95,54.338268590218,-2.413E-14));
#2003 = DIRECTION('',(0.5,0.866025403784,-3.8E-16));
#2004 = DIRECTION('',(0.866025403784,-0.5,2.2E-16));
#2005 = ADVANCED_FACE('',(#2006),#2024,.F.);
#2006 = FACE_BOUND('',#2007,.T.);
#2007 = EDGE_LOOP('',(#2008,#2009,#2017,#2023));
#2008 = ORIENTED_EDGE('',*,*,#1994,.T.);
#2009 = ORIENTED_EDGE('',*,*,#2010,.T.);
#2010 = EDGE_CURVE('',#1987,#2011,#2013,.T.);
#2011 = VERTEX_POINT('',#2012);
#2012 = CARTESIAN_POINT('',(-14.05,54.338268590218,5.));
#2013 = LINE('',#2014,#2015);
#2014 = CARTESIAN_POINT('',(-10.,56.676537180436,5.));
#2015 = VECTOR('',#2016,1.);
#2016 = DIRECTION('',(-0.866025403784,-0.5,0.));
#2017 = ORIENTED_EDGE('',*,*,#2018,.F.);
#2018 = EDGE_CURVE('',#672,#2011,#2019,.T.);
#2019 = LINE('',#2020,#2021);
#2020 = CARTESIAN_POINT('',(-14.05,54.338268590218,-2.413E-14));
#2021 = VECTOR('',#2022,1.);
#2022 = DIRECTION('',(0.,4.4E-16,1.));
#2023 = ORIENTED_EDGE('',*,*,#679,.F.);
#2024 = PLANE('',#2025);
#2025 = AXIS2_PLACEMENT_3D('',#2026,#2027,#2028);
#2026 = CARTESIAN_POINT('',(-10.,56.676537180436,-2.517E-14));
#2027 = DIRECTION('',(-0.5,0.866025403784,-3.8E-16));
#2028 = DIRECTION('',(0.866025403784,0.5,-2.2E-16));
#2029 = ADVANCED_FACE('',(#2030),#2048,.F.);
#2030 = FACE_BOUND('',#2031,.T.);
#2031 = EDGE_LOOP('',(#2032,#2033,#2041,#2047));
#2032 = ORIENTED_EDGE('',*,*,#2018,.T.);
#2033 = ORIENTED_EDGE('',*,*,#2034,.T.);
#2034 = EDGE_CURVE('',#2011,#2035,#2037,.T.);
#2035 = VERTEX_POINT('',#2036);
#2036 = CARTESIAN_POINT('',(-14.05,49.661731409782,5.));
#2037 = LINE('',#2038,#2039);
#2038 = CARTESIAN_POINT('',(-14.05,54.338268590218,5.));
#2039 = VECTOR('',#2040,1.);
#2040 = DIRECTION('',(0.,-1.,0.));
#2041 = ORIENTED_EDGE('',*,*,#2042,.F.);
#2042 = EDGE_CURVE('',#664,#2035,#2043,.T.);
#2043 = LINE('',#2044,#2045);
#2044 = CARTESIAN_POINT('',(-14.05,49.661731409782,-2.205E-14));
#2045 = VECTOR('',#2046,1.);
#2046 = DIRECTION('',(0.,4.4E-16,1.));
#2047 = ORIENTED_EDGE('',*,*,#671,.F.);
#2048 = PLANE('',#2049);
#2049 = AXIS2_PLACEMENT_3D('',#2050,#2051,#2052);
#2050 = CARTESIAN_POINT('',(-14.05,54.338268590218,-2.413E-14));
#2051 = DIRECTION('',(-1.,0.,-0.));
#2052 = DIRECTION('',(0.,1.,-4.4E-16));
#2053 = ADVANCED_FACE('',(#2054),#2072,.F.);
#2054 = FACE_BOUND('',#2055,.T.);
#2055 = EDGE_LOOP('',(#2056,#2057,#2065,#2071));
#2056 = ORIENTED_EDGE('',*,*,#2042,.T.);
#2057 = ORIENTED_EDGE('',*,*,#2058,.T.);
#2058 = EDGE_CURVE('',#2035,#2059,#2061,.T.);
#2059 = VERTEX_POINT('',#2060);
#2060 = CARTESIAN_POINT('',(-10.,47.323462819564,5.));
#2061 = LINE('',#2062,#2063);
#2062 = CARTESIAN_POINT('',(-14.05,49.661731409782,5.));
#2063 = VECTOR('',#2064,1.);
#2064 = DIRECTION('',(0.866025403784,-0.5,0.));
#2065 = ORIENTED_EDGE('',*,*,#2066,.F.);
#2066 = EDGE_CURVE('',#656,#2059,#2067,.T.);
#2067 = LINE('',#2068,#2069);
#2068 = CARTESIAN_POINT('',(-10.,47.323462819564,-2.102E-14));
#2069 = VECTOR('',#2070,1.);
#2070 = DIRECTION('',(0.,4.4E-16,1.));
#2071 = ORIENTED_EDGE('',*,*,#663,.F.);
#2072 = PLANE('',#2073);
#2073 = AXIS2_PLACEMENT_3D('',#2074,#2075,#2076);
#2074 = CARTESIAN_POINT('',(-14.05,49.661731409782,-2.205E-14));
#2075 = DIRECTION('',(-0.5,-0.866025403784,3.8E-16));
#2076 = DIRECTION('',(-0.866025403784,0.5,-2.2E-16));
#2077 = ADVANCED_FACE('',(#2078),#2096,.F.);
#2078 = FACE_BOUND('',#2079,.T.);
#2079 = EDGE_LOOP('',(#2080,#2081,#2089,#2095));
#2080 = ORIENTED_EDGE('',*,*,#2066,.T.);
#2081 = ORIENTED_EDGE('',*,*,#2082,.T.);
#2082 = EDGE_CURVE('',#2059,#2083,#2085,.T.);
#2083 = VERTEX_POINT('',#2084);
#2084 = CARTESIAN_POINT('',(-5.95,49.661731409782,5.));
#2085 = LINE('',#2086,#2087);
#2086 = CARTESIAN_POINT('',(-10.,47.323462819564,5.));
#2087 = VECTOR('',#2088,1.);
#2088 = DIRECTION('',(0.866025403784,0.5,0.));
#2089 = ORIENTED_EDGE('',*,*,#2090,.F.);
#2090 = EDGE_CURVE('',#648,#2083,#2091,.T.);
#2091 = LINE('',#2092,#2093);
#2092 = CARTESIAN_POINT('',(-5.95,49.661731409782,-2.205E-14));
#2093 = VECTOR('',#2094,1.);
#2094 = DIRECTION('',(0.,4.4E-16,1.));
#2095 = ORIENTED_EDGE('',*,*,#655,.F.);
#2096 = PLANE('',#2097);
#2097 = AXIS2_PLACEMENT_3D('',#2098,#2099,#2100);
#2098 = CARTESIAN_POINT('',(-10.,47.323462819564,-2.102E-14));
#2099 = DIRECTION('',(0.5,-0.866025403784,3.8E-16));
#2100 = DIRECTION('',(-0.866025403784,-0.5,2.2E-16));
#2101 = ADVANCED_FACE('',(#2102),#2113,.F.);
#2102 = FACE_BOUND('',#2103,.T.);
#2103 = EDGE_LOOP('',(#2104,#2105,#2111,#2112));
#2104 = ORIENTED_EDGE('',*,*,#2090,.T.);
#2105 = ORIENTED_EDGE('',*,*,#2106,.T.);
#2106 = EDGE_CURVE('',#2083,#1979,#2107,.T.);
#2107 = LINE('',#2108,#2109);
#2108 = CARTESIAN_POINT('',(-5.95,49.661731409782,5.));
#2109 = VECTOR('',#2110,1.);
#2110 = DIRECTION('',(0.,1.,-0.));
#2111 = ORIENTED_EDGE('',*,*,#1978,.F.);
#2112 = ORIENTED_EDGE('',*,*,#647,.F.);
#2113 = PLANE('',#2114);
#2114 = AXIS2_PLACEMENT_3D('',#2115,#2116,#2117);
#2115 = CARTESIAN_POINT('',(-5.95,49.661731409782,-2.205E-14));
#2116 = DIRECTION('',(1.,0.,0.));
#2117 = DIRECTION('',(0.,-1.,4.4E-16));
#2118 = ADVANCED_FACE('',(#2119,#2127),#2130,.T.);
#2119 = FACE_BOUND('',#2120,.T.);
#2120 = EDGE_LOOP('',(#2121,#2122,#2123,#2124,#2125,#2126));
#2121 = ORIENTED_EDGE('',*,*,#701,.T.);
#2122 = ORIENTED_EDGE('',*,*,#725,.T.);
#2123 = ORIENTED_EDGE('',*,*,#749,.T.);
#2124 = ORIENTED_EDGE('',*,*,#773,.T.);
#2125 = ORIENTED_EDGE('',*,*,#797,.T.);
#2126 = ORIENTED_EDGE('',*,*,#821,.T.);
#2127 = FACE_BOUND('',#2128,.T.);
#2128 = EDGE_LOOP('',(#2129));
#2129 = ORIENTED_EDGE('',*,*,#1303,.T.);
#2130 = PLANE('',#2131);
#2131 = AXIS2_PLACEMENT_3D('',#2132,#2133,#2134);
#2132 = CARTESIAN_POINT('',(-93.92947044295,10.,5.));
#2133 = DIRECTION('',(0.,-2.2E-16,-1.));
#2134 = DIRECTION('',(0.,1.,-2.2E-16));
#2135 = ADVANCED_FACE('',(#2136,#2144),#2147,.T.);
#2136 = FACE_BOUND('',#2137,.T.);
#2137 = EDGE_LOOP('',(#2138,#2139,#2140,#2141,#2142,#2143));
#2138 = ORIENTED_EDGE('',*,*,#845,.T.);
#2139 = ORIENTED_EDGE('',*,*,#869,.T.);
#2140 = ORIENTED_EDGE('',*,*,#893,.T.);
#2141 = ORIENTED_EDGE('',*,*,#917,.T.);
#2142 = ORIENTED_EDGE('',*,*,#941,.T.);
#2143 = ORIENTED_EDGE('',*,*,#965,.T.);
#2144 = FACE_BOUND('',#2145,.T.);
#2145 = EDGE_LOOP('',(#2146));
#2146 = ORIENTED_EDGE('',*,*,#1328,.T.);
#2147 = PLANE('',#2148);
#2148 = AXIS2_PLACEMENT_3D('',#2149,#2150,#2151);
#2149 = CARTESIAN_POINT('',(-93.92947044295,10.,5.));
#2150 = DIRECTION('',(0.,-2.2E-16,-1.));
#2151 = DIRECTION('',(0.,1.,-2.2E-16));
#2152 = ADVANCED_FACE('',(#2153,#2159),#2165,.F.);
#2153 = FACE_BOUND('',#2154,.F.);
#2154 = EDGE_LOOP('',(#2155,#2156,#2157,#2158));
#2155 = ORIENTED_EDGE('',*,*,#1519,.F.);
#2156 = ORIENTED_EDGE('',*,*,#1446,.F.);
#2157 = ORIENTED_EDGE('',*,*,#1477,.F.);
#2158 = ORIENTED_EDGE('',*,*,#1502,.F.);
#2159 = FACE_BOUND('',#2160,.F.);
#2160 = EDGE_LOOP('',(#2161,#2162,#2163,#2164));
#2161 = ORIENTED_EDGE('',*,*,#1037,.T.);
#2162 = ORIENTED_EDGE('',*,*,#981,.T.);
#2163 = ORIENTED_EDGE('',*,*,#1012,.T.);
#2164 = ORIENTED_EDGE('',*,*,#1062,.T.);
#2165 = PLANE('',#2166);
#2166 = AXIS2_PLACEMENT_3D('',#2167,#2168,#2169);
#2167 = CARTESIAN_POINT('',(-131.5145228215,13.240663900415,10.));
#2168 = DIRECTION('',(1.E-17,-2.4E-16,-1.));
#2169 = DIRECTION('',(0.,1.,-2.4E-16));
#2170 = ADVANCED_FACE('',(#2171,#2179),#2182,.T.);
#2171 = FACE_BOUND('',#2172,.T.);
#2172 = EDGE_LOOP('',(#2173,#2174,#2175,#2176,#2177,#2178));
#2173 = ORIENTED_EDGE('',*,*,#1087,.T.);
#2174 = ORIENTED_EDGE('',*,*,#1111,.T.);
#2175 = ORIENTED_EDGE('',*,*,#1135,.T.);
#2176 = ORIENTED_EDGE('',*,*,#1159,.T.);
#2177 = ORIENTED_EDGE('',*,*,#1183,.T.);
#2178 = ORIENTED_EDGE('',*,*,#1207,.T.);
#2179 = FACE_BOUND('',#2180,.T.);
#2180 = EDGE_LOOP('',(#2181));
#2181 = ORIENTED_EDGE('',*,*,#1546,.T.);
#2182 = PLANE('',#2183);
#2183 = AXIS2_PLACEMENT_3D('',#2184,#2185,#2186);
#2184 = CARTESIAN_POINT('',(-93.92947044295,10.,5.));
#2185 = DIRECTION('',(0.,-2.2E-16,-1.));
#2186 = DIRECTION('',(0.,1.,-2.2E-16));
#2187 = ADVANCED_FACE('',(#2188),#2207,.F.);
#2188 = FACE_BOUND('',#2189,.T.);
#2189 = EDGE_LOOP('',(#2190,#2198,#2199,#2200));
#2190 = ORIENTED_EDGE('',*,*,#2191,.F.);
#2191 = EDGE_CURVE('',#1266,#2192,#2194,.T.);
#2192 = VERTEX_POINT('',#2193);
#2193 = CARTESIAN_POINT('',(-158.3,52.,5.));
#2194 = LINE('',#2195,#2196);
#2195 = CARTESIAN_POINT('',(-158.3,52.,20.));
#2196 = VECTOR('',#2197,1.);
#2197 = DIRECTION('',(-0.,-4.4E-16,-1.));
#2198 = ORIENTED_EDGE('',*,*,#1265,.T.);
#2199 = ORIENTED_EDGE('',*,*,#2191,.T.);
#2200 = ORIENTED_EDGE('',*,*,#2201,.F.);
#2201 = EDGE_CURVE('',#2192,#2192,#2202,.T.);
#2202 = CIRCLE('',#2203,1.7);
#2203 = AXIS2_PLACEMENT_3D('',#2204,#2205,#2206);
#2204 = CARTESIAN_POINT('',(-160.,52.,5.));
#2205 = DIRECTION('',(0.,4.4E-16,1.));
#2206 = DIRECTION('',(1.,0.,-0.));
#2207 = CYLINDRICAL_SURFACE('',#2208,1.7);
#2208 = AXIS2_PLACEMENT_3D('',#2209,#2210,#2211);
#2209 = CARTESIAN_POINT('',(-160.,52.,20.));
#2210 = DIRECTION('',(0.,4.4E-16,1.));
#2211 = DIRECTION('',(1.,0.,0.));
#2212 = ADVANCED_FACE('',(#2213),#2232,.F.);
#2213 = FACE_BOUND('',#2214,.T.);
#2214 = EDGE_LOOP('',(#2215,#2223,#2224,#2225));
#2215 = ORIENTED_EDGE('',*,*,#2216,.F.);
#2216 = EDGE_CURVE('',#1277,#2217,#2219,.T.);
#2217 = VERTEX_POINT('',#2218);
#2218 = CARTESIAN_POINT('',(-138.3,52.,5.));
#2219 = LINE('',#2220,#2221);
#2220 = CARTESIAN_POINT('',(-138.3,52.,20.));
#2221 = VECTOR('',#2222,1.);
#2222 = DIRECTION('',(-0.,-4.4E-16,-1.));
#2223 = ORIENTED_EDGE('',*,*,#1276,.T.);
#2224 = ORIENTED_EDGE('',*,*,#2216,.T.);
#2225 = ORIENTED_EDGE('',*,*,#2226,.F.);
#2226 = EDGE_CURVE('',#2217,#2217,#2227,.T.);
#2227 = CIRCLE('',#2228,1.7);
#2228 = AXIS2_PLACEMENT_3D('',#2229,#2230,#2231);
#2229 = CARTESIAN_POINT('',(-140.,52.,5.));
#2230 = DIRECTION('',(0.,4.4E-16,1.));
#2231 = DIRECTION('',(1.,0.,-0.));
#2232 = CYLINDRICAL_SURFACE('',#2233,1.7);
#2233 = AXIS2_PLACEMENT_3D('',#2234,#2235,#2236);
#2234 = CARTESIAN_POINT('',(-140.,52.,20.));
#2235 = DIRECTION('',(0.,4.4E-16,1.));
#2236 = DIRECTION('',(1.,0.,0.));
#2237 = ADVANCED_FACE('',(#2238),#2263,.F.);
#2238 = FACE_BOUND('',#2239,.T.);
#2239 = EDGE_LOOP('',(#2240,#2248,#2256,#2262));
#2240 = ORIENTED_EDGE('',*,*,#2241,.T.);
#2241 = EDGE_CURVE('',#1386,#2242,#2244,.T.);
#2242 = VERTEX_POINT('',#2243);
#2243 = CARTESIAN_POINT('',(-90.,45.5,10.));
#2244 = LINE('',#2245,#2246);
#2245 = CARTESIAN_POINT('',(-90.,45.5,20.));
#2246 = VECTOR('',#2247,1.);
#2247 = DIRECTION('',(-0.,-4.4E-16,-1.));
#2248 = ORIENTED_EDGE('',*,*,#2249,.T.);
#2249 = EDGE_CURVE('',#2242,#2250,#2252,.T.);
#2250 = VERTEX_POINT('',#2251);
#2251 = CARTESIAN_POINT('',(-120.,45.5,10.));
#2252 = LINE('',#2253,#2254);
#2253 = CARTESIAN_POINT('',(-90.,45.5,10.));
#2254 = VECTOR('',#2255,1.);
#2255 = DIRECTION('',(-1.,0.,0.));
#2256 = ORIENTED_EDGE('',*,*,#2257,.F.);
#2257 = EDGE_CURVE('',#1388,#2250,#2258,.T.);
#2258 = LINE('',#2259,#2260);
#2259 = CARTESIAN_POINT('',(-120.,45.5,20.));
#2260 = VECTOR('',#2261,1.);
#2261 = DIRECTION('',(-0.,-4.4E-16,-1.));
#2262 = ORIENTED_EDGE('',*,*,#1385,.F.);
#2263 = PLANE('',#2264);
#2264 = AXIS2_PLACEMENT_3D('',#2265,#2266,#2267);
#2265 = CARTESIAN_POINT('',(-90.,45.5,20.));
#2266 = DIRECTION('',(0.,-1.,4.4E-16));
#2267 = DIRECTION('',(1.,0.,0.));
#2268 = ADVANCED_FACE('',(#2269),#2288,.F.);
#2269 = FACE_BOUND('',#2270,.T.);
#2270 = EDGE_LOOP('',(#2271,#2279,#2286,#2287));
#2271 = ORIENTED_EDGE('',*,*,#2272,.T.);
#2272 = EDGE_CURVE('',#1405,#2273,#2275,.T.);
#2273 = VERTEX_POINT('',#2274);
#2274 = CARTESIAN_POINT('',(-90.,58.5,10.));
#2275 = LINE('',#2276,#2277);
#2276 = CARTESIAN_POINT('',(-90.,58.5,20.));
#2277 = VECTOR('',#2278,1.);
#2278 = DIRECTION('',(-0.,-4.4E-16,-1.));
#2279 = ORIENTED_EDGE('',*,*,#2280,.T.);
#2280 = EDGE_CURVE('',#2273,#2242,#2281,.T.);
#2281 = CIRCLE('',#2282,6.5);
#2282 = AXIS2_PLACEMENT_3D('',#2283,#2284,#2285);
#2283 = CARTESIAN_POINT('',(-90.,52.,10.));
#2284 = DIRECTION('',(0.,0.,-1.));
#2285 = DIRECTION('',(1.,0.,0.));
#2286 = ORIENTED_EDGE('',*,*,#2241,.F.);
#2287 = ORIENTED_EDGE('',*,*,#1412,.F.);
#2288 = CYLINDRICAL_SURFACE('',#2289,6.5);
#2289 = AXIS2_PLACEMENT_3D('',#2290,#2291,#2292);
#2290 = CARTESIAN_POINT('',(-90.,52.,20.));
#2291 = DIRECTION('',(0.,4.4E-16,1.));
#2292 = DIRECTION('',(1.,0.,0.));
#2293 = ADVANCED_FACE('',(#2294),#2312,.F.);
#2294 = FACE_BOUND('',#2295,.T.);
#2295 = EDGE_LOOP('',(#2296,#2304,#2310,#2311));
#2296 = ORIENTED_EDGE('',*,*,#2297,.T.);
#2297 = EDGE_CURVE('',#1396,#2298,#2300,.T.);
#2298 = VERTEX_POINT('',#2299);
#2299 = CARTESIAN_POINT('',(-120.,58.5,10.));
#2300 = LINE('',#2301,#2302);
#2301 = CARTESIAN_POINT('',(-120.,58.5,20.));
#2302 = VECTOR('',#2303,1.);
#2303 = DIRECTION('',(-0.,-4.4E-16,-1.));
#2304 = ORIENTED_EDGE('',*,*,#2305,.T.);
#2305 = EDGE_CURVE('',#2298,#2273,#2306,.T.);
#2306 = LINE('',#2307,#2308);
#2307 = CARTESIAN_POINT('',(-120.,58.5,10.));
#2308 = VECTOR('',#2309,1.);
#2309 = DIRECTION('',(1.,0.,0.));
#2310 = ORIENTED_EDGE('',*,*,#2272,.F.);
#2311 = ORIENTED_EDGE('',*,*,#1404,.F.);
#2312 = PLANE('',#2313);
#2313 = AXIS2_PLACEMENT_3D('',#2314,#2315,#2316);
#2314 = CARTESIAN_POINT('',(-120.,58.5,20.));
#2315 = DIRECTION('',(0.,1.,-4.4E-16));
#2316 = DIRECTION('',(-1.,0.,0.));
#2317 = ADVANCED_FACE('',(#2318),#2330,.F.);
#2318 = FACE_BOUND('',#2319,.T.);
#2319 = EDGE_LOOP('',(#2320,#2321,#2328,#2329));
#2320 = ORIENTED_EDGE('',*,*,#2257,.T.);
#2321 = ORIENTED_EDGE('',*,*,#2322,.T.);
#2322 = EDGE_CURVE('',#2250,#2298,#2323,.T.);
#2323 = CIRCLE('',#2324,6.5);
#2324 = AXIS2_PLACEMENT_3D('',#2325,#2326,#2327);
#2325 = CARTESIAN_POINT('',(-120.,52.,10.));
#2326 = DIRECTION('',(0.,0.,-1.));
#2327 = DIRECTION('',(1.,0.,0.));
#2328 = ORIENTED_EDGE('',*,*,#2297,.F.);
#2329 = ORIENTED_EDGE('',*,*,#1395,.F.);
#2330 = CYLINDRICAL_SURFACE('',#2331,6.5);
#2331 = AXIS2_PLACEMENT_3D('',#2332,#2333,#2334);
#2332 = CARTESIAN_POINT('',(-120.,52.,20.));
#2333 = DIRECTION('',(0.,4.4E-16,1.));
#2334 = DIRECTION('',(1.,0.,0.));
#2335 = ADVANCED_FACE('',(#2336),#2355,.F.);
#2336 = FACE_BOUND('',#2337,.T.);
#2337 = EDGE_LOOP('',(#2338,#2346,#2347,#2348));
#2338 = ORIENTED_EDGE('',*,*,#2339,.F.);
#2339 = EDGE_CURVE('',#1422,#2340,#2342,.T.);
#2340 = VERTEX_POINT('',#2341);
#2341 = CARTESIAN_POINT('',(-7.25,52.,5.));
#2342 = LINE('',#2343,#2344);
#2343 = CARTESIAN_POINT('',(-7.25,52.,20.));
#2344 = VECTOR('',#2345,1.);
#2345 = DIRECTION('',(-0.,-4.4E-16,-1.));
#2346 = ORIENTED_EDGE('',*,*,#1421,.F.);
#2347 = ORIENTED_EDGE('',*,*,#2339,.T.);
#2348 = ORIENTED_EDGE('',*,*,#2349,.F.);
#2349 = EDGE_CURVE('',#2340,#2340,#2350,.T.);
#2350 = CIRCLE('',#2351,2.75);
#2351 = AXIS2_PLACEMENT_3D('',#2352,#2353,#2354);
#2352 = CARTESIAN_POINT('',(-10.,52.,5.));
#2353 = DIRECTION('',(0.,4.4E-16,1.));
#2354 = DIRECTION('',(1.,0.,-0.));
#2355 = CYLINDRICAL_SURFACE('',#2356,2.75);
#2356 = AXIS2_PLACEMENT_3D('',#2357,#2358,#2359);
#2357 = CARTESIAN_POINT('',(-10.,52.,20.));
#2358 = DIRECTION('',(0.,4.4E-16,1.));
#2359 = DIRECTION('',(1.,0.,0.));
#2360 = ADVANCED_FACE('',(#2361,#2369),#2372,.T.);
#2361 = FACE_BOUND('',#2362,.F.);
#2362 = EDGE_LOOP('',(#2363,#2364,#2365,#2366,#2367,#2368));
#2363 = ORIENTED_EDGE('',*,*,#1600,.T.);
#2364 = ORIENTED_EDGE('',*,*,#1624,.T.);
#2365 = ORIENTED_EDGE('',*,*,#1648,.T.);
#2366 = ORIENTED_EDGE('',*,*,#1672,.T.);
#2367 = ORIENTED_EDGE('',*,*,#1696,.T.);
#2368 = ORIENTED_EDGE('',*,*,#1720,.T.);
#2369 = FACE_BOUND('',#2370,.F.);
#2370 = EDGE_LOOP('',(#2371));
#2371 = ORIENTED_EDGE('',*,*,#2201,.F.);
#2372 = PLANE('',#2373);
#2373 = AXIS2_PLACEMENT_3D('',#2374,#2375,#2376);
#2374 = CARTESIAN_POINT('',(-93.92947044295,52.,5.));
#2375 = DIRECTION('',(0.,-2.2E-16,-1.));
#2376 = DIRECTION('',(0.,1.,-2.2E-16));
#2377 = ADVANCED_FACE('',(#2378,#2386),#2389,.T.);
#2378 = FACE_BOUND('',#2379,.F.);
#2379 = EDGE_LOOP('',(#2380,#2381,#2382,#2383,#2384,#2385));
#2380 = ORIENTED_EDGE('',*,*,#1744,.T.);
#2381 = ORIENTED_EDGE('',*,*,#1768,.T.);
#2382 = ORIENTED_EDGE('',*,*,#1792,.T.);
#2383 = ORIENTED_EDGE('',*,*,#1816,.T.);
#2384 = ORIENTED_EDGE('',*,*,#1840,.T.);
#2385 = ORIENTED_EDGE('',*,*,#1864,.T.);
#2386 = FACE_BOUND('',#2387,.F.);
#2387 = EDGE_LOOP('',(#2388));
#2388 = ORIENTED_EDGE('',*,*,#2226,.F.);
#2389 = PLANE('',#2390);
#2390 = AXIS2_PLACEMENT_3D('',#2391,#2392,#2393);
#2391 = CARTESIAN_POINT('',(-93.92947044295,52.,5.));
#2392 = DIRECTION('',(0.,-2.2E-16,-1.));
#2393 = DIRECTION('',(0.,1.,-2.2E-16));
#2394 = ADVANCED_FACE('',(#2395,#2401),#2407,.F.);
#2395 = FACE_BOUND('',#2396,.T.);
#2396 = EDGE_LOOP('',(#2397,#2398,#2399,#2400));
#2397 = ORIENTED_EDGE('',*,*,#2322,.F.);
#2398 = ORIENTED_EDGE('',*,*,#2249,.F.);
#2399 = ORIENTED_EDGE('',*,*,#2280,.F.);
#2400 = ORIENTED_EDGE('',*,*,#2305,.F.);
#2401 = FACE_BOUND('',#2402,.T.);
#2402 = EDGE_LOOP('',(#2403,#2404,#2405,#2406));
#2403 = ORIENTED_EDGE('',*,*,#1880,.F.);
#2404 = ORIENTED_EDGE('',*,*,#1912,.F.);
#2405 = ORIENTED_EDGE('',*,*,#1960,.F.);
#2406 = ORIENTED_EDGE('',*,*,#1936,.F.);
#2407 = PLANE('',#2408);
#2408 = AXIS2_PLACEMENT_3D('',#2409,#2410,#2411);
#2409 = CARTESIAN_POINT('',(-131.5145228215,48.759336099585,10.));
#2410 = DIRECTION('',(1.E-17,-2.1E-16,-1.));
#2411 = DIRECTION('',(0.,1.,-2.1E-16));
#2412 = ADVANCED_FACE('',(#2413,#2421),#2424,.T.);
#2413 = FACE_BOUND('',#2414,.F.);
#2414 = EDGE_LOOP('',(#2415,#2416,#2417,#2418,#2419,#2420));
#2415 = ORIENTED_EDGE('',*,*,#1986,.T.);
#2416 = ORIENTED_EDGE('',*,*,#2010,.T.);
#2417 = ORIENTED_EDGE('',*,*,#2034,.T.);
#2418 = ORIENTED_EDGE('',*,*,#2058,.T.);
#2419 = ORIENTED_EDGE('',*,*,#2082,.T.);
#2420 = ORIENTED_EDGE('',*,*,#2106,.T.);
#2421 = FACE_BOUND('',#2422,.F.);
#2422 = EDGE_LOOP('',(#2423));
#2423 = ORIENTED_EDGE('',*,*,#2349,.F.);
#2424 = PLANE('',#2425);
#2425 = AXIS2_PLACEMENT_3D('',#2426,#2427,#2428);
#2426 = CARTESIAN_POINT('',(-93.92947044295,52.,5.));
#2427 = DIRECTION('',(0.,-2.2E-16,-1.));
#2428 = DIRECTION('',(0.,1.,-2.2E-16));
#2429 = ( GEOMETRIC_REPRESENTATION_CONTEXT(3) 
GLOBAL_UNCERTAINTY_ASSIGNED_CONTEXT((#2433)) 
GLOBAL_UNIT_ASSIGNED_CONTEXT((#2430,#2431,#2432)) REPRESENTATION_CONTEXT
('Context #1','3D Context with UNIT and UNCERTAINTY') );
#2430 = ( LENGTH_UNIT() NAMED_UNIT(*) SI_UNIT(.MILLI.,.METRE.) );
#2431 = ( NAMED_UNIT(*) PLANE_ANGLE_UNIT() SI_UNIT($,.RADIAN.) );
#2432 = ( NAMED_UNIT(*) SI_UNIT($,.STERADIAN.) SOLID_ANGLE_UNIT() );
#2433 = UNCERTAINTY_MEASURE_WITH_UNIT(LENGTH_MEASURE(1.E-07),#2430,
  'distance_accuracy_value','confusion accuracy');
#2434 = PRODUCT_RELATED_PRODUCT_CATEGORY('part',$,(#7));
#2435 = MECHANICAL_DESIGN_GEOMETRIC_PRESENTATION_REPRESENTATION('',(
    #2436),#2429);
#2436 = STYLED_ITEM('color',(#2437),#15);
#2437 = PRESENTATION_STYLE_ASSIGNMENT((#2438,#2444));
#2438 = SURFACE_STYLE_USAGE(.BOTH.,#2439);
#2439 = SURFACE_SIDE_STYLE('',(#2440));
#2440 = SURFACE_STYLE_FILL_AREA(#2441);
#2441 = FILL_AREA_STYLE('',(#2442));
#2442 = FILL_AREA_STYLE_COLOUR('',#2443);
#2443 = COLOUR_RGB('',0.800000010877,0.800000010877,0.800000010877);
#2444 = CURVE_STYLE('',#2445,POSITIVE_LENGTH_MEASURE(0.1),#2446);
#2445 = DRAUGHTING_PRE_DEFINED_CURVE_FONT('continuous');
#2446 = COLOUR_RGB('',9.803921802644E-02,9.803921802644E-02,
  9.803921802644E-02);
ENDSEC;
END-ISO-10303-21;
