ISO-10303-21;
HEADER;
FILE_DESCRIPTION(('FreeCAD Model'),'2;1');
FILE_NAME('Open CASCADE Shape Model','2025-05-21T10:09:30',('Author'),(
    ''),'Open CASCADE STEP processor 7.6','FreeCAD','Unknown');
FILE_SCHEMA(('AUTOMOTIVE_DESIGN { 1 0 10303 214 1 1 1 1 }'));
ENDSEC;
DATA;
#1 = APPLICATION_PROTOCOL_DEFINITION('international standard',
  'automotive_design',2000,#2);
#2 = APPLICATION_CONTEXT(
  'core data for automotive mechanical design processes');
#3 = SHAPE_DEFINITION_REPRESENTATION(#4,#10);
#4 = PRODUCT_DEFINITION_SHAPE('','',#5);
#5 = PRODUCT_DEFINITION('design','',#6,#9);
#6 = PRODUCT_DEFINITION_FORMATION('','',#7);
#7 = PRODUCT('Mirrored','Mirrored','',(#8));
#8 = PRODUCT_CONTEXT('',#2,'mechanical');
#9 = PRODUCT_DEFINITION_CONTEXT('part definition',#2,'design');
#10 = ADVANCED_BREP_SHAPE_REPRESENTATION('',(#11,#15),#1777);
#11 = AXIS2_PLACEMENT_3D('',#12,#13,#14);
#12 = CARTESIAN_POINT('',(0.,0.,0.));
#13 = DIRECTION('',(0.,0.,1.));
#14 = DIRECTION('',(1.,0.,-0.));
#15 = MANIFOLD_SOLID_BREP('',#16);
#16 = CLOSED_SHELL('',(#17,#73,#190,#214,#260,#284,#377,#394,#511,#542,
    #566,#590,#614,#638,#655,#686,#711,#736,#753,#777,#823,#848,#873,
    #897,#990,#1015,#1046,#1071,#1095,#1113,#1138,#1163,#1180,#1194,
    #1225,#1249,#1273,#1297,#1321,#1338,#1370,#1394,#1418,#1436,#1453,
    #1471,#1496,#1521,#1533,#1545,#1570,#1601,#1626,#1650,#1668,#1693,
    #1718,#1735,#1753,#1765));
#17 = ADVANCED_FACE('',(#18),#68,.F.);
#18 = FACE_BOUND('',#19,.F.);
#19 = EDGE_LOOP('',(#20,#30,#38,#46,#54,#62));
#20 = ORIENTED_EDGE('',*,*,#21,.F.);
#21 = EDGE_CURVE('',#22,#24,#26,.T.);
#22 = VERTEX_POINT('',#23);
#23 = CARTESIAN_POINT('',(0.,0.,0.));
#24 = VERTEX_POINT('',#25);
#25 = CARTESIAN_POINT('',(120.,0.,0.));
#26 = LINE('',#27,#28);
#27 = CARTESIAN_POINT('',(0.,0.,0.));
#28 = VECTOR('',#29,1.);
#29 = DIRECTION('',(1.,0.,0.));
#30 = ORIENTED_EDGE('',*,*,#31,.T.);
#31 = EDGE_CURVE('',#22,#32,#34,.T.);
#32 = VERTEX_POINT('',#33);
#33 = CARTESIAN_POINT('',(0.,9.E-15,20.));
#34 = LINE('',#35,#36);
#35 = CARTESIAN_POINT('',(0.,0.,0.));
#36 = VECTOR('',#37,1.);
#37 = DIRECTION('',(0.,4.4E-16,1.));
#38 = ORIENTED_EDGE('',*,*,#39,.T.);
#39 = EDGE_CURVE('',#32,#40,#42,.T.);
#40 = VERTEX_POINT('',#41);
#41 = CARTESIAN_POINT('',(160.,9.E-15,20.));
#42 = LINE('',#43,#44);
#43 = CARTESIAN_POINT('',(0.,9.E-15,20.));
#44 = VECTOR('',#45,1.);
#45 = DIRECTION('',(1.,0.,0.));
#46 = ORIENTED_EDGE('',*,*,#47,.F.);
#47 = EDGE_CURVE('',#48,#40,#50,.T.);
#48 = VERTEX_POINT('',#49);
#49 = CARTESIAN_POINT('',(160.,4.E-15,10.));
#50 = LINE('',#51,#52);
#51 = CARTESIAN_POINT('',(160.,0.,0.));
#52 = VECTOR('',#53,1.);
#53 = DIRECTION('',(0.,4.4E-16,1.));
#54 = ORIENTED_EDGE('',*,*,#55,.T.);
#55 = EDGE_CURVE('',#48,#56,#58,.T.);
#56 = VERTEX_POINT('',#57);
#57 = CARTESIAN_POINT('',(120.,4.E-15,10.));
#58 = LINE('',#59,#60);
#59 = CARTESIAN_POINT('',(160.,4.E-15,10.));
#60 = VECTOR('',#61,1.);
#61 = DIRECTION('',(-1.,0.,0.));
#62 = ORIENTED_EDGE('',*,*,#63,.F.);
#63 = EDGE_CURVE('',#24,#56,#64,.T.);
#64 = LINE('',#65,#66);
#65 = CARTESIAN_POINT('',(120.,0.,0.));
#66 = VECTOR('',#67,1.);
#67 = DIRECTION('',(0.,4.4E-16,1.));
#68 = PLANE('',#69);
#69 = AXIS2_PLACEMENT_3D('',#70,#71,#72);
#70 = CARTESIAN_POINT('',(0.,0.,0.));
#71 = DIRECTION('',(0.,1.,-4.4E-16));
#72 = DIRECTION('',(1.,0.,0.));
#73 = ADVANCED_FACE('',(#74,#99,#149),#185,.T.);
#74 = FACE_BOUND('',#75,.T.);
#75 = EDGE_LOOP('',(#76,#77,#85,#93));
#76 = ORIENTED_EDGE('',*,*,#21,.F.);
#77 = ORIENTED_EDGE('',*,*,#78,.F.);
#78 = EDGE_CURVE('',#79,#22,#81,.T.);
#79 = VERTEX_POINT('',#80);
#80 = CARTESIAN_POINT('',(0.,31.,-1.4E-14));
#81 = LINE('',#82,#83);
#82 = CARTESIAN_POINT('',(0.,31.,0.));
#83 = VECTOR('',#84,1.);
#84 = DIRECTION('',(0.,-1.,0.));
#85 = ORIENTED_EDGE('',*,*,#86,.F.);
#86 = EDGE_CURVE('',#87,#79,#89,.T.);
#87 = VERTEX_POINT('',#88);
#88 = CARTESIAN_POINT('',(120.,31.,-1.4E-14));
#89 = LINE('',#90,#91);
#90 = CARTESIAN_POINT('',(160.,31.,0.));
#91 = VECTOR('',#92,1.);
#92 = DIRECTION('',(-1.,0.,0.));
#93 = ORIENTED_EDGE('',*,*,#94,.F.);
#94 = EDGE_CURVE('',#24,#87,#95,.T.);
#95 = LINE('',#96,#97);
#96 = CARTESIAN_POINT('',(120.,0.,0.));
#97 = VECTOR('',#98,1.);
#98 = DIRECTION('',(0.,1.,0.));
#99 = FACE_BOUND('',#100,.T.);
#100 = EDGE_LOOP('',(#101,#111,#119,#127,#135,#143));
#101 = ORIENTED_EDGE('',*,*,#102,.F.);
#102 = EDGE_CURVE('',#103,#105,#107,.T.);
#103 = VERTEX_POINT('',#104);
#104 = CARTESIAN_POINT('',(14.676537180436,10.,0.));
#105 = VERTEX_POINT('',#106);
#106 = CARTESIAN_POINT('',(12.338268590218,5.95,0.));
#107 = LINE('',#108,#109);
#108 = CARTESIAN_POINT('',(14.676537180436,10.,0.));
#109 = VECTOR('',#110,1.);
#110 = DIRECTION('',(-0.5,-0.866025403784,0.));
#111 = ORIENTED_EDGE('',*,*,#112,.F.);
#112 = EDGE_CURVE('',#113,#103,#115,.T.);
#113 = VERTEX_POINT('',#114);
#114 = CARTESIAN_POINT('',(12.338268590218,14.05,0.));
#115 = LINE('',#116,#117);
#116 = CARTESIAN_POINT('',(12.338268590218,14.05,0.));
#117 = VECTOR('',#118,1.);
#118 = DIRECTION('',(0.5,-0.866025403784,0.));
#119 = ORIENTED_EDGE('',*,*,#120,.F.);
#120 = EDGE_CURVE('',#121,#113,#123,.T.);
#121 = VERTEX_POINT('',#122);
#122 = CARTESIAN_POINT('',(7.661731409782,14.05,0.));
#123 = LINE('',#124,#125);
#124 = CARTESIAN_POINT('',(7.661731409782,14.05,0.));
#125 = VECTOR('',#126,1.);
#126 = DIRECTION('',(1.,0.,0.));
#127 = ORIENTED_EDGE('',*,*,#128,.F.);
#128 = EDGE_CURVE('',#129,#121,#131,.T.);
#129 = VERTEX_POINT('',#130);
#130 = CARTESIAN_POINT('',(5.323462819564,10.,0.));
#131 = LINE('',#132,#133);
#132 = CARTESIAN_POINT('',(5.323462819564,10.,0.));
#133 = VECTOR('',#134,1.);
#134 = DIRECTION('',(0.5,0.866025403784,0.));
#135 = ORIENTED_EDGE('',*,*,#136,.F.);
#136 = EDGE_CURVE('',#137,#129,#139,.T.);
#137 = VERTEX_POINT('',#138);
#138 = CARTESIAN_POINT('',(7.661731409782,5.95,0.));
#139 = LINE('',#140,#141);
#140 = CARTESIAN_POINT('',(7.661731409782,5.95,0.));
#141 = VECTOR('',#142,1.);
#142 = DIRECTION('',(-0.5,0.866025403784,-0.));
#143 = ORIENTED_EDGE('',*,*,#144,.F.);
#144 = EDGE_CURVE('',#105,#137,#145,.T.);
#145 = LINE('',#146,#147);
#146 = CARTESIAN_POINT('',(12.338268590218,5.95,0.));
#147 = VECTOR('',#148,1.);
#148 = DIRECTION('',(-1.,0.,0.));
#149 = FACE_BOUND('',#150,.T.);
#150 = EDGE_LOOP('',(#151,#161,#170,#178));
#151 = ORIENTED_EDGE('',*,*,#152,.F.);
#152 = EDGE_CURVE('',#153,#155,#157,.T.);
#153 = VERTEX_POINT('',#154);
#154 = CARTESIAN_POINT('',(65.,12.749999999999,-7.E-15));
#155 = VERTEX_POINT('',#156);
#156 = CARTESIAN_POINT('',(94.999999999999,12.749999999999,-7.E-15));
#157 = LINE('',#158,#159);
#158 = CARTESIAN_POINT('',(87.5,12.749999999999,-6.38E-15));
#159 = VECTOR('',#160,1.);
#160 = DIRECTION('',(1.,3.32E-15,0.));
#161 = ORIENTED_EDGE('',*,*,#162,.T.);
#162 = EDGE_CURVE('',#153,#163,#165,.T.);
#163 = VERTEX_POINT('',#164);
#164 = CARTESIAN_POINT('',(65.,7.250000000001,-4.E-15));
#165 = CIRCLE('',#166,2.749999999999);
#166 = AXIS2_PLACEMENT_3D('',#167,#168,#169);
#167 = CARTESIAN_POINT('',(65.,10.,-3.55E-15));
#168 = DIRECTION('',(-0.,4.4E-16,1.));
#169 = DIRECTION('',(1.,0.,0.));
#170 = ORIENTED_EDGE('',*,*,#171,.F.);
#171 = EDGE_CURVE('',#172,#163,#174,.T.);
#172 = VERTEX_POINT('',#173);
#173 = CARTESIAN_POINT('',(95.,7.250000000001,-4.E-15));
#174 = LINE('',#175,#176);
#175 = CARTESIAN_POINT('',(72.5,7.250000000001,-3.39E-15));
#176 = VECTOR('',#177,1.);
#177 = DIRECTION('',(-1.,0.,0.));
#178 = ORIENTED_EDGE('',*,*,#179,.T.);
#179 = EDGE_CURVE('',#172,#155,#180,.T.);
#180 = CIRCLE('',#181,2.749999999999);
#181 = AXIS2_PLACEMENT_3D('',#182,#183,#184);
#182 = CARTESIAN_POINT('',(95.,10.,-3.55E-15));
#183 = DIRECTION('',(-0.,4.4E-16,1.));
#184 = DIRECTION('',(1.,0.,0.));
#185 = PLANE('',#186);
#186 = AXIS2_PLACEMENT_3D('',#187,#188,#189);
#187 = CARTESIAN_POINT('',(80.,15.5,-3.44E-15));
#188 = DIRECTION('',(0.,-2.2E-16,-1.));
#189 = DIRECTION('',(0.,1.,-2.2E-16));
#190 = ADVANCED_FACE('',(#191),#209,.F.);
#191 = FACE_BOUND('',#192,.F.);
#192 = EDGE_LOOP('',(#193,#194,#202,#208));
#193 = ORIENTED_EDGE('',*,*,#63,.T.);
#194 = ORIENTED_EDGE('',*,*,#195,.T.);
#195 = EDGE_CURVE('',#56,#196,#198,.T.);
#196 = VERTEX_POINT('',#197);
#197 = CARTESIAN_POINT('',(120.,31.,10.));
#198 = LINE('',#199,#200);
#199 = CARTESIAN_POINT('',(120.,4.E-15,10.));
#200 = VECTOR('',#201,1.);
#201 = DIRECTION('',(0.,1.,0.));
#202 = ORIENTED_EDGE('',*,*,#203,.F.);
#203 = EDGE_CURVE('',#87,#196,#204,.T.);
#204 = LINE('',#205,#206);
#205 = CARTESIAN_POINT('',(120.,31.,-1.377E-14));
#206 = VECTOR('',#207,1.);
#207 = DIRECTION('',(0.,4.4E-16,1.));
#208 = ORIENTED_EDGE('',*,*,#94,.F.);
#209 = PLANE('',#210);
#210 = AXIS2_PLACEMENT_3D('',#211,#212,#213);
#211 = CARTESIAN_POINT('',(120.,0.,0.));
#212 = DIRECTION('',(-1.,0.,0.));
#213 = DIRECTION('',(0.,1.,-4.4E-16));
#214 = ADVANCED_FACE('',(#215,#233,#244),#255,.T.);
#215 = FACE_BOUND('',#216,.T.);
#216 = EDGE_LOOP('',(#217,#225,#231,#232));
#217 = ORIENTED_EDGE('',*,*,#218,.T.);
#218 = EDGE_CURVE('',#196,#219,#221,.T.);
#219 = VERTEX_POINT('',#220);
#220 = CARTESIAN_POINT('',(160.,31.,10.));
#221 = LINE('',#222,#223);
#222 = CARTESIAN_POINT('',(120.,31.,10.));
#223 = VECTOR('',#224,1.);
#224 = DIRECTION('',(1.,0.,0.));
#225 = ORIENTED_EDGE('',*,*,#226,.T.);
#226 = EDGE_CURVE('',#219,#48,#227,.T.);
#227 = LINE('',#228,#229);
#228 = CARTESIAN_POINT('',(160.,31.,10.));
#229 = VECTOR('',#230,1.);
#230 = DIRECTION('',(0.,-1.,0.));
#231 = ORIENTED_EDGE('',*,*,#55,.T.);
#232 = ORIENTED_EDGE('',*,*,#195,.T.);
#233 = FACE_BOUND('',#234,.T.);
#234 = EDGE_LOOP('',(#235));
#235 = ORIENTED_EDGE('',*,*,#236,.T.);
#236 = EDGE_CURVE('',#237,#237,#239,.T.);
#237 = VERTEX_POINT('',#238);
#238 = CARTESIAN_POINT('',(131.7,10.,10.));
#239 = CIRCLE('',#240,1.7);
#240 = AXIS2_PLACEMENT_3D('',#241,#242,#243);
#241 = CARTESIAN_POINT('',(130.,10.,10.));
#242 = DIRECTION('',(-0.,4.4E-16,1.));
#243 = DIRECTION('',(1.,0.,0.));
#244 = FACE_BOUND('',#245,.T.);
#245 = EDGE_LOOP('',(#246));
#246 = ORIENTED_EDGE('',*,*,#247,.T.);
#247 = EDGE_CURVE('',#248,#248,#250,.T.);
#248 = VERTEX_POINT('',#249);
#249 = CARTESIAN_POINT('',(151.7,10.,10.));
#250 = CIRCLE('',#251,1.7);
#251 = AXIS2_PLACEMENT_3D('',#252,#253,#254);
#252 = CARTESIAN_POINT('',(150.,10.,10.));
#253 = DIRECTION('',(-0.,4.4E-16,1.));
#254 = DIRECTION('',(1.,0.,0.));
#255 = PLANE('',#256);
#256 = AXIS2_PLACEMENT_3D('',#257,#258,#259);
#257 = CARTESIAN_POINT('',(118.55041946788,14.592517746718,10.));
#258 = DIRECTION('',(0.,-2.2E-16,-1.));
#259 = DIRECTION('',(0.,1.,-2.2E-16));
#260 = ADVANCED_FACE('',(#261),#279,.F.);
#261 = FACE_BOUND('',#262,.F.);
#262 = EDGE_LOOP('',(#263,#264,#265,#273));
#263 = ORIENTED_EDGE('',*,*,#226,.T.);
#264 = ORIENTED_EDGE('',*,*,#47,.T.);
#265 = ORIENTED_EDGE('',*,*,#266,.T.);
#266 = EDGE_CURVE('',#40,#267,#269,.T.);
#267 = VERTEX_POINT('',#268);
#268 = CARTESIAN_POINT('',(160.,31.,20.));
#269 = LINE('',#270,#271);
#270 = CARTESIAN_POINT('',(160.,9.E-15,20.));
#271 = VECTOR('',#272,1.);
#272 = DIRECTION('',(0.,1.,0.));
#273 = ORIENTED_EDGE('',*,*,#274,.F.);
#274 = EDGE_CURVE('',#219,#267,#275,.T.);
#275 = LINE('',#276,#277);
#276 = CARTESIAN_POINT('',(160.,31.,-1.377E-14));
#277 = VECTOR('',#278,1.);
#278 = DIRECTION('',(0.,4.4E-16,1.));
#279 = PLANE('',#280);
#280 = AXIS2_PLACEMENT_3D('',#281,#282,#283);
#281 = CARTESIAN_POINT('',(160.,0.,0.));
#282 = DIRECTION('',(-1.,0.,0.));
#283 = DIRECTION('',(0.,1.,-4.4E-16));
#284 = ADVANCED_FACE('',(#285,#303,#314,#350,#361),#372,.F.);
#285 = FACE_BOUND('',#286,.F.);
#286 = EDGE_LOOP('',(#287,#288,#296,#302));
#287 = ORIENTED_EDGE('',*,*,#39,.F.);
#288 = ORIENTED_EDGE('',*,*,#289,.F.);
#289 = EDGE_CURVE('',#290,#32,#292,.T.);
#290 = VERTEX_POINT('',#291);
#291 = CARTESIAN_POINT('',(0.,31.,20.));
#292 = LINE('',#293,#294);
#293 = CARTESIAN_POINT('',(0.,31.,20.));
#294 = VECTOR('',#295,1.);
#295 = DIRECTION('',(0.,-1.,0.));
#296 = ORIENTED_EDGE('',*,*,#297,.F.);
#297 = EDGE_CURVE('',#267,#290,#298,.T.);
#298 = LINE('',#299,#300);
#299 = CARTESIAN_POINT('',(160.,31.,20.));
#300 = VECTOR('',#301,1.);
#301 = DIRECTION('',(-1.,0.,0.));
#302 = ORIENTED_EDGE('',*,*,#266,.F.);
#303 = FACE_BOUND('',#304,.F.);
#304 = EDGE_LOOP('',(#305));
#305 = ORIENTED_EDGE('',*,*,#306,.T.);
#306 = EDGE_CURVE('',#307,#307,#309,.T.);
#307 = VERTEX_POINT('',#308);
#308 = CARTESIAN_POINT('',(12.75,10.,20.));
#309 = CIRCLE('',#310,2.75);
#310 = AXIS2_PLACEMENT_3D('',#311,#312,#313);
#311 = CARTESIAN_POINT('',(10.,10.,20.));
#312 = DIRECTION('',(0.,0.,1.));
#313 = DIRECTION('',(1.,0.,0.));
#314 = FACE_BOUND('',#315,.F.);
#315 = EDGE_LOOP('',(#316,#326,#335,#343));
#316 = ORIENTED_EDGE('',*,*,#317,.T.);
#317 = EDGE_CURVE('',#318,#320,#322,.T.);
#318 = VERTEX_POINT('',#319);
#319 = CARTESIAN_POINT('',(95.,16.5,20.));
#320 = VERTEX_POINT('',#321);
#321 = CARTESIAN_POINT('',(65.,16.5,20.));
#322 = LINE('',#323,#324);
#323 = CARTESIAN_POINT('',(95.,16.5,20.));
#324 = VECTOR('',#325,1.);
#325 = DIRECTION('',(-1.,0.,0.));
#326 = ORIENTED_EDGE('',*,*,#327,.T.);
#327 = EDGE_CURVE('',#320,#328,#330,.T.);
#328 = VERTEX_POINT('',#329);
#329 = CARTESIAN_POINT('',(65.,3.5,20.));
#330 = CIRCLE('',#331,6.5);
#331 = AXIS2_PLACEMENT_3D('',#332,#333,#334);
#332 = CARTESIAN_POINT('',(65.,10.,20.));
#333 = DIRECTION('',(0.,0.,1.));
#334 = DIRECTION('',(1.,0.,0.));
#335 = ORIENTED_EDGE('',*,*,#336,.T.);
#336 = EDGE_CURVE('',#328,#337,#339,.T.);
#337 = VERTEX_POINT('',#338);
#338 = CARTESIAN_POINT('',(95.,3.5,20.));
#339 = LINE('',#340,#341);
#340 = CARTESIAN_POINT('',(65.,3.5,20.));
#341 = VECTOR('',#342,1.);
#342 = DIRECTION('',(1.,0.,0.));
#343 = ORIENTED_EDGE('',*,*,#344,.T.);
#344 = EDGE_CURVE('',#337,#318,#345,.T.);
#345 = CIRCLE('',#346,6.5);
#346 = AXIS2_PLACEMENT_3D('',#347,#348,#349);
#347 = CARTESIAN_POINT('',(95.,10.,20.));
#348 = DIRECTION('',(0.,0.,1.));
#349 = DIRECTION('',(1.,0.,0.));
#350 = FACE_BOUND('',#351,.F.);
#351 = EDGE_LOOP('',(#352));
#352 = ORIENTED_EDGE('',*,*,#353,.T.);
#353 = EDGE_CURVE('',#354,#354,#356,.T.);
#354 = VERTEX_POINT('',#355);
#355 = CARTESIAN_POINT('',(133.5,10.,20.));
#356 = CIRCLE('',#357,3.5);
#357 = AXIS2_PLACEMENT_3D('',#358,#359,#360);
#358 = CARTESIAN_POINT('',(130.,10.,20.));
#359 = DIRECTION('',(0.,0.,1.));
#360 = DIRECTION('',(1.,0.,0.));
#361 = FACE_BOUND('',#362,.F.);
#362 = EDGE_LOOP('',(#363));
#363 = ORIENTED_EDGE('',*,*,#364,.T.);
#364 = EDGE_CURVE('',#365,#365,#367,.T.);
#365 = VERTEX_POINT('',#366);
#366 = CARTESIAN_POINT('',(153.5,10.,20.));
#367 = CIRCLE('',#368,3.5);
#368 = AXIS2_PLACEMENT_3D('',#369,#370,#371);
#369 = CARTESIAN_POINT('',(150.,10.,20.));
#370 = DIRECTION('',(0.,0.,1.));
#371 = DIRECTION('',(1.,0.,0.));
#372 = PLANE('',#373);
#373 = AXIS2_PLACEMENT_3D('',#374,#375,#376);
#374 = CARTESIAN_POINT('',(80.,15.5,20.));
#375 = DIRECTION('',(0.,-2.2E-16,-1.));
#376 = DIRECTION('',(0.,1.,-2.2E-16));
#377 = ADVANCED_FACE('',(#378),#389,.F.);
#378 = FACE_BOUND('',#379,.F.);
#379 = EDGE_LOOP('',(#380,#386,#387,#388));
#380 = ORIENTED_EDGE('',*,*,#381,.T.);
#381 = EDGE_CURVE('',#79,#290,#382,.T.);
#382 = LINE('',#383,#384);
#383 = CARTESIAN_POINT('',(0.,31.,-1.377E-14));
#384 = VECTOR('',#385,1.);
#385 = DIRECTION('',(0.,4.4E-16,1.));
#386 = ORIENTED_EDGE('',*,*,#289,.T.);
#387 = ORIENTED_EDGE('',*,*,#31,.F.);
#388 = ORIENTED_EDGE('',*,*,#78,.F.);
#389 = PLANE('',#390);
#390 = AXIS2_PLACEMENT_3D('',#391,#392,#393);
#391 = CARTESIAN_POINT('',(0.,31.,-1.377E-14));
#392 = DIRECTION('',(1.,0.,0.));
#393 = DIRECTION('',(0.,-1.,4.4E-16));
#394 = ADVANCED_FACE('',(#395,#420,#470),#506,.T.);
#395 = FACE_BOUND('',#396,.F.);
#396 = EDGE_LOOP('',(#397,#407,#413,#414));
#397 = ORIENTED_EDGE('',*,*,#398,.F.);
#398 = EDGE_CURVE('',#399,#401,#403,.T.);
#399 = VERTEX_POINT('',#400);
#400 = CARTESIAN_POINT('',(0.,62.,-2.8E-14));
#401 = VERTEX_POINT('',#402);
#402 = CARTESIAN_POINT('',(120.,62.,-2.8E-14));
#403 = LINE('',#404,#405);
#404 = CARTESIAN_POINT('',(0.,62.,-8.9E-16));
#405 = VECTOR('',#406,1.);
#406 = DIRECTION('',(1.,0.,0.));
#407 = ORIENTED_EDGE('',*,*,#408,.F.);
#408 = EDGE_CURVE('',#79,#399,#409,.T.);
#409 = LINE('',#410,#411);
#410 = CARTESIAN_POINT('',(0.,31.,-8.9E-16));
#411 = VECTOR('',#412,1.);
#412 = DIRECTION('',(0.,1.,0.));
#413 = ORIENTED_EDGE('',*,*,#86,.F.);
#414 = ORIENTED_EDGE('',*,*,#415,.F.);
#415 = EDGE_CURVE('',#401,#87,#416,.T.);
#416 = LINE('',#417,#418);
#417 = CARTESIAN_POINT('',(120.,62.,-8.9E-16));
#418 = VECTOR('',#419,1.);
#419 = DIRECTION('',(0.,-1.,0.));
#420 = FACE_BOUND('',#421,.F.);
#421 = EDGE_LOOP('',(#422,#432,#440,#448,#456,#464));
#422 = ORIENTED_EDGE('',*,*,#423,.F.);
#423 = EDGE_CURVE('',#424,#426,#428,.T.);
#424 = VERTEX_POINT('',#425);
#425 = CARTESIAN_POINT('',(14.676537180436,52.,-2.4E-14));
#426 = VERTEX_POINT('',#427);
#427 = CARTESIAN_POINT('',(12.338268590218,56.05,-2.6E-14));
#428 = LINE('',#429,#430);
#429 = CARTESIAN_POINT('',(14.676537180436,52.,-8.9E-16));
#430 = VECTOR('',#431,1.);
#431 = DIRECTION('',(-0.5,0.866025403784,-0.));
#432 = ORIENTED_EDGE('',*,*,#433,.F.);
#433 = EDGE_CURVE('',#434,#424,#436,.T.);
#434 = VERTEX_POINT('',#435);
#435 = CARTESIAN_POINT('',(12.338268590218,47.95,-2.2E-14));
#436 = LINE('',#437,#438);
#437 = CARTESIAN_POINT('',(12.338268590218,47.95,-8.9E-16));
#438 = VECTOR('',#439,1.);
#439 = DIRECTION('',(0.5,0.866025403784,0.));
#440 = ORIENTED_EDGE('',*,*,#441,.F.);
#441 = EDGE_CURVE('',#442,#434,#444,.T.);
#442 = VERTEX_POINT('',#443);
#443 = CARTESIAN_POINT('',(7.661731409782,47.95,-2.2E-14));
#444 = LINE('',#445,#446);
#445 = CARTESIAN_POINT('',(7.661731409782,47.95,-8.9E-16));
#446 = VECTOR('',#447,1.);
#447 = DIRECTION('',(1.,0.,0.));
#448 = ORIENTED_EDGE('',*,*,#449,.F.);
#449 = EDGE_CURVE('',#450,#442,#452,.T.);
#450 = VERTEX_POINT('',#451);
#451 = CARTESIAN_POINT('',(5.323462819564,52.,-2.4E-14));
#452 = LINE('',#453,#454);
#453 = CARTESIAN_POINT('',(5.323462819564,52.,-8.9E-16));
#454 = VECTOR('',#455,1.);
#455 = DIRECTION('',(0.5,-0.866025403784,0.));
#456 = ORIENTED_EDGE('',*,*,#457,.F.);
#457 = EDGE_CURVE('',#458,#450,#460,.T.);
#458 = VERTEX_POINT('',#459);
#459 = CARTESIAN_POINT('',(7.661731409782,56.05,-2.6E-14));
#460 = LINE('',#461,#462);
#461 = CARTESIAN_POINT('',(7.661731409782,56.05,-8.9E-16));
#462 = VECTOR('',#463,1.);
#463 = DIRECTION('',(-0.5,-0.866025403784,0.));
#464 = ORIENTED_EDGE('',*,*,#465,.F.);
#465 = EDGE_CURVE('',#426,#458,#466,.T.);
#466 = LINE('',#467,#468);
#467 = CARTESIAN_POINT('',(12.338268590218,56.05,-8.9E-16));
#468 = VECTOR('',#469,1.);
#469 = DIRECTION('',(-1.,0.,-0.));
#470 = FACE_BOUND('',#471,.F.);
#471 = EDGE_LOOP('',(#472,#483,#491,#500));
#472 = ORIENTED_EDGE('',*,*,#473,.F.);
#473 = EDGE_CURVE('',#474,#476,#478,.T.);
#474 = VERTEX_POINT('',#475);
#475 = CARTESIAN_POINT('',(65.,54.749999999999,-2.5E-14));
#476 = VERTEX_POINT('',#477);
#477 = CARTESIAN_POINT('',(65.,49.250000000001,-2.1E-14));
#478 = CIRCLE('',#479,2.749999999999);
#479 = AXIS2_PLACEMENT_3D('',#480,#481,#482);
#480 = CARTESIAN_POINT('',(65.,52.,-2.487E-14));
#481 = DIRECTION('',(0.,4.4E-16,1.));
#482 = DIRECTION('',(1.,0.,-0.));
#483 = ORIENTED_EDGE('',*,*,#484,.T.);
#484 = EDGE_CURVE('',#474,#485,#487,.T.);
#485 = VERTEX_POINT('',#486);
#486 = CARTESIAN_POINT('',(95.,54.749999999999,-2.5E-14));
#487 = LINE('',#488,#489);
#488 = CARTESIAN_POINT('',(72.5,54.749999999999,-2.504E-14));
#489 = VECTOR('',#490,1.);
#490 = DIRECTION('',(1.,0.,0.));
#491 = ORIENTED_EDGE('',*,*,#492,.F.);
#492 = EDGE_CURVE('',#493,#485,#495,.T.);
#493 = VERTEX_POINT('',#494);
#494 = CARTESIAN_POINT('',(94.999999999999,49.250000000001,-2.1E-14));
#495 = CIRCLE('',#496,2.749999999999);
#496 = AXIS2_PLACEMENT_3D('',#497,#498,#499);
#497 = CARTESIAN_POINT('',(95.,52.,-2.132E-14));
#498 = DIRECTION('',(0.,4.4E-16,1.));
#499 = DIRECTION('',(1.,0.,-0.));
#500 = ORIENTED_EDGE('',*,*,#501,.T.);
#501 = EDGE_CURVE('',#493,#476,#502,.T.);
#502 = LINE('',#503,#504);
#503 = CARTESIAN_POINT('',(87.5,49.250000000001,-2.204E-14));
#504 = VECTOR('',#505,1.);
#505 = DIRECTION('',(-1.,3.32E-15,-0.));
#506 = PLANE('',#507);
#507 = AXIS2_PLACEMENT_3D('',#508,#509,#510);
#508 = CARTESIAN_POINT('',(80.,46.5,-1.121E-14));
#509 = DIRECTION('',(0.,-2.2E-16,-1.));
#510 = DIRECTION('',(0.,1.,-2.2E-16));
#511 = ADVANCED_FACE('',(#512),#537,.F.);
#512 = FACE_BOUND('',#513,.F.);
#513 = EDGE_LOOP('',(#514,#522,#530,#536));
#514 = ORIENTED_EDGE('',*,*,#515,.T.);
#515 = EDGE_CURVE('',#103,#516,#518,.T.);
#516 = VERTEX_POINT('',#517);
#517 = CARTESIAN_POINT('',(14.676537180436,10.,10.));
#518 = LINE('',#519,#520);
#519 = CARTESIAN_POINT('',(14.676537180436,10.,-4.44E-15));
#520 = VECTOR('',#521,1.);
#521 = DIRECTION('',(0.,4.4E-16,1.));
#522 = ORIENTED_EDGE('',*,*,#523,.T.);
#523 = EDGE_CURVE('',#516,#524,#526,.T.);
#524 = VERTEX_POINT('',#525);
#525 = CARTESIAN_POINT('',(12.338268590218,5.95,10.));
#526 = LINE('',#527,#528);
#527 = CARTESIAN_POINT('',(14.676537180436,10.,10.));
#528 = VECTOR('',#529,1.);
#529 = DIRECTION('',(-0.5,-0.866025403784,0.));
#530 = ORIENTED_EDGE('',*,*,#531,.F.);
#531 = EDGE_CURVE('',#105,#524,#532,.T.);
#532 = LINE('',#533,#534);
#533 = CARTESIAN_POINT('',(12.338268590218,5.95,-2.64E-15));
#534 = VECTOR('',#535,1.);
#535 = DIRECTION('',(0.,4.4E-16,1.));
#536 = ORIENTED_EDGE('',*,*,#102,.F.);
#537 = PLANE('',#538);
#538 = AXIS2_PLACEMENT_3D('',#539,#540,#541);
#539 = CARTESIAN_POINT('',(14.676537180436,10.,-4.44E-15));
#540 = DIRECTION('',(0.866025403784,-0.5,2.2E-16));
#541 = DIRECTION('',(-0.5,-0.866025403784,3.8E-16));
#542 = ADVANCED_FACE('',(#543),#561,.F.);
#543 = FACE_BOUND('',#544,.F.);
#544 = EDGE_LOOP('',(#545,#546,#554,#560));
#545 = ORIENTED_EDGE('',*,*,#531,.T.);
#546 = ORIENTED_EDGE('',*,*,#547,.T.);
#547 = EDGE_CURVE('',#524,#548,#550,.T.);
#548 = VERTEX_POINT('',#549);
#549 = CARTESIAN_POINT('',(7.661731409782,5.95,10.));
#550 = LINE('',#551,#552);
#551 = CARTESIAN_POINT('',(12.338268590218,5.95,10.));
#552 = VECTOR('',#553,1.);
#553 = DIRECTION('',(-1.,0.,0.));
#554 = ORIENTED_EDGE('',*,*,#555,.F.);
#555 = EDGE_CURVE('',#137,#548,#556,.T.);
#556 = LINE('',#557,#558);
#557 = CARTESIAN_POINT('',(7.661731409782,5.95,-2.64E-15));
#558 = VECTOR('',#559,1.);
#559 = DIRECTION('',(0.,4.4E-16,1.));
#560 = ORIENTED_EDGE('',*,*,#144,.F.);
#561 = PLANE('',#562);
#562 = AXIS2_PLACEMENT_3D('',#563,#564,#565);
#563 = CARTESIAN_POINT('',(12.338268590218,5.95,-2.64E-15));
#564 = DIRECTION('',(0.,-1.,4.4E-16));
#565 = DIRECTION('',(-1.,0.,0.));
#566 = ADVANCED_FACE('',(#567),#585,.F.);
#567 = FACE_BOUND('',#568,.F.);
#568 = EDGE_LOOP('',(#569,#570,#578,#584));
#569 = ORIENTED_EDGE('',*,*,#555,.T.);
#570 = ORIENTED_EDGE('',*,*,#571,.T.);
#571 = EDGE_CURVE('',#548,#572,#574,.T.);
#572 = VERTEX_POINT('',#573);
#573 = CARTESIAN_POINT('',(5.323462819564,10.,10.));
#574 = LINE('',#575,#576);
#575 = CARTESIAN_POINT('',(7.661731409782,5.95,10.));
#576 = VECTOR('',#577,1.);
#577 = DIRECTION('',(-0.5,0.866025403784,-0.));
#578 = ORIENTED_EDGE('',*,*,#579,.F.);
#579 = EDGE_CURVE('',#129,#572,#580,.T.);
#580 = LINE('',#581,#582);
#581 = CARTESIAN_POINT('',(5.323462819564,10.,-4.44E-15));
#582 = VECTOR('',#583,1.);
#583 = DIRECTION('',(0.,4.4E-16,1.));
#584 = ORIENTED_EDGE('',*,*,#136,.F.);
#585 = PLANE('',#586);
#586 = AXIS2_PLACEMENT_3D('',#587,#588,#589);
#587 = CARTESIAN_POINT('',(7.661731409782,5.95,-2.64E-15));
#588 = DIRECTION('',(-0.866025403784,-0.5,2.2E-16));
#589 = DIRECTION('',(-0.5,0.866025403784,-3.8E-16));
#590 = ADVANCED_FACE('',(#591),#609,.F.);
#591 = FACE_BOUND('',#592,.F.);
#592 = EDGE_LOOP('',(#593,#594,#602,#608));
#593 = ORIENTED_EDGE('',*,*,#579,.T.);
#594 = ORIENTED_EDGE('',*,*,#595,.T.);
#595 = EDGE_CURVE('',#572,#596,#598,.T.);
#596 = VERTEX_POINT('',#597);
#597 = CARTESIAN_POINT('',(7.661731409782,14.05,10.));
#598 = LINE('',#599,#600);
#599 = CARTESIAN_POINT('',(5.323462819564,10.,10.));
#600 = VECTOR('',#601,1.);
#601 = DIRECTION('',(0.5,0.866025403784,0.));
#602 = ORIENTED_EDGE('',*,*,#603,.F.);
#603 = EDGE_CURVE('',#121,#596,#604,.T.);
#604 = LINE('',#605,#606);
#605 = CARTESIAN_POINT('',(7.661731409782,14.05,-6.24E-15));
#606 = VECTOR('',#607,1.);
#607 = DIRECTION('',(0.,4.4E-16,1.));
#608 = ORIENTED_EDGE('',*,*,#128,.F.);
#609 = PLANE('',#610);
#610 = AXIS2_PLACEMENT_3D('',#611,#612,#613);
#611 = CARTESIAN_POINT('',(5.323462819564,10.,-4.44E-15));
#612 = DIRECTION('',(-0.866025403784,0.5,-2.2E-16));
#613 = DIRECTION('',(0.5,0.866025403784,-3.8E-16));
#614 = ADVANCED_FACE('',(#615),#633,.F.);
#615 = FACE_BOUND('',#616,.F.);
#616 = EDGE_LOOP('',(#617,#618,#626,#632));
#617 = ORIENTED_EDGE('',*,*,#603,.T.);
#618 = ORIENTED_EDGE('',*,*,#619,.T.);
#619 = EDGE_CURVE('',#596,#620,#622,.T.);
#620 = VERTEX_POINT('',#621);
#621 = CARTESIAN_POINT('',(12.338268590218,14.05,10.));
#622 = LINE('',#623,#624);
#623 = CARTESIAN_POINT('',(7.661731409782,14.05,10.));
#624 = VECTOR('',#625,1.);
#625 = DIRECTION('',(1.,0.,0.));
#626 = ORIENTED_EDGE('',*,*,#627,.F.);
#627 = EDGE_CURVE('',#113,#620,#628,.T.);
#628 = LINE('',#629,#630);
#629 = CARTESIAN_POINT('',(12.338268590218,14.05,-6.24E-15));
#630 = VECTOR('',#631,1.);
#631 = DIRECTION('',(0.,4.4E-16,1.));
#632 = ORIENTED_EDGE('',*,*,#120,.F.);
#633 = PLANE('',#634);
#634 = AXIS2_PLACEMENT_3D('',#635,#636,#637);
#635 = CARTESIAN_POINT('',(7.661731409782,14.05,-6.24E-15));
#636 = DIRECTION('',(0.,1.,-4.4E-16));
#637 = DIRECTION('',(1.,0.,0.));
#638 = ADVANCED_FACE('',(#639),#650,.F.);
#639 = FACE_BOUND('',#640,.F.);
#640 = EDGE_LOOP('',(#641,#642,#648,#649));
#641 = ORIENTED_EDGE('',*,*,#627,.T.);
#642 = ORIENTED_EDGE('',*,*,#643,.T.);
#643 = EDGE_CURVE('',#620,#516,#644,.T.);
#644 = LINE('',#645,#646);
#645 = CARTESIAN_POINT('',(12.338268590218,14.05,10.));
#646 = VECTOR('',#647,1.);
#647 = DIRECTION('',(0.5,-0.866025403784,0.));
#648 = ORIENTED_EDGE('',*,*,#515,.F.);
#649 = ORIENTED_EDGE('',*,*,#112,.F.);
#650 = PLANE('',#651);
#651 = AXIS2_PLACEMENT_3D('',#652,#653,#654);
#652 = CARTESIAN_POINT('',(12.338268590218,14.05,-6.24E-15));
#653 = DIRECTION('',(0.866025403784,0.5,-2.2E-16));
#654 = DIRECTION('',(0.5,-0.866025403784,3.8E-16));
#655 = ADVANCED_FACE('',(#656),#681,.F.);
#656 = FACE_BOUND('',#657,.F.);
#657 = EDGE_LOOP('',(#658,#668,#674,#675));
#658 = ORIENTED_EDGE('',*,*,#659,.F.);
#659 = EDGE_CURVE('',#660,#662,#664,.T.);
#660 = VERTEX_POINT('',#661);
#661 = CARTESIAN_POINT('',(94.999999999999,12.749999999999,10.));
#662 = VERTEX_POINT('',#663);
#663 = CARTESIAN_POINT('',(65.,12.749999999999,10.));
#664 = LINE('',#665,#666);
#665 = CARTESIAN_POINT('',(87.5,12.749999999999,10.));
#666 = VECTOR('',#667,1.);
#667 = DIRECTION('',(-1.,-3.32E-15,0.));
#668 = ORIENTED_EDGE('',*,*,#669,.T.);
#669 = EDGE_CURVE('',#660,#155,#670,.T.);
#670 = LINE('',#671,#672);
#671 = CARTESIAN_POINT('',(94.999999999999,12.749999999999,20.));
#672 = VECTOR('',#673,1.);
#673 = DIRECTION('',(0.,-4.4E-16,-1.));
#674 = ORIENTED_EDGE('',*,*,#152,.F.);
#675 = ORIENTED_EDGE('',*,*,#676,.F.);
#676 = EDGE_CURVE('',#662,#153,#677,.T.);
#677 = LINE('',#678,#679);
#678 = CARTESIAN_POINT('',(65.,12.749999999999,20.));
#679 = VECTOR('',#680,1.);
#680 = DIRECTION('',(0.,-4.4E-16,-1.));
#681 = PLANE('',#682);
#682 = AXIS2_PLACEMENT_3D('',#683,#684,#685);
#683 = CARTESIAN_POINT('',(94.999999999999,12.749999999999,20.));
#684 = DIRECTION('',(-3.32E-15,1.,-4.4E-16));
#685 = DIRECTION('',(-1.,-3.32E-15,-7.606888252622E-47));
#686 = ADVANCED_FACE('',(#687),#706,.F.);
#687 = FACE_BOUND('',#688,.F.);
#688 = EDGE_LOOP('',(#689,#698,#699,#700));
#689 = ORIENTED_EDGE('',*,*,#690,.F.);
#690 = EDGE_CURVE('',#662,#691,#693,.T.);
#691 = VERTEX_POINT('',#692);
#692 = CARTESIAN_POINT('',(65.,7.250000000001,10.));
#693 = CIRCLE('',#694,2.749999999999);
#694 = AXIS2_PLACEMENT_3D('',#695,#696,#697);
#695 = CARTESIAN_POINT('',(65.,10.,10.));
#696 = DIRECTION('',(-0.,4.4E-16,1.));
#697 = DIRECTION('',(1.,0.,0.));
#698 = ORIENTED_EDGE('',*,*,#676,.T.);
#699 = ORIENTED_EDGE('',*,*,#162,.T.);
#700 = ORIENTED_EDGE('',*,*,#701,.F.);
#701 = EDGE_CURVE('',#691,#163,#702,.T.);
#702 = LINE('',#703,#704);
#703 = CARTESIAN_POINT('',(65.,7.250000000001,20.));
#704 = VECTOR('',#705,1.);
#705 = DIRECTION('',(0.,-4.4E-16,-1.));
#706 = CYLINDRICAL_SURFACE('',#707,2.749999999999);
#707 = AXIS2_PLACEMENT_3D('',#708,#709,#710);
#708 = CARTESIAN_POINT('',(65.,10.,20.));
#709 = DIRECTION('',(0.,4.4E-16,1.));
#710 = DIRECTION('',(1.,0.,0.));
#711 = ADVANCED_FACE('',(#712),#731,.F.);
#712 = FACE_BOUND('',#713,.F.);
#713 = EDGE_LOOP('',(#714,#723,#729,#730));
#714 = ORIENTED_EDGE('',*,*,#715,.F.);
#715 = EDGE_CURVE('',#716,#660,#718,.T.);
#716 = VERTEX_POINT('',#717);
#717 = CARTESIAN_POINT('',(95.,7.250000000001,10.));
#718 = CIRCLE('',#719,2.749999999999);
#719 = AXIS2_PLACEMENT_3D('',#720,#721,#722);
#720 = CARTESIAN_POINT('',(95.,10.,10.));
#721 = DIRECTION('',(-0.,4.4E-16,1.));
#722 = DIRECTION('',(1.,0.,0.));
#723 = ORIENTED_EDGE('',*,*,#724,.T.);
#724 = EDGE_CURVE('',#716,#172,#725,.T.);
#725 = LINE('',#726,#727);
#726 = CARTESIAN_POINT('',(95.,7.250000000001,20.));
#727 = VECTOR('',#728,1.);
#728 = DIRECTION('',(0.,-4.4E-16,-1.));
#729 = ORIENTED_EDGE('',*,*,#179,.T.);
#730 = ORIENTED_EDGE('',*,*,#669,.F.);
#731 = CYLINDRICAL_SURFACE('',#732,2.749999999999);
#732 = AXIS2_PLACEMENT_3D('',#733,#734,#735);
#733 = CARTESIAN_POINT('',(95.,10.,20.));
#734 = DIRECTION('',(0.,4.4E-16,1.));
#735 = DIRECTION('',(1.,0.,0.));
#736 = ADVANCED_FACE('',(#737),#748,.F.);
#737 = FACE_BOUND('',#738,.F.);
#738 = EDGE_LOOP('',(#739,#745,#746,#747));
#739 = ORIENTED_EDGE('',*,*,#740,.F.);
#740 = EDGE_CURVE('',#691,#716,#741,.T.);
#741 = LINE('',#742,#743);
#742 = CARTESIAN_POINT('',(72.5,7.250000000001,10.));
#743 = VECTOR('',#744,1.);
#744 = DIRECTION('',(1.,0.,0.));
#745 = ORIENTED_EDGE('',*,*,#701,.T.);
#746 = ORIENTED_EDGE('',*,*,#171,.F.);
#747 = ORIENTED_EDGE('',*,*,#724,.F.);
#748 = PLANE('',#749);
#749 = AXIS2_PLACEMENT_3D('',#750,#751,#752);
#750 = CARTESIAN_POINT('',(65.,7.250000000001,20.));
#751 = DIRECTION('',(0.,-1.,4.4E-16));
#752 = DIRECTION('',(1.,0.,0.));
#753 = ADVANCED_FACE('',(#754),#772,.F.);
#754 = FACE_BOUND('',#755,.T.);
#755 = EDGE_LOOP('',(#756,#764,#770,#771));
#756 = ORIENTED_EDGE('',*,*,#757,.T.);
#757 = EDGE_CURVE('',#401,#758,#760,.T.);
#758 = VERTEX_POINT('',#759);
#759 = CARTESIAN_POINT('',(120.,62.,10.));
#760 = LINE('',#761,#762);
#761 = CARTESIAN_POINT('',(120.,62.,-2.842E-14));
#762 = VECTOR('',#763,1.);
#763 = DIRECTION('',(0.,4.4E-16,1.));
#764 = ORIENTED_EDGE('',*,*,#765,.T.);
#765 = EDGE_CURVE('',#758,#196,#766,.T.);
#766 = LINE('',#767,#768);
#767 = CARTESIAN_POINT('',(120.,62.,10.));
#768 = VECTOR('',#769,1.);
#769 = DIRECTION('',(0.,-1.,0.));
#770 = ORIENTED_EDGE('',*,*,#203,.F.);
#771 = ORIENTED_EDGE('',*,*,#415,.F.);
#772 = PLANE('',#773);
#773 = AXIS2_PLACEMENT_3D('',#774,#775,#776);
#774 = CARTESIAN_POINT('',(120.,62.,-2.842E-14));
#775 = DIRECTION('',(-1.,-0.,0.));
#776 = DIRECTION('',(0.,1.,-4.4E-16));
#777 = ADVANCED_FACE('',(#778,#796,#807),#818,.T.);
#778 = FACE_BOUND('',#779,.F.);
#779 = EDGE_LOOP('',(#780,#781,#789,#795));
#780 = ORIENTED_EDGE('',*,*,#218,.T.);
#781 = ORIENTED_EDGE('',*,*,#782,.T.);
#782 = EDGE_CURVE('',#219,#783,#785,.T.);
#783 = VERTEX_POINT('',#784);
#784 = CARTESIAN_POINT('',(160.,62.,10.));
#785 = LINE('',#786,#787);
#786 = CARTESIAN_POINT('',(160.,31.,10.));
#787 = VECTOR('',#788,1.);
#788 = DIRECTION('',(0.,1.,-0.));
#789 = ORIENTED_EDGE('',*,*,#790,.T.);
#790 = EDGE_CURVE('',#783,#758,#791,.T.);
#791 = LINE('',#792,#793);
#792 = CARTESIAN_POINT('',(160.,62.,10.));
#793 = VECTOR('',#794,1.);
#794 = DIRECTION('',(-1.,0.,-0.));
#795 = ORIENTED_EDGE('',*,*,#765,.T.);
#796 = FACE_BOUND('',#797,.F.);
#797 = EDGE_LOOP('',(#798));
#798 = ORIENTED_EDGE('',*,*,#799,.F.);
#799 = EDGE_CURVE('',#800,#800,#802,.T.);
#800 = VERTEX_POINT('',#801);
#801 = CARTESIAN_POINT('',(131.7,52.,10.));
#802 = CIRCLE('',#803,1.7);
#803 = AXIS2_PLACEMENT_3D('',#804,#805,#806);
#804 = CARTESIAN_POINT('',(130.,52.,10.));
#805 = DIRECTION('',(0.,4.4E-16,1.));
#806 = DIRECTION('',(1.,0.,-0.));
#807 = FACE_BOUND('',#808,.F.);
#808 = EDGE_LOOP('',(#809));
#809 = ORIENTED_EDGE('',*,*,#810,.F.);
#810 = EDGE_CURVE('',#811,#811,#813,.T.);
#811 = VERTEX_POINT('',#812);
#812 = CARTESIAN_POINT('',(151.7,52.,10.));
#813 = CIRCLE('',#814,1.7);
#814 = AXIS2_PLACEMENT_3D('',#815,#816,#817);
#815 = CARTESIAN_POINT('',(150.,52.,10.));
#816 = DIRECTION('',(0.,4.4E-16,1.));
#817 = DIRECTION('',(1.,0.,-0.));
#818 = PLANE('',#819);
#819 = AXIS2_PLACEMENT_3D('',#820,#821,#822);
#820 = CARTESIAN_POINT('',(118.55041946788,47.407482253282,10.));
#821 = DIRECTION('',(0.,-2.2E-16,-1.));
#822 = DIRECTION('',(0.,1.,-2.2E-16));
#823 = ADVANCED_FACE('',(#824),#843,.F.);
#824 = FACE_BOUND('',#825,.F.);
#825 = EDGE_LOOP('',(#826,#835,#841,#842));
#826 = ORIENTED_EDGE('',*,*,#827,.F.);
#827 = EDGE_CURVE('',#828,#828,#830,.T.);
#828 = VERTEX_POINT('',#829);
#829 = CARTESIAN_POINT('',(131.7,10.,15.));
#830 = CIRCLE('',#831,1.7);
#831 = AXIS2_PLACEMENT_3D('',#832,#833,#834);
#832 = CARTESIAN_POINT('',(130.,10.,15.));
#833 = DIRECTION('',(-0.,4.4E-16,1.));
#834 = DIRECTION('',(1.,0.,0.));
#835 = ORIENTED_EDGE('',*,*,#836,.T.);
#836 = EDGE_CURVE('',#828,#237,#837,.T.);
#837 = LINE('',#838,#839);
#838 = CARTESIAN_POINT('',(131.7,10.,20.));
#839 = VECTOR('',#840,1.);
#840 = DIRECTION('',(0.,-4.4E-16,-1.));
#841 = ORIENTED_EDGE('',*,*,#236,.T.);
#842 = ORIENTED_EDGE('',*,*,#836,.F.);
#843 = CYLINDRICAL_SURFACE('',#844,1.7);
#844 = AXIS2_PLACEMENT_3D('',#845,#846,#847);
#845 = CARTESIAN_POINT('',(130.,10.,20.));
#846 = DIRECTION('',(0.,4.4E-16,1.));
#847 = DIRECTION('',(1.,0.,0.));
#848 = ADVANCED_FACE('',(#849),#868,.F.);
#849 = FACE_BOUND('',#850,.F.);
#850 = EDGE_LOOP('',(#851,#860,#866,#867));
#851 = ORIENTED_EDGE('',*,*,#852,.F.);
#852 = EDGE_CURVE('',#853,#853,#855,.T.);
#853 = VERTEX_POINT('',#854);
#854 = CARTESIAN_POINT('',(151.7,10.,15.));
#855 = CIRCLE('',#856,1.7);
#856 = AXIS2_PLACEMENT_3D('',#857,#858,#859);
#857 = CARTESIAN_POINT('',(150.,10.,15.));
#858 = DIRECTION('',(-0.,4.4E-16,1.));
#859 = DIRECTION('',(1.,0.,0.));
#860 = ORIENTED_EDGE('',*,*,#861,.T.);
#861 = EDGE_CURVE('',#853,#248,#862,.T.);
#862 = LINE('',#863,#864);
#863 = CARTESIAN_POINT('',(151.7,10.,20.));
#864 = VECTOR('',#865,1.);
#865 = DIRECTION('',(0.,-4.4E-16,-1.));
#866 = ORIENTED_EDGE('',*,*,#247,.T.);
#867 = ORIENTED_EDGE('',*,*,#861,.F.);
#868 = CYLINDRICAL_SURFACE('',#869,1.7);
#869 = AXIS2_PLACEMENT_3D('',#870,#871,#872);
#870 = CARTESIAN_POINT('',(150.,10.,20.));
#871 = DIRECTION('',(0.,4.4E-16,1.));
#872 = DIRECTION('',(1.,0.,0.));
#873 = ADVANCED_FACE('',(#874),#892,.F.);
#874 = FACE_BOUND('',#875,.T.);
#875 = EDGE_LOOP('',(#876,#877,#885,#891));
#876 = ORIENTED_EDGE('',*,*,#782,.T.);
#877 = ORIENTED_EDGE('',*,*,#878,.T.);
#878 = EDGE_CURVE('',#783,#879,#881,.T.);
#879 = VERTEX_POINT('',#880);
#880 = CARTESIAN_POINT('',(160.,62.,20.));
#881 = LINE('',#882,#883);
#882 = CARTESIAN_POINT('',(160.,62.,-2.842E-14));
#883 = VECTOR('',#884,1.);
#884 = DIRECTION('',(0.,4.4E-16,1.));
#885 = ORIENTED_EDGE('',*,*,#886,.T.);
#886 = EDGE_CURVE('',#879,#267,#887,.T.);
#887 = LINE('',#888,#889);
#888 = CARTESIAN_POINT('',(160.,62.,20.));
#889 = VECTOR('',#890,1.);
#890 = DIRECTION('',(0.,-1.,0.));
#891 = ORIENTED_EDGE('',*,*,#274,.F.);
#892 = PLANE('',#893);
#893 = AXIS2_PLACEMENT_3D('',#894,#895,#896);
#894 = CARTESIAN_POINT('',(160.,62.,-2.842E-14));
#895 = DIRECTION('',(-1.,-0.,0.));
#896 = DIRECTION('',(0.,1.,-4.4E-16));
#897 = ADVANCED_FACE('',(#898,#916,#927,#963,#974),#985,.F.);
#898 = FACE_BOUND('',#899,.T.);
#899 = EDGE_LOOP('',(#900,#908,#914,#915));
#900 = ORIENTED_EDGE('',*,*,#901,.F.);
#901 = EDGE_CURVE('',#902,#879,#904,.T.);
#902 = VERTEX_POINT('',#903);
#903 = CARTESIAN_POINT('',(0.,62.,20.));
#904 = LINE('',#905,#906);
#905 = CARTESIAN_POINT('',(0.,62.,20.));
#906 = VECTOR('',#907,1.);
#907 = DIRECTION('',(1.,0.,0.));
#908 = ORIENTED_EDGE('',*,*,#909,.F.);
#909 = EDGE_CURVE('',#290,#902,#910,.T.);
#910 = LINE('',#911,#912);
#911 = CARTESIAN_POINT('',(0.,31.,20.));
#912 = VECTOR('',#913,1.);
#913 = DIRECTION('',(0.,1.,0.));
#914 = ORIENTED_EDGE('',*,*,#297,.F.);
#915 = ORIENTED_EDGE('',*,*,#886,.F.);
#916 = FACE_BOUND('',#917,.T.);
#917 = EDGE_LOOP('',(#918));
#918 = ORIENTED_EDGE('',*,*,#919,.T.);
#919 = EDGE_CURVE('',#920,#920,#922,.T.);
#920 = VERTEX_POINT('',#921);
#921 = CARTESIAN_POINT('',(12.75,52.,20.));
#922 = CIRCLE('',#923,2.75);
#923 = AXIS2_PLACEMENT_3D('',#924,#925,#926);
#924 = CARTESIAN_POINT('',(10.,52.,20.));
#925 = DIRECTION('',(0.,0.,-1.));
#926 = DIRECTION('',(1.,0.,0.));
#927 = FACE_BOUND('',#928,.T.);
#928 = EDGE_LOOP('',(#929,#939,#948,#956));
#929 = ORIENTED_EDGE('',*,*,#930,.T.);
#930 = EDGE_CURVE('',#931,#933,#935,.T.);
#931 = VERTEX_POINT('',#932);
#932 = CARTESIAN_POINT('',(95.,45.5,20.));
#933 = VERTEX_POINT('',#934);
#934 = CARTESIAN_POINT('',(65.,45.5,20.));
#935 = LINE('',#936,#937);
#936 = CARTESIAN_POINT('',(95.,45.5,20.));
#937 = VECTOR('',#938,1.);
#938 = DIRECTION('',(-1.,0.,0.));
#939 = ORIENTED_EDGE('',*,*,#940,.T.);
#940 = EDGE_CURVE('',#933,#941,#943,.T.);
#941 = VERTEX_POINT('',#942);
#942 = CARTESIAN_POINT('',(65.,58.5,20.));
#943 = CIRCLE('',#944,6.5);
#944 = AXIS2_PLACEMENT_3D('',#945,#946,#947);
#945 = CARTESIAN_POINT('',(65.,52.,20.));
#946 = DIRECTION('',(0.,0.,-1.));
#947 = DIRECTION('',(1.,0.,0.));
#948 = ORIENTED_EDGE('',*,*,#949,.T.);
#949 = EDGE_CURVE('',#941,#950,#952,.T.);
#950 = VERTEX_POINT('',#951);
#951 = CARTESIAN_POINT('',(95.,58.5,20.));
#952 = LINE('',#953,#954);
#953 = CARTESIAN_POINT('',(65.,58.5,20.));
#954 = VECTOR('',#955,1.);
#955 = DIRECTION('',(1.,0.,0.));
#956 = ORIENTED_EDGE('',*,*,#957,.T.);
#957 = EDGE_CURVE('',#950,#931,#958,.T.);
#958 = CIRCLE('',#959,6.5);
#959 = AXIS2_PLACEMENT_3D('',#960,#961,#962);
#960 = CARTESIAN_POINT('',(95.,52.,20.));
#961 = DIRECTION('',(0.,0.,-1.));
#962 = DIRECTION('',(1.,0.,0.));
#963 = FACE_BOUND('',#964,.T.);
#964 = EDGE_LOOP('',(#965));
#965 = ORIENTED_EDGE('',*,*,#966,.T.);
#966 = EDGE_CURVE('',#967,#967,#969,.T.);
#967 = VERTEX_POINT('',#968);
#968 = CARTESIAN_POINT('',(133.5,52.,20.));
#969 = CIRCLE('',#970,3.5);
#970 = AXIS2_PLACEMENT_3D('',#971,#972,#973);
#971 = CARTESIAN_POINT('',(130.,52.,20.));
#972 = DIRECTION('',(0.,0.,-1.));
#973 = DIRECTION('',(1.,0.,0.));
#974 = FACE_BOUND('',#975,.T.);
#975 = EDGE_LOOP('',(#976));
#976 = ORIENTED_EDGE('',*,*,#977,.T.);
#977 = EDGE_CURVE('',#978,#978,#980,.T.);
#978 = VERTEX_POINT('',#979);
#979 = CARTESIAN_POINT('',(153.5,52.,20.));
#980 = CIRCLE('',#981,3.5);
#981 = AXIS2_PLACEMENT_3D('',#982,#983,#984);
#982 = CARTESIAN_POINT('',(150.,52.,20.));
#983 = DIRECTION('',(0.,0.,-1.));
#984 = DIRECTION('',(1.,0.,0.));
#985 = PLANE('',#986);
#986 = AXIS2_PLACEMENT_3D('',#987,#988,#989);
#987 = CARTESIAN_POINT('',(80.,46.5,20.));
#988 = DIRECTION('',(0.,-2.2E-16,-1.));
#989 = DIRECTION('',(0.,1.,-2.2E-16));
#990 = ADVANCED_FACE('',(#991),#1010,.F.);
#991 = FACE_BOUND('',#992,.F.);
#992 = EDGE_LOOP('',(#993,#1001,#1002,#1003));
#993 = ORIENTED_EDGE('',*,*,#994,.F.);
#994 = EDGE_CURVE('',#307,#995,#997,.T.);
#995 = VERTEX_POINT('',#996);
#996 = CARTESIAN_POINT('',(12.75,10.,10.));
#997 = LINE('',#998,#999);
#998 = CARTESIAN_POINT('',(12.75,10.,20.));
#999 = VECTOR('',#1000,1.);
#1000 = DIRECTION('',(0.,-4.4E-16,-1.));
#1001 = ORIENTED_EDGE('',*,*,#306,.F.);
#1002 = ORIENTED_EDGE('',*,*,#994,.T.);
#1003 = ORIENTED_EDGE('',*,*,#1004,.T.);
#1004 = EDGE_CURVE('',#995,#995,#1005,.T.);
#1005 = CIRCLE('',#1006,2.75);
#1006 = AXIS2_PLACEMENT_3D('',#1007,#1008,#1009);
#1007 = CARTESIAN_POINT('',(10.,10.,10.));
#1008 = DIRECTION('',(-0.,4.4E-16,1.));
#1009 = DIRECTION('',(1.,0.,0.));
#1010 = CYLINDRICAL_SURFACE('',#1011,2.75);
#1011 = AXIS2_PLACEMENT_3D('',#1012,#1013,#1014);
#1012 = CARTESIAN_POINT('',(10.,10.,20.));
#1013 = DIRECTION('',(0.,4.4E-16,1.));
#1014 = DIRECTION('',(1.,0.,0.));
#1015 = ADVANCED_FACE('',(#1016),#1041,.F.);
#1016 = FACE_BOUND('',#1017,.F.);
#1017 = EDGE_LOOP('',(#1018,#1026,#1034,#1040));
#1018 = ORIENTED_EDGE('',*,*,#1019,.T.);
#1019 = EDGE_CURVE('',#318,#1020,#1022,.T.);
#1020 = VERTEX_POINT('',#1021);
#1021 = CARTESIAN_POINT('',(95.,16.5,10.));
#1022 = LINE('',#1023,#1024);
#1023 = CARTESIAN_POINT('',(95.,16.5,20.));
#1024 = VECTOR('',#1025,1.);
#1025 = DIRECTION('',(0.,-4.4E-16,-1.));
#1026 = ORIENTED_EDGE('',*,*,#1027,.T.);
#1027 = EDGE_CURVE('',#1020,#1028,#1030,.T.);
#1028 = VERTEX_POINT('',#1029);
#1029 = CARTESIAN_POINT('',(65.,16.5,10.));
#1030 = LINE('',#1031,#1032);
#1031 = CARTESIAN_POINT('',(95.,16.5,10.));
#1032 = VECTOR('',#1033,1.);
#1033 = DIRECTION('',(-1.,0.,0.));
#1034 = ORIENTED_EDGE('',*,*,#1035,.F.);
#1035 = EDGE_CURVE('',#320,#1028,#1036,.T.);
#1036 = LINE('',#1037,#1038);
#1037 = CARTESIAN_POINT('',(65.,16.5,20.));
#1038 = VECTOR('',#1039,1.);
#1039 = DIRECTION('',(0.,-4.4E-16,-1.));
#1040 = ORIENTED_EDGE('',*,*,#317,.F.);
#1041 = PLANE('',#1042);
#1042 = AXIS2_PLACEMENT_3D('',#1043,#1044,#1045);
#1043 = CARTESIAN_POINT('',(95.,16.5,20.));
#1044 = DIRECTION('',(0.,1.,-4.4E-16));
#1045 = DIRECTION('',(-1.,0.,0.));
#1046 = ADVANCED_FACE('',(#1047),#1066,.F.);
#1047 = FACE_BOUND('',#1048,.F.);
#1048 = EDGE_LOOP('',(#1049,#1057,#1064,#1065));
#1049 = ORIENTED_EDGE('',*,*,#1050,.T.);
#1050 = EDGE_CURVE('',#337,#1051,#1053,.T.);
#1051 = VERTEX_POINT('',#1052);
#1052 = CARTESIAN_POINT('',(95.,3.5,10.));
#1053 = LINE('',#1054,#1055);
#1054 = CARTESIAN_POINT('',(95.,3.5,20.));
#1055 = VECTOR('',#1056,1.);
#1056 = DIRECTION('',(0.,-4.4E-16,-1.));
#1057 = ORIENTED_EDGE('',*,*,#1058,.T.);
#1058 = EDGE_CURVE('',#1051,#1020,#1059,.T.);
#1059 = CIRCLE('',#1060,6.5);
#1060 = AXIS2_PLACEMENT_3D('',#1061,#1062,#1063);
#1061 = CARTESIAN_POINT('',(95.,10.,10.));
#1062 = DIRECTION('',(0.,0.,1.));
#1063 = DIRECTION('',(1.,0.,0.));
#1064 = ORIENTED_EDGE('',*,*,#1019,.F.);
#1065 = ORIENTED_EDGE('',*,*,#344,.F.);
#1066 = CYLINDRICAL_SURFACE('',#1067,6.5);
#1067 = AXIS2_PLACEMENT_3D('',#1068,#1069,#1070);
#1068 = CARTESIAN_POINT('',(95.,10.,20.));
#1069 = DIRECTION('',(0.,4.4E-16,1.));
#1070 = DIRECTION('',(1.,0.,0.));
#1071 = ADVANCED_FACE('',(#1072),#1090,.F.);
#1072 = FACE_BOUND('',#1073,.F.);
#1073 = EDGE_LOOP('',(#1074,#1082,#1088,#1089));
#1074 = ORIENTED_EDGE('',*,*,#1075,.T.);
#1075 = EDGE_CURVE('',#328,#1076,#1078,.T.);
#1076 = VERTEX_POINT('',#1077);
#1077 = CARTESIAN_POINT('',(65.,3.5,10.));
#1078 = LINE('',#1079,#1080);
#1079 = CARTESIAN_POINT('',(65.,3.5,20.));
#1080 = VECTOR('',#1081,1.);
#1081 = DIRECTION('',(0.,-4.4E-16,-1.));
#1082 = ORIENTED_EDGE('',*,*,#1083,.T.);
#1083 = EDGE_CURVE('',#1076,#1051,#1084,.T.);
#1084 = LINE('',#1085,#1086);
#1085 = CARTESIAN_POINT('',(65.,3.5,10.));
#1086 = VECTOR('',#1087,1.);
#1087 = DIRECTION('',(1.,0.,0.));
#1088 = ORIENTED_EDGE('',*,*,#1050,.F.);
#1089 = ORIENTED_EDGE('',*,*,#336,.F.);
#1090 = PLANE('',#1091);
#1091 = AXIS2_PLACEMENT_3D('',#1092,#1093,#1094);
#1092 = CARTESIAN_POINT('',(65.,3.5,20.));
#1093 = DIRECTION('',(0.,-1.,4.4E-16));
#1094 = DIRECTION('',(1.,0.,0.));
#1095 = ADVANCED_FACE('',(#1096),#1108,.F.);
#1096 = FACE_BOUND('',#1097,.F.);
#1097 = EDGE_LOOP('',(#1098,#1099,#1106,#1107));
#1098 = ORIENTED_EDGE('',*,*,#1035,.T.);
#1099 = ORIENTED_EDGE('',*,*,#1100,.T.);
#1100 = EDGE_CURVE('',#1028,#1076,#1101,.T.);
#1101 = CIRCLE('',#1102,6.5);
#1102 = AXIS2_PLACEMENT_3D('',#1103,#1104,#1105);
#1103 = CARTESIAN_POINT('',(65.,10.,10.));
#1104 = DIRECTION('',(0.,0.,1.));
#1105 = DIRECTION('',(1.,0.,0.));
#1106 = ORIENTED_EDGE('',*,*,#1075,.F.);
#1107 = ORIENTED_EDGE('',*,*,#327,.F.);
#1108 = CYLINDRICAL_SURFACE('',#1109,6.5);
#1109 = AXIS2_PLACEMENT_3D('',#1110,#1111,#1112);
#1110 = CARTESIAN_POINT('',(65.,10.,20.));
#1111 = DIRECTION('',(0.,4.4E-16,1.));
#1112 = DIRECTION('',(1.,0.,0.));
#1113 = ADVANCED_FACE('',(#1114),#1133,.F.);
#1114 = FACE_BOUND('',#1115,.F.);
#1115 = EDGE_LOOP('',(#1116,#1124,#1131,#1132));
#1116 = ORIENTED_EDGE('',*,*,#1117,.T.);
#1117 = EDGE_CURVE('',#354,#1118,#1120,.T.);
#1118 = VERTEX_POINT('',#1119);
#1119 = CARTESIAN_POINT('',(133.5,10.,15.));
#1120 = LINE('',#1121,#1122);
#1121 = CARTESIAN_POINT('',(133.5,10.,20.));
#1122 = VECTOR('',#1123,1.);
#1123 = DIRECTION('',(0.,-4.4E-16,-1.));
#1124 = ORIENTED_EDGE('',*,*,#1125,.T.);
#1125 = EDGE_CURVE('',#1118,#1118,#1126,.T.);
#1126 = CIRCLE('',#1127,3.5);
#1127 = AXIS2_PLACEMENT_3D('',#1128,#1129,#1130);
#1128 = CARTESIAN_POINT('',(130.,10.,15.));
#1129 = DIRECTION('',(0.,0.,1.));
#1130 = DIRECTION('',(1.,0.,0.));
#1131 = ORIENTED_EDGE('',*,*,#1117,.F.);
#1132 = ORIENTED_EDGE('',*,*,#353,.F.);
#1133 = CYLINDRICAL_SURFACE('',#1134,3.5);
#1134 = AXIS2_PLACEMENT_3D('',#1135,#1136,#1137);
#1135 = CARTESIAN_POINT('',(130.,10.,20.));
#1136 = DIRECTION('',(0.,4.4E-16,1.));
#1137 = DIRECTION('',(1.,0.,0.));
#1138 = ADVANCED_FACE('',(#1139),#1158,.F.);
#1139 = FACE_BOUND('',#1140,.F.);
#1140 = EDGE_LOOP('',(#1141,#1149,#1156,#1157));
#1141 = ORIENTED_EDGE('',*,*,#1142,.T.);
#1142 = EDGE_CURVE('',#365,#1143,#1145,.T.);
#1143 = VERTEX_POINT('',#1144);
#1144 = CARTESIAN_POINT('',(153.5,10.,15.));
#1145 = LINE('',#1146,#1147);
#1146 = CARTESIAN_POINT('',(153.5,10.,20.));
#1147 = VECTOR('',#1148,1.);
#1148 = DIRECTION('',(0.,-4.4E-16,-1.));
#1149 = ORIENTED_EDGE('',*,*,#1150,.T.);
#1150 = EDGE_CURVE('',#1143,#1143,#1151,.T.);
#1151 = CIRCLE('',#1152,3.5);
#1152 = AXIS2_PLACEMENT_3D('',#1153,#1154,#1155);
#1153 = CARTESIAN_POINT('',(150.,10.,15.));
#1154 = DIRECTION('',(0.,0.,1.));
#1155 = DIRECTION('',(1.,0.,0.));
#1156 = ORIENTED_EDGE('',*,*,#1142,.F.);
#1157 = ORIENTED_EDGE('',*,*,#364,.F.);
#1158 = CYLINDRICAL_SURFACE('',#1159,3.5);
#1159 = AXIS2_PLACEMENT_3D('',#1160,#1161,#1162);
#1160 = CARTESIAN_POINT('',(150.,10.,20.));
#1161 = DIRECTION('',(0.,4.4E-16,1.));
#1162 = DIRECTION('',(1.,0.,0.));
#1163 = ADVANCED_FACE('',(#1164),#1175,.F.);
#1164 = FACE_BOUND('',#1165,.T.);
#1165 = EDGE_LOOP('',(#1166,#1167,#1168,#1174));
#1166 = ORIENTED_EDGE('',*,*,#381,.T.);
#1167 = ORIENTED_EDGE('',*,*,#909,.T.);
#1168 = ORIENTED_EDGE('',*,*,#1169,.F.);
#1169 = EDGE_CURVE('',#399,#902,#1170,.T.);
#1170 = LINE('',#1171,#1172);
#1171 = CARTESIAN_POINT('',(0.,62.,-2.842E-14));
#1172 = VECTOR('',#1173,1.);
#1173 = DIRECTION('',(0.,4.4E-16,1.));
#1174 = ORIENTED_EDGE('',*,*,#408,.F.);
#1175 = PLANE('',#1176);
#1176 = AXIS2_PLACEMENT_3D('',#1177,#1178,#1179);
#1177 = CARTESIAN_POINT('',(0.,31.,-1.465E-14));
#1178 = DIRECTION('',(1.,0.,0.));
#1179 = DIRECTION('',(0.,-1.,4.4E-16));
#1180 = ADVANCED_FACE('',(#1181),#1189,.F.);
#1181 = FACE_BOUND('',#1182,.T.);
#1182 = EDGE_LOOP('',(#1183,#1184,#1185,#1186,#1187,#1188));
#1183 = ORIENTED_EDGE('',*,*,#398,.F.);
#1184 = ORIENTED_EDGE('',*,*,#1169,.T.);
#1185 = ORIENTED_EDGE('',*,*,#901,.T.);
#1186 = ORIENTED_EDGE('',*,*,#878,.F.);
#1187 = ORIENTED_EDGE('',*,*,#790,.T.);
#1188 = ORIENTED_EDGE('',*,*,#757,.F.);
#1189 = PLANE('',#1190);
#1190 = AXIS2_PLACEMENT_3D('',#1191,#1192,#1193);
#1191 = CARTESIAN_POINT('',(0.,62.,-2.842E-14));
#1192 = DIRECTION('',(0.,-1.,4.4E-16));
#1193 = DIRECTION('',(-1.,0.,0.));
#1194 = ADVANCED_FACE('',(#1195),#1220,.F.);
#1195 = FACE_BOUND('',#1196,.T.);
#1196 = EDGE_LOOP('',(#1197,#1205,#1213,#1219));
#1197 = ORIENTED_EDGE('',*,*,#1198,.T.);
#1198 = EDGE_CURVE('',#424,#1199,#1201,.T.);
#1199 = VERTEX_POINT('',#1200);
#1200 = CARTESIAN_POINT('',(14.676537180436,52.,10.));
#1201 = LINE('',#1202,#1203);
#1202 = CARTESIAN_POINT('',(14.676537180436,52.,-2.398E-14));
#1203 = VECTOR('',#1204,1.);
#1204 = DIRECTION('',(0.,4.4E-16,1.));
#1205 = ORIENTED_EDGE('',*,*,#1206,.T.);
#1206 = EDGE_CURVE('',#1199,#1207,#1209,.T.);
#1207 = VERTEX_POINT('',#1208);
#1208 = CARTESIAN_POINT('',(12.338268590218,56.05,10.));
#1209 = LINE('',#1210,#1211);
#1210 = CARTESIAN_POINT('',(14.676537180436,52.,10.));
#1211 = VECTOR('',#1212,1.);
#1212 = DIRECTION('',(-0.5,0.866025403784,-0.));
#1213 = ORIENTED_EDGE('',*,*,#1214,.F.);
#1214 = EDGE_CURVE('',#426,#1207,#1215,.T.);
#1215 = LINE('',#1216,#1217);
#1216 = CARTESIAN_POINT('',(12.338268590218,56.05,-2.578E-14));
#1217 = VECTOR('',#1218,1.);
#1218 = DIRECTION('',(0.,4.4E-16,1.));
#1219 = ORIENTED_EDGE('',*,*,#423,.F.);
#1220 = PLANE('',#1221);
#1221 = AXIS2_PLACEMENT_3D('',#1222,#1223,#1224);
#1222 = CARTESIAN_POINT('',(14.676537180436,52.,-2.398E-14));
#1223 = DIRECTION('',(0.866025403784,0.5,-2.2E-16));
#1224 = DIRECTION('',(0.5,-0.866025403784,3.8E-16));
#1225 = ADVANCED_FACE('',(#1226),#1244,.F.);
#1226 = FACE_BOUND('',#1227,.T.);
#1227 = EDGE_LOOP('',(#1228,#1229,#1237,#1243));
#1228 = ORIENTED_EDGE('',*,*,#1214,.T.);
#1229 = ORIENTED_EDGE('',*,*,#1230,.T.);
#1230 = EDGE_CURVE('',#1207,#1231,#1233,.T.);
#1231 = VERTEX_POINT('',#1232);
#1232 = CARTESIAN_POINT('',(7.661731409782,56.05,10.));
#1233 = LINE('',#1234,#1235);
#1234 = CARTESIAN_POINT('',(12.338268590218,56.05,10.));
#1235 = VECTOR('',#1236,1.);
#1236 = DIRECTION('',(-1.,0.,-0.));
#1237 = ORIENTED_EDGE('',*,*,#1238,.F.);
#1238 = EDGE_CURVE('',#458,#1231,#1239,.T.);
#1239 = LINE('',#1240,#1241);
#1240 = CARTESIAN_POINT('',(7.661731409782,56.05,-2.578E-14));
#1241 = VECTOR('',#1242,1.);
#1242 = DIRECTION('',(0.,4.4E-16,1.));
#1243 = ORIENTED_EDGE('',*,*,#465,.F.);
#1244 = PLANE('',#1245);
#1245 = AXIS2_PLACEMENT_3D('',#1246,#1247,#1248);
#1246 = CARTESIAN_POINT('',(12.338268590218,56.05,-2.578E-14));
#1247 = DIRECTION('',(0.,1.,-4.4E-16));
#1248 = DIRECTION('',(1.,0.,0.));
#1249 = ADVANCED_FACE('',(#1250),#1268,.F.);
#1250 = FACE_BOUND('',#1251,.T.);
#1251 = EDGE_LOOP('',(#1252,#1253,#1261,#1267));
#1252 = ORIENTED_EDGE('',*,*,#1238,.T.);
#1253 = ORIENTED_EDGE('',*,*,#1254,.T.);
#1254 = EDGE_CURVE('',#1231,#1255,#1257,.T.);
#1255 = VERTEX_POINT('',#1256);
#1256 = CARTESIAN_POINT('',(5.323462819564,52.,10.));
#1257 = LINE('',#1258,#1259);
#1258 = CARTESIAN_POINT('',(7.661731409782,56.05,10.));
#1259 = VECTOR('',#1260,1.);
#1260 = DIRECTION('',(-0.5,-0.866025403784,0.));
#1261 = ORIENTED_EDGE('',*,*,#1262,.F.);
#1262 = EDGE_CURVE('',#450,#1255,#1263,.T.);
#1263 = LINE('',#1264,#1265);
#1264 = CARTESIAN_POINT('',(5.323462819564,52.,-2.398E-14));
#1265 = VECTOR('',#1266,1.);
#1266 = DIRECTION('',(0.,4.4E-16,1.));
#1267 = ORIENTED_EDGE('',*,*,#457,.F.);
#1268 = PLANE('',#1269);
#1269 = AXIS2_PLACEMENT_3D('',#1270,#1271,#1272);
#1270 = CARTESIAN_POINT('',(7.661731409782,56.05,-2.578E-14));
#1271 = DIRECTION('',(-0.866025403784,0.5,-2.2E-16));
#1272 = DIRECTION('',(0.5,0.866025403784,-3.8E-16));
#1273 = ADVANCED_FACE('',(#1274),#1292,.F.);
#1274 = FACE_BOUND('',#1275,.T.);
#1275 = EDGE_LOOP('',(#1276,#1277,#1285,#1291));
#1276 = ORIENTED_EDGE('',*,*,#1262,.T.);
#1277 = ORIENTED_EDGE('',*,*,#1278,.T.);
#1278 = EDGE_CURVE('',#1255,#1279,#1281,.T.);
#1279 = VERTEX_POINT('',#1280);
#1280 = CARTESIAN_POINT('',(7.661731409782,47.95,10.));
#1281 = LINE('',#1282,#1283);
#1282 = CARTESIAN_POINT('',(5.323462819564,52.,10.));
#1283 = VECTOR('',#1284,1.);
#1284 = DIRECTION('',(0.5,-0.866025403784,0.));
#1285 = ORIENTED_EDGE('',*,*,#1286,.F.);
#1286 = EDGE_CURVE('',#442,#1279,#1287,.T.);
#1287 = LINE('',#1288,#1289);
#1288 = CARTESIAN_POINT('',(7.661731409782,47.95,-2.218E-14));
#1289 = VECTOR('',#1290,1.);
#1290 = DIRECTION('',(0.,4.4E-16,1.));
#1291 = ORIENTED_EDGE('',*,*,#449,.F.);
#1292 = PLANE('',#1293);
#1293 = AXIS2_PLACEMENT_3D('',#1294,#1295,#1296);
#1294 = CARTESIAN_POINT('',(5.323462819564,52.,-2.398E-14));
#1295 = DIRECTION('',(-0.866025403784,-0.5,2.2E-16));
#1296 = DIRECTION('',(-0.5,0.866025403784,-3.8E-16));
#1297 = ADVANCED_FACE('',(#1298),#1316,.F.);
#1298 = FACE_BOUND('',#1299,.T.);
#1299 = EDGE_LOOP('',(#1300,#1301,#1309,#1315));
#1300 = ORIENTED_EDGE('',*,*,#1286,.T.);
#1301 = ORIENTED_EDGE('',*,*,#1302,.T.);
#1302 = EDGE_CURVE('',#1279,#1303,#1305,.T.);
#1303 = VERTEX_POINT('',#1304);
#1304 = CARTESIAN_POINT('',(12.338268590218,47.95,10.));
#1305 = LINE('',#1306,#1307);
#1306 = CARTESIAN_POINT('',(7.661731409782,47.95,10.));
#1307 = VECTOR('',#1308,1.);
#1308 = DIRECTION('',(1.,0.,0.));
#1309 = ORIENTED_EDGE('',*,*,#1310,.F.);
#1310 = EDGE_CURVE('',#434,#1303,#1311,.T.);
#1311 = LINE('',#1312,#1313);
#1312 = CARTESIAN_POINT('',(12.338268590218,47.95,-2.218E-14));
#1313 = VECTOR('',#1314,1.);
#1314 = DIRECTION('',(0.,4.4E-16,1.));
#1315 = ORIENTED_EDGE('',*,*,#441,.F.);
#1316 = PLANE('',#1317);
#1317 = AXIS2_PLACEMENT_3D('',#1318,#1319,#1320);
#1318 = CARTESIAN_POINT('',(7.661731409782,47.95,-2.218E-14));
#1319 = DIRECTION('',(0.,-1.,4.4E-16));
#1320 = DIRECTION('',(-1.,0.,0.));
#1321 = ADVANCED_FACE('',(#1322),#1333,.F.);
#1322 = FACE_BOUND('',#1323,.T.);
#1323 = EDGE_LOOP('',(#1324,#1325,#1331,#1332));
#1324 = ORIENTED_EDGE('',*,*,#1310,.T.);
#1325 = ORIENTED_EDGE('',*,*,#1326,.T.);
#1326 = EDGE_CURVE('',#1303,#1199,#1327,.T.);
#1327 = LINE('',#1328,#1329);
#1328 = CARTESIAN_POINT('',(12.338268590218,47.95,10.));
#1329 = VECTOR('',#1330,1.);
#1330 = DIRECTION('',(0.5,0.866025403784,0.));
#1331 = ORIENTED_EDGE('',*,*,#1198,.F.);
#1332 = ORIENTED_EDGE('',*,*,#433,.F.);
#1333 = PLANE('',#1334);
#1334 = AXIS2_PLACEMENT_3D('',#1335,#1336,#1337);
#1335 = CARTESIAN_POINT('',(12.338268590218,47.95,-2.218E-14));
#1336 = DIRECTION('',(0.866025403784,-0.5,2.2E-16));
#1337 = DIRECTION('',(-0.5,-0.866025403784,3.8E-16));
#1338 = ADVANCED_FACE('',(#1339),#1365,.F.);
#1339 = FACE_BOUND('',#1340,.T.);
#1340 = EDGE_LOOP('',(#1341,#1352,#1358,#1359));
#1341 = ORIENTED_EDGE('',*,*,#1342,.T.);
#1342 = EDGE_CURVE('',#1343,#1345,#1347,.T.);
#1343 = VERTEX_POINT('',#1344);
#1344 = CARTESIAN_POINT('',(65.,54.749999999999,10.));
#1345 = VERTEX_POINT('',#1346);
#1346 = CARTESIAN_POINT('',(65.,49.250000000001,10.));
#1347 = CIRCLE('',#1348,2.749999999999);
#1348 = AXIS2_PLACEMENT_3D('',#1349,#1350,#1351);
#1349 = CARTESIAN_POINT('',(65.,52.,10.));
#1350 = DIRECTION('',(0.,4.4E-16,1.));
#1351 = DIRECTION('',(1.,0.,-0.));
#1352 = ORIENTED_EDGE('',*,*,#1353,.T.);
#1353 = EDGE_CURVE('',#1345,#476,#1354,.T.);
#1354 = LINE('',#1355,#1356);
#1355 = CARTESIAN_POINT('',(65.,49.250000000001,20.));
#1356 = VECTOR('',#1357,1.);
#1357 = DIRECTION('',(0.,-4.4E-16,-1.));
#1358 = ORIENTED_EDGE('',*,*,#473,.F.);
#1359 = ORIENTED_EDGE('',*,*,#1360,.F.);
#1360 = EDGE_CURVE('',#1343,#474,#1361,.T.);
#1361 = LINE('',#1362,#1363);
#1362 = CARTESIAN_POINT('',(65.,54.749999999999,20.));
#1363 = VECTOR('',#1364,1.);
#1364 = DIRECTION('',(0.,-4.4E-16,-1.));
#1365 = CYLINDRICAL_SURFACE('',#1366,2.749999999999);
#1366 = AXIS2_PLACEMENT_3D('',#1367,#1368,#1369);
#1367 = CARTESIAN_POINT('',(65.,52.,20.));
#1368 = DIRECTION('',(0.,4.4E-16,1.));
#1369 = DIRECTION('',(1.,0.,0.));
#1370 = ADVANCED_FACE('',(#1371),#1389,.F.);
#1371 = FACE_BOUND('',#1372,.T.);
#1372 = EDGE_LOOP('',(#1373,#1381,#1382,#1383));
#1373 = ORIENTED_EDGE('',*,*,#1374,.T.);
#1374 = EDGE_CURVE('',#1375,#1343,#1377,.T.);
#1375 = VERTEX_POINT('',#1376);
#1376 = CARTESIAN_POINT('',(95.,54.749999999999,10.));
#1377 = LINE('',#1378,#1379);
#1378 = CARTESIAN_POINT('',(72.5,54.749999999999,10.));
#1379 = VECTOR('',#1380,1.);
#1380 = DIRECTION('',(-1.,-0.,-0.));
#1381 = ORIENTED_EDGE('',*,*,#1360,.T.);
#1382 = ORIENTED_EDGE('',*,*,#484,.T.);
#1383 = ORIENTED_EDGE('',*,*,#1384,.F.);
#1384 = EDGE_CURVE('',#1375,#485,#1385,.T.);
#1385 = LINE('',#1386,#1387);
#1386 = CARTESIAN_POINT('',(95.,54.749999999999,20.));
#1387 = VECTOR('',#1388,1.);
#1388 = DIRECTION('',(0.,-4.4E-16,-1.));
#1389 = PLANE('',#1390);
#1390 = AXIS2_PLACEMENT_3D('',#1391,#1392,#1393);
#1391 = CARTESIAN_POINT('',(65.,54.749999999999,20.));
#1392 = DIRECTION('',(0.,1.,-4.4E-16));
#1393 = DIRECTION('',(-1.,-0.,0.));
#1394 = ADVANCED_FACE('',(#1395),#1413,.F.);
#1395 = FACE_BOUND('',#1396,.T.);
#1396 = EDGE_LOOP('',(#1397,#1405,#1411,#1412));
#1397 = ORIENTED_EDGE('',*,*,#1398,.T.);
#1398 = EDGE_CURVE('',#1345,#1399,#1401,.T.);
#1399 = VERTEX_POINT('',#1400);
#1400 = CARTESIAN_POINT('',(94.999999999999,49.250000000001,10.));
#1401 = LINE('',#1402,#1403);
#1402 = CARTESIAN_POINT('',(87.5,49.250000000001,10.));
#1403 = VECTOR('',#1404,1.);
#1404 = DIRECTION('',(1.,-3.32E-15,0.));
#1405 = ORIENTED_EDGE('',*,*,#1406,.T.);
#1406 = EDGE_CURVE('',#1399,#493,#1407,.T.);
#1407 = LINE('',#1408,#1409);
#1408 = CARTESIAN_POINT('',(94.999999999999,49.250000000001,20.));
#1409 = VECTOR('',#1410,1.);
#1410 = DIRECTION('',(0.,-4.4E-16,-1.));
#1411 = ORIENTED_EDGE('',*,*,#501,.T.);
#1412 = ORIENTED_EDGE('',*,*,#1353,.F.);
#1413 = PLANE('',#1414);
#1414 = AXIS2_PLACEMENT_3D('',#1415,#1416,#1417);
#1415 = CARTESIAN_POINT('',(94.999999999999,49.250000000001,20.));
#1416 = DIRECTION('',(-3.32E-15,-1.,4.4E-16));
#1417 = DIRECTION('',(1.,-3.32E-15,-7.606888252622E-47));
#1418 = ADVANCED_FACE('',(#1419),#1431,.F.);
#1419 = FACE_BOUND('',#1420,.T.);
#1420 = EDGE_LOOP('',(#1421,#1428,#1429,#1430));
#1421 = ORIENTED_EDGE('',*,*,#1422,.T.);
#1422 = EDGE_CURVE('',#1399,#1375,#1423,.T.);
#1423 = CIRCLE('',#1424,2.749999999999);
#1424 = AXIS2_PLACEMENT_3D('',#1425,#1426,#1427);
#1425 = CARTESIAN_POINT('',(95.,52.,10.));
#1426 = DIRECTION('',(0.,4.4E-16,1.));
#1427 = DIRECTION('',(1.,0.,-0.));
#1428 = ORIENTED_EDGE('',*,*,#1384,.T.);
#1429 = ORIENTED_EDGE('',*,*,#492,.F.);
#1430 = ORIENTED_EDGE('',*,*,#1406,.F.);
#1431 = CYLINDRICAL_SURFACE('',#1432,2.749999999999);
#1432 = AXIS2_PLACEMENT_3D('',#1433,#1434,#1435);
#1433 = CARTESIAN_POINT('',(95.,52.,20.));
#1434 = DIRECTION('',(0.,4.4E-16,1.));
#1435 = DIRECTION('',(1.,0.,0.));
#1436 = ADVANCED_FACE('',(#1437,#1445),#1448,.T.);
#1437 = FACE_BOUND('',#1438,.T.);
#1438 = EDGE_LOOP('',(#1439,#1440,#1441,#1442,#1443,#1444));
#1439 = ORIENTED_EDGE('',*,*,#523,.T.);
#1440 = ORIENTED_EDGE('',*,*,#547,.T.);
#1441 = ORIENTED_EDGE('',*,*,#571,.T.);
#1442 = ORIENTED_EDGE('',*,*,#595,.T.);
#1443 = ORIENTED_EDGE('',*,*,#619,.T.);
#1444 = ORIENTED_EDGE('',*,*,#643,.T.);
#1445 = FACE_BOUND('',#1446,.T.);
#1446 = EDGE_LOOP('',(#1447));
#1447 = ORIENTED_EDGE('',*,*,#1004,.T.);
#1448 = PLANE('',#1449);
#1449 = AXIS2_PLACEMENT_3D('',#1450,#1451,#1452);
#1450 = CARTESIAN_POINT('',(118.55041946788,14.592517746718,10.));
#1451 = DIRECTION('',(0.,-2.2E-16,-1.));
#1452 = DIRECTION('',(0.,1.,-2.2E-16));
#1453 = ADVANCED_FACE('',(#1454,#1460),#1466,.F.);
#1454 = FACE_BOUND('',#1455,.F.);
#1455 = EDGE_LOOP('',(#1456,#1457,#1458,#1459));
#1456 = ORIENTED_EDGE('',*,*,#1100,.F.);
#1457 = ORIENTED_EDGE('',*,*,#1027,.F.);
#1458 = ORIENTED_EDGE('',*,*,#1058,.F.);
#1459 = ORIENTED_EDGE('',*,*,#1083,.F.);
#1460 = FACE_BOUND('',#1461,.F.);
#1461 = EDGE_LOOP('',(#1462,#1463,#1464,#1465));
#1462 = ORIENTED_EDGE('',*,*,#715,.T.);
#1463 = ORIENTED_EDGE('',*,*,#659,.T.);
#1464 = ORIENTED_EDGE('',*,*,#690,.T.);
#1465 = ORIENTED_EDGE('',*,*,#740,.T.);
#1466 = PLANE('',#1467);
#1467 = AXIS2_PLACEMENT_3D('',#1468,#1469,#1470);
#1468 = CARTESIAN_POINT('',(80.,10.,10.));
#1469 = DIRECTION('',(0.,-3.E-16,-1.));
#1470 = DIRECTION('',(0.,1.,-3.E-16));
#1471 = ADVANCED_FACE('',(#1472),#1491,.F.);
#1472 = FACE_BOUND('',#1473,.T.);
#1473 = EDGE_LOOP('',(#1474,#1483,#1489,#1490));
#1474 = ORIENTED_EDGE('',*,*,#1475,.T.);
#1475 = EDGE_CURVE('',#1476,#1476,#1478,.T.);
#1476 = VERTEX_POINT('',#1477);
#1477 = CARTESIAN_POINT('',(131.7,52.,15.));
#1478 = CIRCLE('',#1479,1.7);
#1479 = AXIS2_PLACEMENT_3D('',#1480,#1481,#1482);
#1480 = CARTESIAN_POINT('',(130.,52.,15.));
#1481 = DIRECTION('',(0.,4.4E-16,1.));
#1482 = DIRECTION('',(1.,0.,-0.));
#1483 = ORIENTED_EDGE('',*,*,#1484,.T.);
#1484 = EDGE_CURVE('',#1476,#800,#1485,.T.);
#1485 = LINE('',#1486,#1487);
#1486 = CARTESIAN_POINT('',(131.7,52.,20.));
#1487 = VECTOR('',#1488,1.);
#1488 = DIRECTION('',(0.,-4.4E-16,-1.));
#1489 = ORIENTED_EDGE('',*,*,#799,.F.);
#1490 = ORIENTED_EDGE('',*,*,#1484,.F.);
#1491 = CYLINDRICAL_SURFACE('',#1492,1.7);
#1492 = AXIS2_PLACEMENT_3D('',#1493,#1494,#1495);
#1493 = CARTESIAN_POINT('',(130.,52.,20.));
#1494 = DIRECTION('',(0.,4.4E-16,1.));
#1495 = DIRECTION('',(1.,0.,0.));
#1496 = ADVANCED_FACE('',(#1497),#1516,.F.);
#1497 = FACE_BOUND('',#1498,.T.);
#1498 = EDGE_LOOP('',(#1499,#1508,#1514,#1515));
#1499 = ORIENTED_EDGE('',*,*,#1500,.T.);
#1500 = EDGE_CURVE('',#1501,#1501,#1503,.T.);
#1501 = VERTEX_POINT('',#1502);
#1502 = CARTESIAN_POINT('',(151.7,52.,15.));
#1503 = CIRCLE('',#1504,1.7);
#1504 = AXIS2_PLACEMENT_3D('',#1505,#1506,#1507);
#1505 = CARTESIAN_POINT('',(150.,52.,15.));
#1506 = DIRECTION('',(0.,4.4E-16,1.));
#1507 = DIRECTION('',(1.,0.,-0.));
#1508 = ORIENTED_EDGE('',*,*,#1509,.T.);
#1509 = EDGE_CURVE('',#1501,#811,#1510,.T.);
#1510 = LINE('',#1511,#1512);
#1511 = CARTESIAN_POINT('',(151.7,52.,20.));
#1512 = VECTOR('',#1513,1.);
#1513 = DIRECTION('',(0.,-4.4E-16,-1.));
#1514 = ORIENTED_EDGE('',*,*,#810,.F.);
#1515 = ORIENTED_EDGE('',*,*,#1509,.F.);
#1516 = CYLINDRICAL_SURFACE('',#1517,1.7);
#1517 = AXIS2_PLACEMENT_3D('',#1518,#1519,#1520);
#1518 = CARTESIAN_POINT('',(150.,52.,20.));
#1519 = DIRECTION('',(0.,4.4E-16,1.));
#1520 = DIRECTION('',(1.,0.,0.));
#1521 = ADVANCED_FACE('',(#1522,#1525),#1528,.F.);
#1522 = FACE_BOUND('',#1523,.F.);
#1523 = EDGE_LOOP('',(#1524));
#1524 = ORIENTED_EDGE('',*,*,#1125,.F.);
#1525 = FACE_BOUND('',#1526,.F.);
#1526 = EDGE_LOOP('',(#1527));
#1527 = ORIENTED_EDGE('',*,*,#827,.T.);
#1528 = PLANE('',#1529);
#1529 = AXIS2_PLACEMENT_3D('',#1530,#1531,#1532);
#1530 = CARTESIAN_POINT('',(140.,10.,15.));
#1531 = DIRECTION('',(-2.E-17,-5.9E-16,-1.));
#1532 = DIRECTION('',(0.,1.,-5.9E-16));
#1533 = ADVANCED_FACE('',(#1534,#1537),#1540,.F.);
#1534 = FACE_BOUND('',#1535,.F.);
#1535 = EDGE_LOOP('',(#1536));
#1536 = ORIENTED_EDGE('',*,*,#1150,.F.);
#1537 = FACE_BOUND('',#1538,.F.);
#1538 = EDGE_LOOP('',(#1539));
#1539 = ORIENTED_EDGE('',*,*,#852,.T.);
#1540 = PLANE('',#1541);
#1541 = AXIS2_PLACEMENT_3D('',#1542,#1543,#1544);
#1542 = CARTESIAN_POINT('',(140.,10.,15.));
#1543 = DIRECTION('',(-2.E-17,-5.9E-16,-1.));
#1544 = DIRECTION('',(0.,1.,-5.9E-16));
#1545 = ADVANCED_FACE('',(#1546),#1565,.F.);
#1546 = FACE_BOUND('',#1547,.T.);
#1547 = EDGE_LOOP('',(#1548,#1556,#1557,#1558));
#1548 = ORIENTED_EDGE('',*,*,#1549,.F.);
#1549 = EDGE_CURVE('',#920,#1550,#1552,.T.);
#1550 = VERTEX_POINT('',#1551);
#1551 = CARTESIAN_POINT('',(12.75,52.,10.));
#1552 = LINE('',#1553,#1554);
#1553 = CARTESIAN_POINT('',(12.75,52.,20.));
#1554 = VECTOR('',#1555,1.);
#1555 = DIRECTION('',(0.,-4.4E-16,-1.));
#1556 = ORIENTED_EDGE('',*,*,#919,.F.);
#1557 = ORIENTED_EDGE('',*,*,#1549,.T.);
#1558 = ORIENTED_EDGE('',*,*,#1559,.F.);
#1559 = EDGE_CURVE('',#1550,#1550,#1560,.T.);
#1560 = CIRCLE('',#1561,2.75);
#1561 = AXIS2_PLACEMENT_3D('',#1562,#1563,#1564);
#1562 = CARTESIAN_POINT('',(10.,52.,10.));
#1563 = DIRECTION('',(0.,4.4E-16,1.));
#1564 = DIRECTION('',(1.,0.,-0.));
#1565 = CYLINDRICAL_SURFACE('',#1566,2.75);
#1566 = AXIS2_PLACEMENT_3D('',#1567,#1568,#1569);
#1567 = CARTESIAN_POINT('',(10.,52.,20.));
#1568 = DIRECTION('',(0.,4.4E-16,1.));
#1569 = DIRECTION('',(1.,0.,0.));
#1570 = ADVANCED_FACE('',(#1571),#1596,.F.);
#1571 = FACE_BOUND('',#1572,.T.);
#1572 = EDGE_LOOP('',(#1573,#1581,#1589,#1595));
#1573 = ORIENTED_EDGE('',*,*,#1574,.T.);
#1574 = EDGE_CURVE('',#931,#1575,#1577,.T.);
#1575 = VERTEX_POINT('',#1576);
#1576 = CARTESIAN_POINT('',(95.,45.5,10.));
#1577 = LINE('',#1578,#1579);
#1578 = CARTESIAN_POINT('',(95.,45.5,20.));
#1579 = VECTOR('',#1580,1.);
#1580 = DIRECTION('',(0.,-4.4E-16,-1.));
#1581 = ORIENTED_EDGE('',*,*,#1582,.T.);
#1582 = EDGE_CURVE('',#1575,#1583,#1585,.T.);
#1583 = VERTEX_POINT('',#1584);
#1584 = CARTESIAN_POINT('',(65.,45.5,10.));
#1585 = LINE('',#1586,#1587);
#1586 = CARTESIAN_POINT('',(95.,45.5,10.));
#1587 = VECTOR('',#1588,1.);
#1588 = DIRECTION('',(-1.,0.,0.));
#1589 = ORIENTED_EDGE('',*,*,#1590,.F.);
#1590 = EDGE_CURVE('',#933,#1583,#1591,.T.);
#1591 = LINE('',#1592,#1593);
#1592 = CARTESIAN_POINT('',(65.,45.5,20.));
#1593 = VECTOR('',#1594,1.);
#1594 = DIRECTION('',(0.,-4.4E-16,-1.));
#1595 = ORIENTED_EDGE('',*,*,#930,.F.);
#1596 = PLANE('',#1597);
#1597 = AXIS2_PLACEMENT_3D('',#1598,#1599,#1600);
#1598 = CARTESIAN_POINT('',(95.,45.5,20.));
#1599 = DIRECTION('',(0.,-1.,4.4E-16));
#1600 = DIRECTION('',(1.,0.,0.));
#1601 = ADVANCED_FACE('',(#1602),#1621,.F.);
#1602 = FACE_BOUND('',#1603,.T.);
#1603 = EDGE_LOOP('',(#1604,#1612,#1619,#1620));
#1604 = ORIENTED_EDGE('',*,*,#1605,.T.);
#1605 = EDGE_CURVE('',#950,#1606,#1608,.T.);
#1606 = VERTEX_POINT('',#1607);
#1607 = CARTESIAN_POINT('',(95.,58.5,10.));
#1608 = LINE('',#1609,#1610);
#1609 = CARTESIAN_POINT('',(95.,58.5,20.));
#1610 = VECTOR('',#1611,1.);
#1611 = DIRECTION('',(0.,-4.4E-16,-1.));
#1612 = ORIENTED_EDGE('',*,*,#1613,.T.);
#1613 = EDGE_CURVE('',#1606,#1575,#1614,.T.);
#1614 = CIRCLE('',#1615,6.5);
#1615 = AXIS2_PLACEMENT_3D('',#1616,#1617,#1618);
#1616 = CARTESIAN_POINT('',(95.,52.,10.));
#1617 = DIRECTION('',(0.,0.,-1.));
#1618 = DIRECTION('',(1.,0.,0.));
#1619 = ORIENTED_EDGE('',*,*,#1574,.F.);
#1620 = ORIENTED_EDGE('',*,*,#957,.F.);
#1621 = CYLINDRICAL_SURFACE('',#1622,6.5);
#1622 = AXIS2_PLACEMENT_3D('',#1623,#1624,#1625);
#1623 = CARTESIAN_POINT('',(95.,52.,20.));
#1624 = DIRECTION('',(0.,4.4E-16,1.));
#1625 = DIRECTION('',(1.,0.,0.));
#1626 = ADVANCED_FACE('',(#1627),#1645,.F.);
#1627 = FACE_BOUND('',#1628,.T.);
#1628 = EDGE_LOOP('',(#1629,#1637,#1643,#1644));
#1629 = ORIENTED_EDGE('',*,*,#1630,.T.);
#1630 = EDGE_CURVE('',#941,#1631,#1633,.T.);
#1631 = VERTEX_POINT('',#1632);
#1632 = CARTESIAN_POINT('',(65.,58.5,10.));
#1633 = LINE('',#1634,#1635);
#1634 = CARTESIAN_POINT('',(65.,58.5,20.));
#1635 = VECTOR('',#1636,1.);
#1636 = DIRECTION('',(0.,-4.4E-16,-1.));
#1637 = ORIENTED_EDGE('',*,*,#1638,.T.);
#1638 = EDGE_CURVE('',#1631,#1606,#1639,.T.);
#1639 = LINE('',#1640,#1641);
#1640 = CARTESIAN_POINT('',(65.,58.5,10.));
#1641 = VECTOR('',#1642,1.);
#1642 = DIRECTION('',(1.,0.,0.));
#1643 = ORIENTED_EDGE('',*,*,#1605,.F.);
#1644 = ORIENTED_EDGE('',*,*,#949,.F.);
#1645 = PLANE('',#1646);
#1646 = AXIS2_PLACEMENT_3D('',#1647,#1648,#1649);
#1647 = CARTESIAN_POINT('',(65.,58.5,20.));
#1648 = DIRECTION('',(0.,1.,-4.4E-16));
#1649 = DIRECTION('',(-1.,-0.,0.));
#1650 = ADVANCED_FACE('',(#1651),#1663,.F.);
#1651 = FACE_BOUND('',#1652,.T.);
#1652 = EDGE_LOOP('',(#1653,#1654,#1661,#1662));
#1653 = ORIENTED_EDGE('',*,*,#1590,.T.);
#1654 = ORIENTED_EDGE('',*,*,#1655,.T.);
#1655 = EDGE_CURVE('',#1583,#1631,#1656,.T.);
#1656 = CIRCLE('',#1657,6.5);
#1657 = AXIS2_PLACEMENT_3D('',#1658,#1659,#1660);
#1658 = CARTESIAN_POINT('',(65.,52.,10.));
#1659 = DIRECTION('',(0.,0.,-1.));
#1660 = DIRECTION('',(1.,0.,0.));
#1661 = ORIENTED_EDGE('',*,*,#1630,.F.);
#1662 = ORIENTED_EDGE('',*,*,#940,.F.);
#1663 = CYLINDRICAL_SURFACE('',#1664,6.5);
#1664 = AXIS2_PLACEMENT_3D('',#1665,#1666,#1667);
#1665 = CARTESIAN_POINT('',(65.,52.,20.));
#1666 = DIRECTION('',(0.,4.4E-16,1.));
#1667 = DIRECTION('',(1.,0.,0.));
#1668 = ADVANCED_FACE('',(#1669),#1688,.F.);
#1669 = FACE_BOUND('',#1670,.T.);
#1670 = EDGE_LOOP('',(#1671,#1679,#1686,#1687));
#1671 = ORIENTED_EDGE('',*,*,#1672,.T.);
#1672 = EDGE_CURVE('',#967,#1673,#1675,.T.);
#1673 = VERTEX_POINT('',#1674);
#1674 = CARTESIAN_POINT('',(133.5,52.,15.));
#1675 = LINE('',#1676,#1677);
#1676 = CARTESIAN_POINT('',(133.5,52.,20.));
#1677 = VECTOR('',#1678,1.);
#1678 = DIRECTION('',(0.,-4.4E-16,-1.));
#1679 = ORIENTED_EDGE('',*,*,#1680,.T.);
#1680 = EDGE_CURVE('',#1673,#1673,#1681,.T.);
#1681 = CIRCLE('',#1682,3.5);
#1682 = AXIS2_PLACEMENT_3D('',#1683,#1684,#1685);
#1683 = CARTESIAN_POINT('',(130.,52.,15.));
#1684 = DIRECTION('',(0.,0.,-1.));
#1685 = DIRECTION('',(1.,0.,0.));
#1686 = ORIENTED_EDGE('',*,*,#1672,.F.);
#1687 = ORIENTED_EDGE('',*,*,#966,.F.);
#1688 = CYLINDRICAL_SURFACE('',#1689,3.5);
#1689 = AXIS2_PLACEMENT_3D('',#1690,#1691,#1692);
#1690 = CARTESIAN_POINT('',(130.,52.,20.));
#1691 = DIRECTION('',(0.,4.4E-16,1.));
#1692 = DIRECTION('',(1.,0.,0.));
#1693 = ADVANCED_FACE('',(#1694),#1713,.F.);
#1694 = FACE_BOUND('',#1695,.T.);
#1695 = EDGE_LOOP('',(#1696,#1704,#1711,#1712));
#1696 = ORIENTED_EDGE('',*,*,#1697,.T.);
#1697 = EDGE_CURVE('',#978,#1698,#1700,.T.);
#1698 = VERTEX_POINT('',#1699);
#1699 = CARTESIAN_POINT('',(153.5,52.,15.));
#1700 = LINE('',#1701,#1702);
#1701 = CARTESIAN_POINT('',(153.5,52.,20.));
#1702 = VECTOR('',#1703,1.);
#1703 = DIRECTION('',(0.,-4.4E-16,-1.));
#1704 = ORIENTED_EDGE('',*,*,#1705,.T.);
#1705 = EDGE_CURVE('',#1698,#1698,#1706,.T.);
#1706 = CIRCLE('',#1707,3.5);
#1707 = AXIS2_PLACEMENT_3D('',#1708,#1709,#1710);
#1708 = CARTESIAN_POINT('',(150.,52.,15.));
#1709 = DIRECTION('',(0.,0.,-1.));
#1710 = DIRECTION('',(1.,0.,0.));
#1711 = ORIENTED_EDGE('',*,*,#1697,.F.);
#1712 = ORIENTED_EDGE('',*,*,#977,.F.);
#1713 = CYLINDRICAL_SURFACE('',#1714,3.5);
#1714 = AXIS2_PLACEMENT_3D('',#1715,#1716,#1717);
#1715 = CARTESIAN_POINT('',(150.,52.,20.));
#1716 = DIRECTION('',(0.,4.4E-16,1.));
#1717 = DIRECTION('',(1.,0.,0.));
#1718 = ADVANCED_FACE('',(#1719,#1727),#1730,.T.);
#1719 = FACE_BOUND('',#1720,.F.);
#1720 = EDGE_LOOP('',(#1721,#1722,#1723,#1724,#1725,#1726));
#1721 = ORIENTED_EDGE('',*,*,#1206,.T.);
#1722 = ORIENTED_EDGE('',*,*,#1230,.T.);
#1723 = ORIENTED_EDGE('',*,*,#1254,.T.);
#1724 = ORIENTED_EDGE('',*,*,#1278,.T.);
#1725 = ORIENTED_EDGE('',*,*,#1302,.T.);
#1726 = ORIENTED_EDGE('',*,*,#1326,.T.);
#1727 = FACE_BOUND('',#1728,.F.);
#1728 = EDGE_LOOP('',(#1729));
#1729 = ORIENTED_EDGE('',*,*,#1559,.F.);
#1730 = PLANE('',#1731);
#1731 = AXIS2_PLACEMENT_3D('',#1732,#1733,#1734);
#1732 = CARTESIAN_POINT('',(118.55041946788,47.407482253282,10.));
#1733 = DIRECTION('',(0.,-2.2E-16,-1.));
#1734 = DIRECTION('',(0.,1.,-2.2E-16));
#1735 = ADVANCED_FACE('',(#1736,#1742),#1748,.F.);
#1736 = FACE_BOUND('',#1737,.T.);
#1737 = EDGE_LOOP('',(#1738,#1739,#1740,#1741));
#1738 = ORIENTED_EDGE('',*,*,#1655,.F.);
#1739 = ORIENTED_EDGE('',*,*,#1582,.F.);
#1740 = ORIENTED_EDGE('',*,*,#1613,.F.);
#1741 = ORIENTED_EDGE('',*,*,#1638,.F.);
#1742 = FACE_BOUND('',#1743,.T.);
#1743 = EDGE_LOOP('',(#1744,#1745,#1746,#1747));
#1744 = ORIENTED_EDGE('',*,*,#1342,.F.);
#1745 = ORIENTED_EDGE('',*,*,#1374,.F.);
#1746 = ORIENTED_EDGE('',*,*,#1422,.F.);
#1747 = ORIENTED_EDGE('',*,*,#1398,.F.);
#1748 = PLANE('',#1749);
#1749 = AXIS2_PLACEMENT_3D('',#1750,#1751,#1752);
#1750 = CARTESIAN_POINT('',(80.,52.,10.));
#1751 = DIRECTION('',(0.,-1.5E-16,-1.));
#1752 = DIRECTION('',(0.,1.,-1.5E-16));
#1753 = ADVANCED_FACE('',(#1754,#1757),#1760,.F.);
#1754 = FACE_BOUND('',#1755,.T.);
#1755 = EDGE_LOOP('',(#1756));
#1756 = ORIENTED_EDGE('',*,*,#1680,.F.);
#1757 = FACE_BOUND('',#1758,.T.);
#1758 = EDGE_LOOP('',(#1759));
#1759 = ORIENTED_EDGE('',*,*,#1475,.F.);
#1760 = PLANE('',#1761);
#1761 = AXIS2_PLACEMENT_3D('',#1762,#1763,#1764);
#1762 = CARTESIAN_POINT('',(140.,52.,15.));
#1763 = DIRECTION('',(-2.E-17,1.4E-16,-1.));
#1764 = DIRECTION('',(0.,1.,1.4E-16));
#1765 = ADVANCED_FACE('',(#1766,#1769),#1772,.F.);
#1766 = FACE_BOUND('',#1767,.T.);
#1767 = EDGE_LOOP('',(#1768));
#1768 = ORIENTED_EDGE('',*,*,#1705,.F.);
#1769 = FACE_BOUND('',#1770,.T.);
#1770 = EDGE_LOOP('',(#1771));
#1771 = ORIENTED_EDGE('',*,*,#1500,.F.);
#1772 = PLANE('',#1773);
#1773 = AXIS2_PLACEMENT_3D('',#1774,#1775,#1776);
#1774 = CARTESIAN_POINT('',(140.,52.,15.));
#1775 = DIRECTION('',(-2.E-17,1.4E-16,-1.));
#1776 = DIRECTION('',(0.,1.,1.4E-16));
#1777 = ( GEOMETRIC_REPRESENTATION_CONTEXT(3) 
GLOBAL_UNCERTAINTY_ASSIGNED_CONTEXT((#1781)) 
GLOBAL_UNIT_ASSIGNED_CONTEXT((#1778,#1779,#1780)) REPRESENTATION_CONTEXT
('Context #1','3D Context with UNIT and UNCERTAINTY') );
#1778 = ( LENGTH_UNIT() NAMED_UNIT(*) SI_UNIT(.MILLI.,.METRE.) );
#1779 = ( NAMED_UNIT(*) PLANE_ANGLE_UNIT() SI_UNIT($,.RADIAN.) );
#1780 = ( NAMED_UNIT(*) SI_UNIT($,.STERADIAN.) SOLID_ANGLE_UNIT() );
#1781 = UNCERTAINTY_MEASURE_WITH_UNIT(LENGTH_MEASURE(1.E-07),#1778,
  'distance_accuracy_value','confusion accuracy');
#1782 = PRODUCT_RELATED_PRODUCT_CATEGORY('part',$,(#7));
#1783 = MECHANICAL_DESIGN_GEOMETRIC_PRESENTATION_REPRESENTATION('',(
    #1784),#1777);
#1784 = STYLED_ITEM('color',(#1785),#15);
#1785 = PRESENTATION_STYLE_ASSIGNMENT((#1786,#1792));
#1786 = SURFACE_STYLE_USAGE(.BOTH.,#1787);
#1787 = SURFACE_SIDE_STYLE('',(#1788));
#1788 = SURFACE_STYLE_FILL_AREA(#1789);
#1789 = FILL_AREA_STYLE('',(#1790));
#1790 = FILL_AREA_STYLE_COLOUR('',#1791);
#1791 = COLOUR_RGB('',0.800000010877,0.800000010877,0.800000010877);
#1792 = CURVE_STYLE('',#1793,POSITIVE_LENGTH_MEASURE(0.1),#1794);
#1793 = DRAUGHTING_PRE_DEFINED_CURVE_FONT('continuous');
#1794 = COLOUR_RGB('',9.803921802644E-02,9.803921802644E-02,
  9.803921802644E-02);
ENDSEC;
END-ISO-10303-21;
