ISO-10303-21;
HEADER;
FILE_DESCRIPTION(('FreeCAD Model'),'2;1');
FILE_NAME('Open CASCADE Shape Model','2025-05-21T10:06:59',('Author'),(
    ''),'Open CASCADE STEP processor 7.6','FreeCAD','Unknown');
FILE_SCHEMA(('AUTOMOTIVE_DESIGN { 1 0 10303 214 1 1 1 1 }'));
ENDSEC;
DATA;
#1 = APPLICATION_PROTOCOL_DEFINITION('international standard',
  'automotive_design',2000,#2);
#2 = APPLICATION_CONTEXT(
  'core data for automotive mechanical design processes');
#3 = SHAPE_DEFINITION_REPRESENTATION(#4,#10);
#4 = PRODUCT_DEFINITION_SHAPE('','',#5);
#5 = PRODUCT_DEFINITION('design','',#6,#9);
#6 = PRODUCT_DEFINITION_FORMATION('','',#7);
#7 = PRODUCT('Chamfer003','Chamfer003','',(#8));
#8 = PRODUCT_CONTEXT('',#2,'mechanical');
#9 = PRODUCT_DEFINITION_CONTEXT('part definition',#2,'design');
#10 = ADVANCED_BREP_SHAPE_REPRESENTATION('',(#11,#15),#483);
#11 = AXIS2_PLACEMENT_3D('',#12,#13,#14);
#12 = CARTESIAN_POINT('',(0.,0.,0.));
#13 = DIRECTION('',(0.,0.,1.));
#14 = DIRECTION('',(1.,0.,-0.));
#15 = MANIFOLD_SOLID_BREP('',#16);
#16 = CLOSED_SHELL('',(#17,#57,#99,#123,#147,#178,#220,#245,#269,#293,
    #317,#341,#361,#378,#403,#427,#451,#471));
#17 = ADVANCED_FACE('',(#18),#52,.F.);
#18 = FACE_BOUND('',#19,.F.);
#19 = EDGE_LOOP('',(#20,#30,#38,#46));
#20 = ORIENTED_EDGE('',*,*,#21,.T.);
#21 = EDGE_CURVE('',#22,#24,#26,.T.);
#22 = VERTEX_POINT('',#23);
#23 = CARTESIAN_POINT('',(1.,19.,30.));
#24 = VERTEX_POINT('',#25);
#25 = CARTESIAN_POINT('',(1.,1.,30.));
#26 = LINE('',#27,#28);
#27 = CARTESIAN_POINT('',(1.,20.,30.));
#28 = VECTOR('',#29,1.);
#29 = DIRECTION('',(0.,-1.,0.));
#30 = ORIENTED_EDGE('',*,*,#31,.F.);
#31 = EDGE_CURVE('',#32,#24,#34,.T.);
#32 = VERTEX_POINT('',#33);
#33 = CARTESIAN_POINT('',(0.,1.E-15,29.));
#34 = LINE('',#35,#36);
#35 = CARTESIAN_POINT('',(3.833333333333,3.833333333333,32.833333333333)
  );
#36 = VECTOR('',#37,1.);
#37 = DIRECTION('',(0.57735026919,0.57735026919,0.57735026919));
#38 = ORIENTED_EDGE('',*,*,#39,.F.);
#39 = EDGE_CURVE('',#40,#32,#42,.T.);
#40 = VERTEX_POINT('',#41);
#41 = CARTESIAN_POINT('',(0.,20.,29.));
#42 = LINE('',#43,#44);
#43 = CARTESIAN_POINT('',(0.,20.,29.));
#44 = VECTOR('',#45,1.);
#45 = DIRECTION('',(0.,-1.,0.));
#46 = ORIENTED_EDGE('',*,*,#47,.F.);
#47 = EDGE_CURVE('',#22,#40,#48,.T.);
#48 = LINE('',#49,#50);
#49 = CARTESIAN_POINT('',(5.5,14.5,34.5));
#50 = VECTOR('',#51,1.);
#51 = DIRECTION('',(-0.57735026919,0.57735026919,-0.57735026919));
#52 = PLANE('',#53);
#53 = AXIS2_PLACEMENT_3D('',#54,#55,#56);
#54 = CARTESIAN_POINT('',(0.5,20.,29.5));
#55 = DIRECTION('',(0.707106781187,-1.E-17,-0.707106781187));
#56 = DIRECTION('',(-7.071067811865E-18,-1.,7.071067811865E-18));
#57 = ADVANCED_FACE('',(#58,#83),#94,.T.);
#58 = FACE_BOUND('',#59,.T.);
#59 = EDGE_LOOP('',(#60,#61,#69,#77));
#60 = ORIENTED_EDGE('',*,*,#21,.T.);
#61 = ORIENTED_EDGE('',*,*,#62,.T.);
#62 = EDGE_CURVE('',#24,#63,#65,.T.);
#63 = VERTEX_POINT('',#64);
#64 = CARTESIAN_POINT('',(31.,1.,30.));
#65 = LINE('',#66,#67);
#66 = CARTESIAN_POINT('',(1.,1.,30.));
#67 = VECTOR('',#68,1.);
#68 = DIRECTION('',(1.,0.,0.));
#69 = ORIENTED_EDGE('',*,*,#70,.T.);
#70 = EDGE_CURVE('',#63,#71,#73,.T.);
#71 = VERTEX_POINT('',#72);
#72 = CARTESIAN_POINT('',(31.,19.,30.));
#73 = LINE('',#74,#75);
#74 = CARTESIAN_POINT('',(31.,0.,30.));
#75 = VECTOR('',#76,1.);
#76 = DIRECTION('',(0.,1.,0.));
#77 = ORIENTED_EDGE('',*,*,#78,.T.);
#78 = EDGE_CURVE('',#71,#22,#79,.T.);
#79 = LINE('',#80,#81);
#80 = CARTESIAN_POINT('',(31.,19.,30.));
#81 = VECTOR('',#82,1.);
#82 = DIRECTION('',(-1.,0.,0.));
#83 = FACE_BOUND('',#84,.F.);
#84 = EDGE_LOOP('',(#85));
#85 = ORIENTED_EDGE('',*,*,#86,.T.);
#86 = EDGE_CURVE('',#87,#87,#89,.T.);
#87 = VERTEX_POINT('',#88);
#88 = CARTESIAN_POINT('',(12.75,10.,30.));
#89 = CIRCLE('',#90,2.75);
#90 = AXIS2_PLACEMENT_3D('',#91,#92,#93);
#91 = CARTESIAN_POINT('',(10.,10.,30.));
#92 = DIRECTION('',(0.,0.,1.));
#93 = DIRECTION('',(1.,0.,0.));
#94 = PLANE('',#95);
#95 = AXIS2_PLACEMENT_3D('',#96,#97,#98);
#96 = CARTESIAN_POINT('',(14.824170625673,10.,30.));
#97 = DIRECTION('',(0.,0.,1.));
#98 = DIRECTION('',(1.,0.,0.));
#99 = ADVANCED_FACE('',(#100),#118,.F.);
#100 = FACE_BOUND('',#101,.F.);
#101 = EDGE_LOOP('',(#102,#110,#111,#112));
#102 = ORIENTED_EDGE('',*,*,#103,.F.);
#103 = EDGE_CURVE('',#71,#104,#106,.T.);
#104 = VERTEX_POINT('',#105);
#105 = CARTESIAN_POINT('',(31.,20.,29.));
#106 = LINE('',#107,#108);
#107 = CARTESIAN_POINT('',(31.,19.5,29.5));
#108 = VECTOR('',#109,1.);
#109 = DIRECTION('',(-0.,0.707106781187,-0.707106781187));
#110 = ORIENTED_EDGE('',*,*,#78,.T.);
#111 = ORIENTED_EDGE('',*,*,#47,.T.);
#112 = ORIENTED_EDGE('',*,*,#113,.F.);
#113 = EDGE_CURVE('',#104,#40,#114,.T.);
#114 = LINE('',#115,#116);
#115 = CARTESIAN_POINT('',(31.,20.,29.));
#116 = VECTOR('',#117,1.);
#117 = DIRECTION('',(-1.,0.,0.));
#118 = PLANE('',#119);
#119 = AXIS2_PLACEMENT_3D('',#120,#121,#122);
#120 = CARTESIAN_POINT('',(31.,19.5,29.5));
#121 = DIRECTION('',(1.E-17,-0.707106781187,-0.707106781187));
#122 = DIRECTION('',(-1.,-7.071067811865E-18,-7.071067811865E-18));
#123 = ADVANCED_FACE('',(#124),#142,.F.);
#124 = FACE_BOUND('',#125,.T.);
#125 = EDGE_LOOP('',(#126,#127,#135,#141));
#126 = ORIENTED_EDGE('',*,*,#31,.F.);
#127 = ORIENTED_EDGE('',*,*,#128,.T.);
#128 = EDGE_CURVE('',#32,#129,#131,.T.);
#129 = VERTEX_POINT('',#130);
#130 = CARTESIAN_POINT('',(31.,1.E-15,29.));
#131 = LINE('',#132,#133);
#132 = CARTESIAN_POINT('',(1.,0.,29.));
#133 = VECTOR('',#134,1.);
#134 = DIRECTION('',(1.,0.,0.));
#135 = ORIENTED_EDGE('',*,*,#136,.T.);
#136 = EDGE_CURVE('',#129,#63,#137,.T.);
#137 = LINE('',#138,#139);
#138 = CARTESIAN_POINT('',(31.,0.5,29.5));
#139 = VECTOR('',#140,1.);
#140 = DIRECTION('',(0.,0.707106781187,0.707106781187));
#141 = ORIENTED_EDGE('',*,*,#62,.F.);
#142 = PLANE('',#143);
#143 = AXIS2_PLACEMENT_3D('',#144,#145,#146);
#144 = CARTESIAN_POINT('',(1.,0.5,29.5));
#145 = DIRECTION('',(-1.E-17,0.707106781187,-0.707106781187));
#146 = DIRECTION('',(-1.,-7.071067811865E-18,7.071067811865E-18));
#147 = ADVANCED_FACE('',(#148),#173,.F.);
#148 = FACE_BOUND('',#149,.F.);
#149 = EDGE_LOOP('',(#150,#158,#159,#167));
#150 = ORIENTED_EDGE('',*,*,#151,.T.);
#151 = EDGE_CURVE('',#152,#40,#154,.T.);
#152 = VERTEX_POINT('',#153);
#153 = CARTESIAN_POINT('',(0.,20.,0.));
#154 = LINE('',#155,#156);
#155 = CARTESIAN_POINT('',(0.,20.,0.));
#156 = VECTOR('',#157,1.);
#157 = DIRECTION('',(0.,0.,1.));
#158 = ORIENTED_EDGE('',*,*,#39,.T.);
#159 = ORIENTED_EDGE('',*,*,#160,.F.);
#160 = EDGE_CURVE('',#161,#32,#163,.T.);
#161 = VERTEX_POINT('',#162);
#162 = CARTESIAN_POINT('',(0.,0.,0.));
#163 = LINE('',#164,#165);
#164 = CARTESIAN_POINT('',(0.,0.,0.));
#165 = VECTOR('',#166,1.);
#166 = DIRECTION('',(0.,0.,1.));
#167 = ORIENTED_EDGE('',*,*,#168,.F.);
#168 = EDGE_CURVE('',#152,#161,#169,.T.);
#169 = LINE('',#170,#171);
#170 = CARTESIAN_POINT('',(0.,20.,0.));
#171 = VECTOR('',#172,1.);
#172 = DIRECTION('',(0.,-1.,0.));
#173 = PLANE('',#174);
#174 = AXIS2_PLACEMENT_3D('',#175,#176,#177);
#175 = CARTESIAN_POINT('',(0.,20.,0.));
#176 = DIRECTION('',(1.,0.,0.));
#177 = DIRECTION('',(0.,-1.,0.));
#178 = ADVANCED_FACE('',(#179,#204),#215,.T.);
#179 = FACE_BOUND('',#180,.F.);
#180 = EDGE_LOOP('',(#181,#191,#197,#198));
#181 = ORIENTED_EDGE('',*,*,#182,.T.);
#182 = EDGE_CURVE('',#183,#185,#187,.T.);
#183 = VERTEX_POINT('',#184);
#184 = CARTESIAN_POINT('',(61.,19.,30.));
#185 = VERTEX_POINT('',#186);
#186 = CARTESIAN_POINT('',(61.,1.,30.));
#187 = LINE('',#188,#189);
#188 = CARTESIAN_POINT('',(61.,20.,30.));
#189 = VECTOR('',#190,1.);
#190 = DIRECTION('',(-0.,-1.,-0.));
#191 = ORIENTED_EDGE('',*,*,#192,.F.);
#192 = EDGE_CURVE('',#63,#185,#193,.T.);
#193 = LINE('',#194,#195);
#194 = CARTESIAN_POINT('',(31.,1.,30.));
#195 = VECTOR('',#196,1.);
#196 = DIRECTION('',(1.,0.,0.));
#197 = ORIENTED_EDGE('',*,*,#70,.T.);
#198 = ORIENTED_EDGE('',*,*,#199,.F.);
#199 = EDGE_CURVE('',#183,#71,#200,.T.);
#200 = LINE('',#201,#202);
#201 = CARTESIAN_POINT('',(61.,19.,30.));
#202 = VECTOR('',#203,1.);
#203 = DIRECTION('',(-1.,-0.,-0.));
#204 = FACE_BOUND('',#205,.T.);
#205 = EDGE_LOOP('',(#206));
#206 = ORIENTED_EDGE('',*,*,#207,.T.);
#207 = EDGE_CURVE('',#208,#208,#210,.T.);
#208 = VERTEX_POINT('',#209);
#209 = CARTESIAN_POINT('',(49.25,10.,30.));
#210 = CIRCLE('',#211,2.75);
#211 = AXIS2_PLACEMENT_3D('',#212,#213,#214);
#212 = CARTESIAN_POINT('',(52.,10.,30.));
#213 = DIRECTION('',(0.,0.,-1.));
#214 = DIRECTION('',(-1.,-0.,-0.));
#215 = PLANE('',#216);
#216 = AXIS2_PLACEMENT_3D('',#217,#218,#219);
#217 = CARTESIAN_POINT('',(47.175829374327,10.,30.));
#218 = DIRECTION('',(0.,0.,1.));
#219 = DIRECTION('',(1.,0.,0.));
#220 = ADVANCED_FACE('',(#221),#240,.F.);
#221 = FACE_BOUND('',#222,.T.);
#222 = EDGE_LOOP('',(#223,#231,#232,#233));
#223 = ORIENTED_EDGE('',*,*,#224,.T.);
#224 = EDGE_CURVE('',#225,#87,#227,.T.);
#225 = VERTEX_POINT('',#226);
#226 = CARTESIAN_POINT('',(12.75,10.,0.));
#227 = LINE('',#228,#229);
#228 = CARTESIAN_POINT('',(12.75,10.,0.));
#229 = VECTOR('',#230,1.);
#230 = DIRECTION('',(0.,0.,1.));
#231 = ORIENTED_EDGE('',*,*,#86,.T.);
#232 = ORIENTED_EDGE('',*,*,#224,.F.);
#233 = ORIENTED_EDGE('',*,*,#234,.F.);
#234 = EDGE_CURVE('',#225,#225,#235,.T.);
#235 = CIRCLE('',#236,2.75);
#236 = AXIS2_PLACEMENT_3D('',#237,#238,#239);
#237 = CARTESIAN_POINT('',(10.,10.,0.));
#238 = DIRECTION('',(0.,0.,1.));
#239 = DIRECTION('',(1.,0.,0.));
#240 = CYLINDRICAL_SURFACE('',#241,2.75);
#241 = AXIS2_PLACEMENT_3D('',#242,#243,#244);
#242 = CARTESIAN_POINT('',(10.,10.,0.));
#243 = DIRECTION('',(-0.,-0.,-1.));
#244 = DIRECTION('',(1.,0.,0.));
#245 = ADVANCED_FACE('',(#246),#264,.F.);
#246 = FACE_BOUND('',#247,.F.);
#247 = EDGE_LOOP('',(#248,#256,#257,#258));
#248 = ORIENTED_EDGE('',*,*,#249,.F.);
#249 = EDGE_CURVE('',#183,#250,#252,.T.);
#250 = VERTEX_POINT('',#251);
#251 = CARTESIAN_POINT('',(62.,20.,29.));
#252 = LINE('',#253,#254);
#253 = CARTESIAN_POINT('',(61.5,19.5,29.5));
#254 = VECTOR('',#255,1.);
#255 = DIRECTION('',(0.57735026919,0.57735026919,-0.57735026919));
#256 = ORIENTED_EDGE('',*,*,#199,.T.);
#257 = ORIENTED_EDGE('',*,*,#103,.T.);
#258 = ORIENTED_EDGE('',*,*,#259,.F.);
#259 = EDGE_CURVE('',#250,#104,#260,.T.);
#260 = LINE('',#261,#262);
#261 = CARTESIAN_POINT('',(61.,20.,29.));
#262 = VECTOR('',#263,1.);
#263 = DIRECTION('',(-1.,-0.,-0.));
#264 = PLANE('',#265);
#265 = AXIS2_PLACEMENT_3D('',#266,#267,#268);
#266 = CARTESIAN_POINT('',(61.,19.5,29.5));
#267 = DIRECTION('',(1.E-17,-0.707106781187,-0.707106781187));
#268 = DIRECTION('',(-1.,-7.071067811865E-18,-7.071067811865E-18));
#269 = ADVANCED_FACE('',(#270),#288,.F.);
#270 = FACE_BOUND('',#271,.F.);
#271 = EDGE_LOOP('',(#272,#280,#281,#282));
#272 = ORIENTED_EDGE('',*,*,#273,.T.);
#273 = EDGE_CURVE('',#274,#104,#276,.T.);
#274 = VERTEX_POINT('',#275);
#275 = CARTESIAN_POINT('',(31.,20.,0.));
#276 = LINE('',#277,#278);
#277 = CARTESIAN_POINT('',(31.,20.,0.));
#278 = VECTOR('',#279,1.);
#279 = DIRECTION('',(0.,0.,1.));
#280 = ORIENTED_EDGE('',*,*,#113,.T.);
#281 = ORIENTED_EDGE('',*,*,#151,.F.);
#282 = ORIENTED_EDGE('',*,*,#283,.F.);
#283 = EDGE_CURVE('',#274,#152,#284,.T.);
#284 = LINE('',#285,#286);
#285 = CARTESIAN_POINT('',(31.,20.,0.));
#286 = VECTOR('',#287,1.);
#287 = DIRECTION('',(-1.,0.,0.));
#288 = PLANE('',#289);
#289 = AXIS2_PLACEMENT_3D('',#290,#291,#292);
#290 = CARTESIAN_POINT('',(31.,20.,0.));
#291 = DIRECTION('',(0.,-1.,0.));
#292 = DIRECTION('',(-1.,0.,0.));
#293 = ADVANCED_FACE('',(#294),#312,.F.);
#294 = FACE_BOUND('',#295,.F.);
#295 = EDGE_LOOP('',(#296,#304,#310,#311));
#296 = ORIENTED_EDGE('',*,*,#297,.F.);
#297 = EDGE_CURVE('',#298,#129,#300,.T.);
#298 = VERTEX_POINT('',#299);
#299 = CARTESIAN_POINT('',(31.,0.,0.));
#300 = LINE('',#301,#302);
#301 = CARTESIAN_POINT('',(31.,0.,0.));
#302 = VECTOR('',#303,1.);
#303 = DIRECTION('',(0.,0.,1.));
#304 = ORIENTED_EDGE('',*,*,#305,.F.);
#305 = EDGE_CURVE('',#161,#298,#306,.T.);
#306 = LINE('',#307,#308);
#307 = CARTESIAN_POINT('',(0.,0.,0.));
#308 = VECTOR('',#309,1.);
#309 = DIRECTION('',(1.,0.,0.));
#310 = ORIENTED_EDGE('',*,*,#160,.T.);
#311 = ORIENTED_EDGE('',*,*,#128,.T.);
#312 = PLANE('',#313);
#313 = AXIS2_PLACEMENT_3D('',#314,#315,#316);
#314 = CARTESIAN_POINT('',(0.,0.,0.));
#315 = DIRECTION('',(0.,1.,0.));
#316 = DIRECTION('',(1.,0.,0.));
#317 = ADVANCED_FACE('',(#318),#336,.F.);
#318 = FACE_BOUND('',#319,.T.);
#319 = EDGE_LOOP('',(#320,#321,#329,#335));
#320 = ORIENTED_EDGE('',*,*,#136,.F.);
#321 = ORIENTED_EDGE('',*,*,#322,.T.);
#322 = EDGE_CURVE('',#129,#323,#325,.T.);
#323 = VERTEX_POINT('',#324);
#324 = CARTESIAN_POINT('',(62.,1.E-15,29.));
#325 = LINE('',#326,#327);
#326 = CARTESIAN_POINT('',(31.,0.,29.));
#327 = VECTOR('',#328,1.);
#328 = DIRECTION('',(1.,0.,0.));
#329 = ORIENTED_EDGE('',*,*,#330,.T.);
#330 = EDGE_CURVE('',#323,#185,#331,.T.);
#331 = LINE('',#332,#333);
#332 = CARTESIAN_POINT('',(53.166666666667,8.833333333333,
    37.833333333333));
#333 = VECTOR('',#334,1.);
#334 = DIRECTION('',(-0.57735026919,0.57735026919,0.57735026919));
#335 = ORIENTED_EDGE('',*,*,#192,.F.);
#336 = PLANE('',#337);
#337 = AXIS2_PLACEMENT_3D('',#338,#339,#340);
#338 = CARTESIAN_POINT('',(31.,0.5,29.5));
#339 = DIRECTION('',(-1.E-17,0.707106781187,-0.707106781187));
#340 = DIRECTION('',(-1.,-7.071067811865E-18,7.071067811865E-18));
#341 = ADVANCED_FACE('',(#342,#353),#356,.F.);
#342 = FACE_BOUND('',#343,.F.);
#343 = EDGE_LOOP('',(#344,#345,#351,#352));
#344 = ORIENTED_EDGE('',*,*,#305,.T.);
#345 = ORIENTED_EDGE('',*,*,#346,.T.);
#346 = EDGE_CURVE('',#298,#274,#347,.T.);
#347 = LINE('',#348,#349);
#348 = CARTESIAN_POINT('',(31.,0.,0.));
#349 = VECTOR('',#350,1.);
#350 = DIRECTION('',(0.,1.,0.));
#351 = ORIENTED_EDGE('',*,*,#283,.T.);
#352 = ORIENTED_EDGE('',*,*,#168,.T.);
#353 = FACE_BOUND('',#354,.T.);
#354 = EDGE_LOOP('',(#355));
#355 = ORIENTED_EDGE('',*,*,#234,.T.);
#356 = PLANE('',#357);
#357 = AXIS2_PLACEMENT_3D('',#358,#359,#360);
#358 = CARTESIAN_POINT('',(14.824170625673,10.,0.));
#359 = DIRECTION('',(0.,0.,1.));
#360 = DIRECTION('',(1.,0.,0.));
#361 = ADVANCED_FACE('',(#362),#373,.F.);
#362 = FACE_BOUND('',#363,.F.);
#363 = EDGE_LOOP('',(#364,#365,#366,#372));
#364 = ORIENTED_EDGE('',*,*,#182,.F.);
#365 = ORIENTED_EDGE('',*,*,#249,.T.);
#366 = ORIENTED_EDGE('',*,*,#367,.T.);
#367 = EDGE_CURVE('',#250,#323,#368,.T.);
#368 = LINE('',#369,#370);
#369 = CARTESIAN_POINT('',(62.,20.,29.));
#370 = VECTOR('',#371,1.);
#371 = DIRECTION('',(-0.,-1.,-0.));
#372 = ORIENTED_EDGE('',*,*,#330,.T.);
#373 = PLANE('',#374);
#374 = AXIS2_PLACEMENT_3D('',#375,#376,#377);
#375 = CARTESIAN_POINT('',(61.5,20.,29.5));
#376 = DIRECTION('',(-0.707106781187,1.E-17,-0.707106781187));
#377 = DIRECTION('',(-7.071067811865E-18,-1.,-7.071067811865E-18));
#378 = ADVANCED_FACE('',(#379),#398,.F.);
#379 = FACE_BOUND('',#380,.F.);
#380 = EDGE_LOOP('',(#381,#389,#390,#391));
#381 = ORIENTED_EDGE('',*,*,#382,.T.);
#382 = EDGE_CURVE('',#383,#208,#385,.T.);
#383 = VERTEX_POINT('',#384);
#384 = CARTESIAN_POINT('',(49.25,10.,0.));
#385 = LINE('',#386,#387);
#386 = CARTESIAN_POINT('',(49.25,10.,0.));
#387 = VECTOR('',#388,1.);
#388 = DIRECTION('',(0.,0.,1.));
#389 = ORIENTED_EDGE('',*,*,#207,.T.);
#390 = ORIENTED_EDGE('',*,*,#382,.F.);
#391 = ORIENTED_EDGE('',*,*,#392,.F.);
#392 = EDGE_CURVE('',#383,#383,#393,.T.);
#393 = CIRCLE('',#394,2.75);
#394 = AXIS2_PLACEMENT_3D('',#395,#396,#397);
#395 = CARTESIAN_POINT('',(52.,10.,0.));
#396 = DIRECTION('',(0.,0.,-1.));
#397 = DIRECTION('',(-1.,-0.,-0.));
#398 = CYLINDRICAL_SURFACE('',#399,2.75);
#399 = AXIS2_PLACEMENT_3D('',#400,#401,#402);
#400 = CARTESIAN_POINT('',(52.,10.,0.));
#401 = DIRECTION('',(0.,0.,-1.));
#402 = DIRECTION('',(-1.,0.,0.));
#403 = ADVANCED_FACE('',(#404),#422,.F.);
#404 = FACE_BOUND('',#405,.T.);
#405 = EDGE_LOOP('',(#406,#407,#408,#416));
#406 = ORIENTED_EDGE('',*,*,#273,.T.);
#407 = ORIENTED_EDGE('',*,*,#259,.F.);
#408 = ORIENTED_EDGE('',*,*,#409,.F.);
#409 = EDGE_CURVE('',#410,#250,#412,.T.);
#410 = VERTEX_POINT('',#411);
#411 = CARTESIAN_POINT('',(62.,20.,0.));
#412 = LINE('',#413,#414);
#413 = CARTESIAN_POINT('',(62.,20.,0.));
#414 = VECTOR('',#415,1.);
#415 = DIRECTION('',(0.,0.,1.));
#416 = ORIENTED_EDGE('',*,*,#417,.F.);
#417 = EDGE_CURVE('',#274,#410,#418,.T.);
#418 = LINE('',#419,#420);
#419 = CARTESIAN_POINT('',(31.,20.,0.));
#420 = VECTOR('',#421,1.);
#421 = DIRECTION('',(1.,0.,0.));
#422 = PLANE('',#423);
#423 = AXIS2_PLACEMENT_3D('',#424,#425,#426);
#424 = CARTESIAN_POINT('',(31.,20.,0.));
#425 = DIRECTION('',(-0.,-1.,-0.));
#426 = DIRECTION('',(-1.,0.,0.));
#427 = ADVANCED_FACE('',(#428),#446,.F.);
#428 = FACE_BOUND('',#429,.T.);
#429 = EDGE_LOOP('',(#430,#431,#439,#445));
#430 = ORIENTED_EDGE('',*,*,#297,.F.);
#431 = ORIENTED_EDGE('',*,*,#432,.F.);
#432 = EDGE_CURVE('',#433,#298,#435,.T.);
#433 = VERTEX_POINT('',#434);
#434 = CARTESIAN_POINT('',(62.,0.,0.));
#435 = LINE('',#436,#437);
#436 = CARTESIAN_POINT('',(62.,0.,0.));
#437 = VECTOR('',#438,1.);
#438 = DIRECTION('',(-1.,-0.,-0.));
#439 = ORIENTED_EDGE('',*,*,#440,.T.);
#440 = EDGE_CURVE('',#433,#323,#441,.T.);
#441 = LINE('',#442,#443);
#442 = CARTESIAN_POINT('',(62.,0.,0.));
#443 = VECTOR('',#444,1.);
#444 = DIRECTION('',(0.,0.,1.));
#445 = ORIENTED_EDGE('',*,*,#322,.F.);
#446 = PLANE('',#447);
#447 = AXIS2_PLACEMENT_3D('',#448,#449,#450);
#448 = CARTESIAN_POINT('',(62.,0.,0.));
#449 = DIRECTION('',(0.,1.,0.));
#450 = DIRECTION('',(1.,0.,0.));
#451 = ADVANCED_FACE('',(#452,#463),#466,.F.);
#452 = FACE_BOUND('',#453,.T.);
#453 = EDGE_LOOP('',(#454,#455,#456,#457));
#454 = ORIENTED_EDGE('',*,*,#432,.T.);
#455 = ORIENTED_EDGE('',*,*,#346,.T.);
#456 = ORIENTED_EDGE('',*,*,#417,.T.);
#457 = ORIENTED_EDGE('',*,*,#458,.T.);
#458 = EDGE_CURVE('',#410,#433,#459,.T.);
#459 = LINE('',#460,#461);
#460 = CARTESIAN_POINT('',(62.,20.,0.));
#461 = VECTOR('',#462,1.);
#462 = DIRECTION('',(-0.,-1.,-0.));
#463 = FACE_BOUND('',#464,.F.);
#464 = EDGE_LOOP('',(#465));
#465 = ORIENTED_EDGE('',*,*,#392,.T.);
#466 = PLANE('',#467);
#467 = AXIS2_PLACEMENT_3D('',#468,#469,#470);
#468 = CARTESIAN_POINT('',(47.175829374327,10.,0.));
#469 = DIRECTION('',(0.,0.,1.));
#470 = DIRECTION('',(1.,0.,0.));
#471 = ADVANCED_FACE('',(#472),#478,.F.);
#472 = FACE_BOUND('',#473,.T.);
#473 = EDGE_LOOP('',(#474,#475,#476,#477));
#474 = ORIENTED_EDGE('',*,*,#409,.T.);
#475 = ORIENTED_EDGE('',*,*,#367,.T.);
#476 = ORIENTED_EDGE('',*,*,#440,.F.);
#477 = ORIENTED_EDGE('',*,*,#458,.F.);
#478 = PLANE('',#479);
#479 = AXIS2_PLACEMENT_3D('',#480,#481,#482);
#480 = CARTESIAN_POINT('',(62.,20.,0.));
#481 = DIRECTION('',(-1.,-0.,-0.));
#482 = DIRECTION('',(0.,1.,0.));
#483 = ( GEOMETRIC_REPRESENTATION_CONTEXT(3) 
GLOBAL_UNCERTAINTY_ASSIGNED_CONTEXT((#487)) GLOBAL_UNIT_ASSIGNED_CONTEXT
((#484,#485,#486)) REPRESENTATION_CONTEXT('Context #1',
  '3D Context with UNIT and UNCERTAINTY') );
#484 = ( LENGTH_UNIT() NAMED_UNIT(*) SI_UNIT(.MILLI.,.METRE.) );
#485 = ( NAMED_UNIT(*) PLANE_ANGLE_UNIT() SI_UNIT($,.RADIAN.) );
#486 = ( NAMED_UNIT(*) SI_UNIT($,.STERADIAN.) SOLID_ANGLE_UNIT() );
#487 = UNCERTAINTY_MEASURE_WITH_UNIT(LENGTH_MEASURE(1.E-07),#484,
  'distance_accuracy_value','confusion accuracy');
#488 = PRODUCT_RELATED_PRODUCT_CATEGORY('part',$,(#7));
#489 = MECHANICAL_DESIGN_GEOMETRIC_PRESENTATION_REPRESENTATION('',(#490)
  ,#483);
#490 = STYLED_ITEM('color',(#491),#15);
#491 = PRESENTATION_STYLE_ASSIGNMENT((#492,#498));
#492 = SURFACE_STYLE_USAGE(.BOTH.,#493);
#493 = SURFACE_SIDE_STYLE('',(#494));
#494 = SURFACE_STYLE_FILL_AREA(#495);
#495 = FILL_AREA_STYLE('',(#496));
#496 = FILL_AREA_STYLE_COLOUR('',#497);
#497 = COLOUR_RGB('',0.800000010877,0.800000010877,0.800000010877);
#498 = CURVE_STYLE('',#499,POSITIVE_LENGTH_MEASURE(0.1),#500);
#499 = DRAUGHTING_PRE_DEFINED_CURVE_FONT('continuous');
#500 = COLOUR_RGB('',9.803921802644E-02,9.803921802644E-02,
  9.803921802644E-02);
ENDSEC;
END-ISO-10303-21;
