ISO-10303-21;
HEADER;
FILE_DESCRIPTION(('FreeCAD Model'),'2;1');
FILE_NAME('Open CASCADE Shape Model','2025-05-21T10:08:13',('Author'),(
    ''),'Open CASCADE STEP processor 7.6','FreeCAD','Unknown');
FILE_SCHEMA(('AUTOMOTIVE_DESIGN { 1 0 10303 214 1 1 1 1 }'));
ENDSEC;
DATA;
#1 = APPLICATION_PROTOCOL_DEFINITION('international standard',
  'automotive_design',2000,#2);
#2 = APPLICATION_CONTEXT(
  'core data for automotive mechanical design processes');
#3 = SHAPE_DEFINITION_REPRESENTATION(#4,#10);
#4 = PRODUCT_DEFINITION_SHAPE('','',#5);
#5 = PRODUCT_DEFINITION('design','',#6,#9);
#6 = PRODUCT_DEFINITION_FORMATION('','',#7);
#7 = PRODUCT('Pocket001','Pocket001','',(#8));
#8 = PRODUCT_CONTEXT('',#2,'mechanical');
#9 = PRODUCT_DEFINITION_CONTEXT('part definition',#2,'design');
#10 = ADVANCED_BREP_SHAPE_REPRESENTATION('',(#11,#15),#819);
#11 = AXIS2_PLACEMENT_3D('',#12,#13,#14);
#12 = CARTESIAN_POINT('',(0.,0.,0.));
#13 = DIRECTION('',(0.,0.,1.));
#14 = DIRECTION('',(1.,0.,-0.));
#15 = MANIFOLD_SOLID_BREP('',#16);
#16 = CLOSED_SHELL('',(#17,#57,#99,#123,#147,#178,#220,#245,#269,#315,
    #361,#385,#405,#422,#447,#493,#518,#543,#589,#614,#639,#659,#671,
    #696,#721,#733,#745,#770,#795,#807));
#17 = ADVANCED_FACE('',(#18),#52,.F.);
#18 = FACE_BOUND('',#19,.F.);
#19 = EDGE_LOOP('',(#20,#30,#38,#46));
#20 = ORIENTED_EDGE('',*,*,#21,.T.);
#21 = EDGE_CURVE('',#22,#24,#26,.T.);
#22 = VERTEX_POINT('',#23);
#23 = CARTESIAN_POINT('',(1.,19.,30.));
#24 = VERTEX_POINT('',#25);
#25 = CARTESIAN_POINT('',(1.,1.,30.));
#26 = LINE('',#27,#28);
#27 = CARTESIAN_POINT('',(1.,20.,30.));
#28 = VECTOR('',#29,1.);
#29 = DIRECTION('',(0.,-1.,0.));
#30 = ORIENTED_EDGE('',*,*,#31,.F.);
#31 = EDGE_CURVE('',#32,#24,#34,.T.);
#32 = VERTEX_POINT('',#33);
#33 = CARTESIAN_POINT('',(0.,1.E-15,29.));
#34 = LINE('',#35,#36);
#35 = CARTESIAN_POINT('',(3.833333333333,3.833333333333,32.833333333333)
  );
#36 = VECTOR('',#37,1.);
#37 = DIRECTION('',(0.57735026919,0.57735026919,0.57735026919));
#38 = ORIENTED_EDGE('',*,*,#39,.F.);
#39 = EDGE_CURVE('',#40,#32,#42,.T.);
#40 = VERTEX_POINT('',#41);
#41 = CARTESIAN_POINT('',(0.,20.,29.));
#42 = LINE('',#43,#44);
#43 = CARTESIAN_POINT('',(0.,20.,29.));
#44 = VECTOR('',#45,1.);
#45 = DIRECTION('',(0.,-1.,0.));
#46 = ORIENTED_EDGE('',*,*,#47,.F.);
#47 = EDGE_CURVE('',#22,#40,#48,.T.);
#48 = LINE('',#49,#50);
#49 = CARTESIAN_POINT('',(5.5,14.5,34.5));
#50 = VECTOR('',#51,1.);
#51 = DIRECTION('',(-0.57735026919,0.57735026919,-0.57735026919));
#52 = PLANE('',#53);
#53 = AXIS2_PLACEMENT_3D('',#54,#55,#56);
#54 = CARTESIAN_POINT('',(0.5,20.,29.5));
#55 = DIRECTION('',(0.707106781187,-1.E-17,-0.707106781187));
#56 = DIRECTION('',(-7.071067811865E-18,-1.,7.071067811865E-18));
#57 = ADVANCED_FACE('',(#58,#83),#94,.T.);
#58 = FACE_BOUND('',#59,.T.);
#59 = EDGE_LOOP('',(#60,#61,#69,#77));
#60 = ORIENTED_EDGE('',*,*,#21,.T.);
#61 = ORIENTED_EDGE('',*,*,#62,.T.);
#62 = EDGE_CURVE('',#24,#63,#65,.T.);
#63 = VERTEX_POINT('',#64);
#64 = CARTESIAN_POINT('',(31.,1.,30.));
#65 = LINE('',#66,#67);
#66 = CARTESIAN_POINT('',(1.,1.,30.));
#67 = VECTOR('',#68,1.);
#68 = DIRECTION('',(1.,0.,0.));
#69 = ORIENTED_EDGE('',*,*,#70,.T.);
#70 = EDGE_CURVE('',#63,#71,#73,.T.);
#71 = VERTEX_POINT('',#72);
#72 = CARTESIAN_POINT('',(31.,19.,30.));
#73 = LINE('',#74,#75);
#74 = CARTESIAN_POINT('',(31.,0.,30.));
#75 = VECTOR('',#76,1.);
#76 = DIRECTION('',(0.,1.,0.));
#77 = ORIENTED_EDGE('',*,*,#78,.T.);
#78 = EDGE_CURVE('',#71,#22,#79,.T.);
#79 = LINE('',#80,#81);
#80 = CARTESIAN_POINT('',(31.,19.,30.));
#81 = VECTOR('',#82,1.);
#82 = DIRECTION('',(-1.,0.,0.));
#83 = FACE_BOUND('',#84,.F.);
#84 = EDGE_LOOP('',(#85));
#85 = ORIENTED_EDGE('',*,*,#86,.T.);
#86 = EDGE_CURVE('',#87,#87,#89,.T.);
#87 = VERTEX_POINT('',#88);
#88 = CARTESIAN_POINT('',(12.75,10.,30.));
#89 = CIRCLE('',#90,2.75);
#90 = AXIS2_PLACEMENT_3D('',#91,#92,#93);
#91 = CARTESIAN_POINT('',(10.,10.,30.));
#92 = DIRECTION('',(0.,0.,1.));
#93 = DIRECTION('',(1.,0.,0.));
#94 = PLANE('',#95);
#95 = AXIS2_PLACEMENT_3D('',#96,#97,#98);
#96 = CARTESIAN_POINT('',(14.824170625673,10.,30.));
#97 = DIRECTION('',(0.,0.,1.));
#98 = DIRECTION('',(1.,0.,0.));
#99 = ADVANCED_FACE('',(#100),#118,.F.);
#100 = FACE_BOUND('',#101,.F.);
#101 = EDGE_LOOP('',(#102,#110,#111,#112));
#102 = ORIENTED_EDGE('',*,*,#103,.F.);
#103 = EDGE_CURVE('',#71,#104,#106,.T.);
#104 = VERTEX_POINT('',#105);
#105 = CARTESIAN_POINT('',(31.,20.,29.));
#106 = LINE('',#107,#108);
#107 = CARTESIAN_POINT('',(31.,19.5,29.5));
#108 = VECTOR('',#109,1.);
#109 = DIRECTION('',(0.,0.707106781187,-0.707106781187));
#110 = ORIENTED_EDGE('',*,*,#78,.T.);
#111 = ORIENTED_EDGE('',*,*,#47,.T.);
#112 = ORIENTED_EDGE('',*,*,#113,.F.);
#113 = EDGE_CURVE('',#104,#40,#114,.T.);
#114 = LINE('',#115,#116);
#115 = CARTESIAN_POINT('',(31.,20.,29.));
#116 = VECTOR('',#117,1.);
#117 = DIRECTION('',(-1.,0.,0.));
#118 = PLANE('',#119);
#119 = AXIS2_PLACEMENT_3D('',#120,#121,#122);
#120 = CARTESIAN_POINT('',(31.,19.5,29.5));
#121 = DIRECTION('',(1.E-17,-0.707106781187,-0.707106781187));
#122 = DIRECTION('',(-1.,-7.071067811865E-18,-7.071067811865E-18));
#123 = ADVANCED_FACE('',(#124),#142,.F.);
#124 = FACE_BOUND('',#125,.T.);
#125 = EDGE_LOOP('',(#126,#127,#135,#141));
#126 = ORIENTED_EDGE('',*,*,#31,.F.);
#127 = ORIENTED_EDGE('',*,*,#128,.T.);
#128 = EDGE_CURVE('',#32,#129,#131,.T.);
#129 = VERTEX_POINT('',#130);
#130 = CARTESIAN_POINT('',(31.,1.E-15,29.));
#131 = LINE('',#132,#133);
#132 = CARTESIAN_POINT('',(1.,0.,29.));
#133 = VECTOR('',#134,1.);
#134 = DIRECTION('',(1.,0.,0.));
#135 = ORIENTED_EDGE('',*,*,#136,.T.);
#136 = EDGE_CURVE('',#129,#63,#137,.T.);
#137 = LINE('',#138,#139);
#138 = CARTESIAN_POINT('',(31.,0.5,29.5));
#139 = VECTOR('',#140,1.);
#140 = DIRECTION('',(0.,0.707106781187,0.707106781187));
#141 = ORIENTED_EDGE('',*,*,#62,.F.);
#142 = PLANE('',#143);
#143 = AXIS2_PLACEMENT_3D('',#144,#145,#146);
#144 = CARTESIAN_POINT('',(1.,0.5,29.5));
#145 = DIRECTION('',(-1.E-17,0.707106781187,-0.707106781187));
#146 = DIRECTION('',(-1.,-7.071067811865E-18,7.071067811865E-18));
#147 = ADVANCED_FACE('',(#148),#173,.F.);
#148 = FACE_BOUND('',#149,.F.);
#149 = EDGE_LOOP('',(#150,#158,#159,#167));
#150 = ORIENTED_EDGE('',*,*,#151,.T.);
#151 = EDGE_CURVE('',#152,#40,#154,.T.);
#152 = VERTEX_POINT('',#153);
#153 = CARTESIAN_POINT('',(0.,20.,0.));
#154 = LINE('',#155,#156);
#155 = CARTESIAN_POINT('',(0.,20.,0.));
#156 = VECTOR('',#157,1.);
#157 = DIRECTION('',(0.,0.,1.));
#158 = ORIENTED_EDGE('',*,*,#39,.T.);
#159 = ORIENTED_EDGE('',*,*,#160,.F.);
#160 = EDGE_CURVE('',#161,#32,#163,.T.);
#161 = VERTEX_POINT('',#162);
#162 = CARTESIAN_POINT('',(0.,0.,0.));
#163 = LINE('',#164,#165);
#164 = CARTESIAN_POINT('',(0.,0.,0.));
#165 = VECTOR('',#166,1.);
#166 = DIRECTION('',(0.,0.,1.));
#167 = ORIENTED_EDGE('',*,*,#168,.F.);
#168 = EDGE_CURVE('',#152,#161,#169,.T.);
#169 = LINE('',#170,#171);
#170 = CARTESIAN_POINT('',(0.,20.,0.));
#171 = VECTOR('',#172,1.);
#172 = DIRECTION('',(0.,-1.,0.));
#173 = PLANE('',#174);
#174 = AXIS2_PLACEMENT_3D('',#175,#176,#177);
#175 = CARTESIAN_POINT('',(0.,20.,0.));
#176 = DIRECTION('',(1.,0.,0.));
#177 = DIRECTION('',(0.,-1.,0.));
#178 = ADVANCED_FACE('',(#179,#204),#215,.T.);
#179 = FACE_BOUND('',#180,.F.);
#180 = EDGE_LOOP('',(#181,#191,#197,#198));
#181 = ORIENTED_EDGE('',*,*,#182,.T.);
#182 = EDGE_CURVE('',#183,#185,#187,.T.);
#183 = VERTEX_POINT('',#184);
#184 = CARTESIAN_POINT('',(61.,19.,30.));
#185 = VERTEX_POINT('',#186);
#186 = CARTESIAN_POINT('',(61.,1.,30.));
#187 = LINE('',#188,#189);
#188 = CARTESIAN_POINT('',(61.,20.,30.));
#189 = VECTOR('',#190,1.);
#190 = DIRECTION('',(-0.,-1.,-0.));
#191 = ORIENTED_EDGE('',*,*,#192,.F.);
#192 = EDGE_CURVE('',#63,#185,#193,.T.);
#193 = LINE('',#194,#195);
#194 = CARTESIAN_POINT('',(31.,1.,30.));
#195 = VECTOR('',#196,1.);
#196 = DIRECTION('',(1.,0.,0.));
#197 = ORIENTED_EDGE('',*,*,#70,.T.);
#198 = ORIENTED_EDGE('',*,*,#199,.F.);
#199 = EDGE_CURVE('',#183,#71,#200,.T.);
#200 = LINE('',#201,#202);
#201 = CARTESIAN_POINT('',(61.,19.,30.));
#202 = VECTOR('',#203,1.);
#203 = DIRECTION('',(-1.,-0.,-0.));
#204 = FACE_BOUND('',#205,.T.);
#205 = EDGE_LOOP('',(#206));
#206 = ORIENTED_EDGE('',*,*,#207,.T.);
#207 = EDGE_CURVE('',#208,#208,#210,.T.);
#208 = VERTEX_POINT('',#209);
#209 = CARTESIAN_POINT('',(49.25,10.,30.));
#210 = CIRCLE('',#211,2.75);
#211 = AXIS2_PLACEMENT_3D('',#212,#213,#214);
#212 = CARTESIAN_POINT('',(52.,10.,30.));
#213 = DIRECTION('',(0.,0.,-1.));
#214 = DIRECTION('',(-1.,-0.,-0.));
#215 = PLANE('',#216);
#216 = AXIS2_PLACEMENT_3D('',#217,#218,#219);
#217 = CARTESIAN_POINT('',(47.175829374327,10.,30.));
#218 = DIRECTION('',(0.,0.,1.));
#219 = DIRECTION('',(1.,0.,0.));
#220 = ADVANCED_FACE('',(#221),#240,.F.);
#221 = FACE_BOUND('',#222,.T.);
#222 = EDGE_LOOP('',(#223,#231,#232,#233));
#223 = ORIENTED_EDGE('',*,*,#224,.T.);
#224 = EDGE_CURVE('',#225,#87,#227,.T.);
#225 = VERTEX_POINT('',#226);
#226 = CARTESIAN_POINT('',(12.75,10.,0.));
#227 = LINE('',#228,#229);
#228 = CARTESIAN_POINT('',(12.75,10.,0.));
#229 = VECTOR('',#230,1.);
#230 = DIRECTION('',(0.,0.,1.));
#231 = ORIENTED_EDGE('',*,*,#86,.T.);
#232 = ORIENTED_EDGE('',*,*,#224,.F.);
#233 = ORIENTED_EDGE('',*,*,#234,.F.);
#234 = EDGE_CURVE('',#225,#225,#235,.T.);
#235 = CIRCLE('',#236,2.75);
#236 = AXIS2_PLACEMENT_3D('',#237,#238,#239);
#237 = CARTESIAN_POINT('',(10.,10.,0.));
#238 = DIRECTION('',(0.,0.,1.));
#239 = DIRECTION('',(1.,0.,0.));
#240 = CYLINDRICAL_SURFACE('',#241,2.75);
#241 = AXIS2_PLACEMENT_3D('',#242,#243,#244);
#242 = CARTESIAN_POINT('',(10.,10.,0.));
#243 = DIRECTION('',(-0.,-0.,-1.));
#244 = DIRECTION('',(1.,0.,0.));
#245 = ADVANCED_FACE('',(#246),#264,.F.);
#246 = FACE_BOUND('',#247,.F.);
#247 = EDGE_LOOP('',(#248,#256,#257,#258));
#248 = ORIENTED_EDGE('',*,*,#249,.F.);
#249 = EDGE_CURVE('',#183,#250,#252,.T.);
#250 = VERTEX_POINT('',#251);
#251 = CARTESIAN_POINT('',(62.,20.,29.));
#252 = LINE('',#253,#254);
#253 = CARTESIAN_POINT('',(61.5,19.5,29.5));
#254 = VECTOR('',#255,1.);
#255 = DIRECTION('',(0.57735026919,0.57735026919,-0.57735026919));
#256 = ORIENTED_EDGE('',*,*,#199,.T.);
#257 = ORIENTED_EDGE('',*,*,#103,.T.);
#258 = ORIENTED_EDGE('',*,*,#259,.F.);
#259 = EDGE_CURVE('',#250,#104,#260,.T.);
#260 = LINE('',#261,#262);
#261 = CARTESIAN_POINT('',(61.,20.,29.));
#262 = VECTOR('',#263,1.);
#263 = DIRECTION('',(-1.,-0.,-0.));
#264 = PLANE('',#265);
#265 = AXIS2_PLACEMENT_3D('',#266,#267,#268);
#266 = CARTESIAN_POINT('',(61.,19.5,29.5));
#267 = DIRECTION('',(1.E-17,-0.707106781187,-0.707106781187));
#268 = DIRECTION('',(-1.,-7.071067811865E-18,-7.071067811865E-18));
#269 = ADVANCED_FACE('',(#270,#288,#299),#310,.F.);
#270 = FACE_BOUND('',#271,.F.);
#271 = EDGE_LOOP('',(#272,#280,#281,#282));
#272 = ORIENTED_EDGE('',*,*,#273,.T.);
#273 = EDGE_CURVE('',#274,#104,#276,.T.);
#274 = VERTEX_POINT('',#275);
#275 = CARTESIAN_POINT('',(31.,20.,0.));
#276 = LINE('',#277,#278);
#277 = CARTESIAN_POINT('',(31.,20.,0.));
#278 = VECTOR('',#279,1.);
#279 = DIRECTION('',(0.,0.,1.));
#280 = ORIENTED_EDGE('',*,*,#113,.T.);
#281 = ORIENTED_EDGE('',*,*,#151,.F.);
#282 = ORIENTED_EDGE('',*,*,#283,.F.);
#283 = EDGE_CURVE('',#274,#152,#284,.T.);
#284 = LINE('',#285,#286);
#285 = CARTESIAN_POINT('',(31.,20.,0.));
#286 = VECTOR('',#287,1.);
#287 = DIRECTION('',(-1.,0.,0.));
#288 = FACE_BOUND('',#289,.F.);
#289 = EDGE_LOOP('',(#290));
#290 = ORIENTED_EDGE('',*,*,#291,.F.);
#291 = EDGE_CURVE('',#292,#292,#294,.T.);
#292 = VERTEX_POINT('',#293);
#293 = CARTESIAN_POINT('',(23.,20.,20.));
#294 = CIRCLE('',#295,2.);
#295 = AXIS2_PLACEMENT_3D('',#296,#297,#298);
#296 = CARTESIAN_POINT('',(21.,20.,20.));
#297 = DIRECTION('',(0.,-1.,2.2E-16));
#298 = DIRECTION('',(1.,0.,0.));
#299 = FACE_BOUND('',#300,.F.);
#300 = EDGE_LOOP('',(#301));
#301 = ORIENTED_EDGE('',*,*,#302,.F.);
#302 = EDGE_CURVE('',#303,#303,#305,.T.);
#303 = VERTEX_POINT('',#304);
#304 = CARTESIAN_POINT('',(23.,20.,10.));
#305 = CIRCLE('',#306,2.);
#306 = AXIS2_PLACEMENT_3D('',#307,#308,#309);
#307 = CARTESIAN_POINT('',(21.,20.,10.));
#308 = DIRECTION('',(0.,-1.,2.2E-16));
#309 = DIRECTION('',(1.,0.,0.));
#310 = PLANE('',#311);
#311 = AXIS2_PLACEMENT_3D('',#312,#313,#314);
#312 = CARTESIAN_POINT('',(31.,20.,0.));
#313 = DIRECTION('',(0.,-1.,0.));
#314 = DIRECTION('',(-1.,0.,0.));
#315 = ADVANCED_FACE('',(#316,#334,#345),#356,.F.);
#316 = FACE_BOUND('',#317,.F.);
#317 = EDGE_LOOP('',(#318,#326,#332,#333));
#318 = ORIENTED_EDGE('',*,*,#319,.F.);
#319 = EDGE_CURVE('',#320,#129,#322,.T.);
#320 = VERTEX_POINT('',#321);
#321 = CARTESIAN_POINT('',(31.,0.,0.));
#322 = LINE('',#323,#324);
#323 = CARTESIAN_POINT('',(31.,0.,0.));
#324 = VECTOR('',#325,1.);
#325 = DIRECTION('',(0.,0.,1.));
#326 = ORIENTED_EDGE('',*,*,#327,.F.);
#327 = EDGE_CURVE('',#161,#320,#328,.T.);
#328 = LINE('',#329,#330);
#329 = CARTESIAN_POINT('',(0.,0.,0.));
#330 = VECTOR('',#331,1.);
#331 = DIRECTION('',(1.,0.,0.));
#332 = ORIENTED_EDGE('',*,*,#160,.T.);
#333 = ORIENTED_EDGE('',*,*,#128,.T.);
#334 = FACE_BOUND('',#335,.F.);
#335 = EDGE_LOOP('',(#336));
#336 = ORIENTED_EDGE('',*,*,#337,.T.);
#337 = EDGE_CURVE('',#338,#338,#340,.T.);
#338 = VERTEX_POINT('',#339);
#339 = CARTESIAN_POINT('',(24.75,0.,20.));
#340 = CIRCLE('',#341,3.75);
#341 = AXIS2_PLACEMENT_3D('',#342,#343,#344);
#342 = CARTESIAN_POINT('',(21.,0.,20.));
#343 = DIRECTION('',(0.,-1.,0.));
#344 = DIRECTION('',(1.,0.,0.));
#345 = FACE_BOUND('',#346,.F.);
#346 = EDGE_LOOP('',(#347));
#347 = ORIENTED_EDGE('',*,*,#348,.T.);
#348 = EDGE_CURVE('',#349,#349,#351,.T.);
#349 = VERTEX_POINT('',#350);
#350 = CARTESIAN_POINT('',(24.75,0.,10.));
#351 = CIRCLE('',#352,3.75);
#352 = AXIS2_PLACEMENT_3D('',#353,#354,#355);
#353 = CARTESIAN_POINT('',(21.,0.,10.));
#354 = DIRECTION('',(0.,-1.,0.));
#355 = DIRECTION('',(1.,0.,0.));
#356 = PLANE('',#357);
#357 = AXIS2_PLACEMENT_3D('',#358,#359,#360);
#358 = CARTESIAN_POINT('',(0.,0.,0.));
#359 = DIRECTION('',(0.,1.,0.));
#360 = DIRECTION('',(1.,0.,0.));
#361 = ADVANCED_FACE('',(#362),#380,.F.);
#362 = FACE_BOUND('',#363,.T.);
#363 = EDGE_LOOP('',(#364,#365,#373,#379));
#364 = ORIENTED_EDGE('',*,*,#136,.F.);
#365 = ORIENTED_EDGE('',*,*,#366,.T.);
#366 = EDGE_CURVE('',#129,#367,#369,.T.);
#367 = VERTEX_POINT('',#368);
#368 = CARTESIAN_POINT('',(62.,1.E-15,29.));
#369 = LINE('',#370,#371);
#370 = CARTESIAN_POINT('',(31.,0.,29.));
#371 = VECTOR('',#372,1.);
#372 = DIRECTION('',(1.,0.,0.));
#373 = ORIENTED_EDGE('',*,*,#374,.T.);
#374 = EDGE_CURVE('',#367,#185,#375,.T.);
#375 = LINE('',#376,#377);
#376 = CARTESIAN_POINT('',(53.166666666667,8.833333333333,
    37.833333333333));
#377 = VECTOR('',#378,1.);
#378 = DIRECTION('',(-0.57735026919,0.57735026919,0.57735026919));
#379 = ORIENTED_EDGE('',*,*,#192,.F.);
#380 = PLANE('',#381);
#381 = AXIS2_PLACEMENT_3D('',#382,#383,#384);
#382 = CARTESIAN_POINT('',(31.,0.5,29.5));
#383 = DIRECTION('',(-1.E-17,0.707106781187,-0.707106781187));
#384 = DIRECTION('',(-1.,-7.071067811865E-18,7.071067811865E-18));
#385 = ADVANCED_FACE('',(#386,#397),#400,.F.);
#386 = FACE_BOUND('',#387,.F.);
#387 = EDGE_LOOP('',(#388,#389,#395,#396));
#388 = ORIENTED_EDGE('',*,*,#327,.T.);
#389 = ORIENTED_EDGE('',*,*,#390,.T.);
#390 = EDGE_CURVE('',#320,#274,#391,.T.);
#391 = LINE('',#392,#393);
#392 = CARTESIAN_POINT('',(31.,0.,0.));
#393 = VECTOR('',#394,1.);
#394 = DIRECTION('',(0.,1.,0.));
#395 = ORIENTED_EDGE('',*,*,#283,.T.);
#396 = ORIENTED_EDGE('',*,*,#168,.T.);
#397 = FACE_BOUND('',#398,.T.);
#398 = EDGE_LOOP('',(#399));
#399 = ORIENTED_EDGE('',*,*,#234,.T.);
#400 = PLANE('',#401);
#401 = AXIS2_PLACEMENT_3D('',#402,#403,#404);
#402 = CARTESIAN_POINT('',(14.824170625673,10.,0.));
#403 = DIRECTION('',(0.,0.,1.));
#404 = DIRECTION('',(1.,0.,0.));
#405 = ADVANCED_FACE('',(#406),#417,.F.);
#406 = FACE_BOUND('',#407,.F.);
#407 = EDGE_LOOP('',(#408,#409,#410,#416));
#408 = ORIENTED_EDGE('',*,*,#182,.F.);
#409 = ORIENTED_EDGE('',*,*,#249,.T.);
#410 = ORIENTED_EDGE('',*,*,#411,.T.);
#411 = EDGE_CURVE('',#250,#367,#412,.T.);
#412 = LINE('',#413,#414);
#413 = CARTESIAN_POINT('',(62.,20.,29.));
#414 = VECTOR('',#415,1.);
#415 = DIRECTION('',(-0.,-1.,-0.));
#416 = ORIENTED_EDGE('',*,*,#374,.T.);
#417 = PLANE('',#418);
#418 = AXIS2_PLACEMENT_3D('',#419,#420,#421);
#419 = CARTESIAN_POINT('',(61.5,20.,29.5));
#420 = DIRECTION('',(-0.707106781187,1.E-17,-0.707106781187));
#421 = DIRECTION('',(-7.071067811865E-18,-1.,-7.071067811865E-18));
#422 = ADVANCED_FACE('',(#423),#442,.F.);
#423 = FACE_BOUND('',#424,.F.);
#424 = EDGE_LOOP('',(#425,#433,#434,#435));
#425 = ORIENTED_EDGE('',*,*,#426,.T.);
#426 = EDGE_CURVE('',#427,#208,#429,.T.);
#427 = VERTEX_POINT('',#428);
#428 = CARTESIAN_POINT('',(49.25,10.,0.));
#429 = LINE('',#430,#431);
#430 = CARTESIAN_POINT('',(49.25,10.,0.));
#431 = VECTOR('',#432,1.);
#432 = DIRECTION('',(0.,0.,1.));
#433 = ORIENTED_EDGE('',*,*,#207,.T.);
#434 = ORIENTED_EDGE('',*,*,#426,.F.);
#435 = ORIENTED_EDGE('',*,*,#436,.F.);
#436 = EDGE_CURVE('',#427,#427,#437,.T.);
#437 = CIRCLE('',#438,2.75);
#438 = AXIS2_PLACEMENT_3D('',#439,#440,#441);
#439 = CARTESIAN_POINT('',(52.,10.,0.));
#440 = DIRECTION('',(0.,0.,-1.));
#441 = DIRECTION('',(-1.,-0.,-0.));
#442 = CYLINDRICAL_SURFACE('',#443,2.75);
#443 = AXIS2_PLACEMENT_3D('',#444,#445,#446);
#444 = CARTESIAN_POINT('',(52.,10.,0.));
#445 = DIRECTION('',(0.,0.,-1.));
#446 = DIRECTION('',(-1.,0.,0.));
#447 = ADVANCED_FACE('',(#448,#466,#477),#488,.F.);
#448 = FACE_BOUND('',#449,.T.);
#449 = EDGE_LOOP('',(#450,#451,#452,#460));
#450 = ORIENTED_EDGE('',*,*,#273,.T.);
#451 = ORIENTED_EDGE('',*,*,#259,.F.);
#452 = ORIENTED_EDGE('',*,*,#453,.F.);
#453 = EDGE_CURVE('',#454,#250,#456,.T.);
#454 = VERTEX_POINT('',#455);
#455 = CARTESIAN_POINT('',(62.,20.,0.));
#456 = LINE('',#457,#458);
#457 = CARTESIAN_POINT('',(62.,20.,0.));
#458 = VECTOR('',#459,1.);
#459 = DIRECTION('',(0.,0.,1.));
#460 = ORIENTED_EDGE('',*,*,#461,.F.);
#461 = EDGE_CURVE('',#274,#454,#462,.T.);
#462 = LINE('',#463,#464);
#463 = CARTESIAN_POINT('',(31.,20.,0.));
#464 = VECTOR('',#465,1.);
#465 = DIRECTION('',(1.,0.,0.));
#466 = FACE_BOUND('',#467,.T.);
#467 = EDGE_LOOP('',(#468));
#468 = ORIENTED_EDGE('',*,*,#469,.T.);
#469 = EDGE_CURVE('',#470,#470,#472,.T.);
#470 = VERTEX_POINT('',#471);
#471 = CARTESIAN_POINT('',(43.,20.,20.));
#472 = CIRCLE('',#473,2.);
#473 = AXIS2_PLACEMENT_3D('',#474,#475,#476);
#474 = CARTESIAN_POINT('',(41.,20.,20.));
#475 = DIRECTION('',(0.,-1.,2.2E-16));
#476 = DIRECTION('',(1.,0.,0.));
#477 = FACE_BOUND('',#478,.T.);
#478 = EDGE_LOOP('',(#479));
#479 = ORIENTED_EDGE('',*,*,#480,.T.);
#480 = EDGE_CURVE('',#481,#481,#483,.T.);
#481 = VERTEX_POINT('',#482);
#482 = CARTESIAN_POINT('',(43.,20.,10.));
#483 = CIRCLE('',#484,2.);
#484 = AXIS2_PLACEMENT_3D('',#485,#486,#487);
#485 = CARTESIAN_POINT('',(41.,20.,10.));
#486 = DIRECTION('',(0.,-1.,2.2E-16));
#487 = DIRECTION('',(1.,0.,0.));
#488 = PLANE('',#489);
#489 = AXIS2_PLACEMENT_3D('',#490,#491,#492);
#490 = CARTESIAN_POINT('',(31.,20.,0.));
#491 = DIRECTION('',(-0.,-1.,-0.));
#492 = DIRECTION('',(-1.,0.,0.));
#493 = ADVANCED_FACE('',(#494),#513,.F.);
#494 = FACE_BOUND('',#495,.F.);
#495 = EDGE_LOOP('',(#496,#505,#511,#512));
#496 = ORIENTED_EDGE('',*,*,#497,.F.);
#497 = EDGE_CURVE('',#498,#498,#500,.T.);
#498 = VERTEX_POINT('',#499);
#499 = CARTESIAN_POINT('',(23.,10.,20.));
#500 = CIRCLE('',#501,2.);
#501 = AXIS2_PLACEMENT_3D('',#502,#503,#504);
#502 = CARTESIAN_POINT('',(21.,10.,20.));
#503 = DIRECTION('',(0.,-1.,2.2E-16));
#504 = DIRECTION('',(1.,0.,0.));
#505 = ORIENTED_EDGE('',*,*,#506,.T.);
#506 = EDGE_CURVE('',#498,#292,#507,.T.);
#507 = LINE('',#508,#509);
#508 = CARTESIAN_POINT('',(23.,4.44E-15,20.));
#509 = VECTOR('',#510,1.);
#510 = DIRECTION('',(0.,1.,-2.2E-16));
#511 = ORIENTED_EDGE('',*,*,#291,.T.);
#512 = ORIENTED_EDGE('',*,*,#506,.F.);
#513 = CYLINDRICAL_SURFACE('',#514,2.);
#514 = AXIS2_PLACEMENT_3D('',#515,#516,#517);
#515 = CARTESIAN_POINT('',(21.,4.44E-15,20.));
#516 = DIRECTION('',(0.,-1.,2.2E-16));
#517 = DIRECTION('',(1.,0.,0.));
#518 = ADVANCED_FACE('',(#519),#538,.F.);
#519 = FACE_BOUND('',#520,.F.);
#520 = EDGE_LOOP('',(#521,#530,#536,#537));
#521 = ORIENTED_EDGE('',*,*,#522,.F.);
#522 = EDGE_CURVE('',#523,#523,#525,.T.);
#523 = VERTEX_POINT('',#524);
#524 = CARTESIAN_POINT('',(23.,10.,10.));
#525 = CIRCLE('',#526,2.);
#526 = AXIS2_PLACEMENT_3D('',#527,#528,#529);
#527 = CARTESIAN_POINT('',(21.,10.,10.));
#528 = DIRECTION('',(0.,-1.,2.2E-16));
#529 = DIRECTION('',(1.,0.,0.));
#530 = ORIENTED_EDGE('',*,*,#531,.T.);
#531 = EDGE_CURVE('',#523,#303,#532,.T.);
#532 = LINE('',#533,#534);
#533 = CARTESIAN_POINT('',(23.,2.22E-15,10.));
#534 = VECTOR('',#535,1.);
#535 = DIRECTION('',(0.,1.,-2.2E-16));
#536 = ORIENTED_EDGE('',*,*,#302,.T.);
#537 = ORIENTED_EDGE('',*,*,#531,.F.);
#538 = CYLINDRICAL_SURFACE('',#539,2.);
#539 = AXIS2_PLACEMENT_3D('',#540,#541,#542);
#540 = CARTESIAN_POINT('',(21.,2.22E-15,10.));
#541 = DIRECTION('',(0.,-1.,2.2E-16));
#542 = DIRECTION('',(1.,0.,0.));
#543 = ADVANCED_FACE('',(#544,#562,#573),#584,.F.);
#544 = FACE_BOUND('',#545,.T.);
#545 = EDGE_LOOP('',(#546,#547,#555,#561));
#546 = ORIENTED_EDGE('',*,*,#319,.F.);
#547 = ORIENTED_EDGE('',*,*,#548,.F.);
#548 = EDGE_CURVE('',#549,#320,#551,.T.);
#549 = VERTEX_POINT('',#550);
#550 = CARTESIAN_POINT('',(62.,0.,0.));
#551 = LINE('',#552,#553);
#552 = CARTESIAN_POINT('',(62.,0.,0.));
#553 = VECTOR('',#554,1.);
#554 = DIRECTION('',(-1.,-0.,-0.));
#555 = ORIENTED_EDGE('',*,*,#556,.T.);
#556 = EDGE_CURVE('',#549,#367,#557,.T.);
#557 = LINE('',#558,#559);
#558 = CARTESIAN_POINT('',(62.,0.,0.));
#559 = VECTOR('',#560,1.);
#560 = DIRECTION('',(0.,0.,1.));
#561 = ORIENTED_EDGE('',*,*,#366,.F.);
#562 = FACE_BOUND('',#563,.T.);
#563 = EDGE_LOOP('',(#564));
#564 = ORIENTED_EDGE('',*,*,#565,.F.);
#565 = EDGE_CURVE('',#566,#566,#568,.T.);
#566 = VERTEX_POINT('',#567);
#567 = CARTESIAN_POINT('',(44.75,0.,20.));
#568 = CIRCLE('',#569,3.75);
#569 = AXIS2_PLACEMENT_3D('',#570,#571,#572);
#570 = CARTESIAN_POINT('',(41.,0.,20.));
#571 = DIRECTION('',(0.,-1.,0.));
#572 = DIRECTION('',(1.,0.,0.));
#573 = FACE_BOUND('',#574,.T.);
#574 = EDGE_LOOP('',(#575));
#575 = ORIENTED_EDGE('',*,*,#576,.F.);
#576 = EDGE_CURVE('',#577,#577,#579,.T.);
#577 = VERTEX_POINT('',#578);
#578 = CARTESIAN_POINT('',(44.75,0.,10.));
#579 = CIRCLE('',#580,3.75);
#580 = AXIS2_PLACEMENT_3D('',#581,#582,#583);
#581 = CARTESIAN_POINT('',(41.,0.,10.));
#582 = DIRECTION('',(0.,-1.,0.));
#583 = DIRECTION('',(1.,0.,0.));
#584 = PLANE('',#585);
#585 = AXIS2_PLACEMENT_3D('',#586,#587,#588);
#586 = CARTESIAN_POINT('',(62.,0.,0.));
#587 = DIRECTION('',(0.,1.,0.));
#588 = DIRECTION('',(1.,0.,0.));
#589 = ADVANCED_FACE('',(#590),#609,.F.);
#590 = FACE_BOUND('',#591,.F.);
#591 = EDGE_LOOP('',(#592,#600,#607,#608));
#592 = ORIENTED_EDGE('',*,*,#593,.T.);
#593 = EDGE_CURVE('',#338,#594,#596,.T.);
#594 = VERTEX_POINT('',#595);
#595 = CARTESIAN_POINT('',(24.75,10.,20.));
#596 = LINE('',#597,#598);
#597 = CARTESIAN_POINT('',(24.75,4.44E-15,20.));
#598 = VECTOR('',#599,1.);
#599 = DIRECTION('',(0.,1.,-2.2E-16));
#600 = ORIENTED_EDGE('',*,*,#601,.T.);
#601 = EDGE_CURVE('',#594,#594,#602,.T.);
#602 = CIRCLE('',#603,3.75);
#603 = AXIS2_PLACEMENT_3D('',#604,#605,#606);
#604 = CARTESIAN_POINT('',(21.,10.,20.));
#605 = DIRECTION('',(0.,-1.,0.));
#606 = DIRECTION('',(1.,0.,0.));
#607 = ORIENTED_EDGE('',*,*,#593,.F.);
#608 = ORIENTED_EDGE('',*,*,#337,.F.);
#609 = CYLINDRICAL_SURFACE('',#610,3.75);
#610 = AXIS2_PLACEMENT_3D('',#611,#612,#613);
#611 = CARTESIAN_POINT('',(21.,4.44E-15,20.));
#612 = DIRECTION('',(0.,-1.,2.2E-16));
#613 = DIRECTION('',(1.,0.,0.));
#614 = ADVANCED_FACE('',(#615),#634,.F.);
#615 = FACE_BOUND('',#616,.F.);
#616 = EDGE_LOOP('',(#617,#625,#632,#633));
#617 = ORIENTED_EDGE('',*,*,#618,.T.);
#618 = EDGE_CURVE('',#349,#619,#621,.T.);
#619 = VERTEX_POINT('',#620);
#620 = CARTESIAN_POINT('',(24.75,10.,10.));
#621 = LINE('',#622,#623);
#622 = CARTESIAN_POINT('',(24.75,2.22E-15,10.));
#623 = VECTOR('',#624,1.);
#624 = DIRECTION('',(0.,1.,-2.2E-16));
#625 = ORIENTED_EDGE('',*,*,#626,.T.);
#626 = EDGE_CURVE('',#619,#619,#627,.T.);
#627 = CIRCLE('',#628,3.75);
#628 = AXIS2_PLACEMENT_3D('',#629,#630,#631);
#629 = CARTESIAN_POINT('',(21.,10.,10.));
#630 = DIRECTION('',(0.,-1.,0.));
#631 = DIRECTION('',(1.,0.,0.));
#632 = ORIENTED_EDGE('',*,*,#618,.F.);
#633 = ORIENTED_EDGE('',*,*,#348,.F.);
#634 = CYLINDRICAL_SURFACE('',#635,3.75);
#635 = AXIS2_PLACEMENT_3D('',#636,#637,#638);
#636 = CARTESIAN_POINT('',(21.,2.22E-15,10.));
#637 = DIRECTION('',(0.,-1.,2.2E-16));
#638 = DIRECTION('',(1.,0.,0.));
#639 = ADVANCED_FACE('',(#640,#651),#654,.F.);
#640 = FACE_BOUND('',#641,.T.);
#641 = EDGE_LOOP('',(#642,#643,#644,#645));
#642 = ORIENTED_EDGE('',*,*,#548,.T.);
#643 = ORIENTED_EDGE('',*,*,#390,.T.);
#644 = ORIENTED_EDGE('',*,*,#461,.T.);
#645 = ORIENTED_EDGE('',*,*,#646,.T.);
#646 = EDGE_CURVE('',#454,#549,#647,.T.);
#647 = LINE('',#648,#649);
#648 = CARTESIAN_POINT('',(62.,20.,0.));
#649 = VECTOR('',#650,1.);
#650 = DIRECTION('',(-0.,-1.,-0.));
#651 = FACE_BOUND('',#652,.F.);
#652 = EDGE_LOOP('',(#653));
#653 = ORIENTED_EDGE('',*,*,#436,.T.);
#654 = PLANE('',#655);
#655 = AXIS2_PLACEMENT_3D('',#656,#657,#658);
#656 = CARTESIAN_POINT('',(47.175829374327,10.,0.));
#657 = DIRECTION('',(0.,0.,1.));
#658 = DIRECTION('',(1.,0.,0.));
#659 = ADVANCED_FACE('',(#660),#666,.F.);
#660 = FACE_BOUND('',#661,.T.);
#661 = EDGE_LOOP('',(#662,#663,#664,#665));
#662 = ORIENTED_EDGE('',*,*,#453,.T.);
#663 = ORIENTED_EDGE('',*,*,#411,.T.);
#664 = ORIENTED_EDGE('',*,*,#556,.F.);
#665 = ORIENTED_EDGE('',*,*,#646,.F.);
#666 = PLANE('',#667);
#667 = AXIS2_PLACEMENT_3D('',#668,#669,#670);
#668 = CARTESIAN_POINT('',(62.,20.,0.));
#669 = DIRECTION('',(-1.,-0.,-0.));
#670 = DIRECTION('',(0.,1.,0.));
#671 = ADVANCED_FACE('',(#672),#691,.F.);
#672 = FACE_BOUND('',#673,.F.);
#673 = EDGE_LOOP('',(#674,#683,#689,#690));
#674 = ORIENTED_EDGE('',*,*,#675,.F.);
#675 = EDGE_CURVE('',#676,#676,#678,.T.);
#676 = VERTEX_POINT('',#677);
#677 = CARTESIAN_POINT('',(43.,10.,20.));
#678 = CIRCLE('',#679,2.);
#679 = AXIS2_PLACEMENT_3D('',#680,#681,#682);
#680 = CARTESIAN_POINT('',(41.,10.,20.));
#681 = DIRECTION('',(0.,-1.,2.2E-16));
#682 = DIRECTION('',(1.,0.,0.));
#683 = ORIENTED_EDGE('',*,*,#684,.T.);
#684 = EDGE_CURVE('',#676,#470,#685,.T.);
#685 = LINE('',#686,#687);
#686 = CARTESIAN_POINT('',(43.,4.44E-15,20.));
#687 = VECTOR('',#688,1.);
#688 = DIRECTION('',(0.,1.,-2.2E-16));
#689 = ORIENTED_EDGE('',*,*,#469,.T.);
#690 = ORIENTED_EDGE('',*,*,#684,.F.);
#691 = CYLINDRICAL_SURFACE('',#692,2.);
#692 = AXIS2_PLACEMENT_3D('',#693,#694,#695);
#693 = CARTESIAN_POINT('',(41.,4.44E-15,20.));
#694 = DIRECTION('',(0.,-1.,2.2E-16));
#695 = DIRECTION('',(1.,0.,0.));
#696 = ADVANCED_FACE('',(#697),#716,.F.);
#697 = FACE_BOUND('',#698,.F.);
#698 = EDGE_LOOP('',(#699,#708,#714,#715));
#699 = ORIENTED_EDGE('',*,*,#700,.F.);
#700 = EDGE_CURVE('',#701,#701,#703,.T.);
#701 = VERTEX_POINT('',#702);
#702 = CARTESIAN_POINT('',(43.,10.,10.));
#703 = CIRCLE('',#704,2.);
#704 = AXIS2_PLACEMENT_3D('',#705,#706,#707);
#705 = CARTESIAN_POINT('',(41.,10.,10.));
#706 = DIRECTION('',(0.,-1.,2.2E-16));
#707 = DIRECTION('',(1.,0.,0.));
#708 = ORIENTED_EDGE('',*,*,#709,.T.);
#709 = EDGE_CURVE('',#701,#481,#710,.T.);
#710 = LINE('',#711,#712);
#711 = CARTESIAN_POINT('',(43.,2.22E-15,10.));
#712 = VECTOR('',#713,1.);
#713 = DIRECTION('',(0.,1.,-2.2E-16));
#714 = ORIENTED_EDGE('',*,*,#480,.T.);
#715 = ORIENTED_EDGE('',*,*,#709,.F.);
#716 = CYLINDRICAL_SURFACE('',#717,2.);
#717 = AXIS2_PLACEMENT_3D('',#718,#719,#720);
#718 = CARTESIAN_POINT('',(41.,2.22E-15,10.));
#719 = DIRECTION('',(0.,-1.,2.2E-16));
#720 = DIRECTION('',(1.,0.,0.));
#721 = ADVANCED_FACE('',(#722,#725),#728,.F.);
#722 = FACE_BOUND('',#723,.F.);
#723 = EDGE_LOOP('',(#724));
#724 = ORIENTED_EDGE('',*,*,#601,.F.);
#725 = FACE_BOUND('',#726,.F.);
#726 = EDGE_LOOP('',(#727));
#727 = ORIENTED_EDGE('',*,*,#497,.T.);
#728 = PLANE('',#729);
#729 = AXIS2_PLACEMENT_3D('',#730,#731,#732);
#730 = CARTESIAN_POINT('',(31.,10.,15.));
#731 = DIRECTION('',(0.,1.,-2.2E-16));
#732 = DIRECTION('',(0.,2.2E-16,1.));
#733 = ADVANCED_FACE('',(#734,#737),#740,.F.);
#734 = FACE_BOUND('',#735,.F.);
#735 = EDGE_LOOP('',(#736));
#736 = ORIENTED_EDGE('',*,*,#626,.F.);
#737 = FACE_BOUND('',#738,.F.);
#738 = EDGE_LOOP('',(#739));
#739 = ORIENTED_EDGE('',*,*,#522,.T.);
#740 = PLANE('',#741);
#741 = AXIS2_PLACEMENT_3D('',#742,#743,#744);
#742 = CARTESIAN_POINT('',(31.,10.,15.));
#743 = DIRECTION('',(0.,1.,-2.2E-16));
#744 = DIRECTION('',(0.,2.2E-16,1.));
#745 = ADVANCED_FACE('',(#746),#765,.F.);
#746 = FACE_BOUND('',#747,.F.);
#747 = EDGE_LOOP('',(#748,#756,#763,#764));
#748 = ORIENTED_EDGE('',*,*,#749,.T.);
#749 = EDGE_CURVE('',#566,#750,#752,.T.);
#750 = VERTEX_POINT('',#751);
#751 = CARTESIAN_POINT('',(44.75,10.,20.));
#752 = LINE('',#753,#754);
#753 = CARTESIAN_POINT('',(44.75,4.44E-15,20.));
#754 = VECTOR('',#755,1.);
#755 = DIRECTION('',(0.,1.,-2.2E-16));
#756 = ORIENTED_EDGE('',*,*,#757,.T.);
#757 = EDGE_CURVE('',#750,#750,#758,.T.);
#758 = CIRCLE('',#759,3.75);
#759 = AXIS2_PLACEMENT_3D('',#760,#761,#762);
#760 = CARTESIAN_POINT('',(41.,10.,20.));
#761 = DIRECTION('',(0.,-1.,0.));
#762 = DIRECTION('',(1.,0.,0.));
#763 = ORIENTED_EDGE('',*,*,#749,.F.);
#764 = ORIENTED_EDGE('',*,*,#565,.F.);
#765 = CYLINDRICAL_SURFACE('',#766,3.75);
#766 = AXIS2_PLACEMENT_3D('',#767,#768,#769);
#767 = CARTESIAN_POINT('',(41.,4.44E-15,20.));
#768 = DIRECTION('',(0.,-1.,2.2E-16));
#769 = DIRECTION('',(1.,0.,0.));
#770 = ADVANCED_FACE('',(#771),#790,.F.);
#771 = FACE_BOUND('',#772,.F.);
#772 = EDGE_LOOP('',(#773,#781,#788,#789));
#773 = ORIENTED_EDGE('',*,*,#774,.T.);
#774 = EDGE_CURVE('',#577,#775,#777,.T.);
#775 = VERTEX_POINT('',#776);
#776 = CARTESIAN_POINT('',(44.75,10.,10.));
#777 = LINE('',#778,#779);
#778 = CARTESIAN_POINT('',(44.75,2.22E-15,10.));
#779 = VECTOR('',#780,1.);
#780 = DIRECTION('',(0.,1.,-2.2E-16));
#781 = ORIENTED_EDGE('',*,*,#782,.T.);
#782 = EDGE_CURVE('',#775,#775,#783,.T.);
#783 = CIRCLE('',#784,3.75);
#784 = AXIS2_PLACEMENT_3D('',#785,#786,#787);
#785 = CARTESIAN_POINT('',(41.,10.,10.));
#786 = DIRECTION('',(0.,-1.,0.));
#787 = DIRECTION('',(1.,0.,0.));
#788 = ORIENTED_EDGE('',*,*,#774,.F.);
#789 = ORIENTED_EDGE('',*,*,#576,.F.);
#790 = CYLINDRICAL_SURFACE('',#791,3.75);
#791 = AXIS2_PLACEMENT_3D('',#792,#793,#794);
#792 = CARTESIAN_POINT('',(41.,2.22E-15,10.));
#793 = DIRECTION('',(0.,-1.,2.2E-16));
#794 = DIRECTION('',(1.,0.,0.));
#795 = ADVANCED_FACE('',(#796,#799),#802,.F.);
#796 = FACE_BOUND('',#797,.F.);
#797 = EDGE_LOOP('',(#798));
#798 = ORIENTED_EDGE('',*,*,#757,.F.);
#799 = FACE_BOUND('',#800,.F.);
#800 = EDGE_LOOP('',(#801));
#801 = ORIENTED_EDGE('',*,*,#675,.T.);
#802 = PLANE('',#803);
#803 = AXIS2_PLACEMENT_3D('',#804,#805,#806);
#804 = CARTESIAN_POINT('',(31.,10.,15.));
#805 = DIRECTION('',(0.,1.,-2.2E-16));
#806 = DIRECTION('',(0.,2.2E-16,1.));
#807 = ADVANCED_FACE('',(#808,#811),#814,.F.);
#808 = FACE_BOUND('',#809,.F.);
#809 = EDGE_LOOP('',(#810));
#810 = ORIENTED_EDGE('',*,*,#782,.F.);
#811 = FACE_BOUND('',#812,.F.);
#812 = EDGE_LOOP('',(#813));
#813 = ORIENTED_EDGE('',*,*,#700,.T.);
#814 = PLANE('',#815);
#815 = AXIS2_PLACEMENT_3D('',#816,#817,#818);
#816 = CARTESIAN_POINT('',(31.,10.,15.));
#817 = DIRECTION('',(0.,1.,-2.2E-16));
#818 = DIRECTION('',(0.,2.2E-16,1.));
#819 = ( GEOMETRIC_REPRESENTATION_CONTEXT(3) 
GLOBAL_UNCERTAINTY_ASSIGNED_CONTEXT((#823)) GLOBAL_UNIT_ASSIGNED_CONTEXT
((#820,#821,#822)) REPRESENTATION_CONTEXT('Context #1',
  '3D Context with UNIT and UNCERTAINTY') );
#820 = ( LENGTH_UNIT() NAMED_UNIT(*) SI_UNIT(.MILLI.,.METRE.) );
#821 = ( NAMED_UNIT(*) PLANE_ANGLE_UNIT() SI_UNIT($,.RADIAN.) );
#822 = ( NAMED_UNIT(*) SI_UNIT($,.STERADIAN.) SOLID_ANGLE_UNIT() );
#823 = UNCERTAINTY_MEASURE_WITH_UNIT(LENGTH_MEASURE(1.E-07),#820,
  'distance_accuracy_value','confusion accuracy');
#824 = PRODUCT_RELATED_PRODUCT_CATEGORY('part',$,(#7));
#825 = MECHANICAL_DESIGN_GEOMETRIC_PRESENTATION_REPRESENTATION('',(#826)
  ,#819);
#826 = STYLED_ITEM('color',(#827),#15);
#827 = PRESENTATION_STYLE_ASSIGNMENT((#828,#834));
#828 = SURFACE_STYLE_USAGE(.BOTH.,#829);
#829 = SURFACE_SIDE_STYLE('',(#830));
#830 = SURFACE_STYLE_FILL_AREA(#831);
#831 = FILL_AREA_STYLE('',(#832));
#832 = FILL_AREA_STYLE_COLOUR('',#833);
#833 = COLOUR_RGB('',0.800000010877,0.800000010877,0.800000010877);
#834 = CURVE_STYLE('',#835,POSITIVE_LENGTH_MEASURE(0.1),#836);
#835 = DRAUGHTING_PRE_DEFINED_CURVE_FONT('continuous');
#836 = COLOUR_RGB('',9.803921802644E-02,9.803921802644E-02,
  9.803921802644E-02);
ENDSEC;
END-ISO-10303-21;
