ISO-10303-21;
HEADER;
FILE_DESCRIPTION(('FreeCAD Model'),'2;1');
FILE_NAME('Open CASCADE Shape Model','2025-05-21T10:12:48',('Author'),(
    ''),'Open CASCADE STEP processor 7.6','FreeCAD','Unknown');
FILE_SCHEMA(('AUTOMOTIVE_DESIGN { 1 0 10303 214 1 1 1 1 }'));
ENDSEC;
DATA;
#1 = APPLICATION_PROTOCOL_DEFINITION('international standard',
  'automotive_design',2000,#2);
#2 = APPLICATION_CONTEXT(
  'core data for automotive mechanical design processes');
#3 = SHAPE_DEFINITION_REPRESENTATION(#4,#10);
#4 = PRODUCT_DEFINITION_SHAPE('','',#5);
#5 = PRODUCT_DEFINITION('design','',#6,#9);
#6 = PRODUCT_DEFINITION_FORMATION('','',#7);
#7 = PRODUCT('Pocket002','Pocket002','',(#8));
#8 = PRODUCT_CONTEXT('',#2,'mechanical');
#9 = PRODUCT_DEFINITION_CONTEXT('part definition',#2,'design');
#10 = ADVANCED_BREP_SHAPE_REPRESENTATION('',(#11,#15),#1043);
#11 = AXIS2_PLACEMENT_3D('',#12,#13,#14);
#12 = CARTESIAN_POINT('',(0.,0.,0.));
#13 = DIRECTION('',(0.,0.,1.));
#14 = DIRECTION('',(1.,0.,-0.));
#15 = MANIFOLD_SOLID_BREP('',#16);
#16 = CLOSED_SHELL('',(#17,#57,#159,#184,#249,#335,#357,#374,#391,#408,
    #420,#437,#460,#477,#494,#506,#579,#620,#655,#744,#769,#792,#820,
    #837,#862,#886,#928,#945,#962,#985,#1002,#1014,#1026));
#17 = ADVANCED_FACE('',(#18),#52,.F.);
#18 = FACE_BOUND('',#19,.F.);
#19 = EDGE_LOOP('',(#20,#30,#38,#46));
#20 = ORIENTED_EDGE('',*,*,#21,.F.);
#21 = EDGE_CURVE('',#22,#24,#26,.T.);
#22 = VERTEX_POINT('',#23);
#23 = CARTESIAN_POINT('',(-4.25,4.582575694956,-2.E-15));
#24 = VERTEX_POINT('',#25);
#25 = CARTESIAN_POINT('',(-4.25,5.,-2.E-15));
#26 = LINE('',#27,#28);
#27 = CARTESIAN_POINT('',(-4.25,-8.,0.));
#28 = VECTOR('',#29,1.);
#29 = DIRECTION('',(0.,1.,0.));
#30 = ORIENTED_EDGE('',*,*,#31,.F.);
#31 = EDGE_CURVE('',#32,#22,#34,.T.);
#32 = VERTEX_POINT('',#33);
#33 = CARTESIAN_POINT('',(-4.25,4.582575694956,3.));
#34 = LINE('',#35,#36);
#35 = CARTESIAN_POINT('',(-4.25,4.582575694956,-2.04E-15));
#36 = VECTOR('',#37,1.);
#37 = DIRECTION('',(0.,-4.4E-16,-1.));
#38 = ORIENTED_EDGE('',*,*,#39,.T.);
#39 = EDGE_CURVE('',#32,#40,#42,.T.);
#40 = VERTEX_POINT('',#41);
#41 = CARTESIAN_POINT('',(-4.25,5.,3.));
#42 = LINE('',#43,#44);
#43 = CARTESIAN_POINT('',(-4.25,-8.,3.));
#44 = VECTOR('',#45,1.);
#45 = DIRECTION('',(0.,1.,0.));
#46 = ORIENTED_EDGE('',*,*,#47,.F.);
#47 = EDGE_CURVE('',#24,#40,#48,.T.);
#48 = LINE('',#49,#50);
#49 = CARTESIAN_POINT('',(-4.25,5.,-2.22E-15));
#50 = VECTOR('',#51,1.);
#51 = DIRECTION('',(0.,4.4E-16,1.));
#52 = PLANE('',#53);
#53 = AXIS2_PLACEMENT_3D('',#54,#55,#56);
#54 = CARTESIAN_POINT('',(-4.25,-8.,3.55E-15));
#55 = DIRECTION('',(-1.,0.,0.));
#56 = DIRECTION('',(0.,1.,-4.4E-16));
#57 = ADVANCED_FACE('',(#58),#154,.T.);
#58 = FACE_BOUND('',#59,.T.);
#59 = EDGE_LOOP('',(#60,#70,#79,#87,#96,#105,#114,#122,#129,#130,#139,
    #147));
#60 = ORIENTED_EDGE('',*,*,#61,.F.);
#61 = EDGE_CURVE('',#62,#64,#66,.T.);
#62 = VERTEX_POINT('',#63);
#63 = CARTESIAN_POINT('',(2.,-8.,4.E-15));
#64 = VERTEX_POINT('',#65);
#65 = CARTESIAN_POINT('',(-1.25,-8.,4.E-15));
#66 = LINE('',#67,#68);
#67 = CARTESIAN_POINT('',(5.,-8.,0.));
#68 = VECTOR('',#69,1.);
#69 = DIRECTION('',(-1.,0.,0.));
#70 = ORIENTED_EDGE('',*,*,#71,.T.);
#71 = EDGE_CURVE('',#62,#72,#74,.T.);
#72 = VERTEX_POINT('',#73);
#73 = CARTESIAN_POINT('',(5.,-11.,5.E-15));
#74 = CIRCLE('',#75,3.);
#75 = AXIS2_PLACEMENT_3D('',#76,#77,#78);
#76 = CARTESIAN_POINT('',(2.,-11.,4.88E-15));
#77 = DIRECTION('',(-0.,-4.4E-16,-1.));
#78 = DIRECTION('',(0.,-1.,4.4E-16));
#79 = ORIENTED_EDGE('',*,*,#80,.T.);
#80 = EDGE_CURVE('',#72,#81,#83,.T.);
#81 = VERTEX_POINT('',#82);
#82 = CARTESIAN_POINT('',(5.,-14.36140661634,6.E-15));
#83 = LINE('',#84,#85);
#84 = CARTESIAN_POINT('',(5.,-8.,0.));
#85 = VECTOR('',#86,1.);
#86 = DIRECTION('',(0.,-1.,0.));
#87 = ORIENTED_EDGE('',*,*,#88,.F.);
#88 = EDGE_CURVE('',#89,#81,#91,.T.);
#89 = VERTEX_POINT('',#90);
#90 = CARTESIAN_POINT('',(2.413793103448,-17.33273212317,8.E-15));
#91 = CIRCLE('',#92,3.);
#92 = AXIS2_PLACEMENT_3D('',#93,#94,#95);
#93 = CARTESIAN_POINT('',(2.,-14.36140661634,6.38E-15));
#94 = DIRECTION('',(-0.,4.4E-16,1.));
#95 = DIRECTION('',(0.,-1.,4.4E-16));
#96 = ORIENTED_EDGE('',*,*,#97,.F.);
#97 = EDGE_CURVE('',#98,#89,#100,.T.);
#98 = VERTEX_POINT('',#99);
#99 = CARTESIAN_POINT('',(11.401819430503,13.275862068966,-6.E-15));
#100 = CIRCLE('',#101,17.5);
#101 = AXIS2_PLACEMENT_3D('',#102,#103,#104);
#102 = CARTESIAN_POINT('',(0.,0.,0.));
#103 = DIRECTION('',(0.,0.,1.));
#104 = DIRECTION('',(1.,0.,0.));
#105 = ORIENTED_EDGE('',*,*,#106,.F.);
#106 = EDGE_CURVE('',#107,#98,#109,.T.);
#107 = VERTEX_POINT('',#108);
#108 = CARTESIAN_POINT('',(9.447221813846,8.,-4.E-15));
#109 = CIRCLE('',#110,3.);
#110 = AXIS2_PLACEMENT_3D('',#111,#112,#113);
#111 = CARTESIAN_POINT('',(9.447221813846,11.,-4.88E-15));
#112 = DIRECTION('',(-0.,4.4E-16,1.));
#113 = DIRECTION('',(0.,-1.,4.4E-16));
#114 = ORIENTED_EDGE('',*,*,#115,.F.);
#115 = EDGE_CURVE('',#116,#107,#118,.T.);
#116 = VERTEX_POINT('',#117);
#117 = CARTESIAN_POINT('',(-1.25,8.,-4.E-15));
#118 = LINE('',#119,#120);
#119 = CARTESIAN_POINT('',(-4.25,8.,0.));
#120 = VECTOR('',#121,1.);
#121 = DIRECTION('',(1.,0.,0.));
#122 = ORIENTED_EDGE('',*,*,#123,.F.);
#123 = EDGE_CURVE('',#24,#116,#124,.T.);
#124 = CIRCLE('',#125,3.);
#125 = AXIS2_PLACEMENT_3D('',#126,#127,#128);
#126 = CARTESIAN_POINT('',(-1.25,5.,-2.22E-15));
#127 = DIRECTION('',(-0.,-4.4E-16,-1.));
#128 = DIRECTION('',(0.,-1.,4.4E-16));
#129 = ORIENTED_EDGE('',*,*,#21,.F.);
#130 = ORIENTED_EDGE('',*,*,#131,.T.);
#131 = EDGE_CURVE('',#22,#132,#134,.T.);
#132 = VERTEX_POINT('',#133);
#133 = CARTESIAN_POINT('',(-4.25,-4.582575694956,2.E-15));
#134 = CIRCLE('',#135,6.25);
#135 = AXIS2_PLACEMENT_3D('',#136,#137,#138);
#136 = CARTESIAN_POINT('',(0.,0.,0.));
#137 = DIRECTION('',(0.,0.,1.));
#138 = DIRECTION('',(1.,0.,0.));
#139 = ORIENTED_EDGE('',*,*,#140,.F.);
#140 = EDGE_CURVE('',#141,#132,#143,.T.);
#141 = VERTEX_POINT('',#142);
#142 = CARTESIAN_POINT('',(-4.25,-5.,2.E-15));
#143 = LINE('',#144,#145);
#144 = CARTESIAN_POINT('',(-4.25,-8.,0.));
#145 = VECTOR('',#146,1.);
#146 = DIRECTION('',(0.,1.,0.));
#147 = ORIENTED_EDGE('',*,*,#148,.T.);
#148 = EDGE_CURVE('',#141,#64,#149,.T.);
#149 = CIRCLE('',#150,3.);
#150 = AXIS2_PLACEMENT_3D('',#151,#152,#153);
#151 = CARTESIAN_POINT('',(-1.25,-5.,2.22E-15));
#152 = DIRECTION('',(-0.,4.4E-16,1.));
#153 = DIRECTION('',(0.,-1.,4.4E-16));
#154 = PLANE('',#155);
#155 = AXIS2_PLACEMENT_3D('',#156,#157,#158);
#156 = CARTESIAN_POINT('',(-1.784476351111,0.879367369077,-2.E-16));
#157 = DIRECTION('',(0.,-2.2E-16,-1.));
#158 = DIRECTION('',(0.,1.,-2.2E-16));
#159 = ADVANCED_FACE('',(#160),#179,.F.);
#160 = FACE_BOUND('',#161,.T.);
#161 = EDGE_LOOP('',(#162,#163,#171,#178));
#162 = ORIENTED_EDGE('',*,*,#123,.T.);
#163 = ORIENTED_EDGE('',*,*,#164,.T.);
#164 = EDGE_CURVE('',#116,#165,#167,.T.);
#165 = VERTEX_POINT('',#166);
#166 = CARTESIAN_POINT('',(-1.25,8.,3.));
#167 = LINE('',#168,#169);
#168 = CARTESIAN_POINT('',(-1.25,8.,-3.55E-15));
#169 = VECTOR('',#170,1.);
#170 = DIRECTION('',(0.,4.4E-16,1.));
#171 = ORIENTED_EDGE('',*,*,#172,.F.);
#172 = EDGE_CURVE('',#40,#165,#173,.T.);
#173 = CIRCLE('',#174,3.);
#174 = AXIS2_PLACEMENT_3D('',#175,#176,#177);
#175 = CARTESIAN_POINT('',(-1.25,5.,3.));
#176 = DIRECTION('',(-0.,-4.4E-16,-1.));
#177 = DIRECTION('',(0.,-1.,4.4E-16));
#178 = ORIENTED_EDGE('',*,*,#47,.F.);
#179 = CYLINDRICAL_SURFACE('',#180,3.);
#180 = AXIS2_PLACEMENT_3D('',#181,#182,#183);
#181 = CARTESIAN_POINT('',(-1.25,5.,-2.22E-15));
#182 = DIRECTION('',(0.,4.4E-16,1.));
#183 = DIRECTION('',(-1.,0.,0.));
#184 = ADVANCED_FACE('',(#185),#244,.T.);
#185 = FACE_BOUND('',#186,.F.);
#186 = EDGE_LOOP('',(#187,#196,#204,#213,#221,#228,#236,#243));
#187 = ORIENTED_EDGE('',*,*,#188,.F.);
#188 = EDGE_CURVE('',#189,#22,#191,.T.);
#189 = VERTEX_POINT('',#190);
#190 = CARTESIAN_POINT('',(4.802343178075,4.,0.));
#191 = CIRCLE('',#192,6.25);
#192 = AXIS2_PLACEMENT_3D('',#193,#194,#195);
#193 = CARTESIAN_POINT('',(0.,0.,0.));
#194 = DIRECTION('',(0.,0.,1.));
#195 = DIRECTION('',(1.,0.,0.));
#196 = ORIENTED_EDGE('',*,*,#197,.T.);
#197 = EDGE_CURVE('',#189,#198,#200,.T.);
#198 = VERTEX_POINT('',#199);
#199 = CARTESIAN_POINT('',(4.802343178075,4.,6.));
#200 = LINE('',#201,#202);
#201 = CARTESIAN_POINT('',(4.802343178075,4.,-1.78E-15));
#202 = VECTOR('',#203,1.);
#203 = DIRECTION('',(0.,4.4E-16,1.));
#204 = ORIENTED_EDGE('',*,*,#205,.T.);
#205 = EDGE_CURVE('',#198,#206,#208,.T.);
#206 = VERTEX_POINT('',#207);
#207 = CARTESIAN_POINT('',(4.802343178078,-3.999999999998,6.));
#208 = CIRCLE('',#209,6.25);
#209 = AXIS2_PLACEMENT_3D('',#210,#211,#212);
#210 = CARTESIAN_POINT('',(0.,3.E-15,6.));
#211 = DIRECTION('',(0.,0.,1.));
#212 = DIRECTION('',(1.,0.,0.));
#213 = ORIENTED_EDGE('',*,*,#214,.F.);
#214 = EDGE_CURVE('',#215,#206,#217,.T.);
#215 = VERTEX_POINT('',#216);
#216 = CARTESIAN_POINT('',(4.802343178078,-3.999999999998,0.));
#217 = LINE('',#218,#219);
#218 = CARTESIAN_POINT('',(4.802343178078,-3.999999999998,1.78E-15));
#219 = VECTOR('',#220,1.);
#220 = DIRECTION('',(0.,4.4E-16,1.));
#221 = ORIENTED_EDGE('',*,*,#222,.F.);
#222 = EDGE_CURVE('',#132,#215,#223,.T.);
#223 = CIRCLE('',#224,6.25);
#224 = AXIS2_PLACEMENT_3D('',#225,#226,#227);
#225 = CARTESIAN_POINT('',(0.,0.,0.));
#226 = DIRECTION('',(0.,0.,1.));
#227 = DIRECTION('',(1.,0.,0.));
#228 = ORIENTED_EDGE('',*,*,#229,.F.);
#229 = EDGE_CURVE('',#230,#132,#232,.T.);
#230 = VERTEX_POINT('',#231);
#231 = CARTESIAN_POINT('',(-4.25,-4.582575694956,3.));
#232 = LINE('',#233,#234);
#233 = CARTESIAN_POINT('',(-4.25,-4.582575694956,2.04E-15));
#234 = VECTOR('',#235,1.);
#235 = DIRECTION('',(0.,-4.4E-16,-1.));
#236 = ORIENTED_EDGE('',*,*,#237,.T.);
#237 = EDGE_CURVE('',#230,#32,#238,.T.);
#238 = CIRCLE('',#239,6.25);
#239 = AXIS2_PLACEMENT_3D('',#240,#241,#242);
#240 = CARTESIAN_POINT('',(0.,1.33E-15,3.));
#241 = DIRECTION('',(0.,-4.4E-16,-1.));
#242 = DIRECTION('',(1.,0.,0.));
#243 = ORIENTED_EDGE('',*,*,#31,.T.);
#244 = CYLINDRICAL_SURFACE('',#245,6.25);
#245 = AXIS2_PLACEMENT_3D('',#246,#247,#248);
#246 = CARTESIAN_POINT('',(0.,0.,0.));
#247 = DIRECTION('',(0.,-4.4E-16,-1.));
#248 = DIRECTION('',(1.,0.,0.));
#249 = ADVANCED_FACE('',(#250),#330,.F.);
#250 = FACE_BOUND('',#251,.F.);
#251 = EDGE_LOOP('',(#252,#262,#271,#279,#288,#297,#306,#312,#313,#314,
    #315,#323));
#252 = ORIENTED_EDGE('',*,*,#253,.F.);
#253 = EDGE_CURVE('',#254,#256,#258,.T.);
#254 = VERTEX_POINT('',#255);
#255 = CARTESIAN_POINT('',(2.,-8.,3.));
#256 = VERTEX_POINT('',#257);
#257 = CARTESIAN_POINT('',(-1.25,-8.,3.));
#258 = LINE('',#259,#260);
#259 = CARTESIAN_POINT('',(5.,-8.,3.));
#260 = VECTOR('',#261,1.);
#261 = DIRECTION('',(-1.,0.,0.));
#262 = ORIENTED_EDGE('',*,*,#263,.T.);
#263 = EDGE_CURVE('',#254,#264,#266,.T.);
#264 = VERTEX_POINT('',#265);
#265 = CARTESIAN_POINT('',(5.,-11.,3.));
#266 = CIRCLE('',#267,3.);
#267 = AXIS2_PLACEMENT_3D('',#268,#269,#270);
#268 = CARTESIAN_POINT('',(2.,-11.,3.));
#269 = DIRECTION('',(-0.,-4.4E-16,-1.));
#270 = DIRECTION('',(0.,-1.,4.4E-16));
#271 = ORIENTED_EDGE('',*,*,#272,.T.);
#272 = EDGE_CURVE('',#264,#273,#275,.T.);
#273 = VERTEX_POINT('',#274);
#274 = CARTESIAN_POINT('',(5.,-14.36140661634,3.));
#275 = LINE('',#276,#277);
#276 = CARTESIAN_POINT('',(5.,-8.,3.));
#277 = VECTOR('',#278,1.);
#278 = DIRECTION('',(0.,-1.,0.));
#279 = ORIENTED_EDGE('',*,*,#280,.F.);
#280 = EDGE_CURVE('',#281,#273,#283,.T.);
#281 = VERTEX_POINT('',#282);
#282 = CARTESIAN_POINT('',(2.413793103448,-17.33273212317,3.));
#283 = CIRCLE('',#284,3.);
#284 = AXIS2_PLACEMENT_3D('',#285,#286,#287);
#285 = CARTESIAN_POINT('',(2.,-14.36140661634,3.));
#286 = DIRECTION('',(-0.,4.4E-16,1.));
#287 = DIRECTION('',(0.,-1.,4.4E-16));
#288 = ORIENTED_EDGE('',*,*,#289,.F.);
#289 = EDGE_CURVE('',#290,#281,#292,.T.);
#290 = VERTEX_POINT('',#291);
#291 = CARTESIAN_POINT('',(11.401819430503,13.275862068966,3.));
#292 = CIRCLE('',#293,17.5);
#293 = AXIS2_PLACEMENT_3D('',#294,#295,#296);
#294 = CARTESIAN_POINT('',(0.,1.E-15,3.));
#295 = DIRECTION('',(0.,0.,1.));
#296 = DIRECTION('',(1.,0.,0.));
#297 = ORIENTED_EDGE('',*,*,#298,.F.);
#298 = EDGE_CURVE('',#299,#290,#301,.T.);
#299 = VERTEX_POINT('',#300);
#300 = CARTESIAN_POINT('',(9.447221813846,8.,3.));
#301 = CIRCLE('',#302,3.);
#302 = AXIS2_PLACEMENT_3D('',#303,#304,#305);
#303 = CARTESIAN_POINT('',(9.447221813846,11.,3.));
#304 = DIRECTION('',(-0.,4.4E-16,1.));
#305 = DIRECTION('',(0.,-1.,4.4E-16));
#306 = ORIENTED_EDGE('',*,*,#307,.F.);
#307 = EDGE_CURVE('',#165,#299,#308,.T.);
#308 = LINE('',#309,#310);
#309 = CARTESIAN_POINT('',(-4.25,8.,3.));
#310 = VECTOR('',#311,1.);
#311 = DIRECTION('',(1.,0.,0.));
#312 = ORIENTED_EDGE('',*,*,#172,.F.);
#313 = ORIENTED_EDGE('',*,*,#39,.F.);
#314 = ORIENTED_EDGE('',*,*,#237,.F.);
#315 = ORIENTED_EDGE('',*,*,#316,.F.);
#316 = EDGE_CURVE('',#317,#230,#319,.T.);
#317 = VERTEX_POINT('',#318);
#318 = CARTESIAN_POINT('',(-4.25,-5.,3.));
#319 = LINE('',#320,#321);
#320 = CARTESIAN_POINT('',(-4.25,-8.,3.));
#321 = VECTOR('',#322,1.);
#322 = DIRECTION('',(0.,1.,0.));
#323 = ORIENTED_EDGE('',*,*,#324,.T.);
#324 = EDGE_CURVE('',#317,#256,#325,.T.);
#325 = CIRCLE('',#326,3.);
#326 = AXIS2_PLACEMENT_3D('',#327,#328,#329);
#327 = CARTESIAN_POINT('',(-1.25,-5.,3.));
#328 = DIRECTION('',(-0.,4.4E-16,1.));
#329 = DIRECTION('',(0.,-1.,4.4E-16));
#330 = PLANE('',#331);
#331 = AXIS2_PLACEMENT_3D('',#332,#333,#334);
#332 = CARTESIAN_POINT('',(-1.784476351111,0.879367369077,3.));
#333 = DIRECTION('',(0.,-2.2E-16,-1.));
#334 = DIRECTION('',(0.,1.,-2.2E-16));
#335 = ADVANCED_FACE('',(#336),#352,.F.);
#336 = FACE_BOUND('',#337,.F.);
#337 = EDGE_LOOP('',(#338,#339,#345,#346));
#338 = ORIENTED_EDGE('',*,*,#61,.F.);
#339 = ORIENTED_EDGE('',*,*,#340,.T.);
#340 = EDGE_CURVE('',#62,#254,#341,.T.);
#341 = LINE('',#342,#343);
#342 = CARTESIAN_POINT('',(2.,-8.,3.55E-15));
#343 = VECTOR('',#344,1.);
#344 = DIRECTION('',(0.,4.4E-16,1.));
#345 = ORIENTED_EDGE('',*,*,#253,.T.);
#346 = ORIENTED_EDGE('',*,*,#347,.F.);
#347 = EDGE_CURVE('',#64,#256,#348,.T.);
#348 = LINE('',#349,#350);
#349 = CARTESIAN_POINT('',(-1.25,-8.,3.55E-15));
#350 = VECTOR('',#351,1.);
#351 = DIRECTION('',(0.,4.4E-16,1.));
#352 = PLANE('',#353);
#353 = AXIS2_PLACEMENT_3D('',#354,#355,#356);
#354 = CARTESIAN_POINT('',(5.,-8.,3.55E-15));
#355 = DIRECTION('',(0.,-1.,4.4E-16));
#356 = DIRECTION('',(-1.,0.,0.));
#357 = ADVANCED_FACE('',(#358),#369,.T.);
#358 = FACE_BOUND('',#359,.F.);
#359 = EDGE_LOOP('',(#360,#361,#367,#368));
#360 = ORIENTED_EDGE('',*,*,#71,.T.);
#361 = ORIENTED_EDGE('',*,*,#362,.T.);
#362 = EDGE_CURVE('',#72,#264,#363,.T.);
#363 = LINE('',#364,#365);
#364 = CARTESIAN_POINT('',(5.,-11.,4.88E-15));
#365 = VECTOR('',#366,1.);
#366 = DIRECTION('',(0.,4.4E-16,1.));
#367 = ORIENTED_EDGE('',*,*,#263,.F.);
#368 = ORIENTED_EDGE('',*,*,#340,.F.);
#369 = CYLINDRICAL_SURFACE('',#370,3.);
#370 = AXIS2_PLACEMENT_3D('',#371,#372,#373);
#371 = CARTESIAN_POINT('',(2.,-11.,4.88E-15));
#372 = DIRECTION('',(0.,4.4E-16,1.));
#373 = DIRECTION('',(0.,1.,-4.4E-16));
#374 = ADVANCED_FACE('',(#375),#386,.F.);
#375 = FACE_BOUND('',#376,.F.);
#376 = EDGE_LOOP('',(#377,#378,#379,#380));
#377 = ORIENTED_EDGE('',*,*,#148,.T.);
#378 = ORIENTED_EDGE('',*,*,#347,.T.);
#379 = ORIENTED_EDGE('',*,*,#324,.F.);
#380 = ORIENTED_EDGE('',*,*,#381,.F.);
#381 = EDGE_CURVE('',#141,#317,#382,.T.);
#382 = LINE('',#383,#384);
#383 = CARTESIAN_POINT('',(-4.25,-5.,2.22E-15));
#384 = VECTOR('',#385,1.);
#385 = DIRECTION('',(0.,4.4E-16,1.));
#386 = CYLINDRICAL_SURFACE('',#387,3.);
#387 = AXIS2_PLACEMENT_3D('',#388,#389,#390);
#388 = CARTESIAN_POINT('',(-1.25,-5.,2.22E-15));
#389 = DIRECTION('',(0.,4.4E-16,1.));
#390 = DIRECTION('',(-1.,0.,0.));
#391 = ADVANCED_FACE('',(#392),#403,.T.);
#392 = FACE_BOUND('',#393,.T.);
#393 = EDGE_LOOP('',(#394,#395,#396,#397));
#394 = ORIENTED_EDGE('',*,*,#80,.F.);
#395 = ORIENTED_EDGE('',*,*,#362,.T.);
#396 = ORIENTED_EDGE('',*,*,#272,.T.);
#397 = ORIENTED_EDGE('',*,*,#398,.F.);
#398 = EDGE_CURVE('',#81,#273,#399,.T.);
#399 = LINE('',#400,#401);
#400 = CARTESIAN_POINT('',(5.,-14.36140661634,6.38E-15));
#401 = VECTOR('',#402,1.);
#402 = DIRECTION('',(0.,4.4E-16,1.));
#403 = PLANE('',#404);
#404 = AXIS2_PLACEMENT_3D('',#405,#406,#407);
#405 = CARTESIAN_POINT('',(5.,-8.,3.55E-15));
#406 = DIRECTION('',(1.,0.,0.));
#407 = DIRECTION('',(0.,-1.,4.4E-16));
#408 = ADVANCED_FACE('',(#409),#415,.F.);
#409 = FACE_BOUND('',#410,.F.);
#410 = EDGE_LOOP('',(#411,#412,#413,#414));
#411 = ORIENTED_EDGE('',*,*,#140,.F.);
#412 = ORIENTED_EDGE('',*,*,#381,.T.);
#413 = ORIENTED_EDGE('',*,*,#316,.T.);
#414 = ORIENTED_EDGE('',*,*,#229,.T.);
#415 = PLANE('',#416);
#416 = AXIS2_PLACEMENT_3D('',#417,#418,#419);
#417 = CARTESIAN_POINT('',(-4.25,-8.,3.55E-15));
#418 = DIRECTION('',(-1.,0.,0.));
#419 = DIRECTION('',(0.,1.,-4.4E-16));
#420 = ADVANCED_FACE('',(#421),#432,.T.);
#421 = FACE_BOUND('',#422,.T.);
#422 = EDGE_LOOP('',(#423,#424,#425,#426));
#423 = ORIENTED_EDGE('',*,*,#88,.T.);
#424 = ORIENTED_EDGE('',*,*,#398,.T.);
#425 = ORIENTED_EDGE('',*,*,#280,.F.);
#426 = ORIENTED_EDGE('',*,*,#427,.F.);
#427 = EDGE_CURVE('',#89,#281,#428,.T.);
#428 = LINE('',#429,#430);
#429 = CARTESIAN_POINT('',(2.413793103448,-17.33273212317,7.7E-15));
#430 = VECTOR('',#431,1.);
#431 = DIRECTION('',(0.,4.4E-16,1.));
#432 = CYLINDRICAL_SURFACE('',#433,3.);
#433 = AXIS2_PLACEMENT_3D('',#434,#435,#436);
#434 = CARTESIAN_POINT('',(2.,-14.36140661634,6.38E-15));
#435 = DIRECTION('',(0.,4.4E-16,1.));
#436 = DIRECTION('',(0.137931034483,-0.99044183561,4.357944076684E-16));
#437 = ADVANCED_FACE('',(#438),#455,.T.);
#438 = FACE_BOUND('',#439,.T.);
#439 = EDGE_LOOP('',(#440,#441,#449));
#440 = ORIENTED_EDGE('',*,*,#131,.F.);
#441 = ORIENTED_EDGE('',*,*,#442,.F.);
#442 = EDGE_CURVE('',#443,#22,#445,.T.);
#443 = VERTEX_POINT('',#444);
#444 = CARTESIAN_POINT('',(-4.25,-4.0322E-09,0.));
#445 = LINE('',#446,#447);
#446 = CARTESIAN_POINT('',(-4.25,-8.,0.));
#447 = VECTOR('',#448,1.);
#448 = DIRECTION('',(0.,1.,0.));
#449 = ORIENTED_EDGE('',*,*,#450,.F.);
#450 = EDGE_CURVE('',#132,#443,#451,.T.);
#451 = LINE('',#452,#453);
#452 = CARTESIAN_POINT('',(-4.25,-8.,0.));
#453 = VECTOR('',#454,1.);
#454 = DIRECTION('',(0.,1.,0.));
#455 = PLANE('',#456);
#456 = AXIS2_PLACEMENT_3D('',#457,#458,#459);
#457 = CARTESIAN_POINT('',(3.818700519644,-4.3668E-13,0.));
#458 = DIRECTION('',(0.,-2.2E-16,-1.));
#459 = DIRECTION('',(0.,1.,-2.2E-16));
#460 = ADVANCED_FACE('',(#461),#472,.T.);
#461 = FACE_BOUND('',#462,.F.);
#462 = EDGE_LOOP('',(#463,#464,#470,#471));
#463 = ORIENTED_EDGE('',*,*,#97,.F.);
#464 = ORIENTED_EDGE('',*,*,#465,.T.);
#465 = EDGE_CURVE('',#98,#290,#466,.T.);
#466 = LINE('',#467,#468);
#467 = CARTESIAN_POINT('',(11.401819430503,13.275862068966,-5.9E-15));
#468 = VECTOR('',#469,1.);
#469 = DIRECTION('',(0.,4.4E-16,1.));
#470 = ORIENTED_EDGE('',*,*,#289,.T.);
#471 = ORIENTED_EDGE('',*,*,#427,.F.);
#472 = CYLINDRICAL_SURFACE('',#473,17.5);
#473 = AXIS2_PLACEMENT_3D('',#474,#475,#476);
#474 = CARTESIAN_POINT('',(0.,0.,0.));
#475 = DIRECTION('',(0.,-4.4E-16,-1.));
#476 = DIRECTION('',(1.,0.,0.));
#477 = ADVANCED_FACE('',(#478),#489,.T.);
#478 = FACE_BOUND('',#479,.T.);
#479 = EDGE_LOOP('',(#480,#481,#482,#483));
#480 = ORIENTED_EDGE('',*,*,#106,.T.);
#481 = ORIENTED_EDGE('',*,*,#465,.T.);
#482 = ORIENTED_EDGE('',*,*,#298,.F.);
#483 = ORIENTED_EDGE('',*,*,#484,.F.);
#484 = EDGE_CURVE('',#107,#299,#485,.T.);
#485 = LINE('',#486,#487);
#486 = CARTESIAN_POINT('',(9.447221813846,8.,-3.55E-15));
#487 = VECTOR('',#488,1.);
#488 = DIRECTION('',(0.,4.4E-16,1.));
#489 = CYLINDRICAL_SURFACE('',#490,3.);
#490 = AXIS2_PLACEMENT_3D('',#491,#492,#493);
#491 = CARTESIAN_POINT('',(9.447221813846,11.,-4.88E-15));
#492 = DIRECTION('',(0.,4.4E-16,1.));
#493 = DIRECTION('',(0.,-1.,4.4E-16));
#494 = ADVANCED_FACE('',(#495),#501,.F.);
#495 = FACE_BOUND('',#496,.F.);
#496 = EDGE_LOOP('',(#497,#498,#499,#500));
#497 = ORIENTED_EDGE('',*,*,#115,.F.);
#498 = ORIENTED_EDGE('',*,*,#164,.T.);
#499 = ORIENTED_EDGE('',*,*,#307,.T.);
#500 = ORIENTED_EDGE('',*,*,#484,.F.);
#501 = PLANE('',#502);
#502 = AXIS2_PLACEMENT_3D('',#503,#504,#505);
#503 = CARTESIAN_POINT('',(-4.25,8.,-3.55E-15));
#504 = DIRECTION('',(0.,1.,-4.4E-16));
#505 = DIRECTION('',(1.,0.,0.));
#506 = ADVANCED_FACE('',(#507),#574,.T.);
#507 = FACE_BOUND('',#508,.T.);
#508 = EDGE_LOOP('',(#509,#510,#518,#526,#534,#542,#550,#558,#566,#573)
  );
#509 = ORIENTED_EDGE('',*,*,#188,.F.);
#510 = ORIENTED_EDGE('',*,*,#511,.T.);
#511 = EDGE_CURVE('',#189,#512,#514,.T.);
#512 = VERTEX_POINT('',#513);
#513 = CARTESIAN_POINT('',(7.017949192431,4.,-1.E-15));
#514 = LINE('',#515,#516);
#515 = CARTESIAN_POINT('',(4.802343178075,4.,0.));
#516 = VECTOR('',#517,1.);
#517 = DIRECTION('',(1.,0.,0.));
#518 = ORIENTED_EDGE('',*,*,#519,.T.);
#519 = EDGE_CURVE('',#512,#520,#522,.T.);
#520 = VERTEX_POINT('',#521);
#521 = CARTESIAN_POINT('',(7.017949192431,2.,0.));
#522 = LINE('',#523,#524);
#523 = CARTESIAN_POINT('',(7.017949192431,4.,-1.78E-15));
#524 = VECTOR('',#525,1.);
#525 = DIRECTION('',(0.,-1.,4.4E-16));
#526 = ORIENTED_EDGE('',*,*,#527,.F.);
#527 = EDGE_CURVE('',#528,#520,#530,.T.);
#528 = VERTEX_POINT('',#529);
#529 = CARTESIAN_POINT('',(10.482050807569,2.,0.));
#530 = LINE('',#531,#532);
#531 = CARTESIAN_POINT('',(10.482050807569,2.,-4.E-17));
#532 = VECTOR('',#533,1.);
#533 = DIRECTION('',(-1.,0.,1.E-17));
#534 = ORIENTED_EDGE('',*,*,#535,.F.);
#535 = EDGE_CURVE('',#536,#528,#538,.T.);
#536 = VERTEX_POINT('',#537);
#537 = CARTESIAN_POINT('',(10.482050807569,4.,-1.E-15));
#538 = LINE('',#539,#540);
#539 = CARTESIAN_POINT('',(10.482050807569,4.,-1.81E-15));
#540 = VECTOR('',#541,1.);
#541 = DIRECTION('',(0.,-1.,4.4E-16));
#542 = ORIENTED_EDGE('',*,*,#543,.T.);
#543 = EDGE_CURVE('',#536,#544,#546,.T.);
#544 = VERTEX_POINT('',#545);
#545 = CARTESIAN_POINT('',(12.802343178075,4.,0.));
#546 = LINE('',#547,#548);
#547 = CARTESIAN_POINT('',(4.802343178075,4.,0.));
#548 = VECTOR('',#549,1.);
#549 = DIRECTION('',(1.,0.,0.));
#550 = ORIENTED_EDGE('',*,*,#551,.T.);
#551 = EDGE_CURVE('',#544,#552,#554,.T.);
#552 = VERTEX_POINT('',#553);
#553 = CARTESIAN_POINT('',(12.802343178075,0.5,0.));
#554 = LINE('',#555,#556);
#555 = CARTESIAN_POINT('',(12.802343178075,4.,0.));
#556 = VECTOR('',#557,1.);
#557 = DIRECTION('',(0.,-1.,0.));
#558 = ORIENTED_EDGE('',*,*,#559,.T.);
#559 = EDGE_CURVE('',#552,#560,#562,.T.);
#560 = VERTEX_POINT('',#561);
#561 = CARTESIAN_POINT('',(4.220485754034,0.5,0.));
#562 = LINE('',#563,#564);
#563 = CARTESIAN_POINT('',(12.802343178075,0.5,0.));
#564 = VECTOR('',#565,1.);
#565 = DIRECTION('',(-1.,0.,0.));
#566 = ORIENTED_EDGE('',*,*,#567,.T.);
#567 = EDGE_CURVE('',#560,#443,#568,.T.);
#568 = CIRCLE('',#569,4.25);
#569 = AXIS2_PLACEMENT_3D('',#570,#571,#572);
#570 = CARTESIAN_POINT('',(0.,0.,0.));
#571 = DIRECTION('',(0.,0.,1.));
#572 = DIRECTION('',(1.,0.,0.));
#573 = ORIENTED_EDGE('',*,*,#442,.T.);
#574 = PLANE('',#575);
#575 = AXIS2_PLACEMENT_3D('',#576,#577,#578);
#576 = CARTESIAN_POINT('',(3.818700519644,-4.3668E-13,0.));
#577 = DIRECTION('',(0.,-2.2E-16,-1.));
#578 = DIRECTION('',(0.,1.,-2.2E-16));
#579 = ADVANCED_FACE('',(#580),#615,.T.);
#580 = FACE_BOUND('',#581,.T.);
#581 = EDGE_LOOP('',(#582,#583,#584,#593,#601,#609));
#582 = ORIENTED_EDGE('',*,*,#222,.F.);
#583 = ORIENTED_EDGE('',*,*,#450,.T.);
#584 = ORIENTED_EDGE('',*,*,#585,.T.);
#585 = EDGE_CURVE('',#443,#586,#588,.T.);
#586 = VERTEX_POINT('',#587);
#587 = CARTESIAN_POINT('',(3.872983346207,-1.75,1.E-15));
#588 = CIRCLE('',#589,4.25);
#589 = AXIS2_PLACEMENT_3D('',#590,#591,#592);
#590 = CARTESIAN_POINT('',(0.,0.,0.));
#591 = DIRECTION('',(0.,0.,1.));
#592 = DIRECTION('',(1.,0.,0.));
#593 = ORIENTED_EDGE('',*,*,#594,.F.);
#594 = EDGE_CURVE('',#595,#586,#597,.T.);
#595 = VERTEX_POINT('',#596);
#596 = CARTESIAN_POINT('',(12.802343178083,-1.75,1.E-15));
#597 = LINE('',#598,#599);
#598 = CARTESIAN_POINT('',(18.,-1.75,0.));
#599 = VECTOR('',#600,1.);
#600 = DIRECTION('',(-1.,0.,0.));
#601 = ORIENTED_EDGE('',*,*,#602,.T.);
#602 = EDGE_CURVE('',#595,#603,#605,.T.);
#603 = VERTEX_POINT('',#604);
#604 = CARTESIAN_POINT('',(12.802343178083,-4.,0.));
#605 = LINE('',#606,#607);
#606 = CARTESIAN_POINT('',(12.802343178083,-0.5,0.));
#607 = VECTOR('',#608,1.);
#608 = DIRECTION('',(0.,-1.,0.));
#609 = ORIENTED_EDGE('',*,*,#610,.T.);
#610 = EDGE_CURVE('',#603,#215,#611,.T.);
#611 = LINE('',#612,#613);
#612 = CARTESIAN_POINT('',(12.802343178083,-4.,0.));
#613 = VECTOR('',#614,1.);
#614 = DIRECTION('',(-1.,0.,0.));
#615 = PLANE('',#616);
#616 = AXIS2_PLACEMENT_3D('',#617,#618,#619);
#617 = CARTESIAN_POINT('',(3.818700519644,-4.3668E-13,0.));
#618 = DIRECTION('',(0.,-2.2E-16,-1.));
#619 = DIRECTION('',(0.,1.,-2.2E-16));
#620 = ADVANCED_FACE('',(#621,#639),#650,.T.);
#621 = FACE_BOUND('',#622,.T.);
#622 = EDGE_LOOP('',(#623,#631,#637,#638));
#623 = ORIENTED_EDGE('',*,*,#624,.T.);
#624 = EDGE_CURVE('',#603,#625,#627,.T.);
#625 = VERTEX_POINT('',#626);
#626 = CARTESIAN_POINT('',(12.802343178083,-4.,6.));
#627 = LINE('',#628,#629);
#628 = CARTESIAN_POINT('',(12.802343178083,-4.,1.78E-15));
#629 = VECTOR('',#630,1.);
#630 = DIRECTION('',(0.,4.4E-16,1.));
#631 = ORIENTED_EDGE('',*,*,#632,.T.);
#632 = EDGE_CURVE('',#625,#206,#633,.T.);
#633 = LINE('',#634,#635);
#634 = CARTESIAN_POINT('',(12.802343178083,-4.,6.));
#635 = VECTOR('',#636,1.);
#636 = DIRECTION('',(-1.,0.,0.));
#637 = ORIENTED_EDGE('',*,*,#214,.F.);
#638 = ORIENTED_EDGE('',*,*,#610,.F.);
#639 = FACE_BOUND('',#640,.T.);
#640 = EDGE_LOOP('',(#641));
#641 = ORIENTED_EDGE('',*,*,#642,.T.);
#642 = EDGE_CURVE('',#643,#643,#645,.T.);
#643 = VERTEX_POINT('',#644);
#644 = CARTESIAN_POINT('',(7.,-4.,3.));
#645 = CIRCLE('',#646,1.75);
#646 = AXIS2_PLACEMENT_3D('',#647,#648,#649);
#647 = CARTESIAN_POINT('',(8.75,-4.,3.));
#648 = DIRECTION('',(0.,1.,-4.4E-16));
#649 = DIRECTION('',(-1.,0.,0.));
#650 = PLANE('',#651);
#651 = AXIS2_PLACEMENT_3D('',#652,#653,#654);
#652 = CARTESIAN_POINT('',(12.802343178083,-4.,1.78E-15));
#653 = DIRECTION('',(0.,-1.,4.4E-16));
#654 = DIRECTION('',(-1.,0.,0.));
#655 = ADVANCED_FACE('',(#656),#739,.F.);
#656 = FACE_BOUND('',#657,.F.);
#657 = EDGE_LOOP('',(#658,#659,#667,#675,#683,#691,#699,#707,#715,#724,
    #732,#738));
#658 = ORIENTED_EDGE('',*,*,#205,.F.);
#659 = ORIENTED_EDGE('',*,*,#660,.T.);
#660 = EDGE_CURVE('',#198,#661,#663,.T.);
#661 = VERTEX_POINT('',#662);
#662 = CARTESIAN_POINT('',(7.017949192431,4.,6.));
#663 = LINE('',#664,#665);
#664 = CARTESIAN_POINT('',(4.802343178075,4.,6.));
#665 = VECTOR('',#666,1.);
#666 = DIRECTION('',(1.,0.,0.));
#667 = ORIENTED_EDGE('',*,*,#668,.T.);
#668 = EDGE_CURVE('',#661,#669,#671,.T.);
#669 = VERTEX_POINT('',#670);
#670 = CARTESIAN_POINT('',(7.017949192431,2.,6.));
#671 = LINE('',#672,#673);
#672 = CARTESIAN_POINT('',(7.017949192431,4.,6.));
#673 = VECTOR('',#674,1.);
#674 = DIRECTION('',(0.,-1.,4.4E-16));
#675 = ORIENTED_EDGE('',*,*,#676,.T.);
#676 = EDGE_CURVE('',#669,#677,#679,.T.);
#677 = VERTEX_POINT('',#678);
#678 = CARTESIAN_POINT('',(10.482050807569,2.,6.));
#679 = LINE('',#680,#681);
#680 = CARTESIAN_POINT('',(7.017949192431,2.,6.));
#681 = VECTOR('',#682,1.);
#682 = DIRECTION('',(1.,0.,0.));
#683 = ORIENTED_EDGE('',*,*,#684,.F.);
#684 = EDGE_CURVE('',#685,#677,#687,.T.);
#685 = VERTEX_POINT('',#686);
#686 = CARTESIAN_POINT('',(10.482050807569,4.,6.));
#687 = LINE('',#688,#689);
#688 = CARTESIAN_POINT('',(10.482050807569,4.,6.));
#689 = VECTOR('',#690,1.);
#690 = DIRECTION('',(0.,-1.,4.4E-16));
#691 = ORIENTED_EDGE('',*,*,#692,.T.);
#692 = EDGE_CURVE('',#685,#693,#695,.T.);
#693 = VERTEX_POINT('',#694);
#694 = CARTESIAN_POINT('',(12.802343178075,4.,6.));
#695 = LINE('',#696,#697);
#696 = CARTESIAN_POINT('',(4.802343178075,4.,6.));
#697 = VECTOR('',#698,1.);
#698 = DIRECTION('',(1.,0.,0.));
#699 = ORIENTED_EDGE('',*,*,#700,.T.);
#700 = EDGE_CURVE('',#693,#701,#703,.T.);
#701 = VERTEX_POINT('',#702);
#702 = CARTESIAN_POINT('',(12.802343178075,0.5,6.));
#703 = LINE('',#704,#705);
#704 = CARTESIAN_POINT('',(12.802343178075,4.,6.));
#705 = VECTOR('',#706,1.);
#706 = DIRECTION('',(0.,-1.,0.));
#707 = ORIENTED_EDGE('',*,*,#708,.T.);
#708 = EDGE_CURVE('',#701,#709,#711,.T.);
#709 = VERTEX_POINT('',#710);
#710 = CARTESIAN_POINT('',(4.220485754034,0.5,6.));
#711 = LINE('',#712,#713);
#712 = CARTESIAN_POINT('',(12.802343178075,0.5,6.));
#713 = VECTOR('',#714,1.);
#714 = DIRECTION('',(-1.,0.,0.));
#715 = ORIENTED_EDGE('',*,*,#716,.T.);
#716 = EDGE_CURVE('',#709,#717,#719,.T.);
#717 = VERTEX_POINT('',#718);
#718 = CARTESIAN_POINT('',(3.872983346207,-1.75,6.));
#719 = CIRCLE('',#720,4.25);
#720 = AXIS2_PLACEMENT_3D('',#721,#722,#723);
#721 = CARTESIAN_POINT('',(0.,3.E-15,6.));
#722 = DIRECTION('',(0.,0.,1.));
#723 = DIRECTION('',(1.,0.,0.));
#724 = ORIENTED_EDGE('',*,*,#725,.F.);
#725 = EDGE_CURVE('',#726,#717,#728,.T.);
#726 = VERTEX_POINT('',#727);
#727 = CARTESIAN_POINT('',(12.802343178083,-1.75,6.));
#728 = LINE('',#729,#730);
#729 = CARTESIAN_POINT('',(10.909350259822,-1.75,6.));
#730 = VECTOR('',#731,1.);
#731 = DIRECTION('',(-1.,-0.,-0.));
#732 = ORIENTED_EDGE('',*,*,#733,.T.);
#733 = EDGE_CURVE('',#726,#625,#734,.T.);
#734 = LINE('',#735,#736);
#735 = CARTESIAN_POINT('',(12.802343178083,-0.5,6.));
#736 = VECTOR('',#737,1.);
#737 = DIRECTION('',(0.,-1.,0.));
#738 = ORIENTED_EDGE('',*,*,#632,.T.);
#739 = PLANE('',#740);
#740 = AXIS2_PLACEMENT_3D('',#741,#742,#743);
#741 = CARTESIAN_POINT('',(3.818700519644,-4.3368E-13,6.));
#742 = DIRECTION('',(0.,-2.2E-16,-1.));
#743 = DIRECTION('',(0.,1.,-2.2E-16));
#744 = ADVANCED_FACE('',(#745),#764,.T.);
#745 = FACE_BOUND('',#746,.T.);
#746 = EDGE_LOOP('',(#747,#748,#749,#750,#758));
#747 = ORIENTED_EDGE('',*,*,#511,.F.);
#748 = ORIENTED_EDGE('',*,*,#197,.T.);
#749 = ORIENTED_EDGE('',*,*,#660,.T.);
#750 = ORIENTED_EDGE('',*,*,#751,.F.);
#751 = EDGE_CURVE('',#752,#661,#754,.T.);
#752 = VERTEX_POINT('',#753);
#753 = CARTESIAN_POINT('',(5.285898384862,4.,3.));
#754 = LINE('',#755,#756);
#755 = CARTESIAN_POINT('',(5.285898384862,4.,3.));
#756 = VECTOR('',#757,1.);
#757 = DIRECTION('',(0.5,0.,0.866025403784));
#758 = ORIENTED_EDGE('',*,*,#759,.F.);
#759 = EDGE_CURVE('',#512,#752,#760,.T.);
#760 = LINE('',#761,#762);
#761 = CARTESIAN_POINT('',(7.017949192431,4.,-1.E-15));
#762 = VECTOR('',#763,1.);
#763 = DIRECTION('',(-0.5,0.,0.866025403784));
#764 = PLANE('',#765);
#765 = AXIS2_PLACEMENT_3D('',#766,#767,#768);
#766 = CARTESIAN_POINT('',(4.802343178075,4.,-1.78E-15));
#767 = DIRECTION('',(0.,1.,-4.4E-16));
#768 = DIRECTION('',(1.,0.,0.));
#769 = ADVANCED_FACE('',(#770),#787,.F.);
#770 = FACE_BOUND('',#771,.T.);
#771 = EDGE_LOOP('',(#772,#773,#779,#780,#786));
#772 = ORIENTED_EDGE('',*,*,#567,.F.);
#773 = ORIENTED_EDGE('',*,*,#774,.T.);
#774 = EDGE_CURVE('',#560,#709,#775,.T.);
#775 = LINE('',#776,#777);
#776 = CARTESIAN_POINT('',(4.220485754034,0.5,-2.2E-16));
#777 = VECTOR('',#778,1.);
#778 = DIRECTION('',(0.,4.4E-16,1.));
#779 = ORIENTED_EDGE('',*,*,#716,.T.);
#780 = ORIENTED_EDGE('',*,*,#781,.T.);
#781 = EDGE_CURVE('',#717,#586,#782,.T.);
#782 = LINE('',#783,#784);
#783 = CARTESIAN_POINT('',(3.872983346207,-1.75,7.8E-16));
#784 = VECTOR('',#785,1.);
#785 = DIRECTION('',(0.,-4.4E-16,-1.));
#786 = ORIENTED_EDGE('',*,*,#585,.F.);
#787 = CYLINDRICAL_SURFACE('',#788,4.25);
#788 = AXIS2_PLACEMENT_3D('',#789,#790,#791);
#789 = CARTESIAN_POINT('',(0.,0.,0.));
#790 = DIRECTION('',(0.,-4.4E-16,-1.));
#791 = DIRECTION('',(1.,0.,0.));
#792 = ADVANCED_FACE('',(#793,#804),#815,.T.);
#793 = FACE_BOUND('',#794,.T.);
#794 = EDGE_LOOP('',(#795,#801,#802,#803));
#795 = ORIENTED_EDGE('',*,*,#796,.T.);
#796 = EDGE_CURVE('',#552,#701,#797,.T.);
#797 = LINE('',#798,#799);
#798 = CARTESIAN_POINT('',(12.802343178075,0.5,-2.2E-16));
#799 = VECTOR('',#800,1.);
#800 = DIRECTION('',(0.,4.4E-16,1.));
#801 = ORIENTED_EDGE('',*,*,#708,.T.);
#802 = ORIENTED_EDGE('',*,*,#774,.F.);
#803 = ORIENTED_EDGE('',*,*,#559,.F.);
#804 = FACE_BOUND('',#805,.T.);
#805 = EDGE_LOOP('',(#806));
#806 = ORIENTED_EDGE('',*,*,#807,.T.);
#807 = EDGE_CURVE('',#808,#808,#810,.T.);
#808 = VERTEX_POINT('',#809);
#809 = CARTESIAN_POINT('',(7.,0.5,3.));
#810 = CIRCLE('',#811,1.75);
#811 = AXIS2_PLACEMENT_3D('',#812,#813,#814);
#812 = CARTESIAN_POINT('',(8.75,0.5,3.));
#813 = DIRECTION('',(0.,1.,-4.4E-16));
#814 = DIRECTION('',(-1.,0.,0.));
#815 = PLANE('',#816);
#816 = AXIS2_PLACEMENT_3D('',#817,#818,#819);
#817 = CARTESIAN_POINT('',(12.802343178075,0.5,-2.2E-16));
#818 = DIRECTION('',(0.,-1.,4.4E-16));
#819 = DIRECTION('',(-1.,0.,0.));
#820 = ADVANCED_FACE('',(#821),#832,.T.);
#821 = FACE_BOUND('',#822,.T.);
#822 = EDGE_LOOP('',(#823,#829,#830,#831));
#823 = ORIENTED_EDGE('',*,*,#824,.T.);
#824 = EDGE_CURVE('',#544,#693,#825,.T.);
#825 = LINE('',#826,#827);
#826 = CARTESIAN_POINT('',(12.802343178075,4.,-1.78E-15));
#827 = VECTOR('',#828,1.);
#828 = DIRECTION('',(0.,4.4E-16,1.));
#829 = ORIENTED_EDGE('',*,*,#700,.T.);
#830 = ORIENTED_EDGE('',*,*,#796,.F.);
#831 = ORIENTED_EDGE('',*,*,#551,.F.);
#832 = PLANE('',#833);
#833 = AXIS2_PLACEMENT_3D('',#834,#835,#836);
#834 = CARTESIAN_POINT('',(12.802343178075,4.,-1.78E-15));
#835 = DIRECTION('',(1.,0.,0.));
#836 = DIRECTION('',(0.,-1.,4.4E-16));
#837 = ADVANCED_FACE('',(#838),#857,.T.);
#838 = FACE_BOUND('',#839,.T.);
#839 = EDGE_LOOP('',(#840,#841,#849,#855,#856));
#840 = ORIENTED_EDGE('',*,*,#543,.F.);
#841 = ORIENTED_EDGE('',*,*,#842,.F.);
#842 = EDGE_CURVE('',#843,#536,#845,.T.);
#843 = VERTEX_POINT('',#844);
#844 = CARTESIAN_POINT('',(12.214101615138,4.,3.));
#845 = LINE('',#846,#847);
#846 = CARTESIAN_POINT('',(12.214101615138,4.,3.));
#847 = VECTOR('',#848,1.);
#848 = DIRECTION('',(-0.5,0.,-0.866025403784));
#849 = ORIENTED_EDGE('',*,*,#850,.F.);
#850 = EDGE_CURVE('',#685,#843,#851,.T.);
#851 = LINE('',#852,#853);
#852 = CARTESIAN_POINT('',(10.482050807569,4.,6.));
#853 = VECTOR('',#854,1.);
#854 = DIRECTION('',(0.5,0.,-0.866025403784));
#855 = ORIENTED_EDGE('',*,*,#692,.T.);
#856 = ORIENTED_EDGE('',*,*,#824,.F.);
#857 = PLANE('',#858);
#858 = AXIS2_PLACEMENT_3D('',#859,#860,#861);
#859 = CARTESIAN_POINT('',(4.802343178075,4.,-1.78E-15));
#860 = DIRECTION('',(0.,1.,-4.4E-16));
#861 = DIRECTION('',(1.,0.,0.));
#862 = ADVANCED_FACE('',(#863),#881,.F.);
#863 = FACE_BOUND('',#864,.F.);
#864 = EDGE_LOOP('',(#865,#873,#879,#880));
#865 = ORIENTED_EDGE('',*,*,#866,.T.);
#866 = EDGE_CURVE('',#843,#867,#869,.T.);
#867 = VERTEX_POINT('',#868);
#868 = CARTESIAN_POINT('',(12.214101615138,2.,3.));
#869 = LINE('',#870,#871);
#870 = CARTESIAN_POINT('',(12.214101615138,4.,3.));
#871 = VECTOR('',#872,1.);
#872 = DIRECTION('',(0.,-1.,4.4E-16));
#873 = ORIENTED_EDGE('',*,*,#874,.T.);
#874 = EDGE_CURVE('',#867,#528,#875,.T.);
#875 = LINE('',#876,#877);
#876 = CARTESIAN_POINT('',(12.214101615138,2.,3.));
#877 = VECTOR('',#878,1.);
#878 = DIRECTION('',(-0.5,0.,-0.866025403784));
#879 = ORIENTED_EDGE('',*,*,#535,.F.);
#880 = ORIENTED_EDGE('',*,*,#842,.F.);
#881 = PLANE('',#882);
#882 = AXIS2_PLACEMENT_3D('',#883,#884,#885);
#883 = CARTESIAN_POINT('',(12.214101615138,4.,3.));
#884 = DIRECTION('',(0.866025403784,-2.2E-16,-0.5));
#885 = DIRECTION('',(-0.5,-3.8E-16,-0.866025403784));
#886 = ADVANCED_FACE('',(#887,#912),#923,.T.);
#887 = FACE_BOUND('',#888,.T.);
#888 = EDGE_LOOP('',(#889,#897,#898,#904,#905,#906));
#889 = ORIENTED_EDGE('',*,*,#890,.T.);
#890 = EDGE_CURVE('',#891,#669,#893,.T.);
#891 = VERTEX_POINT('',#892);
#892 = CARTESIAN_POINT('',(5.285898384862,2.,3.));
#893 = LINE('',#894,#895);
#894 = CARTESIAN_POINT('',(5.285898384862,2.,3.));
#895 = VECTOR('',#896,1.);
#896 = DIRECTION('',(0.5,0.,0.866025403784));
#897 = ORIENTED_EDGE('',*,*,#676,.T.);
#898 = ORIENTED_EDGE('',*,*,#899,.T.);
#899 = EDGE_CURVE('',#677,#867,#900,.T.);
#900 = LINE('',#901,#902);
#901 = CARTESIAN_POINT('',(10.482050807569,2.,6.));
#902 = VECTOR('',#903,1.);
#903 = DIRECTION('',(0.5,0.,-0.866025403784));
#904 = ORIENTED_EDGE('',*,*,#874,.T.);
#905 = ORIENTED_EDGE('',*,*,#527,.T.);
#906 = ORIENTED_EDGE('',*,*,#907,.T.);
#907 = EDGE_CURVE('',#520,#891,#908,.T.);
#908 = LINE('',#909,#910);
#909 = CARTESIAN_POINT('',(7.017949192431,2.,0.));
#910 = VECTOR('',#911,1.);
#911 = DIRECTION('',(-0.5,0.,0.866025403784));
#912 = FACE_BOUND('',#913,.T.);
#913 = EDGE_LOOP('',(#914));
#914 = ORIENTED_EDGE('',*,*,#915,.F.);
#915 = EDGE_CURVE('',#916,#916,#918,.T.);
#916 = VERTEX_POINT('',#917);
#917 = CARTESIAN_POINT('',(7.,2.,3.));
#918 = CIRCLE('',#919,1.75);
#919 = AXIS2_PLACEMENT_3D('',#920,#921,#922);
#920 = CARTESIAN_POINT('',(8.75,2.,3.));
#921 = DIRECTION('',(0.,1.,-4.4E-16));
#922 = DIRECTION('',(-1.,0.,0.));
#923 = PLANE('',#924);
#924 = AXIS2_PLACEMENT_3D('',#925,#926,#927);
#925 = CARTESIAN_POINT('',(8.75,2.,3.));
#926 = DIRECTION('',(0.,1.,-3.E-16));
#927 = DIRECTION('',(0.,-3.E-16,-1.));
#928 = ADVANCED_FACE('',(#929),#940,.F.);
#929 = FACE_BOUND('',#930,.F.);
#930 = EDGE_LOOP('',(#931,#932,#933,#939));
#931 = ORIENTED_EDGE('',*,*,#519,.T.);
#932 = ORIENTED_EDGE('',*,*,#907,.T.);
#933 = ORIENTED_EDGE('',*,*,#934,.F.);
#934 = EDGE_CURVE('',#752,#891,#935,.T.);
#935 = LINE('',#936,#937);
#936 = CARTESIAN_POINT('',(5.285898384862,4.,3.));
#937 = VECTOR('',#938,1.);
#938 = DIRECTION('',(0.,-1.,4.4E-16));
#939 = ORIENTED_EDGE('',*,*,#759,.F.);
#940 = PLANE('',#941);
#941 = AXIS2_PLACEMENT_3D('',#942,#943,#944);
#942 = CARTESIAN_POINT('',(7.017949192431,4.,-1.78E-15));
#943 = DIRECTION('',(-0.866025403784,-2.2E-16,-0.5));
#944 = DIRECTION('',(-0.5,3.8E-16,0.866025403784));
#945 = ADVANCED_FACE('',(#946),#957,.T.);
#946 = FACE_BOUND('',#947,.T.);
#947 = EDGE_LOOP('',(#948,#949,#955,#956));
#948 = ORIENTED_EDGE('',*,*,#602,.F.);
#949 = ORIENTED_EDGE('',*,*,#950,.F.);
#950 = EDGE_CURVE('',#726,#595,#951,.T.);
#951 = LINE('',#952,#953);
#952 = CARTESIAN_POINT('',(12.802343178083,-1.75,7.8E-16));
#953 = VECTOR('',#954,1.);
#954 = DIRECTION('',(0.,-4.4E-16,-1.));
#955 = ORIENTED_EDGE('',*,*,#733,.T.);
#956 = ORIENTED_EDGE('',*,*,#624,.F.);
#957 = PLANE('',#958);
#958 = AXIS2_PLACEMENT_3D('',#959,#960,#961);
#959 = CARTESIAN_POINT('',(12.802343178083,-0.5,2.2E-16));
#960 = DIRECTION('',(1.,0.,0.));
#961 = DIRECTION('',(0.,-1.,4.4E-16));
#962 = ADVANCED_FACE('',(#963,#969),#980,.F.);
#963 = FACE_BOUND('',#964,.F.);
#964 = EDGE_LOOP('',(#965,#966,#967,#968));
#965 = ORIENTED_EDGE('',*,*,#594,.F.);
#966 = ORIENTED_EDGE('',*,*,#950,.F.);
#967 = ORIENTED_EDGE('',*,*,#725,.T.);
#968 = ORIENTED_EDGE('',*,*,#781,.T.);
#969 = FACE_BOUND('',#970,.F.);
#970 = EDGE_LOOP('',(#971));
#971 = ORIENTED_EDGE('',*,*,#972,.T.);
#972 = EDGE_CURVE('',#973,#973,#975,.T.);
#973 = VERTEX_POINT('',#974);
#974 = CARTESIAN_POINT('',(7.,-1.75,3.));
#975 = CIRCLE('',#976,1.75);
#976 = AXIS2_PLACEMENT_3D('',#977,#978,#979);
#977 = CARTESIAN_POINT('',(8.75,-1.75,3.));
#978 = DIRECTION('',(0.,1.,-4.4E-16));
#979 = DIRECTION('',(-1.,0.,0.));
#980 = PLANE('',#981);
#981 = AXIS2_PLACEMENT_3D('',#982,#983,#984);
#982 = CARTESIAN_POINT('',(18.,-1.75,7.8E-16));
#983 = DIRECTION('',(-0.,-1.,4.4E-16));
#984 = DIRECTION('',(-1.,0.,-0.));
#985 = ADVANCED_FACE('',(#986),#997,.F.);
#986 = FACE_BOUND('',#987,.F.);
#987 = EDGE_LOOP('',(#988,#989,#995,#996));
#988 = ORIENTED_EDGE('',*,*,#972,.F.);
#989 = ORIENTED_EDGE('',*,*,#990,.T.);
#990 = EDGE_CURVE('',#973,#643,#991,.T.);
#991 = LINE('',#992,#993);
#992 = CARTESIAN_POINT('',(7.,4.,3.));
#993 = VECTOR('',#994,1.);
#994 = DIRECTION('',(0.,-1.,4.4E-16));
#995 = ORIENTED_EDGE('',*,*,#642,.T.);
#996 = ORIENTED_EDGE('',*,*,#990,.F.);
#997 = CYLINDRICAL_SURFACE('',#998,1.75);
#998 = AXIS2_PLACEMENT_3D('',#999,#1000,#1001);
#999 = CARTESIAN_POINT('',(8.75,4.,3.));
#1000 = DIRECTION('',(0.,1.,-4.4E-16));
#1001 = DIRECTION('',(-1.,0.,0.));
#1002 = ADVANCED_FACE('',(#1003),#1009,.F.);
#1003 = FACE_BOUND('',#1004,.F.);
#1004 = EDGE_LOOP('',(#1005,#1006,#1007,#1008));
#1005 = ORIENTED_EDGE('',*,*,#684,.T.);
#1006 = ORIENTED_EDGE('',*,*,#899,.T.);
#1007 = ORIENTED_EDGE('',*,*,#866,.F.);
#1008 = ORIENTED_EDGE('',*,*,#850,.F.);
#1009 = PLANE('',#1010);
#1010 = AXIS2_PLACEMENT_3D('',#1011,#1012,#1013);
#1011 = CARTESIAN_POINT('',(10.482050807569,4.,6.));
#1012 = DIRECTION('',(0.866025403784,2.2E-16,0.5));
#1013 = DIRECTION('',(0.5,-3.8E-16,-0.866025403784));
#1014 = ADVANCED_FACE('',(#1015),#1021,.F.);
#1015 = FACE_BOUND('',#1016,.F.);
#1016 = EDGE_LOOP('',(#1017,#1018,#1019,#1020));
#1017 = ORIENTED_EDGE('',*,*,#934,.T.);
#1018 = ORIENTED_EDGE('',*,*,#890,.T.);
#1019 = ORIENTED_EDGE('',*,*,#668,.F.);
#1020 = ORIENTED_EDGE('',*,*,#751,.F.);
#1021 = PLANE('',#1022);
#1022 = AXIS2_PLACEMENT_3D('',#1023,#1024,#1025);
#1023 = CARTESIAN_POINT('',(5.285898384862,4.,3.));
#1024 = DIRECTION('',(-0.866025403784,2.2E-16,0.5));
#1025 = DIRECTION('',(0.5,3.8E-16,0.866025403784));
#1026 = ADVANCED_FACE('',(#1027),#1038,.F.);
#1027 = FACE_BOUND('',#1028,.F.);
#1028 = EDGE_LOOP('',(#1029,#1030,#1036,#1037));
#1029 = ORIENTED_EDGE('',*,*,#915,.F.);
#1030 = ORIENTED_EDGE('',*,*,#1031,.T.);
#1031 = EDGE_CURVE('',#916,#808,#1032,.T.);
#1032 = LINE('',#1033,#1034);
#1033 = CARTESIAN_POINT('',(7.,4.,3.));
#1034 = VECTOR('',#1035,1.);
#1035 = DIRECTION('',(0.,-1.,4.4E-16));
#1036 = ORIENTED_EDGE('',*,*,#807,.T.);
#1037 = ORIENTED_EDGE('',*,*,#1031,.F.);
#1038 = CYLINDRICAL_SURFACE('',#1039,1.75);
#1039 = AXIS2_PLACEMENT_3D('',#1040,#1041,#1042);
#1040 = CARTESIAN_POINT('',(8.75,4.,3.));
#1041 = DIRECTION('',(0.,1.,-4.4E-16));
#1042 = DIRECTION('',(-1.,0.,0.));
#1043 = ( GEOMETRIC_REPRESENTATION_CONTEXT(3) 
GLOBAL_UNCERTAINTY_ASSIGNED_CONTEXT((#1047)) 
GLOBAL_UNIT_ASSIGNED_CONTEXT((#1044,#1045,#1046)) REPRESENTATION_CONTEXT
('Context #1','3D Context with UNIT and UNCERTAINTY') );
#1044 = ( LENGTH_UNIT() NAMED_UNIT(*) SI_UNIT(.MILLI.,.METRE.) );
#1045 = ( NAMED_UNIT(*) PLANE_ANGLE_UNIT() SI_UNIT($,.RADIAN.) );
#1046 = ( NAMED_UNIT(*) SI_UNIT($,.STERADIAN.) SOLID_ANGLE_UNIT() );
#1047 = UNCERTAINTY_MEASURE_WITH_UNIT(LENGTH_MEASURE(1.E-07),#1044,
  'distance_accuracy_value','confusion accuracy');
#1048 = PRODUCT_RELATED_PRODUCT_CATEGORY('part',$,(#7));
#1049 = MECHANICAL_DESIGN_GEOMETRIC_PRESENTATION_REPRESENTATION('',(
    #1050),#1043);
#1050 = STYLED_ITEM('color',(#1051),#15);
#1051 = PRESENTATION_STYLE_ASSIGNMENT((#1052,#1058));
#1052 = SURFACE_STYLE_USAGE(.BOTH.,#1053);
#1053 = SURFACE_SIDE_STYLE('',(#1054));
#1054 = SURFACE_STYLE_FILL_AREA(#1055);
#1055 = FILL_AREA_STYLE('',(#1056));
#1056 = FILL_AREA_STYLE_COLOUR('',#1057);
#1057 = COLOUR_RGB('',0.800000010877,0.800000010877,0.800000010877);
#1058 = CURVE_STYLE('',#1059,POSITIVE_LENGTH_MEASURE(0.1),#1060);
#1059 = DRAUGHTING_PRE_DEFINED_CURVE_FONT('continuous');
#1060 = COLOUR_RGB('',9.803921802644E-02,9.803921802644E-02,
  9.803921802644E-02);
ENDSEC;
END-ISO-10303-21;
