ISO-10303-21;
HEADER;
FILE_DESCRIPTION(('FreeCAD Model'),'2;1');
FILE_NAME('Open CASCADE Shape Model','2025-05-21T09:49:29',('Author'),(
    ''),'Open CASCADE STEP processor 7.6','FreeCAD','Unknown');
FILE_SCHEMA(('AUTOMOTIVE_DESIGN { 1 0 10303 214 1 1 1 1 }'));
ENDSEC;
DATA;
#1 = APPLICATION_PROTOCOL_DEFINITION('international standard',
  'automotive_design',2000,#2);
#2 = APPLICATION_CONTEXT(
  'core data for automotive mechanical design processes');
#3 = SHAPE_DEFINITION_REPRESENTATION(#4,#10);
#4 = PRODUCT_DEFINITION_SHAPE('','',#5);
#5 = PRODUCT_DEFINITION('design','',#6,#9);
#6 = PRODUCT_DEFINITION_FORMATION('','',#7);
#7 = PRODUCT('Pad001','Pad001','',(#8));
#8 = PRODUCT_CONTEXT('',#2,'mechanical');
#9 = PRODUCT_DEFINITION_CONTEXT('part definition',#2,'design');
#10 = ADVANCED_BREP_SHAPE_REPRESENTATION('',(#11,#15),#500);
#11 = AXIS2_PLACEMENT_3D('',#12,#13,#14);
#12 = CARTESIAN_POINT('',(0.,0.,0.));
#13 = DIRECTION('',(0.,0.,1.));
#14 = DIRECTION('',(1.,0.,-0.));
#15 = MANIFOLD_SOLID_BREP('',#16);
#16 = CLOSED_SHELL('',(#17,#57,#88,#119,#188,#257,#296,#313,#330,#354,
    #376,#393,#410,#422,#446,#470,#487));
#17 = ADVANCED_FACE('',(#18),#52,.F.);
#18 = FACE_BOUND('',#19,.F.);
#19 = EDGE_LOOP('',(#20,#30,#38,#46));
#20 = ORIENTED_EDGE('',*,*,#21,.T.);
#21 = EDGE_CURVE('',#22,#24,#26,.T.);
#22 = VERTEX_POINT('',#23);
#23 = CARTESIAN_POINT('',(0.,0.,0.));
#24 = VERTEX_POINT('',#25);
#25 = CARTESIAN_POINT('',(0.,4.E-15,10.));
#26 = LINE('',#27,#28);
#27 = CARTESIAN_POINT('',(0.,0.,0.));
#28 = VECTOR('',#29,1.);
#29 = DIRECTION('',(0.,4.4E-16,1.));
#30 = ORIENTED_EDGE('',*,*,#31,.T.);
#31 = EDGE_CURVE('',#24,#32,#34,.T.);
#32 = VERTEX_POINT('',#33);
#33 = CARTESIAN_POINT('',(60.,4.E-15,10.));
#34 = LINE('',#35,#36);
#35 = CARTESIAN_POINT('',(0.,4.E-15,10.));
#36 = VECTOR('',#37,1.);
#37 = DIRECTION('',(1.,0.,0.));
#38 = ORIENTED_EDGE('',*,*,#39,.F.);
#39 = EDGE_CURVE('',#40,#32,#42,.T.);
#40 = VERTEX_POINT('',#41);
#41 = CARTESIAN_POINT('',(60.,0.,0.));
#42 = LINE('',#43,#44);
#43 = CARTESIAN_POINT('',(60.,0.,0.));
#44 = VECTOR('',#45,1.);
#45 = DIRECTION('',(0.,4.4E-16,1.));
#46 = ORIENTED_EDGE('',*,*,#47,.F.);
#47 = EDGE_CURVE('',#22,#40,#48,.T.);
#48 = LINE('',#49,#50);
#49 = CARTESIAN_POINT('',(0.,0.,0.));
#50 = VECTOR('',#51,1.);
#51 = DIRECTION('',(1.,0.,0.));
#52 = PLANE('',#53);
#53 = AXIS2_PLACEMENT_3D('',#54,#55,#56);
#54 = CARTESIAN_POINT('',(0.,0.,0.));
#55 = DIRECTION('',(0.,1.,-4.4E-16));
#56 = DIRECTION('',(1.,0.,0.));
#57 = ADVANCED_FACE('',(#58),#83,.F.);
#58 = FACE_BOUND('',#59,.F.);
#59 = EDGE_LOOP('',(#60,#68,#76,#82));
#60 = ORIENTED_EDGE('',*,*,#61,.F.);
#61 = EDGE_CURVE('',#62,#22,#64,.T.);
#62 = VERTEX_POINT('',#63);
#63 = CARTESIAN_POINT('',(0.,3.,0.));
#64 = LINE('',#65,#66);
#65 = CARTESIAN_POINT('',(0.,15.,0.));
#66 = VECTOR('',#67,1.);
#67 = DIRECTION('',(0.,-1.,0.));
#68 = ORIENTED_EDGE('',*,*,#69,.F.);
#69 = EDGE_CURVE('',#70,#62,#72,.T.);
#70 = VERTEX_POINT('',#71);
#71 = CARTESIAN_POINT('',(-0.,3.,10.));
#72 = LINE('',#73,#74);
#73 = CARTESIAN_POINT('',(0.,3.,15.2));
#74 = VECTOR('',#75,1.);
#75 = DIRECTION('',(0.,0.,-1.));
#76 = ORIENTED_EDGE('',*,*,#77,.T.);
#77 = EDGE_CURVE('',#70,#24,#78,.T.);
#78 = LINE('',#79,#80);
#79 = CARTESIAN_POINT('',(0.,15.,10.));
#80 = VECTOR('',#81,1.);
#81 = DIRECTION('',(0.,-1.,0.));
#82 = ORIENTED_EDGE('',*,*,#21,.F.);
#83 = PLANE('',#84);
#84 = AXIS2_PLACEMENT_3D('',#85,#86,#87);
#85 = CARTESIAN_POINT('',(0.,15.,-6.66E-15));
#86 = DIRECTION('',(1.,0.,0.));
#87 = DIRECTION('',(0.,-1.,4.4E-16));
#88 = ADVANCED_FACE('',(#89),#114,.F.);
#89 = FACE_BOUND('',#90,.F.);
#90 = EDGE_LOOP('',(#91,#92,#100,#108));
#91 = ORIENTED_EDGE('',*,*,#39,.T.);
#92 = ORIENTED_EDGE('',*,*,#93,.T.);
#93 = EDGE_CURVE('',#32,#94,#96,.T.);
#94 = VERTEX_POINT('',#95);
#95 = CARTESIAN_POINT('',(60.,15.,10.));
#96 = LINE('',#97,#98);
#97 = CARTESIAN_POINT('',(60.,4.E-15,10.));
#98 = VECTOR('',#99,1.);
#99 = DIRECTION('',(0.,1.,0.));
#100 = ORIENTED_EDGE('',*,*,#101,.F.);
#101 = EDGE_CURVE('',#102,#94,#104,.T.);
#102 = VERTEX_POINT('',#103);
#103 = CARTESIAN_POINT('',(60.,15.,0.));
#104 = LINE('',#105,#106);
#105 = CARTESIAN_POINT('',(60.,15.,-6.66E-15));
#106 = VECTOR('',#107,1.);
#107 = DIRECTION('',(0.,4.4E-16,1.));
#108 = ORIENTED_EDGE('',*,*,#109,.F.);
#109 = EDGE_CURVE('',#40,#102,#110,.T.);
#110 = LINE('',#111,#112);
#111 = CARTESIAN_POINT('',(60.,0.,0.));
#112 = VECTOR('',#113,1.);
#113 = DIRECTION('',(0.,1.,0.));
#114 = PLANE('',#115);
#115 = AXIS2_PLACEMENT_3D('',#116,#117,#118);
#116 = CARTESIAN_POINT('',(60.,0.,0.));
#117 = DIRECTION('',(-1.,0.,0.));
#118 = DIRECTION('',(0.,1.,-4.4E-16));
#119 = ADVANCED_FACE('',(#120,#147),#183,.T.);
#120 = FACE_BOUND('',#121,.T.);
#121 = EDGE_LOOP('',(#122,#123,#124,#132,#140,#146));
#122 = ORIENTED_EDGE('',*,*,#47,.F.);
#123 = ORIENTED_EDGE('',*,*,#61,.F.);
#124 = ORIENTED_EDGE('',*,*,#125,.T.);
#125 = EDGE_CURVE('',#62,#126,#128,.T.);
#126 = VERTEX_POINT('',#127);
#127 = CARTESIAN_POINT('',(0.,8.,0.));
#128 = LINE('',#129,#130);
#129 = CARTESIAN_POINT('',(0.,3.,0.));
#130 = VECTOR('',#131,1.);
#131 = DIRECTION('',(0.,1.,0.));
#132 = ORIENTED_EDGE('',*,*,#133,.F.);
#133 = EDGE_CURVE('',#134,#126,#136,.T.);
#134 = VERTEX_POINT('',#135);
#135 = CARTESIAN_POINT('',(0.,15.,0.));
#136 = LINE('',#137,#138);
#137 = CARTESIAN_POINT('',(0.,15.,0.));
#138 = VECTOR('',#139,1.);
#139 = DIRECTION('',(0.,-1.,0.));
#140 = ORIENTED_EDGE('',*,*,#141,.F.);
#141 = EDGE_CURVE('',#102,#134,#142,.T.);
#142 = LINE('',#143,#144);
#143 = CARTESIAN_POINT('',(60.,15.,0.));
#144 = VECTOR('',#145,1.);
#145 = DIRECTION('',(-1.,0.,0.));
#146 = ORIENTED_EDGE('',*,*,#109,.F.);
#147 = FACE_BOUND('',#148,.T.);
#148 = EDGE_LOOP('',(#149,#159,#168,#176));
#149 = ORIENTED_EDGE('',*,*,#150,.T.);
#150 = EDGE_CURVE('',#151,#153,#155,.T.);
#151 = VERTEX_POINT('',#152);
#152 = CARTESIAN_POINT('',(52.5,10.15,1.7763568394E-15));
#153 = VERTEX_POINT('',#154);
#154 = CARTESIAN_POINT('',(7.5,10.15,1.7763568394E-15));
#155 = LINE('',#156,#157);
#156 = CARTESIAN_POINT('',(52.5,10.15,1.7763568394E-15));
#157 = VECTOR('',#158,1.);
#158 = DIRECTION('',(-1.,4.E-17,0.));
#159 = ORIENTED_EDGE('',*,*,#160,.T.);
#160 = EDGE_CURVE('',#153,#161,#163,.T.);
#161 = VERTEX_POINT('',#162);
#162 = CARTESIAN_POINT('',(7.5,4.85,1.7763568394E-15));
#163 = CIRCLE('',#164,2.65);
#164 = AXIS2_PLACEMENT_3D('',#165,#166,#167);
#165 = CARTESIAN_POINT('',(7.5,7.5,1.7763568394E-15));
#166 = DIRECTION('',(0.,0.,1.));
#167 = DIRECTION('',(1.,0.,0.));
#168 = ORIENTED_EDGE('',*,*,#169,.T.);
#169 = EDGE_CURVE('',#161,#170,#172,.T.);
#170 = VERTEX_POINT('',#171);
#171 = CARTESIAN_POINT('',(52.5,4.85,1.7763568394E-15));
#172 = LINE('',#173,#174);
#173 = CARTESIAN_POINT('',(7.5,4.85,1.7763568394E-15));
#174 = VECTOR('',#175,1.);
#175 = DIRECTION('',(1.,0.,0.));
#176 = ORIENTED_EDGE('',*,*,#177,.T.);
#177 = EDGE_CURVE('',#170,#151,#178,.T.);
#178 = CIRCLE('',#179,2.65);
#179 = AXIS2_PLACEMENT_3D('',#180,#181,#182);
#180 = CARTESIAN_POINT('',(52.5,7.5,1.7763568394E-15));
#181 = DIRECTION('',(0.,0.,1.));
#182 = DIRECTION('',(1.,0.,0.));
#183 = PLANE('',#184);
#184 = AXIS2_PLACEMENT_3D('',#185,#186,#187);
#185 = CARTESIAN_POINT('',(30.,7.5,-1.67E-15));
#186 = DIRECTION('',(0.,-2.2E-16,-1.));
#187 = DIRECTION('',(0.,1.,-2.2E-16));
#188 = ADVANCED_FACE('',(#189,#216),#252,.F.);
#189 = FACE_BOUND('',#190,.F.);
#190 = EDGE_LOOP('',(#191,#192,#193,#201,#209,#215));
#191 = ORIENTED_EDGE('',*,*,#31,.F.);
#192 = ORIENTED_EDGE('',*,*,#77,.F.);
#193 = ORIENTED_EDGE('',*,*,#194,.F.);
#194 = EDGE_CURVE('',#195,#70,#197,.T.);
#195 = VERTEX_POINT('',#196);
#196 = CARTESIAN_POINT('',(-1.E-15,8.,10.));
#197 = LINE('',#198,#199);
#198 = CARTESIAN_POINT('',(0.,15.,10.));
#199 = VECTOR('',#200,1.);
#200 = DIRECTION('',(0.,-1.,0.));
#201 = ORIENTED_EDGE('',*,*,#202,.F.);
#202 = EDGE_CURVE('',#203,#195,#205,.T.);
#203 = VERTEX_POINT('',#204);
#204 = CARTESIAN_POINT('',(0.,15.,10.));
#205 = LINE('',#206,#207);
#206 = CARTESIAN_POINT('',(0.,15.,10.));
#207 = VECTOR('',#208,1.);
#208 = DIRECTION('',(0.,-1.,0.));
#209 = ORIENTED_EDGE('',*,*,#210,.F.);
#210 = EDGE_CURVE('',#94,#203,#211,.T.);
#211 = LINE('',#212,#213);
#212 = CARTESIAN_POINT('',(60.,15.,10.));
#213 = VECTOR('',#214,1.);
#214 = DIRECTION('',(-1.,0.,0.));
#215 = ORIENTED_EDGE('',*,*,#93,.F.);
#216 = FACE_BOUND('',#217,.F.);
#217 = EDGE_LOOP('',(#218,#228,#237,#245));
#218 = ORIENTED_EDGE('',*,*,#219,.T.);
#219 = EDGE_CURVE('',#220,#222,#224,.T.);
#220 = VERTEX_POINT('',#221);
#221 = CARTESIAN_POINT('',(52.5,10.15,10.));
#222 = VERTEX_POINT('',#223);
#223 = CARTESIAN_POINT('',(7.5,10.15,10.));
#224 = LINE('',#225,#226);
#225 = CARTESIAN_POINT('',(52.5,10.15,10.));
#226 = VECTOR('',#227,1.);
#227 = DIRECTION('',(-1.,4.E-17,0.));
#228 = ORIENTED_EDGE('',*,*,#229,.T.);
#229 = EDGE_CURVE('',#222,#230,#232,.T.);
#230 = VERTEX_POINT('',#231);
#231 = CARTESIAN_POINT('',(7.5,4.85,10.));
#232 = CIRCLE('',#233,2.65);
#233 = AXIS2_PLACEMENT_3D('',#234,#235,#236);
#234 = CARTESIAN_POINT('',(7.5,7.5,10.));
#235 = DIRECTION('',(0.,0.,1.));
#236 = DIRECTION('',(1.,0.,0.));
#237 = ORIENTED_EDGE('',*,*,#238,.T.);
#238 = EDGE_CURVE('',#230,#239,#241,.T.);
#239 = VERTEX_POINT('',#240);
#240 = CARTESIAN_POINT('',(52.5,4.85,10.));
#241 = LINE('',#242,#243);
#242 = CARTESIAN_POINT('',(7.5,4.85,10.));
#243 = VECTOR('',#244,1.);
#244 = DIRECTION('',(1.,0.,0.));
#245 = ORIENTED_EDGE('',*,*,#246,.T.);
#246 = EDGE_CURVE('',#239,#220,#247,.T.);
#247 = CIRCLE('',#248,2.65);
#248 = AXIS2_PLACEMENT_3D('',#249,#250,#251);
#249 = CARTESIAN_POINT('',(52.5,7.5,10.));
#250 = DIRECTION('',(0.,0.,1.));
#251 = DIRECTION('',(1.,0.,0.));
#252 = PLANE('',#253);
#253 = AXIS2_PLACEMENT_3D('',#254,#255,#256);
#254 = CARTESIAN_POINT('',(30.,7.5,10.));
#255 = DIRECTION('',(0.,-2.2E-16,-1.));
#256 = DIRECTION('',(0.,1.,-2.2E-16));
#257 = ADVANCED_FACE('',(#258),#291,.T.);
#258 = FACE_BOUND('',#259,.T.);
#259 = EDGE_LOOP('',(#260,#270,#278,#284,#285));
#260 = ORIENTED_EDGE('',*,*,#261,.T.);
#261 = EDGE_CURVE('',#262,#264,#266,.T.);
#262 = VERTEX_POINT('',#263);
#263 = CARTESIAN_POINT('',(0.,3.,15.2));
#264 = VERTEX_POINT('',#265);
#265 = CARTESIAN_POINT('',(-19.5,3.,15.2));
#266 = LINE('',#267,#268);
#267 = CARTESIAN_POINT('',(-6.7E-16,3.,15.2));
#268 = VECTOR('',#269,1.);
#269 = DIRECTION('',(-1.,-2.2E-16,-0.));
#270 = ORIENTED_EDGE('',*,*,#271,.T.);
#271 = EDGE_CURVE('',#264,#272,#274,.T.);
#272 = VERTEX_POINT('',#273);
#273 = CARTESIAN_POINT('',(-19.5,3.,0.));
#274 = LINE('',#275,#276);
#275 = CARTESIAN_POINT('',(-19.5,3.,15.2));
#276 = VECTOR('',#277,1.);
#277 = DIRECTION('',(0.,0.,-1.));
#278 = ORIENTED_EDGE('',*,*,#279,.F.);
#279 = EDGE_CURVE('',#62,#272,#280,.T.);
#280 = LINE('',#281,#282);
#281 = CARTESIAN_POINT('',(-6.7E-16,3.,-3.3E-16));
#282 = VECTOR('',#283,1.);
#283 = DIRECTION('',(-1.,-2.2E-16,-0.));
#284 = ORIENTED_EDGE('',*,*,#69,.F.);
#285 = ORIENTED_EDGE('',*,*,#286,.F.);
#286 = EDGE_CURVE('',#262,#70,#287,.T.);
#287 = LINE('',#288,#289);
#288 = CARTESIAN_POINT('',(0.,3.,15.2));
#289 = VECTOR('',#290,1.);
#290 = DIRECTION('',(0.,0.,-1.));
#291 = PLANE('',#292);
#292 = AXIS2_PLACEMENT_3D('',#293,#294,#295);
#293 = CARTESIAN_POINT('',(-6.7E-16,3.,15.2));
#294 = DIRECTION('',(2.2E-16,-1.,1.1E-16));
#295 = DIRECTION('',(0.,-1.1E-16,-1.));
#296 = ADVANCED_FACE('',(#297),#308,.F.);
#297 = FACE_BOUND('',#298,.F.);
#298 = EDGE_LOOP('',(#299,#300,#301,#307));
#299 = ORIENTED_EDGE('',*,*,#101,.T.);
#300 = ORIENTED_EDGE('',*,*,#210,.T.);
#301 = ORIENTED_EDGE('',*,*,#302,.F.);
#302 = EDGE_CURVE('',#134,#203,#303,.T.);
#303 = LINE('',#304,#305);
#304 = CARTESIAN_POINT('',(0.,15.,-6.66E-15));
#305 = VECTOR('',#306,1.);
#306 = DIRECTION('',(0.,4.4E-16,1.));
#307 = ORIENTED_EDGE('',*,*,#141,.F.);
#308 = PLANE('',#309);
#309 = AXIS2_PLACEMENT_3D('',#310,#311,#312);
#310 = CARTESIAN_POINT('',(60.,15.,-6.66E-15));
#311 = DIRECTION('',(0.,-1.,4.4E-16));
#312 = DIRECTION('',(-1.,0.,0.));
#313 = ADVANCED_FACE('',(#314),#325,.F.);
#314 = FACE_BOUND('',#315,.F.);
#315 = EDGE_LOOP('',(#316,#317,#318,#319));
#316 = ORIENTED_EDGE('',*,*,#133,.F.);
#317 = ORIENTED_EDGE('',*,*,#302,.T.);
#318 = ORIENTED_EDGE('',*,*,#202,.T.);
#319 = ORIENTED_EDGE('',*,*,#320,.F.);
#320 = EDGE_CURVE('',#126,#195,#321,.T.);
#321 = LINE('',#322,#323);
#322 = CARTESIAN_POINT('',(0.,8.,0.));
#323 = VECTOR('',#324,1.);
#324 = DIRECTION('',(0.,0.,1.));
#325 = PLANE('',#326);
#326 = AXIS2_PLACEMENT_3D('',#327,#328,#329);
#327 = CARTESIAN_POINT('',(0.,15.,-6.66E-15));
#328 = DIRECTION('',(1.,0.,0.));
#329 = DIRECTION('',(0.,-1.,4.4E-16));
#330 = ADVANCED_FACE('',(#331),#349,.T.);
#331 = FACE_BOUND('',#332,.T.);
#332 = EDGE_LOOP('',(#333,#334,#342,#348));
#333 = ORIENTED_EDGE('',*,*,#279,.T.);
#334 = ORIENTED_EDGE('',*,*,#335,.T.);
#335 = EDGE_CURVE('',#272,#336,#338,.T.);
#336 = VERTEX_POINT('',#337);
#337 = CARTESIAN_POINT('',(-19.5,8.,0.));
#338 = LINE('',#339,#340);
#339 = CARTESIAN_POINT('',(-19.5,3.,0.));
#340 = VECTOR('',#341,1.);
#341 = DIRECTION('',(0.,1.,0.));
#342 = ORIENTED_EDGE('',*,*,#343,.F.);
#343 = EDGE_CURVE('',#126,#336,#344,.T.);
#344 = LINE('',#345,#346);
#345 = CARTESIAN_POINT('',(-1.78E-15,8.,-8.9E-16));
#346 = VECTOR('',#347,1.);
#347 = DIRECTION('',(-1.,-2.2E-16,-0.));
#348 = ORIENTED_EDGE('',*,*,#125,.F.);
#349 = PLANE('',#350);
#350 = AXIS2_PLACEMENT_3D('',#351,#352,#353);
#351 = CARTESIAN_POINT('',(-6.7E-16,3.,-3.3E-16));
#352 = DIRECTION('',(0.,-1.1E-16,-1.));
#353 = DIRECTION('',(-2.2E-16,1.,-1.1E-16));
#354 = ADVANCED_FACE('',(#355),#371,.F.);
#355 = FACE_BOUND('',#356,.F.);
#356 = EDGE_LOOP('',(#357,#363,#364,#370));
#357 = ORIENTED_EDGE('',*,*,#358,.T.);
#358 = EDGE_CURVE('',#220,#151,#359,.T.);
#359 = LINE('',#360,#361);
#360 = CARTESIAN_POINT('',(52.5,10.15,10.));
#361 = VECTOR('',#362,1.);
#362 = DIRECTION('',(0.,-4.4E-16,-1.));
#363 = ORIENTED_EDGE('',*,*,#150,.T.);
#364 = ORIENTED_EDGE('',*,*,#365,.F.);
#365 = EDGE_CURVE('',#222,#153,#366,.T.);
#366 = LINE('',#367,#368);
#367 = CARTESIAN_POINT('',(7.5,10.15,10.));
#368 = VECTOR('',#369,1.);
#369 = DIRECTION('',(0.,-4.4E-16,-1.));
#370 = ORIENTED_EDGE('',*,*,#219,.F.);
#371 = PLANE('',#372);
#372 = AXIS2_PLACEMENT_3D('',#373,#374,#375);
#373 = CARTESIAN_POINT('',(52.5,10.15,10.));
#374 = DIRECTION('',(4.E-17,1.,-4.4E-16));
#375 = DIRECTION('',(-1.,4.E-17,-8.480557193599E-49));
#376 = ADVANCED_FACE('',(#377),#388,.F.);
#377 = FACE_BOUND('',#378,.F.);
#378 = EDGE_LOOP('',(#379,#385,#386,#387));
#379 = ORIENTED_EDGE('',*,*,#380,.T.);
#380 = EDGE_CURVE('',#239,#170,#381,.T.);
#381 = LINE('',#382,#383);
#382 = CARTESIAN_POINT('',(52.5,4.85,10.));
#383 = VECTOR('',#384,1.);
#384 = DIRECTION('',(0.,-4.4E-16,-1.));
#385 = ORIENTED_EDGE('',*,*,#177,.T.);
#386 = ORIENTED_EDGE('',*,*,#358,.F.);
#387 = ORIENTED_EDGE('',*,*,#246,.F.);
#388 = CYLINDRICAL_SURFACE('',#389,2.65);
#389 = AXIS2_PLACEMENT_3D('',#390,#391,#392);
#390 = CARTESIAN_POINT('',(52.5,7.5,10.));
#391 = DIRECTION('',(0.,4.4E-16,1.));
#392 = DIRECTION('',(1.,0.,0.));
#393 = ADVANCED_FACE('',(#394),#405,.F.);
#394 = FACE_BOUND('',#395,.F.);
#395 = EDGE_LOOP('',(#396,#402,#403,#404));
#396 = ORIENTED_EDGE('',*,*,#397,.T.);
#397 = EDGE_CURVE('',#230,#161,#398,.T.);
#398 = LINE('',#399,#400);
#399 = CARTESIAN_POINT('',(7.5,4.85,10.));
#400 = VECTOR('',#401,1.);
#401 = DIRECTION('',(0.,-4.4E-16,-1.));
#402 = ORIENTED_EDGE('',*,*,#169,.T.);
#403 = ORIENTED_EDGE('',*,*,#380,.F.);
#404 = ORIENTED_EDGE('',*,*,#238,.F.);
#405 = PLANE('',#406);
#406 = AXIS2_PLACEMENT_3D('',#407,#408,#409);
#407 = CARTESIAN_POINT('',(7.5,4.85,10.));
#408 = DIRECTION('',(0.,-1.,4.4E-16));
#409 = DIRECTION('',(1.,0.,0.));
#410 = ADVANCED_FACE('',(#411),#417,.F.);
#411 = FACE_BOUND('',#412,.F.);
#412 = EDGE_LOOP('',(#413,#414,#415,#416));
#413 = ORIENTED_EDGE('',*,*,#365,.T.);
#414 = ORIENTED_EDGE('',*,*,#160,.T.);
#415 = ORIENTED_EDGE('',*,*,#397,.F.);
#416 = ORIENTED_EDGE('',*,*,#229,.F.);
#417 = CYLINDRICAL_SURFACE('',#418,2.65);
#418 = AXIS2_PLACEMENT_3D('',#419,#420,#421);
#419 = CARTESIAN_POINT('',(7.5,7.5,10.));
#420 = DIRECTION('',(0.,4.4E-16,1.));
#421 = DIRECTION('',(1.,0.,0.));
#422 = ADVANCED_FACE('',(#423),#441,.T.);
#423 = FACE_BOUND('',#424,.T.);
#424 = EDGE_LOOP('',(#425,#433,#439,#440));
#425 = ORIENTED_EDGE('',*,*,#426,.T.);
#426 = EDGE_CURVE('',#195,#427,#429,.T.);
#427 = VERTEX_POINT('',#428);
#428 = CARTESIAN_POINT('',(0.,8.,15.2));
#429 = LINE('',#430,#431);
#430 = CARTESIAN_POINT('',(0.,8.,0.));
#431 = VECTOR('',#432,1.);
#432 = DIRECTION('',(0.,0.,1.));
#433 = ORIENTED_EDGE('',*,*,#434,.T.);
#434 = EDGE_CURVE('',#427,#262,#435,.T.);
#435 = LINE('',#436,#437);
#436 = CARTESIAN_POINT('',(0.,8.,15.2));
#437 = VECTOR('',#438,1.);
#438 = DIRECTION('',(0.,-1.,0.));
#439 = ORIENTED_EDGE('',*,*,#286,.T.);
#440 = ORIENTED_EDGE('',*,*,#194,.F.);
#441 = PLANE('',#442);
#442 = AXIS2_PLACEMENT_3D('',#443,#444,#445);
#443 = CARTESIAN_POINT('',(-1.22E-15,5.5,7.6));
#444 = DIRECTION('',(1.,2.2E-16,0.));
#445 = DIRECTION('',(-2.2E-16,1.,0.));
#446 = ADVANCED_FACE('',(#447),#465,.T.);
#447 = FACE_BOUND('',#448,.T.);
#448 = EDGE_LOOP('',(#449,#457,#463,#464));
#449 = ORIENTED_EDGE('',*,*,#450,.T.);
#450 = EDGE_CURVE('',#427,#451,#453,.T.);
#451 = VERTEX_POINT('',#452);
#452 = CARTESIAN_POINT('',(-19.5,8.,15.2));
#453 = LINE('',#454,#455);
#454 = CARTESIAN_POINT('',(-1.78E-15,8.,15.2));
#455 = VECTOR('',#456,1.);
#456 = DIRECTION('',(-1.,-2.2E-16,-0.));
#457 = ORIENTED_EDGE('',*,*,#458,.T.);
#458 = EDGE_CURVE('',#451,#264,#459,.T.);
#459 = LINE('',#460,#461);
#460 = CARTESIAN_POINT('',(-19.5,8.,15.2));
#461 = VECTOR('',#462,1.);
#462 = DIRECTION('',(0.,-1.,0.));
#463 = ORIENTED_EDGE('',*,*,#261,.F.);
#464 = ORIENTED_EDGE('',*,*,#434,.F.);
#465 = PLANE('',#466);
#466 = AXIS2_PLACEMENT_3D('',#467,#468,#469);
#467 = CARTESIAN_POINT('',(-1.78E-15,8.,15.2));
#468 = DIRECTION('',(-0.,1.1E-16,1.));
#469 = DIRECTION('',(2.2E-16,-1.,1.1E-16));
#470 = ADVANCED_FACE('',(#471),#482,.F.);
#471 = FACE_BOUND('',#472,.F.);
#472 = EDGE_LOOP('',(#473,#474,#475,#476));
#473 = ORIENTED_EDGE('',*,*,#458,.T.);
#474 = ORIENTED_EDGE('',*,*,#271,.T.);
#475 = ORIENTED_EDGE('',*,*,#335,.T.);
#476 = ORIENTED_EDGE('',*,*,#477,.T.);
#477 = EDGE_CURVE('',#336,#451,#478,.T.);
#478 = LINE('',#479,#480);
#479 = CARTESIAN_POINT('',(-19.5,8.,0.));
#480 = VECTOR('',#481,1.);
#481 = DIRECTION('',(0.,0.,1.));
#482 = PLANE('',#483);
#483 = AXIS2_PLACEMENT_3D('',#484,#485,#486);
#484 = CARTESIAN_POINT('',(-19.5,5.5,7.6));
#485 = DIRECTION('',(1.,2.2E-16,0.));
#486 = DIRECTION('',(-2.2E-16,1.,0.));
#487 = ADVANCED_FACE('',(#488),#495,.T.);
#488 = FACE_BOUND('',#489,.T.);
#489 = EDGE_LOOP('',(#490,#491,#492,#493,#494));
#490 = ORIENTED_EDGE('',*,*,#343,.T.);
#491 = ORIENTED_EDGE('',*,*,#477,.T.);
#492 = ORIENTED_EDGE('',*,*,#450,.F.);
#493 = ORIENTED_EDGE('',*,*,#426,.F.);
#494 = ORIENTED_EDGE('',*,*,#320,.F.);
#495 = PLANE('',#496);
#496 = AXIS2_PLACEMENT_3D('',#497,#498,#499);
#497 = CARTESIAN_POINT('',(-1.78E-15,8.,-8.9E-16));
#498 = DIRECTION('',(-2.2E-16,1.,-1.1E-16));
#499 = DIRECTION('',(0.,1.1E-16,1.));
#500 = ( GEOMETRIC_REPRESENTATION_CONTEXT(3) 
GLOBAL_UNCERTAINTY_ASSIGNED_CONTEXT((#504)) GLOBAL_UNIT_ASSIGNED_CONTEXT
((#501,#502,#503)) REPRESENTATION_CONTEXT('Context #1',
  '3D Context with UNIT and UNCERTAINTY') );
#501 = ( LENGTH_UNIT() NAMED_UNIT(*) SI_UNIT(.MILLI.,.METRE.) );
#502 = ( NAMED_UNIT(*) PLANE_ANGLE_UNIT() SI_UNIT($,.RADIAN.) );
#503 = ( NAMED_UNIT(*) SI_UNIT($,.STERADIAN.) SOLID_ANGLE_UNIT() );
#504 = UNCERTAINTY_MEASURE_WITH_UNIT(LENGTH_MEASURE(1.E-07),#501,
  'distance_accuracy_value','confusion accuracy');
#505 = PRODUCT_RELATED_PRODUCT_CATEGORY('part',$,(#7));
#506 = MECHANICAL_DESIGN_GEOMETRIC_PRESENTATION_REPRESENTATION('',(#507)
  ,#500);
#507 = STYLED_ITEM('color',(#508),#15);
#508 = PRESENTATION_STYLE_ASSIGNMENT((#509,#515));
#509 = SURFACE_STYLE_USAGE(.BOTH.,#510);
#510 = SURFACE_SIDE_STYLE('',(#511));
#511 = SURFACE_STYLE_FILL_AREA(#512);
#512 = FILL_AREA_STYLE('',(#513));
#513 = FILL_AREA_STYLE_COLOUR('',#514);
#514 = COLOUR_RGB('',0.800000010877,0.800000010877,0.800000010877);
#515 = CURVE_STYLE('',#516,POSITIVE_LENGTH_MEASURE(0.1),#517);
#516 = DRAUGHTING_PRE_DEFINED_CURVE_FONT('continuous');
#517 = COLOUR_RGB('',9.803921802644E-02,9.803921802644E-02,
  9.803921802644E-02);
ENDSEC;
END-ISO-10303-21;
