ISO-10303-21;
HEADER;
FILE_DESCRIPTION(('FreeCAD Model'),'2;1');
FILE_NAME('Open CASCADE Shape Model','2025-05-21T09:45:06',('Author'),(
    ''),'Open CASCADE STEP processor 7.6','FreeCAD','Unknown');
FILE_SCHEMA(('AUTOMOTIVE_DESIGN { 1 0 10303 214 1 1 1 1 }'));
ENDSEC;
DATA;
#1 = APPLICATION_PROTOCOL_DEFINITION('international standard',
  'automotive_design',2000,#2);
#2 = APPLICATION_CONTEXT(
  'core data for automotive mechanical design processes');
#3 = SHAPE_DEFINITION_REPRESENTATION(#4,#10);
#4 = PRODUCT_DEFINITION_SHAPE('','',#5);
#5 = PRODUCT_DEFINITION('design','',#6,#9);
#6 = PRODUCT_DEFINITION_FORMATION('','',#7);
#7 = PRODUCT('Chamfer002','Chamfer002','',(#8));
#8 = PRODUCT_CONTEXT('',#2,'mechanical');
#9 = PRODUCT_DEFINITION_CONTEXT('part definition',#2,'design');
#10 = ADVANCED_BREP_SHAPE_REPRESENTATION('',(#11,#15),#1429);
#11 = AXIS2_PLACEMENT_3D('',#12,#13,#14);
#12 = CARTESIAN_POINT('',(0.,0.,0.));
#13 = DIRECTION('',(0.,0.,1.));
#14 = DIRECTION('',(1.,0.,-0.));
#15 = MANIFOLD_SOLID_BREP('',#16);
#16 = CLOSED_SHELL('',(#17,#81,#112,#136,#160,#236,#276,#317,#351,#420,
    #445,#469,#516,#555,#572,#597,#637,#772,#797,#876,#888,#900,#917,
    #942,#954,#974,#991,#1003,#1034,#1058,#1082,#1106,#1130,#1147,#1178,
    #1202,#1226,#1250,#1274,#1291,#1308,#1333,#1358,#1383,#1395,#1412));
#17 = ADVANCED_FACE('',(#18),#76,.T.);
#18 = FACE_BOUND('',#19,.T.);
#19 = EDGE_LOOP('',(#20,#30,#38,#46,#54,#62,#70));
#20 = ORIENTED_EDGE('',*,*,#21,.F.);
#21 = EDGE_CURVE('',#22,#24,#26,.T.);
#22 = VERTEX_POINT('',#23);
#23 = CARTESIAN_POINT('',(37.,35.,20.));
#24 = VERTEX_POINT('',#25);
#25 = CARTESIAN_POINT('',(18.,35.,20.));
#26 = LINE('',#27,#28);
#27 = CARTESIAN_POINT('',(40.,35.,20.));
#28 = VECTOR('',#29,1.);
#29 = DIRECTION('',(-1.,2.2E-16,0.));
#30 = ORIENTED_EDGE('',*,*,#31,.T.);
#31 = EDGE_CURVE('',#22,#32,#34,.T.);
#32 = VERTEX_POINT('',#33);
#33 = CARTESIAN_POINT('',(40.,35.,23.));
#34 = LINE('',#35,#36);
#35 = CARTESIAN_POINT('',(33.5,35.,16.5));
#36 = VECTOR('',#37,1.);
#37 = DIRECTION('',(0.707106781187,0.,0.707106781187));
#38 = ORIENTED_EDGE('',*,*,#39,.T.);
#39 = EDGE_CURVE('',#32,#40,#42,.T.);
#40 = VERTEX_POINT('',#41);
#41 = CARTESIAN_POINT('',(40.,35.,40.));
#42 = LINE('',#43,#44);
#43 = CARTESIAN_POINT('',(40.,35.,0.));
#44 = VECTOR('',#45,1.);
#45 = DIRECTION('',(0.,0.,1.));
#46 = ORIENTED_EDGE('',*,*,#47,.T.);
#47 = EDGE_CURVE('',#40,#48,#50,.T.);
#48 = VERTEX_POINT('',#49);
#49 = CARTESIAN_POINT('',(15.,35.,40.));
#50 = LINE('',#51,#52);
#51 = CARTESIAN_POINT('',(40.,35.,40.));
#52 = VECTOR('',#53,1.);
#53 = DIRECTION('',(-1.,0.,0.));
#54 = ORIENTED_EDGE('',*,*,#55,.F.);
#55 = EDGE_CURVE('',#56,#48,#58,.T.);
#56 = VERTEX_POINT('',#57);
#57 = CARTESIAN_POINT('',(15.,35.,20.));
#58 = LINE('',#59,#60);
#59 = CARTESIAN_POINT('',(15.,35.,0.));
#60 = VECTOR('',#61,1.);
#61 = DIRECTION('',(0.,0.,1.));
#62 = ORIENTED_EDGE('',*,*,#63,.F.);
#63 = EDGE_CURVE('',#64,#56,#66,.T.);
#64 = VERTEX_POINT('',#65);
#65 = CARTESIAN_POINT('',(15.,35.,17.));
#66 = LINE('',#67,#68);
#67 = CARTESIAN_POINT('',(15.,35.,0.));
#68 = VECTOR('',#69,1.);
#69 = DIRECTION('',(0.,0.,1.));
#70 = ORIENTED_EDGE('',*,*,#71,.T.);
#71 = EDGE_CURVE('',#64,#24,#72,.T.);
#72 = LINE('',#73,#74);
#73 = CARTESIAN_POINT('',(17.75,35.,19.75));
#74 = VECTOR('',#75,1.);
#75 = DIRECTION('',(0.707106781187,0.,0.707106781187));
#76 = PLANE('',#77);
#77 = AXIS2_PLACEMENT_3D('',#78,#79,#80);
#78 = CARTESIAN_POINT('',(40.,35.,0.));
#79 = DIRECTION('',(0.,-1.,0.));
#80 = DIRECTION('',(-1.,0.,0.));
#81 = ADVANCED_FACE('',(#82),#107,.T.);
#82 = FACE_BOUND('',#83,.T.);
#83 = EDGE_LOOP('',(#84,#94,#100,#101));
#84 = ORIENTED_EDGE('',*,*,#85,.T.);
#85 = EDGE_CURVE('',#86,#88,#90,.T.);
#86 = VERTEX_POINT('',#87);
#87 = CARTESIAN_POINT('',(18.,42.4,20.));
#88 = VERTEX_POINT('',#89);
#89 = CARTESIAN_POINT('',(37.,42.4,20.));
#90 = LINE('',#91,#92);
#91 = CARTESIAN_POINT('',(15.,42.4,20.));
#92 = VECTOR('',#93,1.);
#93 = DIRECTION('',(1.,0.,0.));
#94 = ORIENTED_EDGE('',*,*,#95,.F.);
#95 = EDGE_CURVE('',#22,#88,#96,.T.);
#96 = LINE('',#97,#98);
#97 = CARTESIAN_POINT('',(37.,35.,20.));
#98 = VECTOR('',#99,1.);
#99 = DIRECTION('',(2.2E-16,1.,-0.));
#100 = ORIENTED_EDGE('',*,*,#21,.T.);
#101 = ORIENTED_EDGE('',*,*,#102,.T.);
#102 = EDGE_CURVE('',#24,#86,#103,.T.);
#103 = LINE('',#104,#105);
#104 = CARTESIAN_POINT('',(18.,35.,20.));
#105 = VECTOR('',#106,1.);
#106 = DIRECTION('',(2.2E-16,1.,0.));
#107 = PLANE('',#108);
#108 = AXIS2_PLACEMENT_3D('',#109,#110,#111);
#109 = CARTESIAN_POINT('',(40.,35.,20.));
#110 = DIRECTION('',(0.,0.,-1.));
#111 = DIRECTION('',(2.2E-16,1.,0.));
#112 = ADVANCED_FACE('',(#113),#131,.T.);
#113 = FACE_BOUND('',#114,.T.);
#114 = EDGE_LOOP('',(#115,#116,#117,#125));
#115 = ORIENTED_EDGE('',*,*,#31,.F.);
#116 = ORIENTED_EDGE('',*,*,#95,.T.);
#117 = ORIENTED_EDGE('',*,*,#118,.T.);
#118 = EDGE_CURVE('',#88,#119,#121,.T.);
#119 = VERTEX_POINT('',#120);
#120 = CARTESIAN_POINT('',(40.,42.4,23.));
#121 = LINE('',#122,#123);
#122 = CARTESIAN_POINT('',(32.25,42.4,15.25));
#123 = VECTOR('',#124,1.);
#124 = DIRECTION('',(0.707106781187,0.,0.707106781187));
#125 = ORIENTED_EDGE('',*,*,#126,.F.);
#126 = EDGE_CURVE('',#32,#119,#127,.T.);
#127 = LINE('',#128,#129);
#128 = CARTESIAN_POINT('',(40.,35.,23.));
#129 = VECTOR('',#130,1.);
#130 = DIRECTION('',(2.2E-16,1.,-0.));
#131 = PLANE('',#132);
#132 = AXIS2_PLACEMENT_3D('',#133,#134,#135);
#133 = CARTESIAN_POINT('',(38.5,35.,21.5));
#134 = DIRECTION('',(0.707106781187,-0.,-0.707106781187));
#135 = DIRECTION('',(1.1E-16,1.,1.1E-16));
#136 = ADVANCED_FACE('',(#137),#155,.F.);
#137 = FACE_BOUND('',#138,.T.);
#138 = EDGE_LOOP('',(#139,#140,#148,#154));
#139 = ORIENTED_EDGE('',*,*,#71,.F.);
#140 = ORIENTED_EDGE('',*,*,#141,.T.);
#141 = EDGE_CURVE('',#64,#142,#144,.T.);
#142 = VERTEX_POINT('',#143);
#143 = CARTESIAN_POINT('',(15.,42.4,17.));
#144 = LINE('',#145,#146);
#145 = CARTESIAN_POINT('',(15.,35.,17.));
#146 = VECTOR('',#147,1.);
#147 = DIRECTION('',(2.2E-16,1.,0.));
#148 = ORIENTED_EDGE('',*,*,#149,.T.);
#149 = EDGE_CURVE('',#142,#86,#150,.T.);
#150 = LINE('',#151,#152);
#151 = CARTESIAN_POINT('',(16.5,42.4,18.5));
#152 = VECTOR('',#153,1.);
#153 = DIRECTION('',(0.707106781187,0.,0.707106781187));
#154 = ORIENTED_EDGE('',*,*,#102,.F.);
#155 = PLANE('',#156);
#156 = AXIS2_PLACEMENT_3D('',#157,#158,#159);
#157 = CARTESIAN_POINT('',(16.5,35.,18.5));
#158 = DIRECTION('',(-0.707106781187,0.,0.707106781187));
#159 = DIRECTION('',(-1.1E-16,-1.,-1.1E-16));
#160 = ADVANCED_FACE('',(#161,#220),#231,.T.);
#161 = FACE_BOUND('',#162,.T.);
#162 = EDGE_LOOP('',(#163,#164,#165,#173,#181,#189,#197,#205,#214));
#163 = ORIENTED_EDGE('',*,*,#39,.F.);
#164 = ORIENTED_EDGE('',*,*,#126,.T.);
#165 = ORIENTED_EDGE('',*,*,#166,.T.);
#166 = EDGE_CURVE('',#119,#167,#169,.T.);
#167 = VERTEX_POINT('',#168);
#168 = CARTESIAN_POINT('',(40.,42.4,25.1));
#169 = LINE('',#170,#171);
#170 = CARTESIAN_POINT('',(40.,42.4,20.));
#171 = VECTOR('',#172,1.);
#172 = DIRECTION('',(0.,0.,1.));
#173 = ORIENTED_EDGE('',*,*,#174,.T.);
#174 = EDGE_CURVE('',#167,#175,#177,.T.);
#175 = VERTEX_POINT('',#176);
#176 = CARTESIAN_POINT('',(40.,47.6,25.1));
#177 = LINE('',#178,#179);
#178 = CARTESIAN_POINT('',(40.,42.4,25.1));
#179 = VECTOR('',#180,1.);
#180 = DIRECTION('',(0.,1.,0.));
#181 = ORIENTED_EDGE('',*,*,#182,.F.);
#182 = EDGE_CURVE('',#183,#175,#185,.T.);
#183 = VERTEX_POINT('',#184);
#184 = CARTESIAN_POINT('',(40.,47.6,23.));
#185 = LINE('',#186,#187);
#186 = CARTESIAN_POINT('',(40.,47.6,20.));
#187 = VECTOR('',#188,1.);
#188 = DIRECTION('',(0.,0.,1.));
#189 = ORIENTED_EDGE('',*,*,#190,.T.);
#190 = EDGE_CURVE('',#183,#191,#193,.T.);
#191 = VERTEX_POINT('',#192);
#192 = CARTESIAN_POINT('',(40.,55.,23.));
#193 = LINE('',#194,#195);
#194 = CARTESIAN_POINT('',(40.,47.6,23.));
#195 = VECTOR('',#196,1.);
#196 = DIRECTION('',(2.2E-16,1.,-0.));
#197 = ORIENTED_EDGE('',*,*,#198,.T.);
#198 = EDGE_CURVE('',#191,#199,#201,.T.);
#199 = VERTEX_POINT('',#200);
#200 = CARTESIAN_POINT('',(40.,55.,35.));
#201 = LINE('',#202,#203);
#202 = CARTESIAN_POINT('',(40.,55.,0.));
#203 = VECTOR('',#204,1.);
#204 = DIRECTION('',(0.,0.,1.));
#205 = ORIENTED_EDGE('',*,*,#206,.T.);
#206 = EDGE_CURVE('',#199,#207,#209,.T.);
#207 = VERTEX_POINT('',#208);
#208 = CARTESIAN_POINT('',(40.,50.,40.));
#209 = CIRCLE('',#210,5.);
#210 = AXIS2_PLACEMENT_3D('',#211,#212,#213);
#211 = CARTESIAN_POINT('',(40.,50.,35.));
#212 = DIRECTION('',(1.,0.,-0.));
#213 = DIRECTION('',(0.,0.,1.));
#214 = ORIENTED_EDGE('',*,*,#215,.T.);
#215 = EDGE_CURVE('',#207,#40,#216,.T.);
#216 = LINE('',#217,#218);
#217 = CARTESIAN_POINT('',(40.,55.,40.));
#218 = VECTOR('',#219,1.);
#219 = DIRECTION('',(0.,-1.,0.));
#220 = FACE_BOUND('',#221,.T.);
#221 = EDGE_LOOP('',(#222));
#222 = ORIENTED_EDGE('',*,*,#223,.T.);
#223 = EDGE_CURVE('',#224,#224,#226,.T.);
#224 = VERTEX_POINT('',#225);
#225 = CARTESIAN_POINT('',(40.,42.35,30.));
#226 = CIRCLE('',#227,2.65);
#227 = AXIS2_PLACEMENT_3D('',#228,#229,#230);
#228 = CARTESIAN_POINT('',(40.,45.,30.));
#229 = DIRECTION('',(-1.,-2.2E-16,0.));
#230 = DIRECTION('',(2.2E-16,-1.,0.));
#231 = PLANE('',#232);
#232 = AXIS2_PLACEMENT_3D('',#233,#234,#235);
#233 = CARTESIAN_POINT('',(40.,55.,0.));
#234 = DIRECTION('',(1.,0.,0.));
#235 = DIRECTION('',(0.,-1.,0.));
#236 = ADVANCED_FACE('',(#237),#271,.F.);
#237 = FACE_BOUND('',#238,.F.);
#238 = EDGE_LOOP('',(#239,#247,#255,#263,#269,#270));
#239 = ORIENTED_EDGE('',*,*,#240,.F.);
#240 = EDGE_CURVE('',#241,#64,#243,.T.);
#241 = VERTEX_POINT('',#242);
#242 = CARTESIAN_POINT('',(15.,35.,0.));
#243 = LINE('',#244,#245);
#244 = CARTESIAN_POINT('',(15.,35.,5.));
#245 = VECTOR('',#246,1.);
#246 = DIRECTION('',(0.,5.E-17,1.));
#247 = ORIENTED_EDGE('',*,*,#248,.F.);
#248 = EDGE_CURVE('',#249,#241,#251,.T.);
#249 = VERTEX_POINT('',#250);
#250 = CARTESIAN_POINT('',(10.,30.5,0.));
#251 = LINE('',#252,#253);
#252 = CARTESIAN_POINT('',(13.113913928468,33.302522535621,0.));
#253 = VECTOR('',#254,1.);
#254 = DIRECTION('',(0.743294146247,0.668964731622,0.));
#255 = ORIENTED_EDGE('',*,*,#256,.T.);
#256 = EDGE_CURVE('',#249,#257,#259,.T.);
#257 = VERTEX_POINT('',#258);
#258 = CARTESIAN_POINT('',(10.,30.5,40.));
#259 = LINE('',#260,#261);
#260 = CARTESIAN_POINT('',(10.,30.5,0.));
#261 = VECTOR('',#262,1.);
#262 = DIRECTION('',(0.,0.,1.));
#263 = ORIENTED_EDGE('',*,*,#264,.T.);
#264 = EDGE_CURVE('',#257,#48,#265,.T.);
#265 = LINE('',#266,#267);
#266 = CARTESIAN_POINT('',(13.113913928468,33.302522535621,40.));
#267 = VECTOR('',#268,1.);
#268 = DIRECTION('',(0.743294146247,0.668964731622,0.));
#269 = ORIENTED_EDGE('',*,*,#55,.F.);
#270 = ORIENTED_EDGE('',*,*,#63,.F.);
#271 = PLANE('',#272);
#272 = AXIS2_PLACEMENT_3D('',#273,#274,#275);
#273 = CARTESIAN_POINT('',(12.5,32.75,0.));
#274 = DIRECTION('',(-0.668964731622,0.743294146247,-4.E-17));
#275 = DIRECTION('',(-2.289118594998E-17,3.321242883331E-17,1.));
#276 = ADVANCED_FACE('',(#277),#312,.F.);
#277 = FACE_BOUND('',#278,.F.);
#278 = EDGE_LOOP('',(#279,#280,#281,#282,#290,#298,#306));
#279 = ORIENTED_EDGE('',*,*,#215,.T.);
#280 = ORIENTED_EDGE('',*,*,#47,.T.);
#281 = ORIENTED_EDGE('',*,*,#264,.F.);
#282 = ORIENTED_EDGE('',*,*,#283,.T.);
#283 = EDGE_CURVE('',#257,#284,#286,.T.);
#284 = VERTEX_POINT('',#285);
#285 = CARTESIAN_POINT('',(10.,5.,40.));
#286 = LINE('',#287,#288);
#287 = CARTESIAN_POINT('',(10.,35.,40.));
#288 = VECTOR('',#289,1.);
#289 = DIRECTION('',(6.6E-16,-1.,0.));
#290 = ORIENTED_EDGE('',*,*,#291,.T.);
#291 = EDGE_CURVE('',#284,#292,#294,.T.);
#292 = VERTEX_POINT('',#293);
#293 = CARTESIAN_POINT('',(0.,5.,40.));
#294 = LINE('',#295,#296);
#295 = CARTESIAN_POINT('',(10.,5.,40.));
#296 = VECTOR('',#297,1.);
#297 = DIRECTION('',(-1.,0.,0.));
#298 = ORIENTED_EDGE('',*,*,#299,.T.);
#299 = EDGE_CURVE('',#292,#300,#302,.T.);
#300 = VERTEX_POINT('',#301);
#301 = CARTESIAN_POINT('',(0.,50.,40.));
#302 = LINE('',#303,#304);
#303 = CARTESIAN_POINT('',(0.,0.,40.));
#304 = VECTOR('',#305,1.);
#305 = DIRECTION('',(0.,1.,0.));
#306 = ORIENTED_EDGE('',*,*,#307,.T.);
#307 = EDGE_CURVE('',#300,#207,#308,.T.);
#308 = LINE('',#309,#310);
#309 = CARTESIAN_POINT('',(0.,50.,40.));
#310 = VECTOR('',#311,1.);
#311 = DIRECTION('',(1.,0.,0.));
#312 = PLANE('',#313);
#313 = AXIS2_PLACEMENT_3D('',#314,#315,#316);
#314 = CARTESIAN_POINT('',(14.473684210526,33.026315789474,40.));
#315 = DIRECTION('',(0.,2.2E-16,-1.));
#316 = DIRECTION('',(0.,1.,2.2E-16));
#317 = ADVANCED_FACE('',(#318),#346,.T.);
#318 = FACE_BOUND('',#319,.T.);
#319 = EDGE_LOOP('',(#320,#321,#322,#330,#338,#344,#345));
#320 = ORIENTED_EDGE('',*,*,#85,.F.);
#321 = ORIENTED_EDGE('',*,*,#149,.F.);
#322 = ORIENTED_EDGE('',*,*,#323,.F.);
#323 = EDGE_CURVE('',#324,#142,#326,.T.);
#324 = VERTEX_POINT('',#325);
#325 = CARTESIAN_POINT('',(15.,42.4,20.));
#326 = LINE('',#327,#328);
#327 = CARTESIAN_POINT('',(15.,42.4,15.));
#328 = VECTOR('',#329,1.);
#329 = DIRECTION('',(-0.,-0.,-1.));
#330 = ORIENTED_EDGE('',*,*,#331,.T.);
#331 = EDGE_CURVE('',#324,#332,#334,.T.);
#332 = VERTEX_POINT('',#333);
#333 = CARTESIAN_POINT('',(15.,42.4,25.1));
#334 = LINE('',#335,#336);
#335 = CARTESIAN_POINT('',(15.,42.4,20.));
#336 = VECTOR('',#337,1.);
#337 = DIRECTION('',(0.,0.,1.));
#338 = ORIENTED_EDGE('',*,*,#339,.T.);
#339 = EDGE_CURVE('',#332,#167,#340,.T.);
#340 = LINE('',#341,#342);
#341 = CARTESIAN_POINT('',(15.,42.4,25.1));
#342 = VECTOR('',#343,1.);
#343 = DIRECTION('',(1.,0.,0.));
#344 = ORIENTED_EDGE('',*,*,#166,.F.);
#345 = ORIENTED_EDGE('',*,*,#118,.F.);
#346 = PLANE('',#347);
#347 = AXIS2_PLACEMENT_3D('',#348,#349,#350);
#348 = CARTESIAN_POINT('',(15.,42.4,20.));
#349 = DIRECTION('',(0.,1.,0.));
#350 = DIRECTION('',(1.,0.,0.));
#351 = ADVANCED_FACE('',(#352,#404),#415,.T.);
#352 = FACE_BOUND('',#353,.T.);
#353 = EDGE_LOOP('',(#354,#355,#356,#364,#373,#381,#389,#397,#403));
#354 = ORIENTED_EDGE('',*,*,#141,.F.);
#355 = ORIENTED_EDGE('',*,*,#240,.F.);
#356 = ORIENTED_EDGE('',*,*,#357,.F.);
#357 = EDGE_CURVE('',#358,#241,#360,.T.);
#358 = VERTEX_POINT('',#359);
#359 = CARTESIAN_POINT('',(15.,50.,-1.E-15));
#360 = LINE('',#361,#362);
#361 = CARTESIAN_POINT('',(15.,55.,0.));
#362 = VECTOR('',#363,1.);
#363 = DIRECTION('',(0.,-1.,0.));
#364 = ORIENTED_EDGE('',*,*,#365,.T.);
#365 = EDGE_CURVE('',#358,#366,#368,.T.);
#366 = VERTEX_POINT('',#367);
#367 = CARTESIAN_POINT('',(15.,55.,5.));
#368 = CIRCLE('',#369,5.);
#369 = AXIS2_PLACEMENT_3D('',#370,#371,#372);
#370 = CARTESIAN_POINT('',(15.,50.,5.));
#371 = DIRECTION('',(1.,0.,-0.));
#372 = DIRECTION('',(0.,0.,1.));
#373 = ORIENTED_EDGE('',*,*,#374,.F.);
#374 = EDGE_CURVE('',#375,#366,#377,.T.);
#375 = VERTEX_POINT('',#376);
#376 = CARTESIAN_POINT('',(15.,55.,17.));
#377 = LINE('',#378,#379);
#378 = CARTESIAN_POINT('',(15.,55.,20.));
#379 = VECTOR('',#380,1.);
#380 = DIRECTION('',(0.,0.,-1.));
#381 = ORIENTED_EDGE('',*,*,#382,.F.);
#382 = EDGE_CURVE('',#383,#375,#385,.T.);
#383 = VERTEX_POINT('',#384);
#384 = CARTESIAN_POINT('',(15.,47.6,17.));
#385 = LINE('',#386,#387);
#386 = CARTESIAN_POINT('',(15.,47.6,17.));
#387 = VECTOR('',#388,1.);
#388 = DIRECTION('',(2.2E-16,1.,0.));
#389 = ORIENTED_EDGE('',*,*,#390,.F.);
#390 = EDGE_CURVE('',#391,#383,#393,.T.);
#391 = VERTEX_POINT('',#392);
#392 = CARTESIAN_POINT('',(15.,47.6,20.));
#393 = LINE('',#394,#395);
#394 = CARTESIAN_POINT('',(15.,47.6,15.));
#395 = VECTOR('',#396,1.);
#396 = DIRECTION('',(-0.,-0.,-1.));
#397 = ORIENTED_EDGE('',*,*,#398,.T.);
#398 = EDGE_CURVE('',#391,#324,#399,.T.);
#399 = LINE('',#400,#401);
#400 = CARTESIAN_POINT('',(15.,47.6,20.));
#401 = VECTOR('',#402,1.);
#402 = DIRECTION('',(0.,-1.,0.));
#403 = ORIENTED_EDGE('',*,*,#323,.T.);
#404 = FACE_BOUND('',#405,.T.);
#405 = EDGE_LOOP('',(#406));
#406 = ORIENTED_EDGE('',*,*,#407,.T.);
#407 = EDGE_CURVE('',#408,#408,#410,.T.);
#408 = VERTEX_POINT('',#409);
#409 = CARTESIAN_POINT('',(15.,42.35,10.));
#410 = CIRCLE('',#411,2.65);
#411 = AXIS2_PLACEMENT_3D('',#412,#413,#414);
#412 = CARTESIAN_POINT('',(15.,45.,10.));
#413 = DIRECTION('',(-1.,-2.2E-16,0.));
#414 = DIRECTION('',(2.2E-16,-1.,0.));
#415 = PLANE('',#416);
#416 = AXIS2_PLACEMENT_3D('',#417,#418,#419);
#417 = CARTESIAN_POINT('',(15.,45.,10.));
#418 = DIRECTION('',(1.,-3.6E-16,0.));
#419 = DIRECTION('',(3.6E-16,1.,0.));
#420 = ADVANCED_FACE('',(#421),#440,.T.);
#421 = FACE_BOUND('',#422,.T.);
#422 = EDGE_LOOP('',(#423,#432,#433,#434));
#423 = ORIENTED_EDGE('',*,*,#424,.T.);
#424 = EDGE_CURVE('',#425,#300,#427,.T.);
#425 = VERTEX_POINT('',#426);
#426 = CARTESIAN_POINT('',(0.,55.,35.));
#427 = CIRCLE('',#428,5.);
#428 = AXIS2_PLACEMENT_3D('',#429,#430,#431);
#429 = CARTESIAN_POINT('',(0.,50.,35.));
#430 = DIRECTION('',(1.,0.,-0.));
#431 = DIRECTION('',(0.,0.,1.));
#432 = ORIENTED_EDGE('',*,*,#307,.T.);
#433 = ORIENTED_EDGE('',*,*,#206,.F.);
#434 = ORIENTED_EDGE('',*,*,#435,.F.);
#435 = EDGE_CURVE('',#425,#199,#436,.T.);
#436 = LINE('',#437,#438);
#437 = CARTESIAN_POINT('',(0.,55.,35.));
#438 = VECTOR('',#439,1.);
#439 = DIRECTION('',(1.,0.,0.));
#440 = CYLINDRICAL_SURFACE('',#441,5.);
#441 = AXIS2_PLACEMENT_3D('',#442,#443,#444);
#442 = CARTESIAN_POINT('',(0.,50.,35.));
#443 = DIRECTION('',(1.,0.,0.));
#444 = DIRECTION('',(0.,1.,0.));
#445 = ADVANCED_FACE('',(#446),#464,.T.);
#446 = FACE_BOUND('',#447,.F.);
#447 = EDGE_LOOP('',(#448,#449,#450,#458));
#448 = ORIENTED_EDGE('',*,*,#339,.T.);
#449 = ORIENTED_EDGE('',*,*,#174,.T.);
#450 = ORIENTED_EDGE('',*,*,#451,.T.);
#451 = EDGE_CURVE('',#175,#452,#454,.T.);
#452 = VERTEX_POINT('',#453);
#453 = CARTESIAN_POINT('',(15.,47.6,25.1));
#454 = LINE('',#455,#456);
#455 = CARTESIAN_POINT('',(40.,47.6,25.1));
#456 = VECTOR('',#457,1.);
#457 = DIRECTION('',(-1.,0.,0.));
#458 = ORIENTED_EDGE('',*,*,#459,.T.);
#459 = EDGE_CURVE('',#452,#332,#460,.T.);
#460 = LINE('',#461,#462);
#461 = CARTESIAN_POINT('',(15.,47.6,25.1));
#462 = VECTOR('',#463,1.);
#463 = DIRECTION('',(0.,-1.,0.));
#464 = PLANE('',#465);
#465 = AXIS2_PLACEMENT_3D('',#466,#467,#468);
#466 = CARTESIAN_POINT('',(27.5,45.,25.1));
#467 = DIRECTION('',(0.,0.,-1.));
#468 = DIRECTION('',(0.,1.,0.));
#469 = ADVANCED_FACE('',(#470),#511,.T.);
#470 = FACE_BOUND('',#471,.T.);
#471 = EDGE_LOOP('',(#472,#473,#481,#489,#495,#496,#504,#510));
#472 = ORIENTED_EDGE('',*,*,#198,.F.);
#473 = ORIENTED_EDGE('',*,*,#474,.T.);
#474 = EDGE_CURVE('',#191,#475,#477,.T.);
#475 = VERTEX_POINT('',#476);
#476 = CARTESIAN_POINT('',(37.,55.,20.));
#477 = LINE('',#478,#479);
#478 = CARTESIAN_POINT('',(23.5,55.,6.5));
#479 = VECTOR('',#480,1.);
#480 = DIRECTION('',(-0.707106781187,0.,-0.707106781187));
#481 = ORIENTED_EDGE('',*,*,#482,.T.);
#482 = EDGE_CURVE('',#475,#483,#485,.T.);
#483 = VERTEX_POINT('',#484);
#484 = CARTESIAN_POINT('',(18.,55.,20.));
#485 = LINE('',#486,#487);
#486 = CARTESIAN_POINT('',(40.,55.,20.));
#487 = VECTOR('',#488,1.);
#488 = DIRECTION('',(-1.,2.2E-16,0.));
#489 = ORIENTED_EDGE('',*,*,#490,.F.);
#490 = EDGE_CURVE('',#375,#483,#491,.T.);
#491 = LINE('',#492,#493);
#492 = CARTESIAN_POINT('',(7.75,55.,9.75));
#493 = VECTOR('',#494,1.);
#494 = DIRECTION('',(0.707106781187,0.,0.707106781187));
#495 = ORIENTED_EDGE('',*,*,#374,.T.);
#496 = ORIENTED_EDGE('',*,*,#497,.F.);
#497 = EDGE_CURVE('',#498,#366,#500,.T.);
#498 = VERTEX_POINT('',#499);
#499 = CARTESIAN_POINT('',(0.,55.,5.));
#500 = LINE('',#501,#502);
#501 = CARTESIAN_POINT('',(0.,55.,5.));
#502 = VECTOR('',#503,1.);
#503 = DIRECTION('',(1.,0.,0.));
#504 = ORIENTED_EDGE('',*,*,#505,.T.);
#505 = EDGE_CURVE('',#498,#425,#506,.T.);
#506 = LINE('',#507,#508);
#507 = CARTESIAN_POINT('',(0.,55.,0.));
#508 = VECTOR('',#509,1.);
#509 = DIRECTION('',(0.,0.,1.));
#510 = ORIENTED_EDGE('',*,*,#435,.T.);
#511 = PLANE('',#512);
#512 = AXIS2_PLACEMENT_3D('',#513,#514,#515);
#513 = CARTESIAN_POINT('',(0.,55.,0.));
#514 = DIRECTION('',(0.,1.,0.));
#515 = DIRECTION('',(1.,0.,0.));
#516 = ADVANCED_FACE('',(#517),#550,.T.);
#517 = FACE_BOUND('',#518,.T.);
#518 = EDGE_LOOP('',(#519,#529,#535,#536,#537,#543,#544));
#519 = ORIENTED_EDGE('',*,*,#520,.F.);
#520 = EDGE_CURVE('',#521,#523,#525,.T.);
#521 = VERTEX_POINT('',#522);
#522 = CARTESIAN_POINT('',(37.,47.6,20.));
#523 = VERTEX_POINT('',#524);
#524 = CARTESIAN_POINT('',(18.,47.6,20.));
#525 = LINE('',#526,#527);
#526 = CARTESIAN_POINT('',(40.,47.6,20.));
#527 = VECTOR('',#528,1.);
#528 = DIRECTION('',(-1.,0.,0.));
#529 = ORIENTED_EDGE('',*,*,#530,.F.);
#530 = EDGE_CURVE('',#183,#521,#531,.T.);
#531 = LINE('',#532,#533);
#532 = CARTESIAN_POINT('',(38.5,47.6,21.5));
#533 = VECTOR('',#534,1.);
#534 = DIRECTION('',(-0.707106781187,-0.,-0.707106781187));
#535 = ORIENTED_EDGE('',*,*,#182,.T.);
#536 = ORIENTED_EDGE('',*,*,#451,.T.);
#537 = ORIENTED_EDGE('',*,*,#538,.F.);
#538 = EDGE_CURVE('',#391,#452,#539,.T.);
#539 = LINE('',#540,#541);
#540 = CARTESIAN_POINT('',(15.,47.6,20.));
#541 = VECTOR('',#542,1.);
#542 = DIRECTION('',(0.,0.,1.));
#543 = ORIENTED_EDGE('',*,*,#390,.T.);
#544 = ORIENTED_EDGE('',*,*,#545,.T.);
#545 = EDGE_CURVE('',#383,#523,#546,.T.);
#546 = LINE('',#547,#548);
#547 = CARTESIAN_POINT('',(22.75,47.6,24.75));
#548 = VECTOR('',#549,1.);
#549 = DIRECTION('',(0.707106781187,0.,0.707106781187));
#550 = PLANE('',#551);
#551 = AXIS2_PLACEMENT_3D('',#552,#553,#554);
#552 = CARTESIAN_POINT('',(40.,47.6,20.));
#553 = DIRECTION('',(0.,-1.,0.));
#554 = DIRECTION('',(-1.,0.,0.));
#555 = ADVANCED_FACE('',(#556),#567,.T.);
#556 = FACE_BOUND('',#557,.F.);
#557 = EDGE_LOOP('',(#558,#559,#560,#561));
#558 = ORIENTED_EDGE('',*,*,#530,.F.);
#559 = ORIENTED_EDGE('',*,*,#190,.T.);
#560 = ORIENTED_EDGE('',*,*,#474,.T.);
#561 = ORIENTED_EDGE('',*,*,#562,.F.);
#562 = EDGE_CURVE('',#521,#475,#563,.T.);
#563 = LINE('',#564,#565);
#564 = CARTESIAN_POINT('',(37.,47.6,20.));
#565 = VECTOR('',#566,1.);
#566 = DIRECTION('',(2.2E-16,1.,-0.));
#567 = PLANE('',#568);
#568 = AXIS2_PLACEMENT_3D('',#569,#570,#571);
#569 = CARTESIAN_POINT('',(38.5,47.6,21.5));
#570 = DIRECTION('',(0.707106781187,-0.,-0.707106781187));
#571 = DIRECTION('',(-1.1E-16,-1.,-1.1E-16));
#572 = ADVANCED_FACE('',(#573),#592,.F.);
#573 = FACE_BOUND('',#574,.F.);
#574 = EDGE_LOOP('',(#575,#584,#590,#591));
#575 = ORIENTED_EDGE('',*,*,#576,.F.);
#576 = EDGE_CURVE('',#577,#577,#579,.T.);
#577 = VERTEX_POINT('',#578);
#578 = CARTESIAN_POINT('',(5.5,42.35,30.));
#579 = CIRCLE('',#580,2.65);
#580 = AXIS2_PLACEMENT_3D('',#581,#582,#583);
#581 = CARTESIAN_POINT('',(5.5,45.,30.));
#582 = DIRECTION('',(-1.,-2.2E-16,0.));
#583 = DIRECTION('',(2.2E-16,-1.,0.));
#584 = ORIENTED_EDGE('',*,*,#585,.T.);
#585 = EDGE_CURVE('',#577,#224,#586,.T.);
#586 = LINE('',#587,#588);
#587 = CARTESIAN_POINT('',(-9.4E-15,42.35,30.));
#588 = VECTOR('',#589,1.);
#589 = DIRECTION('',(1.,2.2E-16,0.));
#590 = ORIENTED_EDGE('',*,*,#223,.T.);
#591 = ORIENTED_EDGE('',*,*,#585,.F.);
#592 = CYLINDRICAL_SURFACE('',#593,2.65);
#593 = AXIS2_PLACEMENT_3D('',#594,#595,#596);
#594 = CARTESIAN_POINT('',(-9.99E-15,45.,30.));
#595 = DIRECTION('',(-1.,-2.2E-16,0.));
#596 = DIRECTION('',(2.2E-16,-1.,0.));
#597 = ADVANCED_FACE('',(#598),#632,.T.);
#598 = FACE_BOUND('',#599,.T.);
#599 = EDGE_LOOP('',(#600,#608,#616,#624,#630,#631));
#600 = ORIENTED_EDGE('',*,*,#601,.T.);
#601 = EDGE_CURVE('',#249,#602,#604,.T.);
#602 = VERTEX_POINT('',#603);
#603 = CARTESIAN_POINT('',(10.,5.,-1.E-15));
#604 = LINE('',#605,#606);
#605 = CARTESIAN_POINT('',(10.,35.,0.));
#606 = VECTOR('',#607,1.);
#607 = DIRECTION('',(6.6E-16,-1.,0.));
#608 = ORIENTED_EDGE('',*,*,#609,.T.);
#609 = EDGE_CURVE('',#602,#610,#612,.T.);
#610 = VERTEX_POINT('',#611);
#611 = CARTESIAN_POINT('',(0.,5.,-1.E-15));
#612 = LINE('',#613,#614);
#613 = CARTESIAN_POINT('',(10.,5.,-8.9E-16));
#614 = VECTOR('',#615,1.);
#615 = DIRECTION('',(-1.,0.,0.));
#616 = ORIENTED_EDGE('',*,*,#617,.T.);
#617 = EDGE_CURVE('',#610,#618,#620,.T.);
#618 = VERTEX_POINT('',#619);
#619 = CARTESIAN_POINT('',(0.,50.,-1.E-15));
#620 = LINE('',#621,#622);
#621 = CARTESIAN_POINT('',(0.,0.,0.));
#622 = VECTOR('',#623,1.);
#623 = DIRECTION('',(0.,1.,0.));
#624 = ORIENTED_EDGE('',*,*,#625,.T.);
#625 = EDGE_CURVE('',#618,#358,#626,.T.);
#626 = LINE('',#627,#628);
#627 = CARTESIAN_POINT('',(0.,50.,-8.9E-16));
#628 = VECTOR('',#629,1.);
#629 = DIRECTION('',(1.,0.,0.));
#630 = ORIENTED_EDGE('',*,*,#357,.T.);
#631 = ORIENTED_EDGE('',*,*,#248,.F.);
#632 = PLANE('',#633);
#633 = AXIS2_PLACEMENT_3D('',#634,#635,#636);
#634 = CARTESIAN_POINT('',(14.473684210526,33.026315789474,7.33E-15));
#635 = DIRECTION('',(0.,2.2E-16,-1.));
#636 = DIRECTION('',(0.,1.,2.2E-16));
#637 = ADVANCED_FACE('',(#638,#667,#717),#767,.T.);
#638 = FACE_BOUND('',#639,.T.);
#639 = EDGE_LOOP('',(#640,#641,#642,#643,#652,#660));
#640 = ORIENTED_EDGE('',*,*,#601,.F.);
#641 = ORIENTED_EDGE('',*,*,#256,.T.);
#642 = ORIENTED_EDGE('',*,*,#283,.T.);
#643 = ORIENTED_EDGE('',*,*,#644,.F.);
#644 = EDGE_CURVE('',#645,#284,#647,.T.);
#645 = VERTEX_POINT('',#646);
#646 = CARTESIAN_POINT('',(10.,-1.E-15,35.));
#647 = CIRCLE('',#648,5.);
#648 = AXIS2_PLACEMENT_3D('',#649,#650,#651);
#649 = CARTESIAN_POINT('',(10.,5.,35.));
#650 = DIRECTION('',(-1.,0.,0.));
#651 = DIRECTION('',(0.,0.,-1.));
#652 = ORIENTED_EDGE('',*,*,#653,.F.);
#653 = EDGE_CURVE('',#654,#645,#656,.T.);
#654 = VERTEX_POINT('',#655);
#655 = CARTESIAN_POINT('',(10.,-1.E-15,5.));
#656 = LINE('',#657,#658);
#657 = CARTESIAN_POINT('',(10.,0.,0.));
#658 = VECTOR('',#659,1.);
#659 = DIRECTION('',(0.,0.,1.));
#660 = ORIENTED_EDGE('',*,*,#661,.F.);
#661 = EDGE_CURVE('',#602,#654,#662,.T.);
#662 = CIRCLE('',#663,5.);
#663 = AXIS2_PLACEMENT_3D('',#664,#665,#666);
#664 = CARTESIAN_POINT('',(10.,5.,5.));
#665 = DIRECTION('',(-1.,0.,0.));
#666 = DIRECTION('',(0.,0.,-1.));
#667 = FACE_BOUND('',#668,.T.);
#668 = EDGE_LOOP('',(#669,#679,#687,#695,#703,#711));
#669 = ORIENTED_EDGE('',*,*,#670,.F.);
#670 = EDGE_CURVE('',#671,#673,#675,.T.);
#671 = VERTEX_POINT('',#672);
#672 = CARTESIAN_POINT('',(10.,29.075,17.647297653052));
#673 = VERTEX_POINT('',#674);
#674 = CARTESIAN_POINT('',(10.,29.075,22.352702346948));
#675 = LINE('',#676,#677);
#676 = CARTESIAN_POINT('',(10.,29.075,17.647297653052));
#677 = VECTOR('',#678,1.);
#678 = DIRECTION('',(0.,0.,1.));
#679 = ORIENTED_EDGE('',*,*,#680,.F.);
#680 = EDGE_CURVE('',#681,#671,#683,.T.);
#681 = VERTEX_POINT('',#682);
#682 = CARTESIAN_POINT('',(10.,25.,15.294595306105));
#683 = LINE('',#684,#685);
#684 = CARTESIAN_POINT('',(10.,25.,15.294595306105));
#685 = VECTOR('',#686,1.);
#686 = DIRECTION('',(-8.660254037844E-16,0.866025403784,0.5));
#687 = ORIENTED_EDGE('',*,*,#688,.F.);
#688 = EDGE_CURVE('',#689,#681,#691,.T.);
#689 = VERTEX_POINT('',#690);
#690 = CARTESIAN_POINT('',(10.,20.925,17.647297653052));
#691 = LINE('',#692,#693);
#692 = CARTESIAN_POINT('',(10.,20.925,17.647297653052));
#693 = VECTOR('',#694,1.);
#694 = DIRECTION('',(-8.660254037844E-16,0.866025403784,-0.5));
#695 = ORIENTED_EDGE('',*,*,#696,.F.);
#696 = EDGE_CURVE('',#697,#689,#699,.T.);
#697 = VERTEX_POINT('',#698);
#698 = CARTESIAN_POINT('',(10.,20.925,22.352702346948));
#699 = LINE('',#700,#701);
#700 = CARTESIAN_POINT('',(10.,20.925,22.352702346948));
#701 = VECTOR('',#702,1.);
#702 = DIRECTION('',(0.,0.,-1.));
#703 = ORIENTED_EDGE('',*,*,#704,.F.);
#704 = EDGE_CURVE('',#705,#697,#707,.T.);
#705 = VERTEX_POINT('',#706);
#706 = CARTESIAN_POINT('',(10.,25.,24.705404693895));
#707 = LINE('',#708,#709);
#708 = CARTESIAN_POINT('',(10.,25.,24.705404693895));
#709 = VECTOR('',#710,1.);
#710 = DIRECTION('',(8.660254037844E-16,-0.866025403784,-0.5));
#711 = ORIENTED_EDGE('',*,*,#712,.F.);
#712 = EDGE_CURVE('',#673,#705,#713,.T.);
#713 = LINE('',#714,#715);
#714 = CARTESIAN_POINT('',(10.,29.075,22.352702346948));
#715 = VECTOR('',#716,1.);
#716 = DIRECTION('',(8.660254037844E-16,-0.866025403784,0.5));
#717 = FACE_BOUND('',#718,.T.);
#718 = EDGE_LOOP('',(#719,#729,#737,#745,#753,#761));
#719 = ORIENTED_EDGE('',*,*,#720,.F.);
#720 = EDGE_CURVE('',#721,#723,#725,.T.);
#721 = VERTEX_POINT('',#722);
#722 = CARTESIAN_POINT('',(10.,14.075,17.647297653052));
#723 = VERTEX_POINT('',#724);
#724 = CARTESIAN_POINT('',(10.,14.075,22.352702346948));
#725 = LINE('',#726,#727);
#726 = CARTESIAN_POINT('',(10.,14.075,17.647297653052));
#727 = VECTOR('',#728,1.);
#728 = DIRECTION('',(5.965E-29,-5.965E-14,1.));
#729 = ORIENTED_EDGE('',*,*,#730,.F.);
#730 = EDGE_CURVE('',#731,#721,#733,.T.);
#731 = VERTEX_POINT('',#732);
#732 = CARTESIAN_POINT('',(10.,10.,15.294595306104));
#733 = LINE('',#734,#735);
#734 = CARTESIAN_POINT('',(10.,10.,15.294595306104));
#735 = VECTOR('',#736,1.);
#736 = DIRECTION('',(-8.660254037844E-16,0.866025403784,0.5));
#737 = ORIENTED_EDGE('',*,*,#738,.F.);
#738 = EDGE_CURVE('',#739,#731,#741,.T.);
#739 = VERTEX_POINT('',#740);
#740 = CARTESIAN_POINT('',(10.,5.925,17.647297653052));
#741 = LINE('',#742,#743);
#742 = CARTESIAN_POINT('',(10.,5.925,17.647297653052));
#743 = VECTOR('',#744,1.);
#744 = DIRECTION('',(-8.660254037845E-16,0.866025403784,-0.5));
#745 = ORIENTED_EDGE('',*,*,#746,.F.);
#746 = EDGE_CURVE('',#747,#739,#749,.T.);
#747 = VERTEX_POINT('',#748);
#748 = CARTESIAN_POINT('',(10.,5.925,22.352702346948));
#749 = LINE('',#750,#751);
#750 = CARTESIAN_POINT('',(10.,5.925,22.352702346948));
#751 = VECTOR('',#752,1.);
#752 = DIRECTION('',(0.,0.,-1.));
#753 = ORIENTED_EDGE('',*,*,#754,.F.);
#754 = EDGE_CURVE('',#755,#747,#757,.T.);
#755 = VERTEX_POINT('',#756);
#756 = CARTESIAN_POINT('',(10.,10.,24.705404693895));
#757 = LINE('',#758,#759);
#758 = CARTESIAN_POINT('',(10.,10.,24.705404693895));
#759 = VECTOR('',#760,1.);
#760 = DIRECTION('',(8.660254037844E-16,-0.866025403784,-0.5));
#761 = ORIENTED_EDGE('',*,*,#762,.F.);
#762 = EDGE_CURVE('',#723,#755,#763,.T.);
#763 = LINE('',#764,#765);
#764 = CARTESIAN_POINT('',(10.,14.075,22.352702346948));
#765 = VECTOR('',#766,1.);
#766 = DIRECTION('',(8.660254037845E-16,-0.866025403784,0.5));
#767 = PLANE('',#768);
#768 = AXIS2_PLACEMENT_3D('',#769,#770,#771);
#769 = CARTESIAN_POINT('',(10.,35.,0.));
#770 = DIRECTION('',(1.,6.6E-16,0.));
#771 = DIRECTION('',(6.6E-16,-1.,0.));
#772 = ADVANCED_FACE('',(#773),#792,.T.);
#773 = FACE_BOUND('',#774,.T.);
#774 = EDGE_LOOP('',(#775,#776,#777,#786));
#775 = ORIENTED_EDGE('',*,*,#644,.T.);
#776 = ORIENTED_EDGE('',*,*,#291,.T.);
#777 = ORIENTED_EDGE('',*,*,#778,.F.);
#778 = EDGE_CURVE('',#779,#292,#781,.T.);
#779 = VERTEX_POINT('',#780);
#780 = CARTESIAN_POINT('',(0.,-1.E-15,35.));
#781 = CIRCLE('',#782,5.);
#782 = AXIS2_PLACEMENT_3D('',#783,#784,#785);
#783 = CARTESIAN_POINT('',(0.,5.,35.));
#784 = DIRECTION('',(-1.,0.,0.));
#785 = DIRECTION('',(0.,0.,-1.));
#786 = ORIENTED_EDGE('',*,*,#787,.F.);
#787 = EDGE_CURVE('',#645,#779,#788,.T.);
#788 = LINE('',#789,#790);
#789 = CARTESIAN_POINT('',(10.,-8.9E-16,35.));
#790 = VECTOR('',#791,1.);
#791 = DIRECTION('',(-1.,0.,0.));
#792 = CYLINDRICAL_SURFACE('',#793,5.);
#793 = AXIS2_PLACEMENT_3D('',#794,#795,#796);
#794 = CARTESIAN_POINT('',(10.,5.,35.));
#795 = DIRECTION('',(-1.,0.,0.));
#796 = DIRECTION('',(0.,-1.,0.));
#797 = ADVANCED_FACE('',(#798,#827,#838,#849,#860),#871,.T.);
#798 = FACE_BOUND('',#799,.T.);
#799 = EDGE_LOOP('',(#800,#808,#809,#810,#811,#812,#819,#820));
#800 = ORIENTED_EDGE('',*,*,#801,.T.);
#801 = EDGE_CURVE('',#802,#779,#804,.T.);
#802 = VERTEX_POINT('',#803);
#803 = CARTESIAN_POINT('',(0.,-1.E-15,5.));
#804 = LINE('',#805,#806);
#805 = CARTESIAN_POINT('',(0.,0.,0.));
#806 = VECTOR('',#807,1.);
#807 = DIRECTION('',(0.,0.,1.));
#808 = ORIENTED_EDGE('',*,*,#778,.T.);
#809 = ORIENTED_EDGE('',*,*,#299,.T.);
#810 = ORIENTED_EDGE('',*,*,#424,.F.);
#811 = ORIENTED_EDGE('',*,*,#505,.F.);
#812 = ORIENTED_EDGE('',*,*,#813,.F.);
#813 = EDGE_CURVE('',#618,#498,#814,.T.);
#814 = CIRCLE('',#815,5.);
#815 = AXIS2_PLACEMENT_3D('',#816,#817,#818);
#816 = CARTESIAN_POINT('',(0.,50.,5.));
#817 = DIRECTION('',(1.,0.,-0.));
#818 = DIRECTION('',(0.,0.,1.));
#819 = ORIENTED_EDGE('',*,*,#617,.F.);
#820 = ORIENTED_EDGE('',*,*,#821,.T.);
#821 = EDGE_CURVE('',#610,#802,#822,.T.);
#822 = CIRCLE('',#823,5.);
#823 = AXIS2_PLACEMENT_3D('',#824,#825,#826);
#824 = CARTESIAN_POINT('',(0.,5.,5.));
#825 = DIRECTION('',(-1.,0.,0.));
#826 = DIRECTION('',(0.,0.,-1.));
#827 = FACE_BOUND('',#828,.T.);
#828 = EDGE_LOOP('',(#829));
#829 = ORIENTED_EDGE('',*,*,#830,.F.);
#830 = EDGE_CURVE('',#831,#831,#833,.T.);
#831 = VERTEX_POINT('',#832);
#832 = CARTESIAN_POINT('',(0.,39.5,30.));
#833 = CIRCLE('',#834,5.5);
#834 = AXIS2_PLACEMENT_3D('',#835,#836,#837);
#835 = CARTESIAN_POINT('',(0.,45.,30.));
#836 = DIRECTION('',(-1.,0.,0.));
#837 = DIRECTION('',(0.,-1.,0.));
#838 = FACE_BOUND('',#839,.T.);
#839 = EDGE_LOOP('',(#840));
#840 = ORIENTED_EDGE('',*,*,#841,.F.);
#841 = EDGE_CURVE('',#842,#842,#844,.T.);
#842 = VERTEX_POINT('',#843);
#843 = CARTESIAN_POINT('',(0.,7.35,20.));
#844 = CIRCLE('',#845,2.65);
#845 = AXIS2_PLACEMENT_3D('',#846,#847,#848);
#846 = CARTESIAN_POINT('',(0.,10.,20.));
#847 = DIRECTION('',(-1.,0.,0.));
#848 = DIRECTION('',(0.,-1.,0.));
#849 = FACE_BOUND('',#850,.T.);
#850 = EDGE_LOOP('',(#851));
#851 = ORIENTED_EDGE('',*,*,#852,.F.);
#852 = EDGE_CURVE('',#853,#853,#855,.T.);
#853 = VERTEX_POINT('',#854);
#854 = CARTESIAN_POINT('',(0.,22.35,20.));
#855 = CIRCLE('',#856,2.65);
#856 = AXIS2_PLACEMENT_3D('',#857,#858,#859);
#857 = CARTESIAN_POINT('',(0.,25.,20.));
#858 = DIRECTION('',(-1.,0.,0.));
#859 = DIRECTION('',(0.,-1.,0.));
#860 = FACE_BOUND('',#861,.T.);
#861 = EDGE_LOOP('',(#862));
#862 = ORIENTED_EDGE('',*,*,#863,.F.);
#863 = EDGE_CURVE('',#864,#864,#866,.T.);
#864 = VERTEX_POINT('',#865);
#865 = CARTESIAN_POINT('',(0.,39.5,10.));
#866 = CIRCLE('',#867,5.5);
#867 = AXIS2_PLACEMENT_3D('',#868,#869,#870);
#868 = CARTESIAN_POINT('',(0.,45.,10.));
#869 = DIRECTION('',(-1.,0.,0.));
#870 = DIRECTION('',(0.,-1.,0.));
#871 = PLANE('',#872);
#872 = AXIS2_PLACEMENT_3D('',#873,#874,#875);
#873 = CARTESIAN_POINT('',(0.,0.,0.));
#874 = DIRECTION('',(-1.,0.,0.));
#875 = DIRECTION('',(0.,1.,0.));
#876 = ADVANCED_FACE('',(#877),#883,.T.);
#877 = FACE_BOUND('',#878,.T.);
#878 = EDGE_LOOP('',(#879,#880,#881,#882));
#879 = ORIENTED_EDGE('',*,*,#538,.T.);
#880 = ORIENTED_EDGE('',*,*,#459,.T.);
#881 = ORIENTED_EDGE('',*,*,#331,.F.);
#882 = ORIENTED_EDGE('',*,*,#398,.F.);
#883 = PLANE('',#884);
#884 = AXIS2_PLACEMENT_3D('',#885,#886,#887);
#885 = CARTESIAN_POINT('',(15.,47.6,20.));
#886 = DIRECTION('',(1.,0.,0.));
#887 = DIRECTION('',(0.,-1.,0.));
#888 = ADVANCED_FACE('',(#889),#895,.T.);
#889 = FACE_BOUND('',#890,.T.);
#890 = EDGE_LOOP('',(#891,#892,#893,#894));
#891 = ORIENTED_EDGE('',*,*,#813,.T.);
#892 = ORIENTED_EDGE('',*,*,#497,.T.);
#893 = ORIENTED_EDGE('',*,*,#365,.F.);
#894 = ORIENTED_EDGE('',*,*,#625,.F.);
#895 = CYLINDRICAL_SURFACE('',#896,5.);
#896 = AXIS2_PLACEMENT_3D('',#897,#898,#899);
#897 = CARTESIAN_POINT('',(0.,50.,5.));
#898 = DIRECTION('',(1.,0.,0.));
#899 = DIRECTION('',(0.,0.,-1.));
#900 = ADVANCED_FACE('',(#901),#912,.F.);
#901 = FACE_BOUND('',#902,.T.);
#902 = EDGE_LOOP('',(#903,#904,#905,#906));
#903 = ORIENTED_EDGE('',*,*,#545,.F.);
#904 = ORIENTED_EDGE('',*,*,#382,.T.);
#905 = ORIENTED_EDGE('',*,*,#490,.T.);
#906 = ORIENTED_EDGE('',*,*,#907,.F.);
#907 = EDGE_CURVE('',#523,#483,#908,.T.);
#908 = LINE('',#909,#910);
#909 = CARTESIAN_POINT('',(18.,47.6,20.));
#910 = VECTOR('',#911,1.);
#911 = DIRECTION('',(2.2E-16,1.,0.));
#912 = PLANE('',#913);
#913 = AXIS2_PLACEMENT_3D('',#914,#915,#916);
#914 = CARTESIAN_POINT('',(16.5,47.6,18.5));
#915 = DIRECTION('',(-0.707106781187,2.4E-16,0.707106781187));
#916 = DIRECTION('',(-2.797056274848E-16,-1.,5.970562748477E-17));
#917 = ADVANCED_FACE('',(#918),#937,.F.);
#918 = FACE_BOUND('',#919,.F.);
#919 = EDGE_LOOP('',(#920,#929,#935,#936));
#920 = ORIENTED_EDGE('',*,*,#921,.F.);
#921 = EDGE_CURVE('',#922,#922,#924,.T.);
#922 = VERTEX_POINT('',#923);
#923 = CARTESIAN_POINT('',(5.5,42.35,10.));
#924 = CIRCLE('',#925,2.65);
#925 = AXIS2_PLACEMENT_3D('',#926,#927,#928);
#926 = CARTESIAN_POINT('',(5.5,45.,10.));
#927 = DIRECTION('',(-1.,-2.2E-16,0.));
#928 = DIRECTION('',(2.2E-16,-1.,0.));
#929 = ORIENTED_EDGE('',*,*,#930,.T.);
#930 = EDGE_CURVE('',#922,#408,#931,.T.);
#931 = LINE('',#932,#933);
#932 = CARTESIAN_POINT('',(-9.4E-15,42.35,10.));
#933 = VECTOR('',#934,1.);
#934 = DIRECTION('',(1.,2.2E-16,0.));
#935 = ORIENTED_EDGE('',*,*,#407,.T.);
#936 = ORIENTED_EDGE('',*,*,#930,.F.);
#937 = CYLINDRICAL_SURFACE('',#938,2.65);
#938 = AXIS2_PLACEMENT_3D('',#939,#940,#941);
#939 = CARTESIAN_POINT('',(-9.99E-15,45.,10.));
#940 = DIRECTION('',(-1.,-2.2E-16,0.));
#941 = DIRECTION('',(2.2E-16,-1.,0.));
#942 = ADVANCED_FACE('',(#943),#949,.T.);
#943 = FACE_BOUND('',#944,.T.);
#944 = EDGE_LOOP('',(#945,#946,#947,#948));
#945 = ORIENTED_EDGE('',*,*,#482,.F.);
#946 = ORIENTED_EDGE('',*,*,#562,.F.);
#947 = ORIENTED_EDGE('',*,*,#520,.T.);
#948 = ORIENTED_EDGE('',*,*,#907,.T.);
#949 = PLANE('',#950);
#950 = AXIS2_PLACEMENT_3D('',#951,#952,#953);
#951 = CARTESIAN_POINT('',(40.,35.,20.));
#952 = DIRECTION('',(0.,0.,-1.));
#953 = DIRECTION('',(2.2E-16,1.,0.));
#954 = ADVANCED_FACE('',(#955,#966),#969,.F.);
#955 = FACE_BOUND('',#956,.F.);
#956 = EDGE_LOOP('',(#957));
#957 = ORIENTED_EDGE('',*,*,#958,.F.);
#958 = EDGE_CURVE('',#959,#959,#961,.T.);
#959 = VERTEX_POINT('',#960);
#960 = CARTESIAN_POINT('',(5.5,39.5,30.));
#961 = CIRCLE('',#962,5.5);
#962 = AXIS2_PLACEMENT_3D('',#963,#964,#965);
#963 = CARTESIAN_POINT('',(5.5,45.,30.));
#964 = DIRECTION('',(-1.,0.,0.));
#965 = DIRECTION('',(0.,-1.,0.));
#966 = FACE_BOUND('',#967,.F.);
#967 = EDGE_LOOP('',(#968));
#968 = ORIENTED_EDGE('',*,*,#576,.T.);
#969 = PLANE('',#970);
#970 = AXIS2_PLACEMENT_3D('',#971,#972,#973);
#971 = CARTESIAN_POINT('',(5.5,45.,20.));
#972 = DIRECTION('',(1.,2.2E-16,0.));
#973 = DIRECTION('',(-2.2E-16,1.,0.));
#974 = ADVANCED_FACE('',(#975),#986,.T.);
#975 = FACE_BOUND('',#976,.T.);
#976 = EDGE_LOOP('',(#977,#978,#984,#985));
#977 = ORIENTED_EDGE('',*,*,#661,.T.);
#978 = ORIENTED_EDGE('',*,*,#979,.T.);
#979 = EDGE_CURVE('',#654,#802,#980,.T.);
#980 = LINE('',#981,#982);
#981 = CARTESIAN_POINT('',(10.,-8.9E-16,5.));
#982 = VECTOR('',#983,1.);
#983 = DIRECTION('',(-1.,0.,0.));
#984 = ORIENTED_EDGE('',*,*,#821,.F.);
#985 = ORIENTED_EDGE('',*,*,#609,.F.);
#986 = CYLINDRICAL_SURFACE('',#987,5.);
#987 = AXIS2_PLACEMENT_3D('',#988,#989,#990);
#988 = CARTESIAN_POINT('',(10.,5.,5.));
#989 = DIRECTION('',(-1.,0.,0.));
#990 = DIRECTION('',(0.,0.,-1.));
#991 = ADVANCED_FACE('',(#992),#998,.T.);
#992 = FACE_BOUND('',#993,.T.);
#993 = EDGE_LOOP('',(#994,#995,#996,#997));
#994 = ORIENTED_EDGE('',*,*,#653,.T.);
#995 = ORIENTED_EDGE('',*,*,#787,.T.);
#996 = ORIENTED_EDGE('',*,*,#801,.F.);
#997 = ORIENTED_EDGE('',*,*,#979,.F.);
#998 = PLANE('',#999);
#999 = AXIS2_PLACEMENT_3D('',#1000,#1001,#1002);
#1000 = CARTESIAN_POINT('',(10.,0.,0.));
#1001 = DIRECTION('',(0.,-1.,0.));
#1002 = DIRECTION('',(-1.,0.,0.));
#1003 = ADVANCED_FACE('',(#1004),#1029,.F.);
#1004 = FACE_BOUND('',#1005,.F.);
#1005 = EDGE_LOOP('',(#1006,#1014,#1022,#1028));
#1006 = ORIENTED_EDGE('',*,*,#1007,.T.);
#1007 = EDGE_CURVE('',#671,#1008,#1010,.T.);
#1008 = VERTEX_POINT('',#1009);
#1009 = CARTESIAN_POINT('',(5.,29.075,17.647297653052));
#1010 = LINE('',#1011,#1012);
#1011 = CARTESIAN_POINT('',(10.,29.075,17.647297653052));
#1012 = VECTOR('',#1013,1.);
#1013 = DIRECTION('',(-1.,-7.2E-16,0.));
#1014 = ORIENTED_EDGE('',*,*,#1015,.T.);
#1015 = EDGE_CURVE('',#1008,#1016,#1018,.T.);
#1016 = VERTEX_POINT('',#1017);
#1017 = CARTESIAN_POINT('',(5.,29.075,22.352702346948));
#1018 = LINE('',#1019,#1020);
#1019 = CARTESIAN_POINT('',(5.,29.075,17.647297653052));
#1020 = VECTOR('',#1021,1.);
#1021 = DIRECTION('',(0.,0.,1.));
#1022 = ORIENTED_EDGE('',*,*,#1023,.F.);
#1023 = EDGE_CURVE('',#673,#1016,#1024,.T.);
#1024 = LINE('',#1025,#1026);
#1025 = CARTESIAN_POINT('',(10.,29.075,22.352702346948));
#1026 = VECTOR('',#1027,1.);
#1027 = DIRECTION('',(-1.,-7.2E-16,0.));
#1028 = ORIENTED_EDGE('',*,*,#670,.F.);
#1029 = PLANE('',#1030);
#1030 = AXIS2_PLACEMENT_3D('',#1031,#1032,#1033);
#1031 = CARTESIAN_POINT('',(10.,29.075,17.647297653052));
#1032 = DIRECTION('',(-7.2E-16,1.,0.));
#1033 = DIRECTION('',(0.,0.,1.));
#1034 = ADVANCED_FACE('',(#1035),#1053,.F.);
#1035 = FACE_BOUND('',#1036,.F.);
#1036 = EDGE_LOOP('',(#1037,#1038,#1046,#1052));
#1037 = ORIENTED_EDGE('',*,*,#1023,.T.);
#1038 = ORIENTED_EDGE('',*,*,#1039,.T.);
#1039 = EDGE_CURVE('',#1016,#1040,#1042,.T.);
#1040 = VERTEX_POINT('',#1041);
#1041 = CARTESIAN_POINT('',(5.,25.,24.705404693895));
#1042 = LINE('',#1043,#1044);
#1043 = CARTESIAN_POINT('',(5.,29.075,22.352702346948));
#1044 = VECTOR('',#1045,1.);
#1045 = DIRECTION('',(8.660254037844E-16,-0.866025403784,0.5));
#1046 = ORIENTED_EDGE('',*,*,#1047,.F.);
#1047 = EDGE_CURVE('',#705,#1040,#1048,.T.);
#1048 = LINE('',#1049,#1050);
#1049 = CARTESIAN_POINT('',(10.,25.,24.705404693895));
#1050 = VECTOR('',#1051,1.);
#1051 = DIRECTION('',(-1.,-7.2E-16,0.));
#1052 = ORIENTED_EDGE('',*,*,#712,.F.);
#1053 = PLANE('',#1054);
#1054 = AXIS2_PLACEMENT_3D('',#1055,#1056,#1057);
#1055 = CARTESIAN_POINT('',(10.,29.075,22.352702346948));
#1056 = DIRECTION('',(-3.6E-16,0.5,0.866025403784));
#1057 = DIRECTION('',(5.8E-16,-0.866025403784,0.5));
#1058 = ADVANCED_FACE('',(#1059),#1077,.F.);
#1059 = FACE_BOUND('',#1060,.F.);
#1060 = EDGE_LOOP('',(#1061,#1062,#1070,#1076));
#1061 = ORIENTED_EDGE('',*,*,#1047,.T.);
#1062 = ORIENTED_EDGE('',*,*,#1063,.T.);
#1063 = EDGE_CURVE('',#1040,#1064,#1066,.T.);
#1064 = VERTEX_POINT('',#1065);
#1065 = CARTESIAN_POINT('',(5.,20.925,22.352702346948));
#1066 = LINE('',#1067,#1068);
#1067 = CARTESIAN_POINT('',(5.,25.,24.705404693895));
#1068 = VECTOR('',#1069,1.);
#1069 = DIRECTION('',(8.660254037844E-16,-0.866025403784,-0.5));
#1070 = ORIENTED_EDGE('',*,*,#1071,.F.);
#1071 = EDGE_CURVE('',#697,#1064,#1072,.T.);
#1072 = LINE('',#1073,#1074);
#1073 = CARTESIAN_POINT('',(10.,20.925,22.352702346948));
#1074 = VECTOR('',#1075,1.);
#1075 = DIRECTION('',(-1.,-7.2E-16,0.));
#1076 = ORIENTED_EDGE('',*,*,#704,.F.);
#1077 = PLANE('',#1078);
#1078 = AXIS2_PLACEMENT_3D('',#1079,#1080,#1081);
#1079 = CARTESIAN_POINT('',(10.,25.,24.705404693895));
#1080 = DIRECTION('',(3.6E-16,-0.5,0.866025403784));
#1081 = DIRECTION('',(5.8E-16,-0.866025403784,-0.5));
#1082 = ADVANCED_FACE('',(#1083),#1101,.F.);
#1083 = FACE_BOUND('',#1084,.F.);
#1084 = EDGE_LOOP('',(#1085,#1086,#1094,#1100));
#1085 = ORIENTED_EDGE('',*,*,#1071,.T.);
#1086 = ORIENTED_EDGE('',*,*,#1087,.T.);
#1087 = EDGE_CURVE('',#1064,#1088,#1090,.T.);
#1088 = VERTEX_POINT('',#1089);
#1089 = CARTESIAN_POINT('',(5.,20.925,17.647297653052));
#1090 = LINE('',#1091,#1092);
#1091 = CARTESIAN_POINT('',(5.,20.925,22.352702346948));
#1092 = VECTOR('',#1093,1.);
#1093 = DIRECTION('',(0.,0.,-1.));
#1094 = ORIENTED_EDGE('',*,*,#1095,.F.);
#1095 = EDGE_CURVE('',#689,#1088,#1096,.T.);
#1096 = LINE('',#1097,#1098);
#1097 = CARTESIAN_POINT('',(10.,20.925,17.647297653052));
#1098 = VECTOR('',#1099,1.);
#1099 = DIRECTION('',(-1.,-7.2E-16,0.));
#1100 = ORIENTED_EDGE('',*,*,#696,.F.);
#1101 = PLANE('',#1102);
#1102 = AXIS2_PLACEMENT_3D('',#1103,#1104,#1105);
#1103 = CARTESIAN_POINT('',(10.,20.925,22.352702346948));
#1104 = DIRECTION('',(7.2E-16,-1.,0.));
#1105 = DIRECTION('',(0.,0.,-1.));
#1106 = ADVANCED_FACE('',(#1107),#1125,.F.);
#1107 = FACE_BOUND('',#1108,.F.);
#1108 = EDGE_LOOP('',(#1109,#1110,#1118,#1124));
#1109 = ORIENTED_EDGE('',*,*,#1095,.T.);
#1110 = ORIENTED_EDGE('',*,*,#1111,.T.);
#1111 = EDGE_CURVE('',#1088,#1112,#1114,.T.);
#1112 = VERTEX_POINT('',#1113);
#1113 = CARTESIAN_POINT('',(5.,25.,15.294595306105));
#1114 = LINE('',#1115,#1116);
#1115 = CARTESIAN_POINT('',(5.,20.925,17.647297653052));
#1116 = VECTOR('',#1117,1.);
#1117 = DIRECTION('',(-8.660254037844E-16,0.866025403784,-0.5));
#1118 = ORIENTED_EDGE('',*,*,#1119,.F.);
#1119 = EDGE_CURVE('',#681,#1112,#1120,.T.);
#1120 = LINE('',#1121,#1122);
#1121 = CARTESIAN_POINT('',(10.,25.,15.294595306105));
#1122 = VECTOR('',#1123,1.);
#1123 = DIRECTION('',(-1.,-7.2E-16,0.));
#1124 = ORIENTED_EDGE('',*,*,#688,.F.);
#1125 = PLANE('',#1126);
#1126 = AXIS2_PLACEMENT_3D('',#1127,#1128,#1129);
#1127 = CARTESIAN_POINT('',(10.,20.925,17.647297653052));
#1128 = DIRECTION('',(3.6E-16,-0.5,-0.866025403784));
#1129 = DIRECTION('',(-5.8E-16,0.866025403784,-0.5));
#1130 = ADVANCED_FACE('',(#1131),#1142,.F.);
#1131 = FACE_BOUND('',#1132,.F.);
#1132 = EDGE_LOOP('',(#1133,#1134,#1140,#1141));
#1133 = ORIENTED_EDGE('',*,*,#1119,.T.);
#1134 = ORIENTED_EDGE('',*,*,#1135,.T.);
#1135 = EDGE_CURVE('',#1112,#1008,#1136,.T.);
#1136 = LINE('',#1137,#1138);
#1137 = CARTESIAN_POINT('',(5.,25.,15.294595306105));
#1138 = VECTOR('',#1139,1.);
#1139 = DIRECTION('',(-8.660254037844E-16,0.866025403784,0.5));
#1140 = ORIENTED_EDGE('',*,*,#1007,.F.);
#1141 = ORIENTED_EDGE('',*,*,#680,.F.);
#1142 = PLANE('',#1143);
#1143 = AXIS2_PLACEMENT_3D('',#1144,#1145,#1146);
#1144 = CARTESIAN_POINT('',(10.,25.,15.294595306105));
#1145 = DIRECTION('',(-3.6E-16,0.5,-0.866025403784));
#1146 = DIRECTION('',(-5.8E-16,0.866025403784,0.5));
#1147 = ADVANCED_FACE('',(#1148),#1173,.F.);
#1148 = FACE_BOUND('',#1149,.F.);
#1149 = EDGE_LOOP('',(#1150,#1158,#1166,#1172));
#1150 = ORIENTED_EDGE('',*,*,#1151,.T.);
#1151 = EDGE_CURVE('',#721,#1152,#1154,.T.);
#1152 = VERTEX_POINT('',#1153);
#1153 = CARTESIAN_POINT('',(5.,14.075,17.647297653052));
#1154 = LINE('',#1155,#1156);
#1155 = CARTESIAN_POINT('',(10.,14.075,17.647297653052));
#1156 = VECTOR('',#1157,1.);
#1157 = DIRECTION('',(-1.,-7.2E-16,0.));
#1158 = ORIENTED_EDGE('',*,*,#1159,.T.);
#1159 = EDGE_CURVE('',#1152,#1160,#1162,.T.);
#1160 = VERTEX_POINT('',#1161);
#1161 = CARTESIAN_POINT('',(5.,14.075,22.352702346948));
#1162 = LINE('',#1163,#1164);
#1163 = CARTESIAN_POINT('',(5.,14.075,17.647297653052));
#1164 = VECTOR('',#1165,1.);
#1165 = DIRECTION('',(5.965E-29,-5.965E-14,1.));
#1166 = ORIENTED_EDGE('',*,*,#1167,.F.);
#1167 = EDGE_CURVE('',#723,#1160,#1168,.T.);
#1168 = LINE('',#1169,#1170);
#1169 = CARTESIAN_POINT('',(10.,14.075,22.352702346948));
#1170 = VECTOR('',#1171,1.);
#1171 = DIRECTION('',(-1.,-7.2E-16,0.));
#1172 = ORIENTED_EDGE('',*,*,#720,.F.);
#1173 = PLANE('',#1174);
#1174 = AXIS2_PLACEMENT_3D('',#1175,#1176,#1177);
#1175 = CARTESIAN_POINT('',(10.,14.075,17.647297653052));
#1176 = DIRECTION('',(-7.2E-16,1.,5.965E-14));
#1177 = DIRECTION('',(0.,-5.965E-14,1.));
#1178 = ADVANCED_FACE('',(#1179),#1197,.F.);
#1179 = FACE_BOUND('',#1180,.F.);
#1180 = EDGE_LOOP('',(#1181,#1182,#1190,#1196));
#1181 = ORIENTED_EDGE('',*,*,#1167,.T.);
#1182 = ORIENTED_EDGE('',*,*,#1183,.T.);
#1183 = EDGE_CURVE('',#1160,#1184,#1186,.T.);
#1184 = VERTEX_POINT('',#1185);
#1185 = CARTESIAN_POINT('',(5.,10.,24.705404693895));
#1186 = LINE('',#1187,#1188);
#1187 = CARTESIAN_POINT('',(5.,14.075,22.352702346948));
#1188 = VECTOR('',#1189,1.);
#1189 = DIRECTION('',(8.660254037845E-16,-0.866025403784,0.5));
#1190 = ORIENTED_EDGE('',*,*,#1191,.F.);
#1191 = EDGE_CURVE('',#755,#1184,#1192,.T.);
#1192 = LINE('',#1193,#1194);
#1193 = CARTESIAN_POINT('',(10.,10.,24.705404693895));
#1194 = VECTOR('',#1195,1.);
#1195 = DIRECTION('',(-1.,-7.2E-16,0.));
#1196 = ORIENTED_EDGE('',*,*,#762,.F.);
#1197 = PLANE('',#1198);
#1198 = AXIS2_PLACEMENT_3D('',#1199,#1200,#1201);
#1199 = CARTESIAN_POINT('',(10.,14.075,22.352702346948));
#1200 = DIRECTION('',(-3.6E-16,0.5,0.866025403784));
#1201 = DIRECTION('',(5.8E-16,-0.866025403784,0.5));
#1202 = ADVANCED_FACE('',(#1203),#1221,.F.);
#1203 = FACE_BOUND('',#1204,.F.);
#1204 = EDGE_LOOP('',(#1205,#1206,#1214,#1220));
#1205 = ORIENTED_EDGE('',*,*,#1191,.T.);
#1206 = ORIENTED_EDGE('',*,*,#1207,.T.);
#1207 = EDGE_CURVE('',#1184,#1208,#1210,.T.);
#1208 = VERTEX_POINT('',#1209);
#1209 = CARTESIAN_POINT('',(5.,5.925,22.352702346948));
#1210 = LINE('',#1211,#1212);
#1211 = CARTESIAN_POINT('',(5.,10.,24.705404693895));
#1212 = VECTOR('',#1213,1.);
#1213 = DIRECTION('',(8.660254037844E-16,-0.866025403784,-0.5));
#1214 = ORIENTED_EDGE('',*,*,#1215,.F.);
#1215 = EDGE_CURVE('',#747,#1208,#1216,.T.);
#1216 = LINE('',#1217,#1218);
#1217 = CARTESIAN_POINT('',(10.,5.925,22.352702346948));
#1218 = VECTOR('',#1219,1.);
#1219 = DIRECTION('',(-1.,-7.2E-16,0.));
#1220 = ORIENTED_EDGE('',*,*,#754,.F.);
#1221 = PLANE('',#1222);
#1222 = AXIS2_PLACEMENT_3D('',#1223,#1224,#1225);
#1223 = CARTESIAN_POINT('',(10.,10.,24.705404693895));
#1224 = DIRECTION('',(3.6E-16,-0.5,0.866025403784));
#1225 = DIRECTION('',(5.8E-16,-0.866025403784,-0.5));
#1226 = ADVANCED_FACE('',(#1227),#1245,.F.);
#1227 = FACE_BOUND('',#1228,.F.);
#1228 = EDGE_LOOP('',(#1229,#1230,#1238,#1244));
#1229 = ORIENTED_EDGE('',*,*,#1215,.T.);
#1230 = ORIENTED_EDGE('',*,*,#1231,.T.);
#1231 = EDGE_CURVE('',#1208,#1232,#1234,.T.);
#1232 = VERTEX_POINT('',#1233);
#1233 = CARTESIAN_POINT('',(5.,5.925,17.647297653052));
#1234 = LINE('',#1235,#1236);
#1235 = CARTESIAN_POINT('',(5.,5.925,22.352702346948));
#1236 = VECTOR('',#1237,1.);
#1237 = DIRECTION('',(0.,0.,-1.));
#1238 = ORIENTED_EDGE('',*,*,#1239,.F.);
#1239 = EDGE_CURVE('',#739,#1232,#1240,.T.);
#1240 = LINE('',#1241,#1242);
#1241 = CARTESIAN_POINT('',(10.,5.925,17.647297653052));
#1242 = VECTOR('',#1243,1.);
#1243 = DIRECTION('',(-1.,-7.2E-16,0.));
#1244 = ORIENTED_EDGE('',*,*,#746,.F.);
#1245 = PLANE('',#1246);
#1246 = AXIS2_PLACEMENT_3D('',#1247,#1248,#1249);
#1247 = CARTESIAN_POINT('',(10.,5.925,22.352702346948));
#1248 = DIRECTION('',(7.2E-16,-1.,0.));
#1249 = DIRECTION('',(0.,0.,-1.));
#1250 = ADVANCED_FACE('',(#1251),#1269,.F.);
#1251 = FACE_BOUND('',#1252,.F.);
#1252 = EDGE_LOOP('',(#1253,#1254,#1262,#1268));
#1253 = ORIENTED_EDGE('',*,*,#1239,.T.);
#1254 = ORIENTED_EDGE('',*,*,#1255,.T.);
#1255 = EDGE_CURVE('',#1232,#1256,#1258,.T.);
#1256 = VERTEX_POINT('',#1257);
#1257 = CARTESIAN_POINT('',(5.,10.,15.294595306104));
#1258 = LINE('',#1259,#1260);
#1259 = CARTESIAN_POINT('',(5.,5.925,17.647297653052));
#1260 = VECTOR('',#1261,1.);
#1261 = DIRECTION('',(-8.660254037845E-16,0.866025403784,-0.5));
#1262 = ORIENTED_EDGE('',*,*,#1263,.F.);
#1263 = EDGE_CURVE('',#731,#1256,#1264,.T.);
#1264 = LINE('',#1265,#1266);
#1265 = CARTESIAN_POINT('',(10.,10.,15.294595306104));
#1266 = VECTOR('',#1267,1.);
#1267 = DIRECTION('',(-1.,-7.2E-16,0.));
#1268 = ORIENTED_EDGE('',*,*,#738,.F.);
#1269 = PLANE('',#1270);
#1270 = AXIS2_PLACEMENT_3D('',#1271,#1272,#1273);
#1271 = CARTESIAN_POINT('',(10.,5.925,17.647297653052));
#1272 = DIRECTION('',(3.6E-16,-0.5,-0.866025403784));
#1273 = DIRECTION('',(-5.8E-16,0.866025403784,-0.5));
#1274 = ADVANCED_FACE('',(#1275),#1286,.F.);
#1275 = FACE_BOUND('',#1276,.F.);
#1276 = EDGE_LOOP('',(#1277,#1278,#1284,#1285));
#1277 = ORIENTED_EDGE('',*,*,#1263,.T.);
#1278 = ORIENTED_EDGE('',*,*,#1279,.T.);
#1279 = EDGE_CURVE('',#1256,#1152,#1280,.T.);
#1280 = LINE('',#1281,#1282);
#1281 = CARTESIAN_POINT('',(5.,10.,15.294595306104));
#1282 = VECTOR('',#1283,1.);
#1283 = DIRECTION('',(-8.660254037844E-16,0.866025403784,0.5));
#1284 = ORIENTED_EDGE('',*,*,#1151,.F.);
#1285 = ORIENTED_EDGE('',*,*,#730,.F.);
#1286 = PLANE('',#1287);
#1287 = AXIS2_PLACEMENT_3D('',#1288,#1289,#1290);
#1288 = CARTESIAN_POINT('',(10.,10.,15.294595306104));
#1289 = DIRECTION('',(-3.6E-16,0.5,-0.866025403784));
#1290 = DIRECTION('',(-5.8E-16,0.866025403784,0.5));
#1291 = ADVANCED_FACE('',(#1292),#1303,.F.);
#1292 = FACE_BOUND('',#1293,.F.);
#1293 = EDGE_LOOP('',(#1294,#1300,#1301,#1302));
#1294 = ORIENTED_EDGE('',*,*,#1295,.T.);
#1295 = EDGE_CURVE('',#831,#959,#1296,.T.);
#1296 = LINE('',#1297,#1298);
#1297 = CARTESIAN_POINT('',(-8.77E-15,39.5,30.));
#1298 = VECTOR('',#1299,1.);
#1299 = DIRECTION('',(1.,2.2E-16,0.));
#1300 = ORIENTED_EDGE('',*,*,#958,.T.);
#1301 = ORIENTED_EDGE('',*,*,#1295,.F.);
#1302 = ORIENTED_EDGE('',*,*,#830,.F.);
#1303 = CYLINDRICAL_SURFACE('',#1304,5.5);
#1304 = AXIS2_PLACEMENT_3D('',#1305,#1306,#1307);
#1305 = CARTESIAN_POINT('',(-9.99E-15,45.,30.));
#1306 = DIRECTION('',(-1.,-2.2E-16,0.));
#1307 = DIRECTION('',(2.2E-16,-1.,0.));
#1308 = ADVANCED_FACE('',(#1309),#1328,.F.);
#1309 = FACE_BOUND('',#1310,.F.);
#1310 = EDGE_LOOP('',(#1311,#1312,#1320,#1327));
#1311 = ORIENTED_EDGE('',*,*,#841,.F.);
#1312 = ORIENTED_EDGE('',*,*,#1313,.T.);
#1313 = EDGE_CURVE('',#842,#1314,#1316,.T.);
#1314 = VERTEX_POINT('',#1315);
#1315 = CARTESIAN_POINT('',(5.,7.35,20.));
#1316 = LINE('',#1317,#1318);
#1317 = CARTESIAN_POINT('',(-1.63E-15,7.35,20.));
#1318 = VECTOR('',#1319,1.);
#1319 = DIRECTION('',(1.,2.2E-16,0.));
#1320 = ORIENTED_EDGE('',*,*,#1321,.T.);
#1321 = EDGE_CURVE('',#1314,#1314,#1322,.T.);
#1322 = CIRCLE('',#1323,2.65);
#1323 = AXIS2_PLACEMENT_3D('',#1324,#1325,#1326);
#1324 = CARTESIAN_POINT('',(5.,10.,20.));
#1325 = DIRECTION('',(-1.,-2.2E-16,0.));
#1326 = DIRECTION('',(2.2E-16,-1.,0.));
#1327 = ORIENTED_EDGE('',*,*,#1313,.F.);
#1328 = CYLINDRICAL_SURFACE('',#1329,2.65);
#1329 = AXIS2_PLACEMENT_3D('',#1330,#1331,#1332);
#1330 = CARTESIAN_POINT('',(-2.22E-15,10.,20.));
#1331 = DIRECTION('',(-1.,-2.2E-16,0.));
#1332 = DIRECTION('',(2.2E-16,-1.,0.));
#1333 = ADVANCED_FACE('',(#1334),#1353,.F.);
#1334 = FACE_BOUND('',#1335,.F.);
#1335 = EDGE_LOOP('',(#1336,#1337,#1345,#1352));
#1336 = ORIENTED_EDGE('',*,*,#852,.F.);
#1337 = ORIENTED_EDGE('',*,*,#1338,.T.);
#1338 = EDGE_CURVE('',#853,#1339,#1341,.T.);
#1339 = VERTEX_POINT('',#1340);
#1340 = CARTESIAN_POINT('',(5.,22.35,20.));
#1341 = LINE('',#1342,#1343);
#1342 = CARTESIAN_POINT('',(-4.96E-15,22.35,20.));
#1343 = VECTOR('',#1344,1.);
#1344 = DIRECTION('',(1.,2.2E-16,0.));
#1345 = ORIENTED_EDGE('',*,*,#1346,.T.);
#1346 = EDGE_CURVE('',#1339,#1339,#1347,.T.);
#1347 = CIRCLE('',#1348,2.65);
#1348 = AXIS2_PLACEMENT_3D('',#1349,#1350,#1351);
#1349 = CARTESIAN_POINT('',(5.,25.,20.));
#1350 = DIRECTION('',(-1.,-2.2E-16,0.));
#1351 = DIRECTION('',(2.2E-16,-1.,0.));
#1352 = ORIENTED_EDGE('',*,*,#1338,.F.);
#1353 = CYLINDRICAL_SURFACE('',#1354,2.65);
#1354 = AXIS2_PLACEMENT_3D('',#1355,#1356,#1357);
#1355 = CARTESIAN_POINT('',(-5.55E-15,25.,20.));
#1356 = DIRECTION('',(-1.,-2.2E-16,0.));
#1357 = DIRECTION('',(2.2E-16,-1.,0.));
#1358 = ADVANCED_FACE('',(#1359),#1378,.F.);
#1359 = FACE_BOUND('',#1360,.F.);
#1360 = EDGE_LOOP('',(#1361,#1369,#1376,#1377));
#1361 = ORIENTED_EDGE('',*,*,#1362,.T.);
#1362 = EDGE_CURVE('',#864,#1363,#1365,.T.);
#1363 = VERTEX_POINT('',#1364);
#1364 = CARTESIAN_POINT('',(5.5,39.5,10.));
#1365 = LINE('',#1366,#1367);
#1366 = CARTESIAN_POINT('',(-8.77E-15,39.5,10.));
#1367 = VECTOR('',#1368,1.);
#1368 = DIRECTION('',(1.,2.2E-16,0.));
#1369 = ORIENTED_EDGE('',*,*,#1370,.T.);
#1370 = EDGE_CURVE('',#1363,#1363,#1371,.T.);
#1371 = CIRCLE('',#1372,5.5);
#1372 = AXIS2_PLACEMENT_3D('',#1373,#1374,#1375);
#1373 = CARTESIAN_POINT('',(5.5,45.,10.));
#1374 = DIRECTION('',(-1.,0.,0.));
#1375 = DIRECTION('',(0.,-1.,0.));
#1376 = ORIENTED_EDGE('',*,*,#1362,.F.);
#1377 = ORIENTED_EDGE('',*,*,#863,.F.);
#1378 = CYLINDRICAL_SURFACE('',#1379,5.5);
#1379 = AXIS2_PLACEMENT_3D('',#1380,#1381,#1382);
#1380 = CARTESIAN_POINT('',(-9.99E-15,45.,10.));
#1381 = DIRECTION('',(-1.,-2.2E-16,0.));
#1382 = DIRECTION('',(2.2E-16,-1.,0.));
#1383 = ADVANCED_FACE('',(#1384,#1387),#1390,.F.);
#1384 = FACE_BOUND('',#1385,.F.);
#1385 = EDGE_LOOP('',(#1386));
#1386 = ORIENTED_EDGE('',*,*,#1370,.F.);
#1387 = FACE_BOUND('',#1388,.F.);
#1388 = EDGE_LOOP('',(#1389));
#1389 = ORIENTED_EDGE('',*,*,#921,.T.);
#1390 = PLANE('',#1391);
#1391 = AXIS2_PLACEMENT_3D('',#1392,#1393,#1394);
#1392 = CARTESIAN_POINT('',(5.5,45.,20.));
#1393 = DIRECTION('',(1.,2.2E-16,0.));
#1394 = DIRECTION('',(-2.2E-16,1.,0.));
#1395 = ADVANCED_FACE('',(#1396,#1404),#1407,.T.);
#1396 = FACE_BOUND('',#1397,.T.);
#1397 = EDGE_LOOP('',(#1398,#1399,#1400,#1401,#1402,#1403));
#1398 = ORIENTED_EDGE('',*,*,#1015,.T.);
#1399 = ORIENTED_EDGE('',*,*,#1039,.T.);
#1400 = ORIENTED_EDGE('',*,*,#1063,.T.);
#1401 = ORIENTED_EDGE('',*,*,#1087,.T.);
#1402 = ORIENTED_EDGE('',*,*,#1111,.T.);
#1403 = ORIENTED_EDGE('',*,*,#1135,.T.);
#1404 = FACE_BOUND('',#1405,.T.);
#1405 = EDGE_LOOP('',(#1406));
#1406 = ORIENTED_EDGE('',*,*,#1346,.T.);
#1407 = PLANE('',#1408);
#1408 = AXIS2_PLACEMENT_3D('',#1409,#1410,#1411);
#1409 = CARTESIAN_POINT('',(5.,17.5,20.));
#1410 = DIRECTION('',(1.,6.7E-16,0.));
#1411 = DIRECTION('',(-6.7E-16,1.,0.));
#1412 = ADVANCED_FACE('',(#1413,#1421),#1424,.T.);
#1413 = FACE_BOUND('',#1414,.T.);
#1414 = EDGE_LOOP('',(#1415,#1416,#1417,#1418,#1419,#1420));
#1415 = ORIENTED_EDGE('',*,*,#1159,.T.);
#1416 = ORIENTED_EDGE('',*,*,#1183,.T.);
#1417 = ORIENTED_EDGE('',*,*,#1207,.T.);
#1418 = ORIENTED_EDGE('',*,*,#1231,.T.);
#1419 = ORIENTED_EDGE('',*,*,#1255,.T.);
#1420 = ORIENTED_EDGE('',*,*,#1279,.T.);
#1421 = FACE_BOUND('',#1422,.T.);
#1422 = EDGE_LOOP('',(#1423));
#1423 = ORIENTED_EDGE('',*,*,#1321,.T.);
#1424 = PLANE('',#1425);
#1425 = AXIS2_PLACEMENT_3D('',#1426,#1427,#1428);
#1426 = CARTESIAN_POINT('',(5.,17.5,20.));
#1427 = DIRECTION('',(1.,6.7E-16,0.));
#1428 = DIRECTION('',(-6.7E-16,1.,0.));
#1429 = ( GEOMETRIC_REPRESENTATION_CONTEXT(3) 
GLOBAL_UNCERTAINTY_ASSIGNED_CONTEXT((#1433)) 
GLOBAL_UNIT_ASSIGNED_CONTEXT((#1430,#1431,#1432)) REPRESENTATION_CONTEXT
('Context #1','3D Context with UNIT and UNCERTAINTY') );
#1430 = ( LENGTH_UNIT() NAMED_UNIT(*) SI_UNIT(.MILLI.,.METRE.) );
#1431 = ( NAMED_UNIT(*) PLANE_ANGLE_UNIT() SI_UNIT($,.RADIAN.) );
#1432 = ( NAMED_UNIT(*) SI_UNIT($,.STERADIAN.) SOLID_ANGLE_UNIT() );
#1433 = UNCERTAINTY_MEASURE_WITH_UNIT(LENGTH_MEASURE(1.E-07),#1430,
  'distance_accuracy_value','confusion accuracy');
#1434 = PRODUCT_RELATED_PRODUCT_CATEGORY('part',$,(#7));
#1435 = MECHANICAL_DESIGN_GEOMETRIC_PRESENTATION_REPRESENTATION('',(
    #1436),#1429);
#1436 = STYLED_ITEM('color',(#1437),#15);
#1437 = PRESENTATION_STYLE_ASSIGNMENT((#1438,#1444));
#1438 = SURFACE_STYLE_USAGE(.BOTH.,#1439);
#1439 = SURFACE_SIDE_STYLE('',(#1440));
#1440 = SURFACE_STYLE_FILL_AREA(#1441);
#1441 = FILL_AREA_STYLE('',(#1442));
#1442 = FILL_AREA_STYLE_COLOUR('',#1443);
#1443 = COLOUR_RGB('',0.800000010877,0.800000010877,0.800000010877);
#1444 = CURVE_STYLE('',#1445,POSITIVE_LENGTH_MEASURE(0.1),#1446);
#1445 = DRAUGHTING_PRE_DEFINED_CURVE_FONT('continuous');
#1446 = COLOUR_RGB('',9.803921802644E-02,9.803921802644E-02,
  9.803921802644E-02);
ENDSEC;
END-ISO-10303-21;
