ISO-10303-21;
HEADER;
FILE_DESCRIPTION(('FreeCAD Model'),'2;1');
FILE_NAME('Open CASCADE Shape Model','2025-05-21T09:43:41',('Author'),(
    ''),'Open CASCADE STEP processor 7.6','FreeCAD','Unknown');
FILE_SCHEMA(('AUTOMOTIVE_DESIGN { 1 0 10303 214 1 1 1 1 }'));
ENDSEC;
DATA;
#1 = APPLICATION_PROTOCOL_DEFINITION('international standard',
  'automotive_design',2000,#2);
#2 = APPLICATION_CONTEXT(
  'core data for automotive mechanical design processes');
#3 = SHAPE_DEFINITION_REPRESENTATION(#4,#10);
#4 = PRODUCT_DEFINITION_SHAPE('','',#5);
#5 = PRODUCT_DEFINITION('design','',#6,#9);
#6 = PRODUCT_DEFINITION_FORMATION('','',#7);
#7 = PRODUCT('Chamfer001','Chamfer001','',(#8));
#8 = PRODUCT_CONTEXT('',#2,'mechanical');
#9 = PRODUCT_DEFINITION_CONTEXT('part definition',#2,'design');
#10 = ADVANCED_BREP_SHAPE_REPRESENTATION('',(#11,#15),#1294);
#11 = AXIS2_PLACEMENT_3D('',#12,#13,#14);
#12 = CARTESIAN_POINT('',(0.,0.,0.));
#13 = DIRECTION('',(0.,0.,1.));
#14 = DIRECTION('',(1.,0.,-0.));
#15 = MANIFOLD_SOLID_BREP('',#16);
#16 = CLOSED_SHELL('',(#17,#125,#180,#204,#228,#252,#308,#332,#357,#405,
    #445,#469,#518,#543,#562,#579,#630,#642,#794,#811,#828,#840,#882,
    #899,#918,#977,#1002,#1019,#1031,#1062,#1086,#1110,#1134,#1158,#1175
    ,#1197,#1214,#1231,#1248,#1265,#1277));
#17 = ADVANCED_FACE('',(#18,#109),#120,.T.);
#18 = FACE_BOUND('',#19,.T.);
#19 = EDGE_LOOP('',(#20,#30,#38,#46,#54,#62,#70,#78,#86,#95,#103));
#20 = ORIENTED_EDGE('',*,*,#21,.T.);
#21 = EDGE_CURVE('',#22,#24,#26,.T.);
#22 = VERTEX_POINT('',#23);
#23 = CARTESIAN_POINT('',(15.,47.5,17.));
#24 = VERTEX_POINT('',#25);
#25 = CARTESIAN_POINT('',(15.,47.5,15.5));
#26 = LINE('',#27,#28);
#27 = CARTESIAN_POINT('',(15.,47.5,20.));
#28 = VECTOR('',#29,1.);
#29 = DIRECTION('',(0.,0.,-1.));
#30 = ORIENTED_EDGE('',*,*,#31,.T.);
#31 = EDGE_CURVE('',#24,#32,#34,.T.);
#32 = VERTEX_POINT('',#33);
#33 = CARTESIAN_POINT('',(15.,47.,15.));
#34 = LINE('',#35,#36);
#35 = CARTESIAN_POINT('',(15.,45.375,13.375));
#36 = VECTOR('',#37,1.);
#37 = DIRECTION('',(-2.5E-16,-0.707106781187,-0.707106781187));
#38 = ORIENTED_EDGE('',*,*,#39,.T.);
#39 = EDGE_CURVE('',#32,#40,#42,.T.);
#40 = VERTEX_POINT('',#41);
#41 = CARTESIAN_POINT('',(15.,43.,15.));
#42 = LINE('',#43,#44);
#43 = CARTESIAN_POINT('',(15.,47.5,15.));
#44 = VECTOR('',#45,1.);
#45 = DIRECTION('',(0.,-1.,0.));
#46 = ORIENTED_EDGE('',*,*,#47,.T.);
#47 = EDGE_CURVE('',#40,#48,#50,.T.);
#48 = VERTEX_POINT('',#49);
#49 = CARTESIAN_POINT('',(15.,42.5,15.5));
#50 = LINE('',#51,#52);
#51 = CARTESIAN_POINT('',(15.,44.625,13.375));
#52 = VECTOR('',#53,1.);
#53 = DIRECTION('',(-2.5E-16,-0.707106781187,0.707106781187));
#54 = ORIENTED_EDGE('',*,*,#55,.F.);
#55 = EDGE_CURVE('',#56,#48,#58,.T.);
#56 = VERTEX_POINT('',#57);
#57 = CARTESIAN_POINT('',(15.,42.5,17.));
#58 = LINE('',#59,#60);
#59 = CARTESIAN_POINT('',(15.,42.5,20.));
#60 = VECTOR('',#61,1.);
#61 = DIRECTION('',(0.,0.,-1.));
#62 = ORIENTED_EDGE('',*,*,#63,.F.);
#63 = EDGE_CURVE('',#64,#56,#66,.T.);
#64 = VERTEX_POINT('',#65);
#65 = CARTESIAN_POINT('',(15.,35.,17.));
#66 = LINE('',#67,#68);
#67 = CARTESIAN_POINT('',(15.,35.,17.));
#68 = VECTOR('',#69,1.);
#69 = DIRECTION('',(2.2E-16,1.,0.));
#70 = ORIENTED_EDGE('',*,*,#71,.F.);
#71 = EDGE_CURVE('',#72,#64,#74,.T.);
#72 = VERTEX_POINT('',#73);
#73 = CARTESIAN_POINT('',(15.,35.,0.));
#74 = LINE('',#75,#76);
#75 = CARTESIAN_POINT('',(15.,35.,0.));
#76 = VECTOR('',#77,1.);
#77 = DIRECTION('',(0.,0.,1.));
#78 = ORIENTED_EDGE('',*,*,#79,.F.);
#79 = EDGE_CURVE('',#80,#72,#82,.T.);
#80 = VERTEX_POINT('',#81);
#81 = CARTESIAN_POINT('',(15.,50.,-1.E-15));
#82 = LINE('',#83,#84);
#83 = CARTESIAN_POINT('',(15.,55.,0.));
#84 = VECTOR('',#85,1.);
#85 = DIRECTION('',(0.,-1.,0.));
#86 = ORIENTED_EDGE('',*,*,#87,.T.);
#87 = EDGE_CURVE('',#80,#88,#90,.T.);
#88 = VERTEX_POINT('',#89);
#89 = CARTESIAN_POINT('',(15.,55.,5.));
#90 = CIRCLE('',#91,5.);
#91 = AXIS2_PLACEMENT_3D('',#92,#93,#94);
#92 = CARTESIAN_POINT('',(15.,50.,5.));
#93 = DIRECTION('',(1.,0.,-0.));
#94 = DIRECTION('',(0.,0.,1.));
#95 = ORIENTED_EDGE('',*,*,#96,.F.);
#96 = EDGE_CURVE('',#97,#88,#99,.T.);
#97 = VERTEX_POINT('',#98);
#98 = CARTESIAN_POINT('',(15.,55.,17.));
#99 = LINE('',#100,#101);
#100 = CARTESIAN_POINT('',(15.,55.,20.));
#101 = VECTOR('',#102,1.);
#102 = DIRECTION('',(0.,0.,-1.));
#103 = ORIENTED_EDGE('',*,*,#104,.F.);
#104 = EDGE_CURVE('',#22,#97,#105,.T.);
#105 = LINE('',#106,#107);
#106 = CARTESIAN_POINT('',(15.,47.5,17.));
#107 = VECTOR('',#108,1.);
#108 = DIRECTION('',(2.2E-16,1.,0.));
#109 = FACE_BOUND('',#110,.T.);
#110 = EDGE_LOOP('',(#111));
#111 = ORIENTED_EDGE('',*,*,#112,.T.);
#112 = EDGE_CURVE('',#113,#113,#115,.T.);
#113 = VERTEX_POINT('',#114);
#114 = CARTESIAN_POINT('',(15.,42.35,10.));
#115 = CIRCLE('',#116,2.65);
#116 = AXIS2_PLACEMENT_3D('',#117,#118,#119);
#117 = CARTESIAN_POINT('',(15.,45.,10.));
#118 = DIRECTION('',(-1.,-2.2E-16,0.));
#119 = DIRECTION('',(2.2E-16,-1.,0.));
#120 = PLANE('',#121);
#121 = AXIS2_PLACEMENT_3D('',#122,#123,#124);
#122 = CARTESIAN_POINT('',(15.,45.,10.));
#123 = DIRECTION('',(1.,-3.6E-16,0.));
#124 = DIRECTION('',(3.6E-16,1.,0.));
#125 = ADVANCED_FACE('',(#126),#175,.T.);
#126 = FACE_BOUND('',#127,.T.);
#127 = EDGE_LOOP('',(#128,#129,#137,#145,#153,#161,#169));
#128 = ORIENTED_EDGE('',*,*,#21,.F.);
#129 = ORIENTED_EDGE('',*,*,#130,.T.);
#130 = EDGE_CURVE('',#22,#131,#133,.T.);
#131 = VERTEX_POINT('',#132);
#132 = CARTESIAN_POINT('',(18.,47.5,20.));
#133 = LINE('',#134,#135);
#134 = CARTESIAN_POINT('',(22.75,47.5,24.75));
#135 = VECTOR('',#136,1.);
#136 = DIRECTION('',(0.707106781187,0.,0.707106781187));
#137 = ORIENTED_EDGE('',*,*,#138,.F.);
#138 = EDGE_CURVE('',#139,#131,#141,.T.);
#139 = VERTEX_POINT('',#140);
#140 = CARTESIAN_POINT('',(37.,47.5,20.));
#141 = LINE('',#142,#143);
#142 = CARTESIAN_POINT('',(40.,47.5,20.));
#143 = VECTOR('',#144,1.);
#144 = DIRECTION('',(-1.,0.,0.));
#145 = ORIENTED_EDGE('',*,*,#146,.F.);
#146 = EDGE_CURVE('',#147,#139,#149,.T.);
#147 = VERTEX_POINT('',#148);
#148 = CARTESIAN_POINT('',(40.,47.5,23.));
#149 = LINE('',#150,#151);
#150 = CARTESIAN_POINT('',(38.5,47.5,21.5));
#151 = VECTOR('',#152,1.);
#152 = DIRECTION('',(-0.707106781187,-0.,-0.707106781187));
#153 = ORIENTED_EDGE('',*,*,#154,.F.);
#154 = EDGE_CURVE('',#155,#147,#157,.T.);
#155 = VERTEX_POINT('',#156);
#156 = CARTESIAN_POINT('',(40.,47.5,20.));
#157 = LINE('',#158,#159);
#158 = CARTESIAN_POINT('',(40.,47.5,10.));
#159 = VECTOR('',#160,1.);
#160 = DIRECTION('',(0.,0.,1.));
#161 = ORIENTED_EDGE('',*,*,#162,.T.);
#162 = EDGE_CURVE('',#155,#163,#165,.T.);
#163 = VERTEX_POINT('',#164);
#164 = CARTESIAN_POINT('',(40.,47.5,15.5));
#165 = LINE('',#166,#167);
#166 = CARTESIAN_POINT('',(40.,47.5,20.));
#167 = VECTOR('',#168,1.);
#168 = DIRECTION('',(0.,0.,-1.));
#169 = ORIENTED_EDGE('',*,*,#170,.T.);
#170 = EDGE_CURVE('',#163,#24,#171,.T.);
#171 = LINE('',#172,#173);
#172 = CARTESIAN_POINT('',(40.,47.5,15.5));
#173 = VECTOR('',#174,1.);
#174 = DIRECTION('',(-1.,-0.,-0.));
#175 = PLANE('',#176);
#176 = AXIS2_PLACEMENT_3D('',#177,#178,#179);
#177 = CARTESIAN_POINT('',(40.,47.5,20.));
#178 = DIRECTION('',(0.,1.,0.));
#179 = DIRECTION('',(-1.,-0.,-0.));
#180 = ADVANCED_FACE('',(#181),#199,.T.);
#181 = FACE_BOUND('',#182,.F.);
#182 = EDGE_LOOP('',(#183,#191,#192,#193));
#183 = ORIENTED_EDGE('',*,*,#184,.F.);
#184 = EDGE_CURVE('',#163,#185,#187,.T.);
#185 = VERTEX_POINT('',#186);
#186 = CARTESIAN_POINT('',(40.,47.,15.));
#187 = LINE('',#188,#189);
#188 = CARTESIAN_POINT('',(40.,47.25,15.25));
#189 = VECTOR('',#190,1.);
#190 = DIRECTION('',(0.,-0.707106781187,-0.707106781187));
#191 = ORIENTED_EDGE('',*,*,#170,.T.);
#192 = ORIENTED_EDGE('',*,*,#31,.T.);
#193 = ORIENTED_EDGE('',*,*,#194,.F.);
#194 = EDGE_CURVE('',#185,#32,#195,.T.);
#195 = LINE('',#196,#197);
#196 = CARTESIAN_POINT('',(40.,47.,15.));
#197 = VECTOR('',#198,1.);
#198 = DIRECTION('',(-1.,-0.,-0.));
#199 = PLANE('',#200);
#200 = AXIS2_PLACEMENT_3D('',#201,#202,#203);
#201 = CARTESIAN_POINT('',(40.,47.25,15.25));
#202 = DIRECTION('',(0.,0.707106781187,-0.707106781187));
#203 = DIRECTION('',(1.,-0.,0.));
#204 = ADVANCED_FACE('',(#205),#223,.F.);
#205 = FACE_BOUND('',#206,.T.);
#206 = EDGE_LOOP('',(#207,#208,#209,#217));
#207 = ORIENTED_EDGE('',*,*,#130,.F.);
#208 = ORIENTED_EDGE('',*,*,#104,.T.);
#209 = ORIENTED_EDGE('',*,*,#210,.T.);
#210 = EDGE_CURVE('',#97,#211,#213,.T.);
#211 = VERTEX_POINT('',#212);
#212 = CARTESIAN_POINT('',(18.,55.,20.));
#213 = LINE('',#214,#215);
#214 = CARTESIAN_POINT('',(7.75,55.,9.75));
#215 = VECTOR('',#216,1.);
#216 = DIRECTION('',(0.707106781187,0.,0.707106781187));
#217 = ORIENTED_EDGE('',*,*,#218,.F.);
#218 = EDGE_CURVE('',#131,#211,#219,.T.);
#219 = LINE('',#220,#221);
#220 = CARTESIAN_POINT('',(18.,47.5,20.));
#221 = VECTOR('',#222,1.);
#222 = DIRECTION('',(2.2E-16,1.,0.));
#223 = PLANE('',#224);
#224 = AXIS2_PLACEMENT_3D('',#225,#226,#227);
#225 = CARTESIAN_POINT('',(16.5,47.5,18.5));
#226 = DIRECTION('',(-0.707106781187,2.4E-16,0.707106781187));
#227 = DIRECTION('',(-2.797056274848E-16,-1.,5.970562748477E-17));
#228 = ADVANCED_FACE('',(#229),#247,.T.);
#229 = FACE_BOUND('',#230,.T.);
#230 = EDGE_LOOP('',(#231,#239,#245,#246));
#231 = ORIENTED_EDGE('',*,*,#232,.F.);
#232 = EDGE_CURVE('',#233,#185,#235,.T.);
#233 = VERTEX_POINT('',#234);
#234 = CARTESIAN_POINT('',(40.,43.,15.));
#235 = LINE('',#236,#237);
#236 = CARTESIAN_POINT('',(40.,42.5,15.));
#237 = VECTOR('',#238,1.);
#238 = DIRECTION('',(0.,1.,0.));
#239 = ORIENTED_EDGE('',*,*,#240,.F.);
#240 = EDGE_CURVE('',#40,#233,#241,.T.);
#241 = LINE('',#242,#243);
#242 = CARTESIAN_POINT('',(15.,43.,15.));
#243 = VECTOR('',#244,1.);
#244 = DIRECTION('',(1.,0.,0.));
#245 = ORIENTED_EDGE('',*,*,#39,.F.);
#246 = ORIENTED_EDGE('',*,*,#194,.F.);
#247 = PLANE('',#248);
#248 = AXIS2_PLACEMENT_3D('',#249,#250,#251);
#249 = CARTESIAN_POINT('',(27.5,45.,15.));
#250 = DIRECTION('',(0.,0.,-1.));
#251 = DIRECTION('',(0.,1.,0.));
#252 = ADVANCED_FACE('',(#253),#303,.T.);
#253 = FACE_BOUND('',#254,.T.);
#254 = EDGE_LOOP('',(#255,#256,#264,#272,#280,#288,#296,#302));
#255 = ORIENTED_EDGE('',*,*,#96,.T.);
#256 = ORIENTED_EDGE('',*,*,#257,.F.);
#257 = EDGE_CURVE('',#258,#88,#260,.T.);
#258 = VERTEX_POINT('',#259);
#259 = CARTESIAN_POINT('',(0.,55.,5.));
#260 = LINE('',#261,#262);
#261 = CARTESIAN_POINT('',(0.,55.,5.));
#262 = VECTOR('',#263,1.);
#263 = DIRECTION('',(1.,0.,0.));
#264 = ORIENTED_EDGE('',*,*,#265,.T.);
#265 = EDGE_CURVE('',#258,#266,#268,.T.);
#266 = VERTEX_POINT('',#267);
#267 = CARTESIAN_POINT('',(0.,55.,35.));
#268 = LINE('',#269,#270);
#269 = CARTESIAN_POINT('',(0.,55.,0.));
#270 = VECTOR('',#271,1.);
#271 = DIRECTION('',(0.,0.,1.));
#272 = ORIENTED_EDGE('',*,*,#273,.T.);
#273 = EDGE_CURVE('',#266,#274,#276,.T.);
#274 = VERTEX_POINT('',#275);
#275 = CARTESIAN_POINT('',(40.,55.,35.));
#276 = LINE('',#277,#278);
#277 = CARTESIAN_POINT('',(0.,55.,35.));
#278 = VECTOR('',#279,1.);
#279 = DIRECTION('',(1.,0.,0.));
#280 = ORIENTED_EDGE('',*,*,#281,.F.);
#281 = EDGE_CURVE('',#282,#274,#284,.T.);
#282 = VERTEX_POINT('',#283);
#283 = CARTESIAN_POINT('',(40.,55.,23.));
#284 = LINE('',#285,#286);
#285 = CARTESIAN_POINT('',(40.,55.,0.));
#286 = VECTOR('',#287,1.);
#287 = DIRECTION('',(0.,0.,1.));
#288 = ORIENTED_EDGE('',*,*,#289,.T.);
#289 = EDGE_CURVE('',#282,#290,#292,.T.);
#290 = VERTEX_POINT('',#291);
#291 = CARTESIAN_POINT('',(37.,55.,20.));
#292 = LINE('',#293,#294);
#293 = CARTESIAN_POINT('',(23.5,55.,6.5));
#294 = VECTOR('',#295,1.);
#295 = DIRECTION('',(-0.707106781187,0.,-0.707106781187));
#296 = ORIENTED_EDGE('',*,*,#297,.T.);
#297 = EDGE_CURVE('',#290,#211,#298,.T.);
#298 = LINE('',#299,#300);
#299 = CARTESIAN_POINT('',(40.,55.,20.));
#300 = VECTOR('',#301,1.);
#301 = DIRECTION('',(-1.,2.2E-16,0.));
#302 = ORIENTED_EDGE('',*,*,#210,.F.);
#303 = PLANE('',#304);
#304 = AXIS2_PLACEMENT_3D('',#305,#306,#307);
#305 = CARTESIAN_POINT('',(0.,55.,0.));
#306 = DIRECTION('',(0.,1.,0.));
#307 = DIRECTION('',(1.,0.,0.));
#308 = ADVANCED_FACE('',(#309),#327,.T.);
#309 = FACE_BOUND('',#310,.T.);
#310 = EDGE_LOOP('',(#311,#312,#313,#321));
#311 = ORIENTED_EDGE('',*,*,#47,.F.);
#312 = ORIENTED_EDGE('',*,*,#240,.T.);
#313 = ORIENTED_EDGE('',*,*,#314,.T.);
#314 = EDGE_CURVE('',#233,#315,#317,.T.);
#315 = VERTEX_POINT('',#316);
#316 = CARTESIAN_POINT('',(40.,42.5,15.5));
#317 = LINE('',#318,#319);
#318 = CARTESIAN_POINT('',(40.,41.5,16.5));
#319 = VECTOR('',#320,1.);
#320 = DIRECTION('',(-0.,-0.707106781187,0.707106781187));
#321 = ORIENTED_EDGE('',*,*,#322,.F.);
#322 = EDGE_CURVE('',#48,#315,#323,.T.);
#323 = LINE('',#324,#325);
#324 = CARTESIAN_POINT('',(15.,42.5,15.5));
#325 = VECTOR('',#326,1.);
#326 = DIRECTION('',(1.,0.,0.));
#327 = PLANE('',#328);
#328 = AXIS2_PLACEMENT_3D('',#329,#330,#331);
#329 = CARTESIAN_POINT('',(15.,42.75,15.25));
#330 = DIRECTION('',(-0.,-0.707106781187,-0.707106781187));
#331 = DIRECTION('',(1.,-0.,0.));
#332 = ADVANCED_FACE('',(#333),#352,.T.);
#333 = FACE_BOUND('',#334,.T.);
#334 = EDGE_LOOP('',(#335,#344,#345,#346));
#335 = ORIENTED_EDGE('',*,*,#336,.T.);
#336 = EDGE_CURVE('',#337,#258,#339,.T.);
#337 = VERTEX_POINT('',#338);
#338 = CARTESIAN_POINT('',(0.,50.,-1.E-15));
#339 = CIRCLE('',#340,5.);
#340 = AXIS2_PLACEMENT_3D('',#341,#342,#343);
#341 = CARTESIAN_POINT('',(0.,50.,5.));
#342 = DIRECTION('',(1.,0.,-0.));
#343 = DIRECTION('',(0.,0.,1.));
#344 = ORIENTED_EDGE('',*,*,#257,.T.);
#345 = ORIENTED_EDGE('',*,*,#87,.F.);
#346 = ORIENTED_EDGE('',*,*,#347,.F.);
#347 = EDGE_CURVE('',#337,#80,#348,.T.);
#348 = LINE('',#349,#350);
#349 = CARTESIAN_POINT('',(0.,50.,-8.9E-16));
#350 = VECTOR('',#351,1.);
#351 = DIRECTION('',(1.,0.,0.));
#352 = CYLINDRICAL_SURFACE('',#353,5.);
#353 = AXIS2_PLACEMENT_3D('',#354,#355,#356);
#354 = CARTESIAN_POINT('',(0.,50.,5.));
#355 = DIRECTION('',(1.,0.,0.));
#356 = DIRECTION('',(0.,0.,-1.));
#357 = ADVANCED_FACE('',(#358),#400,.T.);
#358 = FACE_BOUND('',#359,.T.);
#359 = EDGE_LOOP('',(#360,#361,#362,#370,#378,#386,#394));
#360 = ORIENTED_EDGE('',*,*,#55,.T.);
#361 = ORIENTED_EDGE('',*,*,#322,.T.);
#362 = ORIENTED_EDGE('',*,*,#363,.F.);
#363 = EDGE_CURVE('',#364,#315,#366,.T.);
#364 = VERTEX_POINT('',#365);
#365 = CARTESIAN_POINT('',(40.,42.5,20.));
#366 = LINE('',#367,#368);
#367 = CARTESIAN_POINT('',(40.,42.5,20.));
#368 = VECTOR('',#369,1.);
#369 = DIRECTION('',(0.,0.,-1.));
#370 = ORIENTED_EDGE('',*,*,#371,.T.);
#371 = EDGE_CURVE('',#364,#372,#374,.T.);
#372 = VERTEX_POINT('',#373);
#373 = CARTESIAN_POINT('',(40.,42.5,23.));
#374 = LINE('',#375,#376);
#375 = CARTESIAN_POINT('',(40.,42.5,10.));
#376 = VECTOR('',#377,1.);
#377 = DIRECTION('',(0.,0.,1.));
#378 = ORIENTED_EDGE('',*,*,#379,.T.);
#379 = EDGE_CURVE('',#372,#380,#382,.T.);
#380 = VERTEX_POINT('',#381);
#381 = CARTESIAN_POINT('',(37.,42.5,20.));
#382 = LINE('',#383,#384);
#383 = CARTESIAN_POINT('',(32.25,42.5,15.25));
#384 = VECTOR('',#385,1.);
#385 = DIRECTION('',(-0.707106781187,-0.,-0.707106781187));
#386 = ORIENTED_EDGE('',*,*,#387,.F.);
#387 = EDGE_CURVE('',#388,#380,#390,.T.);
#388 = VERTEX_POINT('',#389);
#389 = CARTESIAN_POINT('',(18.,42.5,20.));
#390 = LINE('',#391,#392);
#391 = CARTESIAN_POINT('',(15.,42.5,20.));
#392 = VECTOR('',#393,1.);
#393 = DIRECTION('',(1.,0.,0.));
#394 = ORIENTED_EDGE('',*,*,#395,.F.);
#395 = EDGE_CURVE('',#56,#388,#396,.T.);
#396 = LINE('',#397,#398);
#397 = CARTESIAN_POINT('',(16.5,42.5,18.5));
#398 = VECTOR('',#399,1.);
#399 = DIRECTION('',(0.707106781187,0.,0.707106781187));
#400 = PLANE('',#401);
#401 = AXIS2_PLACEMENT_3D('',#402,#403,#404);
#402 = CARTESIAN_POINT('',(15.,42.5,20.));
#403 = DIRECTION('',(0.,-1.,0.));
#404 = DIRECTION('',(1.,0.,0.));
#405 = ADVANCED_FACE('',(#406),#440,.T.);
#406 = FACE_BOUND('',#407,.T.);
#407 = EDGE_LOOP('',(#408,#418,#426,#432,#433,#434));
#408 = ORIENTED_EDGE('',*,*,#409,.T.);
#409 = EDGE_CURVE('',#410,#412,#414,.T.);
#410 = VERTEX_POINT('',#411);
#411 = CARTESIAN_POINT('',(10.,35.,-1.E-15));
#412 = VERTEX_POINT('',#413);
#413 = CARTESIAN_POINT('',(10.,5.,-1.E-15));
#414 = LINE('',#415,#416);
#415 = CARTESIAN_POINT('',(10.,35.,0.));
#416 = VECTOR('',#417,1.);
#417 = DIRECTION('',(1.E-16,-1.,0.));
#418 = ORIENTED_EDGE('',*,*,#419,.T.);
#419 = EDGE_CURVE('',#412,#420,#422,.T.);
#420 = VERTEX_POINT('',#421);
#421 = CARTESIAN_POINT('',(0.,5.,-1.E-15));
#422 = LINE('',#423,#424);
#423 = CARTESIAN_POINT('',(10.,5.,-8.9E-16));
#424 = VECTOR('',#425,1.);
#425 = DIRECTION('',(-1.,0.,0.));
#426 = ORIENTED_EDGE('',*,*,#427,.T.);
#427 = EDGE_CURVE('',#420,#337,#428,.T.);
#428 = LINE('',#429,#430);
#429 = CARTESIAN_POINT('',(0.,0.,0.));
#430 = VECTOR('',#431,1.);
#431 = DIRECTION('',(0.,1.,0.));
#432 = ORIENTED_EDGE('',*,*,#347,.T.);
#433 = ORIENTED_EDGE('',*,*,#79,.T.);
#434 = ORIENTED_EDGE('',*,*,#435,.T.);
#435 = EDGE_CURVE('',#72,#410,#436,.T.);
#436 = LINE('',#437,#438);
#437 = CARTESIAN_POINT('',(40.,35.,0.));
#438 = VECTOR('',#439,1.);
#439 = DIRECTION('',(-1.,0.,0.));
#440 = PLANE('',#441);
#441 = AXIS2_PLACEMENT_3D('',#442,#443,#444);
#442 = CARTESIAN_POINT('',(14.473684210526,33.026315789474,7.33E-15));
#443 = DIRECTION('',(0.,2.2E-16,-1.));
#444 = DIRECTION('',(0.,1.,2.2E-16));
#445 = ADVANCED_FACE('',(#446),#464,.F.);
#446 = FACE_BOUND('',#447,.T.);
#447 = EDGE_LOOP('',(#448,#456,#457,#458));
#448 = ORIENTED_EDGE('',*,*,#449,.F.);
#449 = EDGE_CURVE('',#64,#450,#452,.T.);
#450 = VERTEX_POINT('',#451);
#451 = CARTESIAN_POINT('',(18.,35.,20.));
#452 = LINE('',#453,#454);
#453 = CARTESIAN_POINT('',(17.75,35.,19.75));
#454 = VECTOR('',#455,1.);
#455 = DIRECTION('',(0.707106781187,0.,0.707106781187));
#456 = ORIENTED_EDGE('',*,*,#63,.T.);
#457 = ORIENTED_EDGE('',*,*,#395,.T.);
#458 = ORIENTED_EDGE('',*,*,#459,.F.);
#459 = EDGE_CURVE('',#450,#388,#460,.T.);
#460 = LINE('',#461,#462);
#461 = CARTESIAN_POINT('',(18.,35.,20.));
#462 = VECTOR('',#463,1.);
#463 = DIRECTION('',(2.2E-16,1.,0.));
#464 = PLANE('',#465);
#465 = AXIS2_PLACEMENT_3D('',#466,#467,#468);
#466 = CARTESIAN_POINT('',(16.5,35.,18.5));
#467 = DIRECTION('',(-0.707106781187,0.,0.707106781187));
#468 = DIRECTION('',(-1.1E-16,-1.,-1.1E-16));
#469 = ADVANCED_FACE('',(#470),#513,.T.);
#470 = FACE_BOUND('',#471,.T.);
#471 = EDGE_LOOP('',(#472,#480,#488,#496,#504,#510,#511,#512));
#472 = ORIENTED_EDGE('',*,*,#473,.F.);
#473 = EDGE_CURVE('',#474,#450,#476,.T.);
#474 = VERTEX_POINT('',#475);
#475 = CARTESIAN_POINT('',(37.,35.,20.));
#476 = LINE('',#477,#478);
#477 = CARTESIAN_POINT('',(40.,35.,20.));
#478 = VECTOR('',#479,1.);
#479 = DIRECTION('',(-1.,2.2E-16,0.));
#480 = ORIENTED_EDGE('',*,*,#481,.F.);
#481 = EDGE_CURVE('',#482,#474,#484,.T.);
#482 = VERTEX_POINT('',#483);
#483 = CARTESIAN_POINT('',(40.,35.,23.));
#484 = LINE('',#485,#486);
#485 = CARTESIAN_POINT('',(33.5,35.,16.5));
#486 = VECTOR('',#487,1.);
#487 = DIRECTION('',(-0.707106781187,-0.,-0.707106781187));
#488 = ORIENTED_EDGE('',*,*,#489,.T.);
#489 = EDGE_CURVE('',#482,#490,#492,.T.);
#490 = VERTEX_POINT('',#491);
#491 = CARTESIAN_POINT('',(40.,35.,40.));
#492 = LINE('',#493,#494);
#493 = CARTESIAN_POINT('',(40.,35.,0.));
#494 = VECTOR('',#495,1.);
#495 = DIRECTION('',(0.,0.,1.));
#496 = ORIENTED_EDGE('',*,*,#497,.T.);
#497 = EDGE_CURVE('',#490,#498,#500,.T.);
#498 = VERTEX_POINT('',#499);
#499 = CARTESIAN_POINT('',(10.,35.,40.));
#500 = LINE('',#501,#502);
#501 = CARTESIAN_POINT('',(40.,35.,40.));
#502 = VECTOR('',#503,1.);
#503 = DIRECTION('',(-1.,0.,0.));
#504 = ORIENTED_EDGE('',*,*,#505,.F.);
#505 = EDGE_CURVE('',#410,#498,#506,.T.);
#506 = LINE('',#507,#508);
#507 = CARTESIAN_POINT('',(10.,35.,0.));
#508 = VECTOR('',#509,1.);
#509 = DIRECTION('',(0.,0.,1.));
#510 = ORIENTED_EDGE('',*,*,#435,.F.);
#511 = ORIENTED_EDGE('',*,*,#71,.T.);
#512 = ORIENTED_EDGE('',*,*,#449,.T.);
#513 = PLANE('',#514);
#514 = AXIS2_PLACEMENT_3D('',#515,#516,#517);
#515 = CARTESIAN_POINT('',(40.,35.,0.));
#516 = DIRECTION('',(0.,-1.,0.));
#517 = DIRECTION('',(-1.,0.,0.));
#518 = ADVANCED_FACE('',(#519),#538,.F.);
#519 = FACE_BOUND('',#520,.F.);
#520 = EDGE_LOOP('',(#521,#530,#536,#537));
#521 = ORIENTED_EDGE('',*,*,#522,.F.);
#522 = EDGE_CURVE('',#523,#523,#525,.T.);
#523 = VERTEX_POINT('',#524);
#524 = CARTESIAN_POINT('',(5.5,42.35,10.));
#525 = CIRCLE('',#526,2.65);
#526 = AXIS2_PLACEMENT_3D('',#527,#528,#529);
#527 = CARTESIAN_POINT('',(5.5,45.,10.));
#528 = DIRECTION('',(-1.,-2.2E-16,0.));
#529 = DIRECTION('',(2.2E-16,-1.,0.));
#530 = ORIENTED_EDGE('',*,*,#531,.T.);
#531 = EDGE_CURVE('',#523,#113,#532,.T.);
#532 = LINE('',#533,#534);
#533 = CARTESIAN_POINT('',(-9.4E-15,42.35,10.));
#534 = VECTOR('',#535,1.);
#535 = DIRECTION('',(1.,2.2E-16,0.));
#536 = ORIENTED_EDGE('',*,*,#112,.T.);
#537 = ORIENTED_EDGE('',*,*,#531,.F.);
#538 = CYLINDRICAL_SURFACE('',#539,2.65);
#539 = AXIS2_PLACEMENT_3D('',#540,#541,#542);
#540 = CARTESIAN_POINT('',(-9.99E-15,45.,10.));
#541 = DIRECTION('',(-1.,-2.2E-16,0.));
#542 = DIRECTION('',(2.2E-16,-1.,0.));
#543 = ADVANCED_FACE('',(#544),#557,.T.);
#544 = FACE_BOUND('',#545,.T.);
#545 = EDGE_LOOP('',(#546,#547,#548,#549,#550,#551));
#546 = ORIENTED_EDGE('',*,*,#363,.T.);
#547 = ORIENTED_EDGE('',*,*,#314,.F.);
#548 = ORIENTED_EDGE('',*,*,#232,.T.);
#549 = ORIENTED_EDGE('',*,*,#184,.F.);
#550 = ORIENTED_EDGE('',*,*,#162,.F.);
#551 = ORIENTED_EDGE('',*,*,#552,.F.);
#552 = EDGE_CURVE('',#364,#155,#553,.T.);
#553 = LINE('',#554,#555);
#554 = CARTESIAN_POINT('',(40.,42.5,20.));
#555 = VECTOR('',#556,1.);
#556 = DIRECTION('',(0.,1.,0.));
#557 = PLANE('',#558);
#558 = AXIS2_PLACEMENT_3D('',#559,#560,#561);
#559 = CARTESIAN_POINT('',(40.,42.5,20.));
#560 = DIRECTION('',(1.,0.,0.));
#561 = DIRECTION('',(0.,1.,0.));
#562 = ADVANCED_FACE('',(#563),#574,.T.);
#563 = FACE_BOUND('',#564,.T.);
#564 = EDGE_LOOP('',(#565,#566,#572,#573));
#565 = ORIENTED_EDGE('',*,*,#297,.F.);
#566 = ORIENTED_EDGE('',*,*,#567,.F.);
#567 = EDGE_CURVE('',#139,#290,#568,.T.);
#568 = LINE('',#569,#570);
#569 = CARTESIAN_POINT('',(37.,47.5,20.));
#570 = VECTOR('',#571,1.);
#571 = DIRECTION('',(2.2E-16,1.,0.));
#572 = ORIENTED_EDGE('',*,*,#138,.T.);
#573 = ORIENTED_EDGE('',*,*,#218,.T.);
#574 = PLANE('',#575);
#575 = AXIS2_PLACEMENT_3D('',#576,#577,#578);
#576 = CARTESIAN_POINT('',(40.,35.,20.));
#577 = DIRECTION('',(0.,0.,-1.));
#578 = DIRECTION('',(2.2E-16,1.,0.));
#579 = ADVANCED_FACE('',(#580,#614),#625,.T.);
#580 = FACE_BOUND('',#581,.T.);
#581 = EDGE_LOOP('',(#582,#588,#589,#598,#604,#605,#611,#612,#613));
#582 = ORIENTED_EDGE('',*,*,#583,.T.);
#583 = EDGE_CURVE('',#147,#282,#584,.T.);
#584 = LINE('',#585,#586);
#585 = CARTESIAN_POINT('',(40.,47.5,23.));
#586 = VECTOR('',#587,1.);
#587 = DIRECTION('',(2.2E-16,1.,0.));
#588 = ORIENTED_EDGE('',*,*,#281,.T.);
#589 = ORIENTED_EDGE('',*,*,#590,.F.);
#590 = EDGE_CURVE('',#591,#274,#593,.T.);
#591 = VERTEX_POINT('',#592);
#592 = CARTESIAN_POINT('',(40.,50.,40.));
#593 = CIRCLE('',#594,5.);
#594 = AXIS2_PLACEMENT_3D('',#595,#596,#597);
#595 = CARTESIAN_POINT('',(40.,50.,35.));
#596 = DIRECTION('',(-1.,0.,0.));
#597 = DIRECTION('',(0.,0.,1.));
#598 = ORIENTED_EDGE('',*,*,#599,.T.);
#599 = EDGE_CURVE('',#591,#490,#600,.T.);
#600 = LINE('',#601,#602);
#601 = CARTESIAN_POINT('',(40.,55.,40.));
#602 = VECTOR('',#603,1.);
#603 = DIRECTION('',(0.,-1.,0.));
#604 = ORIENTED_EDGE('',*,*,#489,.F.);
#605 = ORIENTED_EDGE('',*,*,#606,.T.);
#606 = EDGE_CURVE('',#482,#372,#607,.T.);
#607 = LINE('',#608,#609);
#608 = CARTESIAN_POINT('',(40.,35.,23.));
#609 = VECTOR('',#610,1.);
#610 = DIRECTION('',(2.2E-16,1.,0.));
#611 = ORIENTED_EDGE('',*,*,#371,.F.);
#612 = ORIENTED_EDGE('',*,*,#552,.T.);
#613 = ORIENTED_EDGE('',*,*,#154,.T.);
#614 = FACE_BOUND('',#615,.T.);
#615 = EDGE_LOOP('',(#616));
#616 = ORIENTED_EDGE('',*,*,#617,.T.);
#617 = EDGE_CURVE('',#618,#618,#620,.T.);
#618 = VERTEX_POINT('',#619);
#619 = CARTESIAN_POINT('',(40.,42.35,30.));
#620 = CIRCLE('',#621,2.65);
#621 = AXIS2_PLACEMENT_3D('',#622,#623,#624);
#622 = CARTESIAN_POINT('',(40.,45.,30.));
#623 = DIRECTION('',(-1.,-2.2E-16,0.));
#624 = DIRECTION('',(2.2E-16,-1.,0.));
#625 = PLANE('',#626);
#626 = AXIS2_PLACEMENT_3D('',#627,#628,#629);
#627 = CARTESIAN_POINT('',(40.,55.,0.));
#628 = DIRECTION('',(1.,0.,0.));
#629 = DIRECTION('',(0.,-1.,0.));
#630 = ADVANCED_FACE('',(#631),#637,.T.);
#631 = FACE_BOUND('',#632,.F.);
#632 = EDGE_LOOP('',(#633,#634,#635,#636));
#633 = ORIENTED_EDGE('',*,*,#146,.F.);
#634 = ORIENTED_EDGE('',*,*,#583,.T.);
#635 = ORIENTED_EDGE('',*,*,#289,.T.);
#636 = ORIENTED_EDGE('',*,*,#567,.F.);
#637 = PLANE('',#638);
#638 = AXIS2_PLACEMENT_3D('',#639,#640,#641);
#639 = CARTESIAN_POINT('',(38.5,47.5,21.5));
#640 = DIRECTION('',(0.707106781187,0.,-0.707106781187));
#641 = DIRECTION('',(-1.1E-16,-1.,-1.1E-16));
#642 = ADVANCED_FACE('',(#643,#689,#739),#789,.T.);
#643 = FACE_BOUND('',#644,.T.);
#644 = EDGE_LOOP('',(#645,#655,#664,#672,#679,#680,#681,#682));
#645 = ORIENTED_EDGE('',*,*,#646,.T.);
#646 = EDGE_CURVE('',#647,#649,#651,.T.);
#647 = VERTEX_POINT('',#648);
#648 = CARTESIAN_POINT('',(0.,-1.E-15,5.));
#649 = VERTEX_POINT('',#650);
#650 = CARTESIAN_POINT('',(0.,-1.E-15,35.));
#651 = LINE('',#652,#653);
#652 = CARTESIAN_POINT('',(0.,0.,0.));
#653 = VECTOR('',#654,1.);
#654 = DIRECTION('',(0.,0.,1.));
#655 = ORIENTED_EDGE('',*,*,#656,.T.);
#656 = EDGE_CURVE('',#649,#657,#659,.T.);
#657 = VERTEX_POINT('',#658);
#658 = CARTESIAN_POINT('',(0.,5.,40.));
#659 = CIRCLE('',#660,5.);
#660 = AXIS2_PLACEMENT_3D('',#661,#662,#663);
#661 = CARTESIAN_POINT('',(0.,5.,35.));
#662 = DIRECTION('',(-1.,0.,0.));
#663 = DIRECTION('',(0.,0.,-1.));
#664 = ORIENTED_EDGE('',*,*,#665,.T.);
#665 = EDGE_CURVE('',#657,#666,#668,.T.);
#666 = VERTEX_POINT('',#667);
#667 = CARTESIAN_POINT('',(0.,50.,40.));
#668 = LINE('',#669,#670);
#669 = CARTESIAN_POINT('',(0.,0.,40.));
#670 = VECTOR('',#671,1.);
#671 = DIRECTION('',(0.,1.,0.));
#672 = ORIENTED_EDGE('',*,*,#673,.T.);
#673 = EDGE_CURVE('',#666,#266,#674,.T.);
#674 = CIRCLE('',#675,5.);
#675 = AXIS2_PLACEMENT_3D('',#676,#677,#678);
#676 = CARTESIAN_POINT('',(0.,50.,35.));
#677 = DIRECTION('',(-1.,0.,0.));
#678 = DIRECTION('',(0.,0.,1.));
#679 = ORIENTED_EDGE('',*,*,#265,.F.);
#680 = ORIENTED_EDGE('',*,*,#336,.F.);
#681 = ORIENTED_EDGE('',*,*,#427,.F.);
#682 = ORIENTED_EDGE('',*,*,#683,.F.);
#683 = EDGE_CURVE('',#647,#420,#684,.T.);
#684 = CIRCLE('',#685,5.);
#685 = AXIS2_PLACEMENT_3D('',#686,#687,#688);
#686 = CARTESIAN_POINT('',(0.,5.,5.));
#687 = DIRECTION('',(1.,-0.,0.));
#688 = DIRECTION('',(0.,0.,-1.));
#689 = FACE_BOUND('',#690,.T.);
#690 = EDGE_LOOP('',(#691,#701,#709,#717,#725,#733));
#691 = ORIENTED_EDGE('',*,*,#692,.F.);
#692 = EDGE_CURVE('',#693,#695,#697,.T.);
#693 = VERTEX_POINT('',#694);
#694 = CARTESIAN_POINT('',(0.,40.924999999999,27.647297653054));
#695 = VERTEX_POINT('',#696);
#696 = CARTESIAN_POINT('',(0.,40.924999999999,32.352702346946));
#697 = LINE('',#698,#699);
#698 = CARTESIAN_POINT('',(0.,40.924999999999,27.647297653054));
#699 = VECTOR('',#700,1.);
#700 = DIRECTION('',(0.,0.,1.));
#701 = ORIENTED_EDGE('',*,*,#702,.F.);
#702 = EDGE_CURVE('',#703,#693,#705,.T.);
#703 = VERTEX_POINT('',#704);
#704 = CARTESIAN_POINT('',(0.,44.999999999999,25.294595306111));
#705 = LINE('',#706,#707);
#706 = CARTESIAN_POINT('',(0.,44.999999999999,25.294595306111));
#707 = VECTOR('',#708,1.);
#708 = DIRECTION('',(0.,-0.866025403785,0.499999999999));
#709 = ORIENTED_EDGE('',*,*,#710,.F.);
#710 = EDGE_CURVE('',#711,#703,#713,.T.);
#711 = VERTEX_POINT('',#712);
#712 = CARTESIAN_POINT('',(0.,49.074999999999,27.647297653054));
#713 = LINE('',#714,#715);
#714 = CARTESIAN_POINT('',(0.,49.074999999999,27.647297653054));
#715 = VECTOR('',#716,1.);
#716 = DIRECTION('',(0.,-0.866025403785,-0.499999999999));
#717 = ORIENTED_EDGE('',*,*,#718,.F.);
#718 = EDGE_CURVE('',#719,#711,#721,.T.);
#719 = VERTEX_POINT('',#720);
#720 = CARTESIAN_POINT('',(0.,49.074999999999,32.352702346946));
#721 = LINE('',#722,#723);
#722 = CARTESIAN_POINT('',(0.,49.074999999999,32.352702346946));
#723 = VECTOR('',#724,1.);
#724 = DIRECTION('',(0.,-4.379E-14,-1.));
#725 = ORIENTED_EDGE('',*,*,#726,.F.);
#726 = EDGE_CURVE('',#727,#719,#729,.T.);
#727 = VERTEX_POINT('',#728);
#728 = CARTESIAN_POINT('',(0.,44.999999999998,34.705404693889));
#729 = LINE('',#730,#731);
#730 = CARTESIAN_POINT('',(0.,44.999999999998,34.705404693889));
#731 = VECTOR('',#732,1.);
#732 = DIRECTION('',(-0.,0.866025403785,-0.499999999999));
#733 = ORIENTED_EDGE('',*,*,#734,.F.);
#734 = EDGE_CURVE('',#695,#727,#735,.T.);
#735 = LINE('',#736,#737);
#736 = CARTESIAN_POINT('',(0.,40.924999999999,32.352702346946));
#737 = VECTOR('',#738,1.);
#738 = DIRECTION('',(0.,0.866025403785,0.499999999999));
#739 = FACE_BOUND('',#740,.T.);
#740 = EDGE_LOOP('',(#741,#751,#759,#767,#775,#783));
#741 = ORIENTED_EDGE('',*,*,#742,.F.);
#742 = EDGE_CURVE('',#743,#745,#747,.T.);
#743 = VERTEX_POINT('',#744);
#744 = CARTESIAN_POINT('',(0.,40.925,7.647297653052));
#745 = VERTEX_POINT('',#746);
#746 = CARTESIAN_POINT('',(0.,40.925,12.352702346948));
#747 = LINE('',#748,#749);
#748 = CARTESIAN_POINT('',(0.,40.925,7.647297653052));
#749 = VECTOR('',#750,1.);
#750 = DIRECTION('',(0.,1.057E-14,1.));
#751 = ORIENTED_EDGE('',*,*,#752,.F.);
#752 = EDGE_CURVE('',#753,#743,#755,.T.);
#753 = VERTEX_POINT('',#754);
#754 = CARTESIAN_POINT('',(0.,45.,5.294595306105));
#755 = LINE('',#756,#757);
#756 = CARTESIAN_POINT('',(0.,45.,5.294595306105));
#757 = VECTOR('',#758,1.);
#758 = DIRECTION('',(0.,-0.866025403784,0.5));
#759 = ORIENTED_EDGE('',*,*,#760,.F.);
#760 = EDGE_CURVE('',#761,#753,#763,.T.);
#761 = VERTEX_POINT('',#762);
#762 = CARTESIAN_POINT('',(0.,49.075,7.647297653052));
#763 = LINE('',#764,#765);
#764 = CARTESIAN_POINT('',(0.,49.075,7.647297653052));
#765 = VECTOR('',#766,1.);
#766 = DIRECTION('',(0.,-0.866025403784,-0.5));
#767 = ORIENTED_EDGE('',*,*,#768,.F.);
#768 = EDGE_CURVE('',#769,#761,#771,.T.);
#769 = VERTEX_POINT('',#770);
#770 = CARTESIAN_POINT('',(0.,49.075,12.352702346948));
#771 = LINE('',#772,#773);
#772 = CARTESIAN_POINT('',(0.,49.075,12.352702346948));
#773 = VECTOR('',#774,1.);
#774 = DIRECTION('',(0.,-1.057E-14,-1.));
#775 = ORIENTED_EDGE('',*,*,#776,.F.);
#776 = EDGE_CURVE('',#777,#769,#779,.T.);
#777 = VERTEX_POINT('',#778);
#778 = CARTESIAN_POINT('',(0.,45.,14.705404693895));
#779 = LINE('',#780,#781);
#780 = CARTESIAN_POINT('',(0.,45.,14.705404693895));
#781 = VECTOR('',#782,1.);
#782 = DIRECTION('',(-0.,0.866025403784,-0.5));
#783 = ORIENTED_EDGE('',*,*,#784,.F.);
#784 = EDGE_CURVE('',#745,#777,#785,.T.);
#785 = LINE('',#786,#787);
#786 = CARTESIAN_POINT('',(0.,40.925,12.352702346948));
#787 = VECTOR('',#788,1.);
#788 = DIRECTION('',(0.,0.866025403784,0.5));
#789 = PLANE('',#790);
#790 = AXIS2_PLACEMENT_3D('',#791,#792,#793);
#791 = CARTESIAN_POINT('',(0.,0.,0.));
#792 = DIRECTION('',(-1.,0.,0.));
#793 = DIRECTION('',(0.,1.,0.));
#794 = ADVANCED_FACE('',(#795),#806,.T.);
#795 = FACE_BOUND('',#796,.F.);
#796 = EDGE_LOOP('',(#797,#798,#799,#800));
#797 = ORIENTED_EDGE('',*,*,#673,.T.);
#798 = ORIENTED_EDGE('',*,*,#273,.T.);
#799 = ORIENTED_EDGE('',*,*,#590,.F.);
#800 = ORIENTED_EDGE('',*,*,#801,.F.);
#801 = EDGE_CURVE('',#666,#591,#802,.T.);
#802 = LINE('',#803,#804);
#803 = CARTESIAN_POINT('',(0.,50.,40.));
#804 = VECTOR('',#805,1.);
#805 = DIRECTION('',(1.,0.,0.));
#806 = CYLINDRICAL_SURFACE('',#807,5.);
#807 = AXIS2_PLACEMENT_3D('',#808,#809,#810);
#808 = CARTESIAN_POINT('',(0.,50.,35.));
#809 = DIRECTION('',(1.,0.,0.));
#810 = DIRECTION('',(0.,0.,1.));
#811 = ADVANCED_FACE('',(#812),#823,.T.);
#812 = FACE_BOUND('',#813,.T.);
#813 = EDGE_LOOP('',(#814,#815,#821,#822));
#814 = ORIENTED_EDGE('',*,*,#387,.T.);
#815 = ORIENTED_EDGE('',*,*,#816,.F.);
#816 = EDGE_CURVE('',#474,#380,#817,.T.);
#817 = LINE('',#818,#819);
#818 = CARTESIAN_POINT('',(37.,35.,20.));
#819 = VECTOR('',#820,1.);
#820 = DIRECTION('',(2.2E-16,1.,0.));
#821 = ORIENTED_EDGE('',*,*,#473,.T.);
#822 = ORIENTED_EDGE('',*,*,#459,.T.);
#823 = PLANE('',#824);
#824 = AXIS2_PLACEMENT_3D('',#825,#826,#827);
#825 = CARTESIAN_POINT('',(40.,35.,20.));
#826 = DIRECTION('',(0.,0.,-1.));
#827 = DIRECTION('',(2.2E-16,1.,0.));
#828 = ADVANCED_FACE('',(#829),#835,.T.);
#829 = FACE_BOUND('',#830,.F.);
#830 = EDGE_LOOP('',(#831,#832,#833,#834));
#831 = ORIENTED_EDGE('',*,*,#481,.F.);
#832 = ORIENTED_EDGE('',*,*,#606,.T.);
#833 = ORIENTED_EDGE('',*,*,#379,.T.);
#834 = ORIENTED_EDGE('',*,*,#816,.F.);
#835 = PLANE('',#836);
#836 = AXIS2_PLACEMENT_3D('',#837,#838,#839);
#837 = CARTESIAN_POINT('',(38.5,35.,21.5));
#838 = DIRECTION('',(0.707106781187,0.,-0.707106781187));
#839 = DIRECTION('',(-1.1E-16,-1.,-1.1E-16));
#840 = ADVANCED_FACE('',(#841),#877,.T.);
#841 = FACE_BOUND('',#842,.T.);
#842 = EDGE_LOOP('',(#843,#853,#860,#861,#862,#870));
#843 = ORIENTED_EDGE('',*,*,#844,.F.);
#844 = EDGE_CURVE('',#845,#847,#849,.T.);
#845 = VERTEX_POINT('',#846);
#846 = CARTESIAN_POINT('',(10.,-1.E-15,5.));
#847 = VERTEX_POINT('',#848);
#848 = CARTESIAN_POINT('',(10.,-1.E-15,35.));
#849 = LINE('',#850,#851);
#850 = CARTESIAN_POINT('',(10.,0.,0.));
#851 = VECTOR('',#852,1.);
#852 = DIRECTION('',(0.,0.,1.));
#853 = ORIENTED_EDGE('',*,*,#854,.T.);
#854 = EDGE_CURVE('',#845,#412,#855,.T.);
#855 = CIRCLE('',#856,5.);
#856 = AXIS2_PLACEMENT_3D('',#857,#858,#859);
#857 = CARTESIAN_POINT('',(10.,5.,5.));
#858 = DIRECTION('',(1.,-0.,0.));
#859 = DIRECTION('',(0.,0.,-1.));
#860 = ORIENTED_EDGE('',*,*,#409,.F.);
#861 = ORIENTED_EDGE('',*,*,#505,.T.);
#862 = ORIENTED_EDGE('',*,*,#863,.T.);
#863 = EDGE_CURVE('',#498,#864,#866,.T.);
#864 = VERTEX_POINT('',#865);
#865 = CARTESIAN_POINT('',(10.,5.,40.));
#866 = LINE('',#867,#868);
#867 = CARTESIAN_POINT('',(10.,35.,40.));
#868 = VECTOR('',#869,1.);
#869 = DIRECTION('',(1.E-16,-1.,0.));
#870 = ORIENTED_EDGE('',*,*,#871,.F.);
#871 = EDGE_CURVE('',#847,#864,#872,.T.);
#872 = CIRCLE('',#873,5.);
#873 = AXIS2_PLACEMENT_3D('',#874,#875,#876);
#874 = CARTESIAN_POINT('',(10.,5.,35.));
#875 = DIRECTION('',(-1.,0.,0.));
#876 = DIRECTION('',(0.,0.,-1.));
#877 = PLANE('',#878);
#878 = AXIS2_PLACEMENT_3D('',#879,#880,#881);
#879 = CARTESIAN_POINT('',(10.,35.,0.));
#880 = DIRECTION('',(1.,1.E-16,0.));
#881 = DIRECTION('',(1.E-16,-1.,0.));
#882 = ADVANCED_FACE('',(#883),#894,.T.);
#883 = FACE_BOUND('',#884,.F.);
#884 = EDGE_LOOP('',(#885,#886,#887,#888));
#885 = ORIENTED_EDGE('',*,*,#854,.T.);
#886 = ORIENTED_EDGE('',*,*,#419,.T.);
#887 = ORIENTED_EDGE('',*,*,#683,.F.);
#888 = ORIENTED_EDGE('',*,*,#889,.F.);
#889 = EDGE_CURVE('',#845,#647,#890,.T.);
#890 = LINE('',#891,#892);
#891 = CARTESIAN_POINT('',(10.,-8.9E-16,5.));
#892 = VECTOR('',#893,1.);
#893 = DIRECTION('',(-1.,0.,0.));
#894 = CYLINDRICAL_SURFACE('',#895,5.);
#895 = AXIS2_PLACEMENT_3D('',#896,#897,#898);
#896 = CARTESIAN_POINT('',(10.,5.,5.));
#897 = DIRECTION('',(-1.,0.,0.));
#898 = DIRECTION('',(0.,-1.,0.));
#899 = ADVANCED_FACE('',(#900),#913,.F.);
#900 = FACE_BOUND('',#901,.F.);
#901 = EDGE_LOOP('',(#902,#903,#904,#905,#906,#907));
#902 = ORIENTED_EDGE('',*,*,#665,.T.);
#903 = ORIENTED_EDGE('',*,*,#801,.T.);
#904 = ORIENTED_EDGE('',*,*,#599,.T.);
#905 = ORIENTED_EDGE('',*,*,#497,.T.);
#906 = ORIENTED_EDGE('',*,*,#863,.T.);
#907 = ORIENTED_EDGE('',*,*,#908,.T.);
#908 = EDGE_CURVE('',#864,#657,#909,.T.);
#909 = LINE('',#910,#911);
#910 = CARTESIAN_POINT('',(10.,5.,40.));
#911 = VECTOR('',#912,1.);
#912 = DIRECTION('',(-1.,0.,0.));
#913 = PLANE('',#914);
#914 = AXIS2_PLACEMENT_3D('',#915,#916,#917);
#915 = CARTESIAN_POINT('',(14.473684210526,33.026315789474,40.));
#916 = DIRECTION('',(0.,2.2E-16,-1.));
#917 = DIRECTION('',(0.,1.,2.2E-16));
#918 = ADVANCED_FACE('',(#919,#969),#972,.F.);
#919 = FACE_BOUND('',#920,.F.);
#920 = EDGE_LOOP('',(#921,#931,#939,#947,#955,#963));
#921 = ORIENTED_EDGE('',*,*,#922,.F.);
#922 = EDGE_CURVE('',#923,#925,#927,.T.);
#923 = VERTEX_POINT('',#924);
#924 = CARTESIAN_POINT('',(5.5,40.925,7.647297653052));
#925 = VERTEX_POINT('',#926);
#926 = CARTESIAN_POINT('',(5.5,40.925,12.352702346948));
#927 = LINE('',#928,#929);
#928 = CARTESIAN_POINT('',(5.5,40.925,7.647297653052));
#929 = VECTOR('',#930,1.);
#930 = DIRECTION('',(0.,1.057E-14,1.));
#931 = ORIENTED_EDGE('',*,*,#932,.F.);
#932 = EDGE_CURVE('',#933,#923,#935,.T.);
#933 = VERTEX_POINT('',#934);
#934 = CARTESIAN_POINT('',(5.5,45.,5.294595306105));
#935 = LINE('',#936,#937);
#936 = CARTESIAN_POINT('',(5.5,45.,5.294595306105));
#937 = VECTOR('',#938,1.);
#938 = DIRECTION('',(0.,-0.866025403784,0.5));
#939 = ORIENTED_EDGE('',*,*,#940,.F.);
#940 = EDGE_CURVE('',#941,#933,#943,.T.);
#941 = VERTEX_POINT('',#942);
#942 = CARTESIAN_POINT('',(5.5,49.075,7.647297653052));
#943 = LINE('',#944,#945);
#944 = CARTESIAN_POINT('',(5.5,49.075,7.647297653052));
#945 = VECTOR('',#946,1.);
#946 = DIRECTION('',(0.,-0.866025403784,-0.5));
#947 = ORIENTED_EDGE('',*,*,#948,.F.);
#948 = EDGE_CURVE('',#949,#941,#951,.T.);
#949 = VERTEX_POINT('',#950);
#950 = CARTESIAN_POINT('',(5.5,49.075,12.352702346948));
#951 = LINE('',#952,#953);
#952 = CARTESIAN_POINT('',(5.5,49.075,12.352702346948));
#953 = VECTOR('',#954,1.);
#954 = DIRECTION('',(0.,-1.057E-14,-1.));
#955 = ORIENTED_EDGE('',*,*,#956,.F.);
#956 = EDGE_CURVE('',#957,#949,#959,.T.);
#957 = VERTEX_POINT('',#958);
#958 = CARTESIAN_POINT('',(5.5,45.,14.705404693895));
#959 = LINE('',#960,#961);
#960 = CARTESIAN_POINT('',(5.5,45.,14.705404693895));
#961 = VECTOR('',#962,1.);
#962 = DIRECTION('',(-0.,0.866025403784,-0.5));
#963 = ORIENTED_EDGE('',*,*,#964,.F.);
#964 = EDGE_CURVE('',#925,#957,#965,.T.);
#965 = LINE('',#966,#967);
#966 = CARTESIAN_POINT('',(5.5,40.925,12.352702346948));
#967 = VECTOR('',#968,1.);
#968 = DIRECTION('',(0.,0.866025403784,0.5));
#969 = FACE_BOUND('',#970,.F.);
#970 = EDGE_LOOP('',(#971));
#971 = ORIENTED_EDGE('',*,*,#522,.T.);
#972 = PLANE('',#973);
#973 = AXIS2_PLACEMENT_3D('',#974,#975,#976);
#974 = CARTESIAN_POINT('',(5.5,45.,19.999999999997));
#975 = DIRECTION('',(1.,2.2E-16,0.));
#976 = DIRECTION('',(-2.2E-16,1.,0.));
#977 = ADVANCED_FACE('',(#978),#997,.F.);
#978 = FACE_BOUND('',#979,.F.);
#979 = EDGE_LOOP('',(#980,#989,#995,#996));
#980 = ORIENTED_EDGE('',*,*,#981,.F.);
#981 = EDGE_CURVE('',#982,#982,#984,.T.);
#982 = VERTEX_POINT('',#983);
#983 = CARTESIAN_POINT('',(5.5,42.35,30.));
#984 = CIRCLE('',#985,2.65);
#985 = AXIS2_PLACEMENT_3D('',#986,#987,#988);
#986 = CARTESIAN_POINT('',(5.5,45.,30.));
#987 = DIRECTION('',(-1.,-2.2E-16,0.));
#988 = DIRECTION('',(2.2E-16,-1.,0.));
#989 = ORIENTED_EDGE('',*,*,#990,.T.);
#990 = EDGE_CURVE('',#982,#618,#991,.T.);
#991 = LINE('',#992,#993);
#992 = CARTESIAN_POINT('',(-9.4E-15,42.35,30.));
#993 = VECTOR('',#994,1.);
#994 = DIRECTION('',(1.,2.2E-16,0.));
#995 = ORIENTED_EDGE('',*,*,#617,.T.);
#996 = ORIENTED_EDGE('',*,*,#990,.F.);
#997 = CYLINDRICAL_SURFACE('',#998,2.65);
#998 = AXIS2_PLACEMENT_3D('',#999,#1000,#1001);
#999 = CARTESIAN_POINT('',(-9.99E-15,45.,30.));
#1000 = DIRECTION('',(-1.,-2.2E-16,0.));
#1001 = DIRECTION('',(2.2E-16,-1.,0.));
#1002 = ADVANCED_FACE('',(#1003),#1014,.T.);
#1003 = FACE_BOUND('',#1004,.T.);
#1004 = EDGE_LOOP('',(#1005,#1006,#1012,#1013));
#1005 = ORIENTED_EDGE('',*,*,#844,.T.);
#1006 = ORIENTED_EDGE('',*,*,#1007,.T.);
#1007 = EDGE_CURVE('',#847,#649,#1008,.T.);
#1008 = LINE('',#1009,#1010);
#1009 = CARTESIAN_POINT('',(10.,-8.9E-16,35.));
#1010 = VECTOR('',#1011,1.);
#1011 = DIRECTION('',(-1.,0.,0.));
#1012 = ORIENTED_EDGE('',*,*,#646,.F.);
#1013 = ORIENTED_EDGE('',*,*,#889,.F.);
#1014 = PLANE('',#1015);
#1015 = AXIS2_PLACEMENT_3D('',#1016,#1017,#1018);
#1016 = CARTESIAN_POINT('',(10.,0.,0.));
#1017 = DIRECTION('',(0.,-1.,0.));
#1018 = DIRECTION('',(-1.,0.,0.));
#1019 = ADVANCED_FACE('',(#1020),#1026,.T.);
#1020 = FACE_BOUND('',#1021,.T.);
#1021 = EDGE_LOOP('',(#1022,#1023,#1024,#1025));
#1022 = ORIENTED_EDGE('',*,*,#871,.T.);
#1023 = ORIENTED_EDGE('',*,*,#908,.T.);
#1024 = ORIENTED_EDGE('',*,*,#656,.F.);
#1025 = ORIENTED_EDGE('',*,*,#1007,.F.);
#1026 = CYLINDRICAL_SURFACE('',#1027,5.);
#1027 = AXIS2_PLACEMENT_3D('',#1028,#1029,#1030);
#1028 = CARTESIAN_POINT('',(10.,5.,35.));
#1029 = DIRECTION('',(-1.,0.,0.));
#1030 = DIRECTION('',(0.,-1.,0.));
#1031 = ADVANCED_FACE('',(#1032),#1057,.F.);
#1032 = FACE_BOUND('',#1033,.F.);
#1033 = EDGE_LOOP('',(#1034,#1042,#1050,#1056));
#1034 = ORIENTED_EDGE('',*,*,#1035,.T.);
#1035 = EDGE_CURVE('',#693,#1036,#1038,.T.);
#1036 = VERTEX_POINT('',#1037);
#1037 = CARTESIAN_POINT('',(5.5,40.924999999999,27.647297653054));
#1038 = LINE('',#1039,#1040);
#1039 = CARTESIAN_POINT('',(-9.09E-15,40.924999999999,27.647297653054));
#1040 = VECTOR('',#1041,1.);
#1041 = DIRECTION('',(1.,2.2E-16,0.));
#1042 = ORIENTED_EDGE('',*,*,#1043,.T.);
#1043 = EDGE_CURVE('',#1036,#1044,#1046,.T.);
#1044 = VERTEX_POINT('',#1045);
#1045 = CARTESIAN_POINT('',(5.5,40.924999999999,32.352702346946));
#1046 = LINE('',#1047,#1048);
#1047 = CARTESIAN_POINT('',(5.5,40.924999999999,27.647297653054));
#1048 = VECTOR('',#1049,1.);
#1049 = DIRECTION('',(0.,0.,1.));
#1050 = ORIENTED_EDGE('',*,*,#1051,.F.);
#1051 = EDGE_CURVE('',#695,#1044,#1052,.T.);
#1052 = LINE('',#1053,#1054);
#1053 = CARTESIAN_POINT('',(-9.09E-15,40.924999999999,32.352702346946));
#1054 = VECTOR('',#1055,1.);
#1055 = DIRECTION('',(1.,2.2E-16,0.));
#1056 = ORIENTED_EDGE('',*,*,#692,.F.);
#1057 = PLANE('',#1058);
#1058 = AXIS2_PLACEMENT_3D('',#1059,#1060,#1061);
#1059 = CARTESIAN_POINT('',(-9.09E-15,40.924999999999,27.647297653054));
#1060 = DIRECTION('',(2.2E-16,-1.,0.));
#1061 = DIRECTION('',(0.,0.,1.));
#1062 = ADVANCED_FACE('',(#1063),#1081,.F.);
#1063 = FACE_BOUND('',#1064,.F.);
#1064 = EDGE_LOOP('',(#1065,#1066,#1074,#1080));
#1065 = ORIENTED_EDGE('',*,*,#1051,.T.);
#1066 = ORIENTED_EDGE('',*,*,#1067,.T.);
#1067 = EDGE_CURVE('',#1044,#1068,#1070,.T.);
#1068 = VERTEX_POINT('',#1069);
#1069 = CARTESIAN_POINT('',(5.5,44.999999999998,34.705404693889));
#1070 = LINE('',#1071,#1072);
#1071 = CARTESIAN_POINT('',(5.5,40.924999999999,32.352702346946));
#1072 = VECTOR('',#1073,1.);
#1073 = DIRECTION('',(0.,0.866025403785,0.499999999999));
#1074 = ORIENTED_EDGE('',*,*,#1075,.F.);
#1075 = EDGE_CURVE('',#727,#1068,#1076,.T.);
#1076 = LINE('',#1077,#1078);
#1077 = CARTESIAN_POINT('',(-9.99E-15,44.999999999998,34.705404693889));
#1078 = VECTOR('',#1079,1.);
#1079 = DIRECTION('',(1.,2.2E-16,0.));
#1080 = ORIENTED_EDGE('',*,*,#734,.F.);
#1081 = PLANE('',#1082);
#1082 = AXIS2_PLACEMENT_3D('',#1083,#1084,#1085);
#1083 = CARTESIAN_POINT('',(-9.09E-15,40.924999999999,32.352702346946));
#1084 = DIRECTION('',(1.1E-16,-0.499999999999,0.866025403785));
#1085 = DIRECTION('',(-1.9E-16,0.866025403785,0.499999999999));
#1086 = ADVANCED_FACE('',(#1087),#1105,.F.);
#1087 = FACE_BOUND('',#1088,.F.);
#1088 = EDGE_LOOP('',(#1089,#1090,#1098,#1104));
#1089 = ORIENTED_EDGE('',*,*,#1075,.T.);
#1090 = ORIENTED_EDGE('',*,*,#1091,.T.);
#1091 = EDGE_CURVE('',#1068,#1092,#1094,.T.);
#1092 = VERTEX_POINT('',#1093);
#1093 = CARTESIAN_POINT('',(5.5,49.074999999999,32.352702346946));
#1094 = LINE('',#1095,#1096);
#1095 = CARTESIAN_POINT('',(5.5,44.999999999998,34.705404693889));
#1096 = VECTOR('',#1097,1.);
#1097 = DIRECTION('',(-0.,0.866025403785,-0.499999999999));
#1098 = ORIENTED_EDGE('',*,*,#1099,.F.);
#1099 = EDGE_CURVE('',#719,#1092,#1100,.T.);
#1100 = LINE('',#1101,#1102);
#1101 = CARTESIAN_POINT('',(-1.09E-14,49.074999999999,32.352702346946));
#1102 = VECTOR('',#1103,1.);
#1103 = DIRECTION('',(1.,2.2E-16,0.));
#1104 = ORIENTED_EDGE('',*,*,#726,.F.);
#1105 = PLANE('',#1106);
#1106 = AXIS2_PLACEMENT_3D('',#1107,#1108,#1109);
#1107 = CARTESIAN_POINT('',(-9.99E-15,44.999999999998,34.705404693889));
#1108 = DIRECTION('',(-1.1E-16,0.499999999999,0.866025403785));
#1109 = DIRECTION('',(-1.9E-16,0.866025403785,-0.499999999999));
#1110 = ADVANCED_FACE('',(#1111),#1129,.F.);
#1111 = FACE_BOUND('',#1112,.F.);
#1112 = EDGE_LOOP('',(#1113,#1114,#1122,#1128));
#1113 = ORIENTED_EDGE('',*,*,#1099,.T.);
#1114 = ORIENTED_EDGE('',*,*,#1115,.T.);
#1115 = EDGE_CURVE('',#1092,#1116,#1118,.T.);
#1116 = VERTEX_POINT('',#1117);
#1117 = CARTESIAN_POINT('',(5.5,49.074999999999,27.647297653054));
#1118 = LINE('',#1119,#1120);
#1119 = CARTESIAN_POINT('',(5.5,49.074999999999,32.352702346946));
#1120 = VECTOR('',#1121,1.);
#1121 = DIRECTION('',(0.,-4.379E-14,-1.));
#1122 = ORIENTED_EDGE('',*,*,#1123,.F.);
#1123 = EDGE_CURVE('',#711,#1116,#1124,.T.);
#1124 = LINE('',#1125,#1126);
#1125 = CARTESIAN_POINT('',(-1.09E-14,49.074999999999,27.647297653054));
#1126 = VECTOR('',#1127,1.);
#1127 = DIRECTION('',(1.,2.2E-16,0.));
#1128 = ORIENTED_EDGE('',*,*,#718,.F.);
#1129 = PLANE('',#1130);
#1130 = AXIS2_PLACEMENT_3D('',#1131,#1132,#1133);
#1131 = CARTESIAN_POINT('',(-1.09E-14,49.074999999999,32.352702346946));
#1132 = DIRECTION('',(-2.2E-16,1.,-4.379E-14));
#1133 = DIRECTION('',(0.,-4.379E-14,-1.));
#1134 = ADVANCED_FACE('',(#1135),#1153,.F.);
#1135 = FACE_BOUND('',#1136,.F.);
#1136 = EDGE_LOOP('',(#1137,#1138,#1146,#1152));
#1137 = ORIENTED_EDGE('',*,*,#1123,.T.);
#1138 = ORIENTED_EDGE('',*,*,#1139,.T.);
#1139 = EDGE_CURVE('',#1116,#1140,#1142,.T.);
#1140 = VERTEX_POINT('',#1141);
#1141 = CARTESIAN_POINT('',(5.5,44.999999999999,25.294595306111));
#1142 = LINE('',#1143,#1144);
#1143 = CARTESIAN_POINT('',(5.5,49.074999999999,27.647297653054));
#1144 = VECTOR('',#1145,1.);
#1145 = DIRECTION('',(0.,-0.866025403785,-0.499999999999));
#1146 = ORIENTED_EDGE('',*,*,#1147,.F.);
#1147 = EDGE_CURVE('',#703,#1140,#1148,.T.);
#1148 = LINE('',#1149,#1150);
#1149 = CARTESIAN_POINT('',(-9.99E-15,44.999999999999,25.294595306111));
#1150 = VECTOR('',#1151,1.);
#1151 = DIRECTION('',(1.,2.2E-16,0.));
#1152 = ORIENTED_EDGE('',*,*,#710,.F.);
#1153 = PLANE('',#1154);
#1154 = AXIS2_PLACEMENT_3D('',#1155,#1156,#1157);
#1155 = CARTESIAN_POINT('',(-1.09E-14,49.074999999999,27.647297653054));
#1156 = DIRECTION('',(-1.1E-16,0.499999999999,-0.866025403785));
#1157 = DIRECTION('',(1.9E-16,-0.866025403785,-0.499999999999));
#1158 = ADVANCED_FACE('',(#1159),#1170,.F.);
#1159 = FACE_BOUND('',#1160,.F.);
#1160 = EDGE_LOOP('',(#1161,#1162,#1168,#1169));
#1161 = ORIENTED_EDGE('',*,*,#1147,.T.);
#1162 = ORIENTED_EDGE('',*,*,#1163,.T.);
#1163 = EDGE_CURVE('',#1140,#1036,#1164,.T.);
#1164 = LINE('',#1165,#1166);
#1165 = CARTESIAN_POINT('',(5.5,44.999999999999,25.294595306111));
#1166 = VECTOR('',#1167,1.);
#1167 = DIRECTION('',(0.,-0.866025403785,0.499999999999));
#1168 = ORIENTED_EDGE('',*,*,#1035,.F.);
#1169 = ORIENTED_EDGE('',*,*,#702,.F.);
#1170 = PLANE('',#1171);
#1171 = AXIS2_PLACEMENT_3D('',#1172,#1173,#1174);
#1172 = CARTESIAN_POINT('',(-9.99E-15,44.999999999999,25.294595306111));
#1173 = DIRECTION('',(1.1E-16,-0.499999999999,-0.866025403785));
#1174 = DIRECTION('',(1.9E-16,-0.866025403785,0.499999999999));
#1175 = ADVANCED_FACE('',(#1176),#1192,.F.);
#1176 = FACE_BOUND('',#1177,.F.);
#1177 = EDGE_LOOP('',(#1178,#1184,#1185,#1191));
#1178 = ORIENTED_EDGE('',*,*,#1179,.T.);
#1179 = EDGE_CURVE('',#743,#923,#1180,.T.);
#1180 = LINE('',#1181,#1182);
#1181 = CARTESIAN_POINT('',(-9.09E-15,40.925,7.647297653052));
#1182 = VECTOR('',#1183,1.);
#1183 = DIRECTION('',(1.,2.2E-16,0.));
#1184 = ORIENTED_EDGE('',*,*,#922,.T.);
#1185 = ORIENTED_EDGE('',*,*,#1186,.F.);
#1186 = EDGE_CURVE('',#745,#925,#1187,.T.);
#1187 = LINE('',#1188,#1189);
#1188 = CARTESIAN_POINT('',(-9.09E-15,40.925,12.352702346948));
#1189 = VECTOR('',#1190,1.);
#1190 = DIRECTION('',(1.,2.2E-16,0.));
#1191 = ORIENTED_EDGE('',*,*,#742,.F.);
#1192 = PLANE('',#1193);
#1193 = AXIS2_PLACEMENT_3D('',#1194,#1195,#1196);
#1194 = CARTESIAN_POINT('',(-9.09E-15,40.925,7.647297653052));
#1195 = DIRECTION('',(2.2E-16,-1.,1.057E-14));
#1196 = DIRECTION('',(0.,1.057E-14,1.));
#1197 = ADVANCED_FACE('',(#1198),#1209,.F.);
#1198 = FACE_BOUND('',#1199,.F.);
#1199 = EDGE_LOOP('',(#1200,#1201,#1202,#1208));
#1200 = ORIENTED_EDGE('',*,*,#1186,.T.);
#1201 = ORIENTED_EDGE('',*,*,#964,.T.);
#1202 = ORIENTED_EDGE('',*,*,#1203,.F.);
#1203 = EDGE_CURVE('',#777,#957,#1204,.T.);
#1204 = LINE('',#1205,#1206);
#1205 = CARTESIAN_POINT('',(-9.99E-15,45.,14.705404693895));
#1206 = VECTOR('',#1207,1.);
#1207 = DIRECTION('',(1.,2.2E-16,0.));
#1208 = ORIENTED_EDGE('',*,*,#784,.F.);
#1209 = PLANE('',#1210);
#1210 = AXIS2_PLACEMENT_3D('',#1211,#1212,#1213);
#1211 = CARTESIAN_POINT('',(-9.09E-15,40.925,12.352702346948));
#1212 = DIRECTION('',(1.1E-16,-0.5,0.866025403784));
#1213 = DIRECTION('',(-1.9E-16,0.866025403784,0.5));
#1214 = ADVANCED_FACE('',(#1215),#1226,.F.);
#1215 = FACE_BOUND('',#1216,.F.);
#1216 = EDGE_LOOP('',(#1217,#1218,#1219,#1225));
#1217 = ORIENTED_EDGE('',*,*,#1203,.T.);
#1218 = ORIENTED_EDGE('',*,*,#956,.T.);
#1219 = ORIENTED_EDGE('',*,*,#1220,.F.);
#1220 = EDGE_CURVE('',#769,#949,#1221,.T.);
#1221 = LINE('',#1222,#1223);
#1222 = CARTESIAN_POINT('',(-1.09E-14,49.075,12.352702346948));
#1223 = VECTOR('',#1224,1.);
#1224 = DIRECTION('',(1.,2.2E-16,0.));
#1225 = ORIENTED_EDGE('',*,*,#776,.F.);
#1226 = PLANE('',#1227);
#1227 = AXIS2_PLACEMENT_3D('',#1228,#1229,#1230);
#1228 = CARTESIAN_POINT('',(-9.99E-15,45.,14.705404693895));
#1229 = DIRECTION('',(-1.1E-16,0.5,0.866025403784));
#1230 = DIRECTION('',(-1.9E-16,0.866025403784,-0.5));
#1231 = ADVANCED_FACE('',(#1232),#1243,.F.);
#1232 = FACE_BOUND('',#1233,.F.);
#1233 = EDGE_LOOP('',(#1234,#1235,#1236,#1242));
#1234 = ORIENTED_EDGE('',*,*,#1220,.T.);
#1235 = ORIENTED_EDGE('',*,*,#948,.T.);
#1236 = ORIENTED_EDGE('',*,*,#1237,.F.);
#1237 = EDGE_CURVE('',#761,#941,#1238,.T.);
#1238 = LINE('',#1239,#1240);
#1239 = CARTESIAN_POINT('',(-1.09E-14,49.075,7.647297653052));
#1240 = VECTOR('',#1241,1.);
#1241 = DIRECTION('',(1.,2.2E-16,0.));
#1242 = ORIENTED_EDGE('',*,*,#768,.F.);
#1243 = PLANE('',#1244);
#1244 = AXIS2_PLACEMENT_3D('',#1245,#1246,#1247);
#1245 = CARTESIAN_POINT('',(-1.09E-14,49.075,12.352702346948));
#1246 = DIRECTION('',(-2.2E-16,1.,-1.057E-14));
#1247 = DIRECTION('',(0.,-1.057E-14,-1.));
#1248 = ADVANCED_FACE('',(#1249),#1260,.F.);
#1249 = FACE_BOUND('',#1250,.F.);
#1250 = EDGE_LOOP('',(#1251,#1252,#1253,#1259));
#1251 = ORIENTED_EDGE('',*,*,#1237,.T.);
#1252 = ORIENTED_EDGE('',*,*,#940,.T.);
#1253 = ORIENTED_EDGE('',*,*,#1254,.F.);
#1254 = EDGE_CURVE('',#753,#933,#1255,.T.);
#1255 = LINE('',#1256,#1257);
#1256 = CARTESIAN_POINT('',(-9.99E-15,45.,5.294595306105));
#1257 = VECTOR('',#1258,1.);
#1258 = DIRECTION('',(1.,2.2E-16,0.));
#1259 = ORIENTED_EDGE('',*,*,#760,.F.);
#1260 = PLANE('',#1261);
#1261 = AXIS2_PLACEMENT_3D('',#1262,#1263,#1264);
#1262 = CARTESIAN_POINT('',(-1.09E-14,49.075,7.647297653052));
#1263 = DIRECTION('',(-1.1E-16,0.5,-0.866025403784));
#1264 = DIRECTION('',(1.9E-16,-0.866025403784,-0.5));
#1265 = ADVANCED_FACE('',(#1266),#1272,.F.);
#1266 = FACE_BOUND('',#1267,.F.);
#1267 = EDGE_LOOP('',(#1268,#1269,#1270,#1271));
#1268 = ORIENTED_EDGE('',*,*,#1254,.T.);
#1269 = ORIENTED_EDGE('',*,*,#932,.T.);
#1270 = ORIENTED_EDGE('',*,*,#1179,.F.);
#1271 = ORIENTED_EDGE('',*,*,#752,.F.);
#1272 = PLANE('',#1273);
#1273 = AXIS2_PLACEMENT_3D('',#1274,#1275,#1276);
#1274 = CARTESIAN_POINT('',(-9.99E-15,45.,5.294595306105));
#1275 = DIRECTION('',(1.1E-16,-0.5,-0.866025403784));
#1276 = DIRECTION('',(1.9E-16,-0.866025403784,0.5));
#1277 = ADVANCED_FACE('',(#1278,#1286),#1289,.F.);
#1278 = FACE_BOUND('',#1279,.F.);
#1279 = EDGE_LOOP('',(#1280,#1281,#1282,#1283,#1284,#1285));
#1280 = ORIENTED_EDGE('',*,*,#1043,.F.);
#1281 = ORIENTED_EDGE('',*,*,#1163,.F.);
#1282 = ORIENTED_EDGE('',*,*,#1139,.F.);
#1283 = ORIENTED_EDGE('',*,*,#1115,.F.);
#1284 = ORIENTED_EDGE('',*,*,#1091,.F.);
#1285 = ORIENTED_EDGE('',*,*,#1067,.F.);
#1286 = FACE_BOUND('',#1287,.F.);
#1287 = EDGE_LOOP('',(#1288));
#1288 = ORIENTED_EDGE('',*,*,#981,.T.);
#1289 = PLANE('',#1290);
#1290 = AXIS2_PLACEMENT_3D('',#1291,#1292,#1293);
#1291 = CARTESIAN_POINT('',(5.5,45.,19.999999999997));
#1292 = DIRECTION('',(1.,2.2E-16,0.));
#1293 = DIRECTION('',(-2.2E-16,1.,0.));
#1294 = ( GEOMETRIC_REPRESENTATION_CONTEXT(3) 
GLOBAL_UNCERTAINTY_ASSIGNED_CONTEXT((#1298)) 
GLOBAL_UNIT_ASSIGNED_CONTEXT((#1295,#1296,#1297)) REPRESENTATION_CONTEXT
('Context #1','3D Context with UNIT and UNCERTAINTY') );
#1295 = ( LENGTH_UNIT() NAMED_UNIT(*) SI_UNIT(.MILLI.,.METRE.) );
#1296 = ( NAMED_UNIT(*) PLANE_ANGLE_UNIT() SI_UNIT($,.RADIAN.) );
#1297 = ( NAMED_UNIT(*) SI_UNIT($,.STERADIAN.) SOLID_ANGLE_UNIT() );
#1298 = UNCERTAINTY_MEASURE_WITH_UNIT(LENGTH_MEASURE(1.E-07),#1295,
  'distance_accuracy_value','confusion accuracy');
#1299 = PRODUCT_RELATED_PRODUCT_CATEGORY('part',$,(#7));
#1300 = MECHANICAL_DESIGN_GEOMETRIC_PRESENTATION_REPRESENTATION('',(
    #1301),#1294);
#1301 = STYLED_ITEM('color',(#1302),#15);
#1302 = PRESENTATION_STYLE_ASSIGNMENT((#1303,#1309));
#1303 = SURFACE_STYLE_USAGE(.BOTH.,#1304);
#1304 = SURFACE_SIDE_STYLE('',(#1305));
#1305 = SURFACE_STYLE_FILL_AREA(#1306);
#1306 = FILL_AREA_STYLE('',(#1307));
#1307 = FILL_AREA_STYLE_COLOUR('',#1308);
#1308 = COLOUR_RGB('',0.800000010877,0.800000010877,0.800000010877);
#1309 = CURVE_STYLE('',#1310,POSITIVE_LENGTH_MEASURE(0.1),#1311);
#1310 = DRAUGHTING_PRE_DEFINED_CURVE_FONT('continuous');
#1311 = COLOUR_RGB('',9.803921802644E-02,9.803921802644E-02,
  9.803921802644E-02);
ENDSEC;
END-ISO-10303-21;
