ISO-10303-21;
HEADER;
FILE_DESCRIPTION(('FreeCAD Model'),'2;1');
FILE_NAME('Open CASCADE Shape Model','2025-05-21T09:46:51',('Author'),(
    ''),'Open CASCADE STEP processor 7.6','FreeCAD','Unknown');
FILE_SCHEMA(('AUTOMOTIVE_DESIGN { 1 0 10303 214 1 1 1 1 }'));
ENDSEC;
DATA;
#1 = APPLICATION_PROTOCOL_DEFINITION('international standard',
  'automotive_design',2000,#2);
#2 = APPLICATION_CONTEXT(
  'core data for automotive mechanical design processes');
#3 = SHAPE_DEFINITION_REPRESENTATION(#4,#10);
#4 = PRODUCT_DEFINITION_SHAPE('','',#5);
#5 = PRODUCT_DEFINITION('design','',#6,#9);
#6 = PRODUCT_DEFINITION_FORMATION('','',#7);
#7 = PRODUCT('Fillet001','Fillet001','',(#8));
#8 = PRODUCT_CONTEXT('',#2,'mechanical');
#9 = PRODUCT_DEFINITION_CONTEXT('part definition',#2,'design');
#10 = ADVANCED_BREP_SHAPE_REPRESENTATION('',(#11,#15),#887);
#11 = AXIS2_PLACEMENT_3D('',#12,#13,#14);
#12 = CARTESIAN_POINT('',(0.,0.,0.));
#13 = DIRECTION('',(0.,0.,1.));
#14 = DIRECTION('',(1.,0.,-0.));
#15 = MANIFOLD_SOLID_BREP('',#16);
#16 = CLOSED_SHELL('',(#17,#84,#169,#221,#246,#341,#366,#391,#416,#457,
    #474,#486,#508,#525,#542,#554,#579,#612,#636,#661,#685,#703,#732,
    #749,#773,#804,#822,#840,#858,#876));
#17 = ADVANCED_FACE('',(#18,#68),#79,.F.);
#18 = FACE_BOUND('',#19,.F.);
#19 = EDGE_LOOP('',(#20,#30,#38,#46,#54,#62));
#20 = ORIENTED_EDGE('',*,*,#21,.T.);
#21 = EDGE_CURVE('',#22,#24,#26,.T.);
#22 = VERTEX_POINT('',#23);
#23 = CARTESIAN_POINT('',(2.,1.3E-14,15.));
#24 = VERTEX_POINT('',#25);
#25 = CARTESIAN_POINT('',(68.,1.3E-14,15.));
#26 = LINE('',#27,#28);
#27 = CARTESIAN_POINT('',(0.,7.E-15,15.));
#28 = VECTOR('',#29,1.);
#29 = DIRECTION('',(1.,0.,0.));
#30 = ORIENTED_EDGE('',*,*,#31,.T.);
#31 = EDGE_CURVE('',#24,#32,#34,.T.);
#32 = VERTEX_POINT('',#33);
#33 = CARTESIAN_POINT('',(70.,1.E-14,15.));
#34 = LINE('',#35,#36);
#35 = CARTESIAN_POINT('',(0.,1.366E-14,15.));
#36 = VECTOR('',#37,1.);
#37 = DIRECTION('',(1.,0.,0.));
#38 = ORIENTED_EDGE('',*,*,#39,.T.);
#39 = EDGE_CURVE('',#32,#40,#42,.T.);
#40 = VERTEX_POINT('',#41);
#41 = CARTESIAN_POINT('',(83.,1.3E-14,15.));
#42 = LINE('',#43,#44);
#43 = CARTESIAN_POINT('',(0.,7.E-15,15.));
#44 = VECTOR('',#45,1.);
#45 = DIRECTION('',(1.,0.,0.));
#46 = ORIENTED_EDGE('',*,*,#47,.F.);
#47 = EDGE_CURVE('',#48,#40,#50,.T.);
#48 = VERTEX_POINT('',#49);
#49 = CARTESIAN_POINT('',(83.,0.,0.));
#50 = LINE('',#51,#52);
#51 = CARTESIAN_POINT('',(83.,-4.4E-16,0.));
#52 = VECTOR('',#53,1.);
#53 = DIRECTION('',(0.,8.8E-16,1.));
#54 = ORIENTED_EDGE('',*,*,#55,.F.);
#55 = EDGE_CURVE('',#56,#48,#58,.T.);
#56 = VERTEX_POINT('',#57);
#57 = CARTESIAN_POINT('',(2.,0.,0.));
#58 = LINE('',#59,#60);
#59 = CARTESIAN_POINT('',(0.,0.,0.));
#60 = VECTOR('',#61,1.);
#61 = DIRECTION('',(1.,0.,0.));
#62 = ORIENTED_EDGE('',*,*,#63,.T.);
#63 = EDGE_CURVE('',#56,#22,#64,.T.);
#64 = LINE('',#65,#66);
#65 = CARTESIAN_POINT('',(2.,-4.4E-16,0.));
#66 = VECTOR('',#67,1.);
#67 = DIRECTION('',(0.,8.8E-16,1.));
#68 = FACE_BOUND('',#69,.F.);
#69 = EDGE_LOOP('',(#70));
#70 = ORIENTED_EDGE('',*,*,#71,.T.);
#71 = EDGE_CURVE('',#72,#72,#74,.T.);
#72 = VERTEX_POINT('',#73);
#73 = CARTESIAN_POINT('',(80.15,7.5E-15,7.5));
#74 = CIRCLE('',#75,2.65);
#75 = AXIS2_PLACEMENT_3D('',#76,#77,#78);
#76 = CARTESIAN_POINT('',(77.5,7.5E-15,7.5));
#77 = DIRECTION('',(0.,-1.,1.E-15));
#78 = DIRECTION('',(1.,0.,0.));
#79 = PLANE('',#80);
#80 = AXIS2_PLACEMENT_3D('',#81,#82,#83);
#81 = CARTESIAN_POINT('',(0.,0.,0.));
#82 = DIRECTION('',(0.,1.,-4.4E-16));
#83 = DIRECTION('',(1.,0.,0.));
#84 = ADVANCED_FACE('',(#85,#128),#164,.F.);
#85 = FACE_BOUND('',#86,.F.);
#86 = EDGE_LOOP('',(#87,#88,#97,#105,#114,#122));
#87 = ORIENTED_EDGE('',*,*,#21,.F.);
#88 = ORIENTED_EDGE('',*,*,#89,.T.);
#89 = EDGE_CURVE('',#22,#90,#92,.T.);
#90 = VERTEX_POINT('',#91);
#91 = CARTESIAN_POINT('',(0.,2.,15.));
#92 = CIRCLE('',#93,2.);
#93 = AXIS2_PLACEMENT_3D('',#94,#95,#96);
#94 = CARTESIAN_POINT('',(2.,2.,15.));
#95 = DIRECTION('',(-0.,-8.8E-16,-1.));
#96 = DIRECTION('',(0.,-1.,8.8E-16));
#97 = ORIENTED_EDGE('',*,*,#98,.F.);
#98 = EDGE_CURVE('',#99,#90,#101,.T.);
#99 = VERTEX_POINT('',#100);
#100 = CARTESIAN_POINT('',(0.,13.,15.));
#101 = LINE('',#102,#103);
#102 = CARTESIAN_POINT('',(0.,15.,15.));
#103 = VECTOR('',#104,1.);
#104 = DIRECTION('',(0.,-1.,0.));
#105 = ORIENTED_EDGE('',*,*,#106,.T.);
#106 = EDGE_CURVE('',#99,#107,#109,.T.);
#107 = VERTEX_POINT('',#108);
#108 = CARTESIAN_POINT('',(2.,15.,15.));
#109 = CIRCLE('',#110,2.);
#110 = AXIS2_PLACEMENT_3D('',#111,#112,#113);
#111 = CARTESIAN_POINT('',(2.,13.,15.));
#112 = DIRECTION('',(-0.,-8.8E-16,-1.));
#113 = DIRECTION('',(0.,-1.,8.8E-16));
#114 = ORIENTED_EDGE('',*,*,#115,.F.);
#115 = EDGE_CURVE('',#116,#107,#118,.T.);
#116 = VERTEX_POINT('',#117);
#117 = CARTESIAN_POINT('',(68.,15.,15.));
#118 = LINE('',#119,#120);
#119 = CARTESIAN_POINT('',(85.,15.,15.));
#120 = VECTOR('',#121,1.);
#121 = DIRECTION('',(-1.,0.,0.));
#122 = ORIENTED_EDGE('',*,*,#123,.F.);
#123 = EDGE_CURVE('',#24,#116,#124,.T.);
#124 = LINE('',#125,#126);
#125 = CARTESIAN_POINT('',(68.,9.54E-15,15.));
#126 = VECTOR('',#127,1.);
#127 = DIRECTION('',(0.,1.,-7.8E-16));
#128 = FACE_BOUND('',#129,.F.);
#129 = EDGE_LOOP('',(#130,#140,#149,#157));
#130 = ORIENTED_EDGE('',*,*,#131,.T.);
#131 = EDGE_CURVE('',#132,#134,#136,.T.);
#132 = VERTEX_POINT('',#133);
#133 = CARTESIAN_POINT('',(62.5,10.15,15.));
#134 = VERTEX_POINT('',#135);
#135 = CARTESIAN_POINT('',(7.5,10.15,15.));
#136 = LINE('',#137,#138);
#137 = CARTESIAN_POINT('',(62.5,10.15,15.));
#138 = VECTOR('',#139,1.);
#139 = DIRECTION('',(-1.,3.E-17,0.));
#140 = ORIENTED_EDGE('',*,*,#141,.T.);
#141 = EDGE_CURVE('',#134,#142,#144,.T.);
#142 = VERTEX_POINT('',#143);
#143 = CARTESIAN_POINT('',(7.5,4.85,15.));
#144 = CIRCLE('',#145,2.65);
#145 = AXIS2_PLACEMENT_3D('',#146,#147,#148);
#146 = CARTESIAN_POINT('',(7.5,7.5,15.));
#147 = DIRECTION('',(0.,0.,1.));
#148 = DIRECTION('',(1.,0.,0.));
#149 = ORIENTED_EDGE('',*,*,#150,.T.);
#150 = EDGE_CURVE('',#142,#151,#153,.T.);
#151 = VERTEX_POINT('',#152);
#152 = CARTESIAN_POINT('',(62.5,4.85,15.));
#153 = LINE('',#154,#155);
#154 = CARTESIAN_POINT('',(7.5,4.85,15.));
#155 = VECTOR('',#156,1.);
#156 = DIRECTION('',(1.,0.,0.));
#157 = ORIENTED_EDGE('',*,*,#158,.T.);
#158 = EDGE_CURVE('',#151,#132,#159,.T.);
#159 = CIRCLE('',#160,2.65);
#160 = AXIS2_PLACEMENT_3D('',#161,#162,#163);
#161 = CARTESIAN_POINT('',(62.5,7.5,15.));
#162 = DIRECTION('',(0.,0.,1.));
#163 = DIRECTION('',(1.,0.,0.));
#164 = PLANE('',#165);
#165 = AXIS2_PLACEMENT_3D('',#166,#167,#168);
#166 = CARTESIAN_POINT('',(42.5,7.5,15.));
#167 = DIRECTION('',(0.,-2.2E-16,-1.));
#168 = DIRECTION('',(0.,1.,-2.2E-16));
#169 = ADVANCED_FACE('',(#170,#205),#216,.T.);
#170 = FACE_BOUND('',#171,.T.);
#171 = EDGE_LOOP('',(#172,#180,#188,#196,#203,#204));
#172 = ORIENTED_EDGE('',*,*,#173,.T.);
#173 = EDGE_CURVE('',#40,#174,#176,.T.);
#174 = VERTEX_POINT('',#175);
#175 = CARTESIAN_POINT('',(83.,2.E-14,28.));
#176 = LINE('',#177,#178);
#177 = CARTESIAN_POINT('',(83.,9.77E-15,15.));
#178 = VECTOR('',#179,1.);
#179 = DIRECTION('',(0.,7.2E-16,1.));
#180 = ORIENTED_EDGE('',*,*,#181,.T.);
#181 = EDGE_CURVE('',#174,#182,#184,.T.);
#182 = VERTEX_POINT('',#183);
#183 = CARTESIAN_POINT('',(70.,1.9E-14,28.));
#184 = LINE('',#185,#186);
#185 = CARTESIAN_POINT('',(83.,1.91E-14,28.));
#186 = VECTOR('',#187,1.);
#187 = DIRECTION('',(-1.,0.,0.));
#188 = ORIENTED_EDGE('',*,*,#189,.F.);
#189 = EDGE_CURVE('',#190,#182,#192,.T.);
#190 = VERTEX_POINT('',#191);
#191 = CARTESIAN_POINT('',(70.,1.1E-14,17.));
#192 = LINE('',#193,#194);
#193 = CARTESIAN_POINT('',(70.,8.3E-15,15.));
#194 = VECTOR('',#195,1.);
#195 = DIRECTION('',(0.,6.1E-16,1.));
#196 = ORIENTED_EDGE('',*,*,#197,.F.);
#197 = EDGE_CURVE('',#24,#190,#198,.T.);
#198 = CIRCLE('',#199,2.);
#199 = AXIS2_PLACEMENT_3D('',#200,#201,#202);
#200 = CARTESIAN_POINT('',(68.,1.14E-14,17.));
#201 = DIRECTION('',(0.,-1.,7.8E-16));
#202 = DIRECTION('',(0.,7.8E-16,1.));
#203 = ORIENTED_EDGE('',*,*,#31,.T.);
#204 = ORIENTED_EDGE('',*,*,#39,.T.);
#205 = FACE_BOUND('',#206,.T.);
#206 = EDGE_LOOP('',(#207));
#207 = ORIENTED_EDGE('',*,*,#208,.F.);
#208 = EDGE_CURVE('',#209,#209,#211,.T.);
#209 = VERTEX_POINT('',#210);
#210 = CARTESIAN_POINT('',(80.15,2.15E-14,22.5));
#211 = CIRCLE('',#212,2.65);
#212 = AXIS2_PLACEMENT_3D('',#213,#214,#215);
#213 = CARTESIAN_POINT('',(77.5,2.15E-14,22.5));
#214 = DIRECTION('',(0.,-1.,1.E-15));
#215 = DIRECTION('',(1.,0.,0.));
#216 = PLANE('',#217);
#217 = AXIS2_PLACEMENT_3D('',#218,#219,#220);
#218 = CARTESIAN_POINT('',(85.,8.3E-15,15.));
#219 = DIRECTION('',(0.,-1.,6.1E-16));
#220 = DIRECTION('',(-1.,0.,0.));
#221 = ADVANCED_FACE('',(#222),#241,.T.);
#222 = FACE_BOUND('',#223,.F.);
#223 = EDGE_LOOP('',(#224,#233,#239,#240));
#224 = ORIENTED_EDGE('',*,*,#225,.T.);
#225 = EDGE_CURVE('',#56,#226,#228,.T.);
#226 = VERTEX_POINT('',#227);
#227 = CARTESIAN_POINT('',(0.,2.,-1.E-15));
#228 = CIRCLE('',#229,2.);
#229 = AXIS2_PLACEMENT_3D('',#230,#231,#232);
#230 = CARTESIAN_POINT('',(2.,2.,-1.35E-15));
#231 = DIRECTION('',(-0.,-8.8E-16,-1.));
#232 = DIRECTION('',(0.,-1.,8.8E-16));
#233 = ORIENTED_EDGE('',*,*,#234,.T.);
#234 = EDGE_CURVE('',#226,#90,#235,.T.);
#235 = LINE('',#236,#237);
#236 = CARTESIAN_POINT('',(-4.4E-16,2.,-1.77E-15));
#237 = VECTOR('',#238,1.);
#238 = DIRECTION('',(0.,8.8E-16,1.));
#239 = ORIENTED_EDGE('',*,*,#89,.F.);
#240 = ORIENTED_EDGE('',*,*,#63,.F.);
#241 = CYLINDRICAL_SURFACE('',#242,2.);
#242 = AXIS2_PLACEMENT_3D('',#243,#244,#245);
#243 = CARTESIAN_POINT('',(2.,2.,-1.77E-15));
#244 = DIRECTION('',(0.,8.8E-16,1.));
#245 = DIRECTION('',(0.,-1.,8.8E-16));
#246 = ADVANCED_FACE('',(#247,#300),#336,.T.);
#247 = FACE_BOUND('',#248,.T.);
#248 = EDGE_LOOP('',(#249,#250,#251,#259,#268,#276,#285,#293));
#249 = ORIENTED_EDGE('',*,*,#55,.F.);
#250 = ORIENTED_EDGE('',*,*,#225,.T.);
#251 = ORIENTED_EDGE('',*,*,#252,.F.);
#252 = EDGE_CURVE('',#253,#226,#255,.T.);
#253 = VERTEX_POINT('',#254);
#254 = CARTESIAN_POINT('',(0.,13.,-6.E-15));
#255 = LINE('',#256,#257);
#256 = CARTESIAN_POINT('',(0.,15.,0.));
#257 = VECTOR('',#258,1.);
#258 = DIRECTION('',(0.,-1.,0.));
#259 = ORIENTED_EDGE('',*,*,#260,.T.);
#260 = EDGE_CURVE('',#253,#261,#263,.T.);
#261 = VERTEX_POINT('',#262);
#262 = CARTESIAN_POINT('',(2.,15.,-1.3E-14));
#263 = CIRCLE('',#264,2.);
#264 = AXIS2_PLACEMENT_3D('',#265,#266,#267);
#265 = CARTESIAN_POINT('',(2.,13.,-8.65E-15));
#266 = DIRECTION('',(-0.,-8.8E-16,-1.));
#267 = DIRECTION('',(0.,-1.,8.8E-16));
#268 = ORIENTED_EDGE('',*,*,#269,.F.);
#269 = EDGE_CURVE('',#270,#261,#272,.T.);
#270 = VERTEX_POINT('',#271);
#271 = CARTESIAN_POINT('',(83.,15.,-1.3E-14));
#272 = LINE('',#273,#274);
#273 = CARTESIAN_POINT('',(85.,15.,0.));
#274 = VECTOR('',#275,1.);
#275 = DIRECTION('',(-1.,0.,0.));
#276 = ORIENTED_EDGE('',*,*,#277,.F.);
#277 = EDGE_CURVE('',#278,#270,#280,.T.);
#278 = VERTEX_POINT('',#279);
#279 = CARTESIAN_POINT('',(85.,13.,-6.E-15));
#280 = CIRCLE('',#281,2.);
#281 = AXIS2_PLACEMENT_3D('',#282,#283,#284);
#282 = CARTESIAN_POINT('',(83.,13.,-8.65E-15));
#283 = DIRECTION('',(-0.,8.8E-16,1.));
#284 = DIRECTION('',(0.,-1.,8.8E-16));
#285 = ORIENTED_EDGE('',*,*,#286,.F.);
#286 = EDGE_CURVE('',#287,#278,#289,.T.);
#287 = VERTEX_POINT('',#288);
#288 = CARTESIAN_POINT('',(85.,2.,-1.E-15));
#289 = LINE('',#290,#291);
#290 = CARTESIAN_POINT('',(85.,0.,0.));
#291 = VECTOR('',#292,1.);
#292 = DIRECTION('',(0.,1.,0.));
#293 = ORIENTED_EDGE('',*,*,#294,.F.);
#294 = EDGE_CURVE('',#48,#287,#295,.T.);
#295 = CIRCLE('',#296,2.);
#296 = AXIS2_PLACEMENT_3D('',#297,#298,#299);
#297 = CARTESIAN_POINT('',(83.,2.,-1.35E-15));
#298 = DIRECTION('',(-0.,8.8E-16,1.));
#299 = DIRECTION('',(0.,-1.,8.8E-16));
#300 = FACE_BOUND('',#301,.T.);
#301 = EDGE_LOOP('',(#302,#312,#321,#329));
#302 = ORIENTED_EDGE('',*,*,#303,.T.);
#303 = EDGE_CURVE('',#304,#306,#308,.T.);
#304 = VERTEX_POINT('',#305);
#305 = CARTESIAN_POINT('',(62.5,10.15,0.));
#306 = VERTEX_POINT('',#307);
#307 = CARTESIAN_POINT('',(7.5,10.15,0.));
#308 = LINE('',#309,#310);
#309 = CARTESIAN_POINT('',(62.5,10.15,0.));
#310 = VECTOR('',#311,1.);
#311 = DIRECTION('',(-1.,3.E-17,0.));
#312 = ORIENTED_EDGE('',*,*,#313,.T.);
#313 = EDGE_CURVE('',#306,#314,#316,.T.);
#314 = VERTEX_POINT('',#315);
#315 = CARTESIAN_POINT('',(7.5,4.85,0.));
#316 = CIRCLE('',#317,2.65);
#317 = AXIS2_PLACEMENT_3D('',#318,#319,#320);
#318 = CARTESIAN_POINT('',(7.5,7.5,0.));
#319 = DIRECTION('',(0.,0.,1.));
#320 = DIRECTION('',(1.,0.,0.));
#321 = ORIENTED_EDGE('',*,*,#322,.T.);
#322 = EDGE_CURVE('',#314,#323,#325,.T.);
#323 = VERTEX_POINT('',#324);
#324 = CARTESIAN_POINT('',(62.5,4.85,0.));
#325 = LINE('',#326,#327);
#326 = CARTESIAN_POINT('',(7.5,4.85,0.));
#327 = VECTOR('',#328,1.);
#328 = DIRECTION('',(1.,0.,0.));
#329 = ORIENTED_EDGE('',*,*,#330,.T.);
#330 = EDGE_CURVE('',#323,#304,#331,.T.);
#331 = CIRCLE('',#332,2.65);
#332 = AXIS2_PLACEMENT_3D('',#333,#334,#335);
#333 = CARTESIAN_POINT('',(62.5,7.5,0.));
#334 = DIRECTION('',(0.,0.,1.));
#335 = DIRECTION('',(1.,0.,0.));
#336 = PLANE('',#337);
#337 = AXIS2_PLACEMENT_3D('',#338,#339,#340);
#338 = CARTESIAN_POINT('',(42.5,7.5,-1.67E-15));
#339 = DIRECTION('',(0.,-2.2E-16,-1.));
#340 = DIRECTION('',(0.,1.,-2.2E-16));
#341 = ADVANCED_FACE('',(#342),#361,.T.);
#342 = FACE_BOUND('',#343,.T.);
#343 = EDGE_LOOP('',(#344,#345,#353,#360));
#344 = ORIENTED_EDGE('',*,*,#294,.T.);
#345 = ORIENTED_EDGE('',*,*,#346,.T.);
#346 = EDGE_CURVE('',#287,#347,#349,.T.);
#347 = VERTEX_POINT('',#348);
#348 = CARTESIAN_POINT('',(85.,2.,15.));
#349 = LINE('',#350,#351);
#350 = CARTESIAN_POINT('',(85.,2.,-1.77E-15));
#351 = VECTOR('',#352,1.);
#352 = DIRECTION('',(0.,8.8E-16,1.));
#353 = ORIENTED_EDGE('',*,*,#354,.F.);
#354 = EDGE_CURVE('',#40,#347,#355,.T.);
#355 = CIRCLE('',#356,2.);
#356 = AXIS2_PLACEMENT_3D('',#357,#358,#359);
#357 = CARTESIAN_POINT('',(83.,2.,15.));
#358 = DIRECTION('',(-0.,8.8E-16,1.));
#359 = DIRECTION('',(0.,-1.,8.8E-16));
#360 = ORIENTED_EDGE('',*,*,#47,.F.);
#361 = CYLINDRICAL_SURFACE('',#362,2.);
#362 = AXIS2_PLACEMENT_3D('',#363,#364,#365);
#363 = CARTESIAN_POINT('',(83.,2.,-1.77E-15));
#364 = DIRECTION('',(0.,8.8E-16,1.));
#365 = DIRECTION('',(0.,-1.,8.8E-16));
#366 = ADVANCED_FACE('',(#367),#386,.F.);
#367 = FACE_BOUND('',#368,.F.);
#368 = EDGE_LOOP('',(#369,#370,#378,#385));
#369 = ORIENTED_EDGE('',*,*,#71,.F.);
#370 = ORIENTED_EDGE('',*,*,#371,.T.);
#371 = EDGE_CURVE('',#72,#372,#374,.T.);
#372 = VERTEX_POINT('',#373);
#373 = CARTESIAN_POINT('',(80.15,15.,7.5));
#374 = LINE('',#375,#376);
#375 = CARTESIAN_POINT('',(80.15,4.97E-15,7.5));
#376 = VECTOR('',#377,1.);
#377 = DIRECTION('',(0.,1.,-6.6E-16));
#378 = ORIENTED_EDGE('',*,*,#379,.T.);
#379 = EDGE_CURVE('',#372,#372,#380,.T.);
#380 = CIRCLE('',#381,2.65);
#381 = AXIS2_PLACEMENT_3D('',#382,#383,#384);
#382 = CARTESIAN_POINT('',(77.5,15.,7.5));
#383 = DIRECTION('',(0.,-1.,6.6E-16));
#384 = DIRECTION('',(1.,0.,0.));
#385 = ORIENTED_EDGE('',*,*,#371,.F.);
#386 = CYLINDRICAL_SURFACE('',#387,2.65);
#387 = AXIS2_PLACEMENT_3D('',#388,#389,#390);
#388 = CARTESIAN_POINT('',(77.5,4.97E-15,7.5));
#389 = DIRECTION('',(0.,-1.,6.6E-16));
#390 = DIRECTION('',(1.,0.,0.));
#391 = ADVANCED_FACE('',(#392),#411,.F.);
#392 = FACE_BOUND('',#393,.T.);
#393 = EDGE_LOOP('',(#394,#395,#403,#410));
#394 = ORIENTED_EDGE('',*,*,#197,.T.);
#395 = ORIENTED_EDGE('',*,*,#396,.T.);
#396 = EDGE_CURVE('',#190,#397,#399,.T.);
#397 = VERTEX_POINT('',#398);
#398 = CARTESIAN_POINT('',(70.,15.,17.));
#399 = LINE('',#400,#401);
#400 = CARTESIAN_POINT('',(70.,1.11E-14,17.));
#401 = VECTOR('',#402,1.);
#402 = DIRECTION('',(0.,1.,-7.8E-16));
#403 = ORIENTED_EDGE('',*,*,#404,.F.);
#404 = EDGE_CURVE('',#116,#397,#405,.T.);
#405 = CIRCLE('',#406,2.);
#406 = AXIS2_PLACEMENT_3D('',#407,#408,#409);
#407 = CARTESIAN_POINT('',(68.,15.,17.));
#408 = DIRECTION('',(0.,-1.,7.8E-16));
#409 = DIRECTION('',(0.,7.8E-16,1.));
#410 = ORIENTED_EDGE('',*,*,#123,.F.);
#411 = CYLINDRICAL_SURFACE('',#412,2.);
#412 = AXIS2_PLACEMENT_3D('',#413,#414,#415);
#413 = CARTESIAN_POINT('',(68.,1.11E-14,17.));
#414 = DIRECTION('',(0.,1.,-7.8E-16));
#415 = DIRECTION('',(0.,-7.8E-16,-1.));
#416 = ADVANCED_FACE('',(#417,#449),#452,.F.);
#417 = FACE_BOUND('',#418,.F.);
#418 = EDGE_LOOP('',(#419,#420,#426,#427,#435,#443));
#419 = ORIENTED_EDGE('',*,*,#115,.T.);
#420 = ORIENTED_EDGE('',*,*,#421,.F.);
#421 = EDGE_CURVE('',#261,#107,#422,.T.);
#422 = LINE('',#423,#424);
#423 = CARTESIAN_POINT('',(2.,15.,-1.332E-14));
#424 = VECTOR('',#425,1.);
#425 = DIRECTION('',(0.,8.8E-16,1.));
#426 = ORIENTED_EDGE('',*,*,#269,.F.);
#427 = ORIENTED_EDGE('',*,*,#428,.T.);
#428 = EDGE_CURVE('',#270,#429,#431,.T.);
#429 = VERTEX_POINT('',#430);
#430 = CARTESIAN_POINT('',(83.,15.,15.));
#431 = LINE('',#432,#433);
#432 = CARTESIAN_POINT('',(83.,15.,-1.332E-14));
#433 = VECTOR('',#434,1.);
#434 = DIRECTION('',(0.,8.8E-16,1.));
#435 = ORIENTED_EDGE('',*,*,#436,.T.);
#436 = EDGE_CURVE('',#429,#437,#439,.T.);
#437 = VERTEX_POINT('',#438);
#438 = CARTESIAN_POINT('',(70.,15.,15.));
#439 = LINE('',#440,#441);
#440 = CARTESIAN_POINT('',(85.,15.,15.));
#441 = VECTOR('',#442,1.);
#442 = DIRECTION('',(-1.,0.,0.));
#443 = ORIENTED_EDGE('',*,*,#444,.T.);
#444 = EDGE_CURVE('',#437,#116,#445,.T.);
#445 = LINE('',#446,#447);
#446 = CARTESIAN_POINT('',(85.,15.,15.));
#447 = VECTOR('',#448,1.);
#448 = DIRECTION('',(-1.,0.,0.));
#449 = FACE_BOUND('',#450,.F.);
#450 = EDGE_LOOP('',(#451));
#451 = ORIENTED_EDGE('',*,*,#379,.F.);
#452 = PLANE('',#453);
#453 = AXIS2_PLACEMENT_3D('',#454,#455,#456);
#454 = CARTESIAN_POINT('',(85.,15.,-6.66E-15));
#455 = DIRECTION('',(0.,-1.,4.4E-16));
#456 = DIRECTION('',(-1.,0.,0.));
#457 = ADVANCED_FACE('',(#458),#469,.F.);
#458 = FACE_BOUND('',#459,.F.);
#459 = EDGE_LOOP('',(#460,#461,#467,#468));
#460 = ORIENTED_EDGE('',*,*,#252,.F.);
#461 = ORIENTED_EDGE('',*,*,#462,.T.);
#462 = EDGE_CURVE('',#253,#99,#463,.T.);
#463 = LINE('',#464,#465);
#464 = CARTESIAN_POINT('',(-4.4E-16,13.,-1.155E-14));
#465 = VECTOR('',#466,1.);
#466 = DIRECTION('',(0.,8.8E-16,1.));
#467 = ORIENTED_EDGE('',*,*,#98,.T.);
#468 = ORIENTED_EDGE('',*,*,#234,.F.);
#469 = PLANE('',#470);
#470 = AXIS2_PLACEMENT_3D('',#471,#472,#473);
#471 = CARTESIAN_POINT('',(0.,15.,-6.66E-15));
#472 = DIRECTION('',(1.,0.,0.));
#473 = DIRECTION('',(0.,-1.,4.4E-16));
#474 = ADVANCED_FACE('',(#475),#481,.T.);
#475 = FACE_BOUND('',#476,.F.);
#476 = EDGE_LOOP('',(#477,#478,#479,#480));
#477 = ORIENTED_EDGE('',*,*,#260,.T.);
#478 = ORIENTED_EDGE('',*,*,#421,.T.);
#479 = ORIENTED_EDGE('',*,*,#106,.F.);
#480 = ORIENTED_EDGE('',*,*,#462,.F.);
#481 = CYLINDRICAL_SURFACE('',#482,2.);
#482 = AXIS2_PLACEMENT_3D('',#483,#484,#485);
#483 = CARTESIAN_POINT('',(2.,13.,-1.155E-14));
#484 = DIRECTION('',(0.,8.8E-16,1.));
#485 = DIRECTION('',(-1.,0.,0.));
#486 = ADVANCED_FACE('',(#487),#503,.F.);
#487 = FACE_BOUND('',#488,.F.);
#488 = EDGE_LOOP('',(#489,#495,#496,#502));
#489 = ORIENTED_EDGE('',*,*,#490,.T.);
#490 = EDGE_CURVE('',#132,#304,#491,.T.);
#491 = LINE('',#492,#493);
#492 = CARTESIAN_POINT('',(62.5,10.15,15.));
#493 = VECTOR('',#494,1.);
#494 = DIRECTION('',(0.,-3.3E-16,-1.));
#495 = ORIENTED_EDGE('',*,*,#303,.T.);
#496 = ORIENTED_EDGE('',*,*,#497,.F.);
#497 = EDGE_CURVE('',#134,#306,#498,.T.);
#498 = LINE('',#499,#500);
#499 = CARTESIAN_POINT('',(7.5,10.15,15.));
#500 = VECTOR('',#501,1.);
#501 = DIRECTION('',(0.,-3.3E-16,-1.));
#502 = ORIENTED_EDGE('',*,*,#131,.F.);
#503 = PLANE('',#504);
#504 = AXIS2_PLACEMENT_3D('',#505,#506,#507);
#505 = CARTESIAN_POINT('',(62.5,10.15,15.));
#506 = DIRECTION('',(3.E-17,1.,-3.3E-16));
#507 = DIRECTION('',(-1.,3.E-17,-4.540919947289E-49));
#508 = ADVANCED_FACE('',(#509),#520,.F.);
#509 = FACE_BOUND('',#510,.F.);
#510 = EDGE_LOOP('',(#511,#517,#518,#519));
#511 = ORIENTED_EDGE('',*,*,#512,.T.);
#512 = EDGE_CURVE('',#151,#323,#513,.T.);
#513 = LINE('',#514,#515);
#514 = CARTESIAN_POINT('',(62.5,4.85,15.));
#515 = VECTOR('',#516,1.);
#516 = DIRECTION('',(0.,-3.3E-16,-1.));
#517 = ORIENTED_EDGE('',*,*,#330,.T.);
#518 = ORIENTED_EDGE('',*,*,#490,.F.);
#519 = ORIENTED_EDGE('',*,*,#158,.F.);
#520 = CYLINDRICAL_SURFACE('',#521,2.65);
#521 = AXIS2_PLACEMENT_3D('',#522,#523,#524);
#522 = CARTESIAN_POINT('',(62.5,7.5,15.));
#523 = DIRECTION('',(0.,3.3E-16,1.));
#524 = DIRECTION('',(1.,0.,0.));
#525 = ADVANCED_FACE('',(#526),#537,.F.);
#526 = FACE_BOUND('',#527,.F.);
#527 = EDGE_LOOP('',(#528,#529,#530,#536));
#528 = ORIENTED_EDGE('',*,*,#497,.T.);
#529 = ORIENTED_EDGE('',*,*,#313,.T.);
#530 = ORIENTED_EDGE('',*,*,#531,.F.);
#531 = EDGE_CURVE('',#142,#314,#532,.T.);
#532 = LINE('',#533,#534);
#533 = CARTESIAN_POINT('',(7.5,4.85,15.));
#534 = VECTOR('',#535,1.);
#535 = DIRECTION('',(0.,-3.3E-16,-1.));
#536 = ORIENTED_EDGE('',*,*,#141,.F.);
#537 = CYLINDRICAL_SURFACE('',#538,2.65);
#538 = AXIS2_PLACEMENT_3D('',#539,#540,#541);
#539 = CARTESIAN_POINT('',(7.5,7.5,15.));
#540 = DIRECTION('',(0.,3.3E-16,1.));
#541 = DIRECTION('',(1.,0.,0.));
#542 = ADVANCED_FACE('',(#543),#549,.F.);
#543 = FACE_BOUND('',#544,.F.);
#544 = EDGE_LOOP('',(#545,#546,#547,#548));
#545 = ORIENTED_EDGE('',*,*,#531,.T.);
#546 = ORIENTED_EDGE('',*,*,#322,.T.);
#547 = ORIENTED_EDGE('',*,*,#512,.F.);
#548 = ORIENTED_EDGE('',*,*,#150,.F.);
#549 = PLANE('',#550);
#550 = AXIS2_PLACEMENT_3D('',#551,#552,#553);
#551 = CARTESIAN_POINT('',(7.5,4.85,15.));
#552 = DIRECTION('',(0.,-1.,3.3E-16));
#553 = DIRECTION('',(1.,0.,0.));
#554 = ADVANCED_FACE('',(#555),#574,.T.);
#555 = FACE_BOUND('',#556,.T.);
#556 = EDGE_LOOP('',(#557,#558,#559,#567));
#557 = ORIENTED_EDGE('',*,*,#173,.F.);
#558 = ORIENTED_EDGE('',*,*,#354,.T.);
#559 = ORIENTED_EDGE('',*,*,#560,.T.);
#560 = EDGE_CURVE('',#347,#561,#563,.T.);
#561 = VERTEX_POINT('',#562);
#562 = CARTESIAN_POINT('',(85.,2.,28.));
#563 = LINE('',#564,#565);
#564 = CARTESIAN_POINT('',(85.,2.,15.));
#565 = VECTOR('',#566,1.);
#566 = DIRECTION('',(0.,7.2E-16,1.));
#567 = ORIENTED_EDGE('',*,*,#568,.T.);
#568 = EDGE_CURVE('',#561,#174,#569,.T.);
#569 = CIRCLE('',#570,2.);
#570 = AXIS2_PLACEMENT_3D('',#571,#572,#573);
#571 = CARTESIAN_POINT('',(83.,2.,28.));
#572 = DIRECTION('',(7.75294946748E-47,-8.3E-16,-1.));
#573 = DIRECTION('',(1.,-1.05E-15,8.715E-31));
#574 = CYLINDRICAL_SURFACE('',#575,2.);
#575 = AXIS2_PLACEMENT_3D('',#576,#577,#578);
#576 = CARTESIAN_POINT('',(83.,2.,15.));
#577 = DIRECTION('',(0.,7.2E-16,1.));
#578 = DIRECTION('',(0.,-1.,7.2E-16));
#579 = ADVANCED_FACE('',(#580),#607,.T.);
#580 = FACE_BOUND('',#581,.F.);
#581 = EDGE_LOOP('',(#582,#591,#592,#601));
#582 = ORIENTED_EDGE('',*,*,#583,.T.);
#583 = EDGE_CURVE('',#584,#174,#586,.T.);
#584 = VERTEX_POINT('',#585);
#585 = CARTESIAN_POINT('',(83.,2.,30.));
#586 = CIRCLE('',#587,2.);
#587 = AXIS2_PLACEMENT_3D('',#588,#589,#590);
#588 = CARTESIAN_POINT('',(83.,2.,28.));
#589 = DIRECTION('',(1.,-5.5E-16,2.750758794904E-49));
#590 = DIRECTION('',(-5.5E-16,-1.,8.3E-16));
#591 = ORIENTED_EDGE('',*,*,#181,.T.);
#592 = ORIENTED_EDGE('',*,*,#593,.T.);
#593 = EDGE_CURVE('',#182,#594,#596,.T.);
#594 = VERTEX_POINT('',#595);
#595 = CARTESIAN_POINT('',(72.,2.,30.));
#596 = ELLIPSE('',#597,2.828427124746,2.);
#597 = AXIS2_PLACEMENT_3D('',#598,#599,#600);
#598 = CARTESIAN_POINT('',(72.,2.,28.));
#599 = DIRECTION('',(-0.707106781187,0.707106781187,-5.5E-16));
#600 = DIRECTION('',(0.707106781187,0.707106781187,-5.5E-16));
#601 = ORIENTED_EDGE('',*,*,#602,.F.);
#602 = EDGE_CURVE('',#584,#594,#603,.T.);
#603 = LINE('',#604,#605);
#604 = CARTESIAN_POINT('',(83.,2.,30.));
#605 = VECTOR('',#606,1.);
#606 = DIRECTION('',(-1.,0.,0.));
#607 = CYLINDRICAL_SURFACE('',#608,2.);
#608 = AXIS2_PLACEMENT_3D('',#609,#610,#611);
#609 = CARTESIAN_POINT('',(83.,2.,28.));
#610 = DIRECTION('',(-1.,0.,0.));
#611 = DIRECTION('',(0.,8.3E-16,1.));
#612 = ADVANCED_FACE('',(#613),#631,.T.);
#613 = FACE_BOUND('',#614,.T.);
#614 = EDGE_LOOP('',(#615,#616,#624,#630));
#615 = ORIENTED_EDGE('',*,*,#189,.T.);
#616 = ORIENTED_EDGE('',*,*,#617,.T.);
#617 = EDGE_CURVE('',#182,#618,#620,.T.);
#618 = VERTEX_POINT('',#619);
#619 = CARTESIAN_POINT('',(70.,15.,28.));
#620 = LINE('',#621,#622);
#621 = CARTESIAN_POINT('',(70.,1.921E-14,28.));
#622 = VECTOR('',#623,1.);
#623 = DIRECTION('',(0.,1.,-7.8E-16));
#624 = ORIENTED_EDGE('',*,*,#625,.F.);
#625 = EDGE_CURVE('',#397,#618,#626,.T.);
#626 = LINE('',#627,#628);
#627 = CARTESIAN_POINT('',(70.,15.,15.));
#628 = VECTOR('',#629,1.);
#629 = DIRECTION('',(0.,6.1E-16,1.));
#630 = ORIENTED_EDGE('',*,*,#396,.F.);
#631 = PLANE('',#632);
#632 = AXIS2_PLACEMENT_3D('',#633,#634,#635);
#633 = CARTESIAN_POINT('',(70.,8.3E-15,15.));
#634 = DIRECTION('',(-1.,0.,0.));
#635 = DIRECTION('',(0.,1.,-6.7E-16));
#636 = ADVANCED_FACE('',(#637),#656,.F.);
#637 = FACE_BOUND('',#638,.F.);
#638 = EDGE_LOOP('',(#639,#647,#654,#655));
#639 = ORIENTED_EDGE('',*,*,#640,.T.);
#640 = EDGE_CURVE('',#209,#641,#643,.T.);
#641 = VERTEX_POINT('',#642);
#642 = CARTESIAN_POINT('',(80.15,15.,22.5));
#643 = LINE('',#644,#645);
#644 = CARTESIAN_POINT('',(80.15,1.537E-14,22.5));
#645 = VECTOR('',#646,1.);
#646 = DIRECTION('',(0.,1.,-7.2E-16));
#647 = ORIENTED_EDGE('',*,*,#648,.T.);
#648 = EDGE_CURVE('',#641,#641,#649,.T.);
#649 = CIRCLE('',#650,2.65);
#650 = AXIS2_PLACEMENT_3D('',#651,#652,#653);
#651 = CARTESIAN_POINT('',(77.5,15.,22.5));
#652 = DIRECTION('',(0.,-1.,1.E-15));
#653 = DIRECTION('',(1.,0.,0.));
#654 = ORIENTED_EDGE('',*,*,#640,.F.);
#655 = ORIENTED_EDGE('',*,*,#208,.F.);
#656 = CYLINDRICAL_SURFACE('',#657,2.65);
#657 = AXIS2_PLACEMENT_3D('',#658,#659,#660);
#658 = CARTESIAN_POINT('',(77.5,1.537E-14,22.5));
#659 = DIRECTION('',(0.,-1.,7.2E-16));
#660 = DIRECTION('',(1.,0.,0.));
#661 = ADVANCED_FACE('',(#662),#680,.F.);
#662 = FACE_BOUND('',#663,.F.);
#663 = EDGE_LOOP('',(#664,#665,#666,#674));
#664 = ORIENTED_EDGE('',*,*,#286,.F.);
#665 = ORIENTED_EDGE('',*,*,#346,.T.);
#666 = ORIENTED_EDGE('',*,*,#667,.T.);
#667 = EDGE_CURVE('',#347,#668,#670,.T.);
#668 = VERTEX_POINT('',#669);
#669 = CARTESIAN_POINT('',(85.,13.,15.));
#670 = LINE('',#671,#672);
#671 = CARTESIAN_POINT('',(85.,7.E-15,15.));
#672 = VECTOR('',#673,1.);
#673 = DIRECTION('',(0.,1.,0.));
#674 = ORIENTED_EDGE('',*,*,#675,.F.);
#675 = EDGE_CURVE('',#278,#668,#676,.T.);
#676 = LINE('',#677,#678);
#677 = CARTESIAN_POINT('',(85.,13.,-1.155E-14));
#678 = VECTOR('',#679,1.);
#679 = DIRECTION('',(0.,8.8E-16,1.));
#680 = PLANE('',#681);
#681 = AXIS2_PLACEMENT_3D('',#682,#683,#684);
#682 = CARTESIAN_POINT('',(85.,0.,0.));
#683 = DIRECTION('',(-1.,0.,0.));
#684 = DIRECTION('',(0.,1.,-4.4E-16));
#685 = ADVANCED_FACE('',(#686),#698,.T.);
#686 = FACE_BOUND('',#687,.T.);
#687 = EDGE_LOOP('',(#688,#689,#690,#697));
#688 = ORIENTED_EDGE('',*,*,#277,.T.);
#689 = ORIENTED_EDGE('',*,*,#428,.T.);
#690 = ORIENTED_EDGE('',*,*,#691,.F.);
#691 = EDGE_CURVE('',#668,#429,#692,.T.);
#692 = CIRCLE('',#693,2.);
#693 = AXIS2_PLACEMENT_3D('',#694,#695,#696);
#694 = CARTESIAN_POINT('',(83.,13.,15.));
#695 = DIRECTION('',(-0.,8.8E-16,1.));
#696 = DIRECTION('',(1.,0.,0.));
#697 = ORIENTED_EDGE('',*,*,#675,.F.);
#698 = CYLINDRICAL_SURFACE('',#699,2.);
#699 = AXIS2_PLACEMENT_3D('',#700,#701,#702);
#700 = CARTESIAN_POINT('',(83.,13.,-1.155E-14));
#701 = DIRECTION('',(0.,8.8E-16,1.));
#702 = DIRECTION('',(1.,0.,0.));
#703 = ADVANCED_FACE('',(#704,#724),#727,.T.);
#704 = FACE_BOUND('',#705,.T.);
#705 = EDGE_LOOP('',(#706,#714,#715,#716,#717,#718));
#706 = ORIENTED_EDGE('',*,*,#707,.F.);
#707 = EDGE_CURVE('',#429,#708,#710,.T.);
#708 = VERTEX_POINT('',#709);
#709 = CARTESIAN_POINT('',(83.,15.,28.));
#710 = LINE('',#711,#712);
#711 = CARTESIAN_POINT('',(83.,15.,15.));
#712 = VECTOR('',#713,1.);
#713 = DIRECTION('',(0.,7.2E-16,1.));
#714 = ORIENTED_EDGE('',*,*,#436,.T.);
#715 = ORIENTED_EDGE('',*,*,#444,.T.);
#716 = ORIENTED_EDGE('',*,*,#404,.T.);
#717 = ORIENTED_EDGE('',*,*,#625,.T.);
#718 = ORIENTED_EDGE('',*,*,#719,.T.);
#719 = EDGE_CURVE('',#618,#708,#720,.T.);
#720 = LINE('',#721,#722);
#721 = CARTESIAN_POINT('',(70.,15.,28.));
#722 = VECTOR('',#723,1.);
#723 = DIRECTION('',(1.,0.,0.));
#724 = FACE_BOUND('',#725,.T.);
#725 = EDGE_LOOP('',(#726));
#726 = ORIENTED_EDGE('',*,*,#648,.T.);
#727 = PLANE('',#728);
#728 = AXIS2_PLACEMENT_3D('',#729,#730,#731);
#729 = CARTESIAN_POINT('',(70.,15.,15.));
#730 = DIRECTION('',(0.,1.,-6.1E-16));
#731 = DIRECTION('',(1.,0.,0.));
#732 = ADVANCED_FACE('',(#733),#744,.T.);
#733 = FACE_BOUND('',#734,.T.);
#734 = EDGE_LOOP('',(#735,#742,#743));
#735 = ORIENTED_EDGE('',*,*,#736,.F.);
#736 = EDGE_CURVE('',#584,#561,#737,.T.);
#737 = CIRCLE('',#738,2.);
#738 = AXIS2_PLACEMENT_3D('',#739,#740,#741);
#739 = CARTESIAN_POINT('',(83.,2.,28.));
#740 = DIRECTION('',(-0.,1.,-7.8E-16));
#741 = DIRECTION('',(0.,7.8E-16,1.));
#742 = ORIENTED_EDGE('',*,*,#583,.T.);
#743 = ORIENTED_EDGE('',*,*,#568,.F.);
#744 = SPHERICAL_SURFACE('',#745,2.);
#745 = AXIS2_PLACEMENT_3D('',#746,#747,#748);
#746 = CARTESIAN_POINT('',(83.,2.,28.));
#747 = DIRECTION('',(0.,-8.3E-16,-1.));
#748 = DIRECTION('',(1.,-1.05E-15,8.715E-31));
#749 = ADVANCED_FACE('',(#750),#768,.T.);
#750 = FACE_BOUND('',#751,.T.);
#751 = EDGE_LOOP('',(#752,#753,#754,#762));
#752 = ORIENTED_EDGE('',*,*,#560,.F.);
#753 = ORIENTED_EDGE('',*,*,#667,.T.);
#754 = ORIENTED_EDGE('',*,*,#755,.T.);
#755 = EDGE_CURVE('',#668,#756,#758,.T.);
#756 = VERTEX_POINT('',#757);
#757 = CARTESIAN_POINT('',(85.,13.,28.));
#758 = LINE('',#759,#760);
#759 = CARTESIAN_POINT('',(85.,13.,15.));
#760 = VECTOR('',#761,1.);
#761 = DIRECTION('',(0.,7.2E-16,1.));
#762 = ORIENTED_EDGE('',*,*,#763,.T.);
#763 = EDGE_CURVE('',#756,#561,#764,.T.);
#764 = LINE('',#765,#766);
#765 = CARTESIAN_POINT('',(85.,13.,28.));
#766 = VECTOR('',#767,1.);
#767 = DIRECTION('',(0.,-1.,7.8E-16));
#768 = PLANE('',#769);
#769 = AXIS2_PLACEMENT_3D('',#770,#771,#772);
#770 = CARTESIAN_POINT('',(85.,15.,15.));
#771 = DIRECTION('',(1.,0.,0.));
#772 = DIRECTION('',(0.,-1.,6.7E-16));
#773 = ADVANCED_FACE('',(#774),#799,.F.);
#774 = FACE_BOUND('',#775,.F.);
#775 = EDGE_LOOP('',(#776,#784,#792,#798));
#776 = ORIENTED_EDGE('',*,*,#777,.T.);
#777 = EDGE_CURVE('',#594,#778,#780,.T.);
#778 = VERTEX_POINT('',#779);
#779 = CARTESIAN_POINT('',(72.,13.,30.));
#780 = LINE('',#781,#782);
#781 = CARTESIAN_POINT('',(72.,2.077E-14,30.));
#782 = VECTOR('',#783,1.);
#783 = DIRECTION('',(0.,1.,-7.8E-16));
#784 = ORIENTED_EDGE('',*,*,#785,.T.);
#785 = EDGE_CURVE('',#778,#786,#788,.T.);
#786 = VERTEX_POINT('',#787);
#787 = CARTESIAN_POINT('',(83.,13.,30.));
#788 = LINE('',#789,#790);
#789 = CARTESIAN_POINT('',(70.,13.,30.));
#790 = VECTOR('',#791,1.);
#791 = DIRECTION('',(1.,0.,0.));
#792 = ORIENTED_EDGE('',*,*,#793,.T.);
#793 = EDGE_CURVE('',#786,#584,#794,.T.);
#794 = LINE('',#795,#796);
#795 = CARTESIAN_POINT('',(83.,13.,30.));
#796 = VECTOR('',#797,1.);
#797 = DIRECTION('',(0.,-1.,7.8E-16));
#798 = ORIENTED_EDGE('',*,*,#602,.T.);
#799 = PLANE('',#800);
#800 = AXIS2_PLACEMENT_3D('',#801,#802,#803);
#801 = CARTESIAN_POINT('',(77.5,7.5,30.));
#802 = DIRECTION('',(0.,-8.3E-16,-1.));
#803 = DIRECTION('',(0.,1.,-8.3E-16));
#804 = ADVANCED_FACE('',(#805),#817,.T.);
#805 = FACE_BOUND('',#806,.T.);
#806 = EDGE_LOOP('',(#807,#808,#809,#816));
#807 = ORIENTED_EDGE('',*,*,#593,.T.);
#808 = ORIENTED_EDGE('',*,*,#777,.T.);
#809 = ORIENTED_EDGE('',*,*,#810,.F.);
#810 = EDGE_CURVE('',#618,#778,#811,.T.);
#811 = ELLIPSE('',#812,2.828427124746,2.);
#812 = AXIS2_PLACEMENT_3D('',#813,#814,#815);
#813 = CARTESIAN_POINT('',(72.,13.,28.));
#814 = DIRECTION('',(0.707106781187,0.707106781187,-5.5E-16));
#815 = DIRECTION('',(-0.707106781187,0.707106781187,-5.5E-16));
#816 = ORIENTED_EDGE('',*,*,#617,.F.);
#817 = CYLINDRICAL_SURFACE('',#818,2.);
#818 = AXIS2_PLACEMENT_3D('',#819,#820,#821);
#819 = CARTESIAN_POINT('',(72.,1.921E-14,28.));
#820 = DIRECTION('',(0.,1.,-7.8E-16));
#821 = DIRECTION('',(-1.,0.,0.));
#822 = ADVANCED_FACE('',(#823),#835,.T.);
#823 = FACE_BOUND('',#824,.T.);
#824 = EDGE_LOOP('',(#825,#826,#827,#828));
#825 = ORIENTED_EDGE('',*,*,#755,.F.);
#826 = ORIENTED_EDGE('',*,*,#691,.T.);
#827 = ORIENTED_EDGE('',*,*,#707,.T.);
#828 = ORIENTED_EDGE('',*,*,#829,.T.);
#829 = EDGE_CURVE('',#708,#756,#830,.T.);
#830 = CIRCLE('',#831,2.);
#831 = AXIS2_PLACEMENT_3D('',#832,#833,#834);
#832 = CARTESIAN_POINT('',(83.,13.,28.));
#833 = DIRECTION('',(0.,-8.3E-16,-1.));
#834 = DIRECTION('',(0.,1.,-8.3E-16));
#835 = CYLINDRICAL_SURFACE('',#836,2.);
#836 = AXIS2_PLACEMENT_3D('',#837,#838,#839);
#837 = CARTESIAN_POINT('',(83.,13.,15.));
#838 = DIRECTION('',(0.,7.2E-16,1.));
#839 = DIRECTION('',(1.,0.,0.));
#840 = ADVANCED_FACE('',(#841),#853,.T.);
#841 = FACE_BOUND('',#842,.F.);
#842 = EDGE_LOOP('',(#843,#844,#845,#852));
#843 = ORIENTED_EDGE('',*,*,#810,.F.);
#844 = ORIENTED_EDGE('',*,*,#719,.T.);
#845 = ORIENTED_EDGE('',*,*,#846,.F.);
#846 = EDGE_CURVE('',#786,#708,#847,.T.);
#847 = CIRCLE('',#848,2.);
#848 = AXIS2_PLACEMENT_3D('',#849,#850,#851);
#849 = CARTESIAN_POINT('',(83.,13.,28.));
#850 = DIRECTION('',(-1.,0.,-0.));
#851 = DIRECTION('',(-0.,8.3E-16,1.));
#852 = ORIENTED_EDGE('',*,*,#785,.F.);
#853 = CYLINDRICAL_SURFACE('',#854,2.);
#854 = AXIS2_PLACEMENT_3D('',#855,#856,#857);
#855 = CARTESIAN_POINT('',(70.,13.,28.));
#856 = DIRECTION('',(1.,0.,0.));
#857 = DIRECTION('',(-0.,8.3E-16,1.));
#858 = ADVANCED_FACE('',(#859),#871,.T.);
#859 = FACE_BOUND('',#860,.F.);
#860 = EDGE_LOOP('',(#861,#868,#869,#870));
#861 = ORIENTED_EDGE('',*,*,#862,.T.);
#862 = EDGE_CURVE('',#786,#756,#863,.T.);
#863 = CIRCLE('',#864,2.);
#864 = AXIS2_PLACEMENT_3D('',#865,#866,#867);
#865 = CARTESIAN_POINT('',(83.,13.,28.));
#866 = DIRECTION('',(-6.E-17,1.,-8.3E-16));
#867 = DIRECTION('',(1.,6.E-17,-3.312993652722E-48));
#868 = ORIENTED_EDGE('',*,*,#763,.T.);
#869 = ORIENTED_EDGE('',*,*,#736,.F.);
#870 = ORIENTED_EDGE('',*,*,#793,.F.);
#871 = CYLINDRICAL_SURFACE('',#872,2.);
#872 = AXIS2_PLACEMENT_3D('',#873,#874,#875);
#873 = CARTESIAN_POINT('',(83.,13.,28.));
#874 = DIRECTION('',(0.,-1.,7.8E-16));
#875 = DIRECTION('',(-0.,7.8E-16,1.));
#876 = ADVANCED_FACE('',(#877),#882,.T.);
#877 = FACE_BOUND('',#878,.T.);
#878 = EDGE_LOOP('',(#879,#880,#881));
#879 = ORIENTED_EDGE('',*,*,#846,.F.);
#880 = ORIENTED_EDGE('',*,*,#862,.T.);
#881 = ORIENTED_EDGE('',*,*,#829,.F.);
#882 = SPHERICAL_SURFACE('',#883,2.);
#883 = AXIS2_PLACEMENT_3D('',#884,#885,#886);
#884 = CARTESIAN_POINT('',(83.,13.,28.));
#885 = DIRECTION('',(0.,-8.3E-16,-1.));
#886 = DIRECTION('',(0.,1.,-8.3E-16));
#887 = ( GEOMETRIC_REPRESENTATION_CONTEXT(3) 
GLOBAL_UNCERTAINTY_ASSIGNED_CONTEXT((#891)) GLOBAL_UNIT_ASSIGNED_CONTEXT
((#888,#889,#890)) REPRESENTATION_CONTEXT('Context #1',
  '3D Context with UNIT and UNCERTAINTY') );
#888 = ( LENGTH_UNIT() NAMED_UNIT(*) SI_UNIT(.MILLI.,.METRE.) );
#889 = ( NAMED_UNIT(*) PLANE_ANGLE_UNIT() SI_UNIT($,.RADIAN.) );
#890 = ( NAMED_UNIT(*) SI_UNIT($,.STERADIAN.) SOLID_ANGLE_UNIT() );
#891 = UNCERTAINTY_MEASURE_WITH_UNIT(LENGTH_MEASURE(5.E-06),#888,
  'distance_accuracy_value','confusion accuracy');
#892 = PRODUCT_RELATED_PRODUCT_CATEGORY('part',$,(#7));
#893 = MECHANICAL_DESIGN_GEOMETRIC_PRESENTATION_REPRESENTATION('',(#894)
  ,#887);
#894 = STYLED_ITEM('color',(#895),#15);
#895 = PRESENTATION_STYLE_ASSIGNMENT((#896,#902));
#896 = SURFACE_STYLE_USAGE(.BOTH.,#897);
#897 = SURFACE_SIDE_STYLE('',(#898));
#898 = SURFACE_STYLE_FILL_AREA(#899);
#899 = FILL_AREA_STYLE('',(#900));
#900 = FILL_AREA_STYLE_COLOUR('',#901);
#901 = COLOUR_RGB('',0.800000010877,0.800000010877,0.800000010877);
#902 = CURVE_STYLE('',#903,POSITIVE_LENGTH_MEASURE(0.1),#904);
#903 = DRAUGHTING_PRE_DEFINED_CURVE_FONT('continuous');
#904 = COLOUR_RGB('',9.803921802644E-02,9.803921802644E-02,
  9.803921802644E-02);
ENDSEC;
END-ISO-10303-21;
